G04 #@! TF.GenerationSoftware,KiCad,Pcbnew,7.0.1*
G04 #@! TF.CreationDate,2024-09-08T21:52:54+07:00*
G04 #@! TF.ProjectId,minikeeb,6d696e69-6b65-4656-922e-6b696361645f,rev?*
G04 #@! TF.SameCoordinates,Original*
G04 #@! TF.FileFunction,Profile,NP*
%FSLAX46Y46*%
G04 Gerber Fmt 4.6, Leading zero omitted, Abs format (unit mm)*
G04 Created by KiCad (PCBNEW 7.0.1) date 2024-09-08 21:52:54*
%MOMM*%
%LPD*%
G01*
G04 APERTURE LIST*
G04 #@! TA.AperFunction,Profile*
%ADD10C,0.200000*%
G04 #@! TD*
G04 #@! TA.AperFunction,Profile*
%ADD11C,0.050000*%
G04 #@! TD*
G04 #@! TA.AperFunction,Profile*
%ADD12C,0.100000*%
G04 #@! TD*
G04 APERTURE END LIST*
D10*
X30080000Y-143970000D02*
X30090660Y-153019340D01*
X34750000Y-143970000D02*
X30080000Y-143970000D01*
X34750000Y-134750000D02*
X34750000Y-143970000D01*
X30120000Y-134750000D02*
X34750000Y-134750000D01*
X30115103Y-133440023D02*
X30120000Y-134750000D01*
X126187418Y-124739249D02*
X126187418Y-132803014D01*
X123617408Y-123239249D02*
X124687418Y-123239249D01*
X31177769Y-74291580D02*
G75*
G03*
X30117408Y-75725719I439631J-1434120D01*
G01*
D11*
X33481781Y-89360000D02*
G75*
G03*
X33481781Y-89360000I-1011781J0D01*
G01*
D10*
X122117441Y-73405759D02*
G75*
G03*
X120981730Y-71950676I-1500041J-41D01*
G01*
D11*
X105481781Y-71300000D02*
G75*
G03*
X105481781Y-71300000I-1011781J0D01*
G01*
D10*
X30117408Y-130915496D02*
X30117408Y-75725719D01*
D11*
X67231781Y-70330000D02*
G75*
G03*
X67231781Y-70330000I-1011781J0D01*
G01*
X45471781Y-124650000D02*
G75*
G03*
X45471781Y-124650000I-1011781J0D01*
G01*
D10*
X120981729Y-71950677D02*
G75*
G03*
X31177773Y-74291592I-40695659J-162536443D01*
G01*
D11*
X109181781Y-151780000D02*
G75*
G03*
X109181781Y-151780000I-1011781J0D01*
G01*
D10*
X122117408Y-73405759D02*
X122117408Y-121739249D01*
D11*
X119171781Y-106110000D02*
G75*
G03*
X119171781Y-106110000I-1011781J0D01*
G01*
X32911781Y-149690000D02*
G75*
G03*
X32911781Y-149690000I-1011781J0D01*
G01*
D10*
X30115103Y-133440023D02*
X30117408Y-130915496D01*
X103709999Y-154499588D02*
X31590660Y-154519340D01*
X119753800Y-157912925D02*
X104133583Y-154585223D01*
D11*
X123271781Y-135940000D02*
G75*
G03*
X123271781Y-135940000I-1011781J0D01*
G01*
D10*
X126187411Y-132803014D02*
G75*
G03*
X126345659Y-133473595I1499989J14D01*
G01*
X122117351Y-121739249D02*
G75*
G03*
X123617408Y-123239249I1500049J49D01*
G01*
X104133583Y-154585223D02*
G75*
G03*
X103709999Y-154499588I-423583J-1004777D01*
G01*
X129767707Y-141754121D02*
G75*
G03*
X129791216Y-140367789I-1318307J715721D01*
G01*
X126187351Y-124739249D02*
G75*
G03*
X124687418Y-123239249I-1499951J49D01*
G01*
X30090660Y-153019340D02*
G75*
G03*
X31590660Y-154519340I1500040J40D01*
G01*
X126345657Y-133473595D02*
X129791217Y-140367789D01*
X129767683Y-141754108D02*
X121460255Y-157179775D01*
X119753796Y-157912940D02*
G75*
G03*
X121460255Y-157179775I388204J1448940D01*
G01*
D12*
X74350000Y-79170000D02*
X74350000Y-82270000D01*
X74350000Y-82270000D02*
X77950000Y-82270000D01*
X77950000Y-79170000D02*
X74350000Y-79170000D01*
X77950000Y-82270000D02*
X77950000Y-79170000D01*
X78000000Y-99340000D02*
X78000000Y-96240000D01*
X78000000Y-96240000D02*
X74400000Y-96240000D01*
X74400000Y-99340000D02*
X78000000Y-99340000D01*
X74400000Y-96240000D02*
X74400000Y-99340000D01*
X74400000Y-113258000D02*
X74400000Y-116358000D01*
X74400000Y-116358000D02*
X78000000Y-116358000D01*
X78000000Y-113258000D02*
X74400000Y-113258000D01*
X78000000Y-116358000D02*
X78000000Y-113258000D01*
X59966000Y-101626000D02*
X59966000Y-98526000D01*
X59966000Y-98526000D02*
X56366000Y-98526000D01*
X56366000Y-101626000D02*
X59966000Y-101626000D01*
X56366000Y-98526000D02*
X56366000Y-101626000D01*
X56350000Y-81560000D02*
X56350000Y-84660000D01*
X56350000Y-84660000D02*
X59950000Y-84660000D01*
X59950000Y-81560000D02*
X56350000Y-81560000D01*
X59950000Y-84660000D02*
X59950000Y-81560000D01*
X76750000Y-143890000D02*
X76750000Y-140790000D01*
X76750000Y-140790000D02*
X73150000Y-140790000D01*
X73150000Y-143890000D02*
X76750000Y-143890000D01*
X73150000Y-140790000D02*
X73150000Y-143890000D01*
X95571497Y-147759059D02*
X96373836Y-144764689D01*
X96373836Y-144764689D02*
X92896503Y-143832941D01*
X92094164Y-146827311D02*
X95571497Y-147759059D01*
X92896503Y-143832941D02*
X92094164Y-146827311D01*
X110332500Y-83970000D02*
X110332500Y-87070000D01*
X110332500Y-87070000D02*
X113932500Y-87070000D01*
X113932500Y-83970000D02*
X110332500Y-83970000D01*
X113932500Y-87070000D02*
X113932500Y-83970000D01*
X41932000Y-106452000D02*
X41932000Y-103352000D01*
X41932000Y-103352000D02*
X38332000Y-103352000D01*
X38332000Y-106452000D02*
X41932000Y-106452000D01*
X38332000Y-103352000D02*
X38332000Y-106452000D01*
X38332000Y-120370000D02*
X38332000Y-123470000D01*
X38332000Y-123470000D02*
X41932000Y-123470000D01*
X41932000Y-120370000D02*
X38332000Y-120370000D01*
X41932000Y-123470000D02*
X41932000Y-120370000D01*
X92434000Y-115544000D02*
X92434000Y-118644000D01*
X92434000Y-118644000D02*
X96034000Y-118644000D01*
X96034000Y-115544000D02*
X92434000Y-115544000D01*
X96034000Y-118644000D02*
X96034000Y-115544000D01*
X56120000Y-125510000D02*
X56120000Y-128610000D01*
X56120000Y-128610000D02*
X59720000Y-128610000D01*
X59720000Y-125510000D02*
X56120000Y-125510000D01*
X59720000Y-128610000D02*
X59720000Y-125510000D01*
X92402500Y-81560000D02*
X92402500Y-84660000D01*
X92402500Y-84660000D02*
X96002500Y-84660000D01*
X96002500Y-81560000D02*
X92402500Y-81560000D01*
X96002500Y-84660000D02*
X96002500Y-81560000D01*
X38320000Y-86310000D02*
X38320000Y-89410000D01*
X38320000Y-89410000D02*
X41920000Y-89410000D01*
X41920000Y-86310000D02*
X38320000Y-86310000D01*
X41920000Y-89410000D02*
X41920000Y-86310000D01*
X56366000Y-115544000D02*
X56366000Y-118644000D01*
X56366000Y-118644000D02*
X59966000Y-118644000D01*
X59966000Y-115544000D02*
X56366000Y-115544000D01*
X59966000Y-118644000D02*
X59966000Y-115544000D01*
X113927500Y-104020000D02*
X113927500Y-100920000D01*
X113927500Y-100920000D02*
X110327500Y-100920000D01*
X110327500Y-104020000D02*
X113927500Y-104020000D01*
X110327500Y-100920000D02*
X110327500Y-104020000D01*
X115337846Y-151086339D02*
X116887846Y-148401661D01*
X116887846Y-148401661D02*
X113770154Y-146601661D01*
X112220154Y-149286339D02*
X115337846Y-151086339D01*
X113770154Y-146601661D02*
X112220154Y-149286339D01*
X110468000Y-118084000D02*
X110468000Y-121184000D01*
X110468000Y-121184000D02*
X114068000Y-121184000D01*
X114068000Y-118084000D02*
X110468000Y-118084000D01*
X114068000Y-121184000D02*
X114068000Y-118084000D01*
X96034000Y-101626000D02*
X96034000Y-98526000D01*
X96034000Y-98526000D02*
X92434000Y-98526000D01*
X92434000Y-101626000D02*
X96034000Y-101626000D01*
X92434000Y-98526000D02*
X92434000Y-101626000D01*
X96034000Y-101626000D02*
X92434000Y-101626000D01*
X96034000Y-98526000D02*
X96034000Y-101626000D01*
X92434000Y-101626000D02*
X92434000Y-98526000D01*
X92434000Y-98526000D02*
X96034000Y-98526000D01*
X38320000Y-86310000D02*
X41920000Y-86310000D01*
X38320000Y-89410000D02*
X38320000Y-86310000D01*
X41920000Y-86310000D02*
X41920000Y-89410000D01*
X41920000Y-89410000D02*
X38320000Y-89410000D01*
X76770000Y-143890000D02*
X73170000Y-143890000D01*
X76770000Y-140790000D02*
X76770000Y-143890000D01*
X73170000Y-143890000D02*
X73170000Y-140790000D01*
X73170000Y-140790000D02*
X76770000Y-140790000D01*
X41932000Y-106452000D02*
X38332000Y-106452000D01*
X41932000Y-103352000D02*
X41932000Y-106452000D01*
X38332000Y-106452000D02*
X38332000Y-103352000D01*
X38332000Y-103352000D02*
X41932000Y-103352000D01*
X115333846Y-151082339D02*
X112216154Y-149282339D01*
X116883846Y-148397661D02*
X115333846Y-151082339D01*
X112216154Y-149282339D02*
X113766154Y-146597661D01*
X113766154Y-146597661D02*
X116883846Y-148397661D01*
X110468000Y-118084000D02*
X114068000Y-118084000D01*
X110468000Y-121184000D02*
X110468000Y-118084000D01*
X114068000Y-118084000D02*
X114068000Y-121184000D01*
X114068000Y-121184000D02*
X110468000Y-121184000D01*
X59718000Y-128612000D02*
X56118000Y-128612000D01*
X59718000Y-125512000D02*
X59718000Y-128612000D01*
X56118000Y-128612000D02*
X56118000Y-125512000D01*
X56118000Y-125512000D02*
X59718000Y-125512000D01*
X78000000Y-99340000D02*
X74400000Y-99340000D01*
X78000000Y-96240000D02*
X78000000Y-99340000D01*
X74400000Y-99340000D02*
X74400000Y-96240000D01*
X74400000Y-96240000D02*
X78000000Y-96240000D01*
X92434000Y-115544000D02*
X96034000Y-115544000D01*
X92434000Y-118644000D02*
X92434000Y-115544000D01*
X96034000Y-115544000D02*
X96034000Y-118644000D01*
X96034000Y-118644000D02*
X92434000Y-118644000D01*
X74400000Y-113260000D02*
X78000000Y-113260000D01*
X74400000Y-116360000D02*
X74400000Y-113260000D01*
X78000000Y-113260000D02*
X78000000Y-116360000D01*
X78000000Y-116360000D02*
X74400000Y-116360000D01*
X38330000Y-120370000D02*
X41930000Y-120370000D01*
X38330000Y-123470000D02*
X38330000Y-120370000D01*
X41930000Y-120370000D02*
X41930000Y-123470000D01*
X41930000Y-123470000D02*
X38330000Y-123470000D01*
X59970000Y-101630000D02*
X56370000Y-101630000D01*
X59970000Y-98530000D02*
X59970000Y-101630000D01*
X56370000Y-101630000D02*
X56370000Y-98530000D01*
X56370000Y-98530000D02*
X59970000Y-98530000D01*
X92402500Y-81560000D02*
X96002500Y-81560000D01*
X92402500Y-84660000D02*
X92402500Y-81560000D01*
X96002500Y-81560000D02*
X96002500Y-84660000D01*
X96002500Y-84660000D02*
X92402500Y-84660000D01*
X56350000Y-81560000D02*
X59950000Y-81560000D01*
X56350000Y-84660000D02*
X56350000Y-81560000D01*
X59950000Y-81560000D02*
X59950000Y-84660000D01*
X59950000Y-84660000D02*
X56350000Y-84660000D01*
X95571497Y-147759059D02*
X92094164Y-146827311D01*
X96373836Y-144764689D02*
X95571497Y-147759059D01*
X92094164Y-146827311D02*
X92896503Y-143832941D01*
X92896503Y-143832941D02*
X96373836Y-144764689D01*
X110330000Y-83970000D02*
X113930000Y-83970000D01*
X110330000Y-87070000D02*
X110330000Y-83970000D01*
X113930000Y-83970000D02*
X113930000Y-87070000D01*
X113930000Y-87070000D02*
X110330000Y-87070000D01*
X56366000Y-115544000D02*
X59966000Y-115544000D01*
X56366000Y-118644000D02*
X56366000Y-115544000D01*
X59966000Y-115544000D02*
X59966000Y-118644000D01*
X59966000Y-118644000D02*
X56366000Y-118644000D01*
X74350000Y-79170000D02*
X77950000Y-79170000D01*
X74350000Y-82270000D02*
X74350000Y-79170000D01*
X77950000Y-79170000D02*
X77950000Y-82270000D01*
X77950000Y-82270000D02*
X74350000Y-82270000D01*
X113927500Y-104020000D02*
X110327500Y-104020000D01*
X113927500Y-100920000D02*
X113927500Y-104020000D01*
X110327500Y-104020000D02*
X110327500Y-100920000D01*
X110327500Y-100920000D02*
X113927500Y-100920000D01*
M02*
