G04 #@! TF.GenerationSoftware,KiCad,Pcbnew,7.0.1*
G04 #@! TF.CreationDate,2024-09-08T21:52:54+07:00*
G04 #@! TF.ProjectId,minikeeb,6d696e69-6b65-4656-922e-6b696361645f,rev?*
G04 #@! TF.SameCoordinates,Original*
G04 #@! TF.FileFunction,Soldermask,Top*
G04 #@! TF.FilePolarity,Negative*
%FSLAX46Y46*%
G04 Gerber Fmt 4.6, Leading zero omitted, Abs format (unit mm)*
G04 Created by KiCad (PCBNEW 7.0.1) date 2024-09-08 21:52:54*
%MOMM*%
%LPD*%
G01*
G04 APERTURE LIST*
G04 Aperture macros list*
%AMRoundRect*
0 Rectangle with rounded corners*
0 $1 Rounding radius*
0 $2 $3 $4 $5 $6 $7 $8 $9 X,Y pos of 4 corners*
0 Add a 4 corners polygon primitive as box body*
4,1,4,$2,$3,$4,$5,$6,$7,$8,$9,$2,$3,0*
0 Add four circle primitives for the rounded corners*
1,1,$1+$1,$2,$3*
1,1,$1+$1,$4,$5*
1,1,$1+$1,$6,$7*
1,1,$1+$1,$8,$9*
0 Add four rect primitives between the rounded corners*
20,1,$1+$1,$2,$3,$4,$5,0*
20,1,$1+$1,$4,$5,$6,$7,0*
20,1,$1+$1,$6,$7,$8,$9,0*
20,1,$1+$1,$8,$9,$2,$3,0*%
%AMFreePoly0*
4,1,41,2.719517,1.297118,2.754872,1.282473,2.782473,1.254872,2.797118,1.219517,2.801000,1.200000,2.801000,-0.800000,2.799048,-0.809811,2.799038,-0.819807,2.791404,-0.838184,2.786112,-0.846085,2.782473,-0.854872,2.771416,-0.871419,2.763105,-0.876971,2.756025,-0.884038,2.156025,-1.284038,2.137628,-1.291634,2.128301,-1.293478,2.119521,-1.297116,2.100000,-1.301000,0.300000,-1.301000,
0.280483,-1.297118,0.245128,-1.282473,0.217527,-1.254872,0.202882,-1.219517,0.199000,-1.200000,0.199000,-0.801000,-0.350000,-0.801000,-0.386062,-0.786062,-0.401000,-0.750000,-0.401000,0.750000,-0.386062,0.786062,-0.350000,0.801000,0.199000,0.801000,0.199000,1.200000,0.202882,1.219517,0.217527,1.254872,0.245128,1.282473,0.280483,1.297118,0.300000,1.301000,2.700000,1.301000,
2.719517,1.297118,2.719517,1.297118,$1*%
%AMFreePoly1*
4,1,33,-0.380483,1.297118,-0.345128,1.282473,-0.317527,1.254872,-0.302882,1.219517,-0.299000,1.200000,-0.299000,0.801000,0.350000,0.801000,0.386062,0.786062,0.401000,0.750000,0.401000,-0.750000,0.386062,-0.786062,0.350000,-0.801000,-0.299000,-0.801000,-0.299000,-1.200000,-0.302882,-1.219517,-0.317527,-1.254872,-0.345128,-1.282473,-0.380483,-1.297118,-0.400000,-1.301000,-2.800000,-1.301000,
-2.819517,-1.297118,-2.854872,-1.282473,-2.882473,-1.254872,-2.897118,-1.219517,-2.901000,-1.200000,-2.901000,1.200000,-2.897118,1.219517,-2.882473,1.254872,-2.854872,1.282473,-2.819517,1.297118,-2.800000,1.301000,-0.400000,1.301000,-0.380483,1.297118,-0.380483,1.297118,$1*%
G04 Aperture macros list end*
G04 #@! TA.AperFunction,Profile*
%ADD10C,0.100000*%
G04 #@! TD*
%ADD11RoundRect,0.051000X0.317500X0.571500X-0.317500X0.571500X-0.317500X-0.571500X0.317500X-0.571500X0*%
%ADD12C,1.302000*%
%ADD13O,2.602000X1.802000*%
%ADD14RoundRect,0.051000X-0.850000X-0.412500X0.850000X-0.412500X0.850000X0.412500X-0.850000X0.412500X0*%
%ADD15RoundRect,0.051000X0.750000X-0.900000X0.750000X0.900000X-0.750000X0.900000X-0.750000X-0.900000X0*%
%ADD16RoundRect,0.051000X0.850000X0.412500X-0.850000X0.412500X-0.850000X-0.412500X0.850000X-0.412500X0*%
%ADD17C,1.802000*%
%ADD18C,3.102000*%
%ADD19C,4.102000*%
%ADD20FreePoly0,0.000000*%
%ADD21FreePoly1,0.000000*%
%ADD22C,1.102000*%
%ADD23RoundRect,0.102000X-0.600000X-1.250000X0.600000X-1.250000X0.600000X1.250000X-0.600000X1.250000X0*%
%ADD24RoundRect,0.051000X0.927800X0.178448X-0.714274X0.618441X-0.927800X-0.178448X0.714274X-0.618441X0*%
%ADD25RoundRect,0.051000X0.900000X0.750000X-0.900000X0.750000X-0.900000X-0.750000X0.900000X-0.750000X0*%
%ADD26FreePoly0,345.000000*%
%ADD27FreePoly1,345.000000*%
%ADD28C,1.499000*%
%ADD29FreePoly0,330.000000*%
%ADD30FreePoly1,330.000000*%
%ADD31C,2.102000*%
%ADD32RoundRect,0.051000X1.000000X-1.600000X1.000000X1.600000X-1.000000X1.600000X-1.000000X-1.600000X0*%
%ADD33RoundRect,0.301000X-0.600000X-0.750000X0.600000X-0.750000X0.600000X0.750000X-0.600000X0.750000X0*%
%ADD34O,1.802000X2.102000*%
%ADD35RoundRect,0.051000X0.942372X-0.067765X-0.529872X0.782235X-0.942372X0.067765X0.529872X-0.782235X0*%
%ADD36C,1.854600*%
%ADD37RoundRect,0.051000X-0.876300X-0.876300X0.876300X-0.876300X0.876300X0.876300X-0.876300X0.876300X0*%
G04 APERTURE END LIST*
D10*
X74350000Y-79170000D02*
X74350000Y-82270000D01*
X74350000Y-82270000D02*
X77950000Y-82270000D01*
X77950000Y-79170000D02*
X74350000Y-79170000D01*
X77950000Y-82270000D02*
X77950000Y-79170000D01*
X78000000Y-99340000D02*
X78000000Y-96240000D01*
X78000000Y-96240000D02*
X74400000Y-96240000D01*
X74400000Y-99340000D02*
X78000000Y-99340000D01*
X74400000Y-96240000D02*
X74400000Y-99340000D01*
X74400000Y-113258000D02*
X74400000Y-116358000D01*
X74400000Y-116358000D02*
X78000000Y-116358000D01*
X78000000Y-113258000D02*
X74400000Y-113258000D01*
X78000000Y-116358000D02*
X78000000Y-113258000D01*
X59966000Y-101626000D02*
X59966000Y-98526000D01*
X59966000Y-98526000D02*
X56366000Y-98526000D01*
X56366000Y-101626000D02*
X59966000Y-101626000D01*
X56366000Y-98526000D02*
X56366000Y-101626000D01*
X56350000Y-81560000D02*
X56350000Y-84660000D01*
X56350000Y-84660000D02*
X59950000Y-84660000D01*
X59950000Y-81560000D02*
X56350000Y-81560000D01*
X59950000Y-84660000D02*
X59950000Y-81560000D01*
X76750000Y-143890000D02*
X76750000Y-140790000D01*
X76750000Y-140790000D02*
X73150000Y-140790000D01*
X73150000Y-143890000D02*
X76750000Y-143890000D01*
X73150000Y-140790000D02*
X73150000Y-143890000D01*
X95571497Y-147759059D02*
X96373836Y-144764689D01*
X96373836Y-144764689D02*
X92896503Y-143832941D01*
X92094164Y-146827311D02*
X95571497Y-147759059D01*
X92896503Y-143832941D02*
X92094164Y-146827311D01*
X110332500Y-83970000D02*
X110332500Y-87070000D01*
X110332500Y-87070000D02*
X113932500Y-87070000D01*
X113932500Y-83970000D02*
X110332500Y-83970000D01*
X113932500Y-87070000D02*
X113932500Y-83970000D01*
X41932000Y-106452000D02*
X41932000Y-103352000D01*
X41932000Y-103352000D02*
X38332000Y-103352000D01*
X38332000Y-106452000D02*
X41932000Y-106452000D01*
X38332000Y-103352000D02*
X38332000Y-106452000D01*
X38332000Y-120370000D02*
X38332000Y-123470000D01*
X38332000Y-123470000D02*
X41932000Y-123470000D01*
X41932000Y-120370000D02*
X38332000Y-120370000D01*
X41932000Y-123470000D02*
X41932000Y-120370000D01*
X92434000Y-115544000D02*
X92434000Y-118644000D01*
X92434000Y-118644000D02*
X96034000Y-118644000D01*
X96034000Y-115544000D02*
X92434000Y-115544000D01*
X96034000Y-118644000D02*
X96034000Y-115544000D01*
X56120000Y-125510000D02*
X56120000Y-128610000D01*
X56120000Y-128610000D02*
X59720000Y-128610000D01*
X59720000Y-125510000D02*
X56120000Y-125510000D01*
X59720000Y-128610000D02*
X59720000Y-125510000D01*
X92402500Y-81560000D02*
X92402500Y-84660000D01*
X92402500Y-84660000D02*
X96002500Y-84660000D01*
X96002500Y-81560000D02*
X92402500Y-81560000D01*
X96002500Y-84660000D02*
X96002500Y-81560000D01*
X38320000Y-86310000D02*
X38320000Y-89410000D01*
X38320000Y-89410000D02*
X41920000Y-89410000D01*
X41920000Y-86310000D02*
X38320000Y-86310000D01*
X41920000Y-89410000D02*
X41920000Y-86310000D01*
X56366000Y-115544000D02*
X56366000Y-118644000D01*
X56366000Y-118644000D02*
X59966000Y-118644000D01*
X59966000Y-115544000D02*
X56366000Y-115544000D01*
X59966000Y-118644000D02*
X59966000Y-115544000D01*
X113927500Y-104020000D02*
X113927500Y-100920000D01*
X113927500Y-100920000D02*
X110327500Y-100920000D01*
X110327500Y-104020000D02*
X113927500Y-104020000D01*
X110327500Y-100920000D02*
X110327500Y-104020000D01*
X115337846Y-151086339D02*
X116887846Y-148401661D01*
X116887846Y-148401661D02*
X113770154Y-146601661D01*
X112220154Y-149286339D02*
X115337846Y-151086339D01*
X113770154Y-146601661D02*
X112220154Y-149286339D01*
X110468000Y-118084000D02*
X110468000Y-121184000D01*
X110468000Y-121184000D02*
X114068000Y-121184000D01*
X114068000Y-118084000D02*
X110468000Y-118084000D01*
X114068000Y-121184000D02*
X114068000Y-118084000D01*
X96034000Y-101626000D02*
X96034000Y-98526000D01*
X96034000Y-98526000D02*
X92434000Y-98526000D01*
X92434000Y-101626000D02*
X96034000Y-101626000D01*
X92434000Y-98526000D02*
X92434000Y-101626000D01*
X96034000Y-101626000D02*
X92434000Y-101626000D01*
X96034000Y-98526000D02*
X96034000Y-101626000D01*
X92434000Y-101626000D02*
X92434000Y-98526000D01*
X92434000Y-98526000D02*
X96034000Y-98526000D01*
X38320000Y-86310000D02*
X41920000Y-86310000D01*
X38320000Y-89410000D02*
X38320000Y-86310000D01*
X41920000Y-86310000D02*
X41920000Y-89410000D01*
X41920000Y-89410000D02*
X38320000Y-89410000D01*
X76770000Y-143890000D02*
X73170000Y-143890000D01*
X76770000Y-140790000D02*
X76770000Y-143890000D01*
X73170000Y-143890000D02*
X73170000Y-140790000D01*
X73170000Y-140790000D02*
X76770000Y-140790000D01*
X41932000Y-106452000D02*
X38332000Y-106452000D01*
X41932000Y-103352000D02*
X41932000Y-106452000D01*
X38332000Y-106452000D02*
X38332000Y-103352000D01*
X38332000Y-103352000D02*
X41932000Y-103352000D01*
X115333846Y-151082339D02*
X112216154Y-149282339D01*
X116883846Y-148397661D02*
X115333846Y-151082339D01*
X112216154Y-149282339D02*
X113766154Y-146597661D01*
X113766154Y-146597661D02*
X116883846Y-148397661D01*
X110468000Y-118084000D02*
X114068000Y-118084000D01*
X110468000Y-121184000D02*
X110468000Y-118084000D01*
X114068000Y-118084000D02*
X114068000Y-121184000D01*
X114068000Y-121184000D02*
X110468000Y-121184000D01*
X59718000Y-128612000D02*
X56118000Y-128612000D01*
X59718000Y-125512000D02*
X59718000Y-128612000D01*
X56118000Y-128612000D02*
X56118000Y-125512000D01*
X56118000Y-125512000D02*
X59718000Y-125512000D01*
X78000000Y-99340000D02*
X74400000Y-99340000D01*
X78000000Y-96240000D02*
X78000000Y-99340000D01*
X74400000Y-99340000D02*
X74400000Y-96240000D01*
X74400000Y-96240000D02*
X78000000Y-96240000D01*
X92434000Y-115544000D02*
X96034000Y-115544000D01*
X92434000Y-118644000D02*
X92434000Y-115544000D01*
X96034000Y-115544000D02*
X96034000Y-118644000D01*
X96034000Y-118644000D02*
X92434000Y-118644000D01*
X74400000Y-113260000D02*
X78000000Y-113260000D01*
X74400000Y-116360000D02*
X74400000Y-113260000D01*
X78000000Y-113260000D02*
X78000000Y-116360000D01*
X78000000Y-116360000D02*
X74400000Y-116360000D01*
X38330000Y-120370000D02*
X41930000Y-120370000D01*
X38330000Y-123470000D02*
X38330000Y-120370000D01*
X41930000Y-120370000D02*
X41930000Y-123470000D01*
X41930000Y-123470000D02*
X38330000Y-123470000D01*
X59970000Y-101630000D02*
X56370000Y-101630000D01*
X59970000Y-98530000D02*
X59970000Y-101630000D01*
X56370000Y-101630000D02*
X56370000Y-98530000D01*
X56370000Y-98530000D02*
X59970000Y-98530000D01*
X92402500Y-81560000D02*
X96002500Y-81560000D01*
X92402500Y-84660000D02*
X92402500Y-81560000D01*
X96002500Y-81560000D02*
X96002500Y-84660000D01*
X96002500Y-84660000D02*
X92402500Y-84660000D01*
X56350000Y-81560000D02*
X59950000Y-81560000D01*
X56350000Y-84660000D02*
X56350000Y-81560000D01*
X59950000Y-81560000D02*
X59950000Y-84660000D01*
X59950000Y-84660000D02*
X56350000Y-84660000D01*
X95571497Y-147759059D02*
X92094164Y-146827311D01*
X96373836Y-144764689D02*
X95571497Y-147759059D01*
X92094164Y-146827311D02*
X92896503Y-143832941D01*
X92896503Y-143832941D02*
X96373836Y-144764689D01*
X110330000Y-83970000D02*
X113930000Y-83970000D01*
X110330000Y-87070000D02*
X110330000Y-83970000D01*
X113930000Y-83970000D02*
X113930000Y-87070000D01*
X113930000Y-87070000D02*
X110330000Y-87070000D01*
X56366000Y-115544000D02*
X59966000Y-115544000D01*
X56366000Y-118644000D02*
X56366000Y-115544000D01*
X59966000Y-115544000D02*
X59966000Y-118644000D01*
X59966000Y-118644000D02*
X56366000Y-118644000D01*
X74350000Y-79170000D02*
X77950000Y-79170000D01*
X74350000Y-82270000D02*
X74350000Y-79170000D01*
X77950000Y-79170000D02*
X77950000Y-82270000D01*
X77950000Y-82270000D02*
X74350000Y-82270000D01*
X113927500Y-104020000D02*
X110327500Y-104020000D01*
X113927500Y-100920000D02*
X113927500Y-104020000D01*
X110327500Y-104020000D02*
X110327500Y-100920000D01*
X110327500Y-100920000D02*
X113927500Y-100920000D01*
D11*
X39220760Y-144210000D03*
X38220000Y-144210000D03*
X38250000Y-142460000D03*
X39250760Y-142460000D03*
D12*
X124570000Y-127540000D03*
X117570000Y-127540000D03*
X124570000Y-129290000D03*
X117570000Y-129290000D03*
D13*
X115770000Y-125440000D03*
X115770000Y-131390000D03*
X119770000Y-125440000D03*
X119770000Y-131390000D03*
X122770000Y-125440000D03*
X122770000Y-131390000D03*
X114270000Y-127190000D03*
X114270000Y-129640000D03*
D14*
X78950000Y-80020000D03*
X78950000Y-81420000D03*
X73350000Y-81420000D03*
X73350000Y-80020000D03*
D15*
X49010000Y-89190000D03*
X49010000Y-85790000D03*
D16*
X73400000Y-98490000D03*
X73400000Y-97090000D03*
X79000000Y-97090000D03*
X79000000Y-98490000D03*
D14*
X79000000Y-114108000D03*
X79000000Y-115508000D03*
X73400000Y-115508000D03*
X73400000Y-114108000D03*
D17*
X107061000Y-97726500D03*
D18*
X108331000Y-95186499D03*
X109601000Y-92646500D03*
D19*
X112141000Y-97726500D03*
D18*
X114681000Y-92646500D03*
X115951000Y-95186500D03*
D17*
X117221000Y-97726500D03*
D20*
X104941000Y-92626500D03*
D21*
X120641000Y-95226500D03*
D15*
X84720000Y-85050000D03*
X84720000Y-81650000D03*
X86680000Y-85029999D03*
X86680000Y-81629999D03*
D16*
X55366000Y-100776000D03*
X55366000Y-99376000D03*
X60966000Y-99376000D03*
X60966000Y-100776000D03*
D17*
X89090500Y-112331500D03*
D18*
X90360500Y-109791499D03*
X91630500Y-107251500D03*
D19*
X94170500Y-112331500D03*
D18*
X96710500Y-107251500D03*
X97980500Y-109791500D03*
D17*
X99250500Y-112331500D03*
D20*
X86970500Y-107231500D03*
D21*
X102670500Y-109831500D03*
D14*
X60950000Y-82410000D03*
X60950000Y-83810000D03*
X55350000Y-83810000D03*
X55350000Y-82410000D03*
D22*
X42960000Y-152560000D03*
X49760000Y-152560000D03*
D23*
X43860000Y-149810000D03*
X46360000Y-149810000D03*
X48860000Y-149810000D03*
D16*
X72150000Y-143040000D03*
X72150000Y-141640000D03*
X77750000Y-141640000D03*
X77750000Y-143040000D03*
D15*
X47350000Y-105760000D03*
X47350000Y-102360000D03*
D24*
X91348234Y-145747455D03*
X91710581Y-144395159D03*
X97119766Y-145844545D03*
X96757419Y-147196841D03*
D17*
X107061000Y-114744500D03*
D18*
X108331000Y-112204499D03*
X109601000Y-109664500D03*
D19*
X112141000Y-114744500D03*
D18*
X114681000Y-109664500D03*
X115951000Y-112204500D03*
D17*
X117221000Y-114744500D03*
D20*
X104941000Y-109644500D03*
D21*
X120641000Y-112244500D03*
D25*
X76980000Y-149030000D03*
X73580000Y-149030000D03*
D14*
X114932500Y-84820000D03*
X114932500Y-86220000D03*
X109332500Y-86220000D03*
X109332500Y-84820000D03*
D17*
X90660597Y-139972699D03*
D18*
X92544723Y-137847947D03*
X94428849Y-135723196D03*
D19*
X95567500Y-141287500D03*
D18*
X99335752Y-137037997D03*
X99905078Y-139820149D03*
D17*
X100474403Y-142602301D03*
D26*
X89932811Y-134497781D03*
D27*
X104424917Y-141072647D03*
D16*
X37332000Y-105602000D03*
X37332000Y-104202000D03*
X42932000Y-104202000D03*
X42932000Y-105602000D03*
D14*
X42932000Y-121220000D03*
X42932000Y-122620000D03*
X37332000Y-122620000D03*
X37332000Y-121220000D03*
D28*
X63790000Y-143940000D03*
X63790000Y-141400000D03*
X63790000Y-138860000D03*
X63790000Y-136320000D03*
D11*
X108880760Y-128540000D03*
X107880000Y-128540000D03*
D15*
X104380000Y-104319999D03*
X104380000Y-100919999D03*
D14*
X97034000Y-116394000D03*
X97034000Y-117794000D03*
X91434000Y-117794000D03*
X91434000Y-116394000D03*
D17*
X53086000Y-112331500D03*
D18*
X54356000Y-109791499D03*
X55626000Y-107251500D03*
D19*
X58166000Y-112331500D03*
D18*
X60706000Y-107251500D03*
X61976000Y-109791500D03*
D17*
X63246000Y-112331500D03*
D20*
X50966000Y-107231500D03*
D21*
X66666000Y-109831500D03*
D14*
X60720000Y-126360000D03*
X60720000Y-127760000D03*
X55120000Y-127760000D03*
X55120000Y-126360000D03*
D11*
X59910380Y-138950000D03*
X58909620Y-138950000D03*
D14*
X97002500Y-82410000D03*
X97002500Y-83810000D03*
X91402500Y-83810000D03*
X91402500Y-82410000D03*
D17*
X71056500Y-92964000D03*
D18*
X72326500Y-90423999D03*
X73596500Y-87884000D03*
D19*
X76136500Y-92964000D03*
D18*
X78676500Y-87884000D03*
X79946500Y-90424000D03*
D17*
X81216500Y-92964000D03*
D20*
X68936500Y-87864000D03*
D21*
X84636500Y-90464000D03*
D17*
X35052000Y-117094000D03*
D18*
X36322000Y-114553999D03*
X37592000Y-112014000D03*
D19*
X40132000Y-117094000D03*
D18*
X42672000Y-112014000D03*
X43942000Y-114554000D03*
D17*
X45212000Y-117094000D03*
D20*
X32932000Y-111994000D03*
D21*
X48632000Y-114594000D03*
D11*
X59880760Y-144120000D03*
X58880000Y-144120000D03*
D14*
X42920000Y-87160000D03*
X42920000Y-88560000D03*
X37320000Y-88560000D03*
X37320000Y-87160000D03*
D17*
X112440591Y-142176500D03*
D18*
X114810444Y-140611795D03*
X117180295Y-139047091D03*
D19*
X116840000Y-144716500D03*
D18*
X121579705Y-141587091D03*
X121409557Y-144421795D03*
D17*
X121239409Y-147256500D03*
D29*
X113154617Y-136699770D03*
D30*
X125451216Y-146801436D03*
D17*
X107061000Y-80772000D03*
D18*
X108331000Y-78231999D03*
X109601000Y-75692000D03*
D19*
X112141000Y-80772000D03*
D18*
X114681000Y-75692000D03*
X115951000Y-78232000D03*
D17*
X117221000Y-80772000D03*
D20*
X104941000Y-75672000D03*
D21*
X120641000Y-78272000D03*
D11*
X59910760Y-136340000D03*
X58910000Y-136340000D03*
D31*
X37070000Y-139900000D03*
X43570000Y-139900000D03*
D15*
X86380000Y-101820000D03*
X86380000Y-98420000D03*
D31*
X72410000Y-145310000D03*
X77410000Y-145310000D03*
X74910000Y-145310000D03*
D32*
X69310000Y-137810000D03*
X80510000Y-137810000D03*
D31*
X77410000Y-130810000D03*
X72410000Y-130810000D03*
D15*
X84480000Y-101810000D03*
X84480000Y-98410000D03*
X104530000Y-87400000D03*
X104530000Y-84000000D03*
D17*
X71056500Y-75946000D03*
D18*
X72326500Y-73405999D03*
X73596500Y-70866000D03*
D19*
X76136500Y-75946000D03*
D18*
X78676500Y-70866000D03*
X79946500Y-73406000D03*
D17*
X81216500Y-75946000D03*
D20*
X68936500Y-70846000D03*
D21*
X84636500Y-73446000D03*
D33*
X54230000Y-151970000D03*
D34*
X56730000Y-151970000D03*
D15*
X47100000Y-89190000D03*
X47100000Y-85790000D03*
D17*
X89090500Y-78359000D03*
D18*
X90360500Y-75818999D03*
X91630500Y-73279000D03*
D19*
X94170500Y-78359000D03*
D18*
X96710500Y-73279000D03*
X97980500Y-75819000D03*
D17*
X99250500Y-78359000D03*
D20*
X86970500Y-73259000D03*
D21*
X102670500Y-75859000D03*
D11*
X108840760Y-130560000D03*
X107840000Y-130560000D03*
D17*
X35052000Y-83121500D03*
D18*
X36322000Y-80581499D03*
X37592000Y-78041500D03*
D19*
X40132000Y-83121500D03*
D18*
X42672000Y-78041500D03*
X43942000Y-80581500D03*
D17*
X45212000Y-83121500D03*
D20*
X32932000Y-78021500D03*
D21*
X48632000Y-80621500D03*
D15*
X49280000Y-105740000D03*
X49280000Y-102340000D03*
D14*
X60966000Y-116394000D03*
X60966000Y-117794000D03*
X55366000Y-117794000D03*
X55366000Y-116394000D03*
D15*
X86500000Y-120099999D03*
X86500000Y-116699999D03*
X86500000Y-146660000D03*
X86500000Y-143260000D03*
D16*
X109327500Y-103170000D03*
X109327500Y-101770000D03*
X114927500Y-101770000D03*
X114927500Y-103170000D03*
D35*
X111779129Y-148050218D03*
X112479129Y-146837782D03*
X117328871Y-149637782D03*
X116628871Y-150850218D03*
D17*
X71120000Y-109982000D03*
D18*
X72390000Y-107441999D03*
X73660000Y-104902000D03*
D19*
X76200000Y-109982000D03*
D18*
X78740000Y-104902000D03*
X80010000Y-107442000D03*
D17*
X81280000Y-109982000D03*
D20*
X69000000Y-104882000D03*
D21*
X84700000Y-107482000D03*
D17*
X35052000Y-100076000D03*
D18*
X36322000Y-97535999D03*
X37592000Y-94996000D03*
D19*
X40132000Y-100076000D03*
D18*
X42672000Y-94996000D03*
X43942000Y-97536000D03*
D17*
X45212000Y-100076000D03*
D20*
X32932000Y-94976000D03*
D21*
X48632000Y-97576000D03*
D15*
X48230000Y-125060000D03*
X48230000Y-121660000D03*
D17*
X53086000Y-78359000D03*
D18*
X54356000Y-75818999D03*
X55626000Y-73279000D03*
D19*
X58166000Y-78359000D03*
D18*
X60706000Y-73279000D03*
X61976000Y-75819000D03*
D17*
X63246000Y-78359000D03*
D20*
X50966000Y-73259000D03*
D21*
X66666000Y-75859000D03*
D15*
X104230000Y-122580000D03*
X104230000Y-119180000D03*
D11*
X59900760Y-141520000D03*
X58900000Y-141520000D03*
D33*
X36170000Y-151910000D03*
D34*
X38670000Y-151910000D03*
D14*
X115068000Y-118934000D03*
X115068000Y-120334000D03*
X109468000Y-120334000D03*
X109468000Y-118934000D03*
D17*
X89090500Y-95377000D03*
D18*
X90360500Y-92836999D03*
X91630500Y-90297000D03*
D19*
X94170500Y-95377000D03*
D18*
X96710500Y-90297000D03*
X97980500Y-92837000D03*
D17*
X99250500Y-95377000D03*
D20*
X86970500Y-90277000D03*
D21*
X102670500Y-92877000D03*
D17*
X53086000Y-95313500D03*
D18*
X54356000Y-92773499D03*
X55626000Y-90233500D03*
D19*
X58166000Y-95313500D03*
D18*
X60706000Y-90233500D03*
X61976000Y-92773500D03*
D17*
X63246000Y-95313500D03*
D20*
X50966000Y-90213500D03*
D21*
X66666000Y-92813500D03*
D15*
X50250000Y-125020000D03*
X50250000Y-121620000D03*
X105350000Y-149430001D03*
X105350000Y-146030001D03*
D16*
X91434000Y-100776000D03*
X91434000Y-99376000D03*
X97034000Y-99376000D03*
X97034000Y-100776000D03*
D15*
X84590000Y-120160000D03*
X84590000Y-116760000D03*
D17*
X69790000Y-137820000D03*
D18*
X71060000Y-135279999D03*
X72330000Y-132740000D03*
D19*
X74870000Y-137820000D03*
D18*
X77410000Y-132740000D03*
X78680000Y-135280000D03*
D17*
X79950000Y-137820000D03*
D20*
X67670000Y-132720000D03*
D21*
X83370000Y-135320000D03*
D36*
X31700000Y-147068600D03*
X34240000Y-146611400D03*
X36780000Y-147068600D03*
X39320000Y-146611400D03*
X41860000Y-147068600D03*
X44400000Y-146611400D03*
X46940000Y-147068600D03*
X49480000Y-146611400D03*
X52020000Y-147068600D03*
X54560000Y-146611400D03*
X57100000Y-147068600D03*
X59640000Y-146611400D03*
X59640000Y-131828600D03*
X57100000Y-131371400D03*
X54560000Y-131828600D03*
X52020000Y-131371400D03*
X49480000Y-131828600D03*
X46940000Y-131371400D03*
X44400000Y-131828600D03*
X41860000Y-131371400D03*
X39320000Y-131828600D03*
X36780000Y-131371400D03*
X34240000Y-131828600D03*
D37*
X31700000Y-131371400D03*
G36*
X123537570Y-144316042D02*
G01*
X123537549Y-144318005D01*
X122343675Y-146385855D01*
X122341999Y-146386854D01*
X122340269Y-146385950D01*
X122340133Y-146384003D01*
X122340141Y-146383986D01*
X122340219Y-146383838D01*
X122927327Y-145366936D01*
X122738735Y-145238357D01*
X122679171Y-145313050D01*
X122677391Y-145313791D01*
X122675812Y-145312684D01*
X122675902Y-145310758D01*
X122789719Y-145125025D01*
X122843685Y-144994740D01*
X122845260Y-144993524D01*
X122847104Y-144994268D01*
X122847395Y-144996236D01*
X122781312Y-145164615D01*
X122986959Y-145263650D01*
X123534075Y-144316020D01*
X123534143Y-144315911D01*
X123534153Y-144315896D01*
X123535903Y-144315007D01*
X123537570Y-144316042D01*
G37*
G36*
X122258308Y-142978484D02*
G01*
X122259129Y-142980253D01*
X122248658Y-143119953D01*
X122252316Y-143122448D01*
X122253186Y-143124217D01*
X122252115Y-143125873D01*
X122250144Y-143125805D01*
X122112787Y-143041632D01*
X122112536Y-143041528D01*
X122111456Y-143040445D01*
X122111457Y-143038915D01*
X122112539Y-143037833D01*
X122256370Y-142978256D01*
X122258308Y-142978484D01*
G37*
G36*
X120739116Y-142883080D02*
G01*
X120876472Y-142967252D01*
X120876723Y-142967356D01*
X120877805Y-142968439D01*
X120877805Y-142969969D01*
X120876722Y-142971052D01*
X120732891Y-143030628D01*
X120730953Y-143030400D01*
X120730132Y-143028631D01*
X120740600Y-142888930D01*
X120736944Y-142886437D01*
X120736074Y-142884668D01*
X120737145Y-142883012D01*
X120739116Y-142883080D01*
G37*
G36*
X101933222Y-139167253D02*
G01*
X101933695Y-139169139D01*
X101315706Y-141475507D01*
X101314292Y-141476921D01*
X101312360Y-141476403D01*
X101311842Y-141474471D01*
X101620194Y-140323677D01*
X101399276Y-140250984D01*
X101385265Y-140286682D01*
X101383792Y-140287913D01*
X101381961Y-140287337D01*
X101381458Y-140285484D01*
X101435001Y-140062464D01*
X101446730Y-139913423D01*
X101447861Y-139911776D01*
X101449853Y-139911929D01*
X101450718Y-139913729D01*
X101431917Y-140164613D01*
X101652761Y-140202136D01*
X101929828Y-139168111D01*
X101929887Y-139167927D01*
X101929890Y-139167919D01*
X101931371Y-139166660D01*
X101933222Y-139167253D01*
G37*
G36*
X116337167Y-140341524D02*
G01*
X116470006Y-140422927D01*
X116470960Y-140424583D01*
X116470088Y-140426284D01*
X116355072Y-140504703D01*
X116356086Y-140518232D01*
X116355221Y-140520032D01*
X116353229Y-140520185D01*
X116352098Y-140518538D01*
X116340367Y-140369479D01*
X116334177Y-140343696D01*
X116334417Y-140342184D01*
X116335655Y-140341284D01*
X116337167Y-140341524D01*
G37*
G36*
X115638600Y-139139826D02*
G01*
X115650371Y-139289406D01*
X115656561Y-139315189D01*
X115656321Y-139316701D01*
X115655083Y-139317601D01*
X115653571Y-139317361D01*
X115520730Y-139235956D01*
X115519776Y-139234300D01*
X115520648Y-139232599D01*
X115635664Y-139154183D01*
X115634612Y-139140132D01*
X115635477Y-139138332D01*
X115637469Y-139138179D01*
X115638600Y-139139826D01*
G37*
G36*
X115094874Y-138842613D02*
G01*
X115095094Y-138844543D01*
X115093571Y-138845750D01*
X114989319Y-138862854D01*
X114990696Y-139074810D01*
X114990058Y-139076287D01*
X114988539Y-139076817D01*
X114810444Y-139062801D01*
X114568128Y-139081871D01*
X114400675Y-139122073D01*
X114398787Y-139121535D01*
X114398268Y-139119642D01*
X114399619Y-139118217D01*
X114461842Y-139099024D01*
X114455344Y-138910935D01*
X114372411Y-138891505D01*
X114370994Y-138890261D01*
X114371243Y-138888391D01*
X114372934Y-138887559D01*
X114379738Y-138887788D01*
X115093118Y-138841780D01*
X115094874Y-138842613D01*
G37*
G36*
X99016633Y-138549481D02*
G01*
X99017871Y-138550381D01*
X99018111Y-138551893D01*
X99017211Y-138553131D01*
X98994604Y-138566985D01*
X98876228Y-138668087D01*
X98874287Y-138668460D01*
X98872973Y-138666984D01*
X98873569Y-138665100D01*
X98890274Y-138649600D01*
X98859489Y-138514724D01*
X98860033Y-138512857D01*
X98861906Y-138512334D01*
X99016633Y-138549481D01*
G37*
G36*
X100367818Y-138191194D02*
G01*
X100367222Y-138193078D01*
X100350555Y-138208542D01*
X100381338Y-138343420D01*
X100380794Y-138345287D01*
X100378921Y-138345810D01*
X100224196Y-138308664D01*
X100222958Y-138307764D01*
X100222718Y-138306252D01*
X100223618Y-138305014D01*
X100246225Y-138291160D01*
X100364563Y-138190091D01*
X100366504Y-138189718D01*
X100367818Y-138191194D01*
G37*
G36*
X93949937Y-137196275D02*
G01*
X93950179Y-137196375D01*
X94134134Y-137240539D01*
X94135568Y-137241861D01*
X94135194Y-137243775D01*
X94133369Y-137244462D01*
X94104296Y-137240080D01*
X94015865Y-137335386D01*
X94054147Y-137503113D01*
X94053563Y-137505019D01*
X94051622Y-137505473D01*
X94050252Y-137504025D01*
X94017903Y-137369280D01*
X93947323Y-137198887D01*
X93947323Y-137197356D01*
X93948406Y-137196274D01*
X93949937Y-137196275D01*
G37*
G36*
X79460521Y-136614777D02*
G01*
X79461000Y-136616076D01*
X79461000Y-137069136D01*
X79460176Y-137070754D01*
X79403171Y-137112170D01*
X79401218Y-137112395D01*
X79400016Y-137110839D01*
X79400726Y-137109006D01*
X79433382Y-137082206D01*
X79457000Y-137032270D01*
X79457000Y-136752086D01*
X79342797Y-136680327D01*
X79341939Y-136679188D01*
X79342059Y-136677766D01*
X79343096Y-136676786D01*
X79383230Y-136660162D01*
X79457955Y-136614371D01*
X79459313Y-136614101D01*
X79460521Y-136614777D01*
G37*
G36*
X92361602Y-136065421D02*
G01*
X92362315Y-136067229D01*
X92361156Y-136068788D01*
X92280012Y-136105496D01*
X92321882Y-136299633D01*
X92485180Y-136299633D01*
X92486885Y-136300588D01*
X92486962Y-136302541D01*
X92485337Y-136303627D01*
X92302407Y-136318023D01*
X92066056Y-136374766D01*
X91841492Y-136467784D01*
X91704131Y-136551959D01*
X91702160Y-136552027D01*
X91701089Y-136550371D01*
X91701959Y-136548602D01*
X91813414Y-136472613D01*
X91756222Y-136297117D01*
X91676376Y-136299646D01*
X91674686Y-136298810D01*
X91674442Y-136296940D01*
X91675861Y-136295699D01*
X91682483Y-136294162D01*
X92359691Y-136065071D01*
X92361602Y-136065421D01*
G37*
G36*
X92923292Y-136067007D02*
G01*
X92955668Y-136201862D01*
X93026248Y-136372255D01*
X93026248Y-136373785D01*
X93025166Y-136374867D01*
X93023636Y-136374868D01*
X93023392Y-136374767D01*
X92839428Y-136330601D01*
X92837994Y-136329279D01*
X92838368Y-136327365D01*
X92840193Y-136326678D01*
X92869274Y-136331061D01*
X92957704Y-136235755D01*
X92919397Y-136067919D01*
X92919981Y-136066013D01*
X92921922Y-136065558D01*
X92923292Y-136067007D01*
G37*
G36*
X80470388Y-135238871D02*
G01*
X80471000Y-135240311D01*
X80471000Y-136159000D01*
X80470414Y-136160414D01*
X80469000Y-136161000D01*
X80395778Y-136161000D01*
X80394364Y-136160414D01*
X80393778Y-136159000D01*
X80394364Y-136157586D01*
X80467000Y-136084950D01*
X80467000Y-135321616D01*
X80228509Y-135312691D01*
X80227090Y-135312022D01*
X80226590Y-135310535D01*
X80228993Y-135279999D01*
X80226590Y-135249464D01*
X80227090Y-135247977D01*
X80228509Y-135247308D01*
X80468925Y-135238312D01*
X80470388Y-135238871D01*
G37*
G36*
X80032515Y-136033999D02*
G01*
X80104104Y-136158000D01*
X80104104Y-136160000D01*
X80102372Y-136161000D01*
X79954796Y-136161000D01*
X79953497Y-136160521D01*
X79952821Y-136159313D01*
X79953091Y-136157955D01*
X80029078Y-136033954D01*
X80030809Y-136032999D01*
X80032515Y-136033999D01*
G37*
G36*
X69710922Y-136033954D02*
G01*
X69786910Y-136157955D01*
X69787180Y-136159313D01*
X69786504Y-136160521D01*
X69785205Y-136161000D01*
X69637625Y-136161000D01*
X69635893Y-136160000D01*
X69635893Y-136158000D01*
X69707485Y-136033999D01*
X69709191Y-136032999D01*
X69710922Y-136033954D01*
G37*
G36*
X77409999Y-134288993D02*
G01*
X77496972Y-134282148D01*
X77498428Y-134282621D01*
X77499123Y-134283985D01*
X77498650Y-134285441D01*
X77426836Y-134369526D01*
X77350844Y-134493534D01*
X77349104Y-134494489D01*
X77347398Y-134493474D01*
X77347407Y-134491489D01*
X77393342Y-134411926D01*
X77336931Y-134294788D01*
X77232280Y-134279014D01*
X77230734Y-134277811D01*
X77230957Y-134275864D01*
X77232735Y-134275042D01*
X77409999Y-134288993D01*
G37*
G36*
X72509040Y-134275865D02*
G01*
X72509263Y-134277812D01*
X72507717Y-134279015D01*
X72403067Y-134294788D01*
X72346656Y-134411927D01*
X72392568Y-134491448D01*
X72392577Y-134493433D01*
X72390871Y-134494448D01*
X72389131Y-134493493D01*
X72313163Y-134369525D01*
X72241349Y-134285441D01*
X72240876Y-134283985D01*
X72241571Y-134282621D01*
X72243027Y-134282148D01*
X72330000Y-134288993D01*
X72507262Y-134275043D01*
X72509040Y-134275865D01*
G37*
G36*
X70422882Y-133607195D02*
G01*
X70422166Y-133609001D01*
X70344771Y-133672389D01*
X70440542Y-133850776D01*
X70535472Y-133821494D01*
X70537376Y-133821897D01*
X70538036Y-133823728D01*
X70536827Y-133825253D01*
X70356769Y-133899836D01*
X70149526Y-134026835D01*
X69998685Y-134155664D01*
X69997044Y-134156114D01*
X69995651Y-134155138D01*
X69898437Y-133985650D01*
X69820511Y-134009200D01*
X69818662Y-134008831D01*
X69817942Y-134007088D01*
X69818991Y-134005521D01*
X69825001Y-134002316D01*
X70419790Y-133605790D01*
X70421726Y-133605633D01*
X70422882Y-133607195D01*
G37*
G36*
X78742572Y-133526572D02*
G01*
X78742563Y-133528557D01*
X78696656Y-133608071D01*
X78753066Y-133725209D01*
X78857738Y-133740986D01*
X78859284Y-133742189D01*
X78859061Y-133744136D01*
X78857283Y-133744958D01*
X78680000Y-133731006D01*
X78593027Y-133737851D01*
X78591571Y-133737378D01*
X78590876Y-133736014D01*
X78591349Y-133734558D01*
X78663163Y-133650473D01*
X78739126Y-133526512D01*
X78740866Y-133525557D01*
X78742572Y-133526572D01*
G37*
G36*
X71000861Y-133526494D02*
G01*
X71076836Y-133650473D01*
X71148650Y-133734557D01*
X71149123Y-133736013D01*
X71148428Y-133737377D01*
X71146972Y-133737850D01*
X71059999Y-133731005D01*
X70882712Y-133744957D01*
X70880934Y-133744135D01*
X70880711Y-133742188D01*
X70882257Y-133740985D01*
X70986931Y-133725208D01*
X71043342Y-133608070D01*
X70997424Y-133528539D01*
X70997415Y-133526554D01*
X70999121Y-133525539D01*
X71000861Y-133526494D01*
G37*
G36*
X115321680Y-130260102D02*
G01*
X115321321Y-130261981D01*
X115252222Y-130346179D01*
X115318825Y-130487000D01*
X115370000Y-130487000D01*
X115371696Y-130487940D01*
X115371798Y-130489877D01*
X115370209Y-130490989D01*
X115183089Y-130510656D01*
X115004348Y-130568732D01*
X114841585Y-130662703D01*
X114721559Y-130770775D01*
X114719699Y-130771220D01*
X114718316Y-130769899D01*
X114718675Y-130768020D01*
X114787777Y-130683820D01*
X114721175Y-130543000D01*
X114670000Y-130543000D01*
X114668304Y-130542060D01*
X114668202Y-130540123D01*
X114669791Y-130539011D01*
X114856910Y-130519343D01*
X115035651Y-130461267D01*
X115198414Y-130367296D01*
X115318437Y-130259226D01*
X115320297Y-130258781D01*
X115321680Y-130260102D01*
G37*
G36*
X114721561Y-126059225D02*
G01*
X114841585Y-126167296D01*
X115004348Y-126261267D01*
X115183089Y-126319343D01*
X115370209Y-126339011D01*
X115371798Y-126340123D01*
X115371696Y-126342060D01*
X115370000Y-126343000D01*
X115318825Y-126343000D01*
X115252222Y-126483820D01*
X115321322Y-126568019D01*
X115321681Y-126569898D01*
X115320298Y-126571219D01*
X115318438Y-126570774D01*
X115198414Y-126462703D01*
X115035651Y-126368732D01*
X114856910Y-126310656D01*
X114669791Y-126290989D01*
X114668202Y-126289877D01*
X114668304Y-126287940D01*
X114670000Y-126287000D01*
X114721175Y-126287000D01*
X114787777Y-126146179D01*
X114718677Y-126061980D01*
X114718318Y-126060101D01*
X114719701Y-126058780D01*
X114721561Y-126059225D01*
G37*
G36*
X45732388Y-114512871D02*
G01*
X45733000Y-114514311D01*
X45733000Y-114593689D01*
X45732388Y-114595129D01*
X45730925Y-114595688D01*
X45490509Y-114586691D01*
X45489090Y-114586022D01*
X45488590Y-114584535D01*
X45490993Y-114553999D01*
X45488590Y-114523464D01*
X45489090Y-114521977D01*
X45490509Y-114521308D01*
X45730925Y-114512312D01*
X45732388Y-114512871D01*
G37*
G36*
X42671999Y-113562993D02*
G01*
X42758972Y-113556148D01*
X42760428Y-113556621D01*
X42761123Y-113557985D01*
X42760650Y-113559441D01*
X42688836Y-113643526D01*
X42612844Y-113767534D01*
X42611104Y-113768489D01*
X42609398Y-113767474D01*
X42609407Y-113765489D01*
X42655342Y-113685926D01*
X42598931Y-113568788D01*
X42494280Y-113553014D01*
X42492734Y-113551811D01*
X42492957Y-113549864D01*
X42494735Y-113549042D01*
X42671999Y-113562993D01*
G37*
G36*
X37771040Y-113549865D02*
G01*
X37771263Y-113551812D01*
X37769717Y-113553015D01*
X37665067Y-113568788D01*
X37608656Y-113685927D01*
X37654568Y-113765448D01*
X37654577Y-113767433D01*
X37652871Y-113768448D01*
X37651131Y-113767493D01*
X37575163Y-113643525D01*
X37503349Y-113559441D01*
X37502876Y-113557985D01*
X37503571Y-113556621D01*
X37505027Y-113556148D01*
X37592000Y-113562993D01*
X37769262Y-113549043D01*
X37771040Y-113549865D01*
G37*
G36*
X35684882Y-112881195D02*
G01*
X35684166Y-112883001D01*
X35606771Y-112946389D01*
X35702542Y-113124776D01*
X35797472Y-113095494D01*
X35799376Y-113095897D01*
X35800036Y-113097728D01*
X35798827Y-113099253D01*
X35618769Y-113173836D01*
X35411526Y-113300835D01*
X35260685Y-113429664D01*
X35259044Y-113430114D01*
X35257651Y-113429138D01*
X35160437Y-113259650D01*
X35082511Y-113283200D01*
X35080662Y-113282831D01*
X35079942Y-113281088D01*
X35080991Y-113279521D01*
X35087001Y-113276316D01*
X35681790Y-112879790D01*
X35683726Y-112879633D01*
X35684882Y-112881195D01*
G37*
G36*
X44004572Y-112800572D02*
G01*
X44004563Y-112802557D01*
X43958656Y-112882071D01*
X44015066Y-112999209D01*
X44119738Y-113014986D01*
X44121284Y-113016189D01*
X44121061Y-113018136D01*
X44119283Y-113018958D01*
X43942000Y-113005006D01*
X43855027Y-113011851D01*
X43853571Y-113011378D01*
X43852876Y-113010014D01*
X43853349Y-113008558D01*
X43925163Y-112924473D01*
X44001126Y-112800512D01*
X44002866Y-112799557D01*
X44004572Y-112800572D01*
G37*
G36*
X36262861Y-112800494D02*
G01*
X36338836Y-112924473D01*
X36410650Y-113008557D01*
X36411123Y-113010013D01*
X36410428Y-113011377D01*
X36408972Y-113011850D01*
X36321999Y-113005005D01*
X36144712Y-113018957D01*
X36142934Y-113018135D01*
X36142711Y-113016188D01*
X36144257Y-113014985D01*
X36248931Y-112999208D01*
X36305342Y-112882070D01*
X36259424Y-112802539D01*
X36259415Y-112800554D01*
X36261121Y-112799539D01*
X36262861Y-112800494D01*
G37*
G36*
X117741388Y-112163371D02*
G01*
X117742000Y-112164811D01*
X117742000Y-112244189D01*
X117741388Y-112245629D01*
X117739925Y-112246188D01*
X117499509Y-112237191D01*
X117498090Y-112236522D01*
X117497590Y-112235035D01*
X117499993Y-112204499D01*
X117497590Y-112173964D01*
X117498090Y-112172477D01*
X117499509Y-112171808D01*
X117739925Y-112162812D01*
X117741388Y-112163371D01*
G37*
G36*
X114680999Y-111213493D02*
G01*
X114767972Y-111206648D01*
X114769428Y-111207121D01*
X114770123Y-111208485D01*
X114769650Y-111209941D01*
X114697836Y-111294026D01*
X114621844Y-111418034D01*
X114620104Y-111418989D01*
X114618398Y-111417974D01*
X114618407Y-111415989D01*
X114664342Y-111336426D01*
X114607931Y-111219288D01*
X114503280Y-111203514D01*
X114501734Y-111202311D01*
X114501957Y-111200364D01*
X114503735Y-111199542D01*
X114680999Y-111213493D01*
G37*
G36*
X109780040Y-111200365D02*
G01*
X109780263Y-111202312D01*
X109778717Y-111203515D01*
X109674067Y-111219288D01*
X109617656Y-111336427D01*
X109663568Y-111415948D01*
X109663577Y-111417933D01*
X109661871Y-111418948D01*
X109660131Y-111417993D01*
X109584163Y-111294025D01*
X109512349Y-111209941D01*
X109511876Y-111208485D01*
X109512571Y-111207121D01*
X109514027Y-111206648D01*
X109601000Y-111213493D01*
X109778262Y-111199543D01*
X109780040Y-111200365D01*
G37*
G36*
X107693882Y-110531695D02*
G01*
X107693166Y-110533501D01*
X107615771Y-110596889D01*
X107711542Y-110775276D01*
X107806472Y-110745994D01*
X107808376Y-110746397D01*
X107809036Y-110748228D01*
X107807827Y-110749753D01*
X107627769Y-110824336D01*
X107420526Y-110951335D01*
X107269685Y-111080164D01*
X107268044Y-111080614D01*
X107266651Y-111079638D01*
X107169437Y-110910150D01*
X107091511Y-110933700D01*
X107089662Y-110933331D01*
X107088942Y-110931588D01*
X107089991Y-110930021D01*
X107096001Y-110926816D01*
X107690790Y-110530290D01*
X107692726Y-110530133D01*
X107693882Y-110531695D01*
G37*
G36*
X116013572Y-110451072D02*
G01*
X116013563Y-110453057D01*
X115967656Y-110532571D01*
X116024066Y-110649709D01*
X116128738Y-110665486D01*
X116130284Y-110666689D01*
X116130061Y-110668636D01*
X116128283Y-110669458D01*
X115951000Y-110655506D01*
X115864027Y-110662351D01*
X115862571Y-110661878D01*
X115861876Y-110660514D01*
X115862349Y-110659058D01*
X115934163Y-110574973D01*
X116010126Y-110451012D01*
X116011866Y-110450057D01*
X116013572Y-110451072D01*
G37*
G36*
X108271861Y-110450994D02*
G01*
X108347836Y-110574973D01*
X108419650Y-110659057D01*
X108420123Y-110660513D01*
X108419428Y-110661877D01*
X108417972Y-110662350D01*
X108330999Y-110655505D01*
X108153712Y-110669457D01*
X108151934Y-110668635D01*
X108151711Y-110666688D01*
X108153257Y-110665485D01*
X108257931Y-110649708D01*
X108314342Y-110532570D01*
X108268424Y-110453039D01*
X108268415Y-110451054D01*
X108270121Y-110450039D01*
X108271861Y-110450994D01*
G37*
G36*
X99770888Y-109750371D02*
G01*
X99771500Y-109751811D01*
X99771500Y-109831189D01*
X99770888Y-109832629D01*
X99769425Y-109833188D01*
X99529009Y-109824191D01*
X99527590Y-109823522D01*
X99527090Y-109822035D01*
X99529493Y-109791499D01*
X99527090Y-109760964D01*
X99527590Y-109759477D01*
X99529009Y-109758808D01*
X99769425Y-109749812D01*
X99770888Y-109750371D01*
G37*
G36*
X63766388Y-109750371D02*
G01*
X63767000Y-109751811D01*
X63767000Y-109831189D01*
X63766388Y-109832629D01*
X63764925Y-109833188D01*
X63524509Y-109824191D01*
X63523090Y-109823522D01*
X63522590Y-109822035D01*
X63524993Y-109791499D01*
X63522590Y-109760964D01*
X63523090Y-109759477D01*
X63524509Y-109758808D01*
X63764925Y-109749812D01*
X63766388Y-109750371D01*
G37*
G36*
X96710499Y-108800493D02*
G01*
X96797472Y-108793648D01*
X96798928Y-108794121D01*
X96799623Y-108795485D01*
X96799150Y-108796941D01*
X96727336Y-108881026D01*
X96651344Y-109005034D01*
X96649604Y-109005989D01*
X96647898Y-109004974D01*
X96647907Y-109002989D01*
X96693842Y-108923426D01*
X96637431Y-108806288D01*
X96532780Y-108790514D01*
X96531234Y-108789311D01*
X96531457Y-108787364D01*
X96533235Y-108786542D01*
X96710499Y-108800493D01*
G37*
G36*
X60705999Y-108800493D02*
G01*
X60792972Y-108793648D01*
X60794428Y-108794121D01*
X60795123Y-108795485D01*
X60794650Y-108796941D01*
X60722836Y-108881026D01*
X60646844Y-109005034D01*
X60645104Y-109005989D01*
X60643398Y-109004974D01*
X60643407Y-109002989D01*
X60689342Y-108923426D01*
X60632931Y-108806288D01*
X60528280Y-108790514D01*
X60526734Y-108789311D01*
X60526957Y-108787364D01*
X60528735Y-108786542D01*
X60705999Y-108800493D01*
G37*
G36*
X91809540Y-108787365D02*
G01*
X91809763Y-108789312D01*
X91808217Y-108790515D01*
X91703567Y-108806288D01*
X91647156Y-108923427D01*
X91693068Y-109002948D01*
X91693077Y-109004933D01*
X91691371Y-109005948D01*
X91689631Y-109004993D01*
X91613663Y-108881025D01*
X91541849Y-108796941D01*
X91541376Y-108795485D01*
X91542071Y-108794121D01*
X91543527Y-108793648D01*
X91630500Y-108800493D01*
X91807762Y-108786543D01*
X91809540Y-108787365D01*
G37*
G36*
X55805040Y-108787365D02*
G01*
X55805263Y-108789312D01*
X55803717Y-108790515D01*
X55699067Y-108806288D01*
X55642656Y-108923427D01*
X55688568Y-109002948D01*
X55688577Y-109004933D01*
X55686871Y-109005948D01*
X55685131Y-109004993D01*
X55609163Y-108881025D01*
X55537349Y-108796941D01*
X55536876Y-108795485D01*
X55537571Y-108794121D01*
X55539027Y-108793648D01*
X55626000Y-108800493D01*
X55803262Y-108786543D01*
X55805040Y-108787365D01*
G37*
G36*
X89723382Y-108118695D02*
G01*
X89722666Y-108120501D01*
X89645271Y-108183889D01*
X89741042Y-108362276D01*
X89835972Y-108332994D01*
X89837876Y-108333397D01*
X89838536Y-108335228D01*
X89837327Y-108336753D01*
X89657269Y-108411336D01*
X89450026Y-108538335D01*
X89299185Y-108667164D01*
X89297544Y-108667614D01*
X89296151Y-108666638D01*
X89198937Y-108497150D01*
X89121011Y-108520700D01*
X89119162Y-108520331D01*
X89118442Y-108518588D01*
X89119491Y-108517021D01*
X89125501Y-108513816D01*
X89720290Y-108117290D01*
X89722226Y-108117133D01*
X89723382Y-108118695D01*
G37*
G36*
X53718882Y-108118695D02*
G01*
X53718166Y-108120501D01*
X53640771Y-108183889D01*
X53736542Y-108362276D01*
X53831472Y-108332994D01*
X53833376Y-108333397D01*
X53834036Y-108335228D01*
X53832827Y-108336753D01*
X53652769Y-108411336D01*
X53445526Y-108538335D01*
X53294685Y-108667164D01*
X53293044Y-108667614D01*
X53291651Y-108666638D01*
X53194437Y-108497150D01*
X53116511Y-108520700D01*
X53114662Y-108520331D01*
X53113942Y-108518588D01*
X53114991Y-108517021D01*
X53121001Y-108513816D01*
X53715790Y-108117290D01*
X53717726Y-108117133D01*
X53718882Y-108118695D01*
G37*
G36*
X98043072Y-108038072D02*
G01*
X98043063Y-108040057D01*
X97997156Y-108119571D01*
X98053566Y-108236709D01*
X98158238Y-108252486D01*
X98159784Y-108253689D01*
X98159561Y-108255636D01*
X98157783Y-108256458D01*
X97980500Y-108242506D01*
X97893527Y-108249351D01*
X97892071Y-108248878D01*
X97891376Y-108247514D01*
X97891849Y-108246058D01*
X97963663Y-108161973D01*
X98039626Y-108038012D01*
X98041366Y-108037057D01*
X98043072Y-108038072D01*
G37*
G36*
X62038572Y-108038072D02*
G01*
X62038563Y-108040057D01*
X61992656Y-108119571D01*
X62049066Y-108236709D01*
X62153738Y-108252486D01*
X62155284Y-108253689D01*
X62155061Y-108255636D01*
X62153283Y-108256458D01*
X61976000Y-108242506D01*
X61889027Y-108249351D01*
X61887571Y-108248878D01*
X61886876Y-108247514D01*
X61887349Y-108246058D01*
X61959163Y-108161973D01*
X62035126Y-108038012D01*
X62036866Y-108037057D01*
X62038572Y-108038072D01*
G37*
G36*
X90301361Y-108037994D02*
G01*
X90377336Y-108161973D01*
X90449150Y-108246057D01*
X90449623Y-108247513D01*
X90448928Y-108248877D01*
X90447472Y-108249350D01*
X90360499Y-108242505D01*
X90183212Y-108256457D01*
X90181434Y-108255635D01*
X90181211Y-108253688D01*
X90182757Y-108252485D01*
X90287431Y-108236708D01*
X90343842Y-108119570D01*
X90297924Y-108040039D01*
X90297915Y-108038054D01*
X90299621Y-108037039D01*
X90301361Y-108037994D01*
G37*
G36*
X54296861Y-108037994D02*
G01*
X54372836Y-108161973D01*
X54444650Y-108246057D01*
X54445123Y-108247513D01*
X54444428Y-108248877D01*
X54442972Y-108249350D01*
X54355999Y-108242505D01*
X54178712Y-108256457D01*
X54176934Y-108255635D01*
X54176711Y-108253688D01*
X54178257Y-108252485D01*
X54282931Y-108236708D01*
X54339342Y-108119570D01*
X54293424Y-108040039D01*
X54293415Y-108038054D01*
X54295121Y-108037039D01*
X54296861Y-108037994D01*
G37*
G36*
X81800388Y-107400871D02*
G01*
X81801000Y-107402311D01*
X81801000Y-107481689D01*
X81800388Y-107483129D01*
X81798925Y-107483688D01*
X81558509Y-107474691D01*
X81557090Y-107474022D01*
X81556590Y-107472535D01*
X81558993Y-107441999D01*
X81556590Y-107411464D01*
X81557090Y-107409977D01*
X81558509Y-107409308D01*
X81798925Y-107400312D01*
X81800388Y-107400871D01*
G37*
G36*
X78739999Y-106450993D02*
G01*
X78826972Y-106444148D01*
X78828428Y-106444621D01*
X78829123Y-106445985D01*
X78828650Y-106447441D01*
X78756836Y-106531526D01*
X78680844Y-106655534D01*
X78679104Y-106656489D01*
X78677398Y-106655474D01*
X78677407Y-106653489D01*
X78723342Y-106573926D01*
X78666931Y-106456788D01*
X78562280Y-106441014D01*
X78560734Y-106439811D01*
X78560957Y-106437864D01*
X78562735Y-106437042D01*
X78739999Y-106450993D01*
G37*
G36*
X73839040Y-106437865D02*
G01*
X73839263Y-106439812D01*
X73837717Y-106441015D01*
X73733067Y-106456788D01*
X73676656Y-106573927D01*
X73722568Y-106653448D01*
X73722577Y-106655433D01*
X73720871Y-106656448D01*
X73719131Y-106655493D01*
X73643163Y-106531525D01*
X73571349Y-106447441D01*
X73570876Y-106445985D01*
X73571571Y-106444621D01*
X73573027Y-106444148D01*
X73660000Y-106450993D01*
X73837262Y-106437043D01*
X73839040Y-106437865D01*
G37*
G36*
X71752882Y-105769195D02*
G01*
X71752166Y-105771001D01*
X71674771Y-105834389D01*
X71770542Y-106012776D01*
X71865472Y-105983494D01*
X71867376Y-105983897D01*
X71868036Y-105985728D01*
X71866827Y-105987253D01*
X71686769Y-106061836D01*
X71479526Y-106188835D01*
X71328685Y-106317664D01*
X71327044Y-106318114D01*
X71325651Y-106317138D01*
X71228437Y-106147650D01*
X71150511Y-106171200D01*
X71148662Y-106170831D01*
X71147942Y-106169088D01*
X71148991Y-106167521D01*
X71155001Y-106164316D01*
X71749790Y-105767790D01*
X71751726Y-105767633D01*
X71752882Y-105769195D01*
G37*
G36*
X80072572Y-105688572D02*
G01*
X80072563Y-105690557D01*
X80026656Y-105770071D01*
X80083066Y-105887209D01*
X80187738Y-105902986D01*
X80189284Y-105904189D01*
X80189061Y-105906136D01*
X80187283Y-105906958D01*
X80010000Y-105893006D01*
X79923027Y-105899851D01*
X79921571Y-105899378D01*
X79920876Y-105898014D01*
X79921349Y-105896558D01*
X79993163Y-105812473D01*
X80069126Y-105688512D01*
X80070866Y-105687557D01*
X80072572Y-105688572D01*
G37*
G36*
X72330861Y-105688494D02*
G01*
X72406836Y-105812473D01*
X72478650Y-105896557D01*
X72479123Y-105898013D01*
X72478428Y-105899377D01*
X72476972Y-105899850D01*
X72389999Y-105893005D01*
X72212712Y-105906957D01*
X72210934Y-105906135D01*
X72210711Y-105904188D01*
X72212257Y-105902985D01*
X72316931Y-105887208D01*
X72373342Y-105770070D01*
X72327424Y-105690539D01*
X72327415Y-105688554D01*
X72329121Y-105687539D01*
X72330861Y-105688494D01*
G37*
G36*
X45732388Y-97494871D02*
G01*
X45733000Y-97496311D01*
X45733000Y-97575689D01*
X45732388Y-97577129D01*
X45730925Y-97577688D01*
X45490509Y-97568691D01*
X45489090Y-97568022D01*
X45488590Y-97566535D01*
X45490993Y-97535999D01*
X45488590Y-97505464D01*
X45489090Y-97503977D01*
X45490509Y-97503308D01*
X45730925Y-97494312D01*
X45732388Y-97494871D01*
G37*
G36*
X42671999Y-96544993D02*
G01*
X42758972Y-96538148D01*
X42760428Y-96538621D01*
X42761123Y-96539985D01*
X42760650Y-96541441D01*
X42688836Y-96625526D01*
X42612844Y-96749534D01*
X42611104Y-96750489D01*
X42609398Y-96749474D01*
X42609407Y-96747489D01*
X42655342Y-96667926D01*
X42598931Y-96550788D01*
X42494280Y-96535014D01*
X42492734Y-96533811D01*
X42492957Y-96531864D01*
X42494735Y-96531042D01*
X42671999Y-96544993D01*
G37*
G36*
X37771040Y-96531865D02*
G01*
X37771263Y-96533812D01*
X37769717Y-96535015D01*
X37665067Y-96550788D01*
X37608656Y-96667927D01*
X37654568Y-96747448D01*
X37654577Y-96749433D01*
X37652871Y-96750448D01*
X37651131Y-96749493D01*
X37575163Y-96625525D01*
X37503349Y-96541441D01*
X37502876Y-96539985D01*
X37503571Y-96538621D01*
X37505027Y-96538148D01*
X37592000Y-96544993D01*
X37769262Y-96531043D01*
X37771040Y-96531865D01*
G37*
G36*
X35684882Y-95863195D02*
G01*
X35684166Y-95865001D01*
X35606771Y-95928389D01*
X35702542Y-96106776D01*
X35797472Y-96077494D01*
X35799376Y-96077897D01*
X35800036Y-96079728D01*
X35798827Y-96081253D01*
X35618769Y-96155836D01*
X35411526Y-96282835D01*
X35260685Y-96411664D01*
X35259044Y-96412114D01*
X35257651Y-96411138D01*
X35160437Y-96241650D01*
X35082511Y-96265200D01*
X35080662Y-96264831D01*
X35079942Y-96263088D01*
X35080991Y-96261521D01*
X35087001Y-96258316D01*
X35681790Y-95861790D01*
X35683726Y-95861633D01*
X35684882Y-95863195D01*
G37*
G36*
X44004572Y-95782572D02*
G01*
X44004563Y-95784557D01*
X43958656Y-95864071D01*
X44015066Y-95981209D01*
X44119738Y-95996986D01*
X44121284Y-95998189D01*
X44121061Y-96000136D01*
X44119283Y-96000958D01*
X43942000Y-95987006D01*
X43855027Y-95993851D01*
X43853571Y-95993378D01*
X43852876Y-95992014D01*
X43853349Y-95990558D01*
X43925163Y-95906473D01*
X44001126Y-95782512D01*
X44002866Y-95781557D01*
X44004572Y-95782572D01*
G37*
G36*
X36262861Y-95782494D02*
G01*
X36338836Y-95906473D01*
X36410650Y-95990557D01*
X36411123Y-95992013D01*
X36410428Y-95993377D01*
X36408972Y-95993850D01*
X36321999Y-95987005D01*
X36144712Y-96000957D01*
X36142934Y-96000135D01*
X36142711Y-95998188D01*
X36144257Y-95996985D01*
X36248931Y-95981208D01*
X36305342Y-95864070D01*
X36259424Y-95784539D01*
X36259415Y-95782554D01*
X36261121Y-95781539D01*
X36262861Y-95782494D01*
G37*
G36*
X117741388Y-95145371D02*
G01*
X117742000Y-95146811D01*
X117742000Y-95226189D01*
X117741388Y-95227629D01*
X117739925Y-95228188D01*
X117499509Y-95219191D01*
X117498090Y-95218522D01*
X117497590Y-95217035D01*
X117499993Y-95186499D01*
X117497590Y-95155964D01*
X117498090Y-95154477D01*
X117499509Y-95153808D01*
X117739925Y-95144812D01*
X117741388Y-95145371D01*
G37*
G36*
X114680999Y-94195493D02*
G01*
X114767972Y-94188648D01*
X114769428Y-94189121D01*
X114770123Y-94190485D01*
X114769650Y-94191941D01*
X114697836Y-94276026D01*
X114621844Y-94400034D01*
X114620104Y-94400989D01*
X114618398Y-94399974D01*
X114618407Y-94397989D01*
X114664342Y-94318426D01*
X114607931Y-94201288D01*
X114503280Y-94185514D01*
X114501734Y-94184311D01*
X114501957Y-94182364D01*
X114503735Y-94181542D01*
X114680999Y-94195493D01*
G37*
G36*
X109780040Y-94182365D02*
G01*
X109780263Y-94184312D01*
X109778717Y-94185515D01*
X109674067Y-94201288D01*
X109617656Y-94318427D01*
X109663568Y-94397948D01*
X109663577Y-94399933D01*
X109661871Y-94400948D01*
X109660131Y-94399993D01*
X109584163Y-94276025D01*
X109512349Y-94191941D01*
X109511876Y-94190485D01*
X109512571Y-94189121D01*
X109514027Y-94188648D01*
X109601000Y-94195493D01*
X109778262Y-94181543D01*
X109780040Y-94182365D01*
G37*
G36*
X107693882Y-93513695D02*
G01*
X107693166Y-93515501D01*
X107615771Y-93578889D01*
X107711542Y-93757276D01*
X107806472Y-93727994D01*
X107808376Y-93728397D01*
X107809036Y-93730228D01*
X107807827Y-93731753D01*
X107627769Y-93806336D01*
X107420526Y-93933335D01*
X107269685Y-94062164D01*
X107268044Y-94062614D01*
X107266651Y-94061638D01*
X107169437Y-93892150D01*
X107091511Y-93915700D01*
X107089662Y-93915331D01*
X107088942Y-93913588D01*
X107089991Y-93912021D01*
X107096001Y-93908816D01*
X107690790Y-93512290D01*
X107692726Y-93512133D01*
X107693882Y-93513695D01*
G37*
G36*
X116013572Y-93433072D02*
G01*
X116013563Y-93435057D01*
X115967656Y-93514571D01*
X116024066Y-93631709D01*
X116128738Y-93647486D01*
X116130284Y-93648689D01*
X116130061Y-93650636D01*
X116128283Y-93651458D01*
X115951000Y-93637506D01*
X115864027Y-93644351D01*
X115862571Y-93643878D01*
X115861876Y-93642514D01*
X115862349Y-93641058D01*
X115934163Y-93556973D01*
X116010126Y-93433012D01*
X116011866Y-93432057D01*
X116013572Y-93433072D01*
G37*
G36*
X108271861Y-93432994D02*
G01*
X108347836Y-93556973D01*
X108419650Y-93641057D01*
X108420123Y-93642513D01*
X108419428Y-93643877D01*
X108417972Y-93644350D01*
X108330999Y-93637505D01*
X108153712Y-93651457D01*
X108151934Y-93650635D01*
X108151711Y-93648688D01*
X108153257Y-93647485D01*
X108257931Y-93631708D01*
X108314342Y-93514570D01*
X108268424Y-93435039D01*
X108268415Y-93433054D01*
X108270121Y-93432039D01*
X108271861Y-93432994D01*
G37*
G36*
X99770888Y-92795871D02*
G01*
X99771500Y-92797311D01*
X99771500Y-92876689D01*
X99770888Y-92878129D01*
X99769425Y-92878688D01*
X99529009Y-92869691D01*
X99527590Y-92869022D01*
X99527090Y-92867535D01*
X99529493Y-92836999D01*
X99527090Y-92806464D01*
X99527590Y-92804977D01*
X99529009Y-92804308D01*
X99769425Y-92795312D01*
X99770888Y-92795871D01*
G37*
G36*
X63766388Y-92732371D02*
G01*
X63767000Y-92733811D01*
X63767000Y-92813189D01*
X63766388Y-92814629D01*
X63764925Y-92815188D01*
X63524509Y-92806191D01*
X63523090Y-92805522D01*
X63522590Y-92804035D01*
X63524993Y-92773499D01*
X63522590Y-92742964D01*
X63523090Y-92741477D01*
X63524509Y-92740808D01*
X63764925Y-92731812D01*
X63766388Y-92732371D01*
G37*
G36*
X96710499Y-91845993D02*
G01*
X96797472Y-91839148D01*
X96798928Y-91839621D01*
X96799623Y-91840985D01*
X96799150Y-91842441D01*
X96727336Y-91926526D01*
X96651344Y-92050534D01*
X96649604Y-92051489D01*
X96647898Y-92050474D01*
X96647907Y-92048489D01*
X96693842Y-91968926D01*
X96637431Y-91851788D01*
X96532780Y-91836014D01*
X96531234Y-91834811D01*
X96531457Y-91832864D01*
X96533235Y-91832042D01*
X96710499Y-91845993D01*
G37*
G36*
X91809540Y-91832865D02*
G01*
X91809763Y-91834812D01*
X91808217Y-91836015D01*
X91703567Y-91851788D01*
X91647156Y-91968927D01*
X91693068Y-92048448D01*
X91693077Y-92050433D01*
X91691371Y-92051448D01*
X91689631Y-92050493D01*
X91613663Y-91926525D01*
X91541849Y-91842441D01*
X91541376Y-91840985D01*
X91542071Y-91839621D01*
X91543527Y-91839148D01*
X91630500Y-91845993D01*
X91807762Y-91832043D01*
X91809540Y-91832865D01*
G37*
G36*
X60705999Y-91782493D02*
G01*
X60792972Y-91775648D01*
X60794428Y-91776121D01*
X60795123Y-91777485D01*
X60794650Y-91778941D01*
X60722836Y-91863026D01*
X60646844Y-91987034D01*
X60645104Y-91987989D01*
X60643398Y-91986974D01*
X60643407Y-91984989D01*
X60689342Y-91905426D01*
X60632931Y-91788288D01*
X60528280Y-91772514D01*
X60526734Y-91771311D01*
X60526957Y-91769364D01*
X60528735Y-91768542D01*
X60705999Y-91782493D01*
G37*
G36*
X55805040Y-91769365D02*
G01*
X55805263Y-91771312D01*
X55803717Y-91772515D01*
X55699067Y-91788288D01*
X55642656Y-91905427D01*
X55688568Y-91984948D01*
X55688577Y-91986933D01*
X55686871Y-91987948D01*
X55685131Y-91986993D01*
X55609163Y-91863025D01*
X55537349Y-91778941D01*
X55536876Y-91777485D01*
X55537571Y-91776121D01*
X55539027Y-91775648D01*
X55626000Y-91782493D01*
X55803262Y-91768543D01*
X55805040Y-91769365D01*
G37*
G36*
X89723382Y-91164195D02*
G01*
X89722666Y-91166001D01*
X89645271Y-91229389D01*
X89741042Y-91407776D01*
X89835972Y-91378494D01*
X89837876Y-91378897D01*
X89838536Y-91380728D01*
X89837327Y-91382253D01*
X89657269Y-91456836D01*
X89450026Y-91583835D01*
X89299185Y-91712664D01*
X89297544Y-91713114D01*
X89296151Y-91712138D01*
X89198937Y-91542650D01*
X89121011Y-91566200D01*
X89119162Y-91565831D01*
X89118442Y-91564088D01*
X89119491Y-91562521D01*
X89125501Y-91559316D01*
X89720290Y-91162790D01*
X89722226Y-91162633D01*
X89723382Y-91164195D01*
G37*
G36*
X53718882Y-91100695D02*
G01*
X53718166Y-91102501D01*
X53640771Y-91165889D01*
X53736542Y-91344276D01*
X53831472Y-91314994D01*
X53833376Y-91315397D01*
X53834036Y-91317228D01*
X53832827Y-91318753D01*
X53652769Y-91393336D01*
X53445526Y-91520335D01*
X53294685Y-91649164D01*
X53293044Y-91649614D01*
X53291651Y-91648638D01*
X53194437Y-91479150D01*
X53116511Y-91502700D01*
X53114662Y-91502331D01*
X53113942Y-91500588D01*
X53114991Y-91499021D01*
X53121001Y-91495816D01*
X53715790Y-91099290D01*
X53717726Y-91099133D01*
X53718882Y-91100695D01*
G37*
G36*
X98043072Y-91083572D02*
G01*
X98043063Y-91085557D01*
X97997156Y-91165071D01*
X98053566Y-91282209D01*
X98158238Y-91297986D01*
X98159784Y-91299189D01*
X98159561Y-91301136D01*
X98157783Y-91301958D01*
X97980500Y-91288006D01*
X97893527Y-91294851D01*
X97892071Y-91294378D01*
X97891376Y-91293014D01*
X97891849Y-91291558D01*
X97963663Y-91207473D01*
X98039626Y-91083512D01*
X98041366Y-91082557D01*
X98043072Y-91083572D01*
G37*
G36*
X90301361Y-91083494D02*
G01*
X90377336Y-91207473D01*
X90449150Y-91291557D01*
X90449623Y-91293013D01*
X90448928Y-91294377D01*
X90447472Y-91294850D01*
X90360499Y-91288005D01*
X90183212Y-91301957D01*
X90181434Y-91301135D01*
X90181211Y-91299188D01*
X90182757Y-91297985D01*
X90287431Y-91282208D01*
X90343842Y-91165070D01*
X90297924Y-91085539D01*
X90297915Y-91083554D01*
X90299621Y-91082539D01*
X90301361Y-91083494D01*
G37*
G36*
X62038572Y-91020072D02*
G01*
X62038563Y-91022057D01*
X61992656Y-91101571D01*
X62049066Y-91218709D01*
X62153738Y-91234486D01*
X62155284Y-91235689D01*
X62155061Y-91237636D01*
X62153283Y-91238458D01*
X61976000Y-91224506D01*
X61889027Y-91231351D01*
X61887571Y-91230878D01*
X61886876Y-91229514D01*
X61887349Y-91228058D01*
X61959163Y-91143973D01*
X62035126Y-91020012D01*
X62036866Y-91019057D01*
X62038572Y-91020072D01*
G37*
G36*
X54296861Y-91019994D02*
G01*
X54372836Y-91143973D01*
X54444650Y-91228057D01*
X54445123Y-91229513D01*
X54444428Y-91230877D01*
X54442972Y-91231350D01*
X54355999Y-91224505D01*
X54178712Y-91238457D01*
X54176934Y-91237635D01*
X54176711Y-91235688D01*
X54178257Y-91234485D01*
X54282931Y-91218708D01*
X54339342Y-91101570D01*
X54293424Y-91022039D01*
X54293415Y-91020054D01*
X54295121Y-91019039D01*
X54296861Y-91019994D01*
G37*
G36*
X81736888Y-90382871D02*
G01*
X81737500Y-90384311D01*
X81737500Y-90463689D01*
X81736888Y-90465129D01*
X81735425Y-90465688D01*
X81495009Y-90456691D01*
X81493590Y-90456022D01*
X81493090Y-90454535D01*
X81495493Y-90423999D01*
X81493090Y-90393464D01*
X81493590Y-90391977D01*
X81495009Y-90391308D01*
X81735425Y-90382312D01*
X81736888Y-90382871D01*
G37*
G36*
X78676499Y-89432993D02*
G01*
X78763472Y-89426148D01*
X78764928Y-89426621D01*
X78765623Y-89427985D01*
X78765150Y-89429441D01*
X78693336Y-89513526D01*
X78617344Y-89637534D01*
X78615604Y-89638489D01*
X78613898Y-89637474D01*
X78613907Y-89635489D01*
X78659842Y-89555926D01*
X78603431Y-89438788D01*
X78498780Y-89423014D01*
X78497234Y-89421811D01*
X78497457Y-89419864D01*
X78499235Y-89419042D01*
X78676499Y-89432993D01*
G37*
G36*
X73775540Y-89419865D02*
G01*
X73775763Y-89421812D01*
X73774217Y-89423015D01*
X73669567Y-89438788D01*
X73613156Y-89555927D01*
X73659068Y-89635448D01*
X73659077Y-89637433D01*
X73657371Y-89638448D01*
X73655631Y-89637493D01*
X73579663Y-89513525D01*
X73507849Y-89429441D01*
X73507376Y-89427985D01*
X73508071Y-89426621D01*
X73509527Y-89426148D01*
X73596500Y-89432993D01*
X73773762Y-89419043D01*
X73775540Y-89419865D01*
G37*
G36*
X71689382Y-88751195D02*
G01*
X71688666Y-88753001D01*
X71611271Y-88816389D01*
X71707042Y-88994776D01*
X71801972Y-88965494D01*
X71803876Y-88965897D01*
X71804536Y-88967728D01*
X71803327Y-88969253D01*
X71623269Y-89043836D01*
X71416026Y-89170835D01*
X71265185Y-89299664D01*
X71263544Y-89300114D01*
X71262151Y-89299138D01*
X71164937Y-89129650D01*
X71087011Y-89153200D01*
X71085162Y-89152831D01*
X71084442Y-89151088D01*
X71085491Y-89149521D01*
X71091501Y-89146316D01*
X71686290Y-88749790D01*
X71688226Y-88749633D01*
X71689382Y-88751195D01*
G37*
G36*
X80009072Y-88670572D02*
G01*
X80009063Y-88672557D01*
X79963156Y-88752071D01*
X80019566Y-88869209D01*
X80124238Y-88884986D01*
X80125784Y-88886189D01*
X80125561Y-88888136D01*
X80123783Y-88888958D01*
X79946500Y-88875006D01*
X79859527Y-88881851D01*
X79858071Y-88881378D01*
X79857376Y-88880014D01*
X79857849Y-88878558D01*
X79929663Y-88794473D01*
X80005626Y-88670512D01*
X80007366Y-88669557D01*
X80009072Y-88670572D01*
G37*
G36*
X72267361Y-88670494D02*
G01*
X72343336Y-88794473D01*
X72415150Y-88878557D01*
X72415623Y-88880013D01*
X72414928Y-88881377D01*
X72413472Y-88881850D01*
X72326499Y-88875005D01*
X72149212Y-88888957D01*
X72147434Y-88888135D01*
X72147211Y-88886188D01*
X72148757Y-88884985D01*
X72253431Y-88869208D01*
X72309842Y-88752070D01*
X72263924Y-88672539D01*
X72263915Y-88670554D01*
X72265621Y-88669539D01*
X72267361Y-88670494D01*
G37*
G36*
X45732388Y-80540371D02*
G01*
X45733000Y-80541811D01*
X45733000Y-80621189D01*
X45732388Y-80622629D01*
X45730925Y-80623188D01*
X45490509Y-80614191D01*
X45489090Y-80613522D01*
X45488590Y-80612035D01*
X45490993Y-80581499D01*
X45488590Y-80550964D01*
X45489090Y-80549477D01*
X45490509Y-80548808D01*
X45730925Y-80539812D01*
X45732388Y-80540371D01*
G37*
G36*
X42671999Y-79590493D02*
G01*
X42758972Y-79583648D01*
X42760428Y-79584121D01*
X42761123Y-79585485D01*
X42760650Y-79586941D01*
X42688836Y-79671026D01*
X42612844Y-79795034D01*
X42611104Y-79795989D01*
X42609398Y-79794974D01*
X42609407Y-79792989D01*
X42655342Y-79713426D01*
X42598931Y-79596288D01*
X42494280Y-79580514D01*
X42492734Y-79579311D01*
X42492957Y-79577364D01*
X42494735Y-79576542D01*
X42671999Y-79590493D01*
G37*
G36*
X37771040Y-79577365D02*
G01*
X37771263Y-79579312D01*
X37769717Y-79580515D01*
X37665067Y-79596288D01*
X37608656Y-79713427D01*
X37654568Y-79792948D01*
X37654577Y-79794933D01*
X37652871Y-79795948D01*
X37651131Y-79794993D01*
X37575163Y-79671025D01*
X37503349Y-79586941D01*
X37502876Y-79585485D01*
X37503571Y-79584121D01*
X37505027Y-79583648D01*
X37592000Y-79590493D01*
X37769262Y-79576543D01*
X37771040Y-79577365D01*
G37*
G36*
X35684882Y-78908695D02*
G01*
X35684166Y-78910501D01*
X35606771Y-78973889D01*
X35702542Y-79152276D01*
X35797472Y-79122994D01*
X35799376Y-79123397D01*
X35800036Y-79125228D01*
X35798827Y-79126753D01*
X35618769Y-79201336D01*
X35411526Y-79328335D01*
X35260685Y-79457164D01*
X35259044Y-79457614D01*
X35257651Y-79456638D01*
X35160437Y-79287150D01*
X35082511Y-79310700D01*
X35080662Y-79310331D01*
X35079942Y-79308588D01*
X35080991Y-79307021D01*
X35087001Y-79303816D01*
X35681790Y-78907290D01*
X35683726Y-78907133D01*
X35684882Y-78908695D01*
G37*
G36*
X44004572Y-78828072D02*
G01*
X44004563Y-78830057D01*
X43958656Y-78909571D01*
X44015066Y-79026709D01*
X44119738Y-79042486D01*
X44121284Y-79043689D01*
X44121061Y-79045636D01*
X44119283Y-79046458D01*
X43942000Y-79032506D01*
X43855027Y-79039351D01*
X43853571Y-79038878D01*
X43852876Y-79037514D01*
X43853349Y-79036058D01*
X43925163Y-78951973D01*
X44001126Y-78828012D01*
X44002866Y-78827057D01*
X44004572Y-78828072D01*
G37*
G36*
X36262861Y-78827994D02*
G01*
X36338836Y-78951973D01*
X36410650Y-79036057D01*
X36411123Y-79037513D01*
X36410428Y-79038877D01*
X36408972Y-79039350D01*
X36321999Y-79032505D01*
X36144712Y-79046457D01*
X36142934Y-79045635D01*
X36142711Y-79043688D01*
X36144257Y-79042485D01*
X36248931Y-79026708D01*
X36305342Y-78909570D01*
X36259424Y-78830039D01*
X36259415Y-78828054D01*
X36261121Y-78827039D01*
X36262861Y-78827994D01*
G37*
G36*
X117741388Y-78190871D02*
G01*
X117742000Y-78192311D01*
X117742000Y-78271689D01*
X117741388Y-78273129D01*
X117739925Y-78273688D01*
X117499509Y-78264691D01*
X117498090Y-78264022D01*
X117497590Y-78262535D01*
X117499993Y-78231999D01*
X117497590Y-78201464D01*
X117498090Y-78199977D01*
X117499509Y-78199308D01*
X117739925Y-78190312D01*
X117741388Y-78190871D01*
G37*
G36*
X114680999Y-77240993D02*
G01*
X114767972Y-77234148D01*
X114769428Y-77234621D01*
X114770123Y-77235985D01*
X114769650Y-77237441D01*
X114697836Y-77321526D01*
X114621844Y-77445534D01*
X114620104Y-77446489D01*
X114618398Y-77445474D01*
X114618407Y-77443489D01*
X114664342Y-77363926D01*
X114607931Y-77246788D01*
X114503280Y-77231014D01*
X114501734Y-77229811D01*
X114501957Y-77227864D01*
X114503735Y-77227042D01*
X114680999Y-77240993D01*
G37*
G36*
X109780040Y-77227865D02*
G01*
X109780263Y-77229812D01*
X109778717Y-77231015D01*
X109674067Y-77246788D01*
X109617656Y-77363927D01*
X109663568Y-77443448D01*
X109663577Y-77445433D01*
X109661871Y-77446448D01*
X109660131Y-77445493D01*
X109584163Y-77321525D01*
X109512349Y-77237441D01*
X109511876Y-77235985D01*
X109512571Y-77234621D01*
X109514027Y-77234148D01*
X109601000Y-77240993D01*
X109778262Y-77227043D01*
X109780040Y-77227865D01*
G37*
G36*
X107693882Y-76559195D02*
G01*
X107693166Y-76561001D01*
X107615771Y-76624389D01*
X107711542Y-76802776D01*
X107806472Y-76773494D01*
X107808376Y-76773897D01*
X107809036Y-76775728D01*
X107807827Y-76777253D01*
X107627769Y-76851836D01*
X107420526Y-76978835D01*
X107269685Y-77107664D01*
X107268044Y-77108114D01*
X107266651Y-77107138D01*
X107169437Y-76937650D01*
X107091511Y-76961200D01*
X107089662Y-76960831D01*
X107088942Y-76959088D01*
X107089991Y-76957521D01*
X107096001Y-76954316D01*
X107690790Y-76557790D01*
X107692726Y-76557633D01*
X107693882Y-76559195D01*
G37*
G36*
X116013572Y-76478572D02*
G01*
X116013563Y-76480557D01*
X115967656Y-76560071D01*
X116024066Y-76677209D01*
X116128738Y-76692986D01*
X116130284Y-76694189D01*
X116130061Y-76696136D01*
X116128283Y-76696958D01*
X115951000Y-76683006D01*
X115864027Y-76689851D01*
X115862571Y-76689378D01*
X115861876Y-76688014D01*
X115862349Y-76686558D01*
X115934163Y-76602473D01*
X116010126Y-76478512D01*
X116011866Y-76477557D01*
X116013572Y-76478572D01*
G37*
G36*
X108271861Y-76478494D02*
G01*
X108347836Y-76602473D01*
X108419650Y-76686557D01*
X108420123Y-76688013D01*
X108419428Y-76689377D01*
X108417972Y-76689850D01*
X108330999Y-76683005D01*
X108153712Y-76696957D01*
X108151934Y-76696135D01*
X108151711Y-76694188D01*
X108153257Y-76692985D01*
X108257931Y-76677208D01*
X108314342Y-76560070D01*
X108268424Y-76480539D01*
X108268415Y-76478554D01*
X108270121Y-76477539D01*
X108271861Y-76478494D01*
G37*
G36*
X99770888Y-75777871D02*
G01*
X99771500Y-75779311D01*
X99771500Y-75858689D01*
X99770888Y-75860129D01*
X99769425Y-75860688D01*
X99529009Y-75851691D01*
X99527590Y-75851022D01*
X99527090Y-75849535D01*
X99529493Y-75818999D01*
X99527090Y-75788464D01*
X99527590Y-75786977D01*
X99529009Y-75786308D01*
X99769425Y-75777312D01*
X99770888Y-75777871D01*
G37*
G36*
X63766388Y-75777871D02*
G01*
X63767000Y-75779311D01*
X63767000Y-75858689D01*
X63766388Y-75860129D01*
X63764925Y-75860688D01*
X63524509Y-75851691D01*
X63523090Y-75851022D01*
X63522590Y-75849535D01*
X63524993Y-75818999D01*
X63522590Y-75788464D01*
X63523090Y-75786977D01*
X63524509Y-75786308D01*
X63764925Y-75777312D01*
X63766388Y-75777871D01*
G37*
G36*
X96710499Y-74827993D02*
G01*
X96797472Y-74821148D01*
X96798928Y-74821621D01*
X96799623Y-74822985D01*
X96799150Y-74824441D01*
X96727336Y-74908526D01*
X96651344Y-75032534D01*
X96649604Y-75033489D01*
X96647898Y-75032474D01*
X96647907Y-75030489D01*
X96693842Y-74950926D01*
X96637431Y-74833788D01*
X96532780Y-74818014D01*
X96531234Y-74816811D01*
X96531457Y-74814864D01*
X96533235Y-74814042D01*
X96710499Y-74827993D01*
G37*
G36*
X60705999Y-74827993D02*
G01*
X60792972Y-74821148D01*
X60794428Y-74821621D01*
X60795123Y-74822985D01*
X60794650Y-74824441D01*
X60722836Y-74908526D01*
X60646844Y-75032534D01*
X60645104Y-75033489D01*
X60643398Y-75032474D01*
X60643407Y-75030489D01*
X60689342Y-74950926D01*
X60632931Y-74833788D01*
X60528280Y-74818014D01*
X60526734Y-74816811D01*
X60526957Y-74814864D01*
X60528735Y-74814042D01*
X60705999Y-74827993D01*
G37*
G36*
X91809540Y-74814865D02*
G01*
X91809763Y-74816812D01*
X91808217Y-74818015D01*
X91703567Y-74833788D01*
X91647156Y-74950927D01*
X91693068Y-75030448D01*
X91693077Y-75032433D01*
X91691371Y-75033448D01*
X91689631Y-75032493D01*
X91613663Y-74908525D01*
X91541849Y-74824441D01*
X91541376Y-74822985D01*
X91542071Y-74821621D01*
X91543527Y-74821148D01*
X91630500Y-74827993D01*
X91807762Y-74814043D01*
X91809540Y-74814865D01*
G37*
G36*
X55805040Y-74814865D02*
G01*
X55805263Y-74816812D01*
X55803717Y-74818015D01*
X55699067Y-74833788D01*
X55642656Y-74950927D01*
X55688568Y-75030448D01*
X55688577Y-75032433D01*
X55686871Y-75033448D01*
X55685131Y-75032493D01*
X55609163Y-74908525D01*
X55537349Y-74824441D01*
X55536876Y-74822985D01*
X55537571Y-74821621D01*
X55539027Y-74821148D01*
X55626000Y-74827993D01*
X55803262Y-74814043D01*
X55805040Y-74814865D01*
G37*
G36*
X89723382Y-74146195D02*
G01*
X89722666Y-74148001D01*
X89645271Y-74211389D01*
X89741042Y-74389776D01*
X89835972Y-74360494D01*
X89837876Y-74360897D01*
X89838536Y-74362728D01*
X89837327Y-74364253D01*
X89657269Y-74438836D01*
X89450026Y-74565835D01*
X89299185Y-74694664D01*
X89297544Y-74695114D01*
X89296151Y-74694138D01*
X89198937Y-74524650D01*
X89121011Y-74548200D01*
X89119162Y-74547831D01*
X89118442Y-74546088D01*
X89119491Y-74544521D01*
X89125501Y-74541316D01*
X89720290Y-74144790D01*
X89722226Y-74144633D01*
X89723382Y-74146195D01*
G37*
G36*
X53718882Y-74146195D02*
G01*
X53718166Y-74148001D01*
X53640771Y-74211389D01*
X53736542Y-74389776D01*
X53831472Y-74360494D01*
X53833376Y-74360897D01*
X53834036Y-74362728D01*
X53832827Y-74364253D01*
X53652769Y-74438836D01*
X53445526Y-74565835D01*
X53294685Y-74694664D01*
X53293044Y-74695114D01*
X53291651Y-74694138D01*
X53194437Y-74524650D01*
X53116511Y-74548200D01*
X53114662Y-74547831D01*
X53113942Y-74546088D01*
X53114991Y-74544521D01*
X53121001Y-74541316D01*
X53715790Y-74144790D01*
X53717726Y-74144633D01*
X53718882Y-74146195D01*
G37*
G36*
X98043072Y-74065572D02*
G01*
X98043063Y-74067557D01*
X97997156Y-74147071D01*
X98053566Y-74264209D01*
X98158238Y-74279986D01*
X98159784Y-74281189D01*
X98159561Y-74283136D01*
X98157783Y-74283958D01*
X97980500Y-74270006D01*
X97893527Y-74276851D01*
X97892071Y-74276378D01*
X97891376Y-74275014D01*
X97891849Y-74273558D01*
X97963663Y-74189473D01*
X98039626Y-74065512D01*
X98041366Y-74064557D01*
X98043072Y-74065572D01*
G37*
G36*
X62038572Y-74065572D02*
G01*
X62038563Y-74067557D01*
X61992656Y-74147071D01*
X62049066Y-74264209D01*
X62153738Y-74279986D01*
X62155284Y-74281189D01*
X62155061Y-74283136D01*
X62153283Y-74283958D01*
X61976000Y-74270006D01*
X61889027Y-74276851D01*
X61887571Y-74276378D01*
X61886876Y-74275014D01*
X61887349Y-74273558D01*
X61959163Y-74189473D01*
X62035126Y-74065512D01*
X62036866Y-74064557D01*
X62038572Y-74065572D01*
G37*
G36*
X90301361Y-74065494D02*
G01*
X90377336Y-74189473D01*
X90449150Y-74273557D01*
X90449623Y-74275013D01*
X90448928Y-74276377D01*
X90447472Y-74276850D01*
X90360499Y-74270005D01*
X90183212Y-74283957D01*
X90181434Y-74283135D01*
X90181211Y-74281188D01*
X90182757Y-74279985D01*
X90287431Y-74264208D01*
X90343842Y-74147070D01*
X90297924Y-74067539D01*
X90297915Y-74065554D01*
X90299621Y-74064539D01*
X90301361Y-74065494D01*
G37*
G36*
X54296861Y-74065494D02*
G01*
X54372836Y-74189473D01*
X54444650Y-74273557D01*
X54445123Y-74275013D01*
X54444428Y-74276377D01*
X54442972Y-74276850D01*
X54355999Y-74270005D01*
X54178712Y-74283957D01*
X54176934Y-74283135D01*
X54176711Y-74281188D01*
X54178257Y-74279985D01*
X54282931Y-74264208D01*
X54339342Y-74147070D01*
X54293424Y-74067539D01*
X54293415Y-74065554D01*
X54295121Y-74064539D01*
X54296861Y-74065494D01*
G37*
G36*
X81736888Y-73364871D02*
G01*
X81737500Y-73366311D01*
X81737500Y-73445689D01*
X81736888Y-73447129D01*
X81735425Y-73447688D01*
X81495009Y-73438691D01*
X81493590Y-73438022D01*
X81493090Y-73436535D01*
X81495493Y-73405999D01*
X81493090Y-73375464D01*
X81493590Y-73373977D01*
X81495009Y-73373308D01*
X81735425Y-73364312D01*
X81736888Y-73364871D01*
G37*
G36*
X78676499Y-72414993D02*
G01*
X78763472Y-72408148D01*
X78764928Y-72408621D01*
X78765623Y-72409985D01*
X78765150Y-72411441D01*
X78693336Y-72495526D01*
X78617344Y-72619534D01*
X78615604Y-72620489D01*
X78613898Y-72619474D01*
X78613907Y-72617489D01*
X78659842Y-72537926D01*
X78603431Y-72420788D01*
X78498780Y-72405014D01*
X78497234Y-72403811D01*
X78497457Y-72401864D01*
X78499235Y-72401042D01*
X78676499Y-72414993D01*
G37*
G36*
X73775540Y-72401865D02*
G01*
X73775763Y-72403812D01*
X73774217Y-72405015D01*
X73669567Y-72420788D01*
X73613156Y-72537927D01*
X73659068Y-72617448D01*
X73659077Y-72619433D01*
X73657371Y-72620448D01*
X73655631Y-72619493D01*
X73579663Y-72495525D01*
X73507849Y-72411441D01*
X73507376Y-72409985D01*
X73508071Y-72408621D01*
X73509527Y-72408148D01*
X73596500Y-72414993D01*
X73773762Y-72401043D01*
X73775540Y-72401865D01*
G37*
G36*
X71689382Y-71733195D02*
G01*
X71688666Y-71735001D01*
X71611271Y-71798389D01*
X71707042Y-71976776D01*
X71801972Y-71947494D01*
X71803876Y-71947897D01*
X71804536Y-71949728D01*
X71803327Y-71951253D01*
X71623269Y-72025836D01*
X71416026Y-72152835D01*
X71265185Y-72281664D01*
X71263544Y-72282114D01*
X71262151Y-72281138D01*
X71164937Y-72111650D01*
X71087011Y-72135200D01*
X71085162Y-72134831D01*
X71084442Y-72133088D01*
X71085491Y-72131521D01*
X71091501Y-72128316D01*
X71686290Y-71731790D01*
X71688226Y-71731633D01*
X71689382Y-71733195D01*
G37*
G36*
X80009072Y-71652572D02*
G01*
X80009063Y-71654557D01*
X79963156Y-71734071D01*
X80019566Y-71851209D01*
X80124238Y-71866986D01*
X80125784Y-71868189D01*
X80125561Y-71870136D01*
X80123783Y-71870958D01*
X79946500Y-71857006D01*
X79859527Y-71863851D01*
X79858071Y-71863378D01*
X79857376Y-71862014D01*
X79857849Y-71860558D01*
X79929663Y-71776473D01*
X80005626Y-71652512D01*
X80007366Y-71651557D01*
X80009072Y-71652572D01*
G37*
G36*
X72267361Y-71652494D02*
G01*
X72343336Y-71776473D01*
X72415150Y-71860557D01*
X72415623Y-71862013D01*
X72414928Y-71863377D01*
X72413472Y-71863850D01*
X72326499Y-71857005D01*
X72149212Y-71870957D01*
X72147434Y-71870135D01*
X72147211Y-71868188D01*
X72148757Y-71866985D01*
X72253431Y-71851208D01*
X72309842Y-71734070D01*
X72263924Y-71654539D01*
X72263915Y-71652554D01*
X72265621Y-71651539D01*
X72267361Y-71652494D01*
G37*
M02*
