M48
; DRILL file {KiCad 7.0.1} date Tue Sep  3 10:56:30 2024
; FORMAT={-:-/ absolute / metric / decimal}
; #@! TF.CreationDate,2024-09-03T10:56:30+07:00
; #@! TF.GenerationSoftware,Kicad,Pcbnew,7.0.1
; #@! TF.FileFunction,Plated,1,2,PTH
FMAT,2
METRIC
; #@! TA.AperFunction,Plated,PTH,ViaDrill
T1C0.400
; #@! TA.AperFunction,Plated,PTH,ComponentDrill
T2C0.400
; #@! TA.AperFunction,Plated,PTH,ComponentDrill
T3C0.813
; #@! TA.AperFunction,Plated,PTH,ComponentDrill
T4C1.000
; #@! TA.AperFunction,Plated,PTH,ComponentDrill
T5C1.092
; #@! TA.AperFunction,Plated,PTH,ComponentDrill
T6C1.300
; #@! TA.AperFunction,Plated,PTH,ComponentDrill
T7C1.500
%
G90
G05
T1
X31.04Y-128.37
X31.72Y-78.26
X31.96Y-84.69
X32.27Y-128.13
X32.63Y-97.25
X33.075Y-114.594
X33.22Y-139.33
X33.27Y-101.65
X33.27Y-106.39
X33.46Y-117.69
X33.62Y-122.88
X33.73Y-143.72
X33.94Y-88.6
X34.17Y-121.13
X35.31Y-87.16
X35.46Y-149.51
X35.7Y-104.202
X35.7Y-119.9
X36.5Y-85.02
X36.84Y-128.825
X37.332Y-106.92
X37.78Y-125.69
X39.41Y-128.84
X42.32Y-89.95
X42.43Y-137.064
X42.65Y-119.09
X42.93Y-107.32
X43.04Y-109.84
X43.18Y-143.88
X43.9Y-91.74
X44.382Y-121.22
X44.56Y-88.56
X44.79Y-105.39
X44.83Y-150.11
X44.87Y-137.514
X45.12Y-122.62
X45.264Y-87.191
X46.15Y-142.544
X46.87Y-109.29
X47.664Y-142.56
X47.75Y-83.26
X48.229Y-128.755
X48.24Y-71.11
X48.47Y-78.43
X48.56Y-95.28
X48.73Y-117.2
X48.74Y-112.33
X49.45Y-139.88
X49.666Y-75.859
X49.666Y-92.813
X49.666Y-109.831
X51.085Y-102.791
X51.085Y-103.79
X51.485Y-84.36
X51.485Y-88.274
X52.11Y-114.28
X52.28Y-149.814
X52.534Y-103.785
X52.541Y-102.786
X52.64Y-117.794
X52.884Y-128.646
X52.92Y-121.31
X52.934Y-83.78
X52.934Y-88.29
X53.25Y-127.15
X53.3Y-143.284
X53.32Y-141.835
X53.9Y-99.38
X54.3Y-80.19
X55.92Y-138.05
X56.01Y-136.4
X57.7Y-120.77
X58.88Y-142.712
X58.91Y-140.25
X60.65Y-124.84
X61.27Y-80.28
X61.27Y-130.71
X62.11Y-147.56
X62.25Y-145.66
X62.416Y-117.794
X62.53Y-83.81
X62.95Y-100.61
X62.99Y-123.23
X63.18Y-116.394
X63.26Y-81.74
X63.45Y-130.9
X63.7Y-97.09
X63.77Y-133.35
X63.814Y-132.351
X63.97Y-121.665
X64.431Y-147.173
X64.58Y-101.02
X64.725Y-149.255
X65.53Y-79.79
X65.79Y-133.36
X65.841Y-132.362
X65.85Y-86.67
X66.0Y-126.53
X66.03Y-90.35
X66.1Y-103.06
X66.32Y-148.75
X66.33Y-73.52
X66.37Y-107.69
X66.37Y-135.32
X67.0Y-130.71
X67.08Y-121.07
X67.23Y-124.144
X67.636Y-73.446
X67.636Y-90.464
X67.7Y-107.482
X67.81Y-145.84
X68.16Y-100.67
X68.34Y-95.7
X68.43Y-93.58
X68.684Y-124.594
X69.11Y-146.3
X69.4Y-141.03
X69.43Y-149.98
X69.58Y-78.17
X70.06Y-143.04
X70.36Y-83.7
X70.36Y-112.26
X70.82Y-115.51
X70.92Y-81.42
X71.05Y-98.49
X71.53Y-118.51
X71.95Y-97.09
X72.54Y-126.42
X72.83Y-83.4
X72.94Y-93.85
X74.13Y-120.36
X74.94Y-90.16
X80.07Y-85.72
X80.41Y-82.63
X80.615Y-115.385
X80.89Y-143.05
X81.245Y-100.3
X81.433Y-114.093
X81.464Y-96.9
X81.78Y-79.79
X81.91Y-83.11
X82.5Y-111.9
X82.587Y-125.141
X82.674Y-124.145
X82.675Y-127.51
X82.694Y-99.3
X82.694Y-100.3
X82.75Y-116.035
X82.77Y-117.66
X82.77Y-121.665
X82.77Y-123.15
X83.37Y-133.15
X83.385Y-83.31
X83.56Y-79.69
X84.124Y-124.14
X84.124Y-125.14
X84.34Y-127.55
X84.44Y-88.08
X84.48Y-70.94
X84.49Y-105.17
X85.67Y-75.859
X85.67Y-92.877
X85.67Y-109.831
X86.89Y-129.45
X87.06Y-112.2
X88.004Y-136.673
X88.15Y-125.65
X88.59Y-144.98
X88.86Y-82.39
X89.16Y-100.776
X89.419Y-147.698
X89.74Y-116.33
X89.78Y-144.05
X89.94Y-99.376
X90.27Y-120.71
X90.294Y-126.793
X90.36Y-127.79
X90.69Y-150.1
X92.35Y-126.79
X92.35Y-127.79
X95.76Y-120.31
X98.484Y-116.394
X98.62Y-129.99
X98.68Y-83.81
X98.71Y-100.74
X99.2Y-117.794
X99.385Y-147.365
X99.47Y-82.41
X99.75Y-125.61
X100.121Y-124.054
X100.18Y-149.51
X100.94Y-121.62
X100.99Y-123.56
X101.15Y-99.02
X101.483Y-103.595
X101.69Y-86.675
X101.724Y-124.239
X101.93Y-125.605
X101.95Y-145.29
X102.47Y-90.37
X102.58Y-107.4
X102.59Y-73.55
X102.83Y-152.46
X103.641Y-78.272
X103.641Y-95.227
X103.641Y-112.244
X104.195Y-134.16
X104.93Y-139.07
X105.644Y-129.49
X105.73Y-134.15
X106.09Y-99.26
X106.17Y-142.61
X106.641Y-129.412
X106.65Y-122.34
X106.77Y-103.17
X107.48Y-84.8
X107.54Y-126.93
X107.71Y-101.77
X107.75Y-118.88
X107.92Y-132.42
X109.706Y-128.57
X109.706Y-130.56
X110.16Y-147.35
X110.382Y-142.374
X110.42Y-145.22
X110.729Y-138.301
X112.63Y-124.57
X113.77Y-144.735
X115.46Y-153.89
X116.585Y-121.25
X116.88Y-86.75
X117.01Y-102.81
X117.22Y-99.71
X117.31Y-121.94
X117.6Y-84.82
X118.71Y-117.36
X119.13Y-104.01
X119.14Y-148.59
X119.341Y-109.644
X120.3Y-75.79
X120.49Y-92.9
X121.95Y-137.45
X125.04Y-133.48
X126.29Y-144.55
X126.4Y-137.11
T2
X47.1Y-85.79
X47.1Y-89.19
X47.35Y-102.36
X47.35Y-105.76
X48.23Y-121.66
X48.23Y-125.06
X49.01Y-85.79
X49.01Y-89.19
X49.28Y-102.34
X49.28Y-105.74
X50.25Y-121.62
X50.25Y-125.02
X73.58Y-149.03
X76.98Y-149.03
X84.48Y-98.41
X84.48Y-101.81
X84.59Y-116.76
X84.59Y-120.16
X84.72Y-81.65
X84.72Y-85.05
X86.38Y-98.42
X86.38Y-101.82
X86.5Y-116.7
X86.5Y-120.1
X86.5Y-143.26
X86.5Y-146.66
X86.68Y-81.63
X86.68Y-85.03
X104.23Y-119.18
X104.23Y-122.58
X104.38Y-100.92
X104.38Y-104.32
X104.53Y-84.0
X104.53Y-87.4
X105.35Y-146.03
X105.35Y-149.43
T3
X63.79Y-136.32
X63.79Y-138.86
X63.79Y-141.4
X63.79Y-143.94
T4
X72.41Y-130.81
X72.41Y-145.31
X74.91Y-145.31
X77.41Y-130.81
X77.41Y-145.31
T5
X31.7Y-131.371
X31.7Y-147.069
X34.24Y-131.829
X34.24Y-146.611
X36.78Y-131.371
X36.78Y-147.069
X39.32Y-131.829
X39.32Y-146.611
X41.86Y-131.371
X41.86Y-147.069
X44.4Y-131.829
X44.4Y-146.611
X46.94Y-131.371
X46.94Y-147.069
X49.48Y-131.829
X49.48Y-146.611
X52.02Y-131.371
X52.02Y-147.069
X54.56Y-131.829
X54.56Y-146.611
X57.1Y-131.371
X57.1Y-147.069
X59.64Y-131.829
X59.64Y-146.611
T6
X37.07Y-139.9
X43.57Y-139.9
T4
X114.52Y-127.19G85X114.02Y-127.19
G05
X114.52Y-129.64G85X114.02Y-129.64
G05
X116.02Y-125.44G85X115.52Y-125.44
G05
X116.02Y-131.39G85X115.52Y-131.39
G05
X120.02Y-125.44G85X119.52Y-125.44
G05
X120.02Y-131.39G85X119.52Y-131.39
G05
X123.02Y-125.44G85X122.52Y-125.44
G05
X123.02Y-131.39G85X122.52Y-131.39
G05
T7
X69.31Y-138.46G85X69.31Y-137.16
G05
X80.51Y-138.46G85X80.51Y-137.16
G05
T0
M30
