G04 #@! TF.GenerationSoftware,KiCad,Pcbnew,7.0.1*
G04 #@! TF.CreationDate,2024-09-03T10:56:34+07:00*
G04 #@! TF.ProjectId,minikeeb,6d696e69-6b65-4656-922e-6b696361645f,rev?*
G04 #@! TF.SameCoordinates,Original*
G04 #@! TF.FileFunction,Paste,Bot*
G04 #@! TF.FilePolarity,Positive*
%FSLAX46Y46*%
G04 Gerber Fmt 4.6, Leading zero omitted, Abs format (unit mm)*
G04 Created by KiCad (PCBNEW 7.0.1) date 2024-09-03 10:56:34*
%MOMM*%
%LPD*%
G01*
G04 APERTURE LIST*
G04 Aperture macros list*
%AMRotRect*
0 Rectangle, with rotation*
0 The origin of the aperture is its center*
0 $1 length*
0 $2 width*
0 $3 Rotation angle, in degrees counterclockwise*
0 Add horizontal line*
21,1,$1,$2,0,0,$3*%
%AMFreePoly0*
4,1,17,2.735355,1.235355,2.750000,1.200000,2.750000,-1.200000,2.735355,-1.235355,2.700000,-1.250000,0.300000,-1.250000,0.264645,-1.235355,0.250000,-1.200000,0.250000,-0.750000,-0.350000,-0.750000,-0.350000,0.750000,0.250000,0.750000,0.250000,1.200000,0.264645,1.235355,0.300000,1.250000,2.700000,1.250000,2.735355,1.235355,2.735355,1.235355,$1*%
%AMFreePoly1*
4,1,24,-0.364645,1.235355,-0.350000,1.200000,-0.350000,0.750000,0.350000,0.750000,0.350000,-0.750000,-0.350000,-0.750000,-0.350000,-1.200000,-0.364645,-1.235355,-0.400000,-1.250000,-2.300000,-1.250000,-2.315317,-1.243655,-2.331235,-1.239043,-2.831235,-0.839043,-2.832648,-0.836476,-2.835355,-0.835355,-2.841697,-0.820043,-2.849694,-0.805522,-2.848878,-0.802707,-2.850000,-0.800000,-2.850000,1.200000,
-2.835355,1.235355,-2.800000,1.250000,-0.400000,1.250000,-0.364645,1.235355,-0.364645,1.235355,$1*%
G04 Aperture macros list end*
%ADD10FreePoly0,0.000000*%
%ADD11FreePoly1,0.000000*%
%ADD12FreePoly0,345.000000*%
%ADD13FreePoly1,345.000000*%
%ADD14FreePoly0,330.000000*%
%ADD15FreePoly1,330.000000*%
%ADD16R,1.700000X0.825000*%
%ADD17R,0.635000X1.143000*%
%ADD18RotRect,1.700000X0.825000X150.000000*%
%ADD19RotRect,1.700000X0.825000X165.000000*%
G04 APERTURE END LIST*
D10*
X103641000Y-95226500D03*
D11*
X119341000Y-92626500D03*
D10*
X85670500Y-109831500D03*
D11*
X101370500Y-107231500D03*
D10*
X103641000Y-112244500D03*
D11*
X119341000Y-109644500D03*
D12*
X88004178Y-136672724D03*
D13*
X103842143Y-138224775D03*
D10*
X49666000Y-109831500D03*
D11*
X65366000Y-107231500D03*
D10*
X67636500Y-90464000D03*
D11*
X83336500Y-87864000D03*
D10*
X31632000Y-114594000D03*
D11*
X47332000Y-111994000D03*
D14*
X110728784Y-138301436D03*
D15*
X125625383Y-143899770D03*
D10*
X103641000Y-78272000D03*
D11*
X119341000Y-75672000D03*
D10*
X67636500Y-73446000D03*
D11*
X83336500Y-70846000D03*
D10*
X85670500Y-75859000D03*
D11*
X101370500Y-73259000D03*
D10*
X31632000Y-80621500D03*
D11*
X47332000Y-78021500D03*
D10*
X67700000Y-107482000D03*
D11*
X83400000Y-104882000D03*
D10*
X31632000Y-97576000D03*
D11*
X47332000Y-94976000D03*
D10*
X49666000Y-75859000D03*
D11*
X65366000Y-73259000D03*
D10*
X85670500Y-92877000D03*
D11*
X101370500Y-90277000D03*
D10*
X49666000Y-92813500D03*
D11*
X65366000Y-90213500D03*
D10*
X66370000Y-135320000D03*
D11*
X82070000Y-132720000D03*
D16*
X91434000Y-99376000D03*
X91434000Y-100776000D03*
X97034000Y-100776000D03*
X97034000Y-99376000D03*
X42920000Y-88560000D03*
X42920000Y-87160000D03*
X37320000Y-87160000D03*
X37320000Y-88560000D03*
X72170000Y-141640000D03*
X72170000Y-143040000D03*
X77770000Y-143040000D03*
X77770000Y-141640000D03*
X37332000Y-104202000D03*
X37332000Y-105602000D03*
X42932000Y-105602000D03*
X42932000Y-104202000D03*
D17*
X108820380Y-130550000D03*
X107819620Y-130550000D03*
X59860000Y-136340000D03*
X58859240Y-136340000D03*
D18*
X112475129Y-146833782D03*
X111775129Y-148046218D03*
X116624871Y-150846218D03*
X117324871Y-149633782D03*
D17*
X59890380Y-141550000D03*
X58889620Y-141550000D03*
D16*
X115068000Y-120334000D03*
X115068000Y-118934000D03*
X109468000Y-118934000D03*
X109468000Y-120334000D03*
X55118000Y-126362000D03*
X55118000Y-127762000D03*
X60718000Y-127762000D03*
X60718000Y-126362000D03*
X73400000Y-97090000D03*
X73400000Y-98490000D03*
X79000000Y-98490000D03*
X79000000Y-97090000D03*
X97034000Y-117794000D03*
X97034000Y-116394000D03*
X91434000Y-116394000D03*
X91434000Y-117794000D03*
D17*
X108840380Y-128540000D03*
X107839620Y-128540000D03*
X59910380Y-138950000D03*
X58909620Y-138950000D03*
D16*
X79000000Y-115510000D03*
X79000000Y-114110000D03*
X73400000Y-114110000D03*
X73400000Y-115510000D03*
X42930000Y-122620000D03*
X42930000Y-121220000D03*
X37330000Y-121220000D03*
X37330000Y-122620000D03*
X55370000Y-99380000D03*
X55370000Y-100780000D03*
X60970000Y-100780000D03*
X60970000Y-99380000D03*
X97002500Y-83810000D03*
X97002500Y-82410000D03*
X91402500Y-82410000D03*
X91402500Y-83810000D03*
X60950000Y-83810000D03*
X60950000Y-82410000D03*
X55350000Y-82410000D03*
X55350000Y-83810000D03*
D19*
X91710581Y-144395159D03*
X91348234Y-145747455D03*
X96757419Y-147196841D03*
X97119766Y-145844545D03*
D17*
X59910000Y-144100000D03*
X58909240Y-144100000D03*
D16*
X114930000Y-86220000D03*
X114930000Y-84820000D03*
X109330000Y-84820000D03*
X109330000Y-86220000D03*
X60966000Y-117794000D03*
X60966000Y-116394000D03*
X55366000Y-116394000D03*
X55366000Y-117794000D03*
X78950000Y-81420000D03*
X78950000Y-80020000D03*
X73350000Y-80020000D03*
X73350000Y-81420000D03*
X109327500Y-101770000D03*
X109327500Y-103170000D03*
X114927500Y-103170000D03*
X114927500Y-101770000D03*
M02*
