G04 #@! TF.GenerationSoftware,KiCad,Pcbnew,7.0.1*
G04 #@! TF.CreationDate,2025-01-02T13:45:11+07:00*
G04 #@! TF.ProjectId,minikeeb,6d696e69-6b65-4656-922e-6b696361645f,rev?*
G04 #@! TF.SameCoordinates,Original*
G04 #@! TF.FileFunction,Paste,Bot*
G04 #@! TF.FilePolarity,Positive*
%FSLAX46Y46*%
G04 Gerber Fmt 4.6, Leading zero omitted, Abs format (unit mm)*
G04 Created by KiCad (PCBNEW 7.0.1) date 2025-01-02 13:45:11*
%MOMM*%
%LPD*%
G01*
G04 APERTURE LIST*
G04 Aperture macros list*
%AMRotRect*
0 Rectangle, with rotation*
0 The origin of the aperture is its center*
0 $1 length*
0 $2 width*
0 $3 Rotation angle, in degrees counterclockwise*
0 Add horizontal line*
21,1,$1,$2,0,0,$3*%
%AMFreePoly0*
4,1,17,2.735355,1.235355,2.750000,1.200000,2.750000,-1.200000,2.735355,-1.235355,2.700000,-1.250000,0.300000,-1.250000,0.264645,-1.235355,0.250000,-1.200000,0.250000,-0.750000,-0.350000,-0.750000,-0.350000,0.750000,0.250000,0.750000,0.250000,1.200000,0.264645,1.235355,0.300000,1.250000,2.700000,1.250000,2.735355,1.235355,2.735355,1.235355,$1*%
%AMFreePoly1*
4,1,24,-0.364645,1.235355,-0.350000,1.200000,-0.350000,0.750000,0.350000,0.750000,0.350000,-0.750000,-0.350000,-0.750000,-0.350000,-1.200000,-0.364645,-1.235355,-0.400000,-1.250000,-2.300000,-1.250000,-2.315317,-1.243655,-2.331235,-1.239043,-2.831235,-0.839043,-2.832648,-0.836476,-2.835355,-0.835355,-2.841697,-0.820043,-2.849694,-0.805522,-2.848878,-0.802707,-2.850000,-0.800000,-2.850000,1.200000,
-2.835355,1.235355,-2.800000,1.250000,-0.400000,1.250000,-0.364645,1.235355,-0.364645,1.235355,$1*%
G04 Aperture macros list end*
%ADD10FreePoly0,0.000000*%
%ADD11FreePoly1,0.000000*%
%ADD12FreePoly0,345.000000*%
%ADD13FreePoly1,345.000000*%
%ADD14FreePoly0,330.000000*%
%ADD15FreePoly1,330.000000*%
%ADD16R,1.700000X0.825000*%
%ADD17R,0.635000X1.143000*%
%ADD18RotRect,1.700000X0.825000X150.000000*%
%ADD19RotRect,1.700000X0.825000X165.000000*%
G04 APERTURE END LIST*
D10*
X107960000Y-97580000D03*
D11*
X123660000Y-94980000D03*
D10*
X88710000Y-113830000D03*
D11*
X104410000Y-111230000D03*
D10*
X107960000Y-116580000D03*
D11*
X123660000Y-113980000D03*
D12*
X88916678Y-138745224D03*
D13*
X104754643Y-140297275D03*
D10*
X50810000Y-113790001D03*
D11*
X66510000Y-111190001D03*
D10*
X69750000Y-92500000D03*
D11*
X85450000Y-89900000D03*
D10*
X31632000Y-118650000D03*
D11*
X47332000Y-116050000D03*
D14*
X111368784Y-140694936D03*
D15*
X126265383Y-146293270D03*
D10*
X107960000Y-78580000D03*
D11*
X123660000Y-75980000D03*
D10*
X69700000Y-73600000D03*
D11*
X85400000Y-71000000D03*
D10*
X88790000Y-75859000D03*
D11*
X104490000Y-73259000D03*
D10*
X31632000Y-80621500D03*
D11*
X47332000Y-78021500D03*
D10*
X69790000Y-111580000D03*
D11*
X85490000Y-108980000D03*
D10*
X31632000Y-99600000D03*
D11*
X47332000Y-97000000D03*
D10*
X50700000Y-75850000D03*
D11*
X66400000Y-73250000D03*
D10*
X88750000Y-94750000D03*
D11*
X104450000Y-92150000D03*
D10*
X50750000Y-94790001D03*
D11*
X66450000Y-92190001D03*
D10*
X66900000Y-137110000D03*
D11*
X82600000Y-134510000D03*
D16*
X94300000Y-101100000D03*
X94300000Y-102500000D03*
X99900000Y-102500000D03*
X99900000Y-101100000D03*
X42920000Y-88560000D03*
X42920000Y-87160000D03*
X37320000Y-87160000D03*
X37320000Y-88560000D03*
X72150000Y-143500000D03*
X72150000Y-144900000D03*
X77750000Y-144900000D03*
X77750000Y-143500000D03*
X37400000Y-105800000D03*
X37400000Y-107200000D03*
X43000000Y-107200000D03*
X43000000Y-105800000D03*
D17*
X108800380Y-132410000D03*
X107799620Y-132410000D03*
X59840000Y-138200000D03*
X58839240Y-138200000D03*
D18*
X112455129Y-148693782D03*
X111755129Y-149906218D03*
X116604871Y-152706218D03*
X117304871Y-151493782D03*
D17*
X59870380Y-143410000D03*
X58869620Y-143410000D03*
D16*
X119300000Y-124200000D03*
X119300000Y-122800000D03*
X113700000Y-122800000D03*
X113700000Y-124200000D03*
X57087500Y-128100000D03*
X57087500Y-129500000D03*
X62687500Y-129500000D03*
X62687500Y-128100000D03*
X75500000Y-99200000D03*
X75500000Y-100600000D03*
X81100000Y-100600000D03*
X81100000Y-99200000D03*
X100100000Y-121600000D03*
X100100000Y-120200000D03*
X94500000Y-120200000D03*
X94500000Y-121600000D03*
D17*
X108840380Y-128540000D03*
X107839620Y-128540000D03*
X59890380Y-140810000D03*
X58889620Y-140810000D03*
D16*
X81112500Y-119400000D03*
X81112500Y-118000000D03*
X75512500Y-118000000D03*
X75512500Y-119400000D03*
X42900000Y-126500000D03*
X42900000Y-125100000D03*
X37300000Y-125100000D03*
X37300000Y-126500000D03*
X56387500Y-101200000D03*
X56387500Y-102600000D03*
X61987500Y-102600000D03*
X61987500Y-101200000D03*
X100000000Y-83800000D03*
X100000000Y-82400000D03*
X94400000Y-82400000D03*
X94400000Y-83800000D03*
X61900000Y-83800000D03*
X61900000Y-82400000D03*
X56300000Y-82400000D03*
X56300000Y-83800000D03*
D19*
X91690581Y-146255159D03*
X91328234Y-147607455D03*
X96737419Y-149056841D03*
X97099766Y-147704545D03*
D17*
X59890000Y-145960000D03*
X58889240Y-145960000D03*
D16*
X119200000Y-86220000D03*
X119200000Y-84820000D03*
X113600000Y-84820000D03*
X113600000Y-86220000D03*
X62200000Y-121600000D03*
X62200000Y-120200000D03*
X56600000Y-120200000D03*
X56600000Y-121600000D03*
X80800000Y-81500000D03*
X80800000Y-80100000D03*
X75200000Y-80100000D03*
X75200000Y-81500000D03*
X113800000Y-104100000D03*
X113800000Y-105500000D03*
X119400000Y-105500000D03*
X119400000Y-104100000D03*
M02*
