G04 #@! TF.GenerationSoftware,KiCad,Pcbnew,7.0.1*
G04 #@! TF.CreationDate,2024-09-03T10:19:57+07:00*
G04 #@! TF.ProjectId,minikeeb,6d696e69-6b65-4656-922e-6b696361645f,rev?*
G04 #@! TF.SameCoordinates,Original*
G04 #@! TF.FileFunction,Legend,Bot*
G04 #@! TF.FilePolarity,Positive*
%FSLAX46Y46*%
G04 Gerber Fmt 4.6, Leading zero omitted, Abs format (unit mm)*
G04 Created by KiCad (PCBNEW 7.0.1) date 2024-09-03 10:19:57*
%MOMM*%
%LPD*%
G01*
G04 APERTURE LIST*
%ADD10C,0.150000*%
%ADD11C,0.100000*%
%ADD12C,0.381000*%
%ADD13C,0.120000*%
%ADD14C,0.050000*%
%ADD15C,1.752600*%
%ADD16R,1.752600X1.752600*%
G04 APERTURE END LIST*
D10*
X40571904Y-143140095D02*
X40838571Y-142759142D01*
X41029047Y-143140095D02*
X41029047Y-142340095D01*
X41029047Y-142340095D02*
X40724285Y-142340095D01*
X40724285Y-142340095D02*
X40648095Y-142378190D01*
X40648095Y-142378190D02*
X40610000Y-142416285D01*
X40610000Y-142416285D02*
X40571904Y-142492476D01*
X40571904Y-142492476D02*
X40571904Y-142606761D01*
X40571904Y-142606761D02*
X40610000Y-142682952D01*
X40610000Y-142682952D02*
X40648095Y-142721047D01*
X40648095Y-142721047D02*
X40724285Y-142759142D01*
X40724285Y-142759142D02*
X41029047Y-142759142D01*
X40229047Y-142721047D02*
X39962381Y-142721047D01*
X39848095Y-143140095D02*
X40229047Y-143140095D01*
X40229047Y-143140095D02*
X40229047Y-142340095D01*
X40229047Y-142340095D02*
X39848095Y-142340095D01*
X39543333Y-143102000D02*
X39429047Y-143140095D01*
X39429047Y-143140095D02*
X39238571Y-143140095D01*
X39238571Y-143140095D02*
X39162380Y-143102000D01*
X39162380Y-143102000D02*
X39124285Y-143063904D01*
X39124285Y-143063904D02*
X39086190Y-142987714D01*
X39086190Y-142987714D02*
X39086190Y-142911523D01*
X39086190Y-142911523D02*
X39124285Y-142835333D01*
X39124285Y-142835333D02*
X39162380Y-142797238D01*
X39162380Y-142797238D02*
X39238571Y-142759142D01*
X39238571Y-142759142D02*
X39390952Y-142721047D01*
X39390952Y-142721047D02*
X39467142Y-142682952D01*
X39467142Y-142682952D02*
X39505237Y-142644857D01*
X39505237Y-142644857D02*
X39543333Y-142568666D01*
X39543333Y-142568666D02*
X39543333Y-142492476D01*
X39543333Y-142492476D02*
X39505237Y-142416285D01*
X39505237Y-142416285D02*
X39467142Y-142378190D01*
X39467142Y-142378190D02*
X39390952Y-142340095D01*
X39390952Y-142340095D02*
X39200475Y-142340095D01*
X39200475Y-142340095D02*
X39086190Y-142378190D01*
X38743332Y-142721047D02*
X38476666Y-142721047D01*
X38362380Y-143140095D02*
X38743332Y-143140095D01*
X38743332Y-143140095D02*
X38743332Y-142340095D01*
X38743332Y-142340095D02*
X38362380Y-142340095D01*
X38133808Y-142340095D02*
X37676665Y-142340095D01*
X37905237Y-143140095D02*
X37905237Y-142340095D01*
X59591047Y-133435190D02*
X59629142Y-133549476D01*
X59629142Y-133549476D02*
X59667238Y-133587571D01*
X59667238Y-133587571D02*
X59743428Y-133625667D01*
X59743428Y-133625667D02*
X59857714Y-133625667D01*
X59857714Y-133625667D02*
X59933904Y-133587571D01*
X59933904Y-133587571D02*
X59972000Y-133549476D01*
X59972000Y-133549476D02*
X60010095Y-133473286D01*
X60010095Y-133473286D02*
X60010095Y-133168524D01*
X60010095Y-133168524D02*
X59210095Y-133168524D01*
X59210095Y-133168524D02*
X59210095Y-133435190D01*
X59210095Y-133435190D02*
X59248190Y-133511381D01*
X59248190Y-133511381D02*
X59286285Y-133549476D01*
X59286285Y-133549476D02*
X59362476Y-133587571D01*
X59362476Y-133587571D02*
X59438666Y-133587571D01*
X59438666Y-133587571D02*
X59514857Y-133549476D01*
X59514857Y-133549476D02*
X59552952Y-133511381D01*
X59552952Y-133511381D02*
X59591047Y-133435190D01*
X59591047Y-133435190D02*
X59591047Y-133168524D01*
X59210095Y-134349476D02*
X59210095Y-133968524D01*
X59210095Y-133968524D02*
X59591047Y-133930428D01*
X59591047Y-133930428D02*
X59552952Y-133968524D01*
X59552952Y-133968524D02*
X59514857Y-134044714D01*
X59514857Y-134044714D02*
X59514857Y-134235190D01*
X59514857Y-134235190D02*
X59552952Y-134311381D01*
X59552952Y-134311381D02*
X59591047Y-134349476D01*
X59591047Y-134349476D02*
X59667238Y-134387571D01*
X59667238Y-134387571D02*
X59857714Y-134387571D01*
X59857714Y-134387571D02*
X59933904Y-134349476D01*
X59933904Y-134349476D02*
X59972000Y-134311381D01*
X59972000Y-134311381D02*
X60010095Y-134235190D01*
X60010095Y-134235190D02*
X60010095Y-134044714D01*
X60010095Y-134044714D02*
X59972000Y-133968524D01*
X59972000Y-133968524D02*
X59933904Y-133930428D01*
X54511047Y-133206619D02*
X54511047Y-133473285D01*
X54930095Y-133587571D02*
X54930095Y-133206619D01*
X54930095Y-133206619D02*
X54130095Y-133206619D01*
X54130095Y-133206619D02*
X54130095Y-133587571D01*
X54130095Y-134273286D02*
X54130095Y-134120905D01*
X54130095Y-134120905D02*
X54168190Y-134044714D01*
X54168190Y-134044714D02*
X54206285Y-134006619D01*
X54206285Y-134006619D02*
X54320571Y-133930429D01*
X54320571Y-133930429D02*
X54472952Y-133892333D01*
X54472952Y-133892333D02*
X54777714Y-133892333D01*
X54777714Y-133892333D02*
X54853904Y-133930429D01*
X54853904Y-133930429D02*
X54892000Y-133968524D01*
X54892000Y-133968524D02*
X54930095Y-134044714D01*
X54930095Y-134044714D02*
X54930095Y-134197095D01*
X54930095Y-134197095D02*
X54892000Y-134273286D01*
X54892000Y-134273286D02*
X54853904Y-134311381D01*
X54853904Y-134311381D02*
X54777714Y-134349476D01*
X54777714Y-134349476D02*
X54587238Y-134349476D01*
X54587238Y-134349476D02*
X54511047Y-134311381D01*
X54511047Y-134311381D02*
X54472952Y-134273286D01*
X54472952Y-134273286D02*
X54434857Y-134197095D01*
X54434857Y-134197095D02*
X54434857Y-134044714D01*
X54434857Y-134044714D02*
X54472952Y-133968524D01*
X54472952Y-133968524D02*
X54511047Y-133930429D01*
X54511047Y-133930429D02*
X54587238Y-133892333D01*
X52390095Y-133168524D02*
X51590095Y-133168524D01*
X51590095Y-133168524D02*
X51590095Y-133359000D01*
X51590095Y-133359000D02*
X51628190Y-133473286D01*
X51628190Y-133473286D02*
X51704380Y-133549476D01*
X51704380Y-133549476D02*
X51780571Y-133587571D01*
X51780571Y-133587571D02*
X51932952Y-133625667D01*
X51932952Y-133625667D02*
X52047238Y-133625667D01*
X52047238Y-133625667D02*
X52199619Y-133587571D01*
X52199619Y-133587571D02*
X52275809Y-133549476D01*
X52275809Y-133549476D02*
X52352000Y-133473286D01*
X52352000Y-133473286D02*
X52390095Y-133359000D01*
X52390095Y-133359000D02*
X52390095Y-133168524D01*
X51590095Y-133892333D02*
X51590095Y-134425667D01*
X51590095Y-134425667D02*
X52390095Y-134082809D01*
X49773904Y-133625667D02*
X49812000Y-133587571D01*
X49812000Y-133587571D02*
X49850095Y-133473286D01*
X49850095Y-133473286D02*
X49850095Y-133397095D01*
X49850095Y-133397095D02*
X49812000Y-133282809D01*
X49812000Y-133282809D02*
X49735809Y-133206619D01*
X49735809Y-133206619D02*
X49659619Y-133168524D01*
X49659619Y-133168524D02*
X49507238Y-133130428D01*
X49507238Y-133130428D02*
X49392952Y-133130428D01*
X49392952Y-133130428D02*
X49240571Y-133168524D01*
X49240571Y-133168524D02*
X49164380Y-133206619D01*
X49164380Y-133206619D02*
X49088190Y-133282809D01*
X49088190Y-133282809D02*
X49050095Y-133397095D01*
X49050095Y-133397095D02*
X49050095Y-133473286D01*
X49050095Y-133473286D02*
X49088190Y-133587571D01*
X49088190Y-133587571D02*
X49126285Y-133625667D01*
X49050095Y-134311381D02*
X49050095Y-134159000D01*
X49050095Y-134159000D02*
X49088190Y-134082809D01*
X49088190Y-134082809D02*
X49126285Y-134044714D01*
X49126285Y-134044714D02*
X49240571Y-133968524D01*
X49240571Y-133968524D02*
X49392952Y-133930428D01*
X49392952Y-133930428D02*
X49697714Y-133930428D01*
X49697714Y-133930428D02*
X49773904Y-133968524D01*
X49773904Y-133968524D02*
X49812000Y-134006619D01*
X49812000Y-134006619D02*
X49850095Y-134082809D01*
X49850095Y-134082809D02*
X49850095Y-134235190D01*
X49850095Y-134235190D02*
X49812000Y-134311381D01*
X49812000Y-134311381D02*
X49773904Y-134349476D01*
X49773904Y-134349476D02*
X49697714Y-134387571D01*
X49697714Y-134387571D02*
X49507238Y-134387571D01*
X49507238Y-134387571D02*
X49431047Y-134349476D01*
X49431047Y-134349476D02*
X49392952Y-134311381D01*
X49392952Y-134311381D02*
X49354857Y-134235190D01*
X49354857Y-134235190D02*
X49354857Y-134082809D01*
X49354857Y-134082809D02*
X49392952Y-134006619D01*
X49392952Y-134006619D02*
X49431047Y-133968524D01*
X49431047Y-133968524D02*
X49507238Y-133930428D01*
X44770095Y-133168524D02*
X43970095Y-133168524D01*
X43970095Y-133168524D02*
X43970095Y-133359000D01*
X43970095Y-133359000D02*
X44008190Y-133473286D01*
X44008190Y-133473286D02*
X44084380Y-133549476D01*
X44084380Y-133549476D02*
X44160571Y-133587571D01*
X44160571Y-133587571D02*
X44312952Y-133625667D01*
X44312952Y-133625667D02*
X44427238Y-133625667D01*
X44427238Y-133625667D02*
X44579619Y-133587571D01*
X44579619Y-133587571D02*
X44655809Y-133549476D01*
X44655809Y-133549476D02*
X44732000Y-133473286D01*
X44732000Y-133473286D02*
X44770095Y-133359000D01*
X44770095Y-133359000D02*
X44770095Y-133168524D01*
X43970095Y-134120905D02*
X43970095Y-134197095D01*
X43970095Y-134197095D02*
X44008190Y-134273286D01*
X44008190Y-134273286D02*
X44046285Y-134311381D01*
X44046285Y-134311381D02*
X44122476Y-134349476D01*
X44122476Y-134349476D02*
X44274857Y-134387571D01*
X44274857Y-134387571D02*
X44465333Y-134387571D01*
X44465333Y-134387571D02*
X44617714Y-134349476D01*
X44617714Y-134349476D02*
X44693904Y-134311381D01*
X44693904Y-134311381D02*
X44732000Y-134273286D01*
X44732000Y-134273286D02*
X44770095Y-134197095D01*
X44770095Y-134197095D02*
X44770095Y-134120905D01*
X44770095Y-134120905D02*
X44732000Y-134044714D01*
X44732000Y-134044714D02*
X44693904Y-134006619D01*
X44693904Y-134006619D02*
X44617714Y-133968524D01*
X44617714Y-133968524D02*
X44465333Y-133930428D01*
X44465333Y-133930428D02*
X44274857Y-133930428D01*
X44274857Y-133930428D02*
X44122476Y-133968524D01*
X44122476Y-133968524D02*
X44046285Y-134006619D01*
X44046285Y-134006619D02*
X44008190Y-134044714D01*
X44008190Y-134044714D02*
X43970095Y-134120905D01*
X57051047Y-133435190D02*
X57089142Y-133549476D01*
X57089142Y-133549476D02*
X57127238Y-133587571D01*
X57127238Y-133587571D02*
X57203428Y-133625667D01*
X57203428Y-133625667D02*
X57317714Y-133625667D01*
X57317714Y-133625667D02*
X57393904Y-133587571D01*
X57393904Y-133587571D02*
X57432000Y-133549476D01*
X57432000Y-133549476D02*
X57470095Y-133473286D01*
X57470095Y-133473286D02*
X57470095Y-133168524D01*
X57470095Y-133168524D02*
X56670095Y-133168524D01*
X56670095Y-133168524D02*
X56670095Y-133435190D01*
X56670095Y-133435190D02*
X56708190Y-133511381D01*
X56708190Y-133511381D02*
X56746285Y-133549476D01*
X56746285Y-133549476D02*
X56822476Y-133587571D01*
X56822476Y-133587571D02*
X56898666Y-133587571D01*
X56898666Y-133587571D02*
X56974857Y-133549476D01*
X56974857Y-133549476D02*
X57012952Y-133511381D01*
X57012952Y-133511381D02*
X57051047Y-133435190D01*
X57051047Y-133435190D02*
X57051047Y-133168524D01*
X56936761Y-134311381D02*
X57470095Y-134311381D01*
X56632000Y-134120905D02*
X57203428Y-133930428D01*
X57203428Y-133930428D02*
X57203428Y-134425667D01*
X47310095Y-133168524D02*
X46510095Y-133168524D01*
X46510095Y-133168524D02*
X46510095Y-133359000D01*
X46510095Y-133359000D02*
X46548190Y-133473286D01*
X46548190Y-133473286D02*
X46624380Y-133549476D01*
X46624380Y-133549476D02*
X46700571Y-133587571D01*
X46700571Y-133587571D02*
X46852952Y-133625667D01*
X46852952Y-133625667D02*
X46967238Y-133625667D01*
X46967238Y-133625667D02*
X47119619Y-133587571D01*
X47119619Y-133587571D02*
X47195809Y-133549476D01*
X47195809Y-133549476D02*
X47272000Y-133473286D01*
X47272000Y-133473286D02*
X47310095Y-133359000D01*
X47310095Y-133359000D02*
X47310095Y-133168524D01*
X46776761Y-134311381D02*
X47310095Y-134311381D01*
X46472000Y-134120905D02*
X47043428Y-133930428D01*
X47043428Y-133930428D02*
X47043428Y-134425667D01*
X38890095Y-143614333D02*
X39690095Y-143881000D01*
X39690095Y-143881000D02*
X38890095Y-144147666D01*
X39613904Y-144871476D02*
X39652000Y-144833380D01*
X39652000Y-144833380D02*
X39690095Y-144719095D01*
X39690095Y-144719095D02*
X39690095Y-144642904D01*
X39690095Y-144642904D02*
X39652000Y-144528618D01*
X39652000Y-144528618D02*
X39575809Y-144452428D01*
X39575809Y-144452428D02*
X39499619Y-144414333D01*
X39499619Y-144414333D02*
X39347238Y-144376237D01*
X39347238Y-144376237D02*
X39232952Y-144376237D01*
X39232952Y-144376237D02*
X39080571Y-144414333D01*
X39080571Y-144414333D02*
X39004380Y-144452428D01*
X39004380Y-144452428D02*
X38928190Y-144528618D01*
X38928190Y-144528618D02*
X38890095Y-144642904D01*
X38890095Y-144642904D02*
X38890095Y-144719095D01*
X38890095Y-144719095D02*
X38928190Y-144833380D01*
X38928190Y-144833380D02*
X38966285Y-144871476D01*
X39613904Y-145671476D02*
X39652000Y-145633380D01*
X39652000Y-145633380D02*
X39690095Y-145519095D01*
X39690095Y-145519095D02*
X39690095Y-145442904D01*
X39690095Y-145442904D02*
X39652000Y-145328618D01*
X39652000Y-145328618D02*
X39575809Y-145252428D01*
X39575809Y-145252428D02*
X39499619Y-145214333D01*
X39499619Y-145214333D02*
X39347238Y-145176237D01*
X39347238Y-145176237D02*
X39232952Y-145176237D01*
X39232952Y-145176237D02*
X39080571Y-145214333D01*
X39080571Y-145214333D02*
X39004380Y-145252428D01*
X39004380Y-145252428D02*
X38928190Y-145328618D01*
X38928190Y-145328618D02*
X38890095Y-145442904D01*
X38890095Y-145442904D02*
X38890095Y-145519095D01*
X38890095Y-145519095D02*
X38928190Y-145633380D01*
X38928190Y-145633380D02*
X38966285Y-145671476D01*
X44351047Y-144414333D02*
X44351047Y-144147667D01*
X44770095Y-144147667D02*
X43970095Y-144147667D01*
X43970095Y-144147667D02*
X43970095Y-144528619D01*
X43970095Y-145214333D02*
X43970095Y-144833381D01*
X43970095Y-144833381D02*
X44351047Y-144795285D01*
X44351047Y-144795285D02*
X44312952Y-144833381D01*
X44312952Y-144833381D02*
X44274857Y-144909571D01*
X44274857Y-144909571D02*
X44274857Y-145100047D01*
X44274857Y-145100047D02*
X44312952Y-145176238D01*
X44312952Y-145176238D02*
X44351047Y-145214333D01*
X44351047Y-145214333D02*
X44427238Y-145252428D01*
X44427238Y-145252428D02*
X44617714Y-145252428D01*
X44617714Y-145252428D02*
X44693904Y-145214333D01*
X44693904Y-145214333D02*
X44732000Y-145176238D01*
X44732000Y-145176238D02*
X44770095Y-145100047D01*
X44770095Y-145100047D02*
X44770095Y-144909571D01*
X44770095Y-144909571D02*
X44732000Y-144833381D01*
X44732000Y-144833381D02*
X44693904Y-144795285D01*
X31270095Y-133457651D02*
X31270095Y-133914794D01*
X32070095Y-133686222D02*
X31270095Y-133686222D01*
X31270095Y-134105270D02*
X32070095Y-134638604D01*
X31270095Y-134638604D02*
X32070095Y-134105270D01*
X31270095Y-135095747D02*
X31270095Y-135171937D01*
X31270095Y-135171937D02*
X31308190Y-135248128D01*
X31308190Y-135248128D02*
X31346285Y-135286223D01*
X31346285Y-135286223D02*
X31422476Y-135324318D01*
X31422476Y-135324318D02*
X31574857Y-135362413D01*
X31574857Y-135362413D02*
X31765333Y-135362413D01*
X31765333Y-135362413D02*
X31917714Y-135324318D01*
X31917714Y-135324318D02*
X31993904Y-135286223D01*
X31993904Y-135286223D02*
X32032000Y-135248128D01*
X32032000Y-135248128D02*
X32070095Y-135171937D01*
X32070095Y-135171937D02*
X32070095Y-135095747D01*
X32070095Y-135095747D02*
X32032000Y-135019556D01*
X32032000Y-135019556D02*
X31993904Y-134981461D01*
X31993904Y-134981461D02*
X31917714Y-134943366D01*
X31917714Y-134943366D02*
X31765333Y-134905270D01*
X31765333Y-134905270D02*
X31574857Y-134905270D01*
X31574857Y-134905270D02*
X31422476Y-134943366D01*
X31422476Y-134943366D02*
X31346285Y-134981461D01*
X31346285Y-134981461D02*
X31308190Y-135019556D01*
X31308190Y-135019556D02*
X31270095Y-135095747D01*
X31232000Y-136276699D02*
X32260571Y-135590985D01*
X32070095Y-136543366D02*
X31270095Y-136543366D01*
X31270095Y-136543366D02*
X31270095Y-136733842D01*
X31270095Y-136733842D02*
X31308190Y-136848128D01*
X31308190Y-136848128D02*
X31384380Y-136924318D01*
X31384380Y-136924318D02*
X31460571Y-136962413D01*
X31460571Y-136962413D02*
X31612952Y-137000509D01*
X31612952Y-137000509D02*
X31727238Y-137000509D01*
X31727238Y-137000509D02*
X31879619Y-136962413D01*
X31879619Y-136962413D02*
X31955809Y-136924318D01*
X31955809Y-136924318D02*
X32032000Y-136848128D01*
X32032000Y-136848128D02*
X32070095Y-136733842D01*
X32070095Y-136733842D02*
X32070095Y-136543366D01*
X31270095Y-137267175D02*
X31270095Y-137762413D01*
X31270095Y-137762413D02*
X31574857Y-137495747D01*
X31574857Y-137495747D02*
X31574857Y-137610032D01*
X31574857Y-137610032D02*
X31612952Y-137686223D01*
X31612952Y-137686223D02*
X31651047Y-137724318D01*
X31651047Y-137724318D02*
X31727238Y-137762413D01*
X31727238Y-137762413D02*
X31917714Y-137762413D01*
X31917714Y-137762413D02*
X31993904Y-137724318D01*
X31993904Y-137724318D02*
X32032000Y-137686223D01*
X32032000Y-137686223D02*
X32070095Y-137610032D01*
X32070095Y-137610032D02*
X32070095Y-137381461D01*
X32070095Y-137381461D02*
X32032000Y-137305270D01*
X32032000Y-137305270D02*
X31993904Y-137267175D01*
X51971047Y-144357190D02*
X52009142Y-144471476D01*
X52009142Y-144471476D02*
X52047238Y-144509571D01*
X52047238Y-144509571D02*
X52123428Y-144547667D01*
X52123428Y-144547667D02*
X52237714Y-144547667D01*
X52237714Y-144547667D02*
X52313904Y-144509571D01*
X52313904Y-144509571D02*
X52352000Y-144471476D01*
X52352000Y-144471476D02*
X52390095Y-144395286D01*
X52390095Y-144395286D02*
X52390095Y-144090524D01*
X52390095Y-144090524D02*
X51590095Y-144090524D01*
X51590095Y-144090524D02*
X51590095Y-144357190D01*
X51590095Y-144357190D02*
X51628190Y-144433381D01*
X51628190Y-144433381D02*
X51666285Y-144471476D01*
X51666285Y-144471476D02*
X51742476Y-144509571D01*
X51742476Y-144509571D02*
X51818666Y-144509571D01*
X51818666Y-144509571D02*
X51894857Y-144471476D01*
X51894857Y-144471476D02*
X51932952Y-144433381D01*
X51932952Y-144433381D02*
X51971047Y-144357190D01*
X51971047Y-144357190D02*
X51971047Y-144090524D01*
X52390095Y-145309571D02*
X52390095Y-144852428D01*
X52390095Y-145081000D02*
X51590095Y-145081000D01*
X51590095Y-145081000D02*
X51704380Y-145004809D01*
X51704380Y-145004809D02*
X51780571Y-144928619D01*
X51780571Y-144928619D02*
X51818666Y-144852428D01*
X34610095Y-133168524D02*
X33810095Y-133168524D01*
X33810095Y-133168524D02*
X33810095Y-133359000D01*
X33810095Y-133359000D02*
X33848190Y-133473286D01*
X33848190Y-133473286D02*
X33924380Y-133549476D01*
X33924380Y-133549476D02*
X34000571Y-133587571D01*
X34000571Y-133587571D02*
X34152952Y-133625667D01*
X34152952Y-133625667D02*
X34267238Y-133625667D01*
X34267238Y-133625667D02*
X34419619Y-133587571D01*
X34419619Y-133587571D02*
X34495809Y-133549476D01*
X34495809Y-133549476D02*
X34572000Y-133473286D01*
X34572000Y-133473286D02*
X34610095Y-133359000D01*
X34610095Y-133359000D02*
X34610095Y-133168524D01*
X33886285Y-133930428D02*
X33848190Y-133968524D01*
X33848190Y-133968524D02*
X33810095Y-134044714D01*
X33810095Y-134044714D02*
X33810095Y-134235190D01*
X33810095Y-134235190D02*
X33848190Y-134311381D01*
X33848190Y-134311381D02*
X33886285Y-134349476D01*
X33886285Y-134349476D02*
X33962476Y-134387571D01*
X33962476Y-134387571D02*
X34038666Y-134387571D01*
X34038666Y-134387571D02*
X34152952Y-134349476D01*
X34152952Y-134349476D02*
X34610095Y-133892333D01*
X34610095Y-133892333D02*
X34610095Y-134387571D01*
X37082000Y-144419786D02*
X37120095Y-144534072D01*
X37120095Y-144534072D02*
X37120095Y-144724548D01*
X37120095Y-144724548D02*
X37082000Y-144800739D01*
X37082000Y-144800739D02*
X37043904Y-144838834D01*
X37043904Y-144838834D02*
X36967714Y-144876929D01*
X36967714Y-144876929D02*
X36891523Y-144876929D01*
X36891523Y-144876929D02*
X36815333Y-144838834D01*
X36815333Y-144838834D02*
X36777238Y-144800739D01*
X36777238Y-144800739D02*
X36739142Y-144724548D01*
X36739142Y-144724548D02*
X36701047Y-144572167D01*
X36701047Y-144572167D02*
X36662952Y-144495977D01*
X36662952Y-144495977D02*
X36624857Y-144457882D01*
X36624857Y-144457882D02*
X36548666Y-144419786D01*
X36548666Y-144419786D02*
X36472476Y-144419786D01*
X36472476Y-144419786D02*
X36396285Y-144457882D01*
X36396285Y-144457882D02*
X36358190Y-144495977D01*
X36358190Y-144495977D02*
X36320095Y-144572167D01*
X36320095Y-144572167D02*
X36320095Y-144762644D01*
X36320095Y-144762644D02*
X36358190Y-144876929D01*
X36320095Y-145105501D02*
X36320095Y-145562644D01*
X37120095Y-145334072D02*
X36320095Y-145334072D01*
X32070095Y-144128619D02*
X31689142Y-143861952D01*
X32070095Y-143671476D02*
X31270095Y-143671476D01*
X31270095Y-143671476D02*
X31270095Y-143976238D01*
X31270095Y-143976238D02*
X31308190Y-144052428D01*
X31308190Y-144052428D02*
X31346285Y-144090523D01*
X31346285Y-144090523D02*
X31422476Y-144128619D01*
X31422476Y-144128619D02*
X31536761Y-144128619D01*
X31536761Y-144128619D02*
X31612952Y-144090523D01*
X31612952Y-144090523D02*
X31651047Y-144052428D01*
X31651047Y-144052428D02*
X31689142Y-143976238D01*
X31689142Y-143976238D02*
X31689142Y-143671476D01*
X31841523Y-144433380D02*
X31841523Y-144814333D01*
X32070095Y-144357190D02*
X31270095Y-144623857D01*
X31270095Y-144623857D02*
X32070095Y-144890523D01*
X31270095Y-145080999D02*
X32070095Y-145271475D01*
X32070095Y-145271475D02*
X31498666Y-145423856D01*
X31498666Y-145423856D02*
X32070095Y-145576237D01*
X32070095Y-145576237D02*
X31270095Y-145766714D01*
X46891047Y-144414333D02*
X46891047Y-144147667D01*
X47310095Y-144147667D02*
X46510095Y-144147667D01*
X46510095Y-144147667D02*
X46510095Y-144528619D01*
X46510095Y-145176238D02*
X46510095Y-145023857D01*
X46510095Y-145023857D02*
X46548190Y-144947666D01*
X46548190Y-144947666D02*
X46586285Y-144909571D01*
X46586285Y-144909571D02*
X46700571Y-144833381D01*
X46700571Y-144833381D02*
X46852952Y-144795285D01*
X46852952Y-144795285D02*
X47157714Y-144795285D01*
X47157714Y-144795285D02*
X47233904Y-144833381D01*
X47233904Y-144833381D02*
X47272000Y-144871476D01*
X47272000Y-144871476D02*
X47310095Y-144947666D01*
X47310095Y-144947666D02*
X47310095Y-145100047D01*
X47310095Y-145100047D02*
X47272000Y-145176238D01*
X47272000Y-145176238D02*
X47233904Y-145214333D01*
X47233904Y-145214333D02*
X47157714Y-145252428D01*
X47157714Y-145252428D02*
X46967238Y-145252428D01*
X46967238Y-145252428D02*
X46891047Y-145214333D01*
X46891047Y-145214333D02*
X46852952Y-145176238D01*
X46852952Y-145176238D02*
X46814857Y-145100047D01*
X46814857Y-145100047D02*
X46814857Y-144947666D01*
X46814857Y-144947666D02*
X46852952Y-144871476D01*
X46852952Y-144871476D02*
X46891047Y-144833381D01*
X46891047Y-144833381D02*
X46967238Y-144795285D01*
X42230095Y-133168524D02*
X41430095Y-133168524D01*
X41430095Y-133168524D02*
X41430095Y-133359000D01*
X41430095Y-133359000D02*
X41468190Y-133473286D01*
X41468190Y-133473286D02*
X41544380Y-133549476D01*
X41544380Y-133549476D02*
X41620571Y-133587571D01*
X41620571Y-133587571D02*
X41772952Y-133625667D01*
X41772952Y-133625667D02*
X41887238Y-133625667D01*
X41887238Y-133625667D02*
X42039619Y-133587571D01*
X42039619Y-133587571D02*
X42115809Y-133549476D01*
X42115809Y-133549476D02*
X42192000Y-133473286D01*
X42192000Y-133473286D02*
X42230095Y-133359000D01*
X42230095Y-133359000D02*
X42230095Y-133168524D01*
X42230095Y-134387571D02*
X42230095Y-133930428D01*
X42230095Y-134159000D02*
X41430095Y-134159000D01*
X41430095Y-134159000D02*
X41544380Y-134082809D01*
X41544380Y-134082809D02*
X41620571Y-134006619D01*
X41620571Y-134006619D02*
X41658666Y-133930428D01*
X59591047Y-144357190D02*
X59629142Y-144471476D01*
X59629142Y-144471476D02*
X59667238Y-144509571D01*
X59667238Y-144509571D02*
X59743428Y-144547667D01*
X59743428Y-144547667D02*
X59857714Y-144547667D01*
X59857714Y-144547667D02*
X59933904Y-144509571D01*
X59933904Y-144509571D02*
X59972000Y-144471476D01*
X59972000Y-144471476D02*
X60010095Y-144395286D01*
X60010095Y-144395286D02*
X60010095Y-144090524D01*
X60010095Y-144090524D02*
X59210095Y-144090524D01*
X59210095Y-144090524D02*
X59210095Y-144357190D01*
X59210095Y-144357190D02*
X59248190Y-144433381D01*
X59248190Y-144433381D02*
X59286285Y-144471476D01*
X59286285Y-144471476D02*
X59362476Y-144509571D01*
X59362476Y-144509571D02*
X59438666Y-144509571D01*
X59438666Y-144509571D02*
X59514857Y-144471476D01*
X59514857Y-144471476D02*
X59552952Y-144433381D01*
X59552952Y-144433381D02*
X59591047Y-144357190D01*
X59591047Y-144357190D02*
X59591047Y-144090524D01*
X59210095Y-145233381D02*
X59210095Y-145081000D01*
X59210095Y-145081000D02*
X59248190Y-145004809D01*
X59248190Y-145004809D02*
X59286285Y-144966714D01*
X59286285Y-144966714D02*
X59400571Y-144890524D01*
X59400571Y-144890524D02*
X59552952Y-144852428D01*
X59552952Y-144852428D02*
X59857714Y-144852428D01*
X59857714Y-144852428D02*
X59933904Y-144890524D01*
X59933904Y-144890524D02*
X59972000Y-144928619D01*
X59972000Y-144928619D02*
X60010095Y-145004809D01*
X60010095Y-145004809D02*
X60010095Y-145157190D01*
X60010095Y-145157190D02*
X59972000Y-145233381D01*
X59972000Y-145233381D02*
X59933904Y-145271476D01*
X59933904Y-145271476D02*
X59857714Y-145309571D01*
X59857714Y-145309571D02*
X59667238Y-145309571D01*
X59667238Y-145309571D02*
X59591047Y-145271476D01*
X59591047Y-145271476D02*
X59552952Y-145233381D01*
X59552952Y-145233381D02*
X59514857Y-145157190D01*
X59514857Y-145157190D02*
X59514857Y-145004809D01*
X59514857Y-145004809D02*
X59552952Y-144928619D01*
X59552952Y-144928619D02*
X59591047Y-144890524D01*
X59591047Y-144890524D02*
X59667238Y-144852428D01*
X54511047Y-144357190D02*
X54549142Y-144471476D01*
X54549142Y-144471476D02*
X54587238Y-144509571D01*
X54587238Y-144509571D02*
X54663428Y-144547667D01*
X54663428Y-144547667D02*
X54777714Y-144547667D01*
X54777714Y-144547667D02*
X54853904Y-144509571D01*
X54853904Y-144509571D02*
X54892000Y-144471476D01*
X54892000Y-144471476D02*
X54930095Y-144395286D01*
X54930095Y-144395286D02*
X54930095Y-144090524D01*
X54930095Y-144090524D02*
X54130095Y-144090524D01*
X54130095Y-144090524D02*
X54130095Y-144357190D01*
X54130095Y-144357190D02*
X54168190Y-144433381D01*
X54168190Y-144433381D02*
X54206285Y-144471476D01*
X54206285Y-144471476D02*
X54282476Y-144509571D01*
X54282476Y-144509571D02*
X54358666Y-144509571D01*
X54358666Y-144509571D02*
X54434857Y-144471476D01*
X54434857Y-144471476D02*
X54472952Y-144433381D01*
X54472952Y-144433381D02*
X54511047Y-144357190D01*
X54511047Y-144357190D02*
X54511047Y-144090524D01*
X54130095Y-144814333D02*
X54130095Y-145309571D01*
X54130095Y-145309571D02*
X54434857Y-145042905D01*
X54434857Y-145042905D02*
X54434857Y-145157190D01*
X54434857Y-145157190D02*
X54472952Y-145233381D01*
X54472952Y-145233381D02*
X54511047Y-145271476D01*
X54511047Y-145271476D02*
X54587238Y-145309571D01*
X54587238Y-145309571D02*
X54777714Y-145309571D01*
X54777714Y-145309571D02*
X54853904Y-145271476D01*
X54853904Y-145271476D02*
X54892000Y-145233381D01*
X54892000Y-145233381D02*
X54930095Y-145157190D01*
X54930095Y-145157190D02*
X54930095Y-144928619D01*
X54930095Y-144928619D02*
X54892000Y-144852428D01*
X54892000Y-144852428D02*
X54853904Y-144814333D01*
X33848190Y-144071476D02*
X33810095Y-143995286D01*
X33810095Y-143995286D02*
X33810095Y-143881000D01*
X33810095Y-143881000D02*
X33848190Y-143766714D01*
X33848190Y-143766714D02*
X33924380Y-143690524D01*
X33924380Y-143690524D02*
X34000571Y-143652429D01*
X34000571Y-143652429D02*
X34152952Y-143614333D01*
X34152952Y-143614333D02*
X34267238Y-143614333D01*
X34267238Y-143614333D02*
X34419619Y-143652429D01*
X34419619Y-143652429D02*
X34495809Y-143690524D01*
X34495809Y-143690524D02*
X34572000Y-143766714D01*
X34572000Y-143766714D02*
X34610095Y-143881000D01*
X34610095Y-143881000D02*
X34610095Y-143957191D01*
X34610095Y-143957191D02*
X34572000Y-144071476D01*
X34572000Y-144071476D02*
X34533904Y-144109572D01*
X34533904Y-144109572D02*
X34267238Y-144109572D01*
X34267238Y-144109572D02*
X34267238Y-143957191D01*
X34610095Y-144452429D02*
X33810095Y-144452429D01*
X33810095Y-144452429D02*
X34610095Y-144909572D01*
X34610095Y-144909572D02*
X33810095Y-144909572D01*
X34610095Y-145290524D02*
X33810095Y-145290524D01*
X33810095Y-145290524D02*
X33810095Y-145481000D01*
X33810095Y-145481000D02*
X33848190Y-145595286D01*
X33848190Y-145595286D02*
X33924380Y-145671476D01*
X33924380Y-145671476D02*
X34000571Y-145709571D01*
X34000571Y-145709571D02*
X34152952Y-145747667D01*
X34152952Y-145747667D02*
X34267238Y-145747667D01*
X34267238Y-145747667D02*
X34419619Y-145709571D01*
X34419619Y-145709571D02*
X34495809Y-145671476D01*
X34495809Y-145671476D02*
X34572000Y-145595286D01*
X34572000Y-145595286D02*
X34610095Y-145481000D01*
X34610095Y-145481000D02*
X34610095Y-145290524D01*
X36388190Y-133149476D02*
X36350095Y-133073286D01*
X36350095Y-133073286D02*
X36350095Y-132959000D01*
X36350095Y-132959000D02*
X36388190Y-132844714D01*
X36388190Y-132844714D02*
X36464380Y-132768524D01*
X36464380Y-132768524D02*
X36540571Y-132730429D01*
X36540571Y-132730429D02*
X36692952Y-132692333D01*
X36692952Y-132692333D02*
X36807238Y-132692333D01*
X36807238Y-132692333D02*
X36959619Y-132730429D01*
X36959619Y-132730429D02*
X37035809Y-132768524D01*
X37035809Y-132768524D02*
X37112000Y-132844714D01*
X37112000Y-132844714D02*
X37150095Y-132959000D01*
X37150095Y-132959000D02*
X37150095Y-133035191D01*
X37150095Y-133035191D02*
X37112000Y-133149476D01*
X37112000Y-133149476D02*
X37073904Y-133187572D01*
X37073904Y-133187572D02*
X36807238Y-133187572D01*
X36807238Y-133187572D02*
X36807238Y-133035191D01*
X37150095Y-133530429D02*
X36350095Y-133530429D01*
X36350095Y-133530429D02*
X37150095Y-133987572D01*
X37150095Y-133987572D02*
X36350095Y-133987572D01*
X37150095Y-134368524D02*
X36350095Y-134368524D01*
X36350095Y-134368524D02*
X36350095Y-134559000D01*
X36350095Y-134559000D02*
X36388190Y-134673286D01*
X36388190Y-134673286D02*
X36464380Y-134749476D01*
X36464380Y-134749476D02*
X36540571Y-134787571D01*
X36540571Y-134787571D02*
X36692952Y-134825667D01*
X36692952Y-134825667D02*
X36807238Y-134825667D01*
X36807238Y-134825667D02*
X36959619Y-134787571D01*
X36959619Y-134787571D02*
X37035809Y-134749476D01*
X37035809Y-134749476D02*
X37112000Y-134673286D01*
X37112000Y-134673286D02*
X37150095Y-134559000D01*
X37150095Y-134559000D02*
X37150095Y-134368524D01*
X41811047Y-144414333D02*
X41811047Y-144147667D01*
X42230095Y-144147667D02*
X41430095Y-144147667D01*
X41430095Y-144147667D02*
X41430095Y-144528619D01*
X41696761Y-145176238D02*
X42230095Y-145176238D01*
X41392000Y-144985762D02*
X41963428Y-144795285D01*
X41963428Y-144795285D02*
X41963428Y-145290524D01*
X38928190Y-133149476D02*
X38890095Y-133073286D01*
X38890095Y-133073286D02*
X38890095Y-132959000D01*
X38890095Y-132959000D02*
X38928190Y-132844714D01*
X38928190Y-132844714D02*
X39004380Y-132768524D01*
X39004380Y-132768524D02*
X39080571Y-132730429D01*
X39080571Y-132730429D02*
X39232952Y-132692333D01*
X39232952Y-132692333D02*
X39347238Y-132692333D01*
X39347238Y-132692333D02*
X39499619Y-132730429D01*
X39499619Y-132730429D02*
X39575809Y-132768524D01*
X39575809Y-132768524D02*
X39652000Y-132844714D01*
X39652000Y-132844714D02*
X39690095Y-132959000D01*
X39690095Y-132959000D02*
X39690095Y-133035191D01*
X39690095Y-133035191D02*
X39652000Y-133149476D01*
X39652000Y-133149476D02*
X39613904Y-133187572D01*
X39613904Y-133187572D02*
X39347238Y-133187572D01*
X39347238Y-133187572D02*
X39347238Y-133035191D01*
X39690095Y-133530429D02*
X38890095Y-133530429D01*
X38890095Y-133530429D02*
X39690095Y-133987572D01*
X39690095Y-133987572D02*
X38890095Y-133987572D01*
X39690095Y-134368524D02*
X38890095Y-134368524D01*
X38890095Y-134368524D02*
X38890095Y-134559000D01*
X38890095Y-134559000D02*
X38928190Y-134673286D01*
X38928190Y-134673286D02*
X39004380Y-134749476D01*
X39004380Y-134749476D02*
X39080571Y-134787571D01*
X39080571Y-134787571D02*
X39232952Y-134825667D01*
X39232952Y-134825667D02*
X39347238Y-134825667D01*
X39347238Y-134825667D02*
X39499619Y-134787571D01*
X39499619Y-134787571D02*
X39575809Y-134749476D01*
X39575809Y-134749476D02*
X39652000Y-134673286D01*
X39652000Y-134673286D02*
X39690095Y-134559000D01*
X39690095Y-134559000D02*
X39690095Y-134368524D01*
X57051047Y-144357190D02*
X57089142Y-144471476D01*
X57089142Y-144471476D02*
X57127238Y-144509571D01*
X57127238Y-144509571D02*
X57203428Y-144547667D01*
X57203428Y-144547667D02*
X57317714Y-144547667D01*
X57317714Y-144547667D02*
X57393904Y-144509571D01*
X57393904Y-144509571D02*
X57432000Y-144471476D01*
X57432000Y-144471476D02*
X57470095Y-144395286D01*
X57470095Y-144395286D02*
X57470095Y-144090524D01*
X57470095Y-144090524D02*
X56670095Y-144090524D01*
X56670095Y-144090524D02*
X56670095Y-144357190D01*
X56670095Y-144357190D02*
X56708190Y-144433381D01*
X56708190Y-144433381D02*
X56746285Y-144471476D01*
X56746285Y-144471476D02*
X56822476Y-144509571D01*
X56822476Y-144509571D02*
X56898666Y-144509571D01*
X56898666Y-144509571D02*
X56974857Y-144471476D01*
X56974857Y-144471476D02*
X57012952Y-144433381D01*
X57012952Y-144433381D02*
X57051047Y-144357190D01*
X57051047Y-144357190D02*
X57051047Y-144090524D01*
X56746285Y-144852428D02*
X56708190Y-144890524D01*
X56708190Y-144890524D02*
X56670095Y-144966714D01*
X56670095Y-144966714D02*
X56670095Y-145157190D01*
X56670095Y-145157190D02*
X56708190Y-145233381D01*
X56708190Y-145233381D02*
X56746285Y-145271476D01*
X56746285Y-145271476D02*
X56822476Y-145309571D01*
X56822476Y-145309571D02*
X56898666Y-145309571D01*
X56898666Y-145309571D02*
X57012952Y-145271476D01*
X57012952Y-145271476D02*
X57470095Y-144814333D01*
X57470095Y-144814333D02*
X57470095Y-145309571D01*
X49431047Y-144414333D02*
X49431047Y-144147667D01*
X49850095Y-144147667D02*
X49050095Y-144147667D01*
X49050095Y-144147667D02*
X49050095Y-144528619D01*
X49050095Y-144757190D02*
X49050095Y-145290524D01*
X49050095Y-145290524D02*
X49850095Y-144947666D01*
X119119119Y-126702595D02*
X119119119Y-127274023D01*
X120119119Y-126988309D02*
X119119119Y-126988309D01*
X120119119Y-128178785D02*
X119642928Y-127845452D01*
X120119119Y-127607357D02*
X119119119Y-127607357D01*
X119119119Y-127607357D02*
X119119119Y-127988309D01*
X119119119Y-127988309D02*
X119166738Y-128083547D01*
X119166738Y-128083547D02*
X119214357Y-128131166D01*
X119214357Y-128131166D02*
X119309595Y-128178785D01*
X119309595Y-128178785D02*
X119452452Y-128178785D01*
X119452452Y-128178785D02*
X119547690Y-128131166D01*
X119547690Y-128131166D02*
X119595309Y-128083547D01*
X119595309Y-128083547D02*
X119642928Y-127988309D01*
X119642928Y-127988309D02*
X119642928Y-127607357D01*
X120119119Y-129178785D02*
X119642928Y-128845452D01*
X120119119Y-128607357D02*
X119119119Y-128607357D01*
X119119119Y-128607357D02*
X119119119Y-128988309D01*
X119119119Y-128988309D02*
X119166738Y-129083547D01*
X119166738Y-129083547D02*
X119214357Y-129131166D01*
X119214357Y-129131166D02*
X119309595Y-129178785D01*
X119309595Y-129178785D02*
X119452452Y-129178785D01*
X119452452Y-129178785D02*
X119547690Y-129131166D01*
X119547690Y-129131166D02*
X119595309Y-129083547D01*
X119595309Y-129083547D02*
X119642928Y-128988309D01*
X119642928Y-128988309D02*
X119642928Y-128607357D01*
X120071500Y-129559738D02*
X120119119Y-129702595D01*
X120119119Y-129702595D02*
X120119119Y-129940690D01*
X120119119Y-129940690D02*
X120071500Y-130035928D01*
X120071500Y-130035928D02*
X120023880Y-130083547D01*
X120023880Y-130083547D02*
X119928642Y-130131166D01*
X119928642Y-130131166D02*
X119833404Y-130131166D01*
X119833404Y-130131166D02*
X119738166Y-130083547D01*
X119738166Y-130083547D02*
X119690547Y-130035928D01*
X119690547Y-130035928D02*
X119642928Y-129940690D01*
X119642928Y-129940690D02*
X119595309Y-129750214D01*
X119595309Y-129750214D02*
X119547690Y-129654976D01*
X119547690Y-129654976D02*
X119500071Y-129607357D01*
X119500071Y-129607357D02*
X119404833Y-129559738D01*
X119404833Y-129559738D02*
X119309595Y-129559738D01*
X119309595Y-129559738D02*
X119214357Y-129607357D01*
X119214357Y-129607357D02*
X119166738Y-129654976D01*
X119166738Y-129654976D02*
X119119119Y-129750214D01*
X119119119Y-129750214D02*
X119119119Y-129988309D01*
X119119119Y-129988309D02*
X119166738Y-130131166D01*
D11*
X95031618Y-98357309D02*
X95269713Y-98357309D01*
X95269713Y-98357309D02*
X95269713Y-97857309D01*
X94864951Y-98095404D02*
X94698284Y-98095404D01*
X94626856Y-98357309D02*
X94864951Y-98357309D01*
X94864951Y-98357309D02*
X94864951Y-97857309D01*
X94864951Y-97857309D02*
X94626856Y-97857309D01*
X94412570Y-98357309D02*
X94412570Y-97857309D01*
X94412570Y-97857309D02*
X94293522Y-97857309D01*
X94293522Y-97857309D02*
X94222094Y-97881119D01*
X94222094Y-97881119D02*
X94174475Y-97928738D01*
X94174475Y-97928738D02*
X94150665Y-97976357D01*
X94150665Y-97976357D02*
X94126856Y-98071595D01*
X94126856Y-98071595D02*
X94126856Y-98143023D01*
X94126856Y-98143023D02*
X94150665Y-98238261D01*
X94150665Y-98238261D02*
X94174475Y-98285880D01*
X94174475Y-98285880D02*
X94222094Y-98333500D01*
X94222094Y-98333500D02*
X94293522Y-98357309D01*
X94293522Y-98357309D02*
X94412570Y-98357309D01*
X93960189Y-97857309D02*
X93650665Y-97857309D01*
X93650665Y-97857309D02*
X93817332Y-98047785D01*
X93817332Y-98047785D02*
X93745903Y-98047785D01*
X93745903Y-98047785D02*
X93698284Y-98071595D01*
X93698284Y-98071595D02*
X93674475Y-98095404D01*
X93674475Y-98095404D02*
X93650665Y-98143023D01*
X93650665Y-98143023D02*
X93650665Y-98262071D01*
X93650665Y-98262071D02*
X93674475Y-98309690D01*
X93674475Y-98309690D02*
X93698284Y-98333500D01*
X93698284Y-98333500D02*
X93745903Y-98357309D01*
X93745903Y-98357309D02*
X93888760Y-98357309D01*
X93888760Y-98357309D02*
X93936379Y-98333500D01*
X93936379Y-98333500D02*
X93960189Y-98309690D01*
X93174475Y-98357309D02*
X93460189Y-98357309D01*
X93317332Y-98357309D02*
X93317332Y-97857309D01*
X93317332Y-97857309D02*
X93364951Y-97928738D01*
X93364951Y-97928738D02*
X93412570Y-97976357D01*
X93412570Y-97976357D02*
X93460189Y-98000166D01*
X40917618Y-90041309D02*
X41155713Y-90041309D01*
X41155713Y-90041309D02*
X41155713Y-89541309D01*
X40750951Y-89779404D02*
X40584284Y-89779404D01*
X40512856Y-90041309D02*
X40750951Y-90041309D01*
X40750951Y-90041309D02*
X40750951Y-89541309D01*
X40750951Y-89541309D02*
X40512856Y-89541309D01*
X40298570Y-90041309D02*
X40298570Y-89541309D01*
X40298570Y-89541309D02*
X40179522Y-89541309D01*
X40179522Y-89541309D02*
X40108094Y-89565119D01*
X40108094Y-89565119D02*
X40060475Y-89612738D01*
X40060475Y-89612738D02*
X40036665Y-89660357D01*
X40036665Y-89660357D02*
X40012856Y-89755595D01*
X40012856Y-89755595D02*
X40012856Y-89827023D01*
X40012856Y-89827023D02*
X40036665Y-89922261D01*
X40036665Y-89922261D02*
X40060475Y-89969880D01*
X40060475Y-89969880D02*
X40108094Y-90017500D01*
X40108094Y-90017500D02*
X40179522Y-90041309D01*
X40179522Y-90041309D02*
X40298570Y-90041309D01*
X39536665Y-90041309D02*
X39822379Y-90041309D01*
X39679522Y-90041309D02*
X39679522Y-89541309D01*
X39679522Y-89541309D02*
X39727141Y-89612738D01*
X39727141Y-89612738D02*
X39774760Y-89660357D01*
X39774760Y-89660357D02*
X39822379Y-89684166D01*
X39298570Y-90041309D02*
X39203332Y-90041309D01*
X39203332Y-90041309D02*
X39155713Y-90017500D01*
X39155713Y-90017500D02*
X39131904Y-89993690D01*
X39131904Y-89993690D02*
X39084285Y-89922261D01*
X39084285Y-89922261D02*
X39060475Y-89827023D01*
X39060475Y-89827023D02*
X39060475Y-89636547D01*
X39060475Y-89636547D02*
X39084285Y-89588928D01*
X39084285Y-89588928D02*
X39108094Y-89565119D01*
X39108094Y-89565119D02*
X39155713Y-89541309D01*
X39155713Y-89541309D02*
X39250951Y-89541309D01*
X39250951Y-89541309D02*
X39298570Y-89565119D01*
X39298570Y-89565119D02*
X39322380Y-89588928D01*
X39322380Y-89588928D02*
X39346189Y-89636547D01*
X39346189Y-89636547D02*
X39346189Y-89755595D01*
X39346189Y-89755595D02*
X39322380Y-89803214D01*
X39322380Y-89803214D02*
X39298570Y-89827023D01*
X39298570Y-89827023D02*
X39250951Y-89850833D01*
X39250951Y-89850833D02*
X39155713Y-89850833D01*
X39155713Y-89850833D02*
X39108094Y-89827023D01*
X39108094Y-89827023D02*
X39084285Y-89803214D01*
X39084285Y-89803214D02*
X39060475Y-89755595D01*
X75767618Y-140621309D02*
X76005713Y-140621309D01*
X76005713Y-140621309D02*
X76005713Y-140121309D01*
X75600951Y-140359404D02*
X75434284Y-140359404D01*
X75362856Y-140621309D02*
X75600951Y-140621309D01*
X75600951Y-140621309D02*
X75600951Y-140121309D01*
X75600951Y-140121309D02*
X75362856Y-140121309D01*
X75148570Y-140621309D02*
X75148570Y-140121309D01*
X75148570Y-140121309D02*
X75029522Y-140121309D01*
X75029522Y-140121309D02*
X74958094Y-140145119D01*
X74958094Y-140145119D02*
X74910475Y-140192738D01*
X74910475Y-140192738D02*
X74886665Y-140240357D01*
X74886665Y-140240357D02*
X74862856Y-140335595D01*
X74862856Y-140335595D02*
X74862856Y-140407023D01*
X74862856Y-140407023D02*
X74886665Y-140502261D01*
X74886665Y-140502261D02*
X74910475Y-140549880D01*
X74910475Y-140549880D02*
X74958094Y-140597500D01*
X74958094Y-140597500D02*
X75029522Y-140621309D01*
X75029522Y-140621309D02*
X75148570Y-140621309D01*
X74672379Y-140168928D02*
X74648570Y-140145119D01*
X74648570Y-140145119D02*
X74600951Y-140121309D01*
X74600951Y-140121309D02*
X74481903Y-140121309D01*
X74481903Y-140121309D02*
X74434284Y-140145119D01*
X74434284Y-140145119D02*
X74410475Y-140168928D01*
X74410475Y-140168928D02*
X74386665Y-140216547D01*
X74386665Y-140216547D02*
X74386665Y-140264166D01*
X74386665Y-140264166D02*
X74410475Y-140335595D01*
X74410475Y-140335595D02*
X74696189Y-140621309D01*
X74696189Y-140621309D02*
X74386665Y-140621309D01*
X74219999Y-140121309D02*
X73886666Y-140121309D01*
X73886666Y-140121309D02*
X74100951Y-140621309D01*
X40929618Y-103183309D02*
X41167713Y-103183309D01*
X41167713Y-103183309D02*
X41167713Y-102683309D01*
X40762951Y-102921404D02*
X40596284Y-102921404D01*
X40524856Y-103183309D02*
X40762951Y-103183309D01*
X40762951Y-103183309D02*
X40762951Y-102683309D01*
X40762951Y-102683309D02*
X40524856Y-102683309D01*
X40310570Y-103183309D02*
X40310570Y-102683309D01*
X40310570Y-102683309D02*
X40191522Y-102683309D01*
X40191522Y-102683309D02*
X40120094Y-102707119D01*
X40120094Y-102707119D02*
X40072475Y-102754738D01*
X40072475Y-102754738D02*
X40048665Y-102802357D01*
X40048665Y-102802357D02*
X40024856Y-102897595D01*
X40024856Y-102897595D02*
X40024856Y-102969023D01*
X40024856Y-102969023D02*
X40048665Y-103064261D01*
X40048665Y-103064261D02*
X40072475Y-103111880D01*
X40072475Y-103111880D02*
X40120094Y-103159500D01*
X40120094Y-103159500D02*
X40191522Y-103183309D01*
X40191522Y-103183309D02*
X40310570Y-103183309D01*
X39834379Y-102730928D02*
X39810570Y-102707119D01*
X39810570Y-102707119D02*
X39762951Y-102683309D01*
X39762951Y-102683309D02*
X39643903Y-102683309D01*
X39643903Y-102683309D02*
X39596284Y-102707119D01*
X39596284Y-102707119D02*
X39572475Y-102730928D01*
X39572475Y-102730928D02*
X39548665Y-102778547D01*
X39548665Y-102778547D02*
X39548665Y-102826166D01*
X39548665Y-102826166D02*
X39572475Y-102897595D01*
X39572475Y-102897595D02*
X39858189Y-103183309D01*
X39858189Y-103183309D02*
X39548665Y-103183309D01*
X39239142Y-102683309D02*
X39191523Y-102683309D01*
X39191523Y-102683309D02*
X39143904Y-102707119D01*
X39143904Y-102707119D02*
X39120094Y-102730928D01*
X39120094Y-102730928D02*
X39096285Y-102778547D01*
X39096285Y-102778547D02*
X39072475Y-102873785D01*
X39072475Y-102873785D02*
X39072475Y-102992833D01*
X39072475Y-102992833D02*
X39096285Y-103088071D01*
X39096285Y-103088071D02*
X39120094Y-103135690D01*
X39120094Y-103135690D02*
X39143904Y-103159500D01*
X39143904Y-103159500D02*
X39191523Y-103183309D01*
X39191523Y-103183309D02*
X39239142Y-103183309D01*
X39239142Y-103183309D02*
X39286761Y-103159500D01*
X39286761Y-103159500D02*
X39310570Y-103135690D01*
X39310570Y-103135690D02*
X39334380Y-103088071D01*
X39334380Y-103088071D02*
X39358189Y-102992833D01*
X39358189Y-102992833D02*
X39358189Y-102873785D01*
X39358189Y-102873785D02*
X39334380Y-102778547D01*
X39334380Y-102778547D02*
X39310570Y-102730928D01*
X39310570Y-102730928D02*
X39286761Y-102707119D01*
X39286761Y-102707119D02*
X39239142Y-102683309D01*
X116100102Y-147750378D02*
X116306299Y-147869426D01*
X116306299Y-147869426D02*
X116556299Y-147436413D01*
X116086717Y-147440229D02*
X115942379Y-147356896D01*
X115749568Y-147547997D02*
X115955765Y-147667045D01*
X115955765Y-147667045D02*
X116205765Y-147234032D01*
X116205765Y-147234032D02*
X115999568Y-147114985D01*
X115563991Y-147440855D02*
X115813991Y-147007842D01*
X115813991Y-147007842D02*
X115710893Y-146948318D01*
X115710893Y-146948318D02*
X115637129Y-146933223D01*
X115637129Y-146933223D02*
X115572080Y-146950653D01*
X115572080Y-146950653D02*
X115527651Y-146979988D01*
X115527651Y-146979988D02*
X115459413Y-147050562D01*
X115459413Y-147050562D02*
X115423698Y-147112421D01*
X115423698Y-147112421D02*
X115396699Y-147206804D01*
X115396699Y-147206804D02*
X115393509Y-147259948D01*
X115393509Y-147259948D02*
X115410939Y-147324997D01*
X115410939Y-147324997D02*
X115460893Y-147381331D01*
X115460893Y-147381331D02*
X115563991Y-147440855D01*
X115422218Y-146781651D02*
X115154162Y-146626890D01*
X115154162Y-146626890D02*
X115203262Y-146875180D01*
X115203262Y-146875180D02*
X115141403Y-146839466D01*
X115141403Y-146839466D02*
X115088259Y-146836276D01*
X115088259Y-146836276D02*
X115055734Y-146844991D01*
X115055734Y-146844991D02*
X115011305Y-146874325D01*
X115011305Y-146874325D02*
X114951781Y-146977424D01*
X114951781Y-146977424D02*
X114948592Y-147030568D01*
X114948592Y-147030568D02*
X114957306Y-147063092D01*
X114957306Y-147063092D02*
X114986641Y-147107521D01*
X114986641Y-147107521D02*
X115110359Y-147178950D01*
X115110359Y-147178950D02*
X115163503Y-147182140D01*
X115163503Y-147182140D02*
X115196027Y-147173425D01*
X114783009Y-146412604D02*
X114865488Y-146460223D01*
X114865488Y-146460223D02*
X114894822Y-146504652D01*
X114894822Y-146504652D02*
X114903537Y-146537177D01*
X114903537Y-146537177D02*
X114909062Y-146622845D01*
X114909062Y-146622845D02*
X114882063Y-146717229D01*
X114882063Y-146717229D02*
X114786825Y-146882186D01*
X114786825Y-146882186D02*
X114742395Y-146911520D01*
X114742395Y-146911520D02*
X114709871Y-146920235D01*
X114709871Y-146920235D02*
X114656727Y-146917045D01*
X114656727Y-146917045D02*
X114574248Y-146869426D01*
X114574248Y-146869426D02*
X114544914Y-146824997D01*
X114544914Y-146824997D02*
X114536199Y-146792473D01*
X114536199Y-146792473D02*
X114539389Y-146739329D01*
X114539389Y-146739329D02*
X114598913Y-146636230D01*
X114598913Y-146636230D02*
X114643342Y-146606896D01*
X114643342Y-146606896D02*
X114675866Y-146598181D01*
X114675866Y-146598181D02*
X114729010Y-146601371D01*
X114729010Y-146601371D02*
X114811489Y-146648990D01*
X114811489Y-146648990D02*
X114840823Y-146693419D01*
X114840823Y-146693419D02*
X114849538Y-146725943D01*
X114849538Y-146725943D02*
X114846348Y-146779088D01*
X113065618Y-121815309D02*
X113303713Y-121815309D01*
X113303713Y-121815309D02*
X113303713Y-121315309D01*
X112898951Y-121553404D02*
X112732284Y-121553404D01*
X112660856Y-121815309D02*
X112898951Y-121815309D01*
X112898951Y-121815309D02*
X112898951Y-121315309D01*
X112898951Y-121315309D02*
X112660856Y-121315309D01*
X112446570Y-121815309D02*
X112446570Y-121315309D01*
X112446570Y-121315309D02*
X112327522Y-121315309D01*
X112327522Y-121315309D02*
X112256094Y-121339119D01*
X112256094Y-121339119D02*
X112208475Y-121386738D01*
X112208475Y-121386738D02*
X112184665Y-121434357D01*
X112184665Y-121434357D02*
X112160856Y-121529595D01*
X112160856Y-121529595D02*
X112160856Y-121601023D01*
X112160856Y-121601023D02*
X112184665Y-121696261D01*
X112184665Y-121696261D02*
X112208475Y-121743880D01*
X112208475Y-121743880D02*
X112256094Y-121791500D01*
X112256094Y-121791500D02*
X112327522Y-121815309D01*
X112327522Y-121815309D02*
X112446570Y-121815309D01*
X111994189Y-121315309D02*
X111684665Y-121315309D01*
X111684665Y-121315309D02*
X111851332Y-121505785D01*
X111851332Y-121505785D02*
X111779903Y-121505785D01*
X111779903Y-121505785D02*
X111732284Y-121529595D01*
X111732284Y-121529595D02*
X111708475Y-121553404D01*
X111708475Y-121553404D02*
X111684665Y-121601023D01*
X111684665Y-121601023D02*
X111684665Y-121720071D01*
X111684665Y-121720071D02*
X111708475Y-121767690D01*
X111708475Y-121767690D02*
X111732284Y-121791500D01*
X111732284Y-121791500D02*
X111779903Y-121815309D01*
X111779903Y-121815309D02*
X111922760Y-121815309D01*
X111922760Y-121815309D02*
X111970379Y-121791500D01*
X111970379Y-121791500D02*
X111994189Y-121767690D01*
X111232285Y-121315309D02*
X111470380Y-121315309D01*
X111470380Y-121315309D02*
X111494189Y-121553404D01*
X111494189Y-121553404D02*
X111470380Y-121529595D01*
X111470380Y-121529595D02*
X111422761Y-121505785D01*
X111422761Y-121505785D02*
X111303713Y-121505785D01*
X111303713Y-121505785D02*
X111256094Y-121529595D01*
X111256094Y-121529595D02*
X111232285Y-121553404D01*
X111232285Y-121553404D02*
X111208475Y-121601023D01*
X111208475Y-121601023D02*
X111208475Y-121720071D01*
X111208475Y-121720071D02*
X111232285Y-121767690D01*
X111232285Y-121767690D02*
X111256094Y-121791500D01*
X111256094Y-121791500D02*
X111303713Y-121815309D01*
X111303713Y-121815309D02*
X111422761Y-121815309D01*
X111422761Y-121815309D02*
X111470380Y-121791500D01*
X111470380Y-121791500D02*
X111494189Y-121767690D01*
X58715618Y-125343309D02*
X58953713Y-125343309D01*
X58953713Y-125343309D02*
X58953713Y-124843309D01*
X58548951Y-125081404D02*
X58382284Y-125081404D01*
X58310856Y-125343309D02*
X58548951Y-125343309D01*
X58548951Y-125343309D02*
X58548951Y-124843309D01*
X58548951Y-124843309D02*
X58310856Y-124843309D01*
X58096570Y-125343309D02*
X58096570Y-124843309D01*
X58096570Y-124843309D02*
X57977522Y-124843309D01*
X57977522Y-124843309D02*
X57906094Y-124867119D01*
X57906094Y-124867119D02*
X57858475Y-124914738D01*
X57858475Y-124914738D02*
X57834665Y-124962357D01*
X57834665Y-124962357D02*
X57810856Y-125057595D01*
X57810856Y-125057595D02*
X57810856Y-125129023D01*
X57810856Y-125129023D02*
X57834665Y-125224261D01*
X57834665Y-125224261D02*
X57858475Y-125271880D01*
X57858475Y-125271880D02*
X57906094Y-125319500D01*
X57906094Y-125319500D02*
X57977522Y-125343309D01*
X57977522Y-125343309D02*
X58096570Y-125343309D01*
X57644189Y-124843309D02*
X57334665Y-124843309D01*
X57334665Y-124843309D02*
X57501332Y-125033785D01*
X57501332Y-125033785D02*
X57429903Y-125033785D01*
X57429903Y-125033785D02*
X57382284Y-125057595D01*
X57382284Y-125057595D02*
X57358475Y-125081404D01*
X57358475Y-125081404D02*
X57334665Y-125129023D01*
X57334665Y-125129023D02*
X57334665Y-125248071D01*
X57334665Y-125248071D02*
X57358475Y-125295690D01*
X57358475Y-125295690D02*
X57382284Y-125319500D01*
X57382284Y-125319500D02*
X57429903Y-125343309D01*
X57429903Y-125343309D02*
X57572760Y-125343309D01*
X57572760Y-125343309D02*
X57620379Y-125319500D01*
X57620379Y-125319500D02*
X57644189Y-125295690D01*
X57167999Y-124843309D02*
X56834666Y-124843309D01*
X56834666Y-124843309D02*
X57048951Y-125343309D01*
X77083618Y-100649309D02*
X77321713Y-100649309D01*
X77321713Y-100649309D02*
X77321713Y-100149309D01*
X76916951Y-100387404D02*
X76750284Y-100387404D01*
X76678856Y-100649309D02*
X76916951Y-100649309D01*
X76916951Y-100649309D02*
X76916951Y-100149309D01*
X76916951Y-100149309D02*
X76678856Y-100149309D01*
X76464570Y-100649309D02*
X76464570Y-100149309D01*
X76464570Y-100149309D02*
X76345522Y-100149309D01*
X76345522Y-100149309D02*
X76274094Y-100173119D01*
X76274094Y-100173119D02*
X76226475Y-100220738D01*
X76226475Y-100220738D02*
X76202665Y-100268357D01*
X76202665Y-100268357D02*
X76178856Y-100363595D01*
X76178856Y-100363595D02*
X76178856Y-100435023D01*
X76178856Y-100435023D02*
X76202665Y-100530261D01*
X76202665Y-100530261D02*
X76226475Y-100577880D01*
X76226475Y-100577880D02*
X76274094Y-100625500D01*
X76274094Y-100625500D02*
X76345522Y-100649309D01*
X76345522Y-100649309D02*
X76464570Y-100649309D01*
X75988379Y-100196928D02*
X75964570Y-100173119D01*
X75964570Y-100173119D02*
X75916951Y-100149309D01*
X75916951Y-100149309D02*
X75797903Y-100149309D01*
X75797903Y-100149309D02*
X75750284Y-100173119D01*
X75750284Y-100173119D02*
X75726475Y-100196928D01*
X75726475Y-100196928D02*
X75702665Y-100244547D01*
X75702665Y-100244547D02*
X75702665Y-100292166D01*
X75702665Y-100292166D02*
X75726475Y-100363595D01*
X75726475Y-100363595D02*
X76012189Y-100649309D01*
X76012189Y-100649309D02*
X75702665Y-100649309D01*
X75416951Y-100363595D02*
X75464570Y-100339785D01*
X75464570Y-100339785D02*
X75488380Y-100315976D01*
X75488380Y-100315976D02*
X75512189Y-100268357D01*
X75512189Y-100268357D02*
X75512189Y-100244547D01*
X75512189Y-100244547D02*
X75488380Y-100196928D01*
X75488380Y-100196928D02*
X75464570Y-100173119D01*
X75464570Y-100173119D02*
X75416951Y-100149309D01*
X75416951Y-100149309D02*
X75321713Y-100149309D01*
X75321713Y-100149309D02*
X75274094Y-100173119D01*
X75274094Y-100173119D02*
X75250285Y-100196928D01*
X75250285Y-100196928D02*
X75226475Y-100244547D01*
X75226475Y-100244547D02*
X75226475Y-100268357D01*
X75226475Y-100268357D02*
X75250285Y-100315976D01*
X75250285Y-100315976D02*
X75274094Y-100339785D01*
X75274094Y-100339785D02*
X75321713Y-100363595D01*
X75321713Y-100363595D02*
X75416951Y-100363595D01*
X75416951Y-100363595D02*
X75464570Y-100387404D01*
X75464570Y-100387404D02*
X75488380Y-100411214D01*
X75488380Y-100411214D02*
X75512189Y-100458833D01*
X75512189Y-100458833D02*
X75512189Y-100554071D01*
X75512189Y-100554071D02*
X75488380Y-100601690D01*
X75488380Y-100601690D02*
X75464570Y-100625500D01*
X75464570Y-100625500D02*
X75416951Y-100649309D01*
X75416951Y-100649309D02*
X75321713Y-100649309D01*
X75321713Y-100649309D02*
X75274094Y-100625500D01*
X75274094Y-100625500D02*
X75250285Y-100601690D01*
X75250285Y-100601690D02*
X75226475Y-100554071D01*
X75226475Y-100554071D02*
X75226475Y-100458833D01*
X75226475Y-100458833D02*
X75250285Y-100411214D01*
X75250285Y-100411214D02*
X75274094Y-100387404D01*
X75274094Y-100387404D02*
X75321713Y-100363595D01*
X95031618Y-119275309D02*
X95269713Y-119275309D01*
X95269713Y-119275309D02*
X95269713Y-118775309D01*
X94864951Y-119013404D02*
X94698284Y-119013404D01*
X94626856Y-119275309D02*
X94864951Y-119275309D01*
X94864951Y-119275309D02*
X94864951Y-118775309D01*
X94864951Y-118775309D02*
X94626856Y-118775309D01*
X94412570Y-119275309D02*
X94412570Y-118775309D01*
X94412570Y-118775309D02*
X94293522Y-118775309D01*
X94293522Y-118775309D02*
X94222094Y-118799119D01*
X94222094Y-118799119D02*
X94174475Y-118846738D01*
X94174475Y-118846738D02*
X94150665Y-118894357D01*
X94150665Y-118894357D02*
X94126856Y-118989595D01*
X94126856Y-118989595D02*
X94126856Y-119061023D01*
X94126856Y-119061023D02*
X94150665Y-119156261D01*
X94150665Y-119156261D02*
X94174475Y-119203880D01*
X94174475Y-119203880D02*
X94222094Y-119251500D01*
X94222094Y-119251500D02*
X94293522Y-119275309D01*
X94293522Y-119275309D02*
X94412570Y-119275309D01*
X93960189Y-118775309D02*
X93650665Y-118775309D01*
X93650665Y-118775309D02*
X93817332Y-118965785D01*
X93817332Y-118965785D02*
X93745903Y-118965785D01*
X93745903Y-118965785D02*
X93698284Y-118989595D01*
X93698284Y-118989595D02*
X93674475Y-119013404D01*
X93674475Y-119013404D02*
X93650665Y-119061023D01*
X93650665Y-119061023D02*
X93650665Y-119180071D01*
X93650665Y-119180071D02*
X93674475Y-119227690D01*
X93674475Y-119227690D02*
X93698284Y-119251500D01*
X93698284Y-119251500D02*
X93745903Y-119275309D01*
X93745903Y-119275309D02*
X93888760Y-119275309D01*
X93888760Y-119275309D02*
X93936379Y-119251500D01*
X93936379Y-119251500D02*
X93960189Y-119227690D01*
X93341142Y-118775309D02*
X93293523Y-118775309D01*
X93293523Y-118775309D02*
X93245904Y-118799119D01*
X93245904Y-118799119D02*
X93222094Y-118822928D01*
X93222094Y-118822928D02*
X93198285Y-118870547D01*
X93198285Y-118870547D02*
X93174475Y-118965785D01*
X93174475Y-118965785D02*
X93174475Y-119084833D01*
X93174475Y-119084833D02*
X93198285Y-119180071D01*
X93198285Y-119180071D02*
X93222094Y-119227690D01*
X93222094Y-119227690D02*
X93245904Y-119251500D01*
X93245904Y-119251500D02*
X93293523Y-119275309D01*
X93293523Y-119275309D02*
X93341142Y-119275309D01*
X93341142Y-119275309D02*
X93388761Y-119251500D01*
X93388761Y-119251500D02*
X93412570Y-119227690D01*
X93412570Y-119227690D02*
X93436380Y-119180071D01*
X93436380Y-119180071D02*
X93460189Y-119084833D01*
X93460189Y-119084833D02*
X93460189Y-118965785D01*
X93460189Y-118965785D02*
X93436380Y-118870547D01*
X93436380Y-118870547D02*
X93412570Y-118822928D01*
X93412570Y-118822928D02*
X93388761Y-118799119D01*
X93388761Y-118799119D02*
X93341142Y-118775309D01*
X76997618Y-116991309D02*
X77235713Y-116991309D01*
X77235713Y-116991309D02*
X77235713Y-116491309D01*
X76830951Y-116729404D02*
X76664284Y-116729404D01*
X76592856Y-116991309D02*
X76830951Y-116991309D01*
X76830951Y-116991309D02*
X76830951Y-116491309D01*
X76830951Y-116491309D02*
X76592856Y-116491309D01*
X76378570Y-116991309D02*
X76378570Y-116491309D01*
X76378570Y-116491309D02*
X76259522Y-116491309D01*
X76259522Y-116491309D02*
X76188094Y-116515119D01*
X76188094Y-116515119D02*
X76140475Y-116562738D01*
X76140475Y-116562738D02*
X76116665Y-116610357D01*
X76116665Y-116610357D02*
X76092856Y-116705595D01*
X76092856Y-116705595D02*
X76092856Y-116777023D01*
X76092856Y-116777023D02*
X76116665Y-116872261D01*
X76116665Y-116872261D02*
X76140475Y-116919880D01*
X76140475Y-116919880D02*
X76188094Y-116967500D01*
X76188094Y-116967500D02*
X76259522Y-116991309D01*
X76259522Y-116991309D02*
X76378570Y-116991309D01*
X75902379Y-116538928D02*
X75878570Y-116515119D01*
X75878570Y-116515119D02*
X75830951Y-116491309D01*
X75830951Y-116491309D02*
X75711903Y-116491309D01*
X75711903Y-116491309D02*
X75664284Y-116515119D01*
X75664284Y-116515119D02*
X75640475Y-116538928D01*
X75640475Y-116538928D02*
X75616665Y-116586547D01*
X75616665Y-116586547D02*
X75616665Y-116634166D01*
X75616665Y-116634166D02*
X75640475Y-116705595D01*
X75640475Y-116705595D02*
X75926189Y-116991309D01*
X75926189Y-116991309D02*
X75616665Y-116991309D01*
X75188094Y-116491309D02*
X75283332Y-116491309D01*
X75283332Y-116491309D02*
X75330951Y-116515119D01*
X75330951Y-116515119D02*
X75354761Y-116538928D01*
X75354761Y-116538928D02*
X75402380Y-116610357D01*
X75402380Y-116610357D02*
X75426189Y-116705595D01*
X75426189Y-116705595D02*
X75426189Y-116896071D01*
X75426189Y-116896071D02*
X75402380Y-116943690D01*
X75402380Y-116943690D02*
X75378570Y-116967500D01*
X75378570Y-116967500D02*
X75330951Y-116991309D01*
X75330951Y-116991309D02*
X75235713Y-116991309D01*
X75235713Y-116991309D02*
X75188094Y-116967500D01*
X75188094Y-116967500D02*
X75164285Y-116943690D01*
X75164285Y-116943690D02*
X75140475Y-116896071D01*
X75140475Y-116896071D02*
X75140475Y-116777023D01*
X75140475Y-116777023D02*
X75164285Y-116729404D01*
X75164285Y-116729404D02*
X75188094Y-116705595D01*
X75188094Y-116705595D02*
X75235713Y-116681785D01*
X75235713Y-116681785D02*
X75330951Y-116681785D01*
X75330951Y-116681785D02*
X75378570Y-116705595D01*
X75378570Y-116705595D02*
X75402380Y-116729404D01*
X75402380Y-116729404D02*
X75426189Y-116777023D01*
X40927618Y-124101309D02*
X41165713Y-124101309D01*
X41165713Y-124101309D02*
X41165713Y-123601309D01*
X40760951Y-123839404D02*
X40594284Y-123839404D01*
X40522856Y-124101309D02*
X40760951Y-124101309D01*
X40760951Y-124101309D02*
X40760951Y-123601309D01*
X40760951Y-123601309D02*
X40522856Y-123601309D01*
X40308570Y-124101309D02*
X40308570Y-123601309D01*
X40308570Y-123601309D02*
X40189522Y-123601309D01*
X40189522Y-123601309D02*
X40118094Y-123625119D01*
X40118094Y-123625119D02*
X40070475Y-123672738D01*
X40070475Y-123672738D02*
X40046665Y-123720357D01*
X40046665Y-123720357D02*
X40022856Y-123815595D01*
X40022856Y-123815595D02*
X40022856Y-123887023D01*
X40022856Y-123887023D02*
X40046665Y-123982261D01*
X40046665Y-123982261D02*
X40070475Y-124029880D01*
X40070475Y-124029880D02*
X40118094Y-124077500D01*
X40118094Y-124077500D02*
X40189522Y-124101309D01*
X40189522Y-124101309D02*
X40308570Y-124101309D01*
X39832379Y-123648928D02*
X39808570Y-123625119D01*
X39808570Y-123625119D02*
X39760951Y-123601309D01*
X39760951Y-123601309D02*
X39641903Y-123601309D01*
X39641903Y-123601309D02*
X39594284Y-123625119D01*
X39594284Y-123625119D02*
X39570475Y-123648928D01*
X39570475Y-123648928D02*
X39546665Y-123696547D01*
X39546665Y-123696547D02*
X39546665Y-123744166D01*
X39546665Y-123744166D02*
X39570475Y-123815595D01*
X39570475Y-123815595D02*
X39856189Y-124101309D01*
X39856189Y-124101309D02*
X39546665Y-124101309D01*
X39070475Y-124101309D02*
X39356189Y-124101309D01*
X39213332Y-124101309D02*
X39213332Y-123601309D01*
X39213332Y-123601309D02*
X39260951Y-123672738D01*
X39260951Y-123672738D02*
X39308570Y-123720357D01*
X39308570Y-123720357D02*
X39356189Y-123744166D01*
X58967618Y-98361309D02*
X59205713Y-98361309D01*
X59205713Y-98361309D02*
X59205713Y-97861309D01*
X58800951Y-98099404D02*
X58634284Y-98099404D01*
X58562856Y-98361309D02*
X58800951Y-98361309D01*
X58800951Y-98361309D02*
X58800951Y-97861309D01*
X58800951Y-97861309D02*
X58562856Y-97861309D01*
X58348570Y-98361309D02*
X58348570Y-97861309D01*
X58348570Y-97861309D02*
X58229522Y-97861309D01*
X58229522Y-97861309D02*
X58158094Y-97885119D01*
X58158094Y-97885119D02*
X58110475Y-97932738D01*
X58110475Y-97932738D02*
X58086665Y-97980357D01*
X58086665Y-97980357D02*
X58062856Y-98075595D01*
X58062856Y-98075595D02*
X58062856Y-98147023D01*
X58062856Y-98147023D02*
X58086665Y-98242261D01*
X58086665Y-98242261D02*
X58110475Y-98289880D01*
X58110475Y-98289880D02*
X58158094Y-98337500D01*
X58158094Y-98337500D02*
X58229522Y-98361309D01*
X58229522Y-98361309D02*
X58348570Y-98361309D01*
X57872379Y-97908928D02*
X57848570Y-97885119D01*
X57848570Y-97885119D02*
X57800951Y-97861309D01*
X57800951Y-97861309D02*
X57681903Y-97861309D01*
X57681903Y-97861309D02*
X57634284Y-97885119D01*
X57634284Y-97885119D02*
X57610475Y-97908928D01*
X57610475Y-97908928D02*
X57586665Y-97956547D01*
X57586665Y-97956547D02*
X57586665Y-98004166D01*
X57586665Y-98004166D02*
X57610475Y-98075595D01*
X57610475Y-98075595D02*
X57896189Y-98361309D01*
X57896189Y-98361309D02*
X57586665Y-98361309D01*
X57158094Y-98027976D02*
X57158094Y-98361309D01*
X57277142Y-97837500D02*
X57396189Y-98194642D01*
X57396189Y-98194642D02*
X57086666Y-98194642D01*
X95000118Y-85291309D02*
X95238213Y-85291309D01*
X95238213Y-85291309D02*
X95238213Y-84791309D01*
X94833451Y-85029404D02*
X94666784Y-85029404D01*
X94595356Y-85291309D02*
X94833451Y-85291309D01*
X94833451Y-85291309D02*
X94833451Y-84791309D01*
X94833451Y-84791309D02*
X94595356Y-84791309D01*
X94381070Y-85291309D02*
X94381070Y-84791309D01*
X94381070Y-84791309D02*
X94262022Y-84791309D01*
X94262022Y-84791309D02*
X94190594Y-84815119D01*
X94190594Y-84815119D02*
X94142975Y-84862738D01*
X94142975Y-84862738D02*
X94119165Y-84910357D01*
X94119165Y-84910357D02*
X94095356Y-85005595D01*
X94095356Y-85005595D02*
X94095356Y-85077023D01*
X94095356Y-85077023D02*
X94119165Y-85172261D01*
X94119165Y-85172261D02*
X94142975Y-85219880D01*
X94142975Y-85219880D02*
X94190594Y-85267500D01*
X94190594Y-85267500D02*
X94262022Y-85291309D01*
X94262022Y-85291309D02*
X94381070Y-85291309D01*
X93904879Y-84838928D02*
X93881070Y-84815119D01*
X93881070Y-84815119D02*
X93833451Y-84791309D01*
X93833451Y-84791309D02*
X93714403Y-84791309D01*
X93714403Y-84791309D02*
X93666784Y-84815119D01*
X93666784Y-84815119D02*
X93642975Y-84838928D01*
X93642975Y-84838928D02*
X93619165Y-84886547D01*
X93619165Y-84886547D02*
X93619165Y-84934166D01*
X93619165Y-84934166D02*
X93642975Y-85005595D01*
X93642975Y-85005595D02*
X93928689Y-85291309D01*
X93928689Y-85291309D02*
X93619165Y-85291309D01*
X93381070Y-85291309D02*
X93285832Y-85291309D01*
X93285832Y-85291309D02*
X93238213Y-85267500D01*
X93238213Y-85267500D02*
X93214404Y-85243690D01*
X93214404Y-85243690D02*
X93166785Y-85172261D01*
X93166785Y-85172261D02*
X93142975Y-85077023D01*
X93142975Y-85077023D02*
X93142975Y-84886547D01*
X93142975Y-84886547D02*
X93166785Y-84838928D01*
X93166785Y-84838928D02*
X93190594Y-84815119D01*
X93190594Y-84815119D02*
X93238213Y-84791309D01*
X93238213Y-84791309D02*
X93333451Y-84791309D01*
X93333451Y-84791309D02*
X93381070Y-84815119D01*
X93381070Y-84815119D02*
X93404880Y-84838928D01*
X93404880Y-84838928D02*
X93428689Y-84886547D01*
X93428689Y-84886547D02*
X93428689Y-85005595D01*
X93428689Y-85005595D02*
X93404880Y-85053214D01*
X93404880Y-85053214D02*
X93381070Y-85077023D01*
X93381070Y-85077023D02*
X93333451Y-85100833D01*
X93333451Y-85100833D02*
X93238213Y-85100833D01*
X93238213Y-85100833D02*
X93190594Y-85077023D01*
X93190594Y-85077023D02*
X93166785Y-85053214D01*
X93166785Y-85053214D02*
X93142975Y-85005595D01*
X58947618Y-85291309D02*
X59185713Y-85291309D01*
X59185713Y-85291309D02*
X59185713Y-84791309D01*
X58780951Y-85029404D02*
X58614284Y-85029404D01*
X58542856Y-85291309D02*
X58780951Y-85291309D01*
X58780951Y-85291309D02*
X58780951Y-84791309D01*
X58780951Y-84791309D02*
X58542856Y-84791309D01*
X58328570Y-85291309D02*
X58328570Y-84791309D01*
X58328570Y-84791309D02*
X58209522Y-84791309D01*
X58209522Y-84791309D02*
X58138094Y-84815119D01*
X58138094Y-84815119D02*
X58090475Y-84862738D01*
X58090475Y-84862738D02*
X58066665Y-84910357D01*
X58066665Y-84910357D02*
X58042856Y-85005595D01*
X58042856Y-85005595D02*
X58042856Y-85077023D01*
X58042856Y-85077023D02*
X58066665Y-85172261D01*
X58066665Y-85172261D02*
X58090475Y-85219880D01*
X58090475Y-85219880D02*
X58138094Y-85267500D01*
X58138094Y-85267500D02*
X58209522Y-85291309D01*
X58209522Y-85291309D02*
X58328570Y-85291309D01*
X57852379Y-84838928D02*
X57828570Y-84815119D01*
X57828570Y-84815119D02*
X57780951Y-84791309D01*
X57780951Y-84791309D02*
X57661903Y-84791309D01*
X57661903Y-84791309D02*
X57614284Y-84815119D01*
X57614284Y-84815119D02*
X57590475Y-84838928D01*
X57590475Y-84838928D02*
X57566665Y-84886547D01*
X57566665Y-84886547D02*
X57566665Y-84934166D01*
X57566665Y-84934166D02*
X57590475Y-85005595D01*
X57590475Y-85005595D02*
X57876189Y-85291309D01*
X57876189Y-85291309D02*
X57566665Y-85291309D01*
X57376189Y-84838928D02*
X57352380Y-84815119D01*
X57352380Y-84815119D02*
X57304761Y-84791309D01*
X57304761Y-84791309D02*
X57185713Y-84791309D01*
X57185713Y-84791309D02*
X57138094Y-84815119D01*
X57138094Y-84815119D02*
X57114285Y-84838928D01*
X57114285Y-84838928D02*
X57090475Y-84886547D01*
X57090475Y-84886547D02*
X57090475Y-84934166D01*
X57090475Y-84934166D02*
X57114285Y-85005595D01*
X57114285Y-85005595D02*
X57399999Y-85291309D01*
X57399999Y-85291309D02*
X57090475Y-85291309D01*
X95449269Y-144342311D02*
X95679251Y-144403935D01*
X95679251Y-144403935D02*
X95808661Y-143920972D01*
X95356067Y-144046194D02*
X95195080Y-144003057D01*
X95058299Y-144237551D02*
X95288281Y-144299175D01*
X95288281Y-144299175D02*
X95417691Y-143816212D01*
X95417691Y-143816212D02*
X95187709Y-143754588D01*
X94851315Y-144182090D02*
X94980724Y-143699127D01*
X94980724Y-143699127D02*
X94865733Y-143668315D01*
X94865733Y-143668315D02*
X94790576Y-143672826D01*
X94790576Y-143672826D02*
X94732255Y-143706498D01*
X94732255Y-143706498D02*
X94696932Y-143746332D01*
X94696932Y-143746332D02*
X94649284Y-143832163D01*
X94649284Y-143832163D02*
X94630797Y-143901157D01*
X94630797Y-143901157D02*
X94629146Y-143999313D01*
X94629146Y-143999313D02*
X94639820Y-144051471D01*
X94639820Y-144051471D02*
X94673491Y-144109793D01*
X94673491Y-144109793D02*
X94736324Y-144151278D01*
X94736324Y-144151278D02*
X94851315Y-144182090D01*
X94543758Y-143582042D02*
X94244781Y-143501931D01*
X94244781Y-143501931D02*
X94356470Y-143729054D01*
X94356470Y-143729054D02*
X94287475Y-143710567D01*
X94287475Y-143710567D02*
X94235316Y-143721240D01*
X94235316Y-143721240D02*
X94206156Y-143738076D01*
X94206156Y-143738076D02*
X94170833Y-143777910D01*
X94170833Y-143777910D02*
X94140021Y-143892901D01*
X94140021Y-143892901D02*
X94150694Y-143945060D01*
X94150694Y-143945060D02*
X94167530Y-143974221D01*
X94167530Y-143974221D02*
X94207364Y-144009544D01*
X94207364Y-144009544D02*
X94345354Y-144046518D01*
X94345354Y-144046518D02*
X94397513Y-144035844D01*
X94397513Y-144035844D02*
X94426673Y-144019008D01*
X94048471Y-143498629D02*
X94031635Y-143469469D01*
X94031635Y-143469469D02*
X93991801Y-143434146D01*
X93991801Y-143434146D02*
X93876810Y-143403334D01*
X93876810Y-143403334D02*
X93824651Y-143414007D01*
X93824651Y-143414007D02*
X93795490Y-143430843D01*
X93795490Y-143430843D02*
X93760167Y-143470677D01*
X93760167Y-143470677D02*
X93747843Y-143516674D01*
X93747843Y-143516674D02*
X93752354Y-143591831D01*
X93752354Y-143591831D02*
X93954384Y-143941758D01*
X93954384Y-143941758D02*
X93655407Y-143861647D01*
X112927618Y-87701309D02*
X113165713Y-87701309D01*
X113165713Y-87701309D02*
X113165713Y-87201309D01*
X112760951Y-87439404D02*
X112594284Y-87439404D01*
X112522856Y-87701309D02*
X112760951Y-87701309D01*
X112760951Y-87701309D02*
X112760951Y-87201309D01*
X112760951Y-87201309D02*
X112522856Y-87201309D01*
X112308570Y-87701309D02*
X112308570Y-87201309D01*
X112308570Y-87201309D02*
X112189522Y-87201309D01*
X112189522Y-87201309D02*
X112118094Y-87225119D01*
X112118094Y-87225119D02*
X112070475Y-87272738D01*
X112070475Y-87272738D02*
X112046665Y-87320357D01*
X112046665Y-87320357D02*
X112022856Y-87415595D01*
X112022856Y-87415595D02*
X112022856Y-87487023D01*
X112022856Y-87487023D02*
X112046665Y-87582261D01*
X112046665Y-87582261D02*
X112070475Y-87629880D01*
X112070475Y-87629880D02*
X112118094Y-87677500D01*
X112118094Y-87677500D02*
X112189522Y-87701309D01*
X112189522Y-87701309D02*
X112308570Y-87701309D01*
X111856189Y-87201309D02*
X111546665Y-87201309D01*
X111546665Y-87201309D02*
X111713332Y-87391785D01*
X111713332Y-87391785D02*
X111641903Y-87391785D01*
X111641903Y-87391785D02*
X111594284Y-87415595D01*
X111594284Y-87415595D02*
X111570475Y-87439404D01*
X111570475Y-87439404D02*
X111546665Y-87487023D01*
X111546665Y-87487023D02*
X111546665Y-87606071D01*
X111546665Y-87606071D02*
X111570475Y-87653690D01*
X111570475Y-87653690D02*
X111594284Y-87677500D01*
X111594284Y-87677500D02*
X111641903Y-87701309D01*
X111641903Y-87701309D02*
X111784760Y-87701309D01*
X111784760Y-87701309D02*
X111832379Y-87677500D01*
X111832379Y-87677500D02*
X111856189Y-87653690D01*
X111379999Y-87201309D02*
X111070475Y-87201309D01*
X111070475Y-87201309D02*
X111237142Y-87391785D01*
X111237142Y-87391785D02*
X111165713Y-87391785D01*
X111165713Y-87391785D02*
X111118094Y-87415595D01*
X111118094Y-87415595D02*
X111094285Y-87439404D01*
X111094285Y-87439404D02*
X111070475Y-87487023D01*
X111070475Y-87487023D02*
X111070475Y-87606071D01*
X111070475Y-87606071D02*
X111094285Y-87653690D01*
X111094285Y-87653690D02*
X111118094Y-87677500D01*
X111118094Y-87677500D02*
X111165713Y-87701309D01*
X111165713Y-87701309D02*
X111308570Y-87701309D01*
X111308570Y-87701309D02*
X111356189Y-87677500D01*
X111356189Y-87677500D02*
X111379999Y-87653690D01*
X58963618Y-119275309D02*
X59201713Y-119275309D01*
X59201713Y-119275309D02*
X59201713Y-118775309D01*
X58796951Y-119013404D02*
X58630284Y-119013404D01*
X58558856Y-119275309D02*
X58796951Y-119275309D01*
X58796951Y-119275309D02*
X58796951Y-118775309D01*
X58796951Y-118775309D02*
X58558856Y-118775309D01*
X58344570Y-119275309D02*
X58344570Y-118775309D01*
X58344570Y-118775309D02*
X58225522Y-118775309D01*
X58225522Y-118775309D02*
X58154094Y-118799119D01*
X58154094Y-118799119D02*
X58106475Y-118846738D01*
X58106475Y-118846738D02*
X58082665Y-118894357D01*
X58082665Y-118894357D02*
X58058856Y-118989595D01*
X58058856Y-118989595D02*
X58058856Y-119061023D01*
X58058856Y-119061023D02*
X58082665Y-119156261D01*
X58082665Y-119156261D02*
X58106475Y-119203880D01*
X58106475Y-119203880D02*
X58154094Y-119251500D01*
X58154094Y-119251500D02*
X58225522Y-119275309D01*
X58225522Y-119275309D02*
X58344570Y-119275309D01*
X57868379Y-118822928D02*
X57844570Y-118799119D01*
X57844570Y-118799119D02*
X57796951Y-118775309D01*
X57796951Y-118775309D02*
X57677903Y-118775309D01*
X57677903Y-118775309D02*
X57630284Y-118799119D01*
X57630284Y-118799119D02*
X57606475Y-118822928D01*
X57606475Y-118822928D02*
X57582665Y-118870547D01*
X57582665Y-118870547D02*
X57582665Y-118918166D01*
X57582665Y-118918166D02*
X57606475Y-118989595D01*
X57606475Y-118989595D02*
X57892189Y-119275309D01*
X57892189Y-119275309D02*
X57582665Y-119275309D01*
X57415999Y-118775309D02*
X57106475Y-118775309D01*
X57106475Y-118775309D02*
X57273142Y-118965785D01*
X57273142Y-118965785D02*
X57201713Y-118965785D01*
X57201713Y-118965785D02*
X57154094Y-118989595D01*
X57154094Y-118989595D02*
X57130285Y-119013404D01*
X57130285Y-119013404D02*
X57106475Y-119061023D01*
X57106475Y-119061023D02*
X57106475Y-119180071D01*
X57106475Y-119180071D02*
X57130285Y-119227690D01*
X57130285Y-119227690D02*
X57154094Y-119251500D01*
X57154094Y-119251500D02*
X57201713Y-119275309D01*
X57201713Y-119275309D02*
X57344570Y-119275309D01*
X57344570Y-119275309D02*
X57392189Y-119251500D01*
X57392189Y-119251500D02*
X57415999Y-119227690D01*
X76947618Y-82901309D02*
X77185713Y-82901309D01*
X77185713Y-82901309D02*
X77185713Y-82401309D01*
X76780951Y-82639404D02*
X76614284Y-82639404D01*
X76542856Y-82901309D02*
X76780951Y-82901309D01*
X76780951Y-82901309D02*
X76780951Y-82401309D01*
X76780951Y-82401309D02*
X76542856Y-82401309D01*
X76328570Y-82901309D02*
X76328570Y-82401309D01*
X76328570Y-82401309D02*
X76209522Y-82401309D01*
X76209522Y-82401309D02*
X76138094Y-82425119D01*
X76138094Y-82425119D02*
X76090475Y-82472738D01*
X76090475Y-82472738D02*
X76066665Y-82520357D01*
X76066665Y-82520357D02*
X76042856Y-82615595D01*
X76042856Y-82615595D02*
X76042856Y-82687023D01*
X76042856Y-82687023D02*
X76066665Y-82782261D01*
X76066665Y-82782261D02*
X76090475Y-82829880D01*
X76090475Y-82829880D02*
X76138094Y-82877500D01*
X76138094Y-82877500D02*
X76209522Y-82901309D01*
X76209522Y-82901309D02*
X76328570Y-82901309D01*
X75852379Y-82448928D02*
X75828570Y-82425119D01*
X75828570Y-82425119D02*
X75780951Y-82401309D01*
X75780951Y-82401309D02*
X75661903Y-82401309D01*
X75661903Y-82401309D02*
X75614284Y-82425119D01*
X75614284Y-82425119D02*
X75590475Y-82448928D01*
X75590475Y-82448928D02*
X75566665Y-82496547D01*
X75566665Y-82496547D02*
X75566665Y-82544166D01*
X75566665Y-82544166D02*
X75590475Y-82615595D01*
X75590475Y-82615595D02*
X75876189Y-82901309D01*
X75876189Y-82901309D02*
X75566665Y-82901309D01*
X75114285Y-82401309D02*
X75352380Y-82401309D01*
X75352380Y-82401309D02*
X75376189Y-82639404D01*
X75376189Y-82639404D02*
X75352380Y-82615595D01*
X75352380Y-82615595D02*
X75304761Y-82591785D01*
X75304761Y-82591785D02*
X75185713Y-82591785D01*
X75185713Y-82591785D02*
X75138094Y-82615595D01*
X75138094Y-82615595D02*
X75114285Y-82639404D01*
X75114285Y-82639404D02*
X75090475Y-82687023D01*
X75090475Y-82687023D02*
X75090475Y-82806071D01*
X75090475Y-82806071D02*
X75114285Y-82853690D01*
X75114285Y-82853690D02*
X75138094Y-82877500D01*
X75138094Y-82877500D02*
X75185713Y-82901309D01*
X75185713Y-82901309D02*
X75304761Y-82901309D01*
X75304761Y-82901309D02*
X75352380Y-82877500D01*
X75352380Y-82877500D02*
X75376189Y-82853690D01*
X112925118Y-100751309D02*
X113163213Y-100751309D01*
X113163213Y-100751309D02*
X113163213Y-100251309D01*
X112758451Y-100489404D02*
X112591784Y-100489404D01*
X112520356Y-100751309D02*
X112758451Y-100751309D01*
X112758451Y-100751309D02*
X112758451Y-100251309D01*
X112758451Y-100251309D02*
X112520356Y-100251309D01*
X112306070Y-100751309D02*
X112306070Y-100251309D01*
X112306070Y-100251309D02*
X112187022Y-100251309D01*
X112187022Y-100251309D02*
X112115594Y-100275119D01*
X112115594Y-100275119D02*
X112067975Y-100322738D01*
X112067975Y-100322738D02*
X112044165Y-100370357D01*
X112044165Y-100370357D02*
X112020356Y-100465595D01*
X112020356Y-100465595D02*
X112020356Y-100537023D01*
X112020356Y-100537023D02*
X112044165Y-100632261D01*
X112044165Y-100632261D02*
X112067975Y-100679880D01*
X112067975Y-100679880D02*
X112115594Y-100727500D01*
X112115594Y-100727500D02*
X112187022Y-100751309D01*
X112187022Y-100751309D02*
X112306070Y-100751309D01*
X111853689Y-100251309D02*
X111544165Y-100251309D01*
X111544165Y-100251309D02*
X111710832Y-100441785D01*
X111710832Y-100441785D02*
X111639403Y-100441785D01*
X111639403Y-100441785D02*
X111591784Y-100465595D01*
X111591784Y-100465595D02*
X111567975Y-100489404D01*
X111567975Y-100489404D02*
X111544165Y-100537023D01*
X111544165Y-100537023D02*
X111544165Y-100656071D01*
X111544165Y-100656071D02*
X111567975Y-100703690D01*
X111567975Y-100703690D02*
X111591784Y-100727500D01*
X111591784Y-100727500D02*
X111639403Y-100751309D01*
X111639403Y-100751309D02*
X111782260Y-100751309D01*
X111782260Y-100751309D02*
X111829879Y-100727500D01*
X111829879Y-100727500D02*
X111853689Y-100703690D01*
X111115594Y-100417976D02*
X111115594Y-100751309D01*
X111234642Y-100227500D02*
X111353689Y-100584642D01*
X111353689Y-100584642D02*
X111044166Y-100584642D01*
D10*
X37320000Y-141600000D02*
X37320000Y-141000000D01*
X37320000Y-138100000D02*
X37320000Y-138800000D01*
X43320000Y-138100000D02*
X43320000Y-138800000D01*
X37320000Y-138100000D02*
X43220000Y-138100000D01*
X43320000Y-141600000D02*
X43320000Y-141000000D01*
X43320000Y-141600000D02*
X37320000Y-141600000D01*
X37320000Y-138100000D02*
X43320000Y-138100000D01*
X37109360Y-143751568D02*
X36309360Y-143751568D01*
X36309360Y-143651568D01*
X37109360Y-143651568D01*
X37109360Y-143751568D01*
G36*
X37109360Y-143751568D02*
G01*
X36309360Y-143751568D01*
X36309360Y-143651568D01*
X37109360Y-143651568D01*
X37109360Y-143751568D01*
G37*
X36409360Y-144151568D02*
X36309360Y-144151568D01*
X36309360Y-143651568D01*
X36409360Y-143651568D01*
X36409360Y-144151568D01*
G36*
X36409360Y-144151568D02*
G01*
X36309360Y-144151568D01*
X36309360Y-143651568D01*
X36409360Y-143651568D01*
X36409360Y-144151568D01*
G37*
X36609360Y-144151568D02*
X36309360Y-144151568D01*
X36309360Y-144051568D01*
X36609360Y-144051568D01*
X36609360Y-144151568D01*
G36*
X36609360Y-144151568D02*
G01*
X36309360Y-144151568D01*
X36309360Y-144051568D01*
X36609360Y-144051568D01*
X36609360Y-144151568D01*
G37*
X37109360Y-144151568D02*
X36909360Y-144151568D01*
X36909360Y-144051568D01*
X37109360Y-144051568D01*
X37109360Y-144151568D01*
G36*
X37109360Y-144151568D02*
G01*
X36909360Y-144151568D01*
X36909360Y-144051568D01*
X37109360Y-144051568D01*
X37109360Y-144151568D01*
G37*
X36809360Y-143951568D02*
X36709360Y-143951568D01*
X36709360Y-143851568D01*
X36809360Y-143851568D01*
X36809360Y-143951568D01*
G36*
X36809360Y-143951568D02*
G01*
X36709360Y-143951568D01*
X36709360Y-143851568D01*
X36809360Y-143851568D01*
X36809360Y-143951568D01*
G37*
D12*
X60910000Y-130330000D02*
X60910000Y-148110000D01*
X27890000Y-130330000D02*
X30430000Y-130330000D01*
X27890000Y-148110000D02*
X27890000Y-130330000D01*
X60910000Y-148110000D02*
X30430000Y-148110000D01*
X30430000Y-130330000D02*
X60910000Y-130330000D01*
X30430000Y-132870000D02*
X32970000Y-132870000D01*
X30430000Y-132870000D02*
X30430000Y-130330000D01*
X32970000Y-132870000D02*
X32970000Y-130330000D01*
X30430000Y-148110000D02*
X27890000Y-148110000D01*
D10*
X126070000Y-124540000D02*
X126070000Y-130540000D01*
X114070000Y-124540000D02*
X126070000Y-124540000D01*
X126070000Y-130540000D02*
X114070000Y-130540000D01*
X114070000Y-130540000D02*
X114070000Y-124540000D01*
X48310000Y-87990000D02*
X49710000Y-87990000D01*
X49010000Y-87990000D02*
X48310000Y-87090000D01*
X48310000Y-87090000D02*
X49710000Y-87090000D01*
X49710000Y-87090000D02*
X49010000Y-87990000D01*
X106041000Y-92876500D02*
X106041000Y-96821500D01*
X106041000Y-96830500D02*
X109651000Y-96830500D01*
X116941000Y-90922500D02*
X108316000Y-90922500D01*
X116941000Y-94830500D02*
X116941000Y-90922500D01*
X116941000Y-94876500D02*
X111891000Y-94922500D01*
X108316000Y-90922501D02*
G75*
G03*
X106052001Y-92806500I-190000J-2073999D01*
G01*
X111916000Y-94926501D02*
G75*
G03*
X109656001Y-96806499I-190001J-2069997D01*
G01*
X84020000Y-83850000D02*
X85420000Y-83850000D01*
X84720000Y-83850000D02*
X84020000Y-82950000D01*
X84020000Y-82950000D02*
X85420000Y-82950000D01*
X85420000Y-82950000D02*
X84720000Y-83850000D01*
X85980000Y-83829999D02*
X87380000Y-83829999D01*
X86680000Y-83829999D02*
X85980000Y-82929999D01*
X85980000Y-82929999D02*
X87380000Y-82929999D01*
X87380000Y-82929999D02*
X86680000Y-83829999D01*
X88070500Y-107481500D02*
X88070500Y-111426500D01*
X88070500Y-111435500D02*
X91680500Y-111435500D01*
X98970500Y-105527500D02*
X90345500Y-105527500D01*
X98970500Y-109435500D02*
X98970500Y-105527500D01*
X98970500Y-109481500D02*
X93920500Y-109527500D01*
X90345500Y-105527501D02*
G75*
G03*
X88081501Y-107411500I-190000J-2073999D01*
G01*
X93945500Y-109531501D02*
G75*
G03*
X91685501Y-111411499I-190001J-2069997D01*
G01*
X46650000Y-104560000D02*
X48050000Y-104560000D01*
X47350000Y-104560000D02*
X46650000Y-103660000D01*
X46650000Y-103660000D02*
X48050000Y-103660000D01*
X48050000Y-103660000D02*
X47350000Y-104560000D01*
X106041000Y-109894500D02*
X106041000Y-113839500D01*
X106041000Y-113848500D02*
X109651000Y-113848500D01*
X116941000Y-107940500D02*
X108316000Y-107940500D01*
X116941000Y-111848500D02*
X116941000Y-107940500D01*
X116941000Y-111894500D02*
X111891000Y-111940500D01*
X108316000Y-107940501D02*
G75*
G03*
X106052001Y-109824500I-190000J-2073999D01*
G01*
X111916000Y-111944501D02*
G75*
G03*
X109656001Y-113824499I-190001J-2069997D01*
G01*
X75780000Y-149730000D02*
X75780000Y-148330000D01*
X75780000Y-149030000D02*
X74880000Y-149730000D01*
X74880000Y-149730000D02*
X74880000Y-148330000D01*
X74880000Y-148330000D02*
X75780000Y-149030000D01*
X90930625Y-135023964D02*
X89909584Y-138834541D01*
X89907254Y-138843234D02*
X93394247Y-139777571D01*
X101964949Y-135957672D02*
X93633838Y-133725358D01*
X100953484Y-139732510D02*
X101964949Y-135957672D01*
X100941578Y-139776943D02*
X96051747Y-138514339D01*
X93633838Y-133725357D02*
G75*
G03*
X90959367Y-134959196I-720316J-1954155D01*
G01*
X96074860Y-138524674D02*
G75*
G03*
X93405289Y-139755682I-719282J-1950288D01*
G01*
X62520000Y-145210000D02*
X62520000Y-135050000D01*
X65060000Y-145210000D02*
X62520000Y-145210000D01*
X62520000Y-135050000D02*
X65060000Y-135050000D01*
X65060000Y-135050000D02*
X65060000Y-145210000D01*
X103680000Y-103119999D02*
X105080000Y-103119999D01*
X104380000Y-103119999D02*
X103680000Y-102219999D01*
X103680000Y-102219999D02*
X105080000Y-102219999D01*
X105080000Y-102219999D02*
X104380000Y-103119999D01*
X52066000Y-107481500D02*
X52066000Y-111426500D01*
X52066000Y-111435500D02*
X55676000Y-111435500D01*
X62966000Y-105527500D02*
X54341000Y-105527500D01*
X62966000Y-109435500D02*
X62966000Y-105527500D01*
X62966000Y-109481500D02*
X57916000Y-109527500D01*
X54341000Y-105527501D02*
G75*
G03*
X52077001Y-107411500I-190000J-2073999D01*
G01*
X57941000Y-109531501D02*
G75*
G03*
X55681001Y-111411499I-190001J-2069997D01*
G01*
X70036500Y-88114000D02*
X70036500Y-92059000D01*
X70036500Y-92068000D02*
X73646500Y-92068000D01*
X80936500Y-86160000D02*
X72311500Y-86160000D01*
X80936500Y-90068000D02*
X80936500Y-86160000D01*
X80936500Y-90114000D02*
X75886500Y-90160000D01*
X72311500Y-86160001D02*
G75*
G03*
X70047501Y-88044000I-190000J-2073999D01*
G01*
X75911500Y-90164001D02*
G75*
G03*
X73651501Y-92043999I-190001J-2069997D01*
G01*
X34032000Y-112244000D02*
X34032000Y-116189000D01*
X34032000Y-116198000D02*
X37642000Y-116198000D01*
X44932000Y-110290000D02*
X36307000Y-110290000D01*
X44932000Y-114198000D02*
X44932000Y-110290000D01*
X44932000Y-114244000D02*
X39882000Y-114290000D01*
X36307000Y-110290001D02*
G75*
G03*
X34043001Y-112174000I-190000J-2073999D01*
G01*
X39907000Y-114294001D02*
G75*
G03*
X37647001Y-116173999I-190001J-2069997D01*
G01*
X113982245Y-137466277D02*
X112009745Y-140882747D01*
X112005245Y-140890541D02*
X115131597Y-142695541D01*
X124398922Y-141224063D02*
X116929453Y-136911563D01*
X122444922Y-144608490D02*
X124398922Y-141224063D01*
X122421922Y-144648328D02*
X118025494Y-142163165D01*
X116929453Y-136911563D02*
G75*
G03*
X114026771Y-137411155I-1201545J-1701137D01*
G01*
X118045144Y-142179129D02*
G75*
G03*
X115147929Y-142677257I-1199544J-1697670D01*
G01*
X106041000Y-75922000D02*
X106041000Y-79867000D01*
X106041000Y-79876000D02*
X109651000Y-79876000D01*
X116941000Y-73968000D02*
X108316000Y-73968000D01*
X116941000Y-77876000D02*
X116941000Y-73968000D01*
X116941000Y-77922000D02*
X111891000Y-77968000D01*
X108316000Y-73968001D02*
G75*
G03*
X106052001Y-75852000I-190000J-2073999D01*
G01*
X111916000Y-77972001D02*
G75*
G03*
X109656001Y-79851999I-190001J-2069997D01*
G01*
X85680000Y-100620000D02*
X87080000Y-100620000D01*
X86380000Y-100620000D02*
X85680000Y-99720000D01*
X85680000Y-99720000D02*
X87080000Y-99720000D01*
X87080000Y-99720000D02*
X86380000Y-100620000D01*
D13*
X69010000Y-143910000D02*
X80810000Y-143910000D01*
X69010000Y-139810000D02*
X69010000Y-143910000D01*
X80810000Y-139810000D02*
X80810000Y-143910000D01*
X74910000Y-138310000D02*
X74910000Y-137310000D01*
X74410000Y-137810000D02*
X75410000Y-137810000D01*
X69010000Y-135810000D02*
X69010000Y-131710000D01*
X69010000Y-131710000D02*
X71410000Y-131710000D01*
X73610000Y-131710000D02*
X76210000Y-131710000D01*
X78410000Y-131710000D02*
X80810000Y-131710000D01*
X80810000Y-131710000D02*
X80810000Y-135810000D01*
X77910000Y-137810000D02*
G75*
G03*
X77910000Y-137810000I-3000000J0D01*
G01*
D10*
X83780000Y-100610000D02*
X85180000Y-100610000D01*
X84480000Y-100610000D02*
X83780000Y-99710000D01*
X83780000Y-99710000D02*
X85180000Y-99710000D01*
X85180000Y-99710000D02*
X84480000Y-100610000D01*
X103830000Y-86200000D02*
X105230000Y-86200000D01*
X104530000Y-86200000D02*
X103830000Y-85300000D01*
X103830000Y-85300000D02*
X105230000Y-85300000D01*
X105230000Y-85300000D02*
X104530000Y-86200000D01*
X70036500Y-71096000D02*
X70036500Y-75041000D01*
X70036500Y-75050000D02*
X73646500Y-75050000D01*
X80936500Y-69142000D02*
X72311500Y-69142000D01*
X80936500Y-73050000D02*
X80936500Y-69142000D01*
X80936500Y-73096000D02*
X75886500Y-73142000D01*
X72311500Y-69142001D02*
G75*
G03*
X70047501Y-71026000I-190000J-2073999D01*
G01*
X75911500Y-73146001D02*
G75*
G03*
X73651501Y-75025999I-190001J-2069997D01*
G01*
X46400000Y-87990000D02*
X47800000Y-87990000D01*
X47100000Y-87990000D02*
X46400000Y-87090000D01*
X46400000Y-87090000D02*
X47800000Y-87090000D01*
X47800000Y-87090000D02*
X47100000Y-87990000D01*
X88070500Y-73509000D02*
X88070500Y-77454000D01*
X88070500Y-77463000D02*
X91680500Y-77463000D01*
X98970500Y-71555000D02*
X90345500Y-71555000D01*
X98970500Y-75463000D02*
X98970500Y-71555000D01*
X98970500Y-75509000D02*
X93920500Y-75555000D01*
X90345500Y-71555001D02*
G75*
G03*
X88081501Y-73439000I-190000J-2073999D01*
G01*
X93945500Y-75559001D02*
G75*
G03*
X91685501Y-77438999I-190001J-2069997D01*
G01*
X34032000Y-78271500D02*
X34032000Y-82216500D01*
X34032000Y-82225500D02*
X37642000Y-82225500D01*
X44932000Y-76317500D02*
X36307000Y-76317500D01*
X44932000Y-80225500D02*
X44932000Y-76317500D01*
X44932000Y-80271500D02*
X39882000Y-80317500D01*
X36307000Y-76317501D02*
G75*
G03*
X34043001Y-78201500I-190000J-2073999D01*
G01*
X39907000Y-80321501D02*
G75*
G03*
X37647001Y-82201499I-190001J-2069997D01*
G01*
X48580000Y-104540000D02*
X49980000Y-104540000D01*
X49280000Y-104540000D02*
X48580000Y-103640000D01*
X48580000Y-103640000D02*
X49980000Y-103640000D01*
X49980000Y-103640000D02*
X49280000Y-104540000D01*
X85800000Y-118899999D02*
X87200000Y-118899999D01*
X86500000Y-118899999D02*
X85800000Y-117999999D01*
X85800000Y-117999999D02*
X87200000Y-117999999D01*
X87200000Y-117999999D02*
X86500000Y-118899999D01*
X85800000Y-145460000D02*
X87200000Y-145460000D01*
X86500000Y-145460000D02*
X85800000Y-144560000D01*
X85800000Y-144560000D02*
X87200000Y-144560000D01*
X87200000Y-144560000D02*
X86500000Y-145460000D01*
X70100000Y-105132000D02*
X70100000Y-109077000D01*
X70100000Y-109086000D02*
X73710000Y-109086000D01*
X81000000Y-103178000D02*
X72375000Y-103178000D01*
X81000000Y-107086000D02*
X81000000Y-103178000D01*
X81000000Y-107132000D02*
X75950000Y-107178000D01*
X72375000Y-103178001D02*
G75*
G03*
X70111001Y-105062000I-190000J-2073999D01*
G01*
X75975000Y-107182001D02*
G75*
G03*
X73715001Y-109061999I-190001J-2069997D01*
G01*
X34032000Y-95226000D02*
X34032000Y-99171000D01*
X34032000Y-99180000D02*
X37642000Y-99180000D01*
X44932000Y-93272000D02*
X36307000Y-93272000D01*
X44932000Y-97180000D02*
X44932000Y-93272000D01*
X44932000Y-97226000D02*
X39882000Y-97272000D01*
X36307000Y-93272001D02*
G75*
G03*
X34043001Y-95156000I-190000J-2073999D01*
G01*
X39907000Y-97276001D02*
G75*
G03*
X37647001Y-99155999I-190001J-2069997D01*
G01*
X47530000Y-123860000D02*
X48930000Y-123860000D01*
X48230000Y-123860000D02*
X47530000Y-122960000D01*
X47530000Y-122960000D02*
X48930000Y-122960000D01*
X48930000Y-122960000D02*
X48230000Y-123860000D01*
X52066000Y-73509000D02*
X52066000Y-77454000D01*
X52066000Y-77463000D02*
X55676000Y-77463000D01*
X62966000Y-71555000D02*
X54341000Y-71555000D01*
X62966000Y-75463000D02*
X62966000Y-71555000D01*
X62966000Y-75509000D02*
X57916000Y-75555000D01*
X54341000Y-71555001D02*
G75*
G03*
X52077001Y-73439000I-190000J-2073999D01*
G01*
X57941000Y-75559001D02*
G75*
G03*
X55681001Y-77438999I-190001J-2069997D01*
G01*
X103530000Y-121380000D02*
X104930000Y-121380000D01*
X104230000Y-121380000D02*
X103530000Y-120480000D01*
X103530000Y-120480000D02*
X104930000Y-120480000D01*
X104930000Y-120480000D02*
X104230000Y-121380000D01*
X88070500Y-90527000D02*
X88070500Y-94472000D01*
X88070500Y-94481000D02*
X91680500Y-94481000D01*
X98970500Y-88573000D02*
X90345500Y-88573000D01*
X98970500Y-92481000D02*
X98970500Y-88573000D01*
X98970500Y-92527000D02*
X93920500Y-92573000D01*
X90345500Y-88573001D02*
G75*
G03*
X88081501Y-90457000I-190000J-2073999D01*
G01*
X93945500Y-92577001D02*
G75*
G03*
X91685501Y-94456999I-190001J-2069997D01*
G01*
X52066000Y-90463500D02*
X52066000Y-94408500D01*
X52066000Y-94417500D02*
X55676000Y-94417500D01*
X62966000Y-88509500D02*
X54341000Y-88509500D01*
X62966000Y-92417500D02*
X62966000Y-88509500D01*
X62966000Y-92463500D02*
X57916000Y-92509500D01*
X54341000Y-88509501D02*
G75*
G03*
X52077001Y-90393500I-190000J-2073999D01*
G01*
X57941000Y-92513501D02*
G75*
G03*
X55681001Y-94393499I-190001J-2069997D01*
G01*
X49550000Y-123820000D02*
X50950000Y-123820000D01*
X50250000Y-123820000D02*
X49550000Y-122920000D01*
X49550000Y-122920000D02*
X50950000Y-122920000D01*
X50950000Y-122920000D02*
X50250000Y-123820000D01*
X104650000Y-148230001D02*
X106050000Y-148230001D01*
X105350000Y-148230001D02*
X104650000Y-147330001D01*
X104650000Y-147330001D02*
X106050000Y-147330001D01*
X106050000Y-147330001D02*
X105350000Y-148230001D01*
X83890000Y-118960000D02*
X85290000Y-118960000D01*
X84590000Y-118960000D02*
X83890000Y-118060000D01*
X83890000Y-118060000D02*
X85290000Y-118060000D01*
X85290000Y-118060000D02*
X84590000Y-118960000D01*
X68770000Y-132970000D02*
X68770000Y-136915000D01*
X68770000Y-136924000D02*
X72380000Y-136924000D01*
X79670000Y-131016000D02*
X71045000Y-131016000D01*
X79670000Y-134924000D02*
X79670000Y-131016000D01*
X79670000Y-134970000D02*
X74620000Y-135016000D01*
X71045000Y-131016001D02*
G75*
G03*
X68781001Y-132900000I-190000J-2073999D01*
G01*
X74645000Y-135020001D02*
G75*
G03*
X72385001Y-136899999I-190001J-2069997D01*
G01*
D14*
X98284000Y-101576000D02*
X97034000Y-101576000D01*
X98284000Y-100426000D01*
X98284000Y-101576000D01*
G36*
X98284000Y-101576000D02*
G01*
X97034000Y-101576000D01*
X98284000Y-100426000D01*
X98284000Y-101576000D01*
G37*
X36070000Y-87510000D02*
X36070000Y-86360000D01*
X37320000Y-86360000D01*
X36070000Y-87510000D01*
G36*
X36070000Y-87510000D02*
G01*
X36070000Y-86360000D01*
X37320000Y-86360000D01*
X36070000Y-87510000D01*
G37*
X79020000Y-143840000D02*
X77770000Y-143840000D01*
X79020000Y-142690000D01*
X79020000Y-143840000D01*
G36*
X79020000Y-143840000D02*
G01*
X77770000Y-143840000D01*
X79020000Y-142690000D01*
X79020000Y-143840000D01*
G37*
X44182000Y-106402000D02*
X42932000Y-106402000D01*
X44182000Y-105252000D01*
X44182000Y-106402000D01*
G36*
X44182000Y-106402000D02*
G01*
X42932000Y-106402000D01*
X44182000Y-105252000D01*
X44182000Y-106402000D01*
G37*
D10*
X109463000Y-131439000D02*
X109463000Y-129661000D01*
X109463000Y-129661000D02*
X107177000Y-129661000D01*
X107177000Y-131439000D02*
X109463000Y-131439000D01*
X107177000Y-129661000D02*
X107177000Y-131439000D01*
X58216620Y-135451000D02*
X58216620Y-137229000D01*
X58216620Y-137229000D02*
X60502620Y-137229000D01*
X60502620Y-135451000D02*
X58216620Y-135451000D01*
X60502620Y-137229000D02*
X60502620Y-135451000D01*
D14*
X117307403Y-152164038D02*
X116224871Y-151539038D01*
X117882403Y-151168109D01*
X117307403Y-152164038D01*
G36*
X117307403Y-152164038D02*
G01*
X116224871Y-151539038D01*
X117882403Y-151168109D01*
X117307403Y-152164038D01*
G37*
D10*
X60533000Y-142439000D02*
X60533000Y-140661000D01*
X60533000Y-140661000D02*
X58247000Y-140661000D01*
X58247000Y-142439000D02*
X60533000Y-142439000D01*
X58247000Y-140661000D02*
X58247000Y-142439000D01*
D14*
X108218000Y-119284000D02*
X108218000Y-118134000D01*
X109468000Y-118134000D01*
X108218000Y-119284000D01*
G36*
X108218000Y-119284000D02*
G01*
X108218000Y-118134000D01*
X109468000Y-118134000D01*
X108218000Y-119284000D01*
G37*
X61968000Y-128562000D02*
X60718000Y-128562000D01*
X61968000Y-127412000D01*
X61968000Y-128562000D01*
G36*
X61968000Y-128562000D02*
G01*
X60718000Y-128562000D01*
X61968000Y-127412000D01*
X61968000Y-128562000D01*
G37*
X80250000Y-99290000D02*
X79000000Y-99290000D01*
X80250000Y-98140000D01*
X80250000Y-99290000D01*
G36*
X80250000Y-99290000D02*
G01*
X79000000Y-99290000D01*
X80250000Y-98140000D01*
X80250000Y-99290000D01*
G37*
X90184000Y-116744000D02*
X90184000Y-115594000D01*
X91434000Y-115594000D01*
X90184000Y-116744000D01*
G36*
X90184000Y-116744000D02*
G01*
X90184000Y-115594000D01*
X91434000Y-115594000D01*
X90184000Y-116744000D01*
G37*
D10*
X109483000Y-129429000D02*
X109483000Y-127651000D01*
X109483000Y-127651000D02*
X107197000Y-127651000D01*
X107197000Y-129429000D02*
X109483000Y-129429000D01*
X107197000Y-127651000D02*
X107197000Y-129429000D01*
X60553000Y-139839000D02*
X60553000Y-138061000D01*
X60553000Y-138061000D02*
X58267000Y-138061000D01*
X58267000Y-139839000D02*
X60553000Y-139839000D01*
X58267000Y-138061000D02*
X58267000Y-139839000D01*
D14*
X72150000Y-114460000D02*
X72150000Y-113310000D01*
X73400000Y-113310000D01*
X72150000Y-114460000D01*
G36*
X72150000Y-114460000D02*
G01*
X72150000Y-113310000D01*
X73400000Y-113310000D01*
X72150000Y-114460000D01*
G37*
X36080000Y-121570000D02*
X36080000Y-120420000D01*
X37330000Y-120420000D01*
X36080000Y-121570000D01*
G36*
X36080000Y-121570000D02*
G01*
X36080000Y-120420000D01*
X37330000Y-120420000D01*
X36080000Y-121570000D01*
G37*
X62220000Y-101580000D02*
X60970000Y-101580000D01*
X62220000Y-100430000D01*
X62220000Y-101580000D01*
G36*
X62220000Y-101580000D02*
G01*
X60970000Y-101580000D01*
X62220000Y-100430000D01*
X62220000Y-101580000D01*
G37*
X90152500Y-82760000D02*
X90152500Y-81610000D01*
X91402500Y-81610000D01*
X90152500Y-82760000D01*
G36*
X90152500Y-82760000D02*
G01*
X90152500Y-81610000D01*
X91402500Y-81610000D01*
X90152500Y-82760000D01*
G37*
X54100000Y-82760000D02*
X54100000Y-81610000D01*
X55350000Y-81610000D01*
X54100000Y-82760000D01*
G36*
X54100000Y-82760000D02*
G01*
X54100000Y-81610000D01*
X55350000Y-81610000D01*
X54100000Y-82760000D01*
G37*
X97757771Y-148293106D02*
X96550364Y-147969582D01*
X98055413Y-147182291D01*
X97757771Y-148293106D01*
G36*
X97757771Y-148293106D02*
G01*
X96550364Y-147969582D01*
X98055413Y-147182291D01*
X97757771Y-148293106D01*
G37*
D10*
X60552620Y-144989000D02*
X60552620Y-143211000D01*
X60552620Y-143211000D02*
X58266620Y-143211000D01*
X58266620Y-144989000D02*
X60552620Y-144989000D01*
X58266620Y-143211000D02*
X58266620Y-144989000D01*
D14*
X108080000Y-85170000D02*
X108080000Y-84020000D01*
X109330000Y-84020000D01*
X108080000Y-85170000D01*
G36*
X108080000Y-85170000D02*
G01*
X108080000Y-84020000D01*
X109330000Y-84020000D01*
X108080000Y-85170000D01*
G37*
X54116000Y-116744000D02*
X54116000Y-115594000D01*
X55366000Y-115594000D01*
X54116000Y-116744000D01*
G36*
X54116000Y-116744000D02*
G01*
X54116000Y-115594000D01*
X55366000Y-115594000D01*
X54116000Y-116744000D01*
G37*
X72100000Y-80370000D02*
X72100000Y-79220000D01*
X73350000Y-79220000D01*
X72100000Y-80370000D01*
G36*
X72100000Y-80370000D02*
G01*
X72100000Y-79220000D01*
X73350000Y-79220000D01*
X72100000Y-80370000D01*
G37*
X116177500Y-103970000D02*
X114927500Y-103970000D01*
X116177500Y-102820000D01*
X116177500Y-103970000D01*
G36*
X116177500Y-103970000D02*
G01*
X114927500Y-103970000D01*
X116177500Y-102820000D01*
X116177500Y-103970000D01*
G37*
D15*
X31700000Y-147068600D03*
X34240000Y-146611400D03*
X36780000Y-147068600D03*
X39320000Y-146611400D03*
X41860000Y-147068600D03*
X44400000Y-146611400D03*
X46940000Y-147068600D03*
X49480000Y-146611400D03*
X52020000Y-147068600D03*
X54560000Y-146611400D03*
X57100000Y-147068600D03*
X59640000Y-146611400D03*
X59640000Y-131828600D03*
X57100000Y-131371400D03*
X54560000Y-131828600D03*
X52020000Y-131371400D03*
X49480000Y-131828600D03*
X46940000Y-131371400D03*
X44400000Y-131828600D03*
X41860000Y-131371400D03*
X39320000Y-131828600D03*
X36780000Y-131371400D03*
X34240000Y-131828600D03*
D16*
X31700000Y-131371400D03*
M02*
