M48
; DRILL file {KiCad 7.0.1} date Thu Jan  2 13:45:08 2025
; FORMAT={-:-/ absolute / metric / decimal}
; #@! TF.CreationDate,2025-01-02T13:45:08+07:00
; #@! TF.GenerationSoftware,Kicad,Pcbnew,7.0.1
; #@! TF.FileFunction,NonPlated,1,2,NPTH
FMAT,2
METRIC
; #@! TA.AperFunction,NonPlated,NPTH,ComponentDrill
T1C1.000
; #@! TA.AperFunction,NonPlated,NPTH,ComponentDrill
T2C1.200
; #@! TA.AperFunction,NonPlated,NPTH,ComponentDrill
T3C1.700
; #@! TA.AperFunction,NonPlated,NPTH,ComponentDrill
T4C3.000
; #@! TA.AperFunction,NonPlated,NPTH,ComponentDrill
T5C4.000
%
G90
G05
T1
X42.94Y-154.42
X49.74Y-154.42
T2
X117.6Y-129.75
X117.6Y-131.5
X124.6Y-129.75
X124.6Y-131.5
T3
X35.052Y-83.121
X35.052Y-102.1
X35.052Y-121.15
X45.212Y-83.121
X45.212Y-102.1
X45.212Y-121.15
X54.12Y-78.35
X54.17Y-97.29
X54.23Y-116.29
X64.28Y-78.35
X64.33Y-97.29
X64.39Y-116.29
X70.32Y-139.61
X73.12Y-76.1
X73.17Y-95.0
X73.21Y-114.08
X80.48Y-139.61
X83.28Y-76.1
X83.33Y-95.0
X83.37Y-114.08
X91.573Y-142.045
X92.13Y-116.33
X92.17Y-97.25
X92.21Y-78.359
X101.387Y-144.675
X102.29Y-116.33
X102.33Y-97.25
X102.37Y-78.359
X111.38Y-81.08
X111.38Y-100.08
X111.38Y-119.08
X113.081Y-144.57
X121.54Y-81.08
X121.54Y-100.08
X121.54Y-119.08
X121.879Y-149.65
T4
X36.322Y-80.581
X36.322Y-99.56
X36.322Y-118.61
X37.592Y-78.041
X37.592Y-97.02
X37.592Y-116.07
X42.672Y-78.041
X42.672Y-97.02
X42.672Y-116.07
X43.942Y-80.581
X43.942Y-99.56
X43.942Y-118.61
X55.39Y-75.81
X55.44Y-94.75
X55.5Y-113.75
X56.66Y-73.27
X56.71Y-92.21
X56.77Y-111.21
X61.74Y-73.27
X61.79Y-92.21
X61.85Y-111.21
X63.01Y-75.81
X63.06Y-94.75
X63.12Y-113.75
X71.59Y-137.07
X72.86Y-134.53
X74.39Y-73.56
X74.44Y-92.46
X74.48Y-111.54
X75.66Y-71.02
X75.71Y-89.92
X75.75Y-109.0
X77.94Y-134.53
X79.21Y-137.07
X80.74Y-71.02
X80.79Y-89.92
X80.83Y-109.0
X82.01Y-73.56
X82.06Y-92.46
X82.1Y-111.54
X93.4Y-113.79
X93.44Y-94.71
X93.457Y-139.92
X93.48Y-75.819
X94.67Y-111.25
X94.71Y-92.17
X94.75Y-73.279
X95.341Y-137.796
X99.75Y-111.25
X99.79Y-92.17
X99.83Y-73.279
X100.248Y-139.11
X100.818Y-141.893
X101.02Y-113.79
X101.06Y-94.71
X101.1Y-75.819
X112.65Y-78.54
X112.65Y-97.54
X112.65Y-116.54
X113.92Y-76.0
X113.92Y-95.0
X113.92Y-114.0
X115.45Y-143.005
X117.82Y-141.441
X119.0Y-76.0
X119.0Y-95.0
X119.0Y-114.0
X120.27Y-78.54
X120.27Y-97.54
X120.27Y-116.54
X122.05Y-146.815
X122.22Y-143.981
T5
X40.132Y-83.121
X40.132Y-102.1
X40.132Y-121.15
X59.2Y-78.35
X59.25Y-97.29
X59.31Y-116.29
X75.4Y-139.61
X78.2Y-76.1
X78.25Y-95.0
X78.29Y-114.08
X96.48Y-143.36
X97.21Y-116.33
X97.25Y-97.25
X97.29Y-78.359
X116.46Y-81.08
X116.46Y-100.08
X116.46Y-119.08
X117.48Y-147.11
T0
M30
