%TF.GenerationSoftware,KiCad,Pcbnew,7.0.1*%
%TF.CreationDate,2024-10-18T16:25:15+07:00*%
%TF.ProjectId,minikeeb,6d696e69-6b65-4656-922e-6b696361645f,rev?*%
%TF.SameCoordinates,Original*%
%TF.FileFunction,Drillmap*%
%TF.FilePolarity,Positive*%
%FSLAX45Y45*%
G04 Gerber Fmt 4.5, Leading zero omitted, Abs format (unit mm)*
G04 Created by KiCad (PCBNEW 7.0.1) date 2024-10-18 16:25:15*
%MOMM*%
%LPD*%
G01*
G04 APERTURE LIST*
%ADD10C,0.200000*%
%ADD11C,0.050000*%
%ADD12C,0.100000*%
%ADD13C,0.120000*%
%ADD14C,0.170000*%
%ADD15C,0.300000*%
%ADD16C,0.400000*%
G04 APERTURE END LIST*
D10*
X3106648Y-7265765D02*
G75*
G03*
X3000612Y-7409178I43960J-143410D01*
G01*
D11*
X3341178Y-9245000D02*
G75*
G03*
X3341178Y-9245000I-101178J0D01*
G01*
D10*
X12608638Y-7240092D02*
G75*
G03*
X12484119Y-7103964I-136678J-8D01*
G01*
D11*
X10141178Y-6780000D02*
G75*
G03*
X10141178Y-6780000I-101178J0D01*
G01*
D10*
X3010000Y-13661000D02*
X3000612Y-7409178D01*
X3006000Y-14583000D02*
X3007066Y-15487934D01*
D11*
X6511178Y-6760000D02*
G75*
G03*
X6511178Y-6760000I-101178J0D01*
G01*
X4251178Y-12935000D02*
G75*
G03*
X4251178Y-12935000I-101178J0D01*
G01*
D10*
X12484119Y-7103964D02*
G75*
G03*
X3106648Y-7265765I-4407611J-16373915D01*
G01*
D11*
X10916178Y-15364000D02*
G75*
G03*
X10916178Y-15364000I-101178J0D01*
G01*
D10*
X3473000Y-13661000D02*
X3473000Y-14583000D01*
X12608631Y-7240092D02*
X12616741Y-13466301D01*
D11*
X12520000Y-10950000D02*
G75*
G03*
X12520000Y-10950000I-101178J0D01*
G01*
X3289178Y-15155000D02*
G75*
G03*
X3289178Y-15155000I-101178J0D01*
G01*
D10*
X3010000Y-13661000D02*
X3473000Y-13661000D01*
X10369000Y-15635959D02*
X3157066Y-15637934D01*
X11973380Y-15977292D02*
X10411358Y-15644522D01*
D11*
X12325178Y-13780000D02*
G75*
G03*
X12325178Y-13780000I-101178J0D01*
G01*
D10*
X12616741Y-13466301D02*
G75*
G03*
X12632566Y-13533359I149999J2D01*
G01*
X3473000Y-14583000D02*
X3006000Y-14583000D01*
X10411358Y-15644522D02*
G75*
G03*
X10369000Y-15635959I-42358J-100478D01*
G01*
X12974771Y-14361412D02*
G75*
G03*
X12977122Y-14222779I-131821J71572D01*
G01*
X3007066Y-15487934D02*
G75*
G03*
X3157066Y-15637934I150004J4D01*
G01*
X12632566Y-13533359D02*
X12977122Y-14222779D01*
X12974768Y-14361411D02*
X12144025Y-15903977D01*
X11973380Y-15977294D02*
G75*
G03*
X12144025Y-15903977I38820J144894D01*
G01*
D12*
X4244000Y-15392000D02*
X4344000Y-15492000D01*
X4344000Y-15392000D02*
X4244000Y-15492000D01*
X4924000Y-15392000D02*
X5024000Y-15492000D01*
X5024000Y-15392000D02*
X4924000Y-15492000D01*
D13*
X11820000Y-12975000D02*
G75*
G03*
X11820000Y-12975000I-60000J0D01*
G01*
X11820000Y-13150000D02*
G75*
G03*
X11820000Y-13150000I-60000J0D01*
G01*
X12520000Y-12975000D02*
G75*
G03*
X12520000Y-12975000I-60000J0D01*
G01*
X12520000Y-13150000D02*
G75*
G03*
X12520000Y-13150000I-60000J0D01*
G01*
D14*
X3505200Y-8227150D02*
X3505200Y-8397150D01*
X3420200Y-8312150D02*
X3590200Y-8312150D01*
X3505200Y-10125000D02*
X3505200Y-10295000D01*
X3420200Y-10210000D02*
X3590200Y-10210000D01*
X3505200Y-11624400D02*
X3505200Y-11794400D01*
X3420200Y-11709400D02*
X3590200Y-11709400D01*
X4521200Y-8227150D02*
X4521200Y-8397150D01*
X4436200Y-8312150D02*
X4606200Y-8312150D01*
X4521200Y-10125000D02*
X4521200Y-10295000D01*
X4436200Y-10210000D02*
X4606200Y-10210000D01*
X4521200Y-11624400D02*
X4521200Y-11794400D01*
X4436200Y-11709400D02*
X4606200Y-11709400D01*
X5412000Y-7750000D02*
X5412000Y-7920000D01*
X5327000Y-7835000D02*
X5497000Y-7835000D01*
X5417000Y-9644000D02*
X5417000Y-9814000D01*
X5332000Y-9729000D02*
X5502000Y-9729000D01*
X5423000Y-11544000D02*
X5423000Y-11714000D01*
X5338000Y-11629000D02*
X5508000Y-11629000D01*
X6428000Y-7750000D02*
X6428000Y-7920000D01*
X6343000Y-7835000D02*
X6513000Y-7835000D01*
X6433000Y-9644000D02*
X6433000Y-9814000D01*
X6348000Y-9729000D02*
X6518000Y-9729000D01*
X6439000Y-11544000D02*
X6439000Y-11714000D01*
X6354000Y-11629000D02*
X6524000Y-11629000D01*
X7032000Y-13876000D02*
X7032000Y-14046000D01*
X6947000Y-13961000D02*
X7117000Y-13961000D01*
X7312000Y-7525000D02*
X7312000Y-7695000D01*
X7227000Y-7610000D02*
X7397000Y-7610000D01*
X7317000Y-9415000D02*
X7317000Y-9585000D01*
X7232000Y-9500000D02*
X7402000Y-9500000D01*
X7321000Y-11323000D02*
X7321000Y-11493000D01*
X7236000Y-11408000D02*
X7406000Y-11408000D01*
X8048000Y-13876000D02*
X8048000Y-14046000D01*
X7963000Y-13961000D02*
X8133000Y-13961000D01*
X8328000Y-7525000D02*
X8328000Y-7695000D01*
X8243000Y-7610000D02*
X8413000Y-7610000D01*
X8333000Y-9415000D02*
X8333000Y-9585000D01*
X8248000Y-9500000D02*
X8418000Y-9500000D01*
X8337000Y-11323000D02*
X8337000Y-11493000D01*
X8252000Y-11408000D02*
X8422000Y-11408000D01*
X9157310Y-14119520D02*
X9157310Y-14289520D01*
X9072310Y-14204520D02*
X9242310Y-14204520D01*
X9213000Y-11548000D02*
X9213000Y-11718000D01*
X9128000Y-11633000D02*
X9298000Y-11633000D01*
X9217000Y-9640000D02*
X9217000Y-9810000D01*
X9132000Y-9725000D02*
X9302000Y-9725000D01*
X9221000Y-7750900D02*
X9221000Y-7920900D01*
X9136000Y-7835900D02*
X9306000Y-7835900D01*
X10138690Y-14382480D02*
X10138690Y-14552480D01*
X10053690Y-14467480D02*
X10223690Y-14467480D01*
X10229000Y-11548000D02*
X10229000Y-11718000D01*
X10144000Y-11633000D02*
X10314000Y-11633000D01*
X10233000Y-9640000D02*
X10233000Y-9810000D01*
X10148000Y-9725000D02*
X10318000Y-9725000D01*
X10237000Y-7750900D02*
X10237000Y-7920900D01*
X10152000Y-7835900D02*
X10322000Y-7835900D01*
X11138000Y-8023000D02*
X11138000Y-8193000D01*
X11053000Y-8108000D02*
X11223000Y-8108000D01*
X11138000Y-9923000D02*
X11138000Y-10093000D01*
X11053000Y-10008000D02*
X11223000Y-10008000D01*
X11138000Y-11823000D02*
X11138000Y-11993000D01*
X11053000Y-11908000D02*
X11223000Y-11908000D01*
X11308059Y-14372000D02*
X11308059Y-14542000D01*
X11223059Y-14457000D02*
X11393059Y-14457000D01*
X12154000Y-8023000D02*
X12154000Y-8193000D01*
X12069000Y-8108000D02*
X12239000Y-8108000D01*
X12154000Y-9923000D02*
X12154000Y-10093000D01*
X12069000Y-10008000D02*
X12239000Y-10008000D01*
X12154000Y-11823000D02*
X12154000Y-11993000D01*
X12069000Y-11908000D02*
X12239000Y-11908000D01*
X12187941Y-14880000D02*
X12187941Y-15050000D01*
X12102941Y-14965000D02*
X12272941Y-14965000D01*
D15*
X3738267Y-8164217D02*
X3738267Y-7952083D01*
X3526133Y-7952083D01*
X3526133Y-8164217D01*
X3738267Y-8164217D01*
X3738267Y-10062067D02*
X3738267Y-9849933D01*
X3526133Y-9849933D01*
X3526133Y-10062067D01*
X3738267Y-10062067D01*
X3738267Y-11561467D02*
X3738267Y-11349333D01*
X3526133Y-11349333D01*
X3526133Y-11561467D01*
X3738267Y-11561467D01*
X3865267Y-7910217D02*
X3865267Y-7698083D01*
X3653133Y-7698083D01*
X3653133Y-7910217D01*
X3865267Y-7910217D01*
X3865267Y-9808067D02*
X3865267Y-9595933D01*
X3653133Y-9595933D01*
X3653133Y-9808067D01*
X3865267Y-9808067D01*
X3865267Y-11307467D02*
X3865267Y-11095333D01*
X3653133Y-11095333D01*
X3653133Y-11307467D01*
X3865267Y-11307467D01*
X4373267Y-7910217D02*
X4373267Y-7698083D01*
X4161133Y-7698083D01*
X4161133Y-7910217D01*
X4373267Y-7910217D01*
X4373267Y-9808067D02*
X4373267Y-9595933D01*
X4161133Y-9595933D01*
X4161133Y-9808067D01*
X4373267Y-9808067D01*
X4373267Y-11307467D02*
X4373267Y-11095333D01*
X4161133Y-11095333D01*
X4161133Y-11307467D01*
X4373267Y-11307467D01*
X4500267Y-8164217D02*
X4500267Y-7952083D01*
X4288133Y-7952083D01*
X4288133Y-8164217D01*
X4500267Y-8164217D01*
X4500267Y-10062067D02*
X4500267Y-9849933D01*
X4288133Y-9849933D01*
X4288133Y-10062067D01*
X4500267Y-10062067D01*
X4500267Y-11561467D02*
X4500267Y-11349333D01*
X4288133Y-11349333D01*
X4288133Y-11561467D01*
X4500267Y-11561467D01*
X5645067Y-7687067D02*
X5645067Y-7474933D01*
X5432933Y-7474933D01*
X5432933Y-7687067D01*
X5645067Y-7687067D01*
X5650067Y-9581067D02*
X5650067Y-9368933D01*
X5437933Y-9368933D01*
X5437933Y-9581067D01*
X5650067Y-9581067D01*
X5656067Y-11481067D02*
X5656067Y-11268933D01*
X5443933Y-11268933D01*
X5443933Y-11481067D01*
X5656067Y-11481067D01*
X5772067Y-7433067D02*
X5772067Y-7220933D01*
X5559933Y-7220933D01*
X5559933Y-7433067D01*
X5772067Y-7433067D01*
X5777067Y-9327067D02*
X5777067Y-9114933D01*
X5564933Y-9114933D01*
X5564933Y-9327067D01*
X5777067Y-9327067D01*
X5783067Y-11227067D02*
X5783067Y-11014933D01*
X5570933Y-11014933D01*
X5570933Y-11227067D01*
X5783067Y-11227067D01*
X6280067Y-7433067D02*
X6280067Y-7220933D01*
X6067933Y-7220933D01*
X6067933Y-7433067D01*
X6280067Y-7433067D01*
X6285067Y-9327067D02*
X6285067Y-9114933D01*
X6072933Y-9114933D01*
X6072933Y-9327067D01*
X6285067Y-9327067D01*
X6291067Y-11227067D02*
X6291067Y-11014933D01*
X6078933Y-11014933D01*
X6078933Y-11227067D01*
X6291067Y-11227067D01*
X6407067Y-7687067D02*
X6407067Y-7474933D01*
X6194933Y-7474933D01*
X6194933Y-7687067D01*
X6407067Y-7687067D01*
X6412067Y-9581067D02*
X6412067Y-9368933D01*
X6199933Y-9368933D01*
X6199933Y-9581067D01*
X6412067Y-9581067D01*
X6418067Y-11481067D02*
X6418067Y-11268933D01*
X6205933Y-11268933D01*
X6205933Y-11481067D01*
X6418067Y-11481067D01*
X7265067Y-13813067D02*
X7265067Y-13600933D01*
X7052933Y-13600933D01*
X7052933Y-13813067D01*
X7265067Y-13813067D01*
X7392067Y-13559067D02*
X7392067Y-13346933D01*
X7179933Y-13346933D01*
X7179933Y-13559067D01*
X7392067Y-13559067D01*
X7545067Y-7462067D02*
X7545067Y-7249933D01*
X7332933Y-7249933D01*
X7332933Y-7462067D01*
X7545067Y-7462067D01*
X7550067Y-9352067D02*
X7550067Y-9139933D01*
X7337933Y-9139933D01*
X7337933Y-9352067D01*
X7550067Y-9352067D01*
X7554067Y-11260067D02*
X7554067Y-11047933D01*
X7341933Y-11047933D01*
X7341933Y-11260067D01*
X7554067Y-11260067D01*
X7672067Y-7208067D02*
X7672067Y-6995933D01*
X7459933Y-6995933D01*
X7459933Y-7208067D01*
X7672067Y-7208067D01*
X7677067Y-9098067D02*
X7677067Y-8885933D01*
X7464933Y-8885933D01*
X7464933Y-9098067D01*
X7677067Y-9098067D01*
X7681067Y-11006067D02*
X7681067Y-10793933D01*
X7468933Y-10793933D01*
X7468933Y-11006067D01*
X7681067Y-11006067D01*
X7900067Y-13559067D02*
X7900067Y-13346933D01*
X7687933Y-13346933D01*
X7687933Y-13559067D01*
X7900067Y-13559067D01*
X8027067Y-13813067D02*
X8027067Y-13600933D01*
X7814933Y-13600933D01*
X7814933Y-13813067D01*
X8027067Y-13813067D01*
X8180067Y-7208067D02*
X8180067Y-6995933D01*
X7967933Y-6995933D01*
X7967933Y-7208067D01*
X8180067Y-7208067D01*
X8185067Y-9098067D02*
X8185067Y-8885933D01*
X7972933Y-8885933D01*
X7972933Y-9098067D01*
X8185067Y-9098067D01*
X8189067Y-11006067D02*
X8189067Y-10793933D01*
X7976933Y-10793933D01*
X7976933Y-11006067D01*
X8189067Y-11006067D01*
X8307067Y-7462067D02*
X8307067Y-7249933D01*
X8094933Y-7249933D01*
X8094933Y-7462067D01*
X8307067Y-7462067D01*
X8312067Y-9352067D02*
X8312067Y-9139933D01*
X8099933Y-9139933D01*
X8099933Y-9352067D01*
X8312067Y-9352067D01*
X8316067Y-11260067D02*
X8316067Y-11047933D01*
X8103933Y-11047933D01*
X8103933Y-11260067D01*
X8316067Y-11260067D01*
X9446067Y-11485067D02*
X9446067Y-11272933D01*
X9233933Y-11272933D01*
X9233933Y-11485067D01*
X9446067Y-11485067D01*
X9450067Y-9577067D02*
X9450067Y-9364933D01*
X9237933Y-9364933D01*
X9237933Y-9577067D01*
X9450067Y-9577067D01*
X9451789Y-14098112D02*
X9451789Y-13885978D01*
X9239655Y-13885978D01*
X9239655Y-14098112D01*
X9451789Y-14098112D01*
X9454067Y-7687967D02*
X9454067Y-7475833D01*
X9241933Y-7475833D01*
X9241933Y-7687967D01*
X9454067Y-7687967D01*
X9573067Y-11231067D02*
X9573067Y-11018933D01*
X9360933Y-11018933D01*
X9360933Y-11231067D01*
X9573067Y-11231067D01*
X9577067Y-9323067D02*
X9577067Y-9110933D01*
X9364933Y-9110933D01*
X9364933Y-9323067D01*
X9577067Y-9323067D01*
X9581067Y-7433967D02*
X9581067Y-7221833D01*
X9368933Y-7221833D01*
X9368933Y-7433967D01*
X9581067Y-7433967D01*
X9640202Y-13885637D02*
X9640202Y-13673503D01*
X9428068Y-13673503D01*
X9428068Y-13885637D01*
X9640202Y-13885637D01*
X10081067Y-11231067D02*
X10081067Y-11018933D01*
X9868933Y-11018933D01*
X9868933Y-11231067D01*
X10081067Y-11231067D01*
X10085067Y-9323067D02*
X10085067Y-9110933D01*
X9872933Y-9110933D01*
X9872933Y-9323067D01*
X10085067Y-9323067D01*
X10089067Y-7433967D02*
X10089067Y-7221833D01*
X9876933Y-7221833D01*
X9876933Y-7433967D01*
X10089067Y-7433967D01*
X10130892Y-14017117D02*
X10130892Y-13804983D01*
X9918758Y-13804983D01*
X9918758Y-14017117D01*
X10130892Y-14017117D01*
X10187825Y-14295332D02*
X10187825Y-14083198D01*
X9975691Y-14083198D01*
X9975691Y-14295332D01*
X10187825Y-14295332D01*
X10208067Y-11485067D02*
X10208067Y-11272933D01*
X9995933Y-11272933D01*
X9995933Y-11485067D01*
X10208067Y-11485067D01*
X10212067Y-9577067D02*
X10212067Y-9364933D01*
X9999933Y-9364933D01*
X9999933Y-9577067D01*
X10212067Y-9577067D01*
X10216067Y-7687967D02*
X10216067Y-7475833D01*
X10003933Y-7475833D01*
X10003933Y-7687967D01*
X10216067Y-7687967D01*
X11371067Y-7960067D02*
X11371067Y-7747933D01*
X11158933Y-7747933D01*
X11158933Y-7960067D01*
X11371067Y-7960067D01*
X11371067Y-9860067D02*
X11371067Y-9647933D01*
X11158933Y-9647933D01*
X11158933Y-9860067D01*
X11371067Y-9860067D01*
X11371067Y-11760067D02*
X11371067Y-11547933D01*
X11158933Y-11547933D01*
X11158933Y-11760067D01*
X11371067Y-11760067D01*
X11498067Y-7706067D02*
X11498067Y-7493933D01*
X11285933Y-7493933D01*
X11285933Y-7706067D01*
X11498067Y-7706067D01*
X11498067Y-9606067D02*
X11498067Y-9393933D01*
X11285933Y-9393933D01*
X11285933Y-9606067D01*
X11498067Y-9606067D01*
X11498067Y-11506067D02*
X11498067Y-11293933D01*
X11285933Y-11293933D01*
X11285933Y-11506067D01*
X11498067Y-11506067D01*
X11651111Y-14406596D02*
X11651111Y-14194462D01*
X11438977Y-14194462D01*
X11438977Y-14406596D01*
X11651111Y-14406596D01*
X11888096Y-14250126D02*
X11888096Y-14037992D01*
X11675962Y-14037992D01*
X11675962Y-14250126D01*
X11888096Y-14250126D01*
X12006067Y-7706067D02*
X12006067Y-7493933D01*
X11793933Y-7493933D01*
X11793933Y-7706067D01*
X12006067Y-7706067D01*
X12006067Y-9606067D02*
X12006067Y-9393933D01*
X11793933Y-9393933D01*
X11793933Y-9606067D01*
X12006067Y-9606067D01*
X12006067Y-11506067D02*
X12006067Y-11293933D01*
X11793933Y-11293933D01*
X11793933Y-11506067D01*
X12006067Y-11506067D01*
X12133067Y-7960067D02*
X12133067Y-7747933D01*
X11920933Y-7747933D01*
X11920933Y-7960067D01*
X12133067Y-7960067D01*
X12133067Y-9860067D02*
X12133067Y-9647933D01*
X11920933Y-9647933D01*
X11920933Y-9860067D01*
X12133067Y-9860067D01*
X12133067Y-11760067D02*
X12133067Y-11547933D01*
X11920933Y-11547933D01*
X11920933Y-11760067D01*
X12133067Y-11760067D01*
X12311023Y-14787596D02*
X12311023Y-14575462D01*
X12098889Y-14575462D01*
X12098889Y-14787596D01*
X12311023Y-14787596D01*
X12328037Y-14504126D02*
X12328037Y-14291992D01*
X12115903Y-14291992D01*
X12115903Y-14504126D01*
X12328037Y-14504126D01*
D16*
X4013200Y-8512150D02*
X4213200Y-8312150D01*
X4013200Y-8112150D01*
X3813200Y-8312150D01*
X4013200Y-8512150D01*
X4013200Y-10410000D02*
X4213200Y-10210000D01*
X4013200Y-10010000D01*
X3813200Y-10210000D01*
X4013200Y-10410000D01*
X4013200Y-11909400D02*
X4213200Y-11709400D01*
X4013200Y-11509400D01*
X3813200Y-11709400D01*
X4013200Y-11909400D01*
X5920000Y-8035000D02*
X6120000Y-7835000D01*
X5920000Y-7635000D01*
X5720000Y-7835000D01*
X5920000Y-8035000D01*
X5925000Y-9929000D02*
X6125000Y-9729000D01*
X5925000Y-9529000D01*
X5725000Y-9729000D01*
X5925000Y-9929000D01*
X5931000Y-11829000D02*
X6131000Y-11629000D01*
X5931000Y-11429000D01*
X5731000Y-11629000D01*
X5931000Y-11829000D01*
X7540000Y-14161000D02*
X7740000Y-13961000D01*
X7540000Y-13761000D01*
X7340000Y-13961000D01*
X7540000Y-14161000D01*
X7820000Y-7810000D02*
X8020000Y-7610000D01*
X7820000Y-7410000D01*
X7620000Y-7610000D01*
X7820000Y-7810000D01*
X7825000Y-9700000D02*
X8025000Y-9500000D01*
X7825000Y-9300000D01*
X7625000Y-9500000D01*
X7825000Y-9700000D01*
X7829000Y-11608000D02*
X8029000Y-11408000D01*
X7829000Y-11208000D01*
X7629000Y-11408000D01*
X7829000Y-11608000D01*
X9648000Y-14536000D02*
X9848000Y-14336000D01*
X9648000Y-14136000D01*
X9448000Y-14336000D01*
X9648000Y-14536000D01*
X9721000Y-11833000D02*
X9921000Y-11633000D01*
X9721000Y-11433000D01*
X9521000Y-11633000D01*
X9721000Y-11833000D01*
X9725000Y-9925000D02*
X9925000Y-9725000D01*
X9725000Y-9525000D01*
X9525000Y-9725000D01*
X9725000Y-9925000D01*
X9729000Y-8035900D02*
X9929000Y-7835900D01*
X9729000Y-7635900D01*
X9529000Y-7835900D01*
X9729000Y-8035900D01*
X11646000Y-8308000D02*
X11846000Y-8108000D01*
X11646000Y-7908000D01*
X11446000Y-8108000D01*
X11646000Y-8308000D01*
X11646000Y-10208000D02*
X11846000Y-10008000D01*
X11646000Y-9808000D01*
X11446000Y-10008000D01*
X11646000Y-10208000D01*
X11646000Y-12108000D02*
X11846000Y-11908000D01*
X11646000Y-11708000D01*
X11446000Y-11908000D01*
X11646000Y-12108000D01*
X11748000Y-14911000D02*
X11948000Y-14711000D01*
X11748000Y-14511000D01*
X11548000Y-14711000D01*
X11748000Y-14911000D01*
D10*
X3238231Y-16304928D02*
X3238231Y-16104928D01*
X3238231Y-16104928D02*
X3285850Y-16104928D01*
X3285850Y-16104928D02*
X3314421Y-16114452D01*
X3314421Y-16114452D02*
X3333469Y-16133499D01*
X3333469Y-16133499D02*
X3342993Y-16152547D01*
X3342993Y-16152547D02*
X3352517Y-16190642D01*
X3352517Y-16190642D02*
X3352517Y-16219214D01*
X3352517Y-16219214D02*
X3342993Y-16257309D01*
X3342993Y-16257309D02*
X3333469Y-16276357D01*
X3333469Y-16276357D02*
X3314421Y-16295404D01*
X3314421Y-16295404D02*
X3285850Y-16304928D01*
X3285850Y-16304928D02*
X3238231Y-16304928D01*
X3438231Y-16304928D02*
X3438231Y-16171595D01*
X3438231Y-16209690D02*
X3447755Y-16190642D01*
X3447755Y-16190642D02*
X3457279Y-16181118D01*
X3457279Y-16181118D02*
X3476326Y-16171595D01*
X3476326Y-16171595D02*
X3495374Y-16171595D01*
X3562040Y-16304928D02*
X3562040Y-16171595D01*
X3562040Y-16104928D02*
X3552517Y-16114452D01*
X3552517Y-16114452D02*
X3562040Y-16123976D01*
X3562040Y-16123976D02*
X3571564Y-16114452D01*
X3571564Y-16114452D02*
X3562040Y-16104928D01*
X3562040Y-16104928D02*
X3562040Y-16123976D01*
X3685850Y-16304928D02*
X3666802Y-16295404D01*
X3666802Y-16295404D02*
X3657279Y-16276357D01*
X3657279Y-16276357D02*
X3657279Y-16104928D01*
X3790612Y-16304928D02*
X3771564Y-16295404D01*
X3771564Y-16295404D02*
X3762040Y-16276357D01*
X3762040Y-16276357D02*
X3762040Y-16104928D01*
X4019183Y-16304928D02*
X4019183Y-16104928D01*
X4019183Y-16104928D02*
X4085850Y-16247785D01*
X4085850Y-16247785D02*
X4152517Y-16104928D01*
X4152517Y-16104928D02*
X4152517Y-16304928D01*
X4333469Y-16304928D02*
X4333469Y-16200166D01*
X4333469Y-16200166D02*
X4323945Y-16181118D01*
X4323945Y-16181118D02*
X4304898Y-16171595D01*
X4304898Y-16171595D02*
X4266802Y-16171595D01*
X4266802Y-16171595D02*
X4247755Y-16181118D01*
X4333469Y-16295404D02*
X4314422Y-16304928D01*
X4314422Y-16304928D02*
X4266802Y-16304928D01*
X4266802Y-16304928D02*
X4247755Y-16295404D01*
X4247755Y-16295404D02*
X4238231Y-16276357D01*
X4238231Y-16276357D02*
X4238231Y-16257309D01*
X4238231Y-16257309D02*
X4247755Y-16238261D01*
X4247755Y-16238261D02*
X4266802Y-16228738D01*
X4266802Y-16228738D02*
X4314422Y-16228738D01*
X4314422Y-16228738D02*
X4333469Y-16219214D01*
X4428707Y-16171595D02*
X4428707Y-16371595D01*
X4428707Y-16181118D02*
X4447755Y-16171595D01*
X4447755Y-16171595D02*
X4485850Y-16171595D01*
X4485850Y-16171595D02*
X4504898Y-16181118D01*
X4504898Y-16181118D02*
X4514422Y-16190642D01*
X4514422Y-16190642D02*
X4523945Y-16209690D01*
X4523945Y-16209690D02*
X4523945Y-16266833D01*
X4523945Y-16266833D02*
X4514422Y-16285880D01*
X4514422Y-16285880D02*
X4504898Y-16295404D01*
X4504898Y-16295404D02*
X4485850Y-16304928D01*
X4485850Y-16304928D02*
X4447755Y-16304928D01*
X4447755Y-16304928D02*
X4428707Y-16295404D01*
X4609660Y-16285880D02*
X4619183Y-16295404D01*
X4619183Y-16295404D02*
X4609660Y-16304928D01*
X4609660Y-16304928D02*
X4600136Y-16295404D01*
X4600136Y-16295404D02*
X4609660Y-16285880D01*
X4609660Y-16285880D02*
X4609660Y-16304928D01*
X4609660Y-16181118D02*
X4619183Y-16190642D01*
X4619183Y-16190642D02*
X4609660Y-16200166D01*
X4609660Y-16200166D02*
X4600136Y-16190642D01*
X4600136Y-16190642D02*
X4609660Y-16181118D01*
X4609660Y-16181118D02*
X4609660Y-16200166D01*
D12*
X2890612Y-16582404D02*
X2990612Y-16682404D01*
X2990612Y-16582404D02*
X2890612Y-16682404D01*
D10*
X3342993Y-16724928D02*
X3228707Y-16724928D01*
X3285850Y-16724928D02*
X3285850Y-16524928D01*
X3285850Y-16524928D02*
X3266802Y-16553499D01*
X3266802Y-16553499D02*
X3247755Y-16572547D01*
X3247755Y-16572547D02*
X3228707Y-16582071D01*
X3428707Y-16705880D02*
X3438231Y-16715404D01*
X3438231Y-16715404D02*
X3428707Y-16724928D01*
X3428707Y-16724928D02*
X3419183Y-16715404D01*
X3419183Y-16715404D02*
X3428707Y-16705880D01*
X3428707Y-16705880D02*
X3428707Y-16724928D01*
X3562040Y-16524928D02*
X3581088Y-16524928D01*
X3581088Y-16524928D02*
X3600136Y-16534452D01*
X3600136Y-16534452D02*
X3609660Y-16543976D01*
X3609660Y-16543976D02*
X3619183Y-16563023D01*
X3619183Y-16563023D02*
X3628707Y-16601118D01*
X3628707Y-16601118D02*
X3628707Y-16648738D01*
X3628707Y-16648738D02*
X3619183Y-16686833D01*
X3619183Y-16686833D02*
X3609660Y-16705880D01*
X3609660Y-16705880D02*
X3600136Y-16715404D01*
X3600136Y-16715404D02*
X3581088Y-16724928D01*
X3581088Y-16724928D02*
X3562040Y-16724928D01*
X3562040Y-16724928D02*
X3542993Y-16715404D01*
X3542993Y-16715404D02*
X3533469Y-16705880D01*
X3533469Y-16705880D02*
X3523945Y-16686833D01*
X3523945Y-16686833D02*
X3514421Y-16648738D01*
X3514421Y-16648738D02*
X3514421Y-16601118D01*
X3514421Y-16601118D02*
X3523945Y-16563023D01*
X3523945Y-16563023D02*
X3533469Y-16543976D01*
X3533469Y-16543976D02*
X3542993Y-16534452D01*
X3542993Y-16534452D02*
X3562040Y-16524928D01*
X3752517Y-16524928D02*
X3771564Y-16524928D01*
X3771564Y-16524928D02*
X3790612Y-16534452D01*
X3790612Y-16534452D02*
X3800136Y-16543976D01*
X3800136Y-16543976D02*
X3809660Y-16563023D01*
X3809660Y-16563023D02*
X3819183Y-16601118D01*
X3819183Y-16601118D02*
X3819183Y-16648738D01*
X3819183Y-16648738D02*
X3809660Y-16686833D01*
X3809660Y-16686833D02*
X3800136Y-16705880D01*
X3800136Y-16705880D02*
X3790612Y-16715404D01*
X3790612Y-16715404D02*
X3771564Y-16724928D01*
X3771564Y-16724928D02*
X3752517Y-16724928D01*
X3752517Y-16724928D02*
X3733469Y-16715404D01*
X3733469Y-16715404D02*
X3723945Y-16705880D01*
X3723945Y-16705880D02*
X3714421Y-16686833D01*
X3714421Y-16686833D02*
X3704898Y-16648738D01*
X3704898Y-16648738D02*
X3704898Y-16601118D01*
X3704898Y-16601118D02*
X3714421Y-16563023D01*
X3714421Y-16563023D02*
X3723945Y-16543976D01*
X3723945Y-16543976D02*
X3733469Y-16534452D01*
X3733469Y-16534452D02*
X3752517Y-16524928D01*
X3942993Y-16524928D02*
X3962041Y-16524928D01*
X3962041Y-16524928D02*
X3981088Y-16534452D01*
X3981088Y-16534452D02*
X3990612Y-16543976D01*
X3990612Y-16543976D02*
X4000136Y-16563023D01*
X4000136Y-16563023D02*
X4009660Y-16601118D01*
X4009660Y-16601118D02*
X4009660Y-16648738D01*
X4009660Y-16648738D02*
X4000136Y-16686833D01*
X4000136Y-16686833D02*
X3990612Y-16705880D01*
X3990612Y-16705880D02*
X3981088Y-16715404D01*
X3981088Y-16715404D02*
X3962041Y-16724928D01*
X3962041Y-16724928D02*
X3942993Y-16724928D01*
X3942993Y-16724928D02*
X3923945Y-16715404D01*
X3923945Y-16715404D02*
X3914421Y-16705880D01*
X3914421Y-16705880D02*
X3904898Y-16686833D01*
X3904898Y-16686833D02*
X3895374Y-16648738D01*
X3895374Y-16648738D02*
X3895374Y-16601118D01*
X3895374Y-16601118D02*
X3904898Y-16563023D01*
X3904898Y-16563023D02*
X3914421Y-16543976D01*
X3914421Y-16543976D02*
X3923945Y-16534452D01*
X3923945Y-16534452D02*
X3942993Y-16524928D01*
X4095374Y-16724928D02*
X4095374Y-16591595D01*
X4095374Y-16610642D02*
X4104898Y-16601118D01*
X4104898Y-16601118D02*
X4123945Y-16591595D01*
X4123945Y-16591595D02*
X4152517Y-16591595D01*
X4152517Y-16591595D02*
X4171564Y-16601118D01*
X4171564Y-16601118D02*
X4181088Y-16620166D01*
X4181088Y-16620166D02*
X4181088Y-16724928D01*
X4181088Y-16620166D02*
X4190612Y-16601118D01*
X4190612Y-16601118D02*
X4209660Y-16591595D01*
X4209660Y-16591595D02*
X4238231Y-16591595D01*
X4238231Y-16591595D02*
X4257279Y-16601118D01*
X4257279Y-16601118D02*
X4266803Y-16620166D01*
X4266803Y-16620166D02*
X4266803Y-16724928D01*
X4362041Y-16724928D02*
X4362041Y-16591595D01*
X4362041Y-16610642D02*
X4371564Y-16601118D01*
X4371564Y-16601118D02*
X4390612Y-16591595D01*
X4390612Y-16591595D02*
X4419184Y-16591595D01*
X4419184Y-16591595D02*
X4438231Y-16601118D01*
X4438231Y-16601118D02*
X4447755Y-16620166D01*
X4447755Y-16620166D02*
X4447755Y-16724928D01*
X4447755Y-16620166D02*
X4457279Y-16601118D01*
X4457279Y-16601118D02*
X4476326Y-16591595D01*
X4476326Y-16591595D02*
X4504898Y-16591595D01*
X4504898Y-16591595D02*
X4523945Y-16601118D01*
X4523945Y-16601118D02*
X4533469Y-16620166D01*
X4533469Y-16620166D02*
X4533469Y-16724928D01*
X4923945Y-16515404D02*
X4752517Y-16772547D01*
X5181088Y-16524928D02*
X5200136Y-16524928D01*
X5200136Y-16524928D02*
X5219184Y-16534452D01*
X5219184Y-16534452D02*
X5228707Y-16543976D01*
X5228707Y-16543976D02*
X5238231Y-16563023D01*
X5238231Y-16563023D02*
X5247755Y-16601118D01*
X5247755Y-16601118D02*
X5247755Y-16648738D01*
X5247755Y-16648738D02*
X5238231Y-16686833D01*
X5238231Y-16686833D02*
X5228707Y-16705880D01*
X5228707Y-16705880D02*
X5219184Y-16715404D01*
X5219184Y-16715404D02*
X5200136Y-16724928D01*
X5200136Y-16724928D02*
X5181088Y-16724928D01*
X5181088Y-16724928D02*
X5162041Y-16715404D01*
X5162041Y-16715404D02*
X5152517Y-16705880D01*
X5152517Y-16705880D02*
X5142993Y-16686833D01*
X5142993Y-16686833D02*
X5133469Y-16648738D01*
X5133469Y-16648738D02*
X5133469Y-16601118D01*
X5133469Y-16601118D02*
X5142993Y-16563023D01*
X5142993Y-16563023D02*
X5152517Y-16543976D01*
X5152517Y-16543976D02*
X5162041Y-16534452D01*
X5162041Y-16534452D02*
X5181088Y-16524928D01*
X5333469Y-16705880D02*
X5342993Y-16715404D01*
X5342993Y-16715404D02*
X5333469Y-16724928D01*
X5333469Y-16724928D02*
X5323946Y-16715404D01*
X5323946Y-16715404D02*
X5333469Y-16705880D01*
X5333469Y-16705880D02*
X5333469Y-16724928D01*
X5466803Y-16524928D02*
X5485850Y-16524928D01*
X5485850Y-16524928D02*
X5504898Y-16534452D01*
X5504898Y-16534452D02*
X5514422Y-16543976D01*
X5514422Y-16543976D02*
X5523946Y-16563023D01*
X5523946Y-16563023D02*
X5533469Y-16601118D01*
X5533469Y-16601118D02*
X5533469Y-16648738D01*
X5533469Y-16648738D02*
X5523946Y-16686833D01*
X5523946Y-16686833D02*
X5514422Y-16705880D01*
X5514422Y-16705880D02*
X5504898Y-16715404D01*
X5504898Y-16715404D02*
X5485850Y-16724928D01*
X5485850Y-16724928D02*
X5466803Y-16724928D01*
X5466803Y-16724928D02*
X5447755Y-16715404D01*
X5447755Y-16715404D02*
X5438231Y-16705880D01*
X5438231Y-16705880D02*
X5428707Y-16686833D01*
X5428707Y-16686833D02*
X5419184Y-16648738D01*
X5419184Y-16648738D02*
X5419184Y-16601118D01*
X5419184Y-16601118D02*
X5428707Y-16563023D01*
X5428707Y-16563023D02*
X5438231Y-16543976D01*
X5438231Y-16543976D02*
X5447755Y-16534452D01*
X5447755Y-16534452D02*
X5466803Y-16524928D01*
X5600136Y-16524928D02*
X5723945Y-16524928D01*
X5723945Y-16524928D02*
X5657279Y-16601118D01*
X5657279Y-16601118D02*
X5685850Y-16601118D01*
X5685850Y-16601118D02*
X5704898Y-16610642D01*
X5704898Y-16610642D02*
X5714422Y-16620166D01*
X5714422Y-16620166D02*
X5723945Y-16639214D01*
X5723945Y-16639214D02*
X5723945Y-16686833D01*
X5723945Y-16686833D02*
X5714422Y-16705880D01*
X5714422Y-16705880D02*
X5704898Y-16715404D01*
X5704898Y-16715404D02*
X5685850Y-16724928D01*
X5685850Y-16724928D02*
X5628707Y-16724928D01*
X5628707Y-16724928D02*
X5609660Y-16715404D01*
X5609660Y-16715404D02*
X5600136Y-16705880D01*
X5819184Y-16724928D02*
X5857279Y-16724928D01*
X5857279Y-16724928D02*
X5876326Y-16715404D01*
X5876326Y-16715404D02*
X5885850Y-16705880D01*
X5885850Y-16705880D02*
X5904898Y-16677309D01*
X5904898Y-16677309D02*
X5914422Y-16639214D01*
X5914422Y-16639214D02*
X5914422Y-16563023D01*
X5914422Y-16563023D02*
X5904898Y-16543976D01*
X5904898Y-16543976D02*
X5895374Y-16534452D01*
X5895374Y-16534452D02*
X5876326Y-16524928D01*
X5876326Y-16524928D02*
X5838231Y-16524928D01*
X5838231Y-16524928D02*
X5819184Y-16534452D01*
X5819184Y-16534452D02*
X5809660Y-16543976D01*
X5809660Y-16543976D02*
X5800136Y-16563023D01*
X5800136Y-16563023D02*
X5800136Y-16610642D01*
X5800136Y-16610642D02*
X5809660Y-16629690D01*
X5809660Y-16629690D02*
X5819184Y-16639214D01*
X5819184Y-16639214D02*
X5838231Y-16648738D01*
X5838231Y-16648738D02*
X5876326Y-16648738D01*
X5876326Y-16648738D02*
X5895374Y-16639214D01*
X5895374Y-16639214D02*
X5904898Y-16629690D01*
X5904898Y-16629690D02*
X5914422Y-16610642D01*
X6085850Y-16591595D02*
X6085850Y-16724928D01*
X6038231Y-16515404D02*
X5990612Y-16658261D01*
X5990612Y-16658261D02*
X6114422Y-16658261D01*
X6181088Y-16524928D02*
X6181088Y-16563023D01*
X6257279Y-16524928D02*
X6257279Y-16563023D01*
X6552517Y-16801119D02*
X6542993Y-16791595D01*
X6542993Y-16791595D02*
X6523946Y-16763023D01*
X6523946Y-16763023D02*
X6514422Y-16743976D01*
X6514422Y-16743976D02*
X6504898Y-16715404D01*
X6504898Y-16715404D02*
X6495374Y-16667785D01*
X6495374Y-16667785D02*
X6495374Y-16629690D01*
X6495374Y-16629690D02*
X6504898Y-16582071D01*
X6504898Y-16582071D02*
X6514422Y-16553499D01*
X6514422Y-16553499D02*
X6523946Y-16534452D01*
X6523946Y-16534452D02*
X6542993Y-16505880D01*
X6542993Y-16505880D02*
X6552517Y-16496357D01*
X6619184Y-16543976D02*
X6628707Y-16534452D01*
X6628707Y-16534452D02*
X6647755Y-16524928D01*
X6647755Y-16524928D02*
X6695374Y-16524928D01*
X6695374Y-16524928D02*
X6714422Y-16534452D01*
X6714422Y-16534452D02*
X6723946Y-16543976D01*
X6723946Y-16543976D02*
X6733469Y-16563023D01*
X6733469Y-16563023D02*
X6733469Y-16582071D01*
X6733469Y-16582071D02*
X6723946Y-16610642D01*
X6723946Y-16610642D02*
X6609660Y-16724928D01*
X6609660Y-16724928D02*
X6733469Y-16724928D01*
X6971565Y-16724928D02*
X6971565Y-16524928D01*
X7057279Y-16724928D02*
X7057279Y-16620166D01*
X7057279Y-16620166D02*
X7047755Y-16601118D01*
X7047755Y-16601118D02*
X7028708Y-16591595D01*
X7028708Y-16591595D02*
X7000136Y-16591595D01*
X7000136Y-16591595D02*
X6981088Y-16601118D01*
X6981088Y-16601118D02*
X6971565Y-16610642D01*
X7181088Y-16724928D02*
X7162041Y-16715404D01*
X7162041Y-16715404D02*
X7152517Y-16705880D01*
X7152517Y-16705880D02*
X7142993Y-16686833D01*
X7142993Y-16686833D02*
X7142993Y-16629690D01*
X7142993Y-16629690D02*
X7152517Y-16610642D01*
X7152517Y-16610642D02*
X7162041Y-16601118D01*
X7162041Y-16601118D02*
X7181088Y-16591595D01*
X7181088Y-16591595D02*
X7209660Y-16591595D01*
X7209660Y-16591595D02*
X7228708Y-16601118D01*
X7228708Y-16601118D02*
X7238231Y-16610642D01*
X7238231Y-16610642D02*
X7247755Y-16629690D01*
X7247755Y-16629690D02*
X7247755Y-16686833D01*
X7247755Y-16686833D02*
X7238231Y-16705880D01*
X7238231Y-16705880D02*
X7228708Y-16715404D01*
X7228708Y-16715404D02*
X7209660Y-16724928D01*
X7209660Y-16724928D02*
X7181088Y-16724928D01*
X7362041Y-16724928D02*
X7342993Y-16715404D01*
X7342993Y-16715404D02*
X7333469Y-16696357D01*
X7333469Y-16696357D02*
X7333469Y-16524928D01*
X7514422Y-16715404D02*
X7495374Y-16724928D01*
X7495374Y-16724928D02*
X7457279Y-16724928D01*
X7457279Y-16724928D02*
X7438231Y-16715404D01*
X7438231Y-16715404D02*
X7428708Y-16696357D01*
X7428708Y-16696357D02*
X7428708Y-16620166D01*
X7428708Y-16620166D02*
X7438231Y-16601118D01*
X7438231Y-16601118D02*
X7457279Y-16591595D01*
X7457279Y-16591595D02*
X7495374Y-16591595D01*
X7495374Y-16591595D02*
X7514422Y-16601118D01*
X7514422Y-16601118D02*
X7523946Y-16620166D01*
X7523946Y-16620166D02*
X7523946Y-16639214D01*
X7523946Y-16639214D02*
X7428708Y-16658261D01*
X7600136Y-16715404D02*
X7619184Y-16724928D01*
X7619184Y-16724928D02*
X7657279Y-16724928D01*
X7657279Y-16724928D02*
X7676327Y-16715404D01*
X7676327Y-16715404D02*
X7685850Y-16696357D01*
X7685850Y-16696357D02*
X7685850Y-16686833D01*
X7685850Y-16686833D02*
X7676327Y-16667785D01*
X7676327Y-16667785D02*
X7657279Y-16658261D01*
X7657279Y-16658261D02*
X7628708Y-16658261D01*
X7628708Y-16658261D02*
X7609660Y-16648738D01*
X7609660Y-16648738D02*
X7600136Y-16629690D01*
X7600136Y-16629690D02*
X7600136Y-16620166D01*
X7600136Y-16620166D02*
X7609660Y-16601118D01*
X7609660Y-16601118D02*
X7628708Y-16591595D01*
X7628708Y-16591595D02*
X7657279Y-16591595D01*
X7657279Y-16591595D02*
X7676327Y-16601118D01*
X7752517Y-16801119D02*
X7762041Y-16791595D01*
X7762041Y-16791595D02*
X7781089Y-16763023D01*
X7781089Y-16763023D02*
X7790612Y-16743976D01*
X7790612Y-16743976D02*
X7800136Y-16715404D01*
X7800136Y-16715404D02*
X7809660Y-16667785D01*
X7809660Y-16667785D02*
X7809660Y-16629690D01*
X7809660Y-16629690D02*
X7800136Y-16582071D01*
X7800136Y-16582071D02*
X7790612Y-16553499D01*
X7790612Y-16553499D02*
X7781089Y-16534452D01*
X7781089Y-16534452D02*
X7762041Y-16505880D01*
X7762041Y-16505880D02*
X7752517Y-16496357D01*
X8114422Y-16801119D02*
X8104898Y-16791595D01*
X8104898Y-16791595D02*
X8085850Y-16763023D01*
X8085850Y-16763023D02*
X8076327Y-16743976D01*
X8076327Y-16743976D02*
X8066803Y-16715404D01*
X8066803Y-16715404D02*
X8057279Y-16667785D01*
X8057279Y-16667785D02*
X8057279Y-16629690D01*
X8057279Y-16629690D02*
X8066803Y-16582071D01*
X8066803Y-16582071D02*
X8076327Y-16553499D01*
X8076327Y-16553499D02*
X8085850Y-16534452D01*
X8085850Y-16534452D02*
X8104898Y-16505880D01*
X8104898Y-16505880D02*
X8114422Y-16496357D01*
X8190612Y-16591595D02*
X8190612Y-16724928D01*
X8190612Y-16610642D02*
X8200136Y-16601118D01*
X8200136Y-16601118D02*
X8219184Y-16591595D01*
X8219184Y-16591595D02*
X8247755Y-16591595D01*
X8247755Y-16591595D02*
X8266803Y-16601118D01*
X8266803Y-16601118D02*
X8276327Y-16620166D01*
X8276327Y-16620166D02*
X8276327Y-16724928D01*
X8400136Y-16724928D02*
X8381089Y-16715404D01*
X8381089Y-16715404D02*
X8371565Y-16705880D01*
X8371565Y-16705880D02*
X8362041Y-16686833D01*
X8362041Y-16686833D02*
X8362041Y-16629690D01*
X8362041Y-16629690D02*
X8371565Y-16610642D01*
X8371565Y-16610642D02*
X8381089Y-16601118D01*
X8381089Y-16601118D02*
X8400136Y-16591595D01*
X8400136Y-16591595D02*
X8428708Y-16591595D01*
X8428708Y-16591595D02*
X8447755Y-16601118D01*
X8447755Y-16601118D02*
X8457279Y-16610642D01*
X8457279Y-16610642D02*
X8466803Y-16629690D01*
X8466803Y-16629690D02*
X8466803Y-16686833D01*
X8466803Y-16686833D02*
X8457279Y-16705880D01*
X8457279Y-16705880D02*
X8447755Y-16715404D01*
X8447755Y-16715404D02*
X8428708Y-16724928D01*
X8428708Y-16724928D02*
X8400136Y-16724928D01*
X8523946Y-16591595D02*
X8600136Y-16591595D01*
X8552517Y-16524928D02*
X8552517Y-16696357D01*
X8552517Y-16696357D02*
X8562041Y-16715404D01*
X8562041Y-16715404D02*
X8581089Y-16724928D01*
X8581089Y-16724928D02*
X8600136Y-16724928D01*
X8819184Y-16591595D02*
X8819184Y-16791595D01*
X8819184Y-16601118D02*
X8838232Y-16591595D01*
X8838232Y-16591595D02*
X8876327Y-16591595D01*
X8876327Y-16591595D02*
X8895374Y-16601118D01*
X8895374Y-16601118D02*
X8904898Y-16610642D01*
X8904898Y-16610642D02*
X8914422Y-16629690D01*
X8914422Y-16629690D02*
X8914422Y-16686833D01*
X8914422Y-16686833D02*
X8904898Y-16705880D01*
X8904898Y-16705880D02*
X8895374Y-16715404D01*
X8895374Y-16715404D02*
X8876327Y-16724928D01*
X8876327Y-16724928D02*
X8838232Y-16724928D01*
X8838232Y-16724928D02*
X8819184Y-16715404D01*
X9028708Y-16724928D02*
X9009660Y-16715404D01*
X9009660Y-16715404D02*
X9000136Y-16696357D01*
X9000136Y-16696357D02*
X9000136Y-16524928D01*
X9190613Y-16724928D02*
X9190613Y-16620166D01*
X9190613Y-16620166D02*
X9181089Y-16601118D01*
X9181089Y-16601118D02*
X9162041Y-16591595D01*
X9162041Y-16591595D02*
X9123946Y-16591595D01*
X9123946Y-16591595D02*
X9104898Y-16601118D01*
X9190613Y-16715404D02*
X9171565Y-16724928D01*
X9171565Y-16724928D02*
X9123946Y-16724928D01*
X9123946Y-16724928D02*
X9104898Y-16715404D01*
X9104898Y-16715404D02*
X9095374Y-16696357D01*
X9095374Y-16696357D02*
X9095374Y-16677309D01*
X9095374Y-16677309D02*
X9104898Y-16658261D01*
X9104898Y-16658261D02*
X9123946Y-16648738D01*
X9123946Y-16648738D02*
X9171565Y-16648738D01*
X9171565Y-16648738D02*
X9190613Y-16639214D01*
X9257279Y-16591595D02*
X9333470Y-16591595D01*
X9285851Y-16524928D02*
X9285851Y-16696357D01*
X9285851Y-16696357D02*
X9295374Y-16715404D01*
X9295374Y-16715404D02*
X9314422Y-16724928D01*
X9314422Y-16724928D02*
X9333470Y-16724928D01*
X9476327Y-16715404D02*
X9457279Y-16724928D01*
X9457279Y-16724928D02*
X9419184Y-16724928D01*
X9419184Y-16724928D02*
X9400136Y-16715404D01*
X9400136Y-16715404D02*
X9390613Y-16696357D01*
X9390613Y-16696357D02*
X9390613Y-16620166D01*
X9390613Y-16620166D02*
X9400136Y-16601118D01*
X9400136Y-16601118D02*
X9419184Y-16591595D01*
X9419184Y-16591595D02*
X9457279Y-16591595D01*
X9457279Y-16591595D02*
X9476327Y-16601118D01*
X9476327Y-16601118D02*
X9485851Y-16620166D01*
X9485851Y-16620166D02*
X9485851Y-16639214D01*
X9485851Y-16639214D02*
X9390613Y-16658261D01*
X9657279Y-16724928D02*
X9657279Y-16524928D01*
X9657279Y-16715404D02*
X9638232Y-16724928D01*
X9638232Y-16724928D02*
X9600136Y-16724928D01*
X9600136Y-16724928D02*
X9581089Y-16715404D01*
X9581089Y-16715404D02*
X9571565Y-16705880D01*
X9571565Y-16705880D02*
X9562041Y-16686833D01*
X9562041Y-16686833D02*
X9562041Y-16629690D01*
X9562041Y-16629690D02*
X9571565Y-16610642D01*
X9571565Y-16610642D02*
X9581089Y-16601118D01*
X9581089Y-16601118D02*
X9600136Y-16591595D01*
X9600136Y-16591595D02*
X9638232Y-16591595D01*
X9638232Y-16591595D02*
X9657279Y-16601118D01*
X9733470Y-16801119D02*
X9742994Y-16791595D01*
X9742994Y-16791595D02*
X9762041Y-16763023D01*
X9762041Y-16763023D02*
X9771565Y-16743976D01*
X9771565Y-16743976D02*
X9781089Y-16715404D01*
X9781089Y-16715404D02*
X9790613Y-16667785D01*
X9790613Y-16667785D02*
X9790613Y-16629690D01*
X9790613Y-16629690D02*
X9781089Y-16582071D01*
X9781089Y-16582071D02*
X9771565Y-16553499D01*
X9771565Y-16553499D02*
X9762041Y-16534452D01*
X9762041Y-16534452D02*
X9742994Y-16505880D01*
X9742994Y-16505880D02*
X9733470Y-16496357D01*
D13*
X2990612Y-16896404D02*
G75*
G03*
X2990612Y-16896404I-60000J0D01*
G01*
D10*
X3342993Y-16988928D02*
X3228707Y-16988928D01*
X3285850Y-16988928D02*
X3285850Y-16788928D01*
X3285850Y-16788928D02*
X3266802Y-16817500D01*
X3266802Y-16817500D02*
X3247755Y-16836547D01*
X3247755Y-16836547D02*
X3228707Y-16846071D01*
X3428707Y-16969880D02*
X3438231Y-16979404D01*
X3438231Y-16979404D02*
X3428707Y-16988928D01*
X3428707Y-16988928D02*
X3419183Y-16979404D01*
X3419183Y-16979404D02*
X3428707Y-16969880D01*
X3428707Y-16969880D02*
X3428707Y-16988928D01*
X3514421Y-16807976D02*
X3523945Y-16798452D01*
X3523945Y-16798452D02*
X3542993Y-16788928D01*
X3542993Y-16788928D02*
X3590612Y-16788928D01*
X3590612Y-16788928D02*
X3609660Y-16798452D01*
X3609660Y-16798452D02*
X3619183Y-16807976D01*
X3619183Y-16807976D02*
X3628707Y-16827023D01*
X3628707Y-16827023D02*
X3628707Y-16846071D01*
X3628707Y-16846071D02*
X3619183Y-16874642D01*
X3619183Y-16874642D02*
X3504898Y-16988928D01*
X3504898Y-16988928D02*
X3628707Y-16988928D01*
X3752517Y-16788928D02*
X3771564Y-16788928D01*
X3771564Y-16788928D02*
X3790612Y-16798452D01*
X3790612Y-16798452D02*
X3800136Y-16807976D01*
X3800136Y-16807976D02*
X3809660Y-16827023D01*
X3809660Y-16827023D02*
X3819183Y-16865119D01*
X3819183Y-16865119D02*
X3819183Y-16912738D01*
X3819183Y-16912738D02*
X3809660Y-16950833D01*
X3809660Y-16950833D02*
X3800136Y-16969880D01*
X3800136Y-16969880D02*
X3790612Y-16979404D01*
X3790612Y-16979404D02*
X3771564Y-16988928D01*
X3771564Y-16988928D02*
X3752517Y-16988928D01*
X3752517Y-16988928D02*
X3733469Y-16979404D01*
X3733469Y-16979404D02*
X3723945Y-16969880D01*
X3723945Y-16969880D02*
X3714421Y-16950833D01*
X3714421Y-16950833D02*
X3704898Y-16912738D01*
X3704898Y-16912738D02*
X3704898Y-16865119D01*
X3704898Y-16865119D02*
X3714421Y-16827023D01*
X3714421Y-16827023D02*
X3723945Y-16807976D01*
X3723945Y-16807976D02*
X3733469Y-16798452D01*
X3733469Y-16798452D02*
X3752517Y-16788928D01*
X3942993Y-16788928D02*
X3962041Y-16788928D01*
X3962041Y-16788928D02*
X3981088Y-16798452D01*
X3981088Y-16798452D02*
X3990612Y-16807976D01*
X3990612Y-16807976D02*
X4000136Y-16827023D01*
X4000136Y-16827023D02*
X4009660Y-16865119D01*
X4009660Y-16865119D02*
X4009660Y-16912738D01*
X4009660Y-16912738D02*
X4000136Y-16950833D01*
X4000136Y-16950833D02*
X3990612Y-16969880D01*
X3990612Y-16969880D02*
X3981088Y-16979404D01*
X3981088Y-16979404D02*
X3962041Y-16988928D01*
X3962041Y-16988928D02*
X3942993Y-16988928D01*
X3942993Y-16988928D02*
X3923945Y-16979404D01*
X3923945Y-16979404D02*
X3914421Y-16969880D01*
X3914421Y-16969880D02*
X3904898Y-16950833D01*
X3904898Y-16950833D02*
X3895374Y-16912738D01*
X3895374Y-16912738D02*
X3895374Y-16865119D01*
X3895374Y-16865119D02*
X3904898Y-16827023D01*
X3904898Y-16827023D02*
X3914421Y-16807976D01*
X3914421Y-16807976D02*
X3923945Y-16798452D01*
X3923945Y-16798452D02*
X3942993Y-16788928D01*
X4095374Y-16988928D02*
X4095374Y-16855595D01*
X4095374Y-16874642D02*
X4104898Y-16865119D01*
X4104898Y-16865119D02*
X4123945Y-16855595D01*
X4123945Y-16855595D02*
X4152517Y-16855595D01*
X4152517Y-16855595D02*
X4171564Y-16865119D01*
X4171564Y-16865119D02*
X4181088Y-16884166D01*
X4181088Y-16884166D02*
X4181088Y-16988928D01*
X4181088Y-16884166D02*
X4190612Y-16865119D01*
X4190612Y-16865119D02*
X4209660Y-16855595D01*
X4209660Y-16855595D02*
X4238231Y-16855595D01*
X4238231Y-16855595D02*
X4257279Y-16865119D01*
X4257279Y-16865119D02*
X4266803Y-16884166D01*
X4266803Y-16884166D02*
X4266803Y-16988928D01*
X4362041Y-16988928D02*
X4362041Y-16855595D01*
X4362041Y-16874642D02*
X4371564Y-16865119D01*
X4371564Y-16865119D02*
X4390612Y-16855595D01*
X4390612Y-16855595D02*
X4419184Y-16855595D01*
X4419184Y-16855595D02*
X4438231Y-16865119D01*
X4438231Y-16865119D02*
X4447755Y-16884166D01*
X4447755Y-16884166D02*
X4447755Y-16988928D01*
X4447755Y-16884166D02*
X4457279Y-16865119D01*
X4457279Y-16865119D02*
X4476326Y-16855595D01*
X4476326Y-16855595D02*
X4504898Y-16855595D01*
X4504898Y-16855595D02*
X4523945Y-16865119D01*
X4523945Y-16865119D02*
X4533469Y-16884166D01*
X4533469Y-16884166D02*
X4533469Y-16988928D01*
X4923945Y-16779404D02*
X4752517Y-17036547D01*
X5181088Y-16788928D02*
X5200136Y-16788928D01*
X5200136Y-16788928D02*
X5219184Y-16798452D01*
X5219184Y-16798452D02*
X5228707Y-16807976D01*
X5228707Y-16807976D02*
X5238231Y-16827023D01*
X5238231Y-16827023D02*
X5247755Y-16865119D01*
X5247755Y-16865119D02*
X5247755Y-16912738D01*
X5247755Y-16912738D02*
X5238231Y-16950833D01*
X5238231Y-16950833D02*
X5228707Y-16969880D01*
X5228707Y-16969880D02*
X5219184Y-16979404D01*
X5219184Y-16979404D02*
X5200136Y-16988928D01*
X5200136Y-16988928D02*
X5181088Y-16988928D01*
X5181088Y-16988928D02*
X5162041Y-16979404D01*
X5162041Y-16979404D02*
X5152517Y-16969880D01*
X5152517Y-16969880D02*
X5142993Y-16950833D01*
X5142993Y-16950833D02*
X5133469Y-16912738D01*
X5133469Y-16912738D02*
X5133469Y-16865119D01*
X5133469Y-16865119D02*
X5142993Y-16827023D01*
X5142993Y-16827023D02*
X5152517Y-16807976D01*
X5152517Y-16807976D02*
X5162041Y-16798452D01*
X5162041Y-16798452D02*
X5181088Y-16788928D01*
X5333469Y-16969880D02*
X5342993Y-16979404D01*
X5342993Y-16979404D02*
X5333469Y-16988928D01*
X5333469Y-16988928D02*
X5323946Y-16979404D01*
X5323946Y-16979404D02*
X5333469Y-16969880D01*
X5333469Y-16969880D02*
X5333469Y-16988928D01*
X5466803Y-16788928D02*
X5485850Y-16788928D01*
X5485850Y-16788928D02*
X5504898Y-16798452D01*
X5504898Y-16798452D02*
X5514422Y-16807976D01*
X5514422Y-16807976D02*
X5523946Y-16827023D01*
X5523946Y-16827023D02*
X5533469Y-16865119D01*
X5533469Y-16865119D02*
X5533469Y-16912738D01*
X5533469Y-16912738D02*
X5523946Y-16950833D01*
X5523946Y-16950833D02*
X5514422Y-16969880D01*
X5514422Y-16969880D02*
X5504898Y-16979404D01*
X5504898Y-16979404D02*
X5485850Y-16988928D01*
X5485850Y-16988928D02*
X5466803Y-16988928D01*
X5466803Y-16988928D02*
X5447755Y-16979404D01*
X5447755Y-16979404D02*
X5438231Y-16969880D01*
X5438231Y-16969880D02*
X5428707Y-16950833D01*
X5428707Y-16950833D02*
X5419184Y-16912738D01*
X5419184Y-16912738D02*
X5419184Y-16865119D01*
X5419184Y-16865119D02*
X5428707Y-16827023D01*
X5428707Y-16827023D02*
X5438231Y-16807976D01*
X5438231Y-16807976D02*
X5447755Y-16798452D01*
X5447755Y-16798452D02*
X5466803Y-16788928D01*
X5704898Y-16855595D02*
X5704898Y-16988928D01*
X5657279Y-16779404D02*
X5609660Y-16922261D01*
X5609660Y-16922261D02*
X5733469Y-16922261D01*
X5790612Y-16788928D02*
X5923945Y-16788928D01*
X5923945Y-16788928D02*
X5838231Y-16988928D01*
X5990612Y-16807976D02*
X6000136Y-16798452D01*
X6000136Y-16798452D02*
X6019184Y-16788928D01*
X6019184Y-16788928D02*
X6066803Y-16788928D01*
X6066803Y-16788928D02*
X6085850Y-16798452D01*
X6085850Y-16798452D02*
X6095374Y-16807976D01*
X6095374Y-16807976D02*
X6104898Y-16827023D01*
X6104898Y-16827023D02*
X6104898Y-16846071D01*
X6104898Y-16846071D02*
X6095374Y-16874642D01*
X6095374Y-16874642D02*
X5981088Y-16988928D01*
X5981088Y-16988928D02*
X6104898Y-16988928D01*
X6181088Y-16788928D02*
X6181088Y-16827023D01*
X6257279Y-16788928D02*
X6257279Y-16827023D01*
X6552517Y-17065119D02*
X6542993Y-17055595D01*
X6542993Y-17055595D02*
X6523946Y-17027023D01*
X6523946Y-17027023D02*
X6514422Y-17007976D01*
X6514422Y-17007976D02*
X6504898Y-16979404D01*
X6504898Y-16979404D02*
X6495374Y-16931785D01*
X6495374Y-16931785D02*
X6495374Y-16893690D01*
X6495374Y-16893690D02*
X6504898Y-16846071D01*
X6504898Y-16846071D02*
X6514422Y-16817500D01*
X6514422Y-16817500D02*
X6523946Y-16798452D01*
X6523946Y-16798452D02*
X6542993Y-16769880D01*
X6542993Y-16769880D02*
X6552517Y-16760357D01*
X6714422Y-16855595D02*
X6714422Y-16988928D01*
X6666803Y-16779404D02*
X6619184Y-16922261D01*
X6619184Y-16922261D02*
X6742993Y-16922261D01*
X6971565Y-16988928D02*
X6971565Y-16788928D01*
X7057279Y-16988928D02*
X7057279Y-16884166D01*
X7057279Y-16884166D02*
X7047755Y-16865119D01*
X7047755Y-16865119D02*
X7028708Y-16855595D01*
X7028708Y-16855595D02*
X7000136Y-16855595D01*
X7000136Y-16855595D02*
X6981088Y-16865119D01*
X6981088Y-16865119D02*
X6971565Y-16874642D01*
X7181088Y-16988928D02*
X7162041Y-16979404D01*
X7162041Y-16979404D02*
X7152517Y-16969880D01*
X7152517Y-16969880D02*
X7142993Y-16950833D01*
X7142993Y-16950833D02*
X7142993Y-16893690D01*
X7142993Y-16893690D02*
X7152517Y-16874642D01*
X7152517Y-16874642D02*
X7162041Y-16865119D01*
X7162041Y-16865119D02*
X7181088Y-16855595D01*
X7181088Y-16855595D02*
X7209660Y-16855595D01*
X7209660Y-16855595D02*
X7228708Y-16865119D01*
X7228708Y-16865119D02*
X7238231Y-16874642D01*
X7238231Y-16874642D02*
X7247755Y-16893690D01*
X7247755Y-16893690D02*
X7247755Y-16950833D01*
X7247755Y-16950833D02*
X7238231Y-16969880D01*
X7238231Y-16969880D02*
X7228708Y-16979404D01*
X7228708Y-16979404D02*
X7209660Y-16988928D01*
X7209660Y-16988928D02*
X7181088Y-16988928D01*
X7362041Y-16988928D02*
X7342993Y-16979404D01*
X7342993Y-16979404D02*
X7333469Y-16960357D01*
X7333469Y-16960357D02*
X7333469Y-16788928D01*
X7514422Y-16979404D02*
X7495374Y-16988928D01*
X7495374Y-16988928D02*
X7457279Y-16988928D01*
X7457279Y-16988928D02*
X7438231Y-16979404D01*
X7438231Y-16979404D02*
X7428708Y-16960357D01*
X7428708Y-16960357D02*
X7428708Y-16884166D01*
X7428708Y-16884166D02*
X7438231Y-16865119D01*
X7438231Y-16865119D02*
X7457279Y-16855595D01*
X7457279Y-16855595D02*
X7495374Y-16855595D01*
X7495374Y-16855595D02*
X7514422Y-16865119D01*
X7514422Y-16865119D02*
X7523946Y-16884166D01*
X7523946Y-16884166D02*
X7523946Y-16903214D01*
X7523946Y-16903214D02*
X7428708Y-16922261D01*
X7600136Y-16979404D02*
X7619184Y-16988928D01*
X7619184Y-16988928D02*
X7657279Y-16988928D01*
X7657279Y-16988928D02*
X7676327Y-16979404D01*
X7676327Y-16979404D02*
X7685850Y-16960357D01*
X7685850Y-16960357D02*
X7685850Y-16950833D01*
X7685850Y-16950833D02*
X7676327Y-16931785D01*
X7676327Y-16931785D02*
X7657279Y-16922261D01*
X7657279Y-16922261D02*
X7628708Y-16922261D01*
X7628708Y-16922261D02*
X7609660Y-16912738D01*
X7609660Y-16912738D02*
X7600136Y-16893690D01*
X7600136Y-16893690D02*
X7600136Y-16884166D01*
X7600136Y-16884166D02*
X7609660Y-16865119D01*
X7609660Y-16865119D02*
X7628708Y-16855595D01*
X7628708Y-16855595D02*
X7657279Y-16855595D01*
X7657279Y-16855595D02*
X7676327Y-16865119D01*
X7752517Y-17065119D02*
X7762041Y-17055595D01*
X7762041Y-17055595D02*
X7781089Y-17027023D01*
X7781089Y-17027023D02*
X7790612Y-17007976D01*
X7790612Y-17007976D02*
X7800136Y-16979404D01*
X7800136Y-16979404D02*
X7809660Y-16931785D01*
X7809660Y-16931785D02*
X7809660Y-16893690D01*
X7809660Y-16893690D02*
X7800136Y-16846071D01*
X7800136Y-16846071D02*
X7790612Y-16817500D01*
X7790612Y-16817500D02*
X7781089Y-16798452D01*
X7781089Y-16798452D02*
X7762041Y-16769880D01*
X7762041Y-16769880D02*
X7752517Y-16760357D01*
X8114422Y-17065119D02*
X8104898Y-17055595D01*
X8104898Y-17055595D02*
X8085850Y-17027023D01*
X8085850Y-17027023D02*
X8076327Y-17007976D01*
X8076327Y-17007976D02*
X8066803Y-16979404D01*
X8066803Y-16979404D02*
X8057279Y-16931785D01*
X8057279Y-16931785D02*
X8057279Y-16893690D01*
X8057279Y-16893690D02*
X8066803Y-16846071D01*
X8066803Y-16846071D02*
X8076327Y-16817500D01*
X8076327Y-16817500D02*
X8085850Y-16798452D01*
X8085850Y-16798452D02*
X8104898Y-16769880D01*
X8104898Y-16769880D02*
X8114422Y-16760357D01*
X8190612Y-16855595D02*
X8190612Y-16988928D01*
X8190612Y-16874642D02*
X8200136Y-16865119D01*
X8200136Y-16865119D02*
X8219184Y-16855595D01*
X8219184Y-16855595D02*
X8247755Y-16855595D01*
X8247755Y-16855595D02*
X8266803Y-16865119D01*
X8266803Y-16865119D02*
X8276327Y-16884166D01*
X8276327Y-16884166D02*
X8276327Y-16988928D01*
X8400136Y-16988928D02*
X8381089Y-16979404D01*
X8381089Y-16979404D02*
X8371565Y-16969880D01*
X8371565Y-16969880D02*
X8362041Y-16950833D01*
X8362041Y-16950833D02*
X8362041Y-16893690D01*
X8362041Y-16893690D02*
X8371565Y-16874642D01*
X8371565Y-16874642D02*
X8381089Y-16865119D01*
X8381089Y-16865119D02*
X8400136Y-16855595D01*
X8400136Y-16855595D02*
X8428708Y-16855595D01*
X8428708Y-16855595D02*
X8447755Y-16865119D01*
X8447755Y-16865119D02*
X8457279Y-16874642D01*
X8457279Y-16874642D02*
X8466803Y-16893690D01*
X8466803Y-16893690D02*
X8466803Y-16950833D01*
X8466803Y-16950833D02*
X8457279Y-16969880D01*
X8457279Y-16969880D02*
X8447755Y-16979404D01*
X8447755Y-16979404D02*
X8428708Y-16988928D01*
X8428708Y-16988928D02*
X8400136Y-16988928D01*
X8523946Y-16855595D02*
X8600136Y-16855595D01*
X8552517Y-16788928D02*
X8552517Y-16960357D01*
X8552517Y-16960357D02*
X8562041Y-16979404D01*
X8562041Y-16979404D02*
X8581089Y-16988928D01*
X8581089Y-16988928D02*
X8600136Y-16988928D01*
X8819184Y-16855595D02*
X8819184Y-17055595D01*
X8819184Y-16865119D02*
X8838232Y-16855595D01*
X8838232Y-16855595D02*
X8876327Y-16855595D01*
X8876327Y-16855595D02*
X8895374Y-16865119D01*
X8895374Y-16865119D02*
X8904898Y-16874642D01*
X8904898Y-16874642D02*
X8914422Y-16893690D01*
X8914422Y-16893690D02*
X8914422Y-16950833D01*
X8914422Y-16950833D02*
X8904898Y-16969880D01*
X8904898Y-16969880D02*
X8895374Y-16979404D01*
X8895374Y-16979404D02*
X8876327Y-16988928D01*
X8876327Y-16988928D02*
X8838232Y-16988928D01*
X8838232Y-16988928D02*
X8819184Y-16979404D01*
X9028708Y-16988928D02*
X9009660Y-16979404D01*
X9009660Y-16979404D02*
X9000136Y-16960357D01*
X9000136Y-16960357D02*
X9000136Y-16788928D01*
X9190613Y-16988928D02*
X9190613Y-16884166D01*
X9190613Y-16884166D02*
X9181089Y-16865119D01*
X9181089Y-16865119D02*
X9162041Y-16855595D01*
X9162041Y-16855595D02*
X9123946Y-16855595D01*
X9123946Y-16855595D02*
X9104898Y-16865119D01*
X9190613Y-16979404D02*
X9171565Y-16988928D01*
X9171565Y-16988928D02*
X9123946Y-16988928D01*
X9123946Y-16988928D02*
X9104898Y-16979404D01*
X9104898Y-16979404D02*
X9095374Y-16960357D01*
X9095374Y-16960357D02*
X9095374Y-16941309D01*
X9095374Y-16941309D02*
X9104898Y-16922261D01*
X9104898Y-16922261D02*
X9123946Y-16912738D01*
X9123946Y-16912738D02*
X9171565Y-16912738D01*
X9171565Y-16912738D02*
X9190613Y-16903214D01*
X9257279Y-16855595D02*
X9333470Y-16855595D01*
X9285851Y-16788928D02*
X9285851Y-16960357D01*
X9285851Y-16960357D02*
X9295374Y-16979404D01*
X9295374Y-16979404D02*
X9314422Y-16988928D01*
X9314422Y-16988928D02*
X9333470Y-16988928D01*
X9476327Y-16979404D02*
X9457279Y-16988928D01*
X9457279Y-16988928D02*
X9419184Y-16988928D01*
X9419184Y-16988928D02*
X9400136Y-16979404D01*
X9400136Y-16979404D02*
X9390613Y-16960357D01*
X9390613Y-16960357D02*
X9390613Y-16884166D01*
X9390613Y-16884166D02*
X9400136Y-16865119D01*
X9400136Y-16865119D02*
X9419184Y-16855595D01*
X9419184Y-16855595D02*
X9457279Y-16855595D01*
X9457279Y-16855595D02*
X9476327Y-16865119D01*
X9476327Y-16865119D02*
X9485851Y-16884166D01*
X9485851Y-16884166D02*
X9485851Y-16903214D01*
X9485851Y-16903214D02*
X9390613Y-16922261D01*
X9657279Y-16988928D02*
X9657279Y-16788928D01*
X9657279Y-16979404D02*
X9638232Y-16988928D01*
X9638232Y-16988928D02*
X9600136Y-16988928D01*
X9600136Y-16988928D02*
X9581089Y-16979404D01*
X9581089Y-16979404D02*
X9571565Y-16969880D01*
X9571565Y-16969880D02*
X9562041Y-16950833D01*
X9562041Y-16950833D02*
X9562041Y-16893690D01*
X9562041Y-16893690D02*
X9571565Y-16874642D01*
X9571565Y-16874642D02*
X9581089Y-16865119D01*
X9581089Y-16865119D02*
X9600136Y-16855595D01*
X9600136Y-16855595D02*
X9638232Y-16855595D01*
X9638232Y-16855595D02*
X9657279Y-16865119D01*
X9733470Y-17065119D02*
X9742994Y-17055595D01*
X9742994Y-17055595D02*
X9762041Y-17027023D01*
X9762041Y-17027023D02*
X9771565Y-17007976D01*
X9771565Y-17007976D02*
X9781089Y-16979404D01*
X9781089Y-16979404D02*
X9790613Y-16931785D01*
X9790613Y-16931785D02*
X9790613Y-16893690D01*
X9790613Y-16893690D02*
X9781089Y-16846071D01*
X9781089Y-16846071D02*
X9771565Y-16817500D01*
X9771565Y-16817500D02*
X9762041Y-16798452D01*
X9762041Y-16798452D02*
X9742994Y-16769880D01*
X9742994Y-16769880D02*
X9733470Y-16760357D01*
D14*
X2905612Y-17075404D02*
X2905612Y-17245404D01*
X2820612Y-17160404D02*
X2990612Y-17160404D01*
D10*
X3342993Y-17252928D02*
X3228707Y-17252928D01*
X3285850Y-17252928D02*
X3285850Y-17052928D01*
X3285850Y-17052928D02*
X3266802Y-17081500D01*
X3266802Y-17081500D02*
X3247755Y-17100547D01*
X3247755Y-17100547D02*
X3228707Y-17110071D01*
X3428707Y-17233880D02*
X3438231Y-17243404D01*
X3438231Y-17243404D02*
X3428707Y-17252928D01*
X3428707Y-17252928D02*
X3419183Y-17243404D01*
X3419183Y-17243404D02*
X3428707Y-17233880D01*
X3428707Y-17233880D02*
X3428707Y-17252928D01*
X3504898Y-17052928D02*
X3638231Y-17052928D01*
X3638231Y-17052928D02*
X3552517Y-17252928D01*
X3752517Y-17052928D02*
X3771564Y-17052928D01*
X3771564Y-17052928D02*
X3790612Y-17062452D01*
X3790612Y-17062452D02*
X3800136Y-17071976D01*
X3800136Y-17071976D02*
X3809660Y-17091023D01*
X3809660Y-17091023D02*
X3819183Y-17129119D01*
X3819183Y-17129119D02*
X3819183Y-17176738D01*
X3819183Y-17176738D02*
X3809660Y-17214833D01*
X3809660Y-17214833D02*
X3800136Y-17233880D01*
X3800136Y-17233880D02*
X3790612Y-17243404D01*
X3790612Y-17243404D02*
X3771564Y-17252928D01*
X3771564Y-17252928D02*
X3752517Y-17252928D01*
X3752517Y-17252928D02*
X3733469Y-17243404D01*
X3733469Y-17243404D02*
X3723945Y-17233880D01*
X3723945Y-17233880D02*
X3714421Y-17214833D01*
X3714421Y-17214833D02*
X3704898Y-17176738D01*
X3704898Y-17176738D02*
X3704898Y-17129119D01*
X3704898Y-17129119D02*
X3714421Y-17091023D01*
X3714421Y-17091023D02*
X3723945Y-17071976D01*
X3723945Y-17071976D02*
X3733469Y-17062452D01*
X3733469Y-17062452D02*
X3752517Y-17052928D01*
X3942993Y-17052928D02*
X3962041Y-17052928D01*
X3962041Y-17052928D02*
X3981088Y-17062452D01*
X3981088Y-17062452D02*
X3990612Y-17071976D01*
X3990612Y-17071976D02*
X4000136Y-17091023D01*
X4000136Y-17091023D02*
X4009660Y-17129119D01*
X4009660Y-17129119D02*
X4009660Y-17176738D01*
X4009660Y-17176738D02*
X4000136Y-17214833D01*
X4000136Y-17214833D02*
X3990612Y-17233880D01*
X3990612Y-17233880D02*
X3981088Y-17243404D01*
X3981088Y-17243404D02*
X3962041Y-17252928D01*
X3962041Y-17252928D02*
X3942993Y-17252928D01*
X3942993Y-17252928D02*
X3923945Y-17243404D01*
X3923945Y-17243404D02*
X3914421Y-17233880D01*
X3914421Y-17233880D02*
X3904898Y-17214833D01*
X3904898Y-17214833D02*
X3895374Y-17176738D01*
X3895374Y-17176738D02*
X3895374Y-17129119D01*
X3895374Y-17129119D02*
X3904898Y-17091023D01*
X3904898Y-17091023D02*
X3914421Y-17071976D01*
X3914421Y-17071976D02*
X3923945Y-17062452D01*
X3923945Y-17062452D02*
X3942993Y-17052928D01*
X4095374Y-17252928D02*
X4095374Y-17119595D01*
X4095374Y-17138642D02*
X4104898Y-17129119D01*
X4104898Y-17129119D02*
X4123945Y-17119595D01*
X4123945Y-17119595D02*
X4152517Y-17119595D01*
X4152517Y-17119595D02*
X4171564Y-17129119D01*
X4171564Y-17129119D02*
X4181088Y-17148166D01*
X4181088Y-17148166D02*
X4181088Y-17252928D01*
X4181088Y-17148166D02*
X4190612Y-17129119D01*
X4190612Y-17129119D02*
X4209660Y-17119595D01*
X4209660Y-17119595D02*
X4238231Y-17119595D01*
X4238231Y-17119595D02*
X4257279Y-17129119D01*
X4257279Y-17129119D02*
X4266803Y-17148166D01*
X4266803Y-17148166D02*
X4266803Y-17252928D01*
X4362041Y-17252928D02*
X4362041Y-17119595D01*
X4362041Y-17138642D02*
X4371564Y-17129119D01*
X4371564Y-17129119D02*
X4390612Y-17119595D01*
X4390612Y-17119595D02*
X4419184Y-17119595D01*
X4419184Y-17119595D02*
X4438231Y-17129119D01*
X4438231Y-17129119D02*
X4447755Y-17148166D01*
X4447755Y-17148166D02*
X4447755Y-17252928D01*
X4447755Y-17148166D02*
X4457279Y-17129119D01*
X4457279Y-17129119D02*
X4476326Y-17119595D01*
X4476326Y-17119595D02*
X4504898Y-17119595D01*
X4504898Y-17119595D02*
X4523945Y-17129119D01*
X4523945Y-17129119D02*
X4533469Y-17148166D01*
X4533469Y-17148166D02*
X4533469Y-17252928D01*
X4923945Y-17043404D02*
X4752517Y-17300547D01*
X5181088Y-17052928D02*
X5200136Y-17052928D01*
X5200136Y-17052928D02*
X5219184Y-17062452D01*
X5219184Y-17062452D02*
X5228707Y-17071976D01*
X5228707Y-17071976D02*
X5238231Y-17091023D01*
X5238231Y-17091023D02*
X5247755Y-17129119D01*
X5247755Y-17129119D02*
X5247755Y-17176738D01*
X5247755Y-17176738D02*
X5238231Y-17214833D01*
X5238231Y-17214833D02*
X5228707Y-17233880D01*
X5228707Y-17233880D02*
X5219184Y-17243404D01*
X5219184Y-17243404D02*
X5200136Y-17252928D01*
X5200136Y-17252928D02*
X5181088Y-17252928D01*
X5181088Y-17252928D02*
X5162041Y-17243404D01*
X5162041Y-17243404D02*
X5152517Y-17233880D01*
X5152517Y-17233880D02*
X5142993Y-17214833D01*
X5142993Y-17214833D02*
X5133469Y-17176738D01*
X5133469Y-17176738D02*
X5133469Y-17129119D01*
X5133469Y-17129119D02*
X5142993Y-17091023D01*
X5142993Y-17091023D02*
X5152517Y-17071976D01*
X5152517Y-17071976D02*
X5162041Y-17062452D01*
X5162041Y-17062452D02*
X5181088Y-17052928D01*
X5333469Y-17233880D02*
X5342993Y-17243404D01*
X5342993Y-17243404D02*
X5333469Y-17252928D01*
X5333469Y-17252928D02*
X5323946Y-17243404D01*
X5323946Y-17243404D02*
X5333469Y-17233880D01*
X5333469Y-17233880D02*
X5333469Y-17252928D01*
X5466803Y-17052928D02*
X5485850Y-17052928D01*
X5485850Y-17052928D02*
X5504898Y-17062452D01*
X5504898Y-17062452D02*
X5514422Y-17071976D01*
X5514422Y-17071976D02*
X5523946Y-17091023D01*
X5523946Y-17091023D02*
X5533469Y-17129119D01*
X5533469Y-17129119D02*
X5533469Y-17176738D01*
X5533469Y-17176738D02*
X5523946Y-17214833D01*
X5523946Y-17214833D02*
X5514422Y-17233880D01*
X5514422Y-17233880D02*
X5504898Y-17243404D01*
X5504898Y-17243404D02*
X5485850Y-17252928D01*
X5485850Y-17252928D02*
X5466803Y-17252928D01*
X5466803Y-17252928D02*
X5447755Y-17243404D01*
X5447755Y-17243404D02*
X5438231Y-17233880D01*
X5438231Y-17233880D02*
X5428707Y-17214833D01*
X5428707Y-17214833D02*
X5419184Y-17176738D01*
X5419184Y-17176738D02*
X5419184Y-17129119D01*
X5419184Y-17129119D02*
X5428707Y-17091023D01*
X5428707Y-17091023D02*
X5438231Y-17071976D01*
X5438231Y-17071976D02*
X5447755Y-17062452D01*
X5447755Y-17062452D02*
X5466803Y-17052928D01*
X5704898Y-17052928D02*
X5666803Y-17052928D01*
X5666803Y-17052928D02*
X5647755Y-17062452D01*
X5647755Y-17062452D02*
X5638231Y-17071976D01*
X5638231Y-17071976D02*
X5619184Y-17100547D01*
X5619184Y-17100547D02*
X5609660Y-17138642D01*
X5609660Y-17138642D02*
X5609660Y-17214833D01*
X5609660Y-17214833D02*
X5619184Y-17233880D01*
X5619184Y-17233880D02*
X5628707Y-17243404D01*
X5628707Y-17243404D02*
X5647755Y-17252928D01*
X5647755Y-17252928D02*
X5685850Y-17252928D01*
X5685850Y-17252928D02*
X5704898Y-17243404D01*
X5704898Y-17243404D02*
X5714422Y-17233880D01*
X5714422Y-17233880D02*
X5723945Y-17214833D01*
X5723945Y-17214833D02*
X5723945Y-17167214D01*
X5723945Y-17167214D02*
X5714422Y-17148166D01*
X5714422Y-17148166D02*
X5704898Y-17138642D01*
X5704898Y-17138642D02*
X5685850Y-17129119D01*
X5685850Y-17129119D02*
X5647755Y-17129119D01*
X5647755Y-17129119D02*
X5628707Y-17138642D01*
X5628707Y-17138642D02*
X5619184Y-17148166D01*
X5619184Y-17148166D02*
X5609660Y-17167214D01*
X5895374Y-17052928D02*
X5857279Y-17052928D01*
X5857279Y-17052928D02*
X5838231Y-17062452D01*
X5838231Y-17062452D02*
X5828707Y-17071976D01*
X5828707Y-17071976D02*
X5809660Y-17100547D01*
X5809660Y-17100547D02*
X5800136Y-17138642D01*
X5800136Y-17138642D02*
X5800136Y-17214833D01*
X5800136Y-17214833D02*
X5809660Y-17233880D01*
X5809660Y-17233880D02*
X5819184Y-17243404D01*
X5819184Y-17243404D02*
X5838231Y-17252928D01*
X5838231Y-17252928D02*
X5876326Y-17252928D01*
X5876326Y-17252928D02*
X5895374Y-17243404D01*
X5895374Y-17243404D02*
X5904898Y-17233880D01*
X5904898Y-17233880D02*
X5914422Y-17214833D01*
X5914422Y-17214833D02*
X5914422Y-17167214D01*
X5914422Y-17167214D02*
X5904898Y-17148166D01*
X5904898Y-17148166D02*
X5895374Y-17138642D01*
X5895374Y-17138642D02*
X5876326Y-17129119D01*
X5876326Y-17129119D02*
X5838231Y-17129119D01*
X5838231Y-17129119D02*
X5819184Y-17138642D01*
X5819184Y-17138642D02*
X5809660Y-17148166D01*
X5809660Y-17148166D02*
X5800136Y-17167214D01*
X6009660Y-17252928D02*
X6047755Y-17252928D01*
X6047755Y-17252928D02*
X6066803Y-17243404D01*
X6066803Y-17243404D02*
X6076326Y-17233880D01*
X6076326Y-17233880D02*
X6095374Y-17205309D01*
X6095374Y-17205309D02*
X6104898Y-17167214D01*
X6104898Y-17167214D02*
X6104898Y-17091023D01*
X6104898Y-17091023D02*
X6095374Y-17071976D01*
X6095374Y-17071976D02*
X6085850Y-17062452D01*
X6085850Y-17062452D02*
X6066803Y-17052928D01*
X6066803Y-17052928D02*
X6028707Y-17052928D01*
X6028707Y-17052928D02*
X6009660Y-17062452D01*
X6009660Y-17062452D02*
X6000136Y-17071976D01*
X6000136Y-17071976D02*
X5990612Y-17091023D01*
X5990612Y-17091023D02*
X5990612Y-17138642D01*
X5990612Y-17138642D02*
X6000136Y-17157690D01*
X6000136Y-17157690D02*
X6009660Y-17167214D01*
X6009660Y-17167214D02*
X6028707Y-17176738D01*
X6028707Y-17176738D02*
X6066803Y-17176738D01*
X6066803Y-17176738D02*
X6085850Y-17167214D01*
X6085850Y-17167214D02*
X6095374Y-17157690D01*
X6095374Y-17157690D02*
X6104898Y-17138642D01*
X6181088Y-17052928D02*
X6181088Y-17091023D01*
X6257279Y-17052928D02*
X6257279Y-17091023D01*
X6552517Y-17329119D02*
X6542993Y-17319595D01*
X6542993Y-17319595D02*
X6523946Y-17291023D01*
X6523946Y-17291023D02*
X6514422Y-17271976D01*
X6514422Y-17271976D02*
X6504898Y-17243404D01*
X6504898Y-17243404D02*
X6495374Y-17195785D01*
X6495374Y-17195785D02*
X6495374Y-17157690D01*
X6495374Y-17157690D02*
X6504898Y-17110071D01*
X6504898Y-17110071D02*
X6514422Y-17081500D01*
X6514422Y-17081500D02*
X6523946Y-17062452D01*
X6523946Y-17062452D02*
X6542993Y-17033880D01*
X6542993Y-17033880D02*
X6552517Y-17024357D01*
X6609660Y-17052928D02*
X6733469Y-17052928D01*
X6733469Y-17052928D02*
X6666803Y-17129119D01*
X6666803Y-17129119D02*
X6695374Y-17129119D01*
X6695374Y-17129119D02*
X6714422Y-17138642D01*
X6714422Y-17138642D02*
X6723946Y-17148166D01*
X6723946Y-17148166D02*
X6733469Y-17167214D01*
X6733469Y-17167214D02*
X6733469Y-17214833D01*
X6733469Y-17214833D02*
X6723946Y-17233880D01*
X6723946Y-17233880D02*
X6714422Y-17243404D01*
X6714422Y-17243404D02*
X6695374Y-17252928D01*
X6695374Y-17252928D02*
X6638231Y-17252928D01*
X6638231Y-17252928D02*
X6619184Y-17243404D01*
X6619184Y-17243404D02*
X6609660Y-17233880D01*
X6904898Y-17052928D02*
X6866803Y-17052928D01*
X6866803Y-17052928D02*
X6847755Y-17062452D01*
X6847755Y-17062452D02*
X6838231Y-17071976D01*
X6838231Y-17071976D02*
X6819184Y-17100547D01*
X6819184Y-17100547D02*
X6809660Y-17138642D01*
X6809660Y-17138642D02*
X6809660Y-17214833D01*
X6809660Y-17214833D02*
X6819184Y-17233880D01*
X6819184Y-17233880D02*
X6828707Y-17243404D01*
X6828707Y-17243404D02*
X6847755Y-17252928D01*
X6847755Y-17252928D02*
X6885850Y-17252928D01*
X6885850Y-17252928D02*
X6904898Y-17243404D01*
X6904898Y-17243404D02*
X6914422Y-17233880D01*
X6914422Y-17233880D02*
X6923946Y-17214833D01*
X6923946Y-17214833D02*
X6923946Y-17167214D01*
X6923946Y-17167214D02*
X6914422Y-17148166D01*
X6914422Y-17148166D02*
X6904898Y-17138642D01*
X6904898Y-17138642D02*
X6885850Y-17129119D01*
X6885850Y-17129119D02*
X6847755Y-17129119D01*
X6847755Y-17129119D02*
X6828707Y-17138642D01*
X6828707Y-17138642D02*
X6819184Y-17148166D01*
X6819184Y-17148166D02*
X6809660Y-17167214D01*
X7162041Y-17252928D02*
X7162041Y-17052928D01*
X7247755Y-17252928D02*
X7247755Y-17148166D01*
X7247755Y-17148166D02*
X7238231Y-17129119D01*
X7238231Y-17129119D02*
X7219184Y-17119595D01*
X7219184Y-17119595D02*
X7190612Y-17119595D01*
X7190612Y-17119595D02*
X7171565Y-17129119D01*
X7171565Y-17129119D02*
X7162041Y-17138642D01*
X7371565Y-17252928D02*
X7352517Y-17243404D01*
X7352517Y-17243404D02*
X7342993Y-17233880D01*
X7342993Y-17233880D02*
X7333469Y-17214833D01*
X7333469Y-17214833D02*
X7333469Y-17157690D01*
X7333469Y-17157690D02*
X7342993Y-17138642D01*
X7342993Y-17138642D02*
X7352517Y-17129119D01*
X7352517Y-17129119D02*
X7371565Y-17119595D01*
X7371565Y-17119595D02*
X7400136Y-17119595D01*
X7400136Y-17119595D02*
X7419184Y-17129119D01*
X7419184Y-17129119D02*
X7428708Y-17138642D01*
X7428708Y-17138642D02*
X7438231Y-17157690D01*
X7438231Y-17157690D02*
X7438231Y-17214833D01*
X7438231Y-17214833D02*
X7428708Y-17233880D01*
X7428708Y-17233880D02*
X7419184Y-17243404D01*
X7419184Y-17243404D02*
X7400136Y-17252928D01*
X7400136Y-17252928D02*
X7371565Y-17252928D01*
X7552517Y-17252928D02*
X7533469Y-17243404D01*
X7533469Y-17243404D02*
X7523946Y-17224357D01*
X7523946Y-17224357D02*
X7523946Y-17052928D01*
X7704898Y-17243404D02*
X7685850Y-17252928D01*
X7685850Y-17252928D02*
X7647755Y-17252928D01*
X7647755Y-17252928D02*
X7628708Y-17243404D01*
X7628708Y-17243404D02*
X7619184Y-17224357D01*
X7619184Y-17224357D02*
X7619184Y-17148166D01*
X7619184Y-17148166D02*
X7628708Y-17129119D01*
X7628708Y-17129119D02*
X7647755Y-17119595D01*
X7647755Y-17119595D02*
X7685850Y-17119595D01*
X7685850Y-17119595D02*
X7704898Y-17129119D01*
X7704898Y-17129119D02*
X7714422Y-17148166D01*
X7714422Y-17148166D02*
X7714422Y-17167214D01*
X7714422Y-17167214D02*
X7619184Y-17186261D01*
X7790612Y-17243404D02*
X7809660Y-17252928D01*
X7809660Y-17252928D02*
X7847755Y-17252928D01*
X7847755Y-17252928D02*
X7866803Y-17243404D01*
X7866803Y-17243404D02*
X7876327Y-17224357D01*
X7876327Y-17224357D02*
X7876327Y-17214833D01*
X7876327Y-17214833D02*
X7866803Y-17195785D01*
X7866803Y-17195785D02*
X7847755Y-17186261D01*
X7847755Y-17186261D02*
X7819184Y-17186261D01*
X7819184Y-17186261D02*
X7800136Y-17176738D01*
X7800136Y-17176738D02*
X7790612Y-17157690D01*
X7790612Y-17157690D02*
X7790612Y-17148166D01*
X7790612Y-17148166D02*
X7800136Y-17129119D01*
X7800136Y-17129119D02*
X7819184Y-17119595D01*
X7819184Y-17119595D02*
X7847755Y-17119595D01*
X7847755Y-17119595D02*
X7866803Y-17129119D01*
X7942993Y-17329119D02*
X7952517Y-17319595D01*
X7952517Y-17319595D02*
X7971565Y-17291023D01*
X7971565Y-17291023D02*
X7981089Y-17271976D01*
X7981089Y-17271976D02*
X7990612Y-17243404D01*
X7990612Y-17243404D02*
X8000136Y-17195785D01*
X8000136Y-17195785D02*
X8000136Y-17157690D01*
X8000136Y-17157690D02*
X7990612Y-17110071D01*
X7990612Y-17110071D02*
X7981089Y-17081500D01*
X7981089Y-17081500D02*
X7971565Y-17062452D01*
X7971565Y-17062452D02*
X7952517Y-17033880D01*
X7952517Y-17033880D02*
X7942993Y-17024357D01*
X8304898Y-17329119D02*
X8295374Y-17319595D01*
X8295374Y-17319595D02*
X8276327Y-17291023D01*
X8276327Y-17291023D02*
X8266803Y-17271976D01*
X8266803Y-17271976D02*
X8257279Y-17243404D01*
X8257279Y-17243404D02*
X8247755Y-17195785D01*
X8247755Y-17195785D02*
X8247755Y-17157690D01*
X8247755Y-17157690D02*
X8257279Y-17110071D01*
X8257279Y-17110071D02*
X8266803Y-17081500D01*
X8266803Y-17081500D02*
X8276327Y-17062452D01*
X8276327Y-17062452D02*
X8295374Y-17033880D01*
X8295374Y-17033880D02*
X8304898Y-17024357D01*
X8381089Y-17119595D02*
X8381089Y-17252928D01*
X8381089Y-17138642D02*
X8390612Y-17129119D01*
X8390612Y-17129119D02*
X8409660Y-17119595D01*
X8409660Y-17119595D02*
X8438232Y-17119595D01*
X8438232Y-17119595D02*
X8457279Y-17129119D01*
X8457279Y-17129119D02*
X8466803Y-17148166D01*
X8466803Y-17148166D02*
X8466803Y-17252928D01*
X8590612Y-17252928D02*
X8571565Y-17243404D01*
X8571565Y-17243404D02*
X8562041Y-17233880D01*
X8562041Y-17233880D02*
X8552517Y-17214833D01*
X8552517Y-17214833D02*
X8552517Y-17157690D01*
X8552517Y-17157690D02*
X8562041Y-17138642D01*
X8562041Y-17138642D02*
X8571565Y-17129119D01*
X8571565Y-17129119D02*
X8590612Y-17119595D01*
X8590612Y-17119595D02*
X8619184Y-17119595D01*
X8619184Y-17119595D02*
X8638232Y-17129119D01*
X8638232Y-17129119D02*
X8647755Y-17138642D01*
X8647755Y-17138642D02*
X8657279Y-17157690D01*
X8657279Y-17157690D02*
X8657279Y-17214833D01*
X8657279Y-17214833D02*
X8647755Y-17233880D01*
X8647755Y-17233880D02*
X8638232Y-17243404D01*
X8638232Y-17243404D02*
X8619184Y-17252928D01*
X8619184Y-17252928D02*
X8590612Y-17252928D01*
X8714422Y-17119595D02*
X8790612Y-17119595D01*
X8742993Y-17052928D02*
X8742993Y-17224357D01*
X8742993Y-17224357D02*
X8752517Y-17243404D01*
X8752517Y-17243404D02*
X8771565Y-17252928D01*
X8771565Y-17252928D02*
X8790612Y-17252928D01*
X9009660Y-17119595D02*
X9009660Y-17319595D01*
X9009660Y-17129119D02*
X9028708Y-17119595D01*
X9028708Y-17119595D02*
X9066803Y-17119595D01*
X9066803Y-17119595D02*
X9085851Y-17129119D01*
X9085851Y-17129119D02*
X9095374Y-17138642D01*
X9095374Y-17138642D02*
X9104898Y-17157690D01*
X9104898Y-17157690D02*
X9104898Y-17214833D01*
X9104898Y-17214833D02*
X9095374Y-17233880D01*
X9095374Y-17233880D02*
X9085851Y-17243404D01*
X9085851Y-17243404D02*
X9066803Y-17252928D01*
X9066803Y-17252928D02*
X9028708Y-17252928D01*
X9028708Y-17252928D02*
X9009660Y-17243404D01*
X9219184Y-17252928D02*
X9200136Y-17243404D01*
X9200136Y-17243404D02*
X9190613Y-17224357D01*
X9190613Y-17224357D02*
X9190613Y-17052928D01*
X9381089Y-17252928D02*
X9381089Y-17148166D01*
X9381089Y-17148166D02*
X9371565Y-17129119D01*
X9371565Y-17129119D02*
X9352517Y-17119595D01*
X9352517Y-17119595D02*
X9314422Y-17119595D01*
X9314422Y-17119595D02*
X9295374Y-17129119D01*
X9381089Y-17243404D02*
X9362041Y-17252928D01*
X9362041Y-17252928D02*
X9314422Y-17252928D01*
X9314422Y-17252928D02*
X9295374Y-17243404D01*
X9295374Y-17243404D02*
X9285851Y-17224357D01*
X9285851Y-17224357D02*
X9285851Y-17205309D01*
X9285851Y-17205309D02*
X9295374Y-17186261D01*
X9295374Y-17186261D02*
X9314422Y-17176738D01*
X9314422Y-17176738D02*
X9362041Y-17176738D01*
X9362041Y-17176738D02*
X9381089Y-17167214D01*
X9447755Y-17119595D02*
X9523946Y-17119595D01*
X9476327Y-17052928D02*
X9476327Y-17224357D01*
X9476327Y-17224357D02*
X9485851Y-17243404D01*
X9485851Y-17243404D02*
X9504898Y-17252928D01*
X9504898Y-17252928D02*
X9523946Y-17252928D01*
X9666803Y-17243404D02*
X9647755Y-17252928D01*
X9647755Y-17252928D02*
X9609660Y-17252928D01*
X9609660Y-17252928D02*
X9590613Y-17243404D01*
X9590613Y-17243404D02*
X9581089Y-17224357D01*
X9581089Y-17224357D02*
X9581089Y-17148166D01*
X9581089Y-17148166D02*
X9590613Y-17129119D01*
X9590613Y-17129119D02*
X9609660Y-17119595D01*
X9609660Y-17119595D02*
X9647755Y-17119595D01*
X9647755Y-17119595D02*
X9666803Y-17129119D01*
X9666803Y-17129119D02*
X9676327Y-17148166D01*
X9676327Y-17148166D02*
X9676327Y-17167214D01*
X9676327Y-17167214D02*
X9581089Y-17186261D01*
X9847755Y-17252928D02*
X9847755Y-17052928D01*
X9847755Y-17243404D02*
X9828708Y-17252928D01*
X9828708Y-17252928D02*
X9790613Y-17252928D01*
X9790613Y-17252928D02*
X9771565Y-17243404D01*
X9771565Y-17243404D02*
X9762041Y-17233880D01*
X9762041Y-17233880D02*
X9752517Y-17214833D01*
X9752517Y-17214833D02*
X9752517Y-17157690D01*
X9752517Y-17157690D02*
X9762041Y-17138642D01*
X9762041Y-17138642D02*
X9771565Y-17129119D01*
X9771565Y-17129119D02*
X9790613Y-17119595D01*
X9790613Y-17119595D02*
X9828708Y-17119595D01*
X9828708Y-17119595D02*
X9847755Y-17129119D01*
X9923946Y-17329119D02*
X9933470Y-17319595D01*
X9933470Y-17319595D02*
X9952517Y-17291023D01*
X9952517Y-17291023D02*
X9962041Y-17271976D01*
X9962041Y-17271976D02*
X9971565Y-17243404D01*
X9971565Y-17243404D02*
X9981089Y-17195785D01*
X9981089Y-17195785D02*
X9981089Y-17157690D01*
X9981089Y-17157690D02*
X9971565Y-17110071D01*
X9971565Y-17110071D02*
X9962041Y-17081500D01*
X9962041Y-17081500D02*
X9952517Y-17062452D01*
X9952517Y-17062452D02*
X9933470Y-17033880D01*
X9933470Y-17033880D02*
X9923946Y-17024357D01*
X2961323Y-17521116D02*
X2961323Y-17379693D01*
X2819901Y-17379693D01*
X2819901Y-17521116D01*
X2961323Y-17521116D01*
X3219183Y-17342928D02*
X3342993Y-17342928D01*
X3342993Y-17342928D02*
X3276326Y-17419119D01*
X3276326Y-17419119D02*
X3304898Y-17419119D01*
X3304898Y-17419119D02*
X3323945Y-17428642D01*
X3323945Y-17428642D02*
X3333469Y-17438166D01*
X3333469Y-17438166D02*
X3342993Y-17457214D01*
X3342993Y-17457214D02*
X3342993Y-17504833D01*
X3342993Y-17504833D02*
X3333469Y-17523880D01*
X3333469Y-17523880D02*
X3323945Y-17533404D01*
X3323945Y-17533404D02*
X3304898Y-17542928D01*
X3304898Y-17542928D02*
X3247755Y-17542928D01*
X3247755Y-17542928D02*
X3228707Y-17533404D01*
X3228707Y-17533404D02*
X3219183Y-17523880D01*
X3428707Y-17523880D02*
X3438231Y-17533404D01*
X3438231Y-17533404D02*
X3428707Y-17542928D01*
X3428707Y-17542928D02*
X3419183Y-17533404D01*
X3419183Y-17533404D02*
X3428707Y-17523880D01*
X3428707Y-17523880D02*
X3428707Y-17542928D01*
X3562040Y-17342928D02*
X3581088Y-17342928D01*
X3581088Y-17342928D02*
X3600136Y-17352452D01*
X3600136Y-17352452D02*
X3609660Y-17361976D01*
X3609660Y-17361976D02*
X3619183Y-17381023D01*
X3619183Y-17381023D02*
X3628707Y-17419119D01*
X3628707Y-17419119D02*
X3628707Y-17466738D01*
X3628707Y-17466738D02*
X3619183Y-17504833D01*
X3619183Y-17504833D02*
X3609660Y-17523880D01*
X3609660Y-17523880D02*
X3600136Y-17533404D01*
X3600136Y-17533404D02*
X3581088Y-17542928D01*
X3581088Y-17542928D02*
X3562040Y-17542928D01*
X3562040Y-17542928D02*
X3542993Y-17533404D01*
X3542993Y-17533404D02*
X3533469Y-17523880D01*
X3533469Y-17523880D02*
X3523945Y-17504833D01*
X3523945Y-17504833D02*
X3514421Y-17466738D01*
X3514421Y-17466738D02*
X3514421Y-17419119D01*
X3514421Y-17419119D02*
X3523945Y-17381023D01*
X3523945Y-17381023D02*
X3533469Y-17361976D01*
X3533469Y-17361976D02*
X3542993Y-17352452D01*
X3542993Y-17352452D02*
X3562040Y-17342928D01*
X3752517Y-17342928D02*
X3771564Y-17342928D01*
X3771564Y-17342928D02*
X3790612Y-17352452D01*
X3790612Y-17352452D02*
X3800136Y-17361976D01*
X3800136Y-17361976D02*
X3809660Y-17381023D01*
X3809660Y-17381023D02*
X3819183Y-17419119D01*
X3819183Y-17419119D02*
X3819183Y-17466738D01*
X3819183Y-17466738D02*
X3809660Y-17504833D01*
X3809660Y-17504833D02*
X3800136Y-17523880D01*
X3800136Y-17523880D02*
X3790612Y-17533404D01*
X3790612Y-17533404D02*
X3771564Y-17542928D01*
X3771564Y-17542928D02*
X3752517Y-17542928D01*
X3752517Y-17542928D02*
X3733469Y-17533404D01*
X3733469Y-17533404D02*
X3723945Y-17523880D01*
X3723945Y-17523880D02*
X3714421Y-17504833D01*
X3714421Y-17504833D02*
X3704898Y-17466738D01*
X3704898Y-17466738D02*
X3704898Y-17419119D01*
X3704898Y-17419119D02*
X3714421Y-17381023D01*
X3714421Y-17381023D02*
X3723945Y-17361976D01*
X3723945Y-17361976D02*
X3733469Y-17352452D01*
X3733469Y-17352452D02*
X3752517Y-17342928D01*
X3942993Y-17342928D02*
X3962041Y-17342928D01*
X3962041Y-17342928D02*
X3981088Y-17352452D01*
X3981088Y-17352452D02*
X3990612Y-17361976D01*
X3990612Y-17361976D02*
X4000136Y-17381023D01*
X4000136Y-17381023D02*
X4009660Y-17419119D01*
X4009660Y-17419119D02*
X4009660Y-17466738D01*
X4009660Y-17466738D02*
X4000136Y-17504833D01*
X4000136Y-17504833D02*
X3990612Y-17523880D01*
X3990612Y-17523880D02*
X3981088Y-17533404D01*
X3981088Y-17533404D02*
X3962041Y-17542928D01*
X3962041Y-17542928D02*
X3942993Y-17542928D01*
X3942993Y-17542928D02*
X3923945Y-17533404D01*
X3923945Y-17533404D02*
X3914421Y-17523880D01*
X3914421Y-17523880D02*
X3904898Y-17504833D01*
X3904898Y-17504833D02*
X3895374Y-17466738D01*
X3895374Y-17466738D02*
X3895374Y-17419119D01*
X3895374Y-17419119D02*
X3904898Y-17381023D01*
X3904898Y-17381023D02*
X3914421Y-17361976D01*
X3914421Y-17361976D02*
X3923945Y-17352452D01*
X3923945Y-17352452D02*
X3942993Y-17342928D01*
X4095374Y-17542928D02*
X4095374Y-17409595D01*
X4095374Y-17428642D02*
X4104898Y-17419119D01*
X4104898Y-17419119D02*
X4123945Y-17409595D01*
X4123945Y-17409595D02*
X4152517Y-17409595D01*
X4152517Y-17409595D02*
X4171564Y-17419119D01*
X4171564Y-17419119D02*
X4181088Y-17438166D01*
X4181088Y-17438166D02*
X4181088Y-17542928D01*
X4181088Y-17438166D02*
X4190612Y-17419119D01*
X4190612Y-17419119D02*
X4209660Y-17409595D01*
X4209660Y-17409595D02*
X4238231Y-17409595D01*
X4238231Y-17409595D02*
X4257279Y-17419119D01*
X4257279Y-17419119D02*
X4266803Y-17438166D01*
X4266803Y-17438166D02*
X4266803Y-17542928D01*
X4362041Y-17542928D02*
X4362041Y-17409595D01*
X4362041Y-17428642D02*
X4371564Y-17419119D01*
X4371564Y-17419119D02*
X4390612Y-17409595D01*
X4390612Y-17409595D02*
X4419184Y-17409595D01*
X4419184Y-17409595D02*
X4438231Y-17419119D01*
X4438231Y-17419119D02*
X4447755Y-17438166D01*
X4447755Y-17438166D02*
X4447755Y-17542928D01*
X4447755Y-17438166D02*
X4457279Y-17419119D01*
X4457279Y-17419119D02*
X4476326Y-17409595D01*
X4476326Y-17409595D02*
X4504898Y-17409595D01*
X4504898Y-17409595D02*
X4523945Y-17419119D01*
X4523945Y-17419119D02*
X4533469Y-17438166D01*
X4533469Y-17438166D02*
X4533469Y-17542928D01*
X4923945Y-17333404D02*
X4752517Y-17590547D01*
X5181088Y-17342928D02*
X5200136Y-17342928D01*
X5200136Y-17342928D02*
X5219184Y-17352452D01*
X5219184Y-17352452D02*
X5228707Y-17361976D01*
X5228707Y-17361976D02*
X5238231Y-17381023D01*
X5238231Y-17381023D02*
X5247755Y-17419119D01*
X5247755Y-17419119D02*
X5247755Y-17466738D01*
X5247755Y-17466738D02*
X5238231Y-17504833D01*
X5238231Y-17504833D02*
X5228707Y-17523880D01*
X5228707Y-17523880D02*
X5219184Y-17533404D01*
X5219184Y-17533404D02*
X5200136Y-17542928D01*
X5200136Y-17542928D02*
X5181088Y-17542928D01*
X5181088Y-17542928D02*
X5162041Y-17533404D01*
X5162041Y-17533404D02*
X5152517Y-17523880D01*
X5152517Y-17523880D02*
X5142993Y-17504833D01*
X5142993Y-17504833D02*
X5133469Y-17466738D01*
X5133469Y-17466738D02*
X5133469Y-17419119D01*
X5133469Y-17419119D02*
X5142993Y-17381023D01*
X5142993Y-17381023D02*
X5152517Y-17361976D01*
X5152517Y-17361976D02*
X5162041Y-17352452D01*
X5162041Y-17352452D02*
X5181088Y-17342928D01*
X5333469Y-17523880D02*
X5342993Y-17533404D01*
X5342993Y-17533404D02*
X5333469Y-17542928D01*
X5333469Y-17542928D02*
X5323946Y-17533404D01*
X5323946Y-17533404D02*
X5333469Y-17523880D01*
X5333469Y-17523880D02*
X5333469Y-17542928D01*
X5533469Y-17542928D02*
X5419184Y-17542928D01*
X5476326Y-17542928D02*
X5476326Y-17342928D01*
X5476326Y-17342928D02*
X5457279Y-17371500D01*
X5457279Y-17371500D02*
X5438231Y-17390547D01*
X5438231Y-17390547D02*
X5419184Y-17400071D01*
X5723945Y-17542928D02*
X5609660Y-17542928D01*
X5666803Y-17542928D02*
X5666803Y-17342928D01*
X5666803Y-17342928D02*
X5647755Y-17371500D01*
X5647755Y-17371500D02*
X5628707Y-17390547D01*
X5628707Y-17390547D02*
X5609660Y-17400071D01*
X5838231Y-17428642D02*
X5819184Y-17419119D01*
X5819184Y-17419119D02*
X5809660Y-17409595D01*
X5809660Y-17409595D02*
X5800136Y-17390547D01*
X5800136Y-17390547D02*
X5800136Y-17381023D01*
X5800136Y-17381023D02*
X5809660Y-17361976D01*
X5809660Y-17361976D02*
X5819184Y-17352452D01*
X5819184Y-17352452D02*
X5838231Y-17342928D01*
X5838231Y-17342928D02*
X5876326Y-17342928D01*
X5876326Y-17342928D02*
X5895374Y-17352452D01*
X5895374Y-17352452D02*
X5904898Y-17361976D01*
X5904898Y-17361976D02*
X5914422Y-17381023D01*
X5914422Y-17381023D02*
X5914422Y-17390547D01*
X5914422Y-17390547D02*
X5904898Y-17409595D01*
X5904898Y-17409595D02*
X5895374Y-17419119D01*
X5895374Y-17419119D02*
X5876326Y-17428642D01*
X5876326Y-17428642D02*
X5838231Y-17428642D01*
X5838231Y-17428642D02*
X5819184Y-17438166D01*
X5819184Y-17438166D02*
X5809660Y-17447690D01*
X5809660Y-17447690D02*
X5800136Y-17466738D01*
X5800136Y-17466738D02*
X5800136Y-17504833D01*
X5800136Y-17504833D02*
X5809660Y-17523880D01*
X5809660Y-17523880D02*
X5819184Y-17533404D01*
X5819184Y-17533404D02*
X5838231Y-17542928D01*
X5838231Y-17542928D02*
X5876326Y-17542928D01*
X5876326Y-17542928D02*
X5895374Y-17533404D01*
X5895374Y-17533404D02*
X5904898Y-17523880D01*
X5904898Y-17523880D02*
X5914422Y-17504833D01*
X5914422Y-17504833D02*
X5914422Y-17466738D01*
X5914422Y-17466738D02*
X5904898Y-17447690D01*
X5904898Y-17447690D02*
X5895374Y-17438166D01*
X5895374Y-17438166D02*
X5876326Y-17428642D01*
X6104898Y-17542928D02*
X5990612Y-17542928D01*
X6047755Y-17542928D02*
X6047755Y-17342928D01*
X6047755Y-17342928D02*
X6028707Y-17371500D01*
X6028707Y-17371500D02*
X6009660Y-17390547D01*
X6009660Y-17390547D02*
X5990612Y-17400071D01*
X6181088Y-17342928D02*
X6181088Y-17381023D01*
X6257279Y-17342928D02*
X6257279Y-17381023D01*
X6552517Y-17619119D02*
X6542993Y-17609595D01*
X6542993Y-17609595D02*
X6523946Y-17581023D01*
X6523946Y-17581023D02*
X6514422Y-17561976D01*
X6514422Y-17561976D02*
X6504898Y-17533404D01*
X6504898Y-17533404D02*
X6495374Y-17485785D01*
X6495374Y-17485785D02*
X6495374Y-17447690D01*
X6495374Y-17447690D02*
X6504898Y-17400071D01*
X6504898Y-17400071D02*
X6514422Y-17371500D01*
X6514422Y-17371500D02*
X6523946Y-17352452D01*
X6523946Y-17352452D02*
X6542993Y-17323880D01*
X6542993Y-17323880D02*
X6552517Y-17314357D01*
X6609660Y-17342928D02*
X6742993Y-17342928D01*
X6742993Y-17342928D02*
X6657279Y-17542928D01*
X6809660Y-17361976D02*
X6819184Y-17352452D01*
X6819184Y-17352452D02*
X6838231Y-17342928D01*
X6838231Y-17342928D02*
X6885850Y-17342928D01*
X6885850Y-17342928D02*
X6904898Y-17352452D01*
X6904898Y-17352452D02*
X6914422Y-17361976D01*
X6914422Y-17361976D02*
X6923946Y-17381023D01*
X6923946Y-17381023D02*
X6923946Y-17400071D01*
X6923946Y-17400071D02*
X6914422Y-17428642D01*
X6914422Y-17428642D02*
X6800136Y-17542928D01*
X6800136Y-17542928D02*
X6923946Y-17542928D01*
X7162041Y-17542928D02*
X7162041Y-17342928D01*
X7247755Y-17542928D02*
X7247755Y-17438166D01*
X7247755Y-17438166D02*
X7238231Y-17419119D01*
X7238231Y-17419119D02*
X7219184Y-17409595D01*
X7219184Y-17409595D02*
X7190612Y-17409595D01*
X7190612Y-17409595D02*
X7171565Y-17419119D01*
X7171565Y-17419119D02*
X7162041Y-17428642D01*
X7371565Y-17542928D02*
X7352517Y-17533404D01*
X7352517Y-17533404D02*
X7342993Y-17523880D01*
X7342993Y-17523880D02*
X7333469Y-17504833D01*
X7333469Y-17504833D02*
X7333469Y-17447690D01*
X7333469Y-17447690D02*
X7342993Y-17428642D01*
X7342993Y-17428642D02*
X7352517Y-17419119D01*
X7352517Y-17419119D02*
X7371565Y-17409595D01*
X7371565Y-17409595D02*
X7400136Y-17409595D01*
X7400136Y-17409595D02*
X7419184Y-17419119D01*
X7419184Y-17419119D02*
X7428708Y-17428642D01*
X7428708Y-17428642D02*
X7438231Y-17447690D01*
X7438231Y-17447690D02*
X7438231Y-17504833D01*
X7438231Y-17504833D02*
X7428708Y-17523880D01*
X7428708Y-17523880D02*
X7419184Y-17533404D01*
X7419184Y-17533404D02*
X7400136Y-17542928D01*
X7400136Y-17542928D02*
X7371565Y-17542928D01*
X7552517Y-17542928D02*
X7533469Y-17533404D01*
X7533469Y-17533404D02*
X7523946Y-17514357D01*
X7523946Y-17514357D02*
X7523946Y-17342928D01*
X7704898Y-17533404D02*
X7685850Y-17542928D01*
X7685850Y-17542928D02*
X7647755Y-17542928D01*
X7647755Y-17542928D02*
X7628708Y-17533404D01*
X7628708Y-17533404D02*
X7619184Y-17514357D01*
X7619184Y-17514357D02*
X7619184Y-17438166D01*
X7619184Y-17438166D02*
X7628708Y-17419119D01*
X7628708Y-17419119D02*
X7647755Y-17409595D01*
X7647755Y-17409595D02*
X7685850Y-17409595D01*
X7685850Y-17409595D02*
X7704898Y-17419119D01*
X7704898Y-17419119D02*
X7714422Y-17438166D01*
X7714422Y-17438166D02*
X7714422Y-17457214D01*
X7714422Y-17457214D02*
X7619184Y-17476261D01*
X7790612Y-17533404D02*
X7809660Y-17542928D01*
X7809660Y-17542928D02*
X7847755Y-17542928D01*
X7847755Y-17542928D02*
X7866803Y-17533404D01*
X7866803Y-17533404D02*
X7876327Y-17514357D01*
X7876327Y-17514357D02*
X7876327Y-17504833D01*
X7876327Y-17504833D02*
X7866803Y-17485785D01*
X7866803Y-17485785D02*
X7847755Y-17476261D01*
X7847755Y-17476261D02*
X7819184Y-17476261D01*
X7819184Y-17476261D02*
X7800136Y-17466738D01*
X7800136Y-17466738D02*
X7790612Y-17447690D01*
X7790612Y-17447690D02*
X7790612Y-17438166D01*
X7790612Y-17438166D02*
X7800136Y-17419119D01*
X7800136Y-17419119D02*
X7819184Y-17409595D01*
X7819184Y-17409595D02*
X7847755Y-17409595D01*
X7847755Y-17409595D02*
X7866803Y-17419119D01*
X7942993Y-17619119D02*
X7952517Y-17609595D01*
X7952517Y-17609595D02*
X7971565Y-17581023D01*
X7971565Y-17581023D02*
X7981089Y-17561976D01*
X7981089Y-17561976D02*
X7990612Y-17533404D01*
X7990612Y-17533404D02*
X8000136Y-17485785D01*
X8000136Y-17485785D02*
X8000136Y-17447690D01*
X8000136Y-17447690D02*
X7990612Y-17400071D01*
X7990612Y-17400071D02*
X7981089Y-17371500D01*
X7981089Y-17371500D02*
X7971565Y-17352452D01*
X7971565Y-17352452D02*
X7952517Y-17323880D01*
X7952517Y-17323880D02*
X7942993Y-17314357D01*
X8304898Y-17619119D02*
X8295374Y-17609595D01*
X8295374Y-17609595D02*
X8276327Y-17581023D01*
X8276327Y-17581023D02*
X8266803Y-17561976D01*
X8266803Y-17561976D02*
X8257279Y-17533404D01*
X8257279Y-17533404D02*
X8247755Y-17485785D01*
X8247755Y-17485785D02*
X8247755Y-17447690D01*
X8247755Y-17447690D02*
X8257279Y-17400071D01*
X8257279Y-17400071D02*
X8266803Y-17371500D01*
X8266803Y-17371500D02*
X8276327Y-17352452D01*
X8276327Y-17352452D02*
X8295374Y-17323880D01*
X8295374Y-17323880D02*
X8304898Y-17314357D01*
X8381089Y-17409595D02*
X8381089Y-17542928D01*
X8381089Y-17428642D02*
X8390612Y-17419119D01*
X8390612Y-17419119D02*
X8409660Y-17409595D01*
X8409660Y-17409595D02*
X8438232Y-17409595D01*
X8438232Y-17409595D02*
X8457279Y-17419119D01*
X8457279Y-17419119D02*
X8466803Y-17438166D01*
X8466803Y-17438166D02*
X8466803Y-17542928D01*
X8590612Y-17542928D02*
X8571565Y-17533404D01*
X8571565Y-17533404D02*
X8562041Y-17523880D01*
X8562041Y-17523880D02*
X8552517Y-17504833D01*
X8552517Y-17504833D02*
X8552517Y-17447690D01*
X8552517Y-17447690D02*
X8562041Y-17428642D01*
X8562041Y-17428642D02*
X8571565Y-17419119D01*
X8571565Y-17419119D02*
X8590612Y-17409595D01*
X8590612Y-17409595D02*
X8619184Y-17409595D01*
X8619184Y-17409595D02*
X8638232Y-17419119D01*
X8638232Y-17419119D02*
X8647755Y-17428642D01*
X8647755Y-17428642D02*
X8657279Y-17447690D01*
X8657279Y-17447690D02*
X8657279Y-17504833D01*
X8657279Y-17504833D02*
X8647755Y-17523880D01*
X8647755Y-17523880D02*
X8638232Y-17533404D01*
X8638232Y-17533404D02*
X8619184Y-17542928D01*
X8619184Y-17542928D02*
X8590612Y-17542928D01*
X8714422Y-17409595D02*
X8790612Y-17409595D01*
X8742993Y-17342928D02*
X8742993Y-17514357D01*
X8742993Y-17514357D02*
X8752517Y-17533404D01*
X8752517Y-17533404D02*
X8771565Y-17542928D01*
X8771565Y-17542928D02*
X8790612Y-17542928D01*
X9009660Y-17409595D02*
X9009660Y-17609595D01*
X9009660Y-17419119D02*
X9028708Y-17409595D01*
X9028708Y-17409595D02*
X9066803Y-17409595D01*
X9066803Y-17409595D02*
X9085851Y-17419119D01*
X9085851Y-17419119D02*
X9095374Y-17428642D01*
X9095374Y-17428642D02*
X9104898Y-17447690D01*
X9104898Y-17447690D02*
X9104898Y-17504833D01*
X9104898Y-17504833D02*
X9095374Y-17523880D01*
X9095374Y-17523880D02*
X9085851Y-17533404D01*
X9085851Y-17533404D02*
X9066803Y-17542928D01*
X9066803Y-17542928D02*
X9028708Y-17542928D01*
X9028708Y-17542928D02*
X9009660Y-17533404D01*
X9219184Y-17542928D02*
X9200136Y-17533404D01*
X9200136Y-17533404D02*
X9190613Y-17514357D01*
X9190613Y-17514357D02*
X9190613Y-17342928D01*
X9381089Y-17542928D02*
X9381089Y-17438166D01*
X9381089Y-17438166D02*
X9371565Y-17419119D01*
X9371565Y-17419119D02*
X9352517Y-17409595D01*
X9352517Y-17409595D02*
X9314422Y-17409595D01*
X9314422Y-17409595D02*
X9295374Y-17419119D01*
X9381089Y-17533404D02*
X9362041Y-17542928D01*
X9362041Y-17542928D02*
X9314422Y-17542928D01*
X9314422Y-17542928D02*
X9295374Y-17533404D01*
X9295374Y-17533404D02*
X9285851Y-17514357D01*
X9285851Y-17514357D02*
X9285851Y-17495309D01*
X9285851Y-17495309D02*
X9295374Y-17476261D01*
X9295374Y-17476261D02*
X9314422Y-17466738D01*
X9314422Y-17466738D02*
X9362041Y-17466738D01*
X9362041Y-17466738D02*
X9381089Y-17457214D01*
X9447755Y-17409595D02*
X9523946Y-17409595D01*
X9476327Y-17342928D02*
X9476327Y-17514357D01*
X9476327Y-17514357D02*
X9485851Y-17533404D01*
X9485851Y-17533404D02*
X9504898Y-17542928D01*
X9504898Y-17542928D02*
X9523946Y-17542928D01*
X9666803Y-17533404D02*
X9647755Y-17542928D01*
X9647755Y-17542928D02*
X9609660Y-17542928D01*
X9609660Y-17542928D02*
X9590613Y-17533404D01*
X9590613Y-17533404D02*
X9581089Y-17514357D01*
X9581089Y-17514357D02*
X9581089Y-17438166D01*
X9581089Y-17438166D02*
X9590613Y-17419119D01*
X9590613Y-17419119D02*
X9609660Y-17409595D01*
X9609660Y-17409595D02*
X9647755Y-17409595D01*
X9647755Y-17409595D02*
X9666803Y-17419119D01*
X9666803Y-17419119D02*
X9676327Y-17438166D01*
X9676327Y-17438166D02*
X9676327Y-17457214D01*
X9676327Y-17457214D02*
X9581089Y-17476261D01*
X9847755Y-17542928D02*
X9847755Y-17342928D01*
X9847755Y-17533404D02*
X9828708Y-17542928D01*
X9828708Y-17542928D02*
X9790613Y-17542928D01*
X9790613Y-17542928D02*
X9771565Y-17533404D01*
X9771565Y-17533404D02*
X9762041Y-17523880D01*
X9762041Y-17523880D02*
X9752517Y-17504833D01*
X9752517Y-17504833D02*
X9752517Y-17447690D01*
X9752517Y-17447690D02*
X9762041Y-17428642D01*
X9762041Y-17428642D02*
X9771565Y-17419119D01*
X9771565Y-17419119D02*
X9790613Y-17409595D01*
X9790613Y-17409595D02*
X9828708Y-17409595D01*
X9828708Y-17409595D02*
X9847755Y-17419119D01*
X9923946Y-17619119D02*
X9933470Y-17609595D01*
X9933470Y-17609595D02*
X9952517Y-17581023D01*
X9952517Y-17581023D02*
X9962041Y-17561976D01*
X9962041Y-17561976D02*
X9971565Y-17533404D01*
X9971565Y-17533404D02*
X9981089Y-17485785D01*
X9981089Y-17485785D02*
X9981089Y-17447690D01*
X9981089Y-17447690D02*
X9971565Y-17400071D01*
X9971565Y-17400071D02*
X9962041Y-17371500D01*
X9962041Y-17371500D02*
X9952517Y-17352452D01*
X9952517Y-17352452D02*
X9933470Y-17323880D01*
X9933470Y-17323880D02*
X9923946Y-17314357D01*
X2890612Y-17870404D02*
X2990612Y-17770404D01*
X2890612Y-17670404D01*
X2790612Y-17770404D01*
X2890612Y-17870404D01*
X3323945Y-17729595D02*
X3323945Y-17862928D01*
X3276326Y-17653404D02*
X3228707Y-17796261D01*
X3228707Y-17796261D02*
X3352517Y-17796261D01*
X3428707Y-17843880D02*
X3438231Y-17853404D01*
X3438231Y-17853404D02*
X3428707Y-17862928D01*
X3428707Y-17862928D02*
X3419183Y-17853404D01*
X3419183Y-17853404D02*
X3428707Y-17843880D01*
X3428707Y-17843880D02*
X3428707Y-17862928D01*
X3562040Y-17662928D02*
X3581088Y-17662928D01*
X3581088Y-17662928D02*
X3600136Y-17672452D01*
X3600136Y-17672452D02*
X3609660Y-17681976D01*
X3609660Y-17681976D02*
X3619183Y-17701023D01*
X3619183Y-17701023D02*
X3628707Y-17739119D01*
X3628707Y-17739119D02*
X3628707Y-17786738D01*
X3628707Y-17786738D02*
X3619183Y-17824833D01*
X3619183Y-17824833D02*
X3609660Y-17843880D01*
X3609660Y-17843880D02*
X3600136Y-17853404D01*
X3600136Y-17853404D02*
X3581088Y-17862928D01*
X3581088Y-17862928D02*
X3562040Y-17862928D01*
X3562040Y-17862928D02*
X3542993Y-17853404D01*
X3542993Y-17853404D02*
X3533469Y-17843880D01*
X3533469Y-17843880D02*
X3523945Y-17824833D01*
X3523945Y-17824833D02*
X3514421Y-17786738D01*
X3514421Y-17786738D02*
X3514421Y-17739119D01*
X3514421Y-17739119D02*
X3523945Y-17701023D01*
X3523945Y-17701023D02*
X3533469Y-17681976D01*
X3533469Y-17681976D02*
X3542993Y-17672452D01*
X3542993Y-17672452D02*
X3562040Y-17662928D01*
X3752517Y-17662928D02*
X3771564Y-17662928D01*
X3771564Y-17662928D02*
X3790612Y-17672452D01*
X3790612Y-17672452D02*
X3800136Y-17681976D01*
X3800136Y-17681976D02*
X3809660Y-17701023D01*
X3809660Y-17701023D02*
X3819183Y-17739119D01*
X3819183Y-17739119D02*
X3819183Y-17786738D01*
X3819183Y-17786738D02*
X3809660Y-17824833D01*
X3809660Y-17824833D02*
X3800136Y-17843880D01*
X3800136Y-17843880D02*
X3790612Y-17853404D01*
X3790612Y-17853404D02*
X3771564Y-17862928D01*
X3771564Y-17862928D02*
X3752517Y-17862928D01*
X3752517Y-17862928D02*
X3733469Y-17853404D01*
X3733469Y-17853404D02*
X3723945Y-17843880D01*
X3723945Y-17843880D02*
X3714421Y-17824833D01*
X3714421Y-17824833D02*
X3704898Y-17786738D01*
X3704898Y-17786738D02*
X3704898Y-17739119D01*
X3704898Y-17739119D02*
X3714421Y-17701023D01*
X3714421Y-17701023D02*
X3723945Y-17681976D01*
X3723945Y-17681976D02*
X3733469Y-17672452D01*
X3733469Y-17672452D02*
X3752517Y-17662928D01*
X3942993Y-17662928D02*
X3962041Y-17662928D01*
X3962041Y-17662928D02*
X3981088Y-17672452D01*
X3981088Y-17672452D02*
X3990612Y-17681976D01*
X3990612Y-17681976D02*
X4000136Y-17701023D01*
X4000136Y-17701023D02*
X4009660Y-17739119D01*
X4009660Y-17739119D02*
X4009660Y-17786738D01*
X4009660Y-17786738D02*
X4000136Y-17824833D01*
X4000136Y-17824833D02*
X3990612Y-17843880D01*
X3990612Y-17843880D02*
X3981088Y-17853404D01*
X3981088Y-17853404D02*
X3962041Y-17862928D01*
X3962041Y-17862928D02*
X3942993Y-17862928D01*
X3942993Y-17862928D02*
X3923945Y-17853404D01*
X3923945Y-17853404D02*
X3914421Y-17843880D01*
X3914421Y-17843880D02*
X3904898Y-17824833D01*
X3904898Y-17824833D02*
X3895374Y-17786738D01*
X3895374Y-17786738D02*
X3895374Y-17739119D01*
X3895374Y-17739119D02*
X3904898Y-17701023D01*
X3904898Y-17701023D02*
X3914421Y-17681976D01*
X3914421Y-17681976D02*
X3923945Y-17672452D01*
X3923945Y-17672452D02*
X3942993Y-17662928D01*
X4095374Y-17862928D02*
X4095374Y-17729595D01*
X4095374Y-17748642D02*
X4104898Y-17739119D01*
X4104898Y-17739119D02*
X4123945Y-17729595D01*
X4123945Y-17729595D02*
X4152517Y-17729595D01*
X4152517Y-17729595D02*
X4171564Y-17739119D01*
X4171564Y-17739119D02*
X4181088Y-17758166D01*
X4181088Y-17758166D02*
X4181088Y-17862928D01*
X4181088Y-17758166D02*
X4190612Y-17739119D01*
X4190612Y-17739119D02*
X4209660Y-17729595D01*
X4209660Y-17729595D02*
X4238231Y-17729595D01*
X4238231Y-17729595D02*
X4257279Y-17739119D01*
X4257279Y-17739119D02*
X4266803Y-17758166D01*
X4266803Y-17758166D02*
X4266803Y-17862928D01*
X4362041Y-17862928D02*
X4362041Y-17729595D01*
X4362041Y-17748642D02*
X4371564Y-17739119D01*
X4371564Y-17739119D02*
X4390612Y-17729595D01*
X4390612Y-17729595D02*
X4419184Y-17729595D01*
X4419184Y-17729595D02*
X4438231Y-17739119D01*
X4438231Y-17739119D02*
X4447755Y-17758166D01*
X4447755Y-17758166D02*
X4447755Y-17862928D01*
X4447755Y-17758166D02*
X4457279Y-17739119D01*
X4457279Y-17739119D02*
X4476326Y-17729595D01*
X4476326Y-17729595D02*
X4504898Y-17729595D01*
X4504898Y-17729595D02*
X4523945Y-17739119D01*
X4523945Y-17739119D02*
X4533469Y-17758166D01*
X4533469Y-17758166D02*
X4533469Y-17862928D01*
X4923945Y-17653404D02*
X4752517Y-17910547D01*
X5181088Y-17662928D02*
X5200136Y-17662928D01*
X5200136Y-17662928D02*
X5219184Y-17672452D01*
X5219184Y-17672452D02*
X5228707Y-17681976D01*
X5228707Y-17681976D02*
X5238231Y-17701023D01*
X5238231Y-17701023D02*
X5247755Y-17739119D01*
X5247755Y-17739119D02*
X5247755Y-17786738D01*
X5247755Y-17786738D02*
X5238231Y-17824833D01*
X5238231Y-17824833D02*
X5228707Y-17843880D01*
X5228707Y-17843880D02*
X5219184Y-17853404D01*
X5219184Y-17853404D02*
X5200136Y-17862928D01*
X5200136Y-17862928D02*
X5181088Y-17862928D01*
X5181088Y-17862928D02*
X5162041Y-17853404D01*
X5162041Y-17853404D02*
X5152517Y-17843880D01*
X5152517Y-17843880D02*
X5142993Y-17824833D01*
X5142993Y-17824833D02*
X5133469Y-17786738D01*
X5133469Y-17786738D02*
X5133469Y-17739119D01*
X5133469Y-17739119D02*
X5142993Y-17701023D01*
X5142993Y-17701023D02*
X5152517Y-17681976D01*
X5152517Y-17681976D02*
X5162041Y-17672452D01*
X5162041Y-17672452D02*
X5181088Y-17662928D01*
X5333469Y-17843880D02*
X5342993Y-17853404D01*
X5342993Y-17853404D02*
X5333469Y-17862928D01*
X5333469Y-17862928D02*
X5323946Y-17853404D01*
X5323946Y-17853404D02*
X5333469Y-17843880D01*
X5333469Y-17843880D02*
X5333469Y-17862928D01*
X5533469Y-17862928D02*
X5419184Y-17862928D01*
X5476326Y-17862928D02*
X5476326Y-17662928D01*
X5476326Y-17662928D02*
X5457279Y-17691500D01*
X5457279Y-17691500D02*
X5438231Y-17710547D01*
X5438231Y-17710547D02*
X5419184Y-17720071D01*
X5714422Y-17662928D02*
X5619184Y-17662928D01*
X5619184Y-17662928D02*
X5609660Y-17758166D01*
X5609660Y-17758166D02*
X5619184Y-17748642D01*
X5619184Y-17748642D02*
X5638231Y-17739119D01*
X5638231Y-17739119D02*
X5685850Y-17739119D01*
X5685850Y-17739119D02*
X5704898Y-17748642D01*
X5704898Y-17748642D02*
X5714422Y-17758166D01*
X5714422Y-17758166D02*
X5723945Y-17777214D01*
X5723945Y-17777214D02*
X5723945Y-17824833D01*
X5723945Y-17824833D02*
X5714422Y-17843880D01*
X5714422Y-17843880D02*
X5704898Y-17853404D01*
X5704898Y-17853404D02*
X5685850Y-17862928D01*
X5685850Y-17862928D02*
X5638231Y-17862928D01*
X5638231Y-17862928D02*
X5619184Y-17853404D01*
X5619184Y-17853404D02*
X5609660Y-17843880D01*
X5790612Y-17662928D02*
X5923945Y-17662928D01*
X5923945Y-17662928D02*
X5838231Y-17862928D01*
X6095374Y-17662928D02*
X6000136Y-17662928D01*
X6000136Y-17662928D02*
X5990612Y-17758166D01*
X5990612Y-17758166D02*
X6000136Y-17748642D01*
X6000136Y-17748642D02*
X6019184Y-17739119D01*
X6019184Y-17739119D02*
X6066803Y-17739119D01*
X6066803Y-17739119D02*
X6085850Y-17748642D01*
X6085850Y-17748642D02*
X6095374Y-17758166D01*
X6095374Y-17758166D02*
X6104898Y-17777214D01*
X6104898Y-17777214D02*
X6104898Y-17824833D01*
X6104898Y-17824833D02*
X6095374Y-17843880D01*
X6095374Y-17843880D02*
X6085850Y-17853404D01*
X6085850Y-17853404D02*
X6066803Y-17862928D01*
X6066803Y-17862928D02*
X6019184Y-17862928D01*
X6019184Y-17862928D02*
X6000136Y-17853404D01*
X6000136Y-17853404D02*
X5990612Y-17843880D01*
X6181088Y-17662928D02*
X6181088Y-17701023D01*
X6257279Y-17662928D02*
X6257279Y-17701023D01*
X6552517Y-17939119D02*
X6542993Y-17929595D01*
X6542993Y-17929595D02*
X6523946Y-17901023D01*
X6523946Y-17901023D02*
X6514422Y-17881976D01*
X6514422Y-17881976D02*
X6504898Y-17853404D01*
X6504898Y-17853404D02*
X6495374Y-17805785D01*
X6495374Y-17805785D02*
X6495374Y-17767690D01*
X6495374Y-17767690D02*
X6504898Y-17720071D01*
X6504898Y-17720071D02*
X6514422Y-17691500D01*
X6514422Y-17691500D02*
X6523946Y-17672452D01*
X6523946Y-17672452D02*
X6542993Y-17643880D01*
X6542993Y-17643880D02*
X6552517Y-17634357D01*
X6733469Y-17862928D02*
X6619184Y-17862928D01*
X6676326Y-17862928D02*
X6676326Y-17662928D01*
X6676326Y-17662928D02*
X6657279Y-17691500D01*
X6657279Y-17691500D02*
X6638231Y-17710547D01*
X6638231Y-17710547D02*
X6619184Y-17720071D01*
X6847755Y-17748642D02*
X6828707Y-17739119D01*
X6828707Y-17739119D02*
X6819184Y-17729595D01*
X6819184Y-17729595D02*
X6809660Y-17710547D01*
X6809660Y-17710547D02*
X6809660Y-17701023D01*
X6809660Y-17701023D02*
X6819184Y-17681976D01*
X6819184Y-17681976D02*
X6828707Y-17672452D01*
X6828707Y-17672452D02*
X6847755Y-17662928D01*
X6847755Y-17662928D02*
X6885850Y-17662928D01*
X6885850Y-17662928D02*
X6904898Y-17672452D01*
X6904898Y-17672452D02*
X6914422Y-17681976D01*
X6914422Y-17681976D02*
X6923946Y-17701023D01*
X6923946Y-17701023D02*
X6923946Y-17710547D01*
X6923946Y-17710547D02*
X6914422Y-17729595D01*
X6914422Y-17729595D02*
X6904898Y-17739119D01*
X6904898Y-17739119D02*
X6885850Y-17748642D01*
X6885850Y-17748642D02*
X6847755Y-17748642D01*
X6847755Y-17748642D02*
X6828707Y-17758166D01*
X6828707Y-17758166D02*
X6819184Y-17767690D01*
X6819184Y-17767690D02*
X6809660Y-17786738D01*
X6809660Y-17786738D02*
X6809660Y-17824833D01*
X6809660Y-17824833D02*
X6819184Y-17843880D01*
X6819184Y-17843880D02*
X6828707Y-17853404D01*
X6828707Y-17853404D02*
X6847755Y-17862928D01*
X6847755Y-17862928D02*
X6885850Y-17862928D01*
X6885850Y-17862928D02*
X6904898Y-17853404D01*
X6904898Y-17853404D02*
X6914422Y-17843880D01*
X6914422Y-17843880D02*
X6923946Y-17824833D01*
X6923946Y-17824833D02*
X6923946Y-17786738D01*
X6923946Y-17786738D02*
X6914422Y-17767690D01*
X6914422Y-17767690D02*
X6904898Y-17758166D01*
X6904898Y-17758166D02*
X6885850Y-17748642D01*
X7162041Y-17862928D02*
X7162041Y-17662928D01*
X7247755Y-17862928D02*
X7247755Y-17758166D01*
X7247755Y-17758166D02*
X7238231Y-17739119D01*
X7238231Y-17739119D02*
X7219184Y-17729595D01*
X7219184Y-17729595D02*
X7190612Y-17729595D01*
X7190612Y-17729595D02*
X7171565Y-17739119D01*
X7171565Y-17739119D02*
X7162041Y-17748642D01*
X7371565Y-17862928D02*
X7352517Y-17853404D01*
X7352517Y-17853404D02*
X7342993Y-17843880D01*
X7342993Y-17843880D02*
X7333469Y-17824833D01*
X7333469Y-17824833D02*
X7333469Y-17767690D01*
X7333469Y-17767690D02*
X7342993Y-17748642D01*
X7342993Y-17748642D02*
X7352517Y-17739119D01*
X7352517Y-17739119D02*
X7371565Y-17729595D01*
X7371565Y-17729595D02*
X7400136Y-17729595D01*
X7400136Y-17729595D02*
X7419184Y-17739119D01*
X7419184Y-17739119D02*
X7428708Y-17748642D01*
X7428708Y-17748642D02*
X7438231Y-17767690D01*
X7438231Y-17767690D02*
X7438231Y-17824833D01*
X7438231Y-17824833D02*
X7428708Y-17843880D01*
X7428708Y-17843880D02*
X7419184Y-17853404D01*
X7419184Y-17853404D02*
X7400136Y-17862928D01*
X7400136Y-17862928D02*
X7371565Y-17862928D01*
X7552517Y-17862928D02*
X7533469Y-17853404D01*
X7533469Y-17853404D02*
X7523946Y-17834357D01*
X7523946Y-17834357D02*
X7523946Y-17662928D01*
X7704898Y-17853404D02*
X7685850Y-17862928D01*
X7685850Y-17862928D02*
X7647755Y-17862928D01*
X7647755Y-17862928D02*
X7628708Y-17853404D01*
X7628708Y-17853404D02*
X7619184Y-17834357D01*
X7619184Y-17834357D02*
X7619184Y-17758166D01*
X7619184Y-17758166D02*
X7628708Y-17739119D01*
X7628708Y-17739119D02*
X7647755Y-17729595D01*
X7647755Y-17729595D02*
X7685850Y-17729595D01*
X7685850Y-17729595D02*
X7704898Y-17739119D01*
X7704898Y-17739119D02*
X7714422Y-17758166D01*
X7714422Y-17758166D02*
X7714422Y-17777214D01*
X7714422Y-17777214D02*
X7619184Y-17796261D01*
X7790612Y-17853404D02*
X7809660Y-17862928D01*
X7809660Y-17862928D02*
X7847755Y-17862928D01*
X7847755Y-17862928D02*
X7866803Y-17853404D01*
X7866803Y-17853404D02*
X7876327Y-17834357D01*
X7876327Y-17834357D02*
X7876327Y-17824833D01*
X7876327Y-17824833D02*
X7866803Y-17805785D01*
X7866803Y-17805785D02*
X7847755Y-17796261D01*
X7847755Y-17796261D02*
X7819184Y-17796261D01*
X7819184Y-17796261D02*
X7800136Y-17786738D01*
X7800136Y-17786738D02*
X7790612Y-17767690D01*
X7790612Y-17767690D02*
X7790612Y-17758166D01*
X7790612Y-17758166D02*
X7800136Y-17739119D01*
X7800136Y-17739119D02*
X7819184Y-17729595D01*
X7819184Y-17729595D02*
X7847755Y-17729595D01*
X7847755Y-17729595D02*
X7866803Y-17739119D01*
X7942993Y-17939119D02*
X7952517Y-17929595D01*
X7952517Y-17929595D02*
X7971565Y-17901023D01*
X7971565Y-17901023D02*
X7981089Y-17881976D01*
X7981089Y-17881976D02*
X7990612Y-17853404D01*
X7990612Y-17853404D02*
X8000136Y-17805785D01*
X8000136Y-17805785D02*
X8000136Y-17767690D01*
X8000136Y-17767690D02*
X7990612Y-17720071D01*
X7990612Y-17720071D02*
X7981089Y-17691500D01*
X7981089Y-17691500D02*
X7971565Y-17672452D01*
X7971565Y-17672452D02*
X7952517Y-17643880D01*
X7952517Y-17643880D02*
X7942993Y-17634357D01*
X8304898Y-17939119D02*
X8295374Y-17929595D01*
X8295374Y-17929595D02*
X8276327Y-17901023D01*
X8276327Y-17901023D02*
X8266803Y-17881976D01*
X8266803Y-17881976D02*
X8257279Y-17853404D01*
X8257279Y-17853404D02*
X8247755Y-17805785D01*
X8247755Y-17805785D02*
X8247755Y-17767690D01*
X8247755Y-17767690D02*
X8257279Y-17720071D01*
X8257279Y-17720071D02*
X8266803Y-17691500D01*
X8266803Y-17691500D02*
X8276327Y-17672452D01*
X8276327Y-17672452D02*
X8295374Y-17643880D01*
X8295374Y-17643880D02*
X8304898Y-17634357D01*
X8381089Y-17729595D02*
X8381089Y-17862928D01*
X8381089Y-17748642D02*
X8390612Y-17739119D01*
X8390612Y-17739119D02*
X8409660Y-17729595D01*
X8409660Y-17729595D02*
X8438232Y-17729595D01*
X8438232Y-17729595D02*
X8457279Y-17739119D01*
X8457279Y-17739119D02*
X8466803Y-17758166D01*
X8466803Y-17758166D02*
X8466803Y-17862928D01*
X8590612Y-17862928D02*
X8571565Y-17853404D01*
X8571565Y-17853404D02*
X8562041Y-17843880D01*
X8562041Y-17843880D02*
X8552517Y-17824833D01*
X8552517Y-17824833D02*
X8552517Y-17767690D01*
X8552517Y-17767690D02*
X8562041Y-17748642D01*
X8562041Y-17748642D02*
X8571565Y-17739119D01*
X8571565Y-17739119D02*
X8590612Y-17729595D01*
X8590612Y-17729595D02*
X8619184Y-17729595D01*
X8619184Y-17729595D02*
X8638232Y-17739119D01*
X8638232Y-17739119D02*
X8647755Y-17748642D01*
X8647755Y-17748642D02*
X8657279Y-17767690D01*
X8657279Y-17767690D02*
X8657279Y-17824833D01*
X8657279Y-17824833D02*
X8647755Y-17843880D01*
X8647755Y-17843880D02*
X8638232Y-17853404D01*
X8638232Y-17853404D02*
X8619184Y-17862928D01*
X8619184Y-17862928D02*
X8590612Y-17862928D01*
X8714422Y-17729595D02*
X8790612Y-17729595D01*
X8742993Y-17662928D02*
X8742993Y-17834357D01*
X8742993Y-17834357D02*
X8752517Y-17853404D01*
X8752517Y-17853404D02*
X8771565Y-17862928D01*
X8771565Y-17862928D02*
X8790612Y-17862928D01*
X9009660Y-17729595D02*
X9009660Y-17929595D01*
X9009660Y-17739119D02*
X9028708Y-17729595D01*
X9028708Y-17729595D02*
X9066803Y-17729595D01*
X9066803Y-17729595D02*
X9085851Y-17739119D01*
X9085851Y-17739119D02*
X9095374Y-17748642D01*
X9095374Y-17748642D02*
X9104898Y-17767690D01*
X9104898Y-17767690D02*
X9104898Y-17824833D01*
X9104898Y-17824833D02*
X9095374Y-17843880D01*
X9095374Y-17843880D02*
X9085851Y-17853404D01*
X9085851Y-17853404D02*
X9066803Y-17862928D01*
X9066803Y-17862928D02*
X9028708Y-17862928D01*
X9028708Y-17862928D02*
X9009660Y-17853404D01*
X9219184Y-17862928D02*
X9200136Y-17853404D01*
X9200136Y-17853404D02*
X9190613Y-17834357D01*
X9190613Y-17834357D02*
X9190613Y-17662928D01*
X9381089Y-17862928D02*
X9381089Y-17758166D01*
X9381089Y-17758166D02*
X9371565Y-17739119D01*
X9371565Y-17739119D02*
X9352517Y-17729595D01*
X9352517Y-17729595D02*
X9314422Y-17729595D01*
X9314422Y-17729595D02*
X9295374Y-17739119D01*
X9381089Y-17853404D02*
X9362041Y-17862928D01*
X9362041Y-17862928D02*
X9314422Y-17862928D01*
X9314422Y-17862928D02*
X9295374Y-17853404D01*
X9295374Y-17853404D02*
X9285851Y-17834357D01*
X9285851Y-17834357D02*
X9285851Y-17815309D01*
X9285851Y-17815309D02*
X9295374Y-17796261D01*
X9295374Y-17796261D02*
X9314422Y-17786738D01*
X9314422Y-17786738D02*
X9362041Y-17786738D01*
X9362041Y-17786738D02*
X9381089Y-17777214D01*
X9447755Y-17729595D02*
X9523946Y-17729595D01*
X9476327Y-17662928D02*
X9476327Y-17834357D01*
X9476327Y-17834357D02*
X9485851Y-17853404D01*
X9485851Y-17853404D02*
X9504898Y-17862928D01*
X9504898Y-17862928D02*
X9523946Y-17862928D01*
X9666803Y-17853404D02*
X9647755Y-17862928D01*
X9647755Y-17862928D02*
X9609660Y-17862928D01*
X9609660Y-17862928D02*
X9590613Y-17853404D01*
X9590613Y-17853404D02*
X9581089Y-17834357D01*
X9581089Y-17834357D02*
X9581089Y-17758166D01*
X9581089Y-17758166D02*
X9590613Y-17739119D01*
X9590613Y-17739119D02*
X9609660Y-17729595D01*
X9609660Y-17729595D02*
X9647755Y-17729595D01*
X9647755Y-17729595D02*
X9666803Y-17739119D01*
X9666803Y-17739119D02*
X9676327Y-17758166D01*
X9676327Y-17758166D02*
X9676327Y-17777214D01*
X9676327Y-17777214D02*
X9581089Y-17796261D01*
X9847755Y-17862928D02*
X9847755Y-17662928D01*
X9847755Y-17853404D02*
X9828708Y-17862928D01*
X9828708Y-17862928D02*
X9790613Y-17862928D01*
X9790613Y-17862928D02*
X9771565Y-17853404D01*
X9771565Y-17853404D02*
X9762041Y-17843880D01*
X9762041Y-17843880D02*
X9752517Y-17824833D01*
X9752517Y-17824833D02*
X9752517Y-17767690D01*
X9752517Y-17767690D02*
X9762041Y-17748642D01*
X9762041Y-17748642D02*
X9771565Y-17739119D01*
X9771565Y-17739119D02*
X9790613Y-17729595D01*
X9790613Y-17729595D02*
X9828708Y-17729595D01*
X9828708Y-17729595D02*
X9847755Y-17739119D01*
X9923946Y-17939119D02*
X9933470Y-17929595D01*
X9933470Y-17929595D02*
X9952517Y-17901023D01*
X9952517Y-17901023D02*
X9962041Y-17881976D01*
X9962041Y-17881976D02*
X9971565Y-17853404D01*
X9971565Y-17853404D02*
X9981089Y-17805785D01*
X9981089Y-17805785D02*
X9981089Y-17767690D01*
X9981089Y-17767690D02*
X9971565Y-17720071D01*
X9971565Y-17720071D02*
X9962041Y-17691500D01*
X9962041Y-17691500D02*
X9952517Y-17672452D01*
X9952517Y-17672452D02*
X9933470Y-17643880D01*
X9933470Y-17643880D02*
X9923946Y-17634357D01*
M02*
