M48
; DRILL file {KiCad 7.0.1} date Fri Oct 18 16:25:14 2024
; FORMAT={-:-/ absolute / metric / decimal}
; #@! TF.CreationDate,2024-10-18T16:25:14+07:00
; #@! TF.GenerationSoftware,Kicad,Pcbnew,7.0.1
; #@! TF.FileFunction,Plated,1,2,PTH
FMAT,2
METRIC
; #@! TA.AperFunction,Plated,PTH,ViaDrill
T1C0.400
; #@! TA.AperFunction,Plated,PTH,ComponentDrill
T2C0.400
; #@! TA.AperFunction,Plated,PTH,ComponentDrill
T3C0.813
; #@! TA.AperFunction,Plated,PTH,ComponentDrill
T4C1.000
; #@! TA.AperFunction,Plated,PTH,ComponentDrill
T5C1.092
; #@! TA.AperFunction,Plated,PTH,ComponentDrill
T6C1.300
; #@! TA.AperFunction,Plated,PTH,ComponentDrill
T7C1.500
%
G90
G05
T1
X31.85Y-78.45
X31.9Y-112.1
X31.95Y-97.3
X32.7Y-124.25
X33.1Y-128.1
X33.35Y-118.85
X33.4Y-85.9
X34.0Y-103.75
X34.3Y-151.6
X34.875Y-105.956
X35.05Y-88.15
X35.1Y-120.6
X35.5Y-122.6
X35.55Y-144.2
X35.6Y-107.1
X35.75Y-128.0
X36.1Y-124.2
X36.85Y-118.85
X37.25Y-137.9
X37.45Y-123.95
X38.35Y-91.15
X42.65Y-103.85
X42.75Y-146.2
X43.3Y-136.0
X44.3Y-70.6
X44.65Y-105.9
X44.7Y-88.45
X44.7Y-90.7
X44.7Y-121.3
X44.75Y-124.45
X45.406Y-87.287
X45.417Y-122.504
X45.5Y-90.7
X45.687Y-126.913
X45.85Y-108.1
X45.9Y-128.825
X46.15Y-155.3
X46.55Y-118.8
X47.9Y-138.3
X48.35Y-78.35
X48.5Y-97.65
X48.5Y-112.45
X49.4Y-138.976
X50.0Y-141.0
X50.7Y-75.85
X50.8Y-111.75
X51.1Y-92.85
X51.717Y-117.145
X52.25Y-146.25
X52.35Y-136.8
X52.45Y-80.8
X52.825Y-121.462
X53.878Y-101.34
X54.05Y-143.35
X54.15Y-83.6
X54.4Y-99.3
X54.6Y-102.4
X54.6Y-121.5
X54.75Y-118.8
X55.1Y-124.424
X55.2Y-69.25
X55.35Y-128.2
X55.65Y-141.549
X56.45Y-117.95
X56.511Y-142.057
X56.65Y-86.15
X57.55Y-124.45
X60.4Y-124.85
X60.55Y-105.95
X61.125Y-131.45
X61.9Y-154.3
X62.7Y-88.769
X62.85Y-98.8
X63.75Y-101.35
X63.8Y-82.45
X63.85Y-121.4
X64.318Y-122.283
X64.525Y-83.75
X64.75Y-128.35
X64.8Y-149.35
X65.05Y-131.874
X66.05Y-125.65
X66.05Y-129.8
X66.05Y-131.874
X66.1Y-121.6
X66.15Y-118.05
X66.85Y-129.0
X67.05Y-134.6
X67.45Y-73.6
X67.5Y-111.45
X67.65Y-92.85
X68.55Y-117.6
X68.6Y-120.8
X68.8Y-149.6
X68.8Y-150.6
X69.023Y-119.1
X69.2Y-123.524
X69.25Y-146.45
X69.675Y-144.75
X69.85Y-105.75
X69.95Y-71.3
X69.95Y-101.25
X70.05Y-90.5
X70.05Y-109.3
X70.4Y-143.8
X70.65Y-119.1
X70.65Y-150.55
X71.1Y-117.3
X71.65Y-121.15
X71.95Y-78.2
X72.7Y-81.15
X73.075Y-99.352
X73.7Y-118.25
X73.8Y-100.5
X74.05Y-83.4
X75.65Y-121.1
X76.4Y-129.0
X77.35Y-128.0
X78.55Y-140.8
X78.7Y-103.1
X79.25Y-85.825
X79.3Y-126.4
X79.55Y-143.65
X79.95Y-66.7
X80.25Y-124.15
X81.2Y-149.65
X81.65Y-126.5
X81.9Y-147.65
X82.65Y-80.45
X82.8Y-119.3
X83.05Y-99.3
X83.374Y-81.182
X83.4Y-142.2
X83.525Y-118.2
X83.65Y-134.95
X84.35Y-123.65
X84.35Y-125.85
X85.825Y-123.65
X85.825Y-125.85
X86.55Y-71.6
X86.65Y-109.4
X86.7Y-90.5
X88.35Y-141.9
X88.55Y-131.0
X88.95Y-92.5
X89.0Y-111.4
X89.05Y-73.75
X89.4Y-126.85
X89.4Y-136.55
X89.95Y-144.6
X90.1Y-107.6
X90.25Y-145.85
X91.05Y-122.2
X91.15Y-99.1
X91.775Y-101.35
X92.2Y-83.55
X92.5Y-102.35
X92.7Y-120.35
X93.25Y-143.4
X93.45Y-85.6
X93.85Y-118.15
X94.0Y-79.95
X94.2Y-150.85
X95.05Y-69.3
X95.5Y-88.85
X96.0Y-106.6
X97.05Y-150.95
X98.25Y-131.75
X98.95Y-149.6
X99.35Y-87.95
X99.45Y-145.9
X101.6Y-107.5
X101.65Y-101.7
X101.7Y-83.7
X101.9Y-120.35
X102.416Y-82.54
X102.624Y-121.344
X102.65Y-130.3
X102.75Y-127.816
X102.8Y-103.7
X103.45Y-126.05
X103.55Y-99.4
X105.5Y-111.8
X105.65Y-92.8
X105.75Y-73.65
X105.8Y-140.95
X105.9Y-126.05
X106.274Y-130.7
X106.65Y-137.075
X106.932Y-128.54
X107.175Y-126.325
X108.1Y-114.2
X108.15Y-76.25
X108.15Y-95.5
X108.95Y-127.2
X109.2Y-148.7
X109.25Y-100.8
X109.75Y-105.7
X109.8Y-143.8
X109.85Y-123.65
X110.25Y-132.42
X110.35Y-128.54
X110.5Y-87.5
X110.85Y-152.5
X111.0Y-147.65
X111.397Y-104.174
X111.4Y-90.75
X111.5Y-85.95
X111.85Y-124.0
X112.1Y-105.35
X112.3Y-138.85
X112.45Y-120.65
X114.65Y-146.6
X116.1Y-110.475
X116.1Y-111.924
X117.3Y-70.85
X118.45Y-153.75
X119.2Y-88.4
X121.0Y-86.0
X121.0Y-124.0
X121.35Y-104.2
X121.722Y-84.994
X121.724Y-122.956
X122.1Y-92.1
X122.4Y-83.2
X122.65Y-139.725
X123.45Y-103.45
X124.7Y-114.3
X124.8Y-76.7
X124.8Y-95.35
X126.8Y-147.15
T2
X48.78Y-121.66
X48.78Y-125.06
X49.0Y-85.8
X49.0Y-89.2
X49.0Y-104.6
X49.0Y-108.0
X50.8Y-121.62
X50.8Y-125.02
X50.91Y-85.8
X50.91Y-89.2
X50.93Y-104.58
X50.93Y-107.98
X73.5Y-151.8
X76.9Y-151.8
X85.0Y-148.2
X85.0Y-151.6
X86.8Y-101.0
X86.8Y-104.4
X86.8Y-117.8
X86.8Y-121.2
X87.0Y-81.7
X87.0Y-85.1
X88.7Y-101.01
X88.7Y-104.41
X88.71Y-117.74
X88.71Y-121.14
X88.96Y-81.68
X88.96Y-85.08
X104.8Y-149.1
X104.8Y-152.5
X106.4Y-119.7
X106.4Y-123.1
X106.6Y-100.92
X106.6Y-104.32
X107.2Y-83.7
X107.2Y-87.1
T3
X63.77Y-138.18
X63.77Y-140.72
X63.77Y-143.26
X63.77Y-145.8
T4
X36.15Y-153.77
X38.65Y-153.77
X54.21Y-153.83
X56.71Y-153.83
X72.88Y-132.61
X72.88Y-147.11
X75.38Y-147.11
X77.88Y-132.61
X77.88Y-147.11
T5
X31.68Y-133.231
X31.68Y-148.929
X34.22Y-133.689
X34.22Y-148.471
X36.76Y-133.231
X36.76Y-148.929
X39.3Y-133.689
X39.3Y-148.471
X41.84Y-133.231
X41.84Y-148.929
X44.38Y-133.689
X44.38Y-148.471
X46.92Y-133.231
X46.92Y-148.929
X49.46Y-133.689
X49.46Y-148.471
X52.0Y-133.231
X52.0Y-148.929
X54.54Y-133.689
X54.54Y-148.471
X57.08Y-133.231
X57.08Y-148.929
X59.62Y-133.689
X59.62Y-148.471
T6
X37.05Y-141.76
X43.55Y-141.76
T4
X114.55Y-129.4G85X114.05Y-129.4
G05
X114.55Y-131.85G85X114.05Y-131.85
G05
X116.05Y-127.65G85X115.55Y-127.65
G05
X116.05Y-133.6G85X115.55Y-133.6
G05
X120.05Y-127.65G85X119.55Y-127.65
G05
X120.05Y-133.6G85X119.55Y-133.6
G05
X123.05Y-127.65G85X122.55Y-127.65
G05
X123.05Y-133.6G85X122.55Y-133.6
G05
T7
X69.78Y-140.26G85X69.78Y-138.96
G05
X80.98Y-140.26G85X80.98Y-138.96
G05
T0
M30
