G04 #@! TF.GenerationSoftware,KiCad,Pcbnew,7.0.1*
G04 #@! TF.CreationDate,2024-10-31T14:09:30+07:00*
G04 #@! TF.ProjectId,minikeeb,6d696e69-6b65-4656-922e-6b696361645f,rev?*
G04 #@! TF.SameCoordinates,Original*
G04 #@! TF.FileFunction,Profile,NP*
%FSLAX46Y46*%
G04 Gerber Fmt 4.6, Leading zero omitted, Abs format (unit mm)*
G04 Created by KiCad (PCBNEW 7.0.1) date 2024-10-31 14:09:30*
%MOMM*%
%LPD*%
G01*
G04 APERTURE LIST*
G04 #@! TA.AperFunction,Profile*
%ADD10C,0.200000*%
G04 #@! TD*
G04 #@! TA.AperFunction,Profile*
%ADD11C,0.050000*%
G04 #@! TD*
G04 #@! TA.AperFunction,Profile*
%ADD12C,0.100000*%
G04 #@! TD*
G04 APERTURE END LIST*
D10*
X31066485Y-72657652D02*
G75*
G03*
X30006120Y-74091781I439595J-1434098D01*
G01*
D11*
X33411781Y-92450000D02*
G75*
G03*
X33411781Y-92450000I-1011781J0D01*
G01*
D10*
X126086377Y-72400921D02*
G75*
G03*
X124841192Y-71039642I-1366777J-79D01*
G01*
D11*
X101411781Y-67800000D02*
G75*
G03*
X101411781Y-67800000I-1011781J0D01*
G01*
D10*
X30100000Y-136610000D02*
X30006120Y-74091781D01*
X30060000Y-145830000D02*
X30070660Y-154879340D01*
D11*
X65111781Y-67600000D02*
G75*
G03*
X65111781Y-67600000I-1011781J0D01*
G01*
X43411781Y-130300000D02*
G75*
G03*
X43411781Y-130300000I-1011781J0D01*
G01*
D10*
X124841192Y-71039641D02*
G75*
G03*
X31066485Y-72657655I-44076112J-163739149D01*
G01*
D11*
X109161781Y-153640000D02*
G75*
G03*
X109161781Y-153640000I-1011781J0D01*
G01*
D10*
X34730000Y-136610000D02*
X34730000Y-145830000D01*
X126086306Y-72400921D02*
X126167410Y-134663015D01*
D11*
X125200001Y-109500000D02*
G75*
G03*
X125200001Y-109500000I-1011781J0D01*
G01*
X32891781Y-151550000D02*
G75*
G03*
X32891781Y-151550000I-1011781J0D01*
G01*
D10*
X30100000Y-136610000D02*
X34730000Y-136610000D01*
X103689999Y-156359588D02*
X31570660Y-156379340D01*
X119733800Y-159772925D02*
X104113583Y-156445223D01*
D11*
X123251781Y-137800000D02*
G75*
G03*
X123251781Y-137800000I-1011781J0D01*
G01*
D10*
X126167411Y-134663015D02*
G75*
G03*
X126325659Y-135333595I1499989J15D01*
G01*
X34730000Y-145830000D02*
X30060000Y-145830000D01*
X104113583Y-156445223D02*
G75*
G03*
X103689999Y-156359588I-423583J-1004777D01*
G01*
X129747706Y-143614120D02*
G75*
G03*
X129771217Y-142227789I-1318206J715720D01*
G01*
X30070660Y-154879340D02*
G75*
G03*
X31570660Y-156379340I1500040J40D01*
G01*
X126325658Y-135333595D02*
X129771217Y-142227789D01*
X129747683Y-143614108D02*
X121440255Y-159039775D01*
X119733796Y-159772940D02*
G75*
G03*
X121440255Y-159039775I388204J1448940D01*
G01*
D12*
X76200000Y-79250000D02*
X76200000Y-82350000D01*
X76200000Y-82350000D02*
X79800000Y-82350000D01*
X79800000Y-79250000D02*
X76200000Y-79250000D01*
X79800000Y-82350000D02*
X79800000Y-79250000D01*
X80100000Y-101450000D02*
X80100000Y-98350000D01*
X80100000Y-98350000D02*
X76500000Y-98350000D01*
X76500000Y-101450000D02*
X80100000Y-101450000D01*
X76500000Y-98350000D02*
X76500000Y-101450000D01*
X76512500Y-117150000D02*
X76512500Y-120250000D01*
X76512500Y-120250000D02*
X80112500Y-120250000D01*
X80112500Y-117150000D02*
X76512500Y-117150000D01*
X80112500Y-120250000D02*
X80112500Y-117150000D01*
X61000000Y-103450000D02*
X61000000Y-100350000D01*
X61000000Y-100350000D02*
X57400000Y-100350000D01*
X57400000Y-103450000D02*
X61000000Y-103450000D01*
X57400000Y-100350000D02*
X57400000Y-103450000D01*
X57300000Y-81550000D02*
X57300000Y-84650000D01*
X57300000Y-84650000D02*
X60900000Y-84650000D01*
X60900000Y-81550000D02*
X57300000Y-81550000D01*
X60900000Y-84650000D02*
X60900000Y-81550000D01*
X76730000Y-145750000D02*
X76730000Y-142650000D01*
X76730000Y-142650000D02*
X73130000Y-142650000D01*
X73130000Y-145750000D02*
X76730000Y-145750000D01*
X73130000Y-142650000D02*
X73130000Y-145750000D01*
X95551497Y-149619059D02*
X96353836Y-146624689D01*
X96353836Y-146624689D02*
X92876503Y-145692941D01*
X92074164Y-148687311D02*
X95551497Y-149619059D01*
X92876503Y-145692941D02*
X92074164Y-148687311D01*
X114600000Y-83970000D02*
X114600000Y-87070000D01*
X114600000Y-87070000D02*
X118200000Y-87070000D01*
X118200000Y-83970000D02*
X114600000Y-83970000D01*
X118200000Y-87070000D02*
X118200000Y-83970000D01*
X42000000Y-108050000D02*
X42000000Y-104950000D01*
X42000000Y-104950000D02*
X38400000Y-104950000D01*
X38400000Y-108050000D02*
X42000000Y-108050000D01*
X38400000Y-104950000D02*
X38400000Y-108050000D01*
X38350000Y-124350000D02*
X38350000Y-127450000D01*
X38350000Y-127450000D02*
X41950000Y-127450000D01*
X41950000Y-124350000D02*
X38350000Y-124350000D01*
X41950000Y-127450000D02*
X41950000Y-124350000D01*
X95500000Y-119350000D02*
X95500000Y-122450000D01*
X95500000Y-122450000D02*
X99100000Y-122450000D01*
X99100000Y-119350000D02*
X95500000Y-119350000D01*
X99100000Y-122450000D02*
X99100000Y-119350000D01*
X61700000Y-130350000D02*
X61700000Y-127250000D01*
X61700000Y-127250000D02*
X58100000Y-127250000D01*
X58100000Y-130350000D02*
X61700000Y-130350000D01*
X58100000Y-127250000D02*
X58100000Y-130350000D01*
X95400000Y-81550000D02*
X95400000Y-84650000D01*
X95400000Y-84650000D02*
X99000000Y-84650000D01*
X99000000Y-81550000D02*
X95400000Y-81550000D01*
X99000000Y-84650000D02*
X99000000Y-81550000D01*
X38320000Y-86310000D02*
X38320000Y-89410000D01*
X38320000Y-89410000D02*
X41920000Y-89410000D01*
X41920000Y-86310000D02*
X38320000Y-86310000D01*
X41920000Y-89410000D02*
X41920000Y-86310000D01*
X57600000Y-119350000D02*
X57600000Y-122450000D01*
X57600000Y-122450000D02*
X61200000Y-122450000D01*
X61200000Y-119350000D02*
X57600000Y-119350000D01*
X61200000Y-122450000D02*
X61200000Y-119350000D01*
X118400000Y-106350000D02*
X118400000Y-103250000D01*
X118400000Y-103250000D02*
X114800000Y-103250000D01*
X114800000Y-106350000D02*
X118400000Y-106350000D01*
X114800000Y-103250000D02*
X114800000Y-106350000D01*
X115317846Y-152946339D02*
X116867846Y-150261661D01*
X116867846Y-150261661D02*
X113750154Y-148461661D01*
X112200154Y-151146339D02*
X115317846Y-152946339D01*
X113750154Y-148461661D02*
X112200154Y-151146339D01*
X114700000Y-121950000D02*
X114700000Y-125050000D01*
X114700000Y-125050000D02*
X118300000Y-125050000D01*
X118300000Y-121950000D02*
X114700000Y-121950000D01*
X118300000Y-125050000D02*
X118300000Y-121950000D01*
X98800000Y-103250000D02*
X98800000Y-100150000D01*
X98800000Y-100150000D02*
X95200000Y-100150000D01*
X95200000Y-103250000D02*
X98800000Y-103250000D01*
X95200000Y-100150000D02*
X95200000Y-103250000D01*
X98900000Y-103350000D02*
X95300000Y-103350000D01*
X98900000Y-100250000D02*
X98900000Y-103350000D01*
X95300000Y-103350000D02*
X95300000Y-100250000D01*
X95300000Y-100250000D02*
X98900000Y-100250000D01*
X38320000Y-86310000D02*
X41920000Y-86310000D01*
X38320000Y-89410000D02*
X38320000Y-86310000D01*
X41920000Y-86310000D02*
X41920000Y-89410000D01*
X41920000Y-89410000D02*
X38320000Y-89410000D01*
X76750000Y-145750000D02*
X73150000Y-145750000D01*
X76750000Y-142650000D02*
X76750000Y-145750000D01*
X73150000Y-145750000D02*
X73150000Y-142650000D01*
X73150000Y-142650000D02*
X76750000Y-142650000D01*
X42000000Y-108050000D02*
X38400000Y-108050000D01*
X42000000Y-104950000D02*
X42000000Y-108050000D01*
X38400000Y-108050000D02*
X38400000Y-104950000D01*
X38400000Y-104950000D02*
X42000000Y-104950000D01*
X115313846Y-152942339D02*
X112196154Y-151142339D01*
X116863846Y-150257661D02*
X115313846Y-152942339D01*
X112196154Y-151142339D02*
X113746154Y-148457661D01*
X113746154Y-148457661D02*
X116863846Y-150257661D01*
X114700000Y-121950000D02*
X118300000Y-121950000D01*
X114700000Y-125050000D02*
X114700000Y-121950000D01*
X118300000Y-121950000D02*
X118300000Y-125050000D01*
X118300000Y-125050000D02*
X114700000Y-125050000D01*
X61687500Y-130350000D02*
X58087500Y-130350000D01*
X61687500Y-127250000D02*
X61687500Y-130350000D01*
X58087500Y-130350000D02*
X58087500Y-127250000D01*
X58087500Y-127250000D02*
X61687500Y-127250000D01*
X80100000Y-101450000D02*
X76500000Y-101450000D01*
X80100000Y-98350000D02*
X80100000Y-101450000D01*
X76500000Y-101450000D02*
X76500000Y-98350000D01*
X76500000Y-98350000D02*
X80100000Y-98350000D01*
X95500000Y-119350000D02*
X99100000Y-119350000D01*
X95500000Y-122450000D02*
X95500000Y-119350000D01*
X99100000Y-119350000D02*
X99100000Y-122450000D01*
X99100000Y-122450000D02*
X95500000Y-122450000D01*
X76512500Y-117150000D02*
X80112500Y-117150000D01*
X76512500Y-120250000D02*
X76512500Y-117150000D01*
X80112500Y-117150000D02*
X80112500Y-120250000D01*
X80112500Y-120250000D02*
X76512500Y-120250000D01*
X38300000Y-124250000D02*
X41900000Y-124250000D01*
X38300000Y-127350000D02*
X38300000Y-124250000D01*
X41900000Y-124250000D02*
X41900000Y-127350000D01*
X41900000Y-127350000D02*
X38300000Y-127350000D01*
X60987500Y-103450000D02*
X57387500Y-103450000D01*
X60987500Y-100350000D02*
X60987500Y-103450000D01*
X57387500Y-103450000D02*
X57387500Y-100350000D01*
X57387500Y-100350000D02*
X60987500Y-100350000D01*
X95400000Y-81550000D02*
X99000000Y-81550000D01*
X95400000Y-84650000D02*
X95400000Y-81550000D01*
X99000000Y-81550000D02*
X99000000Y-84650000D01*
X99000000Y-84650000D02*
X95400000Y-84650000D01*
X57300000Y-81550000D02*
X60900000Y-81550000D01*
X57300000Y-84650000D02*
X57300000Y-81550000D01*
X60900000Y-81550000D02*
X60900000Y-84650000D01*
X60900000Y-84650000D02*
X57300000Y-84650000D01*
X95551497Y-149619059D02*
X92074164Y-148687311D01*
X96353836Y-146624689D02*
X95551497Y-149619059D01*
X92074164Y-148687311D02*
X92876503Y-145692941D01*
X92876503Y-145692941D02*
X96353836Y-146624689D01*
X114600000Y-83970000D02*
X118200000Y-83970000D01*
X114600000Y-87070000D02*
X114600000Y-83970000D01*
X118200000Y-83970000D02*
X118200000Y-87070000D01*
X118200000Y-87070000D02*
X114600000Y-87070000D01*
X57600000Y-119350000D02*
X61200000Y-119350000D01*
X57600000Y-122450000D02*
X57600000Y-119350000D01*
X61200000Y-119350000D02*
X61200000Y-122450000D01*
X61200000Y-122450000D02*
X57600000Y-122450000D01*
X76200000Y-79250000D02*
X79800000Y-79250000D01*
X76200000Y-82350000D02*
X76200000Y-79250000D01*
X79800000Y-79250000D02*
X79800000Y-82350000D01*
X79800000Y-82350000D02*
X76200000Y-82350000D01*
X118400000Y-106350000D02*
X114800000Y-106350000D01*
X118400000Y-103250000D02*
X118400000Y-106350000D01*
X114800000Y-106350000D02*
X114800000Y-103250000D01*
X114800000Y-103250000D02*
X118400000Y-103250000D01*
M02*
