G04 #@! TF.GenerationSoftware,KiCad,Pcbnew,7.0.1*
G04 #@! TF.CreationDate,2024-09-03T13:38:48+07:00*
G04 #@! TF.ProjectId,minikeeb,6d696e69-6b65-4656-922e-6b696361645f,rev?*
G04 #@! TF.SameCoordinates,Original*
G04 #@! TF.FileFunction,Paste,Top*
G04 #@! TF.FilePolarity,Positive*
%FSLAX46Y46*%
G04 Gerber Fmt 4.6, Leading zero omitted, Abs format (unit mm)*
G04 Created by KiCad (PCBNEW 7.0.1) date 2024-09-03 13:38:48*
%MOMM*%
%LPD*%
G01*
G04 APERTURE LIST*
G04 Aperture macros list*
%AMRotRect*
0 Rectangle, with rotation*
0 The origin of the aperture is its center*
0 $1 length*
0 $2 width*
0 $3 Rotation angle, in degrees counterclockwise*
0 Add horizontal line*
21,1,$1,$2,0,0,$3*%
%AMFreePoly0*
4,1,24,2.735355,1.235355,2.750000,1.200000,2.750000,-0.800000,2.748029,-0.804757,2.749028,-0.809806,2.740927,-0.821903,2.735355,-0.835355,2.730600,-0.837324,2.727735,-0.841603,2.127735,-1.241603,2.113449,-1.244428,2.100000,-1.250000,0.300000,-1.250000,0.264645,-1.235355,0.250000,-1.200000,0.250000,-0.750000,-0.350000,-0.750000,-0.350000,0.750000,0.250000,0.750000,0.250000,1.200000,
0.264645,1.235355,0.300000,1.250000,2.700000,1.250000,2.735355,1.235355,2.735355,1.235355,$1*%
%AMFreePoly1*
4,1,17,-0.364645,1.235355,-0.350000,1.200000,-0.350000,0.750000,0.350000,0.750000,0.350000,-0.750000,-0.350000,-0.750000,-0.350000,-1.200000,-0.364645,-1.235355,-0.400000,-1.250000,-2.800000,-1.250000,-2.835355,-1.235355,-2.850000,-1.200000,-2.850000,1.200000,-2.835355,1.235355,-2.800000,1.250000,-0.400000,1.250000,-0.364645,1.235355,-0.364645,1.235355,$1*%
G04 Aperture macros list end*
%ADD10R,1.700000X0.825000*%
%ADD11FreePoly0,0.000000*%
%ADD12FreePoly1,0.000000*%
%ADD13RotRect,1.700000X0.825000X165.000000*%
%ADD14FreePoly0,345.000000*%
%ADD15FreePoly1,345.000000*%
%ADD16R,0.635000X1.143000*%
%ADD17FreePoly0,330.000000*%
%ADD18FreePoly1,330.000000*%
%ADD19RotRect,1.700000X0.825000X150.000000*%
G04 APERTURE END LIST*
D10*
X78950000Y-80020000D03*
X78950000Y-81420000D03*
X73350000Y-81420000D03*
X73350000Y-80020000D03*
X73400000Y-98490000D03*
X73400000Y-97090000D03*
X79000000Y-97090000D03*
X79000000Y-98490000D03*
X79000000Y-114108000D03*
X79000000Y-115508000D03*
X73400000Y-115508000D03*
X73400000Y-114108000D03*
D11*
X104941000Y-92626500D03*
D12*
X120641000Y-95226500D03*
D10*
X55366000Y-100776000D03*
X55366000Y-99376000D03*
X60966000Y-99376000D03*
X60966000Y-100776000D03*
D11*
X86970500Y-107231500D03*
D12*
X102670500Y-109831500D03*
D10*
X60950000Y-82410000D03*
X60950000Y-83810000D03*
X55350000Y-83810000D03*
X55350000Y-82410000D03*
X72150000Y-143040000D03*
X72150000Y-141640000D03*
X77750000Y-141640000D03*
X77750000Y-143040000D03*
D13*
X91348234Y-145747455D03*
X91710581Y-144395159D03*
X97119766Y-145844545D03*
X96757419Y-147196841D03*
D11*
X104941000Y-109644500D03*
D12*
X120641000Y-112244500D03*
D10*
X114932500Y-84820000D03*
X114932500Y-86220000D03*
X109332500Y-86220000D03*
X109332500Y-84820000D03*
D14*
X89932811Y-134497781D03*
D15*
X104424917Y-141072647D03*
D10*
X37332000Y-105602000D03*
X37332000Y-104202000D03*
X42932000Y-104202000D03*
X42932000Y-105602000D03*
X42932000Y-121220000D03*
X42932000Y-122620000D03*
X37332000Y-122620000D03*
X37332000Y-121220000D03*
D16*
X108880760Y-128540000D03*
X107880000Y-128540000D03*
D10*
X97034000Y-116394000D03*
X97034000Y-117794000D03*
X91434000Y-117794000D03*
X91434000Y-116394000D03*
D11*
X50966000Y-107231500D03*
D12*
X66666000Y-109831500D03*
D10*
X60720000Y-126360000D03*
X60720000Y-127760000D03*
X55120000Y-127760000D03*
X55120000Y-126360000D03*
D16*
X59910380Y-138950000D03*
X58909620Y-138950000D03*
D10*
X97002500Y-82410000D03*
X97002500Y-83810000D03*
X91402500Y-83810000D03*
X91402500Y-82410000D03*
D11*
X68936500Y-87864000D03*
D12*
X84636500Y-90464000D03*
D11*
X32932000Y-111994000D03*
D12*
X48632000Y-114594000D03*
D16*
X59880760Y-144120000D03*
X58880000Y-144120000D03*
D10*
X42920000Y-87160000D03*
X42920000Y-88560000D03*
X37320000Y-88560000D03*
X37320000Y-87160000D03*
D17*
X113154617Y-136699770D03*
D18*
X125451216Y-146801436D03*
D11*
X104941000Y-75672000D03*
D12*
X120641000Y-78272000D03*
D16*
X59910760Y-136340000D03*
X58910000Y-136340000D03*
D11*
X68936500Y-70846000D03*
D12*
X84636500Y-73446000D03*
D11*
X86970500Y-73259000D03*
D12*
X102670500Y-75859000D03*
D16*
X108840760Y-130560000D03*
X107840000Y-130560000D03*
D11*
X32932000Y-78021500D03*
D12*
X48632000Y-80621500D03*
D10*
X60966000Y-116394000D03*
X60966000Y-117794000D03*
X55366000Y-117794000D03*
X55366000Y-116394000D03*
X109327500Y-103170000D03*
X109327500Y-101770000D03*
X114927500Y-101770000D03*
X114927500Y-103170000D03*
D19*
X111779129Y-148050218D03*
X112479129Y-146837782D03*
X117328871Y-149637782D03*
X116628871Y-150850218D03*
D11*
X69000000Y-104882000D03*
D12*
X84700000Y-107482000D03*
D11*
X32932000Y-94976000D03*
D12*
X48632000Y-97576000D03*
D11*
X50966000Y-73259000D03*
D12*
X66666000Y-75859000D03*
D16*
X59900760Y-141520000D03*
X58900000Y-141520000D03*
D10*
X115068000Y-118934000D03*
X115068000Y-120334000D03*
X109468000Y-120334000D03*
X109468000Y-118934000D03*
D11*
X86970500Y-90277000D03*
D12*
X102670500Y-92877000D03*
D11*
X50966000Y-90213500D03*
D12*
X66666000Y-92813500D03*
D10*
X91434000Y-100776000D03*
X91434000Y-99376000D03*
X97034000Y-99376000D03*
X97034000Y-100776000D03*
D11*
X67670000Y-132720000D03*
D12*
X83370000Y-135320000D03*
M02*
