G04 #@! TF.GenerationSoftware,KiCad,Pcbnew,7.0.1*
G04 #@! TF.CreationDate,2024-10-18T16:25:12+07:00*
G04 #@! TF.ProjectId,minikeeb,6d696e69-6b65-4656-922e-6b696361645f,rev?*
G04 #@! TF.SameCoordinates,Original*
G04 #@! TF.FileFunction,Soldermask,Bot*
G04 #@! TF.FilePolarity,Negative*
%FSLAX46Y46*%
G04 Gerber Fmt 4.6, Leading zero omitted, Abs format (unit mm)*
G04 Created by KiCad (PCBNEW 7.0.1) date 2024-10-18 16:25:12*
%MOMM*%
%LPD*%
G01*
G04 APERTURE LIST*
G04 Aperture macros list*
%AMRoundRect*
0 Rectangle with rounded corners*
0 $1 Rounding radius*
0 $2 $3 $4 $5 $6 $7 $8 $9 X,Y pos of 4 corners*
0 Add a 4 corners polygon primitive as box body*
4,1,4,$2,$3,$4,$5,$6,$7,$8,$9,$2,$3,0*
0 Add four circle primitives for the rounded corners*
1,1,$1+$1,$2,$3*
1,1,$1+$1,$4,$5*
1,1,$1+$1,$6,$7*
1,1,$1+$1,$8,$9*
0 Add four rect primitives between the rounded corners*
20,1,$1+$1,$2,$3,$4,$5,0*
20,1,$1+$1,$4,$5,$6,$7,0*
20,1,$1+$1,$6,$7,$8,$9,0*
20,1,$1+$1,$8,$9,$2,$3,0*%
%AMFreePoly0*
4,1,33,2.719517,1.297118,2.754872,1.282473,2.782473,1.254872,2.797118,1.219517,2.801000,1.200000,2.801000,-1.200000,2.797118,-1.219517,2.782473,-1.254872,2.754872,-1.282473,2.719517,-1.297118,2.700000,-1.301000,0.300000,-1.301000,0.280483,-1.297118,0.245128,-1.282473,0.217527,-1.254872,0.202882,-1.219517,0.199000,-1.200000,0.199000,-0.801000,-0.350000,-0.801000,-0.386062,-0.786062,
-0.401000,-0.750000,-0.401000,0.750000,-0.386062,0.786062,-0.350000,0.801000,0.199000,0.801000,0.199000,1.200000,0.202882,1.219517,0.217527,1.254872,0.245128,1.282473,0.280483,1.297118,0.300000,1.301000,2.700000,1.301000,2.719517,1.297118,2.719517,1.297118,$1*%
%AMFreePoly1*
4,1,41,-0.380483,1.297118,-0.345128,1.282473,-0.317527,1.254872,-0.302882,1.219517,-0.299000,1.200000,-0.299000,0.801000,0.350000,0.801000,0.386062,0.786062,0.401000,0.750000,0.401000,-0.750000,0.386062,-0.786062,0.350000,-0.801000,-0.299000,-0.801000,-0.299000,-1.200000,-0.302882,-1.219517,-0.317527,-1.254872,-0.345128,-1.282473,-0.380483,-1.297118,-0.400000,-1.301000,-2.300000,-1.301000,
-2.319518,-1.297117,-2.332223,-1.291853,-2.345428,-1.288028,-2.363094,-1.278867,-2.863094,-0.878867,-2.866724,-0.874553,-2.871416,-0.871419,-2.882473,-0.854871,-2.887733,-0.842170,-2.894367,-0.830125,-2.900382,-0.811152,-2.899898,-0.805531,-2.901000,-0.800000,-2.901000,1.200000,-2.897118,1.219517,-2.882473,1.254872,-2.854872,1.282473,-2.819517,1.297118,-2.800000,1.301000,-0.400000,1.301000,
-0.380483,1.297118,-0.380483,1.297118,$1*%
G04 Aperture macros list end*
G04 #@! TA.AperFunction,Profile*
%ADD10C,0.100000*%
G04 #@! TD*
%ADD11C,1.302000*%
%ADD12O,2.602000X1.802000*%
%ADD13RoundRect,0.051000X0.750000X-0.900000X0.750000X0.900000X-0.750000X0.900000X-0.750000X-0.900000X0*%
%ADD14C,1.802000*%
%ADD15C,3.102000*%
%ADD16C,4.102000*%
%ADD17FreePoly0,0.000000*%
%ADD18FreePoly1,0.000000*%
%ADD19C,1.102000*%
%ADD20RoundRect,0.051000X0.900000X0.750000X-0.900000X0.750000X-0.900000X-0.750000X0.900000X-0.750000X0*%
%ADD21FreePoly0,345.000000*%
%ADD22FreePoly1,345.000000*%
%ADD23C,1.499000*%
%ADD24FreePoly0,330.000000*%
%ADD25FreePoly1,330.000000*%
%ADD26C,2.102000*%
%ADD27RoundRect,0.051000X1.000000X-1.600000X1.000000X1.600000X-1.000000X1.600000X-1.000000X-1.600000X0*%
%ADD28RoundRect,0.301000X-0.600000X-0.750000X0.600000X-0.750000X0.600000X0.750000X-0.600000X0.750000X0*%
%ADD29O,1.802000X2.102000*%
%ADD30RoundRect,0.051000X0.850000X0.412500X-0.850000X0.412500X-0.850000X-0.412500X0.850000X-0.412500X0*%
%ADD31RoundRect,0.051000X-0.850000X-0.412500X0.850000X-0.412500X0.850000X0.412500X-0.850000X0.412500X0*%
%ADD32RoundRect,0.051000X0.317500X0.571500X-0.317500X0.571500X-0.317500X-0.571500X0.317500X-0.571500X0*%
%ADD33RoundRect,0.051000X0.942372X-0.067765X-0.529872X0.782235X-0.942372X0.067765X0.529872X-0.782235X0*%
%ADD34RoundRect,0.051000X-0.876300X-0.876300X0.876300X-0.876300X0.876300X0.876300X-0.876300X0.876300X0*%
%ADD35C,1.854600*%
%ADD36RoundRect,0.051000X0.927800X0.178448X-0.714274X0.618441X-0.927800X-0.178448X0.714274X-0.618441X0*%
G04 APERTURE END LIST*
D10*
X76200000Y-79250000D02*
X76200000Y-82350000D01*
X76200000Y-82350000D02*
X79800000Y-82350000D01*
X79800000Y-79250000D02*
X76200000Y-79250000D01*
X79800000Y-82350000D02*
X79800000Y-79250000D01*
X80100000Y-101450000D02*
X80100000Y-98350000D01*
X80100000Y-98350000D02*
X76500000Y-98350000D01*
X76500000Y-101450000D02*
X80100000Y-101450000D01*
X76500000Y-98350000D02*
X76500000Y-101450000D01*
X76512500Y-117150000D02*
X76512500Y-120250000D01*
X76512500Y-120250000D02*
X80112500Y-120250000D01*
X80112500Y-117150000D02*
X76512500Y-117150000D01*
X80112500Y-120250000D02*
X80112500Y-117150000D01*
X61000000Y-103450000D02*
X61000000Y-100350000D01*
X61000000Y-100350000D02*
X57400000Y-100350000D01*
X57400000Y-103450000D02*
X61000000Y-103450000D01*
X57400000Y-100350000D02*
X57400000Y-103450000D01*
X57300000Y-81550000D02*
X57300000Y-84650000D01*
X57300000Y-84650000D02*
X60900000Y-84650000D01*
X60900000Y-81550000D02*
X57300000Y-81550000D01*
X60900000Y-84650000D02*
X60900000Y-81550000D01*
X76730000Y-145750000D02*
X76730000Y-142650000D01*
X76730000Y-142650000D02*
X73130000Y-142650000D01*
X73130000Y-145750000D02*
X76730000Y-145750000D01*
X73130000Y-142650000D02*
X73130000Y-145750000D01*
X95551497Y-149619059D02*
X96353836Y-146624689D01*
X96353836Y-146624689D02*
X92876503Y-145692941D01*
X92074164Y-148687311D02*
X95551497Y-149619059D01*
X92876503Y-145692941D02*
X92074164Y-148687311D01*
X114600000Y-83970000D02*
X114600000Y-87070000D01*
X114600000Y-87070000D02*
X118200000Y-87070000D01*
X118200000Y-83970000D02*
X114600000Y-83970000D01*
X118200000Y-87070000D02*
X118200000Y-83970000D01*
X42000000Y-108050000D02*
X42000000Y-104950000D01*
X42000000Y-104950000D02*
X38400000Y-104950000D01*
X38400000Y-108050000D02*
X42000000Y-108050000D01*
X38400000Y-104950000D02*
X38400000Y-108050000D01*
X38400000Y-120370000D02*
X38400000Y-123470000D01*
X38400000Y-123470000D02*
X42000000Y-123470000D01*
X42000000Y-120370000D02*
X38400000Y-120370000D01*
X42000000Y-123470000D02*
X42000000Y-120370000D01*
X95500000Y-119350000D02*
X95500000Y-122450000D01*
X95500000Y-122450000D02*
X99100000Y-122450000D01*
X99100000Y-119350000D02*
X95500000Y-119350000D01*
X99100000Y-122450000D02*
X99100000Y-119350000D01*
X61700000Y-130350000D02*
X61700000Y-127250000D01*
X61700000Y-127250000D02*
X58100000Y-127250000D01*
X58100000Y-130350000D02*
X61700000Y-130350000D01*
X58100000Y-127250000D02*
X58100000Y-130350000D01*
X95400000Y-81550000D02*
X95400000Y-84650000D01*
X95400000Y-84650000D02*
X99000000Y-84650000D01*
X99000000Y-81550000D02*
X95400000Y-81550000D01*
X99000000Y-84650000D02*
X99000000Y-81550000D01*
X38320000Y-86310000D02*
X38320000Y-89410000D01*
X38320000Y-89410000D02*
X41920000Y-89410000D01*
X41920000Y-86310000D02*
X38320000Y-86310000D01*
X41920000Y-89410000D02*
X41920000Y-86310000D01*
X57600000Y-119350000D02*
X57600000Y-122450000D01*
X57600000Y-122450000D02*
X61200000Y-122450000D01*
X61200000Y-119350000D02*
X57600000Y-119350000D01*
X61200000Y-122450000D02*
X61200000Y-119350000D01*
X118400000Y-106350000D02*
X118400000Y-103250000D01*
X118400000Y-103250000D02*
X114800000Y-103250000D01*
X114800000Y-106350000D02*
X118400000Y-106350000D01*
X114800000Y-103250000D02*
X114800000Y-106350000D01*
X115317846Y-152946339D02*
X116867846Y-150261661D01*
X116867846Y-150261661D02*
X113750154Y-148461661D01*
X112200154Y-151146339D02*
X115317846Y-152946339D01*
X113750154Y-148461661D02*
X112200154Y-151146339D01*
X114700000Y-121950000D02*
X114700000Y-125050000D01*
X114700000Y-125050000D02*
X118300000Y-125050000D01*
X118300000Y-121950000D02*
X114700000Y-121950000D01*
X118300000Y-125050000D02*
X118300000Y-121950000D01*
X98800000Y-103250000D02*
X98800000Y-100150000D01*
X98800000Y-100150000D02*
X95200000Y-100150000D01*
X95200000Y-103250000D02*
X98800000Y-103250000D01*
X95200000Y-100150000D02*
X95200000Y-103250000D01*
X98900000Y-103350000D02*
X95300000Y-103350000D01*
X98900000Y-100250000D02*
X98900000Y-103350000D01*
X95300000Y-103350000D02*
X95300000Y-100250000D01*
X95300000Y-100250000D02*
X98900000Y-100250000D01*
X38320000Y-86310000D02*
X41920000Y-86310000D01*
X38320000Y-89410000D02*
X38320000Y-86310000D01*
X41920000Y-86310000D02*
X41920000Y-89410000D01*
X41920000Y-89410000D02*
X38320000Y-89410000D01*
X76750000Y-145750000D02*
X73150000Y-145750000D01*
X76750000Y-142650000D02*
X76750000Y-145750000D01*
X73150000Y-145750000D02*
X73150000Y-142650000D01*
X73150000Y-142650000D02*
X76750000Y-142650000D01*
X42000000Y-108050000D02*
X38400000Y-108050000D01*
X42000000Y-104950000D02*
X42000000Y-108050000D01*
X38400000Y-108050000D02*
X38400000Y-104950000D01*
X38400000Y-104950000D02*
X42000000Y-104950000D01*
X115313846Y-152942339D02*
X112196154Y-151142339D01*
X116863846Y-150257661D02*
X115313846Y-152942339D01*
X112196154Y-151142339D02*
X113746154Y-148457661D01*
X113746154Y-148457661D02*
X116863846Y-150257661D01*
X114700000Y-121950000D02*
X118300000Y-121950000D01*
X114700000Y-125050000D02*
X114700000Y-121950000D01*
X118300000Y-121950000D02*
X118300000Y-125050000D01*
X118300000Y-125050000D02*
X114700000Y-125050000D01*
X61687500Y-130350000D02*
X58087500Y-130350000D01*
X61687500Y-127250000D02*
X61687500Y-130350000D01*
X58087500Y-130350000D02*
X58087500Y-127250000D01*
X58087500Y-127250000D02*
X61687500Y-127250000D01*
X80100000Y-101450000D02*
X76500000Y-101450000D01*
X80100000Y-98350000D02*
X80100000Y-101450000D01*
X76500000Y-101450000D02*
X76500000Y-98350000D01*
X76500000Y-98350000D02*
X80100000Y-98350000D01*
X95500000Y-119350000D02*
X99100000Y-119350000D01*
X95500000Y-122450000D02*
X95500000Y-119350000D01*
X99100000Y-119350000D02*
X99100000Y-122450000D01*
X99100000Y-122450000D02*
X95500000Y-122450000D01*
X76512500Y-117150000D02*
X80112500Y-117150000D01*
X76512500Y-120250000D02*
X76512500Y-117150000D01*
X80112500Y-117150000D02*
X80112500Y-120250000D01*
X80112500Y-120250000D02*
X76512500Y-120250000D01*
X38330000Y-120370000D02*
X41930000Y-120370000D01*
X38330000Y-123470000D02*
X38330000Y-120370000D01*
X41930000Y-120370000D02*
X41930000Y-123470000D01*
X41930000Y-123470000D02*
X38330000Y-123470000D01*
X60987500Y-103450000D02*
X57387500Y-103450000D01*
X60987500Y-100350000D02*
X60987500Y-103450000D01*
X57387500Y-103450000D02*
X57387500Y-100350000D01*
X57387500Y-100350000D02*
X60987500Y-100350000D01*
X95400000Y-81550000D02*
X99000000Y-81550000D01*
X95400000Y-84650000D02*
X95400000Y-81550000D01*
X99000000Y-81550000D02*
X99000000Y-84650000D01*
X99000000Y-84650000D02*
X95400000Y-84650000D01*
X57300000Y-81550000D02*
X60900000Y-81550000D01*
X57300000Y-84650000D02*
X57300000Y-81550000D01*
X60900000Y-81550000D02*
X60900000Y-84650000D01*
X60900000Y-84650000D02*
X57300000Y-84650000D01*
X95551497Y-149619059D02*
X92074164Y-148687311D01*
X96353836Y-146624689D02*
X95551497Y-149619059D01*
X92074164Y-148687311D02*
X92876503Y-145692941D01*
X92876503Y-145692941D02*
X96353836Y-146624689D01*
X114600000Y-83970000D02*
X118200000Y-83970000D01*
X114600000Y-87070000D02*
X114600000Y-83970000D01*
X118200000Y-83970000D02*
X118200000Y-87070000D01*
X118200000Y-87070000D02*
X114600000Y-87070000D01*
X57600000Y-119350000D02*
X61200000Y-119350000D01*
X57600000Y-122450000D02*
X57600000Y-119350000D01*
X61200000Y-119350000D02*
X61200000Y-122450000D01*
X61200000Y-122450000D02*
X57600000Y-122450000D01*
X76200000Y-79250000D02*
X79800000Y-79250000D01*
X76200000Y-82350000D02*
X76200000Y-79250000D01*
X79800000Y-79250000D02*
X79800000Y-82350000D01*
X79800000Y-82350000D02*
X76200000Y-82350000D01*
X118400000Y-106350000D02*
X114800000Y-106350000D01*
X118400000Y-103250000D02*
X118400000Y-106350000D01*
X114800000Y-106350000D02*
X114800000Y-103250000D01*
X114800000Y-103250000D02*
X118400000Y-103250000D01*
D11*
X124600000Y-129750000D03*
X117600000Y-129750000D03*
X124600000Y-131500000D03*
X117600000Y-131500000D03*
D12*
X115800000Y-127650000D03*
X115800000Y-133600000D03*
X119800000Y-127650000D03*
X119800000Y-133600000D03*
X122800000Y-127650000D03*
X122800000Y-133600000D03*
X114300000Y-129400000D03*
X114300000Y-131850000D03*
D13*
X50910000Y-89200000D03*
X50910000Y-85800000D03*
D14*
X111380000Y-100080000D03*
D15*
X112650000Y-97539999D03*
X113920000Y-95000000D03*
D16*
X116460000Y-100080000D03*
D15*
X119000000Y-95000000D03*
X120270000Y-97540000D03*
D14*
X121540000Y-100080000D03*
D17*
X107960000Y-97580000D03*
D18*
X123660000Y-94980000D03*
D13*
X87000000Y-85100000D03*
X87000000Y-81700000D03*
X88960000Y-85079999D03*
X88960000Y-81679999D03*
D14*
X92130000Y-116330000D03*
D15*
X93400000Y-113789999D03*
X94670000Y-111250000D03*
D16*
X97210000Y-116330000D03*
D15*
X99750000Y-111250000D03*
X101020000Y-113790000D03*
D14*
X102290000Y-116330000D03*
D17*
X88710000Y-113830000D03*
D18*
X104410000Y-111230000D03*
D19*
X42940000Y-154420000D03*
X49740000Y-154420000D03*
D13*
X49000000Y-108000000D03*
X49000000Y-104600000D03*
D14*
X111380000Y-119080000D03*
D15*
X112650000Y-116539999D03*
X113920000Y-114000000D03*
D16*
X116460000Y-119080000D03*
D15*
X119000000Y-114000000D03*
X120270000Y-116540000D03*
D14*
X121540000Y-119080000D03*
D17*
X107960000Y-116580000D03*
D18*
X123660000Y-113980000D03*
D20*
X76900000Y-151800000D03*
X73500000Y-151800000D03*
D14*
X91573097Y-142045199D03*
D15*
X93457223Y-139920447D03*
X95341349Y-137795696D03*
D16*
X96480000Y-143360000D03*
D15*
X100248252Y-139110497D03*
X100817578Y-141892649D03*
D14*
X101386903Y-144674801D03*
D21*
X88916678Y-138745224D03*
D22*
X104754643Y-140297275D03*
D23*
X63770000Y-145800000D03*
X63770000Y-143260000D03*
X63770000Y-140720000D03*
X63770000Y-138180000D03*
D13*
X106600000Y-104319999D03*
X106600000Y-100919999D03*
D14*
X54230000Y-116290001D03*
D15*
X55500000Y-113750000D03*
X56770000Y-111210001D03*
D16*
X59310000Y-116290001D03*
D15*
X61850000Y-111210001D03*
X63120000Y-113750001D03*
D14*
X64390000Y-116290001D03*
D17*
X50810000Y-113790001D03*
D18*
X66510000Y-111190001D03*
D14*
X73170000Y-95000000D03*
D15*
X74440000Y-92459999D03*
X75710000Y-89920000D03*
D16*
X78250000Y-95000000D03*
D15*
X80790000Y-89920000D03*
X82060000Y-92460000D03*
D14*
X83330000Y-95000000D03*
D17*
X69750000Y-92500000D03*
D18*
X85450000Y-89900000D03*
D14*
X35052000Y-117094000D03*
D15*
X36322000Y-114553999D03*
X37592000Y-112014000D03*
D16*
X40132000Y-117094000D03*
D15*
X42672000Y-112014000D03*
X43942000Y-114554000D03*
D14*
X45212000Y-117094000D03*
D17*
X31632000Y-114594000D03*
D18*
X47332000Y-111994000D03*
D14*
X113080591Y-144570000D03*
D15*
X115450444Y-143005295D03*
X117820295Y-141440591D03*
D16*
X117480000Y-147110000D03*
D15*
X122219705Y-143980591D03*
X122049557Y-146815295D03*
D14*
X121879409Y-149650000D03*
D24*
X111368784Y-140694936D03*
D25*
X126265383Y-146293270D03*
D14*
X111380000Y-81080000D03*
D15*
X112650000Y-78539999D03*
X113920000Y-76000000D03*
D16*
X116460000Y-81080000D03*
D15*
X119000000Y-76000000D03*
X120270000Y-78540000D03*
D14*
X121540000Y-81080000D03*
D17*
X107960000Y-78580000D03*
D18*
X123660000Y-75980000D03*
D26*
X37050000Y-141760000D03*
X43550000Y-141760000D03*
D13*
X88700000Y-104410000D03*
X88700000Y-101010000D03*
D26*
X72880000Y-147110000D03*
X77880000Y-147110000D03*
X75380000Y-147110000D03*
D27*
X69780000Y-139610000D03*
X80980000Y-139610000D03*
D26*
X77880000Y-132610000D03*
X72880000Y-132610000D03*
D13*
X86800000Y-104400000D03*
X86800000Y-101000000D03*
X107200000Y-87100000D03*
X107200000Y-83700000D03*
D14*
X73120000Y-76100000D03*
D15*
X74390000Y-73559999D03*
X75660000Y-71020000D03*
D16*
X78200000Y-76100000D03*
D15*
X80740000Y-71020000D03*
X82010000Y-73560000D03*
D14*
X83280000Y-76100000D03*
D17*
X69700000Y-73600000D03*
D18*
X85400000Y-71000000D03*
D28*
X54210000Y-153830000D03*
D29*
X56710000Y-153830000D03*
D13*
X49000000Y-89200000D03*
X49000000Y-85800000D03*
D14*
X92210000Y-78359000D03*
D15*
X93480000Y-75818999D03*
X94750000Y-73279000D03*
D16*
X97290000Y-78359000D03*
D15*
X99830000Y-73279000D03*
X101100000Y-75819000D03*
D14*
X102370000Y-78359000D03*
D17*
X88790000Y-75859000D03*
D18*
X104490000Y-73259000D03*
D14*
X35052000Y-83121500D03*
D15*
X36322000Y-80581499D03*
X37592000Y-78041500D03*
D16*
X40132000Y-83121500D03*
D15*
X42672000Y-78041500D03*
X43942000Y-80581500D03*
D14*
X45212000Y-83121500D03*
D17*
X31632000Y-80621500D03*
D18*
X47332000Y-78021500D03*
D13*
X50930000Y-107980000D03*
X50930000Y-104580000D03*
X88710000Y-121139999D03*
X88710000Y-117739999D03*
X85000000Y-151600000D03*
X85000000Y-148200000D03*
D14*
X73210000Y-114080000D03*
D15*
X74480000Y-111539999D03*
X75750000Y-109000000D03*
D16*
X78290000Y-114080000D03*
D15*
X80830000Y-109000000D03*
X82100000Y-111540000D03*
D14*
X83370000Y-114080000D03*
D17*
X69790000Y-111580000D03*
D18*
X85490000Y-108980000D03*
D14*
X35052000Y-102100000D03*
D15*
X36322000Y-99559999D03*
X37592000Y-97020000D03*
D16*
X40132000Y-102100000D03*
D15*
X42672000Y-97020000D03*
X43942000Y-99560000D03*
D14*
X45212000Y-102100000D03*
D17*
X31632000Y-99600000D03*
D18*
X47332000Y-97000000D03*
D13*
X48780000Y-125060000D03*
X48780000Y-121660000D03*
D14*
X54120000Y-78350000D03*
D15*
X55390000Y-75809999D03*
X56660000Y-73270000D03*
D16*
X59200000Y-78350000D03*
D15*
X61740000Y-73270000D03*
X63010000Y-75810000D03*
D14*
X64280000Y-78350000D03*
D17*
X50700000Y-75850000D03*
D18*
X66400000Y-73250000D03*
D13*
X106400000Y-123100000D03*
X106400000Y-119700000D03*
D28*
X36150000Y-153770000D03*
D29*
X38650000Y-153770000D03*
D14*
X92170000Y-97250000D03*
D15*
X93440000Y-94709999D03*
X94710000Y-92170000D03*
D16*
X97250000Y-97250000D03*
D15*
X99790000Y-92170000D03*
X101060000Y-94710000D03*
D14*
X102330000Y-97250000D03*
D17*
X88750000Y-94750000D03*
D18*
X104450000Y-92150000D03*
D14*
X54170000Y-97290001D03*
D15*
X55440000Y-94750000D03*
X56710000Y-92210001D03*
D16*
X59250000Y-97290001D03*
D15*
X61790000Y-92210001D03*
X63060000Y-94750001D03*
D14*
X64330000Y-97290001D03*
D17*
X50750000Y-94790001D03*
D18*
X66450000Y-92190001D03*
D13*
X50800000Y-125020000D03*
X50800000Y-121620000D03*
X104800000Y-152500000D03*
X104800000Y-149100000D03*
X86800000Y-121200000D03*
X86800000Y-117800000D03*
D14*
X70320000Y-139610000D03*
D15*
X71590000Y-137069999D03*
X72860000Y-134530000D03*
D16*
X75400000Y-139610000D03*
D15*
X77940000Y-134530000D03*
X79210000Y-137070000D03*
D14*
X80480000Y-139610000D03*
D17*
X66900000Y-137110000D03*
D18*
X82600000Y-134510000D03*
D30*
X94300000Y-101100000D03*
X94300000Y-102500000D03*
X99900000Y-102500000D03*
X99900000Y-101100000D03*
D31*
X42920000Y-88560000D03*
X42920000Y-87160000D03*
X37320000Y-87160000D03*
X37320000Y-88560000D03*
D30*
X72150000Y-143500000D03*
X72150000Y-144900000D03*
X77750000Y-144900000D03*
X77750000Y-143500000D03*
X37400000Y-105800000D03*
X37400000Y-107200000D03*
X43000000Y-107200000D03*
X43000000Y-105800000D03*
D32*
X108800380Y-132410000D03*
X107799620Y-132410000D03*
X59840000Y-138200000D03*
X58839240Y-138200000D03*
D33*
X112455129Y-148693782D03*
X111755129Y-149906218D03*
X116604871Y-152706218D03*
X117304871Y-151493782D03*
D32*
X59870380Y-143410000D03*
X58869620Y-143410000D03*
D31*
X119300000Y-124200000D03*
X119300000Y-122800000D03*
X113700000Y-122800000D03*
X113700000Y-124200000D03*
D30*
X57087500Y-128100000D03*
X57087500Y-129500000D03*
X62687500Y-129500000D03*
X62687500Y-128100000D03*
X75500000Y-99200000D03*
X75500000Y-100600000D03*
X81100000Y-100600000D03*
X81100000Y-99200000D03*
D31*
X100100000Y-121600000D03*
X100100000Y-120200000D03*
X94500000Y-120200000D03*
X94500000Y-121600000D03*
D32*
X108840380Y-128540000D03*
X107839620Y-128540000D03*
X59890380Y-140810000D03*
X58889620Y-140810000D03*
D34*
X31680000Y-133231400D03*
D35*
X34220000Y-133688600D03*
X36760000Y-133231400D03*
X39300000Y-133688600D03*
X41840000Y-133231400D03*
X44380000Y-133688600D03*
X46920000Y-133231400D03*
X49460000Y-133688600D03*
X52000000Y-133231400D03*
X54540000Y-133688600D03*
X57080000Y-133231400D03*
X59620000Y-133688600D03*
X59620000Y-148471400D03*
X57080000Y-148928600D03*
X54540000Y-148471400D03*
X52000000Y-148928600D03*
X49460000Y-148471400D03*
X46920000Y-148928600D03*
X44380000Y-148471400D03*
X41840000Y-148928600D03*
X39300000Y-148471400D03*
X36760000Y-148928600D03*
X34220000Y-148471400D03*
X31680000Y-148928600D03*
D31*
X81112500Y-119400000D03*
X81112500Y-118000000D03*
X75512500Y-118000000D03*
X75512500Y-119400000D03*
X42930000Y-122620000D03*
X42930000Y-121220000D03*
X37330000Y-121220000D03*
X37330000Y-122620000D03*
D30*
X56387500Y-101200000D03*
X56387500Y-102600000D03*
X61987500Y-102600000D03*
X61987500Y-101200000D03*
D31*
X100000000Y-83800000D03*
X100000000Y-82400000D03*
X94400000Y-82400000D03*
X94400000Y-83800000D03*
X61900000Y-83800000D03*
X61900000Y-82400000D03*
X56300000Y-82400000D03*
X56300000Y-83800000D03*
D36*
X91690581Y-146255159D03*
X91328234Y-147607455D03*
X96737419Y-149056841D03*
X97099766Y-147704545D03*
D32*
X59890000Y-145960000D03*
X58889240Y-145960000D03*
D31*
X119200000Y-86220000D03*
X119200000Y-84820000D03*
X113600000Y-84820000D03*
X113600000Y-86220000D03*
X62200000Y-121600000D03*
X62200000Y-120200000D03*
X56600000Y-120200000D03*
X56600000Y-121600000D03*
X80800000Y-81500000D03*
X80800000Y-80100000D03*
X75200000Y-80100000D03*
X75200000Y-81500000D03*
D30*
X113800000Y-104100000D03*
X113800000Y-105500000D03*
X119400000Y-105500000D03*
X119400000Y-104100000D03*
G36*
X123344653Y-145609159D02*
G01*
X123346964Y-145617781D01*
X123347085Y-145617991D01*
X123347278Y-145618449D01*
X123348334Y-145622204D01*
X123581276Y-146218432D01*
X123585678Y-146227086D01*
X123591675Y-146234702D01*
X123601131Y-146244548D01*
X123601275Y-146244716D01*
X123609588Y-146255551D01*
X123616222Y-146262633D01*
X123624112Y-146268287D01*
X125264166Y-147215173D01*
X125265165Y-147216835D01*
X125264285Y-147218563D01*
X125262354Y-147218733D01*
X125262345Y-147218729D01*
X125262157Y-147218633D01*
X123671567Y-146300304D01*
X123541975Y-146395947D01*
X123558992Y-146470504D01*
X123558408Y-146472410D01*
X123556467Y-146472865D01*
X123555097Y-146471416D01*
X123522737Y-146336628D01*
X123429719Y-146112064D01*
X123302720Y-145904821D01*
X123164982Y-145743550D01*
X123164593Y-145741657D01*
X123165988Y-145740319D01*
X123167863Y-145740785D01*
X123193095Y-145764196D01*
X123340720Y-145699790D01*
X123340721Y-145609677D01*
X123341574Y-145608039D01*
X123343405Y-145607798D01*
X123344653Y-145609159D01*
G37*
G36*
X124351737Y-143807876D02*
G01*
X124351716Y-143809839D01*
X123357842Y-145531278D01*
X123356150Y-145532278D01*
X123354419Y-145531346D01*
X123354321Y-145529384D01*
X123354330Y-145529366D01*
X123354387Y-145529260D01*
X123612202Y-145082710D01*
X123421949Y-144954108D01*
X123421087Y-144952720D01*
X123421548Y-144951152D01*
X123472868Y-144891064D01*
X123599867Y-144683821D01*
X123660984Y-144536273D01*
X123662120Y-144535169D01*
X123663702Y-144535237D01*
X123870566Y-144635212D01*
X124348242Y-143807854D01*
X124348310Y-143807745D01*
X124348320Y-143807730D01*
X124350070Y-143806841D01*
X124351737Y-143807876D01*
G37*
G36*
X122898308Y-145371984D02*
G01*
X122899129Y-145373753D01*
X122888658Y-145513453D01*
X122892316Y-145515948D01*
X122893186Y-145517717D01*
X122892115Y-145519373D01*
X122890144Y-145519305D01*
X122752787Y-145435132D01*
X122752536Y-145435028D01*
X122751456Y-145433945D01*
X122751457Y-145432415D01*
X122752539Y-145431333D01*
X122896370Y-145371756D01*
X122898308Y-145371984D01*
G37*
G36*
X121379116Y-145276580D02*
G01*
X121516472Y-145360752D01*
X121516723Y-145360856D01*
X121517805Y-145361939D01*
X121517805Y-145363469D01*
X121516722Y-145364552D01*
X121372891Y-145424128D01*
X121370953Y-145423900D01*
X121370132Y-145422131D01*
X121380600Y-145282430D01*
X121376944Y-145279937D01*
X121376074Y-145278168D01*
X121377145Y-145276512D01*
X121379116Y-145276580D01*
G37*
G36*
X116977167Y-142735024D02*
G01*
X117110006Y-142816427D01*
X117110960Y-142818083D01*
X117110088Y-142819784D01*
X116995072Y-142898203D01*
X116996086Y-142911732D01*
X116995221Y-142913532D01*
X116993229Y-142913685D01*
X116992098Y-142912038D01*
X116980367Y-142762979D01*
X116974177Y-142737196D01*
X116974417Y-142735684D01*
X116975655Y-142734784D01*
X116977167Y-142735024D01*
G37*
G36*
X116278604Y-141533387D02*
G01*
X116290371Y-141682906D01*
X116296561Y-141708689D01*
X116296321Y-141710201D01*
X116295083Y-141711101D01*
X116293571Y-141710861D01*
X116160730Y-141629456D01*
X116159776Y-141627800D01*
X116160648Y-141626099D01*
X116275664Y-141547683D01*
X116274616Y-141533693D01*
X116275481Y-141531893D01*
X116277473Y-141531740D01*
X116278604Y-141533387D01*
G37*
G36*
X101761985Y-140401196D02*
G01*
X101763366Y-140404144D01*
X102142627Y-140919689D01*
X102149114Y-140926903D01*
X102156881Y-140932709D01*
X102168563Y-140939772D01*
X102168746Y-140939897D01*
X102179589Y-140948217D01*
X102187818Y-140953333D01*
X102196903Y-140956753D01*
X103995396Y-141438659D01*
X103996810Y-141440073D01*
X103996292Y-141442005D01*
X103994360Y-141442523D01*
X102251222Y-140975450D01*
X102150358Y-141106899D01*
X102148666Y-141107678D01*
X102147066Y-141106726D01*
X102070741Y-140982175D01*
X101912882Y-140797344D01*
X101728051Y-140639485D01*
X101557002Y-140534666D01*
X101556047Y-140532976D01*
X101556977Y-140531272D01*
X101558915Y-140531159D01*
X101658997Y-140579355D01*
X101781445Y-140470970D01*
X101766328Y-140426416D01*
X101766329Y-140426404D01*
X101758280Y-140402687D01*
X101758623Y-140400782D01*
X101760418Y-140400059D01*
X101761985Y-140401196D01*
G37*
G36*
X99929133Y-140621981D02*
G01*
X99930371Y-140622881D01*
X99930611Y-140624393D01*
X99929711Y-140625631D01*
X99907104Y-140639485D01*
X99788728Y-140740587D01*
X99786787Y-140740960D01*
X99785473Y-140739484D01*
X99786069Y-140737600D01*
X99802774Y-140722100D01*
X99771989Y-140587224D01*
X99772533Y-140585357D01*
X99774406Y-140584834D01*
X99929133Y-140621981D01*
G37*
G36*
X101280318Y-140263694D02*
G01*
X101279722Y-140265578D01*
X101263055Y-140281042D01*
X101293838Y-140415920D01*
X101293294Y-140417787D01*
X101291421Y-140418310D01*
X101136696Y-140381164D01*
X101135458Y-140380264D01*
X101135218Y-140378752D01*
X101136118Y-140377514D01*
X101158725Y-140363660D01*
X101277063Y-140262591D01*
X101279004Y-140262218D01*
X101280318Y-140263694D01*
G37*
G36*
X102262948Y-138391881D02*
G01*
X102263421Y-138393767D01*
X101748955Y-140313778D01*
X101747568Y-140315184D01*
X101745650Y-140314714D01*
X101745071Y-140312826D01*
X101745073Y-140312817D01*
X101745093Y-140312733D01*
X101880311Y-139808089D01*
X101680998Y-139725532D01*
X101639444Y-139797506D01*
X101637799Y-139798504D01*
X101636074Y-139797653D01*
X101635864Y-139795741D01*
X101721432Y-139589163D01*
X101778175Y-139352812D01*
X101789910Y-139203697D01*
X101791041Y-139202050D01*
X101793033Y-139202203D01*
X101793898Y-139204003D01*
X101787151Y-139294045D01*
X102007995Y-139331568D01*
X102259554Y-138392739D01*
X102259613Y-138392555D01*
X102259616Y-138392547D01*
X102261097Y-138391288D01*
X102262948Y-138391881D01*
G37*
G36*
X94862437Y-139268775D02*
G01*
X94862679Y-139268875D01*
X95046634Y-139313039D01*
X95048068Y-139314361D01*
X95047694Y-139316275D01*
X95045869Y-139316962D01*
X95016796Y-139312580D01*
X94928365Y-139407886D01*
X94966647Y-139575613D01*
X94966063Y-139577519D01*
X94964122Y-139577973D01*
X94962752Y-139576525D01*
X94930403Y-139441780D01*
X94859823Y-139271387D01*
X94859823Y-139269856D01*
X94860906Y-139268774D01*
X94862437Y-139268775D01*
G37*
G36*
X79930521Y-138441545D02*
G01*
X79931000Y-138442844D01*
X79931000Y-138902729D01*
X79930176Y-138904347D01*
X79908005Y-138920454D01*
X79906330Y-138920773D01*
X79905018Y-138919685D01*
X79905021Y-138917981D01*
X79927000Y-138871511D01*
X79927000Y-138573697D01*
X79827079Y-138499952D01*
X79734550Y-138528494D01*
X79732646Y-138528091D01*
X79731986Y-138526260D01*
X79733195Y-138524735D01*
X79913230Y-138450162D01*
X79927955Y-138441139D01*
X79929313Y-138440869D01*
X79930521Y-138441545D01*
G37*
G36*
X93835792Y-138139507D02*
G01*
X93868168Y-138274362D01*
X93938748Y-138444755D01*
X93938748Y-138446285D01*
X93937666Y-138447367D01*
X93936136Y-138447368D01*
X93935892Y-138447267D01*
X93751928Y-138403101D01*
X93750494Y-138401779D01*
X93750868Y-138399865D01*
X93752693Y-138399178D01*
X93781774Y-138403561D01*
X93870204Y-138308255D01*
X93831897Y-138140419D01*
X93832481Y-138138513D01*
X93834422Y-138138058D01*
X93835792Y-138139507D01*
G37*
G36*
X80556569Y-137833702D02*
G01*
X80628332Y-137958000D01*
X80628332Y-137960000D01*
X80626600Y-137961000D01*
X80478668Y-137961000D01*
X80477369Y-137960521D01*
X80476693Y-137959313D01*
X80476963Y-137957955D01*
X80553132Y-137833657D01*
X80554863Y-137832702D01*
X80556569Y-137833702D01*
G37*
G36*
X70246867Y-137833656D02*
G01*
X70323038Y-137957955D01*
X70323308Y-137959313D01*
X70322632Y-137960521D01*
X70321333Y-137961000D01*
X70173399Y-137961000D01*
X70171667Y-137960000D01*
X70171667Y-137958000D01*
X70243430Y-137833701D01*
X70245136Y-137832701D01*
X70246867Y-137833656D01*
G37*
G36*
X77939999Y-136078993D02*
G01*
X78026972Y-136072148D01*
X78028428Y-136072621D01*
X78029123Y-136073985D01*
X78028650Y-136075441D01*
X77956836Y-136159526D01*
X77880844Y-136283534D01*
X77879104Y-136284489D01*
X77877398Y-136283474D01*
X77877407Y-136281489D01*
X77923342Y-136201926D01*
X77866931Y-136084788D01*
X77762280Y-136069014D01*
X77760734Y-136067811D01*
X77760957Y-136065864D01*
X77762735Y-136065042D01*
X77939999Y-136078993D01*
G37*
G36*
X73039040Y-136065865D02*
G01*
X73039263Y-136067812D01*
X73037717Y-136069015D01*
X72933067Y-136084788D01*
X72876656Y-136201927D01*
X72922568Y-136281448D01*
X72922577Y-136283433D01*
X72920871Y-136284448D01*
X72919131Y-136283493D01*
X72843163Y-136159525D01*
X72771349Y-136075441D01*
X72770876Y-136073985D01*
X72771571Y-136072621D01*
X72773027Y-136072148D01*
X72860000Y-136078993D01*
X73037262Y-136065043D01*
X73039040Y-136065865D01*
G37*
G36*
X79728519Y-135377909D02*
G01*
X79734826Y-135384216D01*
X79735039Y-135384339D01*
X79735438Y-135384640D01*
X79738236Y-135387370D01*
X80238077Y-135787243D01*
X80246214Y-135792534D01*
X80255221Y-135796134D01*
X80268332Y-135799932D01*
X80268541Y-135800005D01*
X80281155Y-135805230D01*
X80290445Y-135808049D01*
X80300094Y-135809000D01*
X80364811Y-135809000D01*
X80366504Y-135809936D01*
X80366613Y-135811868D01*
X80299002Y-135952263D01*
X80406041Y-136086486D01*
X80406347Y-136088443D01*
X80404819Y-136089703D01*
X80402956Y-136089032D01*
X80305304Y-135974695D01*
X80120473Y-135816836D01*
X79913230Y-135689837D01*
X79688666Y-135596819D01*
X79668832Y-135592057D01*
X79667408Y-135590762D01*
X79667735Y-135588865D01*
X79771009Y-135459364D01*
X79725373Y-135380323D01*
X79725292Y-135378478D01*
X79726758Y-135377353D01*
X79728519Y-135377909D01*
G37*
G36*
X79272572Y-135316572D02*
G01*
X79272563Y-135318557D01*
X79226656Y-135398071D01*
X79283066Y-135515209D01*
X79387740Y-135530986D01*
X79389286Y-135532189D01*
X79389063Y-135534136D01*
X79387285Y-135534958D01*
X79210000Y-135521006D01*
X79123027Y-135527851D01*
X79121571Y-135527378D01*
X79120876Y-135526014D01*
X79121349Y-135524558D01*
X79193163Y-135440473D01*
X79269126Y-135316512D01*
X79270866Y-135315557D01*
X79272572Y-135316572D01*
G37*
G36*
X71530861Y-135316494D02*
G01*
X71606836Y-135440473D01*
X71678650Y-135524557D01*
X71679123Y-135526013D01*
X71678428Y-135527377D01*
X71676972Y-135527850D01*
X71589999Y-135521005D01*
X71412712Y-135534957D01*
X71410934Y-135534135D01*
X71410711Y-135532188D01*
X71412257Y-135530985D01*
X71516931Y-135515208D01*
X71573342Y-135398070D01*
X71527424Y-135318539D01*
X71527415Y-135316554D01*
X71529121Y-135315539D01*
X71530861Y-135316494D01*
G37*
G36*
X79700333Y-134288432D02*
G01*
X79701000Y-134289923D01*
X79701000Y-134770077D01*
X79700333Y-134771568D01*
X79698776Y-134772064D01*
X79478545Y-134747250D01*
X79474488Y-134765023D01*
X79473220Y-134766458D01*
X79471326Y-134766169D01*
X79470544Y-134764421D01*
X79488993Y-134529999D01*
X79470544Y-134295578D01*
X79471326Y-134293830D01*
X79473220Y-134293541D01*
X79474488Y-134294976D01*
X79478545Y-134312749D01*
X79698776Y-134287936D01*
X79700333Y-134288432D01*
G37*
G36*
X115351680Y-132470102D02*
G01*
X115351321Y-132471981D01*
X115282222Y-132556179D01*
X115348825Y-132697000D01*
X115400000Y-132697000D01*
X115401696Y-132697940D01*
X115401798Y-132699877D01*
X115400209Y-132700989D01*
X115213089Y-132720656D01*
X115034348Y-132778732D01*
X114871585Y-132872703D01*
X114751559Y-132980775D01*
X114749699Y-132981220D01*
X114748316Y-132979899D01*
X114748675Y-132978020D01*
X114817777Y-132893820D01*
X114751175Y-132753000D01*
X114700000Y-132753000D01*
X114698304Y-132752060D01*
X114698202Y-132750123D01*
X114699791Y-132749011D01*
X114886910Y-132729343D01*
X115065651Y-132671267D01*
X115228414Y-132577296D01*
X115348437Y-132469226D01*
X115350297Y-132468781D01*
X115351680Y-132470102D01*
G37*
G36*
X114751561Y-128269225D02*
G01*
X114871585Y-128377296D01*
X115034348Y-128471267D01*
X115213089Y-128529343D01*
X115400209Y-128549011D01*
X115401798Y-128550123D01*
X115401696Y-128552060D01*
X115400000Y-128553000D01*
X115348825Y-128553000D01*
X115282222Y-128693820D01*
X115351322Y-128778019D01*
X115351681Y-128779898D01*
X115350298Y-128781219D01*
X115348438Y-128780774D01*
X115228414Y-128672703D01*
X115065651Y-128578732D01*
X114886910Y-128520656D01*
X114699791Y-128500989D01*
X114698202Y-128499877D01*
X114698304Y-128497940D01*
X114700000Y-128497000D01*
X114751175Y-128497000D01*
X114817777Y-128356179D01*
X114748677Y-128271980D01*
X114748318Y-128270101D01*
X114749701Y-128268780D01*
X114751561Y-128269225D01*
G37*
G36*
X118999999Y-115548993D02*
G01*
X119086972Y-115542148D01*
X119088428Y-115542621D01*
X119089123Y-115543985D01*
X119088650Y-115545441D01*
X119016836Y-115629526D01*
X118940844Y-115753534D01*
X118939104Y-115754489D01*
X118937398Y-115753474D01*
X118937407Y-115751489D01*
X118983342Y-115671926D01*
X118926931Y-115554788D01*
X118822280Y-115539014D01*
X118820734Y-115537811D01*
X118820957Y-115535864D01*
X118822735Y-115535042D01*
X118999999Y-115548993D01*
G37*
G36*
X114099040Y-115535865D02*
G01*
X114099263Y-115537812D01*
X114097717Y-115539015D01*
X113993067Y-115554788D01*
X113936656Y-115671927D01*
X113982568Y-115751448D01*
X113982577Y-115753433D01*
X113980871Y-115754448D01*
X113979131Y-115753493D01*
X113903163Y-115629525D01*
X113831349Y-115545441D01*
X113830876Y-115543985D01*
X113831571Y-115542621D01*
X113833027Y-115542148D01*
X113920000Y-115548993D01*
X114097262Y-115535043D01*
X114099040Y-115535865D01*
G37*
G36*
X120788519Y-114847909D02*
G01*
X120794826Y-114854216D01*
X120795039Y-114854339D01*
X120795438Y-114854640D01*
X120798236Y-114857370D01*
X121298077Y-115257243D01*
X121306214Y-115262534D01*
X121315221Y-115266134D01*
X121328332Y-115269932D01*
X121328541Y-115270005D01*
X121341155Y-115275230D01*
X121350445Y-115278049D01*
X121360094Y-115279000D01*
X121424811Y-115279000D01*
X121426504Y-115279936D01*
X121426613Y-115281868D01*
X121359002Y-115422263D01*
X121466041Y-115556486D01*
X121466347Y-115558443D01*
X121464819Y-115559703D01*
X121462956Y-115559032D01*
X121365304Y-115444695D01*
X121180473Y-115286836D01*
X120973230Y-115159837D01*
X120748666Y-115066819D01*
X120728832Y-115062057D01*
X120727408Y-115060762D01*
X120727735Y-115058865D01*
X120831009Y-114929364D01*
X120785373Y-114850323D01*
X120785292Y-114848478D01*
X120786758Y-114847353D01*
X120788519Y-114847909D01*
G37*
G36*
X120332572Y-114786572D02*
G01*
X120332563Y-114788557D01*
X120286656Y-114868071D01*
X120343066Y-114985209D01*
X120447740Y-115000986D01*
X120449286Y-115002189D01*
X120449063Y-115004136D01*
X120447285Y-115004958D01*
X120270000Y-114991006D01*
X120183027Y-114997851D01*
X120181571Y-114997378D01*
X120180876Y-114996014D01*
X120181349Y-114994558D01*
X120253163Y-114910473D01*
X120329126Y-114786512D01*
X120330866Y-114785557D01*
X120332572Y-114786572D01*
G37*
G36*
X112590861Y-114786494D02*
G01*
X112666836Y-114910473D01*
X112738650Y-114994557D01*
X112739123Y-114996013D01*
X112738428Y-114997377D01*
X112736972Y-114997850D01*
X112649999Y-114991005D01*
X112472712Y-115004957D01*
X112470934Y-115004135D01*
X112470711Y-115002188D01*
X112472257Y-115000985D01*
X112576931Y-114985208D01*
X112633342Y-114868070D01*
X112587424Y-114788539D01*
X112587415Y-114786554D01*
X112589121Y-114785539D01*
X112590861Y-114786494D01*
G37*
G36*
X120760333Y-113758432D02*
G01*
X120761000Y-113759923D01*
X120761000Y-114240077D01*
X120760333Y-114241568D01*
X120758776Y-114242064D01*
X120538545Y-114217250D01*
X120534488Y-114235023D01*
X120533220Y-114236458D01*
X120531326Y-114236169D01*
X120530544Y-114234421D01*
X120548993Y-113999999D01*
X120530544Y-113765578D01*
X120531326Y-113763830D01*
X120533220Y-113763541D01*
X120534488Y-113764976D01*
X120538545Y-113782749D01*
X120758776Y-113757936D01*
X120760333Y-113758432D01*
G37*
G36*
X42671999Y-113562993D02*
G01*
X42758972Y-113556148D01*
X42760428Y-113556621D01*
X42761123Y-113557985D01*
X42760650Y-113559441D01*
X42688836Y-113643526D01*
X42612844Y-113767534D01*
X42611104Y-113768489D01*
X42609398Y-113767474D01*
X42609407Y-113765489D01*
X42655342Y-113685926D01*
X42598931Y-113568788D01*
X42494280Y-113553014D01*
X42492734Y-113551811D01*
X42492957Y-113549864D01*
X42494735Y-113549042D01*
X42671999Y-113562993D01*
G37*
G36*
X37771040Y-113549865D02*
G01*
X37771263Y-113551812D01*
X37769717Y-113553015D01*
X37665067Y-113568788D01*
X37608656Y-113685927D01*
X37654568Y-113765448D01*
X37654577Y-113767433D01*
X37652871Y-113768448D01*
X37651131Y-113767493D01*
X37575163Y-113643525D01*
X37503349Y-113559441D01*
X37502876Y-113557985D01*
X37503571Y-113556621D01*
X37505027Y-113556148D01*
X37592000Y-113562993D01*
X37769262Y-113549043D01*
X37771040Y-113549865D01*
G37*
G36*
X44460519Y-112861909D02*
G01*
X44466826Y-112868216D01*
X44467039Y-112868339D01*
X44467438Y-112868640D01*
X44470236Y-112871370D01*
X44970077Y-113271243D01*
X44978214Y-113276534D01*
X44987221Y-113280134D01*
X45000332Y-113283932D01*
X45000541Y-113284005D01*
X45013155Y-113289230D01*
X45022445Y-113292049D01*
X45032094Y-113293000D01*
X45096811Y-113293000D01*
X45098504Y-113293936D01*
X45098613Y-113295868D01*
X45031002Y-113436263D01*
X45138041Y-113570486D01*
X45138347Y-113572443D01*
X45136819Y-113573703D01*
X45134956Y-113573032D01*
X45037304Y-113458695D01*
X44852473Y-113300836D01*
X44645230Y-113173837D01*
X44420666Y-113080819D01*
X44400832Y-113076057D01*
X44399408Y-113074762D01*
X44399735Y-113072865D01*
X44503009Y-112943364D01*
X44457373Y-112864323D01*
X44457292Y-112862478D01*
X44458758Y-112861353D01*
X44460519Y-112861909D01*
G37*
G36*
X44004572Y-112800572D02*
G01*
X44004563Y-112802557D01*
X43958656Y-112882071D01*
X44015066Y-112999209D01*
X44119740Y-113014986D01*
X44121286Y-113016189D01*
X44121063Y-113018136D01*
X44119285Y-113018958D01*
X43942000Y-113005006D01*
X43855027Y-113011851D01*
X43853571Y-113011378D01*
X43852876Y-113010014D01*
X43853349Y-113008558D01*
X43925163Y-112924473D01*
X44001126Y-112800512D01*
X44002866Y-112799557D01*
X44004572Y-112800572D01*
G37*
G36*
X36262861Y-112800494D02*
G01*
X36338836Y-112924473D01*
X36410650Y-113008557D01*
X36411123Y-113010013D01*
X36410428Y-113011377D01*
X36408972Y-113011850D01*
X36321999Y-113005005D01*
X36144712Y-113018957D01*
X36142934Y-113018135D01*
X36142711Y-113016188D01*
X36144257Y-113014985D01*
X36248931Y-112999208D01*
X36305342Y-112882070D01*
X36259424Y-112802539D01*
X36259415Y-112800554D01*
X36261121Y-112799539D01*
X36262861Y-112800494D01*
G37*
G36*
X99749999Y-112798993D02*
G01*
X99836972Y-112792148D01*
X99838428Y-112792621D01*
X99839123Y-112793985D01*
X99838650Y-112795441D01*
X99766836Y-112879526D01*
X99690844Y-113003534D01*
X99689104Y-113004489D01*
X99687398Y-113003474D01*
X99687407Y-113001489D01*
X99733342Y-112921926D01*
X99676931Y-112804788D01*
X99572280Y-112789014D01*
X99570734Y-112787811D01*
X99570957Y-112785864D01*
X99572735Y-112785042D01*
X99749999Y-112798993D01*
G37*
G36*
X94849040Y-112785865D02*
G01*
X94849263Y-112787812D01*
X94847717Y-112789015D01*
X94743067Y-112804788D01*
X94686656Y-112921927D01*
X94732568Y-113001448D01*
X94732577Y-113003433D01*
X94730871Y-113004448D01*
X94729131Y-113003493D01*
X94653163Y-112879525D01*
X94581349Y-112795441D01*
X94580876Y-112793985D01*
X94581571Y-112792621D01*
X94583027Y-112792148D01*
X94670000Y-112798993D01*
X94847262Y-112785043D01*
X94849040Y-112785865D01*
G37*
G36*
X61849999Y-112758994D02*
G01*
X61936972Y-112752149D01*
X61938428Y-112752622D01*
X61939123Y-112753986D01*
X61938650Y-112755442D01*
X61866836Y-112839527D01*
X61790844Y-112963535D01*
X61789104Y-112964490D01*
X61787398Y-112963475D01*
X61787407Y-112961490D01*
X61833342Y-112881927D01*
X61776931Y-112764789D01*
X61672280Y-112749015D01*
X61670734Y-112747812D01*
X61670957Y-112745865D01*
X61672735Y-112745043D01*
X61849999Y-112758994D01*
G37*
G36*
X56949040Y-112745866D02*
G01*
X56949263Y-112747813D01*
X56947717Y-112749016D01*
X56843067Y-112764789D01*
X56786656Y-112881928D01*
X56832568Y-112961449D01*
X56832577Y-112963434D01*
X56830871Y-112964449D01*
X56829131Y-112963494D01*
X56753163Y-112839526D01*
X56681349Y-112755442D01*
X56680876Y-112753986D01*
X56681571Y-112752622D01*
X56683027Y-112752149D01*
X56770000Y-112758994D01*
X56947262Y-112745044D01*
X56949040Y-112745866D01*
G37*
G36*
X101538519Y-112097909D02*
G01*
X101544826Y-112104216D01*
X101545039Y-112104339D01*
X101545438Y-112104640D01*
X101548236Y-112107370D01*
X102048077Y-112507243D01*
X102056214Y-112512534D01*
X102065221Y-112516134D01*
X102078332Y-112519932D01*
X102078541Y-112520005D01*
X102091155Y-112525230D01*
X102100445Y-112528049D01*
X102110094Y-112529000D01*
X102174811Y-112529000D01*
X102176504Y-112529936D01*
X102176613Y-112531868D01*
X102109002Y-112672263D01*
X102216041Y-112806486D01*
X102216347Y-112808443D01*
X102214819Y-112809703D01*
X102212956Y-112809032D01*
X102115304Y-112694695D01*
X101930473Y-112536836D01*
X101723230Y-112409837D01*
X101498666Y-112316819D01*
X101478832Y-112312057D01*
X101477408Y-112310762D01*
X101477735Y-112308865D01*
X101581009Y-112179364D01*
X101535373Y-112100323D01*
X101535292Y-112098478D01*
X101536758Y-112097353D01*
X101538519Y-112097909D01*
G37*
G36*
X63638519Y-112057910D02*
G01*
X63644826Y-112064217D01*
X63645039Y-112064340D01*
X63645438Y-112064641D01*
X63648236Y-112067371D01*
X64148077Y-112467244D01*
X64156214Y-112472535D01*
X64165221Y-112476135D01*
X64178332Y-112479933D01*
X64178541Y-112480006D01*
X64191155Y-112485231D01*
X64200445Y-112488050D01*
X64210094Y-112489001D01*
X64274811Y-112489001D01*
X64276504Y-112489937D01*
X64276613Y-112491869D01*
X64209002Y-112632264D01*
X64316041Y-112766487D01*
X64316347Y-112768444D01*
X64314819Y-112769704D01*
X64312956Y-112769033D01*
X64215304Y-112654696D01*
X64030473Y-112496837D01*
X63823230Y-112369838D01*
X63598666Y-112276820D01*
X63578832Y-112272058D01*
X63577408Y-112270763D01*
X63577735Y-112268866D01*
X63681009Y-112139365D01*
X63635373Y-112060324D01*
X63635292Y-112058479D01*
X63636758Y-112057354D01*
X63638519Y-112057910D01*
G37*
G36*
X44432333Y-111772432D02*
G01*
X44433000Y-111773923D01*
X44433000Y-112254077D01*
X44432333Y-112255568D01*
X44430776Y-112256064D01*
X44210545Y-112231250D01*
X44206488Y-112249023D01*
X44205220Y-112250458D01*
X44203326Y-112250169D01*
X44202544Y-112248421D01*
X44220993Y-112013999D01*
X44202544Y-111779578D01*
X44203326Y-111777830D01*
X44205220Y-111777541D01*
X44206488Y-111778976D01*
X44210545Y-111796749D01*
X44430776Y-111771936D01*
X44432333Y-111772432D01*
G37*
G36*
X101082572Y-112036572D02*
G01*
X101082563Y-112038557D01*
X101036656Y-112118071D01*
X101093066Y-112235209D01*
X101197740Y-112250986D01*
X101199286Y-112252189D01*
X101199063Y-112254136D01*
X101197285Y-112254958D01*
X101020000Y-112241006D01*
X100933027Y-112247851D01*
X100931571Y-112247378D01*
X100930876Y-112246014D01*
X100931349Y-112244558D01*
X101003163Y-112160473D01*
X101079126Y-112036512D01*
X101080866Y-112035557D01*
X101082572Y-112036572D01*
G37*
G36*
X93340861Y-112036494D02*
G01*
X93416836Y-112160473D01*
X93488650Y-112244557D01*
X93489123Y-112246013D01*
X93488428Y-112247377D01*
X93486972Y-112247850D01*
X93399999Y-112241005D01*
X93222712Y-112254957D01*
X93220934Y-112254135D01*
X93220711Y-112252188D01*
X93222257Y-112250985D01*
X93326931Y-112235208D01*
X93383342Y-112118070D01*
X93337424Y-112038539D01*
X93337415Y-112036554D01*
X93339121Y-112035539D01*
X93340861Y-112036494D01*
G37*
G36*
X63182572Y-111996573D02*
G01*
X63182563Y-111998558D01*
X63136656Y-112078072D01*
X63193066Y-112195210D01*
X63297740Y-112210987D01*
X63299286Y-112212190D01*
X63299063Y-112214137D01*
X63297285Y-112214959D01*
X63120000Y-112201007D01*
X63033027Y-112207852D01*
X63031571Y-112207379D01*
X63030876Y-112206015D01*
X63031349Y-112204559D01*
X63103163Y-112120474D01*
X63179126Y-111996513D01*
X63180866Y-111995558D01*
X63182572Y-111996573D01*
G37*
G36*
X55440861Y-111996495D02*
G01*
X55516836Y-112120474D01*
X55588650Y-112204558D01*
X55589123Y-112206014D01*
X55588428Y-112207378D01*
X55586972Y-112207851D01*
X55499999Y-112201006D01*
X55322712Y-112214958D01*
X55320934Y-112214136D01*
X55320711Y-112212189D01*
X55322257Y-112210986D01*
X55426931Y-112195209D01*
X55483342Y-112078071D01*
X55437424Y-111998540D01*
X55437415Y-111996555D01*
X55439121Y-111995540D01*
X55440861Y-111996495D01*
G37*
G36*
X101510333Y-111008432D02*
G01*
X101511000Y-111009923D01*
X101511000Y-111490077D01*
X101510333Y-111491568D01*
X101508776Y-111492064D01*
X101288545Y-111467250D01*
X101284488Y-111485023D01*
X101283220Y-111486458D01*
X101281326Y-111486169D01*
X101280544Y-111484421D01*
X101298993Y-111249999D01*
X101280544Y-111015578D01*
X101281326Y-111013830D01*
X101283220Y-111013541D01*
X101284488Y-111014976D01*
X101288545Y-111032749D01*
X101508776Y-111007936D01*
X101510333Y-111008432D01*
G37*
G36*
X63610333Y-110968433D02*
G01*
X63611000Y-110969924D01*
X63611000Y-111450078D01*
X63610333Y-111451569D01*
X63608776Y-111452065D01*
X63388545Y-111427251D01*
X63384488Y-111445024D01*
X63383220Y-111446459D01*
X63381326Y-111446170D01*
X63380544Y-111444422D01*
X63398993Y-111210000D01*
X63380544Y-110975579D01*
X63381326Y-110973831D01*
X63383220Y-110973542D01*
X63384488Y-110974977D01*
X63388545Y-110992750D01*
X63608776Y-110967937D01*
X63610333Y-110968433D01*
G37*
G36*
X80829999Y-110548993D02*
G01*
X80916972Y-110542148D01*
X80918428Y-110542621D01*
X80919123Y-110543985D01*
X80918650Y-110545441D01*
X80846836Y-110629526D01*
X80770844Y-110753534D01*
X80769104Y-110754489D01*
X80767398Y-110753474D01*
X80767407Y-110751489D01*
X80813342Y-110671926D01*
X80756931Y-110554788D01*
X80652280Y-110539014D01*
X80650734Y-110537811D01*
X80650957Y-110535864D01*
X80652735Y-110535042D01*
X80829999Y-110548993D01*
G37*
G36*
X75929040Y-110535865D02*
G01*
X75929263Y-110537812D01*
X75927717Y-110539015D01*
X75823067Y-110554788D01*
X75766656Y-110671927D01*
X75812568Y-110751448D01*
X75812577Y-110753433D01*
X75810871Y-110754448D01*
X75809131Y-110753493D01*
X75733163Y-110629525D01*
X75661349Y-110545441D01*
X75660876Y-110543985D01*
X75661571Y-110542621D01*
X75663027Y-110542148D01*
X75750000Y-110548993D01*
X75927262Y-110535043D01*
X75929040Y-110535865D01*
G37*
G36*
X82618519Y-109847909D02*
G01*
X82624826Y-109854216D01*
X82625039Y-109854339D01*
X82625438Y-109854640D01*
X82628236Y-109857370D01*
X83128077Y-110257243D01*
X83136214Y-110262534D01*
X83145221Y-110266134D01*
X83158332Y-110269932D01*
X83158541Y-110270005D01*
X83171155Y-110275230D01*
X83180445Y-110278049D01*
X83190094Y-110279000D01*
X83254811Y-110279000D01*
X83256504Y-110279936D01*
X83256613Y-110281868D01*
X83189002Y-110422263D01*
X83296041Y-110556486D01*
X83296347Y-110558443D01*
X83294819Y-110559703D01*
X83292956Y-110559032D01*
X83195304Y-110444695D01*
X83010473Y-110286836D01*
X82803230Y-110159837D01*
X82578666Y-110066819D01*
X82558832Y-110062057D01*
X82557408Y-110060762D01*
X82557735Y-110058865D01*
X82661009Y-109929364D01*
X82615373Y-109850323D01*
X82615292Y-109848478D01*
X82616758Y-109847353D01*
X82618519Y-109847909D01*
G37*
G36*
X82162572Y-109786572D02*
G01*
X82162563Y-109788557D01*
X82116656Y-109868071D01*
X82173066Y-109985209D01*
X82277740Y-110000986D01*
X82279286Y-110002189D01*
X82279063Y-110004136D01*
X82277285Y-110004958D01*
X82100000Y-109991006D01*
X82013027Y-109997851D01*
X82011571Y-109997378D01*
X82010876Y-109996014D01*
X82011349Y-109994558D01*
X82083163Y-109910473D01*
X82159126Y-109786512D01*
X82160866Y-109785557D01*
X82162572Y-109786572D01*
G37*
G36*
X74420861Y-109786494D02*
G01*
X74496836Y-109910473D01*
X74568650Y-109994557D01*
X74569123Y-109996013D01*
X74568428Y-109997377D01*
X74566972Y-109997850D01*
X74479999Y-109991005D01*
X74302712Y-110004957D01*
X74300934Y-110004135D01*
X74300711Y-110002188D01*
X74302257Y-110000985D01*
X74406931Y-109985208D01*
X74463342Y-109868070D01*
X74417424Y-109788539D01*
X74417415Y-109786554D01*
X74419121Y-109785539D01*
X74420861Y-109786494D01*
G37*
G36*
X82590333Y-108758432D02*
G01*
X82591000Y-108759923D01*
X82591000Y-109240077D01*
X82590333Y-109241568D01*
X82588776Y-109242064D01*
X82368545Y-109217250D01*
X82364488Y-109235023D01*
X82363220Y-109236458D01*
X82361326Y-109236169D01*
X82360544Y-109234421D01*
X82378993Y-108999999D01*
X82360544Y-108765578D01*
X82361326Y-108763830D01*
X82363220Y-108763541D01*
X82364488Y-108764976D01*
X82368545Y-108782749D01*
X82588776Y-108757936D01*
X82590333Y-108758432D01*
G37*
G36*
X42671999Y-98568993D02*
G01*
X42758972Y-98562148D01*
X42760428Y-98562621D01*
X42761123Y-98563985D01*
X42760650Y-98565441D01*
X42688836Y-98649526D01*
X42612844Y-98773534D01*
X42611104Y-98774489D01*
X42609398Y-98773474D01*
X42609407Y-98771489D01*
X42655342Y-98691926D01*
X42598931Y-98574788D01*
X42494280Y-98559014D01*
X42492734Y-98557811D01*
X42492957Y-98555864D01*
X42494735Y-98555042D01*
X42671999Y-98568993D01*
G37*
G36*
X37771040Y-98555865D02*
G01*
X37771263Y-98557812D01*
X37769717Y-98559015D01*
X37665067Y-98574788D01*
X37608656Y-98691927D01*
X37654568Y-98771448D01*
X37654577Y-98773433D01*
X37652871Y-98774448D01*
X37651131Y-98773493D01*
X37575163Y-98649525D01*
X37503349Y-98565441D01*
X37502876Y-98563985D01*
X37503571Y-98562621D01*
X37505027Y-98562148D01*
X37592000Y-98568993D01*
X37769262Y-98555043D01*
X37771040Y-98555865D01*
G37*
G36*
X44460519Y-97867909D02*
G01*
X44466826Y-97874216D01*
X44467039Y-97874339D01*
X44467438Y-97874640D01*
X44470236Y-97877370D01*
X44970077Y-98277243D01*
X44978214Y-98282534D01*
X44987221Y-98286134D01*
X45000332Y-98289932D01*
X45000541Y-98290005D01*
X45013155Y-98295230D01*
X45022445Y-98298049D01*
X45032094Y-98299000D01*
X45096811Y-98299000D01*
X45098504Y-98299936D01*
X45098613Y-98301868D01*
X45031002Y-98442263D01*
X45138041Y-98576486D01*
X45138347Y-98578443D01*
X45136819Y-98579703D01*
X45134956Y-98579032D01*
X45037304Y-98464695D01*
X44852473Y-98306836D01*
X44645230Y-98179837D01*
X44420666Y-98086819D01*
X44400832Y-98082057D01*
X44399408Y-98080762D01*
X44399735Y-98078865D01*
X44503009Y-97949364D01*
X44457373Y-97870323D01*
X44457292Y-97868478D01*
X44458758Y-97867353D01*
X44460519Y-97867909D01*
G37*
G36*
X44004572Y-97806572D02*
G01*
X44004563Y-97808557D01*
X43958656Y-97888071D01*
X44015066Y-98005209D01*
X44119740Y-98020986D01*
X44121286Y-98022189D01*
X44121063Y-98024136D01*
X44119285Y-98024958D01*
X43942000Y-98011006D01*
X43855027Y-98017851D01*
X43853571Y-98017378D01*
X43852876Y-98016014D01*
X43853349Y-98014558D01*
X43925163Y-97930473D01*
X44001126Y-97806512D01*
X44002866Y-97805557D01*
X44004572Y-97806572D01*
G37*
G36*
X36262861Y-97806494D02*
G01*
X36338836Y-97930473D01*
X36410650Y-98014557D01*
X36411123Y-98016013D01*
X36410428Y-98017377D01*
X36408972Y-98017850D01*
X36321999Y-98011005D01*
X36144712Y-98024957D01*
X36142934Y-98024135D01*
X36142711Y-98022188D01*
X36144257Y-98020985D01*
X36248931Y-98005208D01*
X36305342Y-97888070D01*
X36259424Y-97808539D01*
X36259415Y-97806554D01*
X36261121Y-97805539D01*
X36262861Y-97806494D01*
G37*
G36*
X44432333Y-96778432D02*
G01*
X44433000Y-96779923D01*
X44433000Y-97260077D01*
X44432333Y-97261568D01*
X44430776Y-97262064D01*
X44210545Y-97237250D01*
X44206488Y-97255023D01*
X44205220Y-97256458D01*
X44203326Y-97256169D01*
X44202544Y-97254421D01*
X44220993Y-97019999D01*
X44202544Y-96785578D01*
X44203326Y-96783830D01*
X44205220Y-96783541D01*
X44206488Y-96784976D01*
X44210545Y-96802749D01*
X44430776Y-96777936D01*
X44432333Y-96778432D01*
G37*
G36*
X118999999Y-96548993D02*
G01*
X119086972Y-96542148D01*
X119088428Y-96542621D01*
X119089123Y-96543985D01*
X119088650Y-96545441D01*
X119016836Y-96629526D01*
X118940844Y-96753534D01*
X118939104Y-96754489D01*
X118937398Y-96753474D01*
X118937407Y-96751489D01*
X118983342Y-96671926D01*
X118926931Y-96554788D01*
X118822280Y-96539014D01*
X118820734Y-96537811D01*
X118820957Y-96535864D01*
X118822735Y-96535042D01*
X118999999Y-96548993D01*
G37*
G36*
X114099040Y-96535865D02*
G01*
X114099263Y-96537812D01*
X114097717Y-96539015D01*
X113993067Y-96554788D01*
X113936656Y-96671927D01*
X113982568Y-96751448D01*
X113982577Y-96753433D01*
X113980871Y-96754448D01*
X113979131Y-96753493D01*
X113903163Y-96629525D01*
X113831349Y-96545441D01*
X113830876Y-96543985D01*
X113831571Y-96542621D01*
X113833027Y-96542148D01*
X113920000Y-96548993D01*
X114097262Y-96535043D01*
X114099040Y-96535865D01*
G37*
G36*
X120788519Y-95847909D02*
G01*
X120794826Y-95854216D01*
X120795039Y-95854339D01*
X120795438Y-95854640D01*
X120798236Y-95857370D01*
X121298077Y-96257243D01*
X121306214Y-96262534D01*
X121315221Y-96266134D01*
X121328332Y-96269932D01*
X121328541Y-96270005D01*
X121341155Y-96275230D01*
X121350445Y-96278049D01*
X121360094Y-96279000D01*
X121424811Y-96279000D01*
X121426504Y-96279936D01*
X121426613Y-96281868D01*
X121359002Y-96422263D01*
X121466041Y-96556486D01*
X121466347Y-96558443D01*
X121464819Y-96559703D01*
X121462956Y-96559032D01*
X121365304Y-96444695D01*
X121180473Y-96286836D01*
X120973230Y-96159837D01*
X120748666Y-96066819D01*
X120728832Y-96062057D01*
X120727408Y-96060762D01*
X120727735Y-96058865D01*
X120831009Y-95929364D01*
X120785373Y-95850323D01*
X120785292Y-95848478D01*
X120786758Y-95847353D01*
X120788519Y-95847909D01*
G37*
G36*
X120332572Y-95786572D02*
G01*
X120332563Y-95788557D01*
X120286656Y-95868071D01*
X120343066Y-95985209D01*
X120447740Y-96000986D01*
X120449286Y-96002189D01*
X120449063Y-96004136D01*
X120447285Y-96004958D01*
X120270000Y-95991006D01*
X120183027Y-95997851D01*
X120181571Y-95997378D01*
X120180876Y-95996014D01*
X120181349Y-95994558D01*
X120253163Y-95910473D01*
X120329126Y-95786512D01*
X120330866Y-95785557D01*
X120332572Y-95786572D01*
G37*
G36*
X112590861Y-95786494D02*
G01*
X112666836Y-95910473D01*
X112738650Y-95994557D01*
X112739123Y-95996013D01*
X112738428Y-95997377D01*
X112736972Y-95997850D01*
X112649999Y-95991005D01*
X112472712Y-96004957D01*
X112470934Y-96004135D01*
X112470711Y-96002188D01*
X112472257Y-96000985D01*
X112576931Y-95985208D01*
X112633342Y-95868070D01*
X112587424Y-95788539D01*
X112587415Y-95786554D01*
X112589121Y-95785539D01*
X112590861Y-95786494D01*
G37*
G36*
X120760333Y-94758432D02*
G01*
X120761000Y-94759923D01*
X120761000Y-95240077D01*
X120760333Y-95241568D01*
X120758776Y-95242064D01*
X120538545Y-95217250D01*
X120534488Y-95235023D01*
X120533220Y-95236458D01*
X120531326Y-95236169D01*
X120530544Y-95234421D01*
X120548993Y-94999999D01*
X120530544Y-94765578D01*
X120531326Y-94763830D01*
X120533220Y-94763541D01*
X120534488Y-94764976D01*
X120538545Y-94782749D01*
X120758776Y-94757936D01*
X120760333Y-94758432D01*
G37*
G36*
X61789999Y-93758994D02*
G01*
X61876972Y-93752149D01*
X61878428Y-93752622D01*
X61879123Y-93753986D01*
X61878650Y-93755442D01*
X61806836Y-93839527D01*
X61730844Y-93963535D01*
X61729104Y-93964490D01*
X61727398Y-93963475D01*
X61727407Y-93961490D01*
X61773342Y-93881927D01*
X61716931Y-93764789D01*
X61612280Y-93749015D01*
X61610734Y-93747812D01*
X61610957Y-93745865D01*
X61612735Y-93745043D01*
X61789999Y-93758994D01*
G37*
G36*
X56889040Y-93745866D02*
G01*
X56889263Y-93747813D01*
X56887717Y-93749016D01*
X56783067Y-93764789D01*
X56726656Y-93881928D01*
X56772568Y-93961449D01*
X56772577Y-93963434D01*
X56770871Y-93964449D01*
X56769131Y-93963494D01*
X56693163Y-93839526D01*
X56621349Y-93755442D01*
X56620876Y-93753986D01*
X56621571Y-93752622D01*
X56623027Y-93752149D01*
X56710000Y-93758994D01*
X56887262Y-93745044D01*
X56889040Y-93745866D01*
G37*
G36*
X99789999Y-93718993D02*
G01*
X99876972Y-93712148D01*
X99878428Y-93712621D01*
X99879123Y-93713985D01*
X99878650Y-93715441D01*
X99806836Y-93799526D01*
X99730844Y-93923534D01*
X99729104Y-93924489D01*
X99727398Y-93923474D01*
X99727407Y-93921489D01*
X99773342Y-93841926D01*
X99716931Y-93724788D01*
X99612280Y-93709014D01*
X99610734Y-93707811D01*
X99610957Y-93705864D01*
X99612735Y-93705042D01*
X99789999Y-93718993D01*
G37*
G36*
X94889040Y-93705865D02*
G01*
X94889263Y-93707812D01*
X94887717Y-93709015D01*
X94783067Y-93724788D01*
X94726656Y-93841927D01*
X94772568Y-93921448D01*
X94772577Y-93923433D01*
X94770871Y-93924448D01*
X94769131Y-93923493D01*
X94693163Y-93799525D01*
X94621349Y-93715441D01*
X94620876Y-93713985D01*
X94621571Y-93712621D01*
X94623027Y-93712148D01*
X94710000Y-93718993D01*
X94887262Y-93705043D01*
X94889040Y-93705865D01*
G37*
G36*
X63578519Y-93057910D02*
G01*
X63584826Y-93064217D01*
X63585039Y-93064340D01*
X63585438Y-93064641D01*
X63588236Y-93067371D01*
X64088077Y-93467244D01*
X64096214Y-93472535D01*
X64105221Y-93476135D01*
X64118332Y-93479933D01*
X64118541Y-93480006D01*
X64131155Y-93485231D01*
X64140445Y-93488050D01*
X64150094Y-93489001D01*
X64214811Y-93489001D01*
X64216504Y-93489937D01*
X64216613Y-93491869D01*
X64149002Y-93632264D01*
X64256041Y-93766487D01*
X64256347Y-93768444D01*
X64254819Y-93769704D01*
X64252956Y-93769033D01*
X64155304Y-93654696D01*
X63970473Y-93496837D01*
X63763230Y-93369838D01*
X63538666Y-93276820D01*
X63518832Y-93272058D01*
X63517408Y-93270763D01*
X63517735Y-93268866D01*
X63621009Y-93139365D01*
X63575373Y-93060324D01*
X63575292Y-93058479D01*
X63576758Y-93057354D01*
X63578519Y-93057910D01*
G37*
G36*
X101578519Y-93017909D02*
G01*
X101584826Y-93024216D01*
X101585039Y-93024339D01*
X101585438Y-93024640D01*
X101588236Y-93027370D01*
X102088077Y-93427243D01*
X102096214Y-93432534D01*
X102105221Y-93436134D01*
X102118332Y-93439932D01*
X102118541Y-93440005D01*
X102131155Y-93445230D01*
X102140445Y-93448049D01*
X102150094Y-93449000D01*
X102214811Y-93449000D01*
X102216504Y-93449936D01*
X102216613Y-93451868D01*
X102149002Y-93592263D01*
X102256041Y-93726486D01*
X102256347Y-93728443D01*
X102254819Y-93729703D01*
X102252956Y-93729032D01*
X102155304Y-93614695D01*
X101970473Y-93456836D01*
X101763230Y-93329837D01*
X101538666Y-93236819D01*
X101518832Y-93232057D01*
X101517408Y-93230762D01*
X101517735Y-93228865D01*
X101621009Y-93099364D01*
X101575373Y-93020323D01*
X101575292Y-93018478D01*
X101576758Y-93017353D01*
X101578519Y-93017909D01*
G37*
G36*
X63122572Y-92996573D02*
G01*
X63122563Y-92998558D01*
X63076656Y-93078072D01*
X63133066Y-93195210D01*
X63237740Y-93210987D01*
X63239286Y-93212190D01*
X63239063Y-93214137D01*
X63237285Y-93214959D01*
X63060000Y-93201007D01*
X62973027Y-93207852D01*
X62971571Y-93207379D01*
X62970876Y-93206015D01*
X62971349Y-93204559D01*
X63043163Y-93120474D01*
X63119126Y-92996513D01*
X63120866Y-92995558D01*
X63122572Y-92996573D01*
G37*
G36*
X55380861Y-92996495D02*
G01*
X55456836Y-93120474D01*
X55528650Y-93204558D01*
X55529123Y-93206014D01*
X55528428Y-93207378D01*
X55526972Y-93207851D01*
X55439999Y-93201006D01*
X55262712Y-93214958D01*
X55260934Y-93214136D01*
X55260711Y-93212189D01*
X55262257Y-93210986D01*
X55366931Y-93195209D01*
X55423342Y-93078071D01*
X55377424Y-92998540D01*
X55377415Y-92996555D01*
X55379121Y-92995540D01*
X55380861Y-92996495D01*
G37*
G36*
X101122572Y-92956572D02*
G01*
X101122563Y-92958557D01*
X101076656Y-93038071D01*
X101133066Y-93155209D01*
X101237740Y-93170986D01*
X101239286Y-93172189D01*
X101239063Y-93174136D01*
X101237285Y-93174958D01*
X101060000Y-93161006D01*
X100973027Y-93167851D01*
X100971571Y-93167378D01*
X100970876Y-93166014D01*
X100971349Y-93164558D01*
X101043163Y-93080473D01*
X101119126Y-92956512D01*
X101120866Y-92955557D01*
X101122572Y-92956572D01*
G37*
G36*
X93380861Y-92956494D02*
G01*
X93456836Y-93080473D01*
X93528650Y-93164557D01*
X93529123Y-93166013D01*
X93528428Y-93167377D01*
X93526972Y-93167850D01*
X93439999Y-93161005D01*
X93262712Y-93174957D01*
X93260934Y-93174135D01*
X93260711Y-93172188D01*
X93262257Y-93170985D01*
X93366931Y-93155208D01*
X93423342Y-93038070D01*
X93377424Y-92958539D01*
X93377415Y-92956554D01*
X93379121Y-92955539D01*
X93380861Y-92956494D01*
G37*
G36*
X63550333Y-91968433D02*
G01*
X63551000Y-91969924D01*
X63551000Y-92450078D01*
X63550333Y-92451569D01*
X63548776Y-92452065D01*
X63328545Y-92427251D01*
X63324488Y-92445024D01*
X63323220Y-92446459D01*
X63321326Y-92446170D01*
X63320544Y-92444422D01*
X63338993Y-92210000D01*
X63320544Y-91975579D01*
X63321326Y-91973831D01*
X63323220Y-91973542D01*
X63324488Y-91974977D01*
X63328545Y-91992750D01*
X63548776Y-91967937D01*
X63550333Y-91968433D01*
G37*
G36*
X101550333Y-91928432D02*
G01*
X101551000Y-91929923D01*
X101551000Y-92410077D01*
X101550333Y-92411568D01*
X101548776Y-92412064D01*
X101328545Y-92387250D01*
X101324488Y-92405023D01*
X101323220Y-92406458D01*
X101321326Y-92406169D01*
X101320544Y-92404421D01*
X101338993Y-92169999D01*
X101320544Y-91935578D01*
X101321326Y-91933830D01*
X101323220Y-91933541D01*
X101324488Y-91934976D01*
X101328545Y-91952749D01*
X101548776Y-91927936D01*
X101550333Y-91928432D01*
G37*
G36*
X80789999Y-91468993D02*
G01*
X80876972Y-91462148D01*
X80878428Y-91462621D01*
X80879123Y-91463985D01*
X80878650Y-91465441D01*
X80806836Y-91549526D01*
X80730844Y-91673534D01*
X80729104Y-91674489D01*
X80727398Y-91673474D01*
X80727407Y-91671489D01*
X80773342Y-91591926D01*
X80716931Y-91474788D01*
X80612280Y-91459014D01*
X80610734Y-91457811D01*
X80610957Y-91455864D01*
X80612735Y-91455042D01*
X80789999Y-91468993D01*
G37*
G36*
X75889040Y-91455865D02*
G01*
X75889263Y-91457812D01*
X75887717Y-91459015D01*
X75783067Y-91474788D01*
X75726656Y-91591927D01*
X75772568Y-91671448D01*
X75772577Y-91673433D01*
X75770871Y-91674448D01*
X75769131Y-91673493D01*
X75693163Y-91549525D01*
X75621349Y-91465441D01*
X75620876Y-91463985D01*
X75621571Y-91462621D01*
X75623027Y-91462148D01*
X75710000Y-91468993D01*
X75887262Y-91455043D01*
X75889040Y-91455865D01*
G37*
G36*
X82578519Y-90767909D02*
G01*
X82584826Y-90774216D01*
X82585039Y-90774339D01*
X82585438Y-90774640D01*
X82588236Y-90777370D01*
X83088077Y-91177243D01*
X83096214Y-91182534D01*
X83105221Y-91186134D01*
X83118332Y-91189932D01*
X83118541Y-91190005D01*
X83131155Y-91195230D01*
X83140445Y-91198049D01*
X83150094Y-91199000D01*
X83214811Y-91199000D01*
X83216504Y-91199936D01*
X83216613Y-91201868D01*
X83149002Y-91342263D01*
X83256041Y-91476486D01*
X83256347Y-91478443D01*
X83254819Y-91479703D01*
X83252956Y-91479032D01*
X83155304Y-91364695D01*
X82970473Y-91206836D01*
X82763230Y-91079837D01*
X82538666Y-90986819D01*
X82518832Y-90982057D01*
X82517408Y-90980762D01*
X82517735Y-90978865D01*
X82621009Y-90849364D01*
X82575373Y-90770323D01*
X82575292Y-90768478D01*
X82576758Y-90767353D01*
X82578519Y-90767909D01*
G37*
G36*
X82122572Y-90706572D02*
G01*
X82122563Y-90708557D01*
X82076656Y-90788071D01*
X82133066Y-90905209D01*
X82237740Y-90920986D01*
X82239286Y-90922189D01*
X82239063Y-90924136D01*
X82237285Y-90924958D01*
X82060000Y-90911006D01*
X81973027Y-90917851D01*
X81971571Y-90917378D01*
X81970876Y-90916014D01*
X81971349Y-90914558D01*
X82043163Y-90830473D01*
X82119126Y-90706512D01*
X82120866Y-90705557D01*
X82122572Y-90706572D01*
G37*
G36*
X74380861Y-90706494D02*
G01*
X74456836Y-90830473D01*
X74528650Y-90914557D01*
X74529123Y-90916013D01*
X74528428Y-90917377D01*
X74526972Y-90917850D01*
X74439999Y-90911005D01*
X74262712Y-90924957D01*
X74260934Y-90924135D01*
X74260711Y-90922188D01*
X74262257Y-90920985D01*
X74366931Y-90905208D01*
X74423342Y-90788070D01*
X74377424Y-90708539D01*
X74377415Y-90706554D01*
X74379121Y-90705539D01*
X74380861Y-90706494D01*
G37*
G36*
X82550333Y-89678432D02*
G01*
X82551000Y-89679923D01*
X82551000Y-90160077D01*
X82550333Y-90161568D01*
X82548776Y-90162064D01*
X82328545Y-90137250D01*
X82324488Y-90155023D01*
X82323220Y-90156458D01*
X82321326Y-90156169D01*
X82320544Y-90154421D01*
X82338993Y-89919999D01*
X82320544Y-89685578D01*
X82321326Y-89683830D01*
X82323220Y-89683541D01*
X82324488Y-89684976D01*
X82328545Y-89702749D01*
X82548776Y-89677936D01*
X82550333Y-89678432D01*
G37*
G36*
X42671999Y-79590493D02*
G01*
X42758972Y-79583648D01*
X42760428Y-79584121D01*
X42761123Y-79585485D01*
X42760650Y-79586941D01*
X42688836Y-79671026D01*
X42612844Y-79795034D01*
X42611104Y-79795989D01*
X42609398Y-79794974D01*
X42609407Y-79792989D01*
X42655342Y-79713426D01*
X42598931Y-79596288D01*
X42494280Y-79580514D01*
X42492734Y-79579311D01*
X42492957Y-79577364D01*
X42494735Y-79576542D01*
X42671999Y-79590493D01*
G37*
G36*
X37771040Y-79577365D02*
G01*
X37771263Y-79579312D01*
X37769717Y-79580515D01*
X37665067Y-79596288D01*
X37608656Y-79713427D01*
X37654568Y-79792948D01*
X37654577Y-79794933D01*
X37652871Y-79795948D01*
X37651131Y-79794993D01*
X37575163Y-79671025D01*
X37503349Y-79586941D01*
X37502876Y-79585485D01*
X37503571Y-79584121D01*
X37505027Y-79583648D01*
X37592000Y-79590493D01*
X37769262Y-79576543D01*
X37771040Y-79577365D01*
G37*
G36*
X44460519Y-78889409D02*
G01*
X44466826Y-78895716D01*
X44467039Y-78895839D01*
X44467438Y-78896140D01*
X44470236Y-78898870D01*
X44970077Y-79298743D01*
X44978214Y-79304034D01*
X44987221Y-79307634D01*
X45000332Y-79311432D01*
X45000541Y-79311505D01*
X45013155Y-79316730D01*
X45022445Y-79319549D01*
X45032094Y-79320500D01*
X45096811Y-79320500D01*
X45098504Y-79321436D01*
X45098613Y-79323368D01*
X45031002Y-79463763D01*
X45138041Y-79597986D01*
X45138347Y-79599943D01*
X45136819Y-79601203D01*
X45134956Y-79600532D01*
X45037304Y-79486195D01*
X44852473Y-79328336D01*
X44645230Y-79201337D01*
X44420666Y-79108319D01*
X44400832Y-79103557D01*
X44399408Y-79102262D01*
X44399735Y-79100365D01*
X44503009Y-78970864D01*
X44457373Y-78891823D01*
X44457292Y-78889978D01*
X44458758Y-78888853D01*
X44460519Y-78889409D01*
G37*
G36*
X44004572Y-78828072D02*
G01*
X44004563Y-78830057D01*
X43958656Y-78909571D01*
X44015066Y-79026709D01*
X44119740Y-79042486D01*
X44121286Y-79043689D01*
X44121063Y-79045636D01*
X44119285Y-79046458D01*
X43942000Y-79032506D01*
X43855027Y-79039351D01*
X43853571Y-79038878D01*
X43852876Y-79037514D01*
X43853349Y-79036058D01*
X43925163Y-78951973D01*
X44001126Y-78828012D01*
X44002866Y-78827057D01*
X44004572Y-78828072D01*
G37*
G36*
X36262861Y-78827994D02*
G01*
X36338836Y-78951973D01*
X36410650Y-79036057D01*
X36411123Y-79037513D01*
X36410428Y-79038877D01*
X36408972Y-79039350D01*
X36321999Y-79032505D01*
X36144712Y-79046457D01*
X36142934Y-79045635D01*
X36142711Y-79043688D01*
X36144257Y-79042485D01*
X36248931Y-79026708D01*
X36305342Y-78909570D01*
X36259424Y-78830039D01*
X36259415Y-78828054D01*
X36261121Y-78827039D01*
X36262861Y-78827994D01*
G37*
G36*
X44432333Y-77799932D02*
G01*
X44433000Y-77801423D01*
X44433000Y-78281577D01*
X44432333Y-78283068D01*
X44430776Y-78283564D01*
X44210545Y-78258750D01*
X44206488Y-78276523D01*
X44205220Y-78277958D01*
X44203326Y-78277669D01*
X44202544Y-78275921D01*
X44220993Y-78041499D01*
X44202544Y-77807078D01*
X44203326Y-77805330D01*
X44205220Y-77805041D01*
X44206488Y-77806476D01*
X44210545Y-77824249D01*
X44430776Y-77799436D01*
X44432333Y-77799932D01*
G37*
G36*
X118999999Y-77548993D02*
G01*
X119086972Y-77542148D01*
X119088428Y-77542621D01*
X119089123Y-77543985D01*
X119088650Y-77545441D01*
X119016836Y-77629526D01*
X118940844Y-77753534D01*
X118939104Y-77754489D01*
X118937398Y-77753474D01*
X118937407Y-77751489D01*
X118983342Y-77671926D01*
X118926931Y-77554788D01*
X118822280Y-77539014D01*
X118820734Y-77537811D01*
X118820957Y-77535864D01*
X118822735Y-77535042D01*
X118999999Y-77548993D01*
G37*
G36*
X114099040Y-77535865D02*
G01*
X114099263Y-77537812D01*
X114097717Y-77539015D01*
X113993067Y-77554788D01*
X113936656Y-77671927D01*
X113982568Y-77751448D01*
X113982577Y-77753433D01*
X113980871Y-77754448D01*
X113979131Y-77753493D01*
X113903163Y-77629525D01*
X113831349Y-77545441D01*
X113830876Y-77543985D01*
X113831571Y-77542621D01*
X113833027Y-77542148D01*
X113920000Y-77548993D01*
X114097262Y-77535043D01*
X114099040Y-77535865D01*
G37*
G36*
X120788519Y-76847909D02*
G01*
X120794826Y-76854216D01*
X120795039Y-76854339D01*
X120795438Y-76854640D01*
X120798236Y-76857370D01*
X121298077Y-77257243D01*
X121306214Y-77262534D01*
X121315221Y-77266134D01*
X121328332Y-77269932D01*
X121328541Y-77270005D01*
X121341155Y-77275230D01*
X121350445Y-77278049D01*
X121360094Y-77279000D01*
X121424811Y-77279000D01*
X121426504Y-77279936D01*
X121426613Y-77281868D01*
X121359002Y-77422263D01*
X121466041Y-77556486D01*
X121466347Y-77558443D01*
X121464819Y-77559703D01*
X121462956Y-77559032D01*
X121365304Y-77444695D01*
X121180473Y-77286836D01*
X120973230Y-77159837D01*
X120748666Y-77066819D01*
X120728832Y-77062057D01*
X120727408Y-77060762D01*
X120727735Y-77058865D01*
X120831009Y-76929364D01*
X120785373Y-76850323D01*
X120785292Y-76848478D01*
X120786758Y-76847353D01*
X120788519Y-76847909D01*
G37*
G36*
X120332572Y-76786572D02*
G01*
X120332563Y-76788557D01*
X120286656Y-76868071D01*
X120343066Y-76985209D01*
X120447740Y-77000986D01*
X120449286Y-77002189D01*
X120449063Y-77004136D01*
X120447285Y-77004958D01*
X120270000Y-76991006D01*
X120183027Y-76997851D01*
X120181571Y-76997378D01*
X120180876Y-76996014D01*
X120181349Y-76994558D01*
X120253163Y-76910473D01*
X120329126Y-76786512D01*
X120330866Y-76785557D01*
X120332572Y-76786572D01*
G37*
G36*
X112590861Y-76786494D02*
G01*
X112666836Y-76910473D01*
X112738650Y-76994557D01*
X112739123Y-76996013D01*
X112738428Y-76997377D01*
X112736972Y-76997850D01*
X112649999Y-76991005D01*
X112472712Y-77004957D01*
X112470934Y-77004135D01*
X112470711Y-77002188D01*
X112472257Y-77000985D01*
X112576931Y-76985208D01*
X112633342Y-76868070D01*
X112587424Y-76788539D01*
X112587415Y-76786554D01*
X112589121Y-76785539D01*
X112590861Y-76786494D01*
G37*
G36*
X120760333Y-75758432D02*
G01*
X120761000Y-75759923D01*
X120761000Y-76240077D01*
X120760333Y-76241568D01*
X120758776Y-76242064D01*
X120538545Y-76217250D01*
X120534488Y-76235023D01*
X120533220Y-76236458D01*
X120531326Y-76236169D01*
X120530544Y-76234421D01*
X120548993Y-75999999D01*
X120530544Y-75765578D01*
X120531326Y-75763830D01*
X120533220Y-75763541D01*
X120534488Y-75764976D01*
X120538545Y-75782749D01*
X120758776Y-75757936D01*
X120760333Y-75758432D01*
G37*
G36*
X99829999Y-74827993D02*
G01*
X99916972Y-74821148D01*
X99918428Y-74821621D01*
X99919123Y-74822985D01*
X99918650Y-74824441D01*
X99846836Y-74908526D01*
X99770844Y-75032534D01*
X99769104Y-75033489D01*
X99767398Y-75032474D01*
X99767407Y-75030489D01*
X99813342Y-74950926D01*
X99756931Y-74833788D01*
X99652280Y-74818014D01*
X99650734Y-74816811D01*
X99650957Y-74814864D01*
X99652735Y-74814042D01*
X99829999Y-74827993D01*
G37*
G36*
X94929040Y-74814865D02*
G01*
X94929263Y-74816812D01*
X94927717Y-74818015D01*
X94823067Y-74833788D01*
X94766656Y-74950927D01*
X94812568Y-75030448D01*
X94812577Y-75032433D01*
X94810871Y-75033448D01*
X94809131Y-75032493D01*
X94733163Y-74908525D01*
X94661349Y-74824441D01*
X94660876Y-74822985D01*
X94661571Y-74821621D01*
X94663027Y-74821148D01*
X94750000Y-74827993D01*
X94927262Y-74814043D01*
X94929040Y-74814865D01*
G37*
G36*
X61739999Y-74818993D02*
G01*
X61826972Y-74812148D01*
X61828428Y-74812621D01*
X61829123Y-74813985D01*
X61828650Y-74815441D01*
X61756836Y-74899526D01*
X61680844Y-75023534D01*
X61679104Y-75024489D01*
X61677398Y-75023474D01*
X61677407Y-75021489D01*
X61723342Y-74941926D01*
X61666931Y-74824788D01*
X61562280Y-74809014D01*
X61560734Y-74807811D01*
X61560957Y-74805864D01*
X61562735Y-74805042D01*
X61739999Y-74818993D01*
G37*
G36*
X56839040Y-74805865D02*
G01*
X56839263Y-74807812D01*
X56837717Y-74809015D01*
X56733067Y-74824788D01*
X56676656Y-74941927D01*
X56722568Y-75021448D01*
X56722577Y-75023433D01*
X56720871Y-75024448D01*
X56719131Y-75023493D01*
X56643163Y-74899525D01*
X56571349Y-74815441D01*
X56570876Y-74813985D01*
X56571571Y-74812621D01*
X56573027Y-74812148D01*
X56660000Y-74818993D01*
X56837262Y-74805043D01*
X56839040Y-74805865D01*
G37*
G36*
X101618519Y-74126909D02*
G01*
X101624826Y-74133216D01*
X101625039Y-74133339D01*
X101625438Y-74133640D01*
X101628236Y-74136370D01*
X102128077Y-74536243D01*
X102136214Y-74541534D01*
X102145221Y-74545134D01*
X102158332Y-74548932D01*
X102158541Y-74549005D01*
X102171155Y-74554230D01*
X102180445Y-74557049D01*
X102190094Y-74558000D01*
X102254811Y-74558000D01*
X102256504Y-74558936D01*
X102256613Y-74560868D01*
X102189002Y-74701263D01*
X102296041Y-74835486D01*
X102296347Y-74837443D01*
X102294819Y-74838703D01*
X102292956Y-74838032D01*
X102195304Y-74723695D01*
X102010473Y-74565836D01*
X101803230Y-74438837D01*
X101578666Y-74345819D01*
X101558832Y-74341057D01*
X101557408Y-74339762D01*
X101557735Y-74337865D01*
X101661009Y-74208364D01*
X101615373Y-74129323D01*
X101615292Y-74127478D01*
X101616758Y-74126353D01*
X101618519Y-74126909D01*
G37*
G36*
X63528519Y-74117909D02*
G01*
X63534826Y-74124216D01*
X63535039Y-74124339D01*
X63535438Y-74124640D01*
X63538236Y-74127370D01*
X64038077Y-74527243D01*
X64046214Y-74532534D01*
X64055221Y-74536134D01*
X64068332Y-74539932D01*
X64068541Y-74540005D01*
X64081155Y-74545230D01*
X64090445Y-74548049D01*
X64100094Y-74549000D01*
X64164811Y-74549000D01*
X64166504Y-74549936D01*
X64166613Y-74551868D01*
X64099002Y-74692263D01*
X64206041Y-74826486D01*
X64206347Y-74828443D01*
X64204819Y-74829703D01*
X64202956Y-74829032D01*
X64105304Y-74714695D01*
X63920473Y-74556836D01*
X63713230Y-74429837D01*
X63488666Y-74336819D01*
X63468832Y-74332057D01*
X63467408Y-74330762D01*
X63467735Y-74328865D01*
X63571009Y-74199364D01*
X63525373Y-74120323D01*
X63525292Y-74118478D01*
X63526758Y-74117353D01*
X63528519Y-74117909D01*
G37*
G36*
X101162572Y-74065572D02*
G01*
X101162563Y-74067557D01*
X101116656Y-74147071D01*
X101173066Y-74264209D01*
X101277740Y-74279986D01*
X101279286Y-74281189D01*
X101279063Y-74283136D01*
X101277285Y-74283958D01*
X101100000Y-74270006D01*
X101013027Y-74276851D01*
X101011571Y-74276378D01*
X101010876Y-74275014D01*
X101011349Y-74273558D01*
X101083163Y-74189473D01*
X101159126Y-74065512D01*
X101160866Y-74064557D01*
X101162572Y-74065572D01*
G37*
G36*
X93420861Y-74065494D02*
G01*
X93496836Y-74189473D01*
X93568650Y-74273557D01*
X93569123Y-74275013D01*
X93568428Y-74276377D01*
X93566972Y-74276850D01*
X93479999Y-74270005D01*
X93302712Y-74283957D01*
X93300934Y-74283135D01*
X93300711Y-74281188D01*
X93302257Y-74279985D01*
X93406931Y-74264208D01*
X93463342Y-74147070D01*
X93417424Y-74067539D01*
X93417415Y-74065554D01*
X93419121Y-74064539D01*
X93420861Y-74065494D01*
G37*
G36*
X63072572Y-74056572D02*
G01*
X63072563Y-74058557D01*
X63026656Y-74138071D01*
X63083066Y-74255209D01*
X63187740Y-74270986D01*
X63189286Y-74272189D01*
X63189063Y-74274136D01*
X63187285Y-74274958D01*
X63010000Y-74261006D01*
X62923027Y-74267851D01*
X62921571Y-74267378D01*
X62920876Y-74266014D01*
X62921349Y-74264558D01*
X62993163Y-74180473D01*
X63069126Y-74056512D01*
X63070866Y-74055557D01*
X63072572Y-74056572D01*
G37*
G36*
X55330861Y-74056494D02*
G01*
X55406836Y-74180473D01*
X55478650Y-74264557D01*
X55479123Y-74266013D01*
X55478428Y-74267377D01*
X55476972Y-74267850D01*
X55389999Y-74261005D01*
X55212712Y-74274957D01*
X55210934Y-74274135D01*
X55210711Y-74272188D01*
X55212257Y-74270985D01*
X55316931Y-74255208D01*
X55373342Y-74138070D01*
X55327424Y-74058539D01*
X55327415Y-74056554D01*
X55329121Y-74055539D01*
X55330861Y-74056494D01*
G37*
G36*
X101590333Y-73037432D02*
G01*
X101591000Y-73038923D01*
X101591000Y-73519077D01*
X101590333Y-73520568D01*
X101588776Y-73521064D01*
X101368545Y-73496250D01*
X101364488Y-73514023D01*
X101363220Y-73515458D01*
X101361326Y-73515169D01*
X101360544Y-73513421D01*
X101378993Y-73278999D01*
X101360544Y-73044578D01*
X101361326Y-73042830D01*
X101363220Y-73042541D01*
X101364488Y-73043976D01*
X101368545Y-73061749D01*
X101588776Y-73036936D01*
X101590333Y-73037432D01*
G37*
G36*
X63500333Y-73028432D02*
G01*
X63501000Y-73029923D01*
X63501000Y-73510077D01*
X63500333Y-73511568D01*
X63498776Y-73512064D01*
X63278545Y-73487250D01*
X63274488Y-73505023D01*
X63273220Y-73506458D01*
X63271326Y-73506169D01*
X63270544Y-73504421D01*
X63288993Y-73269999D01*
X63270544Y-73035578D01*
X63271326Y-73033830D01*
X63273220Y-73033541D01*
X63274488Y-73034976D01*
X63278545Y-73052749D01*
X63498776Y-73027936D01*
X63500333Y-73028432D01*
G37*
G36*
X80739999Y-72568993D02*
G01*
X80826972Y-72562148D01*
X80828428Y-72562621D01*
X80829123Y-72563985D01*
X80828650Y-72565441D01*
X80756836Y-72649526D01*
X80680844Y-72773534D01*
X80679104Y-72774489D01*
X80677398Y-72773474D01*
X80677407Y-72771489D01*
X80723342Y-72691926D01*
X80666931Y-72574788D01*
X80562280Y-72559014D01*
X80560734Y-72557811D01*
X80560957Y-72555864D01*
X80562735Y-72555042D01*
X80739999Y-72568993D01*
G37*
G36*
X75839040Y-72555865D02*
G01*
X75839263Y-72557812D01*
X75837717Y-72559015D01*
X75733067Y-72574788D01*
X75676656Y-72691927D01*
X75722568Y-72771448D01*
X75722577Y-72773433D01*
X75720871Y-72774448D01*
X75719131Y-72773493D01*
X75643163Y-72649525D01*
X75571349Y-72565441D01*
X75570876Y-72563985D01*
X75571571Y-72562621D01*
X75573027Y-72562148D01*
X75660000Y-72568993D01*
X75837262Y-72555043D01*
X75839040Y-72555865D01*
G37*
G36*
X82528519Y-71867909D02*
G01*
X82534826Y-71874216D01*
X82535039Y-71874339D01*
X82535438Y-71874640D01*
X82538236Y-71877370D01*
X83038077Y-72277243D01*
X83046214Y-72282534D01*
X83055221Y-72286134D01*
X83068332Y-72289932D01*
X83068541Y-72290005D01*
X83081155Y-72295230D01*
X83090445Y-72298049D01*
X83100094Y-72299000D01*
X83164811Y-72299000D01*
X83166504Y-72299936D01*
X83166613Y-72301868D01*
X83099002Y-72442263D01*
X83206041Y-72576486D01*
X83206347Y-72578443D01*
X83204819Y-72579703D01*
X83202956Y-72579032D01*
X83105304Y-72464695D01*
X82920473Y-72306836D01*
X82713230Y-72179837D01*
X82488666Y-72086819D01*
X82468832Y-72082057D01*
X82467408Y-72080762D01*
X82467735Y-72078865D01*
X82571009Y-71949364D01*
X82525373Y-71870323D01*
X82525292Y-71868478D01*
X82526758Y-71867353D01*
X82528519Y-71867909D01*
G37*
G36*
X82072572Y-71806572D02*
G01*
X82072563Y-71808557D01*
X82026656Y-71888071D01*
X82083066Y-72005209D01*
X82187740Y-72020986D01*
X82189286Y-72022189D01*
X82189063Y-72024136D01*
X82187285Y-72024958D01*
X82010000Y-72011006D01*
X81923027Y-72017851D01*
X81921571Y-72017378D01*
X81920876Y-72016014D01*
X81921349Y-72014558D01*
X81993163Y-71930473D01*
X82069126Y-71806512D01*
X82070866Y-71805557D01*
X82072572Y-71806572D01*
G37*
G36*
X74330861Y-71806494D02*
G01*
X74406836Y-71930473D01*
X74478650Y-72014557D01*
X74479123Y-72016013D01*
X74478428Y-72017377D01*
X74476972Y-72017850D01*
X74389999Y-72011005D01*
X74212712Y-72024957D01*
X74210934Y-72024135D01*
X74210711Y-72022188D01*
X74212257Y-72020985D01*
X74316931Y-72005208D01*
X74373342Y-71888070D01*
X74327424Y-71808539D01*
X74327415Y-71806554D01*
X74329121Y-71805539D01*
X74330861Y-71806494D01*
G37*
G36*
X82500333Y-70778432D02*
G01*
X82501000Y-70779923D01*
X82501000Y-71260077D01*
X82500333Y-71261568D01*
X82498776Y-71262064D01*
X82278545Y-71237250D01*
X82274488Y-71255023D01*
X82273220Y-71256458D01*
X82271326Y-71256169D01*
X82270544Y-71254421D01*
X82288993Y-71019999D01*
X82270544Y-70785578D01*
X82271326Y-70783830D01*
X82273220Y-70783541D01*
X82274488Y-70784976D01*
X82278545Y-70802749D01*
X82498776Y-70777936D01*
X82500333Y-70778432D01*
G37*
M02*
