%TF.GenerationSoftware,KiCad,Pcbnew,7.0.1*%
%TF.CreationDate,2024-09-18T17:21:27+07:00*%
%TF.ProjectId,minikeeb,6d696e69-6b65-4656-922e-6b696361645f,rev?*%
%TF.SameCoordinates,Original*%
%TF.FileFunction,Drillmap*%
%TF.FilePolarity,Positive*%
%FSLAX45Y45*%
G04 Gerber Fmt 4.5, Leading zero omitted, Abs format (unit mm)*
G04 Created by KiCad (PCBNEW 7.0.1) date 2024-09-18 17:21:27*
%MOMM*%
%LPD*%
G01*
G04 APERTURE LIST*
%ADD10C,0.200000*%
%ADD11C,0.050000*%
%ADD12C,0.100000*%
%ADD13C,0.120000*%
%ADD14C,0.170000*%
%ADD15C,0.300000*%
%ADD16C,0.400000*%
G04 APERTURE END LIST*
D10*
X12618742Y-12473925D02*
X12618742Y-13280301D01*
X12361741Y-12323925D02*
X12468742Y-12323925D01*
X3117777Y-7429158D02*
G75*
G03*
X3011741Y-7572572I43963J-143412D01*
G01*
D11*
X3348178Y-8936000D02*
G75*
G03*
X3348178Y-8936000I-101178J0D01*
G01*
D10*
X12211744Y-7340576D02*
G75*
G03*
X12098173Y-7195068I-150004J-4D01*
G01*
D11*
X10548178Y-7130000D02*
G75*
G03*
X10548178Y-7130000I-101178J0D01*
G01*
D10*
X3011741Y-13091550D02*
X3011741Y-7572572D01*
X3008000Y-14397000D02*
X3009066Y-15301934D01*
D11*
X6723178Y-7033000D02*
G75*
G03*
X6723178Y-7033000I-101178J0D01*
G01*
X4043178Y-12766178D02*
G75*
G03*
X4043178Y-12766178I-101178J0D01*
G01*
D10*
X12098173Y-7195068D02*
G75*
G03*
X3117777Y-7429159I-4069566J-16253644D01*
G01*
D11*
X10918178Y-15178000D02*
G75*
G03*
X10918178Y-15178000I-101178J0D01*
G01*
D10*
X3475000Y-13475000D02*
X3475000Y-14397000D01*
X12211741Y-7340576D02*
X12211741Y-12173925D01*
D11*
X11917178Y-10611000D02*
G75*
G03*
X11917178Y-10611000I-101178J0D01*
G01*
X3291178Y-14969000D02*
G75*
G03*
X3291178Y-14969000I-101178J0D01*
G01*
D10*
X3012000Y-13475000D02*
X3475000Y-13475000D01*
X3011510Y-13344002D02*
X3011741Y-13091550D01*
X10371000Y-15449959D02*
X3159066Y-15451934D01*
X11975380Y-15791292D02*
X10413358Y-15458522D01*
D11*
X12327178Y-13594000D02*
G75*
G03*
X12327178Y-13594000I-101178J0D01*
G01*
D10*
X12618741Y-13280301D02*
G75*
G03*
X12634566Y-13347359I149999J1D01*
G01*
X12211735Y-12173925D02*
G75*
G03*
X12361741Y-12323925I150005J5D01*
G01*
X3475000Y-14397000D02*
X3008000Y-14397000D01*
X10413358Y-15458522D02*
G75*
G03*
X10371000Y-15449959I-42358J-100478D01*
G01*
X12976771Y-14175412D02*
G75*
G03*
X12979122Y-14036779I-131831J71572D01*
G01*
X12618735Y-12473925D02*
G75*
G03*
X12468742Y-12323925I-149995J5D01*
G01*
X3009066Y-15301934D02*
G75*
G03*
X3159066Y-15451934I150004J4D01*
G01*
X12634566Y-13347359D02*
X12979122Y-14036779D01*
X12976768Y-14175411D02*
X12146025Y-15717977D01*
X11975380Y-15791294D02*
G75*
G03*
X12146025Y-15717977I38820J144894D01*
G01*
X3011510Y-13344002D02*
X3012000Y-13475000D01*
D12*
X4246000Y-15206000D02*
X4346000Y-15306000D01*
X4346000Y-15206000D02*
X4246000Y-15306000D01*
X4926000Y-15206000D02*
X5026000Y-15306000D01*
X5026000Y-15206000D02*
X4926000Y-15306000D01*
D13*
X11817000Y-12754000D02*
G75*
G03*
X11817000Y-12754000I-60000J0D01*
G01*
X11817000Y-12929000D02*
G75*
G03*
X11817000Y-12929000I-60000J0D01*
G01*
X12517000Y-12754000D02*
G75*
G03*
X12517000Y-12754000I-60000J0D01*
G01*
X12517000Y-12929000D02*
G75*
G03*
X12517000Y-12929000I-60000J0D01*
G01*
D14*
X3505200Y-8227150D02*
X3505200Y-8397150D01*
X3420200Y-8312150D02*
X3590200Y-8312150D01*
X3505200Y-9922600D02*
X3505200Y-10092600D01*
X3420200Y-10007600D02*
X3590200Y-10007600D01*
X3505200Y-11624400D02*
X3505200Y-11794400D01*
X3420200Y-11709400D02*
X3590200Y-11709400D01*
X4521200Y-8227150D02*
X4521200Y-8397150D01*
X4436200Y-8312150D02*
X4606200Y-8312150D01*
X4521200Y-9922600D02*
X4521200Y-10092600D01*
X4436200Y-10007600D02*
X4606200Y-10007600D01*
X4521200Y-11624400D02*
X4521200Y-11794400D01*
X4436200Y-11709400D02*
X4606200Y-11709400D01*
X5308600Y-7750900D02*
X5308600Y-7920900D01*
X5223600Y-7835900D02*
X5393600Y-7835900D01*
X5308600Y-9446350D02*
X5308600Y-9616350D01*
X5223600Y-9531350D02*
X5393600Y-9531350D01*
X5308600Y-11148150D02*
X5308600Y-11318150D01*
X5223600Y-11233150D02*
X5393600Y-11233150D01*
X6324600Y-7750900D02*
X6324600Y-7920900D01*
X6239600Y-7835900D02*
X6409600Y-7835900D01*
X6324600Y-9446350D02*
X6324600Y-9616350D01*
X6239600Y-9531350D02*
X6409600Y-9531350D01*
X6324600Y-11148150D02*
X6324600Y-11318150D01*
X6239600Y-11233150D02*
X6409600Y-11233150D01*
X6979000Y-13697000D02*
X6979000Y-13867000D01*
X6894000Y-13782000D02*
X7064000Y-13782000D01*
X7105650Y-7509600D02*
X7105650Y-7679600D01*
X7020650Y-7594600D02*
X7190650Y-7594600D01*
X7105650Y-9211400D02*
X7105650Y-9381400D01*
X7020650Y-9296400D02*
X7190650Y-9296400D01*
X7112000Y-10913200D02*
X7112000Y-11083200D01*
X7027000Y-10998200D02*
X7197000Y-10998200D01*
X7995000Y-13697000D02*
X7995000Y-13867000D01*
X7910000Y-13782000D02*
X8080000Y-13782000D01*
X8121650Y-7509600D02*
X8121650Y-7679600D01*
X8036650Y-7594600D02*
X8206650Y-7594600D01*
X8121650Y-9211400D02*
X8121650Y-9381400D01*
X8036650Y-9296400D02*
X8206650Y-9296400D01*
X8128000Y-10913200D02*
X8128000Y-11083200D01*
X8043000Y-10998200D02*
X8213000Y-10998200D01*
X8909050Y-7750900D02*
X8909050Y-7920900D01*
X8824050Y-7835900D02*
X8994050Y-7835900D01*
X8909050Y-9452700D02*
X8909050Y-9622700D01*
X8824050Y-9537700D02*
X8994050Y-9537700D01*
X8909050Y-11148150D02*
X8909050Y-11318150D01*
X8824050Y-11233150D02*
X8994050Y-11233150D01*
X9066060Y-13912270D02*
X9066060Y-14082270D01*
X8981060Y-13997270D02*
X9151060Y-13997270D01*
X9925050Y-7750900D02*
X9925050Y-7920900D01*
X9840050Y-7835900D02*
X10010050Y-7835900D01*
X9925050Y-9452700D02*
X9925050Y-9622700D01*
X9840050Y-9537700D02*
X10010050Y-9537700D01*
X9925050Y-11148150D02*
X9925050Y-11318150D01*
X9840050Y-11233150D02*
X10010050Y-11233150D01*
X10047440Y-14175230D02*
X10047440Y-14345230D01*
X9962440Y-14260230D02*
X10132440Y-14260230D01*
X10706100Y-7992200D02*
X10706100Y-8162200D01*
X10621100Y-8077200D02*
X10791100Y-8077200D01*
X10706100Y-9687650D02*
X10706100Y-9857650D01*
X10621100Y-9772650D02*
X10791100Y-9772650D01*
X10706100Y-11389450D02*
X10706100Y-11559450D01*
X10621100Y-11474450D02*
X10791100Y-11474450D01*
X11244059Y-14132650D02*
X11244059Y-14302650D01*
X11159059Y-14217650D02*
X11329059Y-14217650D01*
X11722100Y-7992200D02*
X11722100Y-8162200D01*
X11637100Y-8077200D02*
X11807100Y-8077200D01*
X11722100Y-9687650D02*
X11722100Y-9857650D01*
X11637100Y-9772650D02*
X11807100Y-9772650D01*
X11722100Y-11389450D02*
X11722100Y-11559450D01*
X11637100Y-11474450D02*
X11807100Y-11474450D01*
X12123941Y-14640650D02*
X12123941Y-14810650D01*
X12038941Y-14725650D02*
X12208941Y-14725650D01*
D15*
X3738267Y-8164217D02*
X3738267Y-7952083D01*
X3526133Y-7952083D01*
X3526133Y-8164217D01*
X3738267Y-8164217D01*
X3738267Y-9859667D02*
X3738267Y-9647533D01*
X3526133Y-9647533D01*
X3526133Y-9859667D01*
X3738267Y-9859667D01*
X3738267Y-11561467D02*
X3738267Y-11349333D01*
X3526133Y-11349333D01*
X3526133Y-11561467D01*
X3738267Y-11561467D01*
X3865267Y-7910217D02*
X3865267Y-7698083D01*
X3653133Y-7698083D01*
X3653133Y-7910217D01*
X3865267Y-7910217D01*
X3865267Y-9605667D02*
X3865267Y-9393533D01*
X3653133Y-9393533D01*
X3653133Y-9605667D01*
X3865267Y-9605667D01*
X3865267Y-11307467D02*
X3865267Y-11095333D01*
X3653133Y-11095333D01*
X3653133Y-11307467D01*
X3865267Y-11307467D01*
X4373267Y-7910217D02*
X4373267Y-7698083D01*
X4161133Y-7698083D01*
X4161133Y-7910217D01*
X4373267Y-7910217D01*
X4373267Y-9605667D02*
X4373267Y-9393533D01*
X4161133Y-9393533D01*
X4161133Y-9605667D01*
X4373267Y-9605667D01*
X4373267Y-11307467D02*
X4373267Y-11095333D01*
X4161133Y-11095333D01*
X4161133Y-11307467D01*
X4373267Y-11307467D01*
X4500267Y-8164217D02*
X4500267Y-7952083D01*
X4288133Y-7952083D01*
X4288133Y-8164217D01*
X4500267Y-8164217D01*
X4500267Y-9859667D02*
X4500267Y-9647533D01*
X4288133Y-9647533D01*
X4288133Y-9859667D01*
X4500267Y-9859667D01*
X4500267Y-11561467D02*
X4500267Y-11349333D01*
X4288133Y-11349333D01*
X4288133Y-11561467D01*
X4500267Y-11561467D01*
X5541667Y-7687967D02*
X5541667Y-7475833D01*
X5329533Y-7475833D01*
X5329533Y-7687967D01*
X5541667Y-7687967D01*
X5541667Y-9383417D02*
X5541667Y-9171283D01*
X5329533Y-9171283D01*
X5329533Y-9383417D01*
X5541667Y-9383417D01*
X5541667Y-11085217D02*
X5541667Y-10873083D01*
X5329533Y-10873083D01*
X5329533Y-11085217D01*
X5541667Y-11085217D01*
X5668667Y-7433967D02*
X5668667Y-7221833D01*
X5456533Y-7221833D01*
X5456533Y-7433967D01*
X5668667Y-7433967D01*
X5668667Y-9129417D02*
X5668667Y-8917283D01*
X5456533Y-8917283D01*
X5456533Y-9129417D01*
X5668667Y-9129417D01*
X5668667Y-10831217D02*
X5668667Y-10619083D01*
X5456533Y-10619083D01*
X5456533Y-10831217D01*
X5668667Y-10831217D01*
X6176667Y-7433967D02*
X6176667Y-7221833D01*
X5964533Y-7221833D01*
X5964533Y-7433967D01*
X6176667Y-7433967D01*
X6176667Y-9129417D02*
X6176667Y-8917283D01*
X5964533Y-8917283D01*
X5964533Y-9129417D01*
X6176667Y-9129417D01*
X6176667Y-10831217D02*
X6176667Y-10619083D01*
X5964533Y-10619083D01*
X5964533Y-10831217D01*
X6176667Y-10831217D01*
X6303667Y-7687967D02*
X6303667Y-7475833D01*
X6091533Y-7475833D01*
X6091533Y-7687967D01*
X6303667Y-7687967D01*
X6303667Y-9383417D02*
X6303667Y-9171283D01*
X6091533Y-9171283D01*
X6091533Y-9383417D01*
X6303667Y-9383417D01*
X6303667Y-11085217D02*
X6303667Y-10873083D01*
X6091533Y-10873083D01*
X6091533Y-11085217D01*
X6303667Y-11085217D01*
X7212067Y-13634067D02*
X7212067Y-13421933D01*
X6999933Y-13421933D01*
X6999933Y-13634067D01*
X7212067Y-13634067D01*
X7338717Y-7446667D02*
X7338717Y-7234533D01*
X7126583Y-7234533D01*
X7126583Y-7446667D01*
X7338717Y-7446667D01*
X7338717Y-9148467D02*
X7338717Y-8936333D01*
X7126583Y-8936333D01*
X7126583Y-9148467D01*
X7338717Y-9148467D01*
X7339067Y-13380067D02*
X7339067Y-13167933D01*
X7126933Y-13167933D01*
X7126933Y-13380067D01*
X7339067Y-13380067D01*
X7345067Y-10850267D02*
X7345067Y-10638133D01*
X7132933Y-10638133D01*
X7132933Y-10850267D01*
X7345067Y-10850267D01*
X7465717Y-7192667D02*
X7465717Y-6980533D01*
X7253583Y-6980533D01*
X7253583Y-7192667D01*
X7465717Y-7192667D01*
X7465717Y-8894467D02*
X7465717Y-8682333D01*
X7253583Y-8682333D01*
X7253583Y-8894467D01*
X7465717Y-8894467D01*
X7472067Y-10596267D02*
X7472067Y-10384133D01*
X7259933Y-10384133D01*
X7259933Y-10596267D01*
X7472067Y-10596267D01*
X7847067Y-13380067D02*
X7847067Y-13167933D01*
X7634933Y-13167933D01*
X7634933Y-13380067D01*
X7847067Y-13380067D01*
X7973717Y-7192667D02*
X7973717Y-6980533D01*
X7761583Y-6980533D01*
X7761583Y-7192667D01*
X7973717Y-7192667D01*
X7973717Y-8894467D02*
X7973717Y-8682333D01*
X7761583Y-8682333D01*
X7761583Y-8894467D01*
X7973717Y-8894467D01*
X7974067Y-13634067D02*
X7974067Y-13421933D01*
X7761933Y-13421933D01*
X7761933Y-13634067D01*
X7974067Y-13634067D01*
X7980067Y-10596267D02*
X7980067Y-10384133D01*
X7767933Y-10384133D01*
X7767933Y-10596267D01*
X7980067Y-10596267D01*
X8100717Y-7446667D02*
X8100717Y-7234533D01*
X7888583Y-7234533D01*
X7888583Y-7446667D01*
X8100717Y-7446667D01*
X8100717Y-9148467D02*
X8100717Y-8936333D01*
X7888583Y-8936333D01*
X7888583Y-9148467D01*
X8100717Y-9148467D01*
X8107067Y-10850267D02*
X8107067Y-10638133D01*
X7894933Y-10638133D01*
X7894933Y-10850267D01*
X8107067Y-10850267D01*
X9142117Y-7687967D02*
X9142117Y-7475833D01*
X8929983Y-7475833D01*
X8929983Y-7687967D01*
X9142117Y-7687967D01*
X9142117Y-9389767D02*
X9142117Y-9177633D01*
X8929983Y-9177633D01*
X8929983Y-9389767D01*
X9142117Y-9389767D01*
X9142117Y-11085217D02*
X9142117Y-10873083D01*
X8929983Y-10873083D01*
X8929983Y-11085217D01*
X9142117Y-11085217D01*
X9269117Y-7433967D02*
X9269117Y-7221833D01*
X9056983Y-7221833D01*
X9056983Y-7433967D01*
X9269117Y-7433967D01*
X9269117Y-9135767D02*
X9269117Y-8923633D01*
X9056983Y-8923633D01*
X9056983Y-9135767D01*
X9269117Y-9135767D01*
X9269117Y-10831217D02*
X9269117Y-10619083D01*
X9056983Y-10619083D01*
X9056983Y-10831217D01*
X9269117Y-10831217D01*
X9360539Y-13890862D02*
X9360539Y-13678728D01*
X9148405Y-13678728D01*
X9148405Y-13890862D01*
X9360539Y-13890862D01*
X9548952Y-13678387D02*
X9548952Y-13466253D01*
X9336818Y-13466253D01*
X9336818Y-13678387D01*
X9548952Y-13678387D01*
X9777117Y-7433967D02*
X9777117Y-7221833D01*
X9564983Y-7221833D01*
X9564983Y-7433967D01*
X9777117Y-7433967D01*
X9777117Y-9135767D02*
X9777117Y-8923633D01*
X9564983Y-8923633D01*
X9564983Y-9135767D01*
X9777117Y-9135767D01*
X9777117Y-10831217D02*
X9777117Y-10619083D01*
X9564983Y-10619083D01*
X9564983Y-10831217D01*
X9777117Y-10831217D01*
X9904117Y-7687967D02*
X9904117Y-7475833D01*
X9691983Y-7475833D01*
X9691983Y-7687967D01*
X9904117Y-7687967D01*
X9904117Y-9389767D02*
X9904117Y-9177633D01*
X9691983Y-9177633D01*
X9691983Y-9389767D01*
X9904117Y-9389767D01*
X9904117Y-11085217D02*
X9904117Y-10873083D01*
X9691983Y-10873083D01*
X9691983Y-11085217D01*
X9904117Y-11085217D01*
X10039642Y-13809867D02*
X10039642Y-13597733D01*
X9827508Y-13597733D01*
X9827508Y-13809867D01*
X10039642Y-13809867D01*
X10096575Y-14088082D02*
X10096575Y-13875948D01*
X9884441Y-13875948D01*
X9884441Y-14088082D01*
X10096575Y-14088082D01*
X10939167Y-7929267D02*
X10939167Y-7717133D01*
X10727033Y-7717133D01*
X10727033Y-7929267D01*
X10939167Y-7929267D01*
X10939167Y-9624717D02*
X10939167Y-9412583D01*
X10727033Y-9412583D01*
X10727033Y-9624717D01*
X10939167Y-9624717D01*
X10939167Y-11326517D02*
X10939167Y-11114383D01*
X10727033Y-11114383D01*
X10727033Y-11326517D01*
X10939167Y-11326517D01*
X11066167Y-7675267D02*
X11066167Y-7463133D01*
X10854033Y-7463133D01*
X10854033Y-7675267D01*
X11066167Y-7675267D01*
X11066167Y-9370717D02*
X11066167Y-9158583D01*
X10854033Y-9158583D01*
X10854033Y-9370717D01*
X11066167Y-9370717D01*
X11066167Y-11072517D02*
X11066167Y-10860383D01*
X10854033Y-10860383D01*
X10854033Y-11072517D01*
X11066167Y-11072517D01*
X11574167Y-7675267D02*
X11574167Y-7463133D01*
X11362033Y-7463133D01*
X11362033Y-7675267D01*
X11574167Y-7675267D01*
X11574167Y-9370717D02*
X11574167Y-9158583D01*
X11362033Y-9158583D01*
X11362033Y-9370717D01*
X11574167Y-9370717D01*
X11574167Y-11072517D02*
X11574167Y-10860383D01*
X11362033Y-10860383D01*
X11362033Y-11072517D01*
X11574167Y-11072517D01*
X11587111Y-14167246D02*
X11587111Y-13955112D01*
X11374977Y-13955112D01*
X11374977Y-14167246D01*
X11587111Y-14167246D01*
X11701167Y-7929267D02*
X11701167Y-7717133D01*
X11489033Y-7717133D01*
X11489033Y-7929267D01*
X11701167Y-7929267D01*
X11701167Y-9624717D02*
X11701167Y-9412583D01*
X11489033Y-9412583D01*
X11489033Y-9624717D01*
X11701167Y-9624717D01*
X11701167Y-11326517D02*
X11701167Y-11114383D01*
X11489033Y-11114383D01*
X11489033Y-11326517D01*
X11701167Y-11326517D01*
X11824096Y-14010776D02*
X11824096Y-13798642D01*
X11611962Y-13798642D01*
X11611962Y-14010776D01*
X11824096Y-14010776D01*
X12247023Y-14548246D02*
X12247023Y-14336112D01*
X12034889Y-14336112D01*
X12034889Y-14548246D01*
X12247023Y-14548246D01*
X12264037Y-14264776D02*
X12264037Y-14052642D01*
X12051903Y-14052642D01*
X12051903Y-14264776D01*
X12264037Y-14264776D01*
D16*
X4013200Y-8512150D02*
X4213200Y-8312150D01*
X4013200Y-8112150D01*
X3813200Y-8312150D01*
X4013200Y-8512150D01*
X4013200Y-10207600D02*
X4213200Y-10007600D01*
X4013200Y-9807600D01*
X3813200Y-10007600D01*
X4013200Y-10207600D01*
X4013200Y-11909400D02*
X4213200Y-11709400D01*
X4013200Y-11509400D01*
X3813200Y-11709400D01*
X4013200Y-11909400D01*
X5816600Y-8035900D02*
X6016600Y-7835900D01*
X5816600Y-7635900D01*
X5616600Y-7835900D01*
X5816600Y-8035900D01*
X5816600Y-9731350D02*
X6016600Y-9531350D01*
X5816600Y-9331350D01*
X5616600Y-9531350D01*
X5816600Y-9731350D01*
X5816600Y-11433150D02*
X6016600Y-11233150D01*
X5816600Y-11033150D01*
X5616600Y-11233150D01*
X5816600Y-11433150D01*
X7487000Y-13982000D02*
X7687000Y-13782000D01*
X7487000Y-13582000D01*
X7287000Y-13782000D01*
X7487000Y-13982000D01*
X7613650Y-7794600D02*
X7813650Y-7594600D01*
X7613650Y-7394600D01*
X7413650Y-7594600D01*
X7613650Y-7794600D01*
X7613650Y-9496400D02*
X7813650Y-9296400D01*
X7613650Y-9096400D01*
X7413650Y-9296400D01*
X7613650Y-9496400D01*
X7620000Y-11198200D02*
X7820000Y-10998200D01*
X7620000Y-10798200D01*
X7420000Y-10998200D01*
X7620000Y-11198200D01*
X9417050Y-8035900D02*
X9617050Y-7835900D01*
X9417050Y-7635900D01*
X9217050Y-7835900D01*
X9417050Y-8035900D01*
X9417050Y-9737700D02*
X9617050Y-9537700D01*
X9417050Y-9337700D01*
X9217050Y-9537700D01*
X9417050Y-9737700D01*
X9417050Y-11433150D02*
X9617050Y-11233150D01*
X9417050Y-11033150D01*
X9217050Y-11233150D01*
X9417050Y-11433150D01*
X9556750Y-14328750D02*
X9756750Y-14128750D01*
X9556750Y-13928750D01*
X9356750Y-14128750D01*
X9556750Y-14328750D01*
X11214100Y-8277200D02*
X11414100Y-8077200D01*
X11214100Y-7877200D01*
X11014100Y-8077200D01*
X11214100Y-8277200D01*
X11214100Y-9972650D02*
X11414100Y-9772650D01*
X11214100Y-9572650D01*
X11014100Y-9772650D01*
X11214100Y-9972650D01*
X11214100Y-11674450D02*
X11414100Y-11474450D01*
X11214100Y-11274450D01*
X11014100Y-11474450D01*
X11214100Y-11674450D01*
X11684000Y-14671650D02*
X11884000Y-14471650D01*
X11684000Y-14271650D01*
X11484000Y-14471650D01*
X11684000Y-14671650D01*
D10*
X3245619Y-16118928D02*
X3245619Y-15918928D01*
X3245619Y-15918928D02*
X3293238Y-15918928D01*
X3293238Y-15918928D02*
X3321809Y-15928452D01*
X3321809Y-15928452D02*
X3340857Y-15947499D01*
X3340857Y-15947499D02*
X3350381Y-15966547D01*
X3350381Y-15966547D02*
X3359905Y-16004642D01*
X3359905Y-16004642D02*
X3359905Y-16033214D01*
X3359905Y-16033214D02*
X3350381Y-16071309D01*
X3350381Y-16071309D02*
X3340857Y-16090357D01*
X3340857Y-16090357D02*
X3321809Y-16109404D01*
X3321809Y-16109404D02*
X3293238Y-16118928D01*
X3293238Y-16118928D02*
X3245619Y-16118928D01*
X3445619Y-16118928D02*
X3445619Y-15985595D01*
X3445619Y-16023690D02*
X3455143Y-16004642D01*
X3455143Y-16004642D02*
X3464667Y-15995118D01*
X3464667Y-15995118D02*
X3483714Y-15985595D01*
X3483714Y-15985595D02*
X3502762Y-15985595D01*
X3569428Y-16118928D02*
X3569428Y-15985595D01*
X3569428Y-15918928D02*
X3559905Y-15928452D01*
X3559905Y-15928452D02*
X3569428Y-15937976D01*
X3569428Y-15937976D02*
X3578952Y-15928452D01*
X3578952Y-15928452D02*
X3569428Y-15918928D01*
X3569428Y-15918928D02*
X3569428Y-15937976D01*
X3693238Y-16118928D02*
X3674190Y-16109404D01*
X3674190Y-16109404D02*
X3664667Y-16090357D01*
X3664667Y-16090357D02*
X3664667Y-15918928D01*
X3798000Y-16118928D02*
X3778952Y-16109404D01*
X3778952Y-16109404D02*
X3769428Y-16090357D01*
X3769428Y-16090357D02*
X3769428Y-15918928D01*
X4026571Y-16118928D02*
X4026571Y-15918928D01*
X4026571Y-15918928D02*
X4093238Y-16061785D01*
X4093238Y-16061785D02*
X4159905Y-15918928D01*
X4159905Y-15918928D02*
X4159905Y-16118928D01*
X4340857Y-16118928D02*
X4340857Y-16014166D01*
X4340857Y-16014166D02*
X4331333Y-15995118D01*
X4331333Y-15995118D02*
X4312286Y-15985595D01*
X4312286Y-15985595D02*
X4274190Y-15985595D01*
X4274190Y-15985595D02*
X4255143Y-15995118D01*
X4340857Y-16109404D02*
X4321810Y-16118928D01*
X4321810Y-16118928D02*
X4274190Y-16118928D01*
X4274190Y-16118928D02*
X4255143Y-16109404D01*
X4255143Y-16109404D02*
X4245619Y-16090357D01*
X4245619Y-16090357D02*
X4245619Y-16071309D01*
X4245619Y-16071309D02*
X4255143Y-16052261D01*
X4255143Y-16052261D02*
X4274190Y-16042738D01*
X4274190Y-16042738D02*
X4321810Y-16042738D01*
X4321810Y-16042738D02*
X4340857Y-16033214D01*
X4436095Y-15985595D02*
X4436095Y-16185595D01*
X4436095Y-15995118D02*
X4455143Y-15985595D01*
X4455143Y-15985595D02*
X4493238Y-15985595D01*
X4493238Y-15985595D02*
X4512286Y-15995118D01*
X4512286Y-15995118D02*
X4521810Y-16004642D01*
X4521810Y-16004642D02*
X4531333Y-16023690D01*
X4531333Y-16023690D02*
X4531333Y-16080833D01*
X4531333Y-16080833D02*
X4521810Y-16099880D01*
X4521810Y-16099880D02*
X4512286Y-16109404D01*
X4512286Y-16109404D02*
X4493238Y-16118928D01*
X4493238Y-16118928D02*
X4455143Y-16118928D01*
X4455143Y-16118928D02*
X4436095Y-16109404D01*
X4617048Y-16099880D02*
X4626571Y-16109404D01*
X4626571Y-16109404D02*
X4617048Y-16118928D01*
X4617048Y-16118928D02*
X4607524Y-16109404D01*
X4607524Y-16109404D02*
X4617048Y-16099880D01*
X4617048Y-16099880D02*
X4617048Y-16118928D01*
X4617048Y-15995118D02*
X4626571Y-16004642D01*
X4626571Y-16004642D02*
X4617048Y-16014166D01*
X4617048Y-16014166D02*
X4607524Y-16004642D01*
X4607524Y-16004642D02*
X4617048Y-15995118D01*
X4617048Y-15995118D02*
X4617048Y-16014166D01*
D12*
X2898000Y-16396404D02*
X2998000Y-16496404D01*
X2998000Y-16396404D02*
X2898000Y-16496404D01*
D10*
X3350381Y-16538928D02*
X3236095Y-16538928D01*
X3293238Y-16538928D02*
X3293238Y-16338928D01*
X3293238Y-16338928D02*
X3274190Y-16367499D01*
X3274190Y-16367499D02*
X3255143Y-16386547D01*
X3255143Y-16386547D02*
X3236095Y-16396071D01*
X3436095Y-16519880D02*
X3445619Y-16529404D01*
X3445619Y-16529404D02*
X3436095Y-16538928D01*
X3436095Y-16538928D02*
X3426571Y-16529404D01*
X3426571Y-16529404D02*
X3436095Y-16519880D01*
X3436095Y-16519880D02*
X3436095Y-16538928D01*
X3569428Y-16338928D02*
X3588476Y-16338928D01*
X3588476Y-16338928D02*
X3607524Y-16348452D01*
X3607524Y-16348452D02*
X3617048Y-16357976D01*
X3617048Y-16357976D02*
X3626571Y-16377023D01*
X3626571Y-16377023D02*
X3636095Y-16415118D01*
X3636095Y-16415118D02*
X3636095Y-16462738D01*
X3636095Y-16462738D02*
X3626571Y-16500833D01*
X3626571Y-16500833D02*
X3617048Y-16519880D01*
X3617048Y-16519880D02*
X3607524Y-16529404D01*
X3607524Y-16529404D02*
X3588476Y-16538928D01*
X3588476Y-16538928D02*
X3569428Y-16538928D01*
X3569428Y-16538928D02*
X3550381Y-16529404D01*
X3550381Y-16529404D02*
X3540857Y-16519880D01*
X3540857Y-16519880D02*
X3531333Y-16500833D01*
X3531333Y-16500833D02*
X3521809Y-16462738D01*
X3521809Y-16462738D02*
X3521809Y-16415118D01*
X3521809Y-16415118D02*
X3531333Y-16377023D01*
X3531333Y-16377023D02*
X3540857Y-16357976D01*
X3540857Y-16357976D02*
X3550381Y-16348452D01*
X3550381Y-16348452D02*
X3569428Y-16338928D01*
X3759905Y-16338928D02*
X3778952Y-16338928D01*
X3778952Y-16338928D02*
X3798000Y-16348452D01*
X3798000Y-16348452D02*
X3807524Y-16357976D01*
X3807524Y-16357976D02*
X3817048Y-16377023D01*
X3817048Y-16377023D02*
X3826571Y-16415118D01*
X3826571Y-16415118D02*
X3826571Y-16462738D01*
X3826571Y-16462738D02*
X3817048Y-16500833D01*
X3817048Y-16500833D02*
X3807524Y-16519880D01*
X3807524Y-16519880D02*
X3798000Y-16529404D01*
X3798000Y-16529404D02*
X3778952Y-16538928D01*
X3778952Y-16538928D02*
X3759905Y-16538928D01*
X3759905Y-16538928D02*
X3740857Y-16529404D01*
X3740857Y-16529404D02*
X3731333Y-16519880D01*
X3731333Y-16519880D02*
X3721809Y-16500833D01*
X3721809Y-16500833D02*
X3712286Y-16462738D01*
X3712286Y-16462738D02*
X3712286Y-16415118D01*
X3712286Y-16415118D02*
X3721809Y-16377023D01*
X3721809Y-16377023D02*
X3731333Y-16357976D01*
X3731333Y-16357976D02*
X3740857Y-16348452D01*
X3740857Y-16348452D02*
X3759905Y-16338928D01*
X3950381Y-16338928D02*
X3969429Y-16338928D01*
X3969429Y-16338928D02*
X3988476Y-16348452D01*
X3988476Y-16348452D02*
X3998000Y-16357976D01*
X3998000Y-16357976D02*
X4007524Y-16377023D01*
X4007524Y-16377023D02*
X4017048Y-16415118D01*
X4017048Y-16415118D02*
X4017048Y-16462738D01*
X4017048Y-16462738D02*
X4007524Y-16500833D01*
X4007524Y-16500833D02*
X3998000Y-16519880D01*
X3998000Y-16519880D02*
X3988476Y-16529404D01*
X3988476Y-16529404D02*
X3969429Y-16538928D01*
X3969429Y-16538928D02*
X3950381Y-16538928D01*
X3950381Y-16538928D02*
X3931333Y-16529404D01*
X3931333Y-16529404D02*
X3921809Y-16519880D01*
X3921809Y-16519880D02*
X3912286Y-16500833D01*
X3912286Y-16500833D02*
X3902762Y-16462738D01*
X3902762Y-16462738D02*
X3902762Y-16415118D01*
X3902762Y-16415118D02*
X3912286Y-16377023D01*
X3912286Y-16377023D02*
X3921809Y-16357976D01*
X3921809Y-16357976D02*
X3931333Y-16348452D01*
X3931333Y-16348452D02*
X3950381Y-16338928D01*
X4102762Y-16538928D02*
X4102762Y-16405595D01*
X4102762Y-16424642D02*
X4112286Y-16415118D01*
X4112286Y-16415118D02*
X4131333Y-16405595D01*
X4131333Y-16405595D02*
X4159905Y-16405595D01*
X4159905Y-16405595D02*
X4178952Y-16415118D01*
X4178952Y-16415118D02*
X4188476Y-16434166D01*
X4188476Y-16434166D02*
X4188476Y-16538928D01*
X4188476Y-16434166D02*
X4198000Y-16415118D01*
X4198000Y-16415118D02*
X4217048Y-16405595D01*
X4217048Y-16405595D02*
X4245619Y-16405595D01*
X4245619Y-16405595D02*
X4264667Y-16415118D01*
X4264667Y-16415118D02*
X4274191Y-16434166D01*
X4274191Y-16434166D02*
X4274191Y-16538928D01*
X4369429Y-16538928D02*
X4369429Y-16405595D01*
X4369429Y-16424642D02*
X4378952Y-16415118D01*
X4378952Y-16415118D02*
X4398000Y-16405595D01*
X4398000Y-16405595D02*
X4426572Y-16405595D01*
X4426572Y-16405595D02*
X4445619Y-16415118D01*
X4445619Y-16415118D02*
X4455143Y-16434166D01*
X4455143Y-16434166D02*
X4455143Y-16538928D01*
X4455143Y-16434166D02*
X4464667Y-16415118D01*
X4464667Y-16415118D02*
X4483714Y-16405595D01*
X4483714Y-16405595D02*
X4512286Y-16405595D01*
X4512286Y-16405595D02*
X4531333Y-16415118D01*
X4531333Y-16415118D02*
X4540857Y-16434166D01*
X4540857Y-16434166D02*
X4540857Y-16538928D01*
X4931333Y-16329404D02*
X4759905Y-16586547D01*
X5188476Y-16338928D02*
X5207524Y-16338928D01*
X5207524Y-16338928D02*
X5226572Y-16348452D01*
X5226572Y-16348452D02*
X5236095Y-16357976D01*
X5236095Y-16357976D02*
X5245619Y-16377023D01*
X5245619Y-16377023D02*
X5255143Y-16415118D01*
X5255143Y-16415118D02*
X5255143Y-16462738D01*
X5255143Y-16462738D02*
X5245619Y-16500833D01*
X5245619Y-16500833D02*
X5236095Y-16519880D01*
X5236095Y-16519880D02*
X5226572Y-16529404D01*
X5226572Y-16529404D02*
X5207524Y-16538928D01*
X5207524Y-16538928D02*
X5188476Y-16538928D01*
X5188476Y-16538928D02*
X5169429Y-16529404D01*
X5169429Y-16529404D02*
X5159905Y-16519880D01*
X5159905Y-16519880D02*
X5150381Y-16500833D01*
X5150381Y-16500833D02*
X5140857Y-16462738D01*
X5140857Y-16462738D02*
X5140857Y-16415118D01*
X5140857Y-16415118D02*
X5150381Y-16377023D01*
X5150381Y-16377023D02*
X5159905Y-16357976D01*
X5159905Y-16357976D02*
X5169429Y-16348452D01*
X5169429Y-16348452D02*
X5188476Y-16338928D01*
X5340857Y-16519880D02*
X5350381Y-16529404D01*
X5350381Y-16529404D02*
X5340857Y-16538928D01*
X5340857Y-16538928D02*
X5331334Y-16529404D01*
X5331334Y-16529404D02*
X5340857Y-16519880D01*
X5340857Y-16519880D02*
X5340857Y-16538928D01*
X5474191Y-16338928D02*
X5493238Y-16338928D01*
X5493238Y-16338928D02*
X5512286Y-16348452D01*
X5512286Y-16348452D02*
X5521810Y-16357976D01*
X5521810Y-16357976D02*
X5531334Y-16377023D01*
X5531334Y-16377023D02*
X5540857Y-16415118D01*
X5540857Y-16415118D02*
X5540857Y-16462738D01*
X5540857Y-16462738D02*
X5531334Y-16500833D01*
X5531334Y-16500833D02*
X5521810Y-16519880D01*
X5521810Y-16519880D02*
X5512286Y-16529404D01*
X5512286Y-16529404D02*
X5493238Y-16538928D01*
X5493238Y-16538928D02*
X5474191Y-16538928D01*
X5474191Y-16538928D02*
X5455143Y-16529404D01*
X5455143Y-16529404D02*
X5445619Y-16519880D01*
X5445619Y-16519880D02*
X5436095Y-16500833D01*
X5436095Y-16500833D02*
X5426572Y-16462738D01*
X5426572Y-16462738D02*
X5426572Y-16415118D01*
X5426572Y-16415118D02*
X5436095Y-16377023D01*
X5436095Y-16377023D02*
X5445619Y-16357976D01*
X5445619Y-16357976D02*
X5455143Y-16348452D01*
X5455143Y-16348452D02*
X5474191Y-16338928D01*
X5607524Y-16338928D02*
X5731333Y-16338928D01*
X5731333Y-16338928D02*
X5664667Y-16415118D01*
X5664667Y-16415118D02*
X5693238Y-16415118D01*
X5693238Y-16415118D02*
X5712286Y-16424642D01*
X5712286Y-16424642D02*
X5721810Y-16434166D01*
X5721810Y-16434166D02*
X5731333Y-16453214D01*
X5731333Y-16453214D02*
X5731333Y-16500833D01*
X5731333Y-16500833D02*
X5721810Y-16519880D01*
X5721810Y-16519880D02*
X5712286Y-16529404D01*
X5712286Y-16529404D02*
X5693238Y-16538928D01*
X5693238Y-16538928D02*
X5636095Y-16538928D01*
X5636095Y-16538928D02*
X5617048Y-16529404D01*
X5617048Y-16529404D02*
X5607524Y-16519880D01*
X5826572Y-16538928D02*
X5864667Y-16538928D01*
X5864667Y-16538928D02*
X5883714Y-16529404D01*
X5883714Y-16529404D02*
X5893238Y-16519880D01*
X5893238Y-16519880D02*
X5912286Y-16491309D01*
X5912286Y-16491309D02*
X5921810Y-16453214D01*
X5921810Y-16453214D02*
X5921810Y-16377023D01*
X5921810Y-16377023D02*
X5912286Y-16357976D01*
X5912286Y-16357976D02*
X5902762Y-16348452D01*
X5902762Y-16348452D02*
X5883714Y-16338928D01*
X5883714Y-16338928D02*
X5845619Y-16338928D01*
X5845619Y-16338928D02*
X5826572Y-16348452D01*
X5826572Y-16348452D02*
X5817048Y-16357976D01*
X5817048Y-16357976D02*
X5807524Y-16377023D01*
X5807524Y-16377023D02*
X5807524Y-16424642D01*
X5807524Y-16424642D02*
X5817048Y-16443690D01*
X5817048Y-16443690D02*
X5826572Y-16453214D01*
X5826572Y-16453214D02*
X5845619Y-16462738D01*
X5845619Y-16462738D02*
X5883714Y-16462738D01*
X5883714Y-16462738D02*
X5902762Y-16453214D01*
X5902762Y-16453214D02*
X5912286Y-16443690D01*
X5912286Y-16443690D02*
X5921810Y-16424642D01*
X6093238Y-16405595D02*
X6093238Y-16538928D01*
X6045619Y-16329404D02*
X5998000Y-16472261D01*
X5998000Y-16472261D02*
X6121810Y-16472261D01*
X6188476Y-16338928D02*
X6188476Y-16377023D01*
X6264667Y-16338928D02*
X6264667Y-16377023D01*
X6559905Y-16615118D02*
X6550381Y-16605595D01*
X6550381Y-16605595D02*
X6531334Y-16577023D01*
X6531334Y-16577023D02*
X6521810Y-16557976D01*
X6521810Y-16557976D02*
X6512286Y-16529404D01*
X6512286Y-16529404D02*
X6502762Y-16481785D01*
X6502762Y-16481785D02*
X6502762Y-16443690D01*
X6502762Y-16443690D02*
X6512286Y-16396071D01*
X6512286Y-16396071D02*
X6521810Y-16367499D01*
X6521810Y-16367499D02*
X6531334Y-16348452D01*
X6531334Y-16348452D02*
X6550381Y-16319880D01*
X6550381Y-16319880D02*
X6559905Y-16310357D01*
X6626572Y-16357976D02*
X6636095Y-16348452D01*
X6636095Y-16348452D02*
X6655143Y-16338928D01*
X6655143Y-16338928D02*
X6702762Y-16338928D01*
X6702762Y-16338928D02*
X6721810Y-16348452D01*
X6721810Y-16348452D02*
X6731334Y-16357976D01*
X6731334Y-16357976D02*
X6740857Y-16377023D01*
X6740857Y-16377023D02*
X6740857Y-16396071D01*
X6740857Y-16396071D02*
X6731334Y-16424642D01*
X6731334Y-16424642D02*
X6617048Y-16538928D01*
X6617048Y-16538928D02*
X6740857Y-16538928D01*
X6978953Y-16538928D02*
X6978953Y-16338928D01*
X7064667Y-16538928D02*
X7064667Y-16434166D01*
X7064667Y-16434166D02*
X7055143Y-16415118D01*
X7055143Y-16415118D02*
X7036096Y-16405595D01*
X7036096Y-16405595D02*
X7007524Y-16405595D01*
X7007524Y-16405595D02*
X6988476Y-16415118D01*
X6988476Y-16415118D02*
X6978953Y-16424642D01*
X7188476Y-16538928D02*
X7169429Y-16529404D01*
X7169429Y-16529404D02*
X7159905Y-16519880D01*
X7159905Y-16519880D02*
X7150381Y-16500833D01*
X7150381Y-16500833D02*
X7150381Y-16443690D01*
X7150381Y-16443690D02*
X7159905Y-16424642D01*
X7159905Y-16424642D02*
X7169429Y-16415118D01*
X7169429Y-16415118D02*
X7188476Y-16405595D01*
X7188476Y-16405595D02*
X7217048Y-16405595D01*
X7217048Y-16405595D02*
X7236096Y-16415118D01*
X7236096Y-16415118D02*
X7245619Y-16424642D01*
X7245619Y-16424642D02*
X7255143Y-16443690D01*
X7255143Y-16443690D02*
X7255143Y-16500833D01*
X7255143Y-16500833D02*
X7245619Y-16519880D01*
X7245619Y-16519880D02*
X7236096Y-16529404D01*
X7236096Y-16529404D02*
X7217048Y-16538928D01*
X7217048Y-16538928D02*
X7188476Y-16538928D01*
X7369429Y-16538928D02*
X7350381Y-16529404D01*
X7350381Y-16529404D02*
X7340857Y-16510357D01*
X7340857Y-16510357D02*
X7340857Y-16338928D01*
X7521810Y-16529404D02*
X7502762Y-16538928D01*
X7502762Y-16538928D02*
X7464667Y-16538928D01*
X7464667Y-16538928D02*
X7445619Y-16529404D01*
X7445619Y-16529404D02*
X7436096Y-16510357D01*
X7436096Y-16510357D02*
X7436096Y-16434166D01*
X7436096Y-16434166D02*
X7445619Y-16415118D01*
X7445619Y-16415118D02*
X7464667Y-16405595D01*
X7464667Y-16405595D02*
X7502762Y-16405595D01*
X7502762Y-16405595D02*
X7521810Y-16415118D01*
X7521810Y-16415118D02*
X7531334Y-16434166D01*
X7531334Y-16434166D02*
X7531334Y-16453214D01*
X7531334Y-16453214D02*
X7436096Y-16472261D01*
X7607524Y-16529404D02*
X7626572Y-16538928D01*
X7626572Y-16538928D02*
X7664667Y-16538928D01*
X7664667Y-16538928D02*
X7683715Y-16529404D01*
X7683715Y-16529404D02*
X7693238Y-16510357D01*
X7693238Y-16510357D02*
X7693238Y-16500833D01*
X7693238Y-16500833D02*
X7683715Y-16481785D01*
X7683715Y-16481785D02*
X7664667Y-16472261D01*
X7664667Y-16472261D02*
X7636096Y-16472261D01*
X7636096Y-16472261D02*
X7617048Y-16462738D01*
X7617048Y-16462738D02*
X7607524Y-16443690D01*
X7607524Y-16443690D02*
X7607524Y-16434166D01*
X7607524Y-16434166D02*
X7617048Y-16415118D01*
X7617048Y-16415118D02*
X7636096Y-16405595D01*
X7636096Y-16405595D02*
X7664667Y-16405595D01*
X7664667Y-16405595D02*
X7683715Y-16415118D01*
X7759905Y-16615118D02*
X7769429Y-16605595D01*
X7769429Y-16605595D02*
X7788477Y-16577023D01*
X7788477Y-16577023D02*
X7798000Y-16557976D01*
X7798000Y-16557976D02*
X7807524Y-16529404D01*
X7807524Y-16529404D02*
X7817048Y-16481785D01*
X7817048Y-16481785D02*
X7817048Y-16443690D01*
X7817048Y-16443690D02*
X7807524Y-16396071D01*
X7807524Y-16396071D02*
X7798000Y-16367499D01*
X7798000Y-16367499D02*
X7788477Y-16348452D01*
X7788477Y-16348452D02*
X7769429Y-16319880D01*
X7769429Y-16319880D02*
X7759905Y-16310357D01*
X8121810Y-16615118D02*
X8112286Y-16605595D01*
X8112286Y-16605595D02*
X8093238Y-16577023D01*
X8093238Y-16577023D02*
X8083715Y-16557976D01*
X8083715Y-16557976D02*
X8074191Y-16529404D01*
X8074191Y-16529404D02*
X8064667Y-16481785D01*
X8064667Y-16481785D02*
X8064667Y-16443690D01*
X8064667Y-16443690D02*
X8074191Y-16396071D01*
X8074191Y-16396071D02*
X8083715Y-16367499D01*
X8083715Y-16367499D02*
X8093238Y-16348452D01*
X8093238Y-16348452D02*
X8112286Y-16319880D01*
X8112286Y-16319880D02*
X8121810Y-16310357D01*
X8198000Y-16405595D02*
X8198000Y-16538928D01*
X8198000Y-16424642D02*
X8207524Y-16415118D01*
X8207524Y-16415118D02*
X8226572Y-16405595D01*
X8226572Y-16405595D02*
X8255143Y-16405595D01*
X8255143Y-16405595D02*
X8274191Y-16415118D01*
X8274191Y-16415118D02*
X8283715Y-16434166D01*
X8283715Y-16434166D02*
X8283715Y-16538928D01*
X8407524Y-16538928D02*
X8388477Y-16529404D01*
X8388477Y-16529404D02*
X8378953Y-16519880D01*
X8378953Y-16519880D02*
X8369429Y-16500833D01*
X8369429Y-16500833D02*
X8369429Y-16443690D01*
X8369429Y-16443690D02*
X8378953Y-16424642D01*
X8378953Y-16424642D02*
X8388477Y-16415118D01*
X8388477Y-16415118D02*
X8407524Y-16405595D01*
X8407524Y-16405595D02*
X8436096Y-16405595D01*
X8436096Y-16405595D02*
X8455143Y-16415118D01*
X8455143Y-16415118D02*
X8464667Y-16424642D01*
X8464667Y-16424642D02*
X8474191Y-16443690D01*
X8474191Y-16443690D02*
X8474191Y-16500833D01*
X8474191Y-16500833D02*
X8464667Y-16519880D01*
X8464667Y-16519880D02*
X8455143Y-16529404D01*
X8455143Y-16529404D02*
X8436096Y-16538928D01*
X8436096Y-16538928D02*
X8407524Y-16538928D01*
X8531334Y-16405595D02*
X8607524Y-16405595D01*
X8559905Y-16338928D02*
X8559905Y-16510357D01*
X8559905Y-16510357D02*
X8569429Y-16529404D01*
X8569429Y-16529404D02*
X8588477Y-16538928D01*
X8588477Y-16538928D02*
X8607524Y-16538928D01*
X8826572Y-16405595D02*
X8826572Y-16605595D01*
X8826572Y-16415118D02*
X8845620Y-16405595D01*
X8845620Y-16405595D02*
X8883715Y-16405595D01*
X8883715Y-16405595D02*
X8902762Y-16415118D01*
X8902762Y-16415118D02*
X8912286Y-16424642D01*
X8912286Y-16424642D02*
X8921810Y-16443690D01*
X8921810Y-16443690D02*
X8921810Y-16500833D01*
X8921810Y-16500833D02*
X8912286Y-16519880D01*
X8912286Y-16519880D02*
X8902762Y-16529404D01*
X8902762Y-16529404D02*
X8883715Y-16538928D01*
X8883715Y-16538928D02*
X8845620Y-16538928D01*
X8845620Y-16538928D02*
X8826572Y-16529404D01*
X9036096Y-16538928D02*
X9017048Y-16529404D01*
X9017048Y-16529404D02*
X9007524Y-16510357D01*
X9007524Y-16510357D02*
X9007524Y-16338928D01*
X9198001Y-16538928D02*
X9198001Y-16434166D01*
X9198001Y-16434166D02*
X9188477Y-16415118D01*
X9188477Y-16415118D02*
X9169429Y-16405595D01*
X9169429Y-16405595D02*
X9131334Y-16405595D01*
X9131334Y-16405595D02*
X9112286Y-16415118D01*
X9198001Y-16529404D02*
X9178953Y-16538928D01*
X9178953Y-16538928D02*
X9131334Y-16538928D01*
X9131334Y-16538928D02*
X9112286Y-16529404D01*
X9112286Y-16529404D02*
X9102762Y-16510357D01*
X9102762Y-16510357D02*
X9102762Y-16491309D01*
X9102762Y-16491309D02*
X9112286Y-16472261D01*
X9112286Y-16472261D02*
X9131334Y-16462738D01*
X9131334Y-16462738D02*
X9178953Y-16462738D01*
X9178953Y-16462738D02*
X9198001Y-16453214D01*
X9264667Y-16405595D02*
X9340858Y-16405595D01*
X9293239Y-16338928D02*
X9293239Y-16510357D01*
X9293239Y-16510357D02*
X9302762Y-16529404D01*
X9302762Y-16529404D02*
X9321810Y-16538928D01*
X9321810Y-16538928D02*
X9340858Y-16538928D01*
X9483715Y-16529404D02*
X9464667Y-16538928D01*
X9464667Y-16538928D02*
X9426572Y-16538928D01*
X9426572Y-16538928D02*
X9407524Y-16529404D01*
X9407524Y-16529404D02*
X9398001Y-16510357D01*
X9398001Y-16510357D02*
X9398001Y-16434166D01*
X9398001Y-16434166D02*
X9407524Y-16415118D01*
X9407524Y-16415118D02*
X9426572Y-16405595D01*
X9426572Y-16405595D02*
X9464667Y-16405595D01*
X9464667Y-16405595D02*
X9483715Y-16415118D01*
X9483715Y-16415118D02*
X9493239Y-16434166D01*
X9493239Y-16434166D02*
X9493239Y-16453214D01*
X9493239Y-16453214D02*
X9398001Y-16472261D01*
X9664667Y-16538928D02*
X9664667Y-16338928D01*
X9664667Y-16529404D02*
X9645620Y-16538928D01*
X9645620Y-16538928D02*
X9607524Y-16538928D01*
X9607524Y-16538928D02*
X9588477Y-16529404D01*
X9588477Y-16529404D02*
X9578953Y-16519880D01*
X9578953Y-16519880D02*
X9569429Y-16500833D01*
X9569429Y-16500833D02*
X9569429Y-16443690D01*
X9569429Y-16443690D02*
X9578953Y-16424642D01*
X9578953Y-16424642D02*
X9588477Y-16415118D01*
X9588477Y-16415118D02*
X9607524Y-16405595D01*
X9607524Y-16405595D02*
X9645620Y-16405595D01*
X9645620Y-16405595D02*
X9664667Y-16415118D01*
X9740858Y-16615118D02*
X9750382Y-16605595D01*
X9750382Y-16605595D02*
X9769429Y-16577023D01*
X9769429Y-16577023D02*
X9778953Y-16557976D01*
X9778953Y-16557976D02*
X9788477Y-16529404D01*
X9788477Y-16529404D02*
X9798001Y-16481785D01*
X9798001Y-16481785D02*
X9798001Y-16443690D01*
X9798001Y-16443690D02*
X9788477Y-16396071D01*
X9788477Y-16396071D02*
X9778953Y-16367499D01*
X9778953Y-16367499D02*
X9769429Y-16348452D01*
X9769429Y-16348452D02*
X9750382Y-16319880D01*
X9750382Y-16319880D02*
X9740858Y-16310357D01*
D13*
X2998000Y-16710404D02*
G75*
G03*
X2998000Y-16710404I-60000J0D01*
G01*
D10*
X3350381Y-16802928D02*
X3236095Y-16802928D01*
X3293238Y-16802928D02*
X3293238Y-16602928D01*
X3293238Y-16602928D02*
X3274190Y-16631499D01*
X3274190Y-16631499D02*
X3255143Y-16650547D01*
X3255143Y-16650547D02*
X3236095Y-16660071D01*
X3436095Y-16783880D02*
X3445619Y-16793404D01*
X3445619Y-16793404D02*
X3436095Y-16802928D01*
X3436095Y-16802928D02*
X3426571Y-16793404D01*
X3426571Y-16793404D02*
X3436095Y-16783880D01*
X3436095Y-16783880D02*
X3436095Y-16802928D01*
X3521809Y-16621976D02*
X3531333Y-16612452D01*
X3531333Y-16612452D02*
X3550381Y-16602928D01*
X3550381Y-16602928D02*
X3598000Y-16602928D01*
X3598000Y-16602928D02*
X3617048Y-16612452D01*
X3617048Y-16612452D02*
X3626571Y-16621976D01*
X3626571Y-16621976D02*
X3636095Y-16641023D01*
X3636095Y-16641023D02*
X3636095Y-16660071D01*
X3636095Y-16660071D02*
X3626571Y-16688642D01*
X3626571Y-16688642D02*
X3512286Y-16802928D01*
X3512286Y-16802928D02*
X3636095Y-16802928D01*
X3759905Y-16602928D02*
X3778952Y-16602928D01*
X3778952Y-16602928D02*
X3798000Y-16612452D01*
X3798000Y-16612452D02*
X3807524Y-16621976D01*
X3807524Y-16621976D02*
X3817048Y-16641023D01*
X3817048Y-16641023D02*
X3826571Y-16679118D01*
X3826571Y-16679118D02*
X3826571Y-16726738D01*
X3826571Y-16726738D02*
X3817048Y-16764833D01*
X3817048Y-16764833D02*
X3807524Y-16783880D01*
X3807524Y-16783880D02*
X3798000Y-16793404D01*
X3798000Y-16793404D02*
X3778952Y-16802928D01*
X3778952Y-16802928D02*
X3759905Y-16802928D01*
X3759905Y-16802928D02*
X3740857Y-16793404D01*
X3740857Y-16793404D02*
X3731333Y-16783880D01*
X3731333Y-16783880D02*
X3721809Y-16764833D01*
X3721809Y-16764833D02*
X3712286Y-16726738D01*
X3712286Y-16726738D02*
X3712286Y-16679118D01*
X3712286Y-16679118D02*
X3721809Y-16641023D01*
X3721809Y-16641023D02*
X3731333Y-16621976D01*
X3731333Y-16621976D02*
X3740857Y-16612452D01*
X3740857Y-16612452D02*
X3759905Y-16602928D01*
X3950381Y-16602928D02*
X3969429Y-16602928D01*
X3969429Y-16602928D02*
X3988476Y-16612452D01*
X3988476Y-16612452D02*
X3998000Y-16621976D01*
X3998000Y-16621976D02*
X4007524Y-16641023D01*
X4007524Y-16641023D02*
X4017048Y-16679118D01*
X4017048Y-16679118D02*
X4017048Y-16726738D01*
X4017048Y-16726738D02*
X4007524Y-16764833D01*
X4007524Y-16764833D02*
X3998000Y-16783880D01*
X3998000Y-16783880D02*
X3988476Y-16793404D01*
X3988476Y-16793404D02*
X3969429Y-16802928D01*
X3969429Y-16802928D02*
X3950381Y-16802928D01*
X3950381Y-16802928D02*
X3931333Y-16793404D01*
X3931333Y-16793404D02*
X3921809Y-16783880D01*
X3921809Y-16783880D02*
X3912286Y-16764833D01*
X3912286Y-16764833D02*
X3902762Y-16726738D01*
X3902762Y-16726738D02*
X3902762Y-16679118D01*
X3902762Y-16679118D02*
X3912286Y-16641023D01*
X3912286Y-16641023D02*
X3921809Y-16621976D01*
X3921809Y-16621976D02*
X3931333Y-16612452D01*
X3931333Y-16612452D02*
X3950381Y-16602928D01*
X4102762Y-16802928D02*
X4102762Y-16669595D01*
X4102762Y-16688642D02*
X4112286Y-16679118D01*
X4112286Y-16679118D02*
X4131333Y-16669595D01*
X4131333Y-16669595D02*
X4159905Y-16669595D01*
X4159905Y-16669595D02*
X4178952Y-16679118D01*
X4178952Y-16679118D02*
X4188476Y-16698166D01*
X4188476Y-16698166D02*
X4188476Y-16802928D01*
X4188476Y-16698166D02*
X4198000Y-16679118D01*
X4198000Y-16679118D02*
X4217048Y-16669595D01*
X4217048Y-16669595D02*
X4245619Y-16669595D01*
X4245619Y-16669595D02*
X4264667Y-16679118D01*
X4264667Y-16679118D02*
X4274191Y-16698166D01*
X4274191Y-16698166D02*
X4274191Y-16802928D01*
X4369429Y-16802928D02*
X4369429Y-16669595D01*
X4369429Y-16688642D02*
X4378952Y-16679118D01*
X4378952Y-16679118D02*
X4398000Y-16669595D01*
X4398000Y-16669595D02*
X4426572Y-16669595D01*
X4426572Y-16669595D02*
X4445619Y-16679118D01*
X4445619Y-16679118D02*
X4455143Y-16698166D01*
X4455143Y-16698166D02*
X4455143Y-16802928D01*
X4455143Y-16698166D02*
X4464667Y-16679118D01*
X4464667Y-16679118D02*
X4483714Y-16669595D01*
X4483714Y-16669595D02*
X4512286Y-16669595D01*
X4512286Y-16669595D02*
X4531333Y-16679118D01*
X4531333Y-16679118D02*
X4540857Y-16698166D01*
X4540857Y-16698166D02*
X4540857Y-16802928D01*
X4931333Y-16593404D02*
X4759905Y-16850547D01*
X5188476Y-16602928D02*
X5207524Y-16602928D01*
X5207524Y-16602928D02*
X5226572Y-16612452D01*
X5226572Y-16612452D02*
X5236095Y-16621976D01*
X5236095Y-16621976D02*
X5245619Y-16641023D01*
X5245619Y-16641023D02*
X5255143Y-16679118D01*
X5255143Y-16679118D02*
X5255143Y-16726738D01*
X5255143Y-16726738D02*
X5245619Y-16764833D01*
X5245619Y-16764833D02*
X5236095Y-16783880D01*
X5236095Y-16783880D02*
X5226572Y-16793404D01*
X5226572Y-16793404D02*
X5207524Y-16802928D01*
X5207524Y-16802928D02*
X5188476Y-16802928D01*
X5188476Y-16802928D02*
X5169429Y-16793404D01*
X5169429Y-16793404D02*
X5159905Y-16783880D01*
X5159905Y-16783880D02*
X5150381Y-16764833D01*
X5150381Y-16764833D02*
X5140857Y-16726738D01*
X5140857Y-16726738D02*
X5140857Y-16679118D01*
X5140857Y-16679118D02*
X5150381Y-16641023D01*
X5150381Y-16641023D02*
X5159905Y-16621976D01*
X5159905Y-16621976D02*
X5169429Y-16612452D01*
X5169429Y-16612452D02*
X5188476Y-16602928D01*
X5340857Y-16783880D02*
X5350381Y-16793404D01*
X5350381Y-16793404D02*
X5340857Y-16802928D01*
X5340857Y-16802928D02*
X5331334Y-16793404D01*
X5331334Y-16793404D02*
X5340857Y-16783880D01*
X5340857Y-16783880D02*
X5340857Y-16802928D01*
X5474191Y-16602928D02*
X5493238Y-16602928D01*
X5493238Y-16602928D02*
X5512286Y-16612452D01*
X5512286Y-16612452D02*
X5521810Y-16621976D01*
X5521810Y-16621976D02*
X5531334Y-16641023D01*
X5531334Y-16641023D02*
X5540857Y-16679118D01*
X5540857Y-16679118D02*
X5540857Y-16726738D01*
X5540857Y-16726738D02*
X5531334Y-16764833D01*
X5531334Y-16764833D02*
X5521810Y-16783880D01*
X5521810Y-16783880D02*
X5512286Y-16793404D01*
X5512286Y-16793404D02*
X5493238Y-16802928D01*
X5493238Y-16802928D02*
X5474191Y-16802928D01*
X5474191Y-16802928D02*
X5455143Y-16793404D01*
X5455143Y-16793404D02*
X5445619Y-16783880D01*
X5445619Y-16783880D02*
X5436095Y-16764833D01*
X5436095Y-16764833D02*
X5426572Y-16726738D01*
X5426572Y-16726738D02*
X5426572Y-16679118D01*
X5426572Y-16679118D02*
X5436095Y-16641023D01*
X5436095Y-16641023D02*
X5445619Y-16621976D01*
X5445619Y-16621976D02*
X5455143Y-16612452D01*
X5455143Y-16612452D02*
X5474191Y-16602928D01*
X5712286Y-16669595D02*
X5712286Y-16802928D01*
X5664667Y-16593404D02*
X5617048Y-16736261D01*
X5617048Y-16736261D02*
X5740857Y-16736261D01*
X5798000Y-16602928D02*
X5931333Y-16602928D01*
X5931333Y-16602928D02*
X5845619Y-16802928D01*
X5998000Y-16621976D02*
X6007524Y-16612452D01*
X6007524Y-16612452D02*
X6026572Y-16602928D01*
X6026572Y-16602928D02*
X6074191Y-16602928D01*
X6074191Y-16602928D02*
X6093238Y-16612452D01*
X6093238Y-16612452D02*
X6102762Y-16621976D01*
X6102762Y-16621976D02*
X6112286Y-16641023D01*
X6112286Y-16641023D02*
X6112286Y-16660071D01*
X6112286Y-16660071D02*
X6102762Y-16688642D01*
X6102762Y-16688642D02*
X5988476Y-16802928D01*
X5988476Y-16802928D02*
X6112286Y-16802928D01*
X6188476Y-16602928D02*
X6188476Y-16641023D01*
X6264667Y-16602928D02*
X6264667Y-16641023D01*
X6559905Y-16879119D02*
X6550381Y-16869595D01*
X6550381Y-16869595D02*
X6531334Y-16841023D01*
X6531334Y-16841023D02*
X6521810Y-16821976D01*
X6521810Y-16821976D02*
X6512286Y-16793404D01*
X6512286Y-16793404D02*
X6502762Y-16745785D01*
X6502762Y-16745785D02*
X6502762Y-16707690D01*
X6502762Y-16707690D02*
X6512286Y-16660071D01*
X6512286Y-16660071D02*
X6521810Y-16631499D01*
X6521810Y-16631499D02*
X6531334Y-16612452D01*
X6531334Y-16612452D02*
X6550381Y-16583880D01*
X6550381Y-16583880D02*
X6559905Y-16574357D01*
X6721810Y-16669595D02*
X6721810Y-16802928D01*
X6674191Y-16593404D02*
X6626572Y-16736261D01*
X6626572Y-16736261D02*
X6750381Y-16736261D01*
X6978953Y-16802928D02*
X6978953Y-16602928D01*
X7064667Y-16802928D02*
X7064667Y-16698166D01*
X7064667Y-16698166D02*
X7055143Y-16679118D01*
X7055143Y-16679118D02*
X7036096Y-16669595D01*
X7036096Y-16669595D02*
X7007524Y-16669595D01*
X7007524Y-16669595D02*
X6988476Y-16679118D01*
X6988476Y-16679118D02*
X6978953Y-16688642D01*
X7188476Y-16802928D02*
X7169429Y-16793404D01*
X7169429Y-16793404D02*
X7159905Y-16783880D01*
X7159905Y-16783880D02*
X7150381Y-16764833D01*
X7150381Y-16764833D02*
X7150381Y-16707690D01*
X7150381Y-16707690D02*
X7159905Y-16688642D01*
X7159905Y-16688642D02*
X7169429Y-16679118D01*
X7169429Y-16679118D02*
X7188476Y-16669595D01*
X7188476Y-16669595D02*
X7217048Y-16669595D01*
X7217048Y-16669595D02*
X7236096Y-16679118D01*
X7236096Y-16679118D02*
X7245619Y-16688642D01*
X7245619Y-16688642D02*
X7255143Y-16707690D01*
X7255143Y-16707690D02*
X7255143Y-16764833D01*
X7255143Y-16764833D02*
X7245619Y-16783880D01*
X7245619Y-16783880D02*
X7236096Y-16793404D01*
X7236096Y-16793404D02*
X7217048Y-16802928D01*
X7217048Y-16802928D02*
X7188476Y-16802928D01*
X7369429Y-16802928D02*
X7350381Y-16793404D01*
X7350381Y-16793404D02*
X7340857Y-16774357D01*
X7340857Y-16774357D02*
X7340857Y-16602928D01*
X7521810Y-16793404D02*
X7502762Y-16802928D01*
X7502762Y-16802928D02*
X7464667Y-16802928D01*
X7464667Y-16802928D02*
X7445619Y-16793404D01*
X7445619Y-16793404D02*
X7436096Y-16774357D01*
X7436096Y-16774357D02*
X7436096Y-16698166D01*
X7436096Y-16698166D02*
X7445619Y-16679118D01*
X7445619Y-16679118D02*
X7464667Y-16669595D01*
X7464667Y-16669595D02*
X7502762Y-16669595D01*
X7502762Y-16669595D02*
X7521810Y-16679118D01*
X7521810Y-16679118D02*
X7531334Y-16698166D01*
X7531334Y-16698166D02*
X7531334Y-16717214D01*
X7531334Y-16717214D02*
X7436096Y-16736261D01*
X7607524Y-16793404D02*
X7626572Y-16802928D01*
X7626572Y-16802928D02*
X7664667Y-16802928D01*
X7664667Y-16802928D02*
X7683715Y-16793404D01*
X7683715Y-16793404D02*
X7693238Y-16774357D01*
X7693238Y-16774357D02*
X7693238Y-16764833D01*
X7693238Y-16764833D02*
X7683715Y-16745785D01*
X7683715Y-16745785D02*
X7664667Y-16736261D01*
X7664667Y-16736261D02*
X7636096Y-16736261D01*
X7636096Y-16736261D02*
X7617048Y-16726738D01*
X7617048Y-16726738D02*
X7607524Y-16707690D01*
X7607524Y-16707690D02*
X7607524Y-16698166D01*
X7607524Y-16698166D02*
X7617048Y-16679118D01*
X7617048Y-16679118D02*
X7636096Y-16669595D01*
X7636096Y-16669595D02*
X7664667Y-16669595D01*
X7664667Y-16669595D02*
X7683715Y-16679118D01*
X7759905Y-16879119D02*
X7769429Y-16869595D01*
X7769429Y-16869595D02*
X7788477Y-16841023D01*
X7788477Y-16841023D02*
X7798000Y-16821976D01*
X7798000Y-16821976D02*
X7807524Y-16793404D01*
X7807524Y-16793404D02*
X7817048Y-16745785D01*
X7817048Y-16745785D02*
X7817048Y-16707690D01*
X7817048Y-16707690D02*
X7807524Y-16660071D01*
X7807524Y-16660071D02*
X7798000Y-16631499D01*
X7798000Y-16631499D02*
X7788477Y-16612452D01*
X7788477Y-16612452D02*
X7769429Y-16583880D01*
X7769429Y-16583880D02*
X7759905Y-16574357D01*
X8121810Y-16879119D02*
X8112286Y-16869595D01*
X8112286Y-16869595D02*
X8093238Y-16841023D01*
X8093238Y-16841023D02*
X8083715Y-16821976D01*
X8083715Y-16821976D02*
X8074191Y-16793404D01*
X8074191Y-16793404D02*
X8064667Y-16745785D01*
X8064667Y-16745785D02*
X8064667Y-16707690D01*
X8064667Y-16707690D02*
X8074191Y-16660071D01*
X8074191Y-16660071D02*
X8083715Y-16631499D01*
X8083715Y-16631499D02*
X8093238Y-16612452D01*
X8093238Y-16612452D02*
X8112286Y-16583880D01*
X8112286Y-16583880D02*
X8121810Y-16574357D01*
X8198000Y-16669595D02*
X8198000Y-16802928D01*
X8198000Y-16688642D02*
X8207524Y-16679118D01*
X8207524Y-16679118D02*
X8226572Y-16669595D01*
X8226572Y-16669595D02*
X8255143Y-16669595D01*
X8255143Y-16669595D02*
X8274191Y-16679118D01*
X8274191Y-16679118D02*
X8283715Y-16698166D01*
X8283715Y-16698166D02*
X8283715Y-16802928D01*
X8407524Y-16802928D02*
X8388477Y-16793404D01*
X8388477Y-16793404D02*
X8378953Y-16783880D01*
X8378953Y-16783880D02*
X8369429Y-16764833D01*
X8369429Y-16764833D02*
X8369429Y-16707690D01*
X8369429Y-16707690D02*
X8378953Y-16688642D01*
X8378953Y-16688642D02*
X8388477Y-16679118D01*
X8388477Y-16679118D02*
X8407524Y-16669595D01*
X8407524Y-16669595D02*
X8436096Y-16669595D01*
X8436096Y-16669595D02*
X8455143Y-16679118D01*
X8455143Y-16679118D02*
X8464667Y-16688642D01*
X8464667Y-16688642D02*
X8474191Y-16707690D01*
X8474191Y-16707690D02*
X8474191Y-16764833D01*
X8474191Y-16764833D02*
X8464667Y-16783880D01*
X8464667Y-16783880D02*
X8455143Y-16793404D01*
X8455143Y-16793404D02*
X8436096Y-16802928D01*
X8436096Y-16802928D02*
X8407524Y-16802928D01*
X8531334Y-16669595D02*
X8607524Y-16669595D01*
X8559905Y-16602928D02*
X8559905Y-16774357D01*
X8559905Y-16774357D02*
X8569429Y-16793404D01*
X8569429Y-16793404D02*
X8588477Y-16802928D01*
X8588477Y-16802928D02*
X8607524Y-16802928D01*
X8826572Y-16669595D02*
X8826572Y-16869595D01*
X8826572Y-16679118D02*
X8845620Y-16669595D01*
X8845620Y-16669595D02*
X8883715Y-16669595D01*
X8883715Y-16669595D02*
X8902762Y-16679118D01*
X8902762Y-16679118D02*
X8912286Y-16688642D01*
X8912286Y-16688642D02*
X8921810Y-16707690D01*
X8921810Y-16707690D02*
X8921810Y-16764833D01*
X8921810Y-16764833D02*
X8912286Y-16783880D01*
X8912286Y-16783880D02*
X8902762Y-16793404D01*
X8902762Y-16793404D02*
X8883715Y-16802928D01*
X8883715Y-16802928D02*
X8845620Y-16802928D01*
X8845620Y-16802928D02*
X8826572Y-16793404D01*
X9036096Y-16802928D02*
X9017048Y-16793404D01*
X9017048Y-16793404D02*
X9007524Y-16774357D01*
X9007524Y-16774357D02*
X9007524Y-16602928D01*
X9198001Y-16802928D02*
X9198001Y-16698166D01*
X9198001Y-16698166D02*
X9188477Y-16679118D01*
X9188477Y-16679118D02*
X9169429Y-16669595D01*
X9169429Y-16669595D02*
X9131334Y-16669595D01*
X9131334Y-16669595D02*
X9112286Y-16679118D01*
X9198001Y-16793404D02*
X9178953Y-16802928D01*
X9178953Y-16802928D02*
X9131334Y-16802928D01*
X9131334Y-16802928D02*
X9112286Y-16793404D01*
X9112286Y-16793404D02*
X9102762Y-16774357D01*
X9102762Y-16774357D02*
X9102762Y-16755309D01*
X9102762Y-16755309D02*
X9112286Y-16736261D01*
X9112286Y-16736261D02*
X9131334Y-16726738D01*
X9131334Y-16726738D02*
X9178953Y-16726738D01*
X9178953Y-16726738D02*
X9198001Y-16717214D01*
X9264667Y-16669595D02*
X9340858Y-16669595D01*
X9293239Y-16602928D02*
X9293239Y-16774357D01*
X9293239Y-16774357D02*
X9302762Y-16793404D01*
X9302762Y-16793404D02*
X9321810Y-16802928D01*
X9321810Y-16802928D02*
X9340858Y-16802928D01*
X9483715Y-16793404D02*
X9464667Y-16802928D01*
X9464667Y-16802928D02*
X9426572Y-16802928D01*
X9426572Y-16802928D02*
X9407524Y-16793404D01*
X9407524Y-16793404D02*
X9398001Y-16774357D01*
X9398001Y-16774357D02*
X9398001Y-16698166D01*
X9398001Y-16698166D02*
X9407524Y-16679118D01*
X9407524Y-16679118D02*
X9426572Y-16669595D01*
X9426572Y-16669595D02*
X9464667Y-16669595D01*
X9464667Y-16669595D02*
X9483715Y-16679118D01*
X9483715Y-16679118D02*
X9493239Y-16698166D01*
X9493239Y-16698166D02*
X9493239Y-16717214D01*
X9493239Y-16717214D02*
X9398001Y-16736261D01*
X9664667Y-16802928D02*
X9664667Y-16602928D01*
X9664667Y-16793404D02*
X9645620Y-16802928D01*
X9645620Y-16802928D02*
X9607524Y-16802928D01*
X9607524Y-16802928D02*
X9588477Y-16793404D01*
X9588477Y-16793404D02*
X9578953Y-16783880D01*
X9578953Y-16783880D02*
X9569429Y-16764833D01*
X9569429Y-16764833D02*
X9569429Y-16707690D01*
X9569429Y-16707690D02*
X9578953Y-16688642D01*
X9578953Y-16688642D02*
X9588477Y-16679118D01*
X9588477Y-16679118D02*
X9607524Y-16669595D01*
X9607524Y-16669595D02*
X9645620Y-16669595D01*
X9645620Y-16669595D02*
X9664667Y-16679118D01*
X9740858Y-16879119D02*
X9750382Y-16869595D01*
X9750382Y-16869595D02*
X9769429Y-16841023D01*
X9769429Y-16841023D02*
X9778953Y-16821976D01*
X9778953Y-16821976D02*
X9788477Y-16793404D01*
X9788477Y-16793404D02*
X9798001Y-16745785D01*
X9798001Y-16745785D02*
X9798001Y-16707690D01*
X9798001Y-16707690D02*
X9788477Y-16660071D01*
X9788477Y-16660071D02*
X9778953Y-16631499D01*
X9778953Y-16631499D02*
X9769429Y-16612452D01*
X9769429Y-16612452D02*
X9750382Y-16583880D01*
X9750382Y-16583880D02*
X9740858Y-16574357D01*
D14*
X2913000Y-16889404D02*
X2913000Y-17059404D01*
X2828000Y-16974404D02*
X2998000Y-16974404D01*
D10*
X3350381Y-17066928D02*
X3236095Y-17066928D01*
X3293238Y-17066928D02*
X3293238Y-16866928D01*
X3293238Y-16866928D02*
X3274190Y-16895500D01*
X3274190Y-16895500D02*
X3255143Y-16914547D01*
X3255143Y-16914547D02*
X3236095Y-16924071D01*
X3436095Y-17047880D02*
X3445619Y-17057404D01*
X3445619Y-17057404D02*
X3436095Y-17066928D01*
X3436095Y-17066928D02*
X3426571Y-17057404D01*
X3426571Y-17057404D02*
X3436095Y-17047880D01*
X3436095Y-17047880D02*
X3436095Y-17066928D01*
X3512286Y-16866928D02*
X3645619Y-16866928D01*
X3645619Y-16866928D02*
X3559905Y-17066928D01*
X3759905Y-16866928D02*
X3778952Y-16866928D01*
X3778952Y-16866928D02*
X3798000Y-16876452D01*
X3798000Y-16876452D02*
X3807524Y-16885976D01*
X3807524Y-16885976D02*
X3817048Y-16905023D01*
X3817048Y-16905023D02*
X3826571Y-16943119D01*
X3826571Y-16943119D02*
X3826571Y-16990738D01*
X3826571Y-16990738D02*
X3817048Y-17028833D01*
X3817048Y-17028833D02*
X3807524Y-17047880D01*
X3807524Y-17047880D02*
X3798000Y-17057404D01*
X3798000Y-17057404D02*
X3778952Y-17066928D01*
X3778952Y-17066928D02*
X3759905Y-17066928D01*
X3759905Y-17066928D02*
X3740857Y-17057404D01*
X3740857Y-17057404D02*
X3731333Y-17047880D01*
X3731333Y-17047880D02*
X3721809Y-17028833D01*
X3721809Y-17028833D02*
X3712286Y-16990738D01*
X3712286Y-16990738D02*
X3712286Y-16943119D01*
X3712286Y-16943119D02*
X3721809Y-16905023D01*
X3721809Y-16905023D02*
X3731333Y-16885976D01*
X3731333Y-16885976D02*
X3740857Y-16876452D01*
X3740857Y-16876452D02*
X3759905Y-16866928D01*
X3950381Y-16866928D02*
X3969429Y-16866928D01*
X3969429Y-16866928D02*
X3988476Y-16876452D01*
X3988476Y-16876452D02*
X3998000Y-16885976D01*
X3998000Y-16885976D02*
X4007524Y-16905023D01*
X4007524Y-16905023D02*
X4017048Y-16943119D01*
X4017048Y-16943119D02*
X4017048Y-16990738D01*
X4017048Y-16990738D02*
X4007524Y-17028833D01*
X4007524Y-17028833D02*
X3998000Y-17047880D01*
X3998000Y-17047880D02*
X3988476Y-17057404D01*
X3988476Y-17057404D02*
X3969429Y-17066928D01*
X3969429Y-17066928D02*
X3950381Y-17066928D01*
X3950381Y-17066928D02*
X3931333Y-17057404D01*
X3931333Y-17057404D02*
X3921809Y-17047880D01*
X3921809Y-17047880D02*
X3912286Y-17028833D01*
X3912286Y-17028833D02*
X3902762Y-16990738D01*
X3902762Y-16990738D02*
X3902762Y-16943119D01*
X3902762Y-16943119D02*
X3912286Y-16905023D01*
X3912286Y-16905023D02*
X3921809Y-16885976D01*
X3921809Y-16885976D02*
X3931333Y-16876452D01*
X3931333Y-16876452D02*
X3950381Y-16866928D01*
X4102762Y-17066928D02*
X4102762Y-16933595D01*
X4102762Y-16952642D02*
X4112286Y-16943119D01*
X4112286Y-16943119D02*
X4131333Y-16933595D01*
X4131333Y-16933595D02*
X4159905Y-16933595D01*
X4159905Y-16933595D02*
X4178952Y-16943119D01*
X4178952Y-16943119D02*
X4188476Y-16962166D01*
X4188476Y-16962166D02*
X4188476Y-17066928D01*
X4188476Y-16962166D02*
X4198000Y-16943119D01*
X4198000Y-16943119D02*
X4217048Y-16933595D01*
X4217048Y-16933595D02*
X4245619Y-16933595D01*
X4245619Y-16933595D02*
X4264667Y-16943119D01*
X4264667Y-16943119D02*
X4274191Y-16962166D01*
X4274191Y-16962166D02*
X4274191Y-17066928D01*
X4369429Y-17066928D02*
X4369429Y-16933595D01*
X4369429Y-16952642D02*
X4378952Y-16943119D01*
X4378952Y-16943119D02*
X4398000Y-16933595D01*
X4398000Y-16933595D02*
X4426572Y-16933595D01*
X4426572Y-16933595D02*
X4445619Y-16943119D01*
X4445619Y-16943119D02*
X4455143Y-16962166D01*
X4455143Y-16962166D02*
X4455143Y-17066928D01*
X4455143Y-16962166D02*
X4464667Y-16943119D01*
X4464667Y-16943119D02*
X4483714Y-16933595D01*
X4483714Y-16933595D02*
X4512286Y-16933595D01*
X4512286Y-16933595D02*
X4531333Y-16943119D01*
X4531333Y-16943119D02*
X4540857Y-16962166D01*
X4540857Y-16962166D02*
X4540857Y-17066928D01*
X4931333Y-16857404D02*
X4759905Y-17114547D01*
X5188476Y-16866928D02*
X5207524Y-16866928D01*
X5207524Y-16866928D02*
X5226572Y-16876452D01*
X5226572Y-16876452D02*
X5236095Y-16885976D01*
X5236095Y-16885976D02*
X5245619Y-16905023D01*
X5245619Y-16905023D02*
X5255143Y-16943119D01*
X5255143Y-16943119D02*
X5255143Y-16990738D01*
X5255143Y-16990738D02*
X5245619Y-17028833D01*
X5245619Y-17028833D02*
X5236095Y-17047880D01*
X5236095Y-17047880D02*
X5226572Y-17057404D01*
X5226572Y-17057404D02*
X5207524Y-17066928D01*
X5207524Y-17066928D02*
X5188476Y-17066928D01*
X5188476Y-17066928D02*
X5169429Y-17057404D01*
X5169429Y-17057404D02*
X5159905Y-17047880D01*
X5159905Y-17047880D02*
X5150381Y-17028833D01*
X5150381Y-17028833D02*
X5140857Y-16990738D01*
X5140857Y-16990738D02*
X5140857Y-16943119D01*
X5140857Y-16943119D02*
X5150381Y-16905023D01*
X5150381Y-16905023D02*
X5159905Y-16885976D01*
X5159905Y-16885976D02*
X5169429Y-16876452D01*
X5169429Y-16876452D02*
X5188476Y-16866928D01*
X5340857Y-17047880D02*
X5350381Y-17057404D01*
X5350381Y-17057404D02*
X5340857Y-17066928D01*
X5340857Y-17066928D02*
X5331334Y-17057404D01*
X5331334Y-17057404D02*
X5340857Y-17047880D01*
X5340857Y-17047880D02*
X5340857Y-17066928D01*
X5474191Y-16866928D02*
X5493238Y-16866928D01*
X5493238Y-16866928D02*
X5512286Y-16876452D01*
X5512286Y-16876452D02*
X5521810Y-16885976D01*
X5521810Y-16885976D02*
X5531334Y-16905023D01*
X5531334Y-16905023D02*
X5540857Y-16943119D01*
X5540857Y-16943119D02*
X5540857Y-16990738D01*
X5540857Y-16990738D02*
X5531334Y-17028833D01*
X5531334Y-17028833D02*
X5521810Y-17047880D01*
X5521810Y-17047880D02*
X5512286Y-17057404D01*
X5512286Y-17057404D02*
X5493238Y-17066928D01*
X5493238Y-17066928D02*
X5474191Y-17066928D01*
X5474191Y-17066928D02*
X5455143Y-17057404D01*
X5455143Y-17057404D02*
X5445619Y-17047880D01*
X5445619Y-17047880D02*
X5436095Y-17028833D01*
X5436095Y-17028833D02*
X5426572Y-16990738D01*
X5426572Y-16990738D02*
X5426572Y-16943119D01*
X5426572Y-16943119D02*
X5436095Y-16905023D01*
X5436095Y-16905023D02*
X5445619Y-16885976D01*
X5445619Y-16885976D02*
X5455143Y-16876452D01*
X5455143Y-16876452D02*
X5474191Y-16866928D01*
X5712286Y-16866928D02*
X5674191Y-16866928D01*
X5674191Y-16866928D02*
X5655143Y-16876452D01*
X5655143Y-16876452D02*
X5645619Y-16885976D01*
X5645619Y-16885976D02*
X5626572Y-16914547D01*
X5626572Y-16914547D02*
X5617048Y-16952642D01*
X5617048Y-16952642D02*
X5617048Y-17028833D01*
X5617048Y-17028833D02*
X5626572Y-17047880D01*
X5626572Y-17047880D02*
X5636095Y-17057404D01*
X5636095Y-17057404D02*
X5655143Y-17066928D01*
X5655143Y-17066928D02*
X5693238Y-17066928D01*
X5693238Y-17066928D02*
X5712286Y-17057404D01*
X5712286Y-17057404D02*
X5721810Y-17047880D01*
X5721810Y-17047880D02*
X5731333Y-17028833D01*
X5731333Y-17028833D02*
X5731333Y-16981214D01*
X5731333Y-16981214D02*
X5721810Y-16962166D01*
X5721810Y-16962166D02*
X5712286Y-16952642D01*
X5712286Y-16952642D02*
X5693238Y-16943119D01*
X5693238Y-16943119D02*
X5655143Y-16943119D01*
X5655143Y-16943119D02*
X5636095Y-16952642D01*
X5636095Y-16952642D02*
X5626572Y-16962166D01*
X5626572Y-16962166D02*
X5617048Y-16981214D01*
X5902762Y-16866928D02*
X5864667Y-16866928D01*
X5864667Y-16866928D02*
X5845619Y-16876452D01*
X5845619Y-16876452D02*
X5836095Y-16885976D01*
X5836095Y-16885976D02*
X5817048Y-16914547D01*
X5817048Y-16914547D02*
X5807524Y-16952642D01*
X5807524Y-16952642D02*
X5807524Y-17028833D01*
X5807524Y-17028833D02*
X5817048Y-17047880D01*
X5817048Y-17047880D02*
X5826572Y-17057404D01*
X5826572Y-17057404D02*
X5845619Y-17066928D01*
X5845619Y-17066928D02*
X5883714Y-17066928D01*
X5883714Y-17066928D02*
X5902762Y-17057404D01*
X5902762Y-17057404D02*
X5912286Y-17047880D01*
X5912286Y-17047880D02*
X5921810Y-17028833D01*
X5921810Y-17028833D02*
X5921810Y-16981214D01*
X5921810Y-16981214D02*
X5912286Y-16962166D01*
X5912286Y-16962166D02*
X5902762Y-16952642D01*
X5902762Y-16952642D02*
X5883714Y-16943119D01*
X5883714Y-16943119D02*
X5845619Y-16943119D01*
X5845619Y-16943119D02*
X5826572Y-16952642D01*
X5826572Y-16952642D02*
X5817048Y-16962166D01*
X5817048Y-16962166D02*
X5807524Y-16981214D01*
X6017048Y-17066928D02*
X6055143Y-17066928D01*
X6055143Y-17066928D02*
X6074191Y-17057404D01*
X6074191Y-17057404D02*
X6083714Y-17047880D01*
X6083714Y-17047880D02*
X6102762Y-17019309D01*
X6102762Y-17019309D02*
X6112286Y-16981214D01*
X6112286Y-16981214D02*
X6112286Y-16905023D01*
X6112286Y-16905023D02*
X6102762Y-16885976D01*
X6102762Y-16885976D02*
X6093238Y-16876452D01*
X6093238Y-16876452D02*
X6074191Y-16866928D01*
X6074191Y-16866928D02*
X6036095Y-16866928D01*
X6036095Y-16866928D02*
X6017048Y-16876452D01*
X6017048Y-16876452D02*
X6007524Y-16885976D01*
X6007524Y-16885976D02*
X5998000Y-16905023D01*
X5998000Y-16905023D02*
X5998000Y-16952642D01*
X5998000Y-16952642D02*
X6007524Y-16971690D01*
X6007524Y-16971690D02*
X6017048Y-16981214D01*
X6017048Y-16981214D02*
X6036095Y-16990738D01*
X6036095Y-16990738D02*
X6074191Y-16990738D01*
X6074191Y-16990738D02*
X6093238Y-16981214D01*
X6093238Y-16981214D02*
X6102762Y-16971690D01*
X6102762Y-16971690D02*
X6112286Y-16952642D01*
X6188476Y-16866928D02*
X6188476Y-16905023D01*
X6264667Y-16866928D02*
X6264667Y-16905023D01*
X6559905Y-17143119D02*
X6550381Y-17133595D01*
X6550381Y-17133595D02*
X6531334Y-17105023D01*
X6531334Y-17105023D02*
X6521810Y-17085976D01*
X6521810Y-17085976D02*
X6512286Y-17057404D01*
X6512286Y-17057404D02*
X6502762Y-17009785D01*
X6502762Y-17009785D02*
X6502762Y-16971690D01*
X6502762Y-16971690D02*
X6512286Y-16924071D01*
X6512286Y-16924071D02*
X6521810Y-16895500D01*
X6521810Y-16895500D02*
X6531334Y-16876452D01*
X6531334Y-16876452D02*
X6550381Y-16847880D01*
X6550381Y-16847880D02*
X6559905Y-16838357D01*
X6617048Y-16866928D02*
X6740857Y-16866928D01*
X6740857Y-16866928D02*
X6674191Y-16943119D01*
X6674191Y-16943119D02*
X6702762Y-16943119D01*
X6702762Y-16943119D02*
X6721810Y-16952642D01*
X6721810Y-16952642D02*
X6731334Y-16962166D01*
X6731334Y-16962166D02*
X6740857Y-16981214D01*
X6740857Y-16981214D02*
X6740857Y-17028833D01*
X6740857Y-17028833D02*
X6731334Y-17047880D01*
X6731334Y-17047880D02*
X6721810Y-17057404D01*
X6721810Y-17057404D02*
X6702762Y-17066928D01*
X6702762Y-17066928D02*
X6645619Y-17066928D01*
X6645619Y-17066928D02*
X6626572Y-17057404D01*
X6626572Y-17057404D02*
X6617048Y-17047880D01*
X6912286Y-16866928D02*
X6874191Y-16866928D01*
X6874191Y-16866928D02*
X6855143Y-16876452D01*
X6855143Y-16876452D02*
X6845619Y-16885976D01*
X6845619Y-16885976D02*
X6826572Y-16914547D01*
X6826572Y-16914547D02*
X6817048Y-16952642D01*
X6817048Y-16952642D02*
X6817048Y-17028833D01*
X6817048Y-17028833D02*
X6826572Y-17047880D01*
X6826572Y-17047880D02*
X6836095Y-17057404D01*
X6836095Y-17057404D02*
X6855143Y-17066928D01*
X6855143Y-17066928D02*
X6893238Y-17066928D01*
X6893238Y-17066928D02*
X6912286Y-17057404D01*
X6912286Y-17057404D02*
X6921810Y-17047880D01*
X6921810Y-17047880D02*
X6931334Y-17028833D01*
X6931334Y-17028833D02*
X6931334Y-16981214D01*
X6931334Y-16981214D02*
X6921810Y-16962166D01*
X6921810Y-16962166D02*
X6912286Y-16952642D01*
X6912286Y-16952642D02*
X6893238Y-16943119D01*
X6893238Y-16943119D02*
X6855143Y-16943119D01*
X6855143Y-16943119D02*
X6836095Y-16952642D01*
X6836095Y-16952642D02*
X6826572Y-16962166D01*
X6826572Y-16962166D02*
X6817048Y-16981214D01*
X7169429Y-17066928D02*
X7169429Y-16866928D01*
X7255143Y-17066928D02*
X7255143Y-16962166D01*
X7255143Y-16962166D02*
X7245619Y-16943119D01*
X7245619Y-16943119D02*
X7226572Y-16933595D01*
X7226572Y-16933595D02*
X7198000Y-16933595D01*
X7198000Y-16933595D02*
X7178953Y-16943119D01*
X7178953Y-16943119D02*
X7169429Y-16952642D01*
X7378953Y-17066928D02*
X7359905Y-17057404D01*
X7359905Y-17057404D02*
X7350381Y-17047880D01*
X7350381Y-17047880D02*
X7340857Y-17028833D01*
X7340857Y-17028833D02*
X7340857Y-16971690D01*
X7340857Y-16971690D02*
X7350381Y-16952642D01*
X7350381Y-16952642D02*
X7359905Y-16943119D01*
X7359905Y-16943119D02*
X7378953Y-16933595D01*
X7378953Y-16933595D02*
X7407524Y-16933595D01*
X7407524Y-16933595D02*
X7426572Y-16943119D01*
X7426572Y-16943119D02*
X7436096Y-16952642D01*
X7436096Y-16952642D02*
X7445619Y-16971690D01*
X7445619Y-16971690D02*
X7445619Y-17028833D01*
X7445619Y-17028833D02*
X7436096Y-17047880D01*
X7436096Y-17047880D02*
X7426572Y-17057404D01*
X7426572Y-17057404D02*
X7407524Y-17066928D01*
X7407524Y-17066928D02*
X7378953Y-17066928D01*
X7559905Y-17066928D02*
X7540857Y-17057404D01*
X7540857Y-17057404D02*
X7531334Y-17038357D01*
X7531334Y-17038357D02*
X7531334Y-16866928D01*
X7712286Y-17057404D02*
X7693238Y-17066928D01*
X7693238Y-17066928D02*
X7655143Y-17066928D01*
X7655143Y-17066928D02*
X7636096Y-17057404D01*
X7636096Y-17057404D02*
X7626572Y-17038357D01*
X7626572Y-17038357D02*
X7626572Y-16962166D01*
X7626572Y-16962166D02*
X7636096Y-16943119D01*
X7636096Y-16943119D02*
X7655143Y-16933595D01*
X7655143Y-16933595D02*
X7693238Y-16933595D01*
X7693238Y-16933595D02*
X7712286Y-16943119D01*
X7712286Y-16943119D02*
X7721810Y-16962166D01*
X7721810Y-16962166D02*
X7721810Y-16981214D01*
X7721810Y-16981214D02*
X7626572Y-17000261D01*
X7798000Y-17057404D02*
X7817048Y-17066928D01*
X7817048Y-17066928D02*
X7855143Y-17066928D01*
X7855143Y-17066928D02*
X7874191Y-17057404D01*
X7874191Y-17057404D02*
X7883715Y-17038357D01*
X7883715Y-17038357D02*
X7883715Y-17028833D01*
X7883715Y-17028833D02*
X7874191Y-17009785D01*
X7874191Y-17009785D02*
X7855143Y-17000261D01*
X7855143Y-17000261D02*
X7826572Y-17000261D01*
X7826572Y-17000261D02*
X7807524Y-16990738D01*
X7807524Y-16990738D02*
X7798000Y-16971690D01*
X7798000Y-16971690D02*
X7798000Y-16962166D01*
X7798000Y-16962166D02*
X7807524Y-16943119D01*
X7807524Y-16943119D02*
X7826572Y-16933595D01*
X7826572Y-16933595D02*
X7855143Y-16933595D01*
X7855143Y-16933595D02*
X7874191Y-16943119D01*
X7950381Y-17143119D02*
X7959905Y-17133595D01*
X7959905Y-17133595D02*
X7978953Y-17105023D01*
X7978953Y-17105023D02*
X7988477Y-17085976D01*
X7988477Y-17085976D02*
X7998000Y-17057404D01*
X7998000Y-17057404D02*
X8007524Y-17009785D01*
X8007524Y-17009785D02*
X8007524Y-16971690D01*
X8007524Y-16971690D02*
X7998000Y-16924071D01*
X7998000Y-16924071D02*
X7988477Y-16895500D01*
X7988477Y-16895500D02*
X7978953Y-16876452D01*
X7978953Y-16876452D02*
X7959905Y-16847880D01*
X7959905Y-16847880D02*
X7950381Y-16838357D01*
X8312286Y-17143119D02*
X8302762Y-17133595D01*
X8302762Y-17133595D02*
X8283715Y-17105023D01*
X8283715Y-17105023D02*
X8274191Y-17085976D01*
X8274191Y-17085976D02*
X8264667Y-17057404D01*
X8264667Y-17057404D02*
X8255143Y-17009785D01*
X8255143Y-17009785D02*
X8255143Y-16971690D01*
X8255143Y-16971690D02*
X8264667Y-16924071D01*
X8264667Y-16924071D02*
X8274191Y-16895500D01*
X8274191Y-16895500D02*
X8283715Y-16876452D01*
X8283715Y-16876452D02*
X8302762Y-16847880D01*
X8302762Y-16847880D02*
X8312286Y-16838357D01*
X8388477Y-16933595D02*
X8388477Y-17066928D01*
X8388477Y-16952642D02*
X8398000Y-16943119D01*
X8398000Y-16943119D02*
X8417048Y-16933595D01*
X8417048Y-16933595D02*
X8445620Y-16933595D01*
X8445620Y-16933595D02*
X8464667Y-16943119D01*
X8464667Y-16943119D02*
X8474191Y-16962166D01*
X8474191Y-16962166D02*
X8474191Y-17066928D01*
X8598000Y-17066928D02*
X8578953Y-17057404D01*
X8578953Y-17057404D02*
X8569429Y-17047880D01*
X8569429Y-17047880D02*
X8559905Y-17028833D01*
X8559905Y-17028833D02*
X8559905Y-16971690D01*
X8559905Y-16971690D02*
X8569429Y-16952642D01*
X8569429Y-16952642D02*
X8578953Y-16943119D01*
X8578953Y-16943119D02*
X8598000Y-16933595D01*
X8598000Y-16933595D02*
X8626572Y-16933595D01*
X8626572Y-16933595D02*
X8645620Y-16943119D01*
X8645620Y-16943119D02*
X8655143Y-16952642D01*
X8655143Y-16952642D02*
X8664667Y-16971690D01*
X8664667Y-16971690D02*
X8664667Y-17028833D01*
X8664667Y-17028833D02*
X8655143Y-17047880D01*
X8655143Y-17047880D02*
X8645620Y-17057404D01*
X8645620Y-17057404D02*
X8626572Y-17066928D01*
X8626572Y-17066928D02*
X8598000Y-17066928D01*
X8721810Y-16933595D02*
X8798000Y-16933595D01*
X8750381Y-16866928D02*
X8750381Y-17038357D01*
X8750381Y-17038357D02*
X8759905Y-17057404D01*
X8759905Y-17057404D02*
X8778953Y-17066928D01*
X8778953Y-17066928D02*
X8798000Y-17066928D01*
X9017048Y-16933595D02*
X9017048Y-17133595D01*
X9017048Y-16943119D02*
X9036096Y-16933595D01*
X9036096Y-16933595D02*
X9074191Y-16933595D01*
X9074191Y-16933595D02*
X9093239Y-16943119D01*
X9093239Y-16943119D02*
X9102762Y-16952642D01*
X9102762Y-16952642D02*
X9112286Y-16971690D01*
X9112286Y-16971690D02*
X9112286Y-17028833D01*
X9112286Y-17028833D02*
X9102762Y-17047880D01*
X9102762Y-17047880D02*
X9093239Y-17057404D01*
X9093239Y-17057404D02*
X9074191Y-17066928D01*
X9074191Y-17066928D02*
X9036096Y-17066928D01*
X9036096Y-17066928D02*
X9017048Y-17057404D01*
X9226572Y-17066928D02*
X9207524Y-17057404D01*
X9207524Y-17057404D02*
X9198001Y-17038357D01*
X9198001Y-17038357D02*
X9198001Y-16866928D01*
X9388477Y-17066928D02*
X9388477Y-16962166D01*
X9388477Y-16962166D02*
X9378953Y-16943119D01*
X9378953Y-16943119D02*
X9359905Y-16933595D01*
X9359905Y-16933595D02*
X9321810Y-16933595D01*
X9321810Y-16933595D02*
X9302762Y-16943119D01*
X9388477Y-17057404D02*
X9369429Y-17066928D01*
X9369429Y-17066928D02*
X9321810Y-17066928D01*
X9321810Y-17066928D02*
X9302762Y-17057404D01*
X9302762Y-17057404D02*
X9293239Y-17038357D01*
X9293239Y-17038357D02*
X9293239Y-17019309D01*
X9293239Y-17019309D02*
X9302762Y-17000261D01*
X9302762Y-17000261D02*
X9321810Y-16990738D01*
X9321810Y-16990738D02*
X9369429Y-16990738D01*
X9369429Y-16990738D02*
X9388477Y-16981214D01*
X9455143Y-16933595D02*
X9531334Y-16933595D01*
X9483715Y-16866928D02*
X9483715Y-17038357D01*
X9483715Y-17038357D02*
X9493239Y-17057404D01*
X9493239Y-17057404D02*
X9512286Y-17066928D01*
X9512286Y-17066928D02*
X9531334Y-17066928D01*
X9674191Y-17057404D02*
X9655143Y-17066928D01*
X9655143Y-17066928D02*
X9617048Y-17066928D01*
X9617048Y-17066928D02*
X9598001Y-17057404D01*
X9598001Y-17057404D02*
X9588477Y-17038357D01*
X9588477Y-17038357D02*
X9588477Y-16962166D01*
X9588477Y-16962166D02*
X9598001Y-16943119D01*
X9598001Y-16943119D02*
X9617048Y-16933595D01*
X9617048Y-16933595D02*
X9655143Y-16933595D01*
X9655143Y-16933595D02*
X9674191Y-16943119D01*
X9674191Y-16943119D02*
X9683715Y-16962166D01*
X9683715Y-16962166D02*
X9683715Y-16981214D01*
X9683715Y-16981214D02*
X9588477Y-17000261D01*
X9855143Y-17066928D02*
X9855143Y-16866928D01*
X9855143Y-17057404D02*
X9836096Y-17066928D01*
X9836096Y-17066928D02*
X9798001Y-17066928D01*
X9798001Y-17066928D02*
X9778953Y-17057404D01*
X9778953Y-17057404D02*
X9769429Y-17047880D01*
X9769429Y-17047880D02*
X9759905Y-17028833D01*
X9759905Y-17028833D02*
X9759905Y-16971690D01*
X9759905Y-16971690D02*
X9769429Y-16952642D01*
X9769429Y-16952642D02*
X9778953Y-16943119D01*
X9778953Y-16943119D02*
X9798001Y-16933595D01*
X9798001Y-16933595D02*
X9836096Y-16933595D01*
X9836096Y-16933595D02*
X9855143Y-16943119D01*
X9931334Y-17143119D02*
X9940858Y-17133595D01*
X9940858Y-17133595D02*
X9959905Y-17105023D01*
X9959905Y-17105023D02*
X9969429Y-17085976D01*
X9969429Y-17085976D02*
X9978953Y-17057404D01*
X9978953Y-17057404D02*
X9988477Y-17009785D01*
X9988477Y-17009785D02*
X9988477Y-16971690D01*
X9988477Y-16971690D02*
X9978953Y-16924071D01*
X9978953Y-16924071D02*
X9969429Y-16895500D01*
X9969429Y-16895500D02*
X9959905Y-16876452D01*
X9959905Y-16876452D02*
X9940858Y-16847880D01*
X9940858Y-16847880D02*
X9931334Y-16838357D01*
X2968711Y-17335116D02*
X2968711Y-17193693D01*
X2827289Y-17193693D01*
X2827289Y-17335116D01*
X2968711Y-17335116D01*
X3226571Y-17156928D02*
X3350381Y-17156928D01*
X3350381Y-17156928D02*
X3283714Y-17233119D01*
X3283714Y-17233119D02*
X3312286Y-17233119D01*
X3312286Y-17233119D02*
X3331333Y-17242642D01*
X3331333Y-17242642D02*
X3340857Y-17252166D01*
X3340857Y-17252166D02*
X3350381Y-17271214D01*
X3350381Y-17271214D02*
X3350381Y-17318833D01*
X3350381Y-17318833D02*
X3340857Y-17337880D01*
X3340857Y-17337880D02*
X3331333Y-17347404D01*
X3331333Y-17347404D02*
X3312286Y-17356928D01*
X3312286Y-17356928D02*
X3255143Y-17356928D01*
X3255143Y-17356928D02*
X3236095Y-17347404D01*
X3236095Y-17347404D02*
X3226571Y-17337880D01*
X3436095Y-17337880D02*
X3445619Y-17347404D01*
X3445619Y-17347404D02*
X3436095Y-17356928D01*
X3436095Y-17356928D02*
X3426571Y-17347404D01*
X3426571Y-17347404D02*
X3436095Y-17337880D01*
X3436095Y-17337880D02*
X3436095Y-17356928D01*
X3569428Y-17156928D02*
X3588476Y-17156928D01*
X3588476Y-17156928D02*
X3607524Y-17166452D01*
X3607524Y-17166452D02*
X3617048Y-17175976D01*
X3617048Y-17175976D02*
X3626571Y-17195023D01*
X3626571Y-17195023D02*
X3636095Y-17233119D01*
X3636095Y-17233119D02*
X3636095Y-17280738D01*
X3636095Y-17280738D02*
X3626571Y-17318833D01*
X3626571Y-17318833D02*
X3617048Y-17337880D01*
X3617048Y-17337880D02*
X3607524Y-17347404D01*
X3607524Y-17347404D02*
X3588476Y-17356928D01*
X3588476Y-17356928D02*
X3569428Y-17356928D01*
X3569428Y-17356928D02*
X3550381Y-17347404D01*
X3550381Y-17347404D02*
X3540857Y-17337880D01*
X3540857Y-17337880D02*
X3531333Y-17318833D01*
X3531333Y-17318833D02*
X3521809Y-17280738D01*
X3521809Y-17280738D02*
X3521809Y-17233119D01*
X3521809Y-17233119D02*
X3531333Y-17195023D01*
X3531333Y-17195023D02*
X3540857Y-17175976D01*
X3540857Y-17175976D02*
X3550381Y-17166452D01*
X3550381Y-17166452D02*
X3569428Y-17156928D01*
X3759905Y-17156928D02*
X3778952Y-17156928D01*
X3778952Y-17156928D02*
X3798000Y-17166452D01*
X3798000Y-17166452D02*
X3807524Y-17175976D01*
X3807524Y-17175976D02*
X3817048Y-17195023D01*
X3817048Y-17195023D02*
X3826571Y-17233119D01*
X3826571Y-17233119D02*
X3826571Y-17280738D01*
X3826571Y-17280738D02*
X3817048Y-17318833D01*
X3817048Y-17318833D02*
X3807524Y-17337880D01*
X3807524Y-17337880D02*
X3798000Y-17347404D01*
X3798000Y-17347404D02*
X3778952Y-17356928D01*
X3778952Y-17356928D02*
X3759905Y-17356928D01*
X3759905Y-17356928D02*
X3740857Y-17347404D01*
X3740857Y-17347404D02*
X3731333Y-17337880D01*
X3731333Y-17337880D02*
X3721809Y-17318833D01*
X3721809Y-17318833D02*
X3712286Y-17280738D01*
X3712286Y-17280738D02*
X3712286Y-17233119D01*
X3712286Y-17233119D02*
X3721809Y-17195023D01*
X3721809Y-17195023D02*
X3731333Y-17175976D01*
X3731333Y-17175976D02*
X3740857Y-17166452D01*
X3740857Y-17166452D02*
X3759905Y-17156928D01*
X3950381Y-17156928D02*
X3969429Y-17156928D01*
X3969429Y-17156928D02*
X3988476Y-17166452D01*
X3988476Y-17166452D02*
X3998000Y-17175976D01*
X3998000Y-17175976D02*
X4007524Y-17195023D01*
X4007524Y-17195023D02*
X4017048Y-17233119D01*
X4017048Y-17233119D02*
X4017048Y-17280738D01*
X4017048Y-17280738D02*
X4007524Y-17318833D01*
X4007524Y-17318833D02*
X3998000Y-17337880D01*
X3998000Y-17337880D02*
X3988476Y-17347404D01*
X3988476Y-17347404D02*
X3969429Y-17356928D01*
X3969429Y-17356928D02*
X3950381Y-17356928D01*
X3950381Y-17356928D02*
X3931333Y-17347404D01*
X3931333Y-17347404D02*
X3921809Y-17337880D01*
X3921809Y-17337880D02*
X3912286Y-17318833D01*
X3912286Y-17318833D02*
X3902762Y-17280738D01*
X3902762Y-17280738D02*
X3902762Y-17233119D01*
X3902762Y-17233119D02*
X3912286Y-17195023D01*
X3912286Y-17195023D02*
X3921809Y-17175976D01*
X3921809Y-17175976D02*
X3931333Y-17166452D01*
X3931333Y-17166452D02*
X3950381Y-17156928D01*
X4102762Y-17356928D02*
X4102762Y-17223595D01*
X4102762Y-17242642D02*
X4112286Y-17233119D01*
X4112286Y-17233119D02*
X4131333Y-17223595D01*
X4131333Y-17223595D02*
X4159905Y-17223595D01*
X4159905Y-17223595D02*
X4178952Y-17233119D01*
X4178952Y-17233119D02*
X4188476Y-17252166D01*
X4188476Y-17252166D02*
X4188476Y-17356928D01*
X4188476Y-17252166D02*
X4198000Y-17233119D01*
X4198000Y-17233119D02*
X4217048Y-17223595D01*
X4217048Y-17223595D02*
X4245619Y-17223595D01*
X4245619Y-17223595D02*
X4264667Y-17233119D01*
X4264667Y-17233119D02*
X4274191Y-17252166D01*
X4274191Y-17252166D02*
X4274191Y-17356928D01*
X4369429Y-17356928D02*
X4369429Y-17223595D01*
X4369429Y-17242642D02*
X4378952Y-17233119D01*
X4378952Y-17233119D02*
X4398000Y-17223595D01*
X4398000Y-17223595D02*
X4426572Y-17223595D01*
X4426572Y-17223595D02*
X4445619Y-17233119D01*
X4445619Y-17233119D02*
X4455143Y-17252166D01*
X4455143Y-17252166D02*
X4455143Y-17356928D01*
X4455143Y-17252166D02*
X4464667Y-17233119D01*
X4464667Y-17233119D02*
X4483714Y-17223595D01*
X4483714Y-17223595D02*
X4512286Y-17223595D01*
X4512286Y-17223595D02*
X4531333Y-17233119D01*
X4531333Y-17233119D02*
X4540857Y-17252166D01*
X4540857Y-17252166D02*
X4540857Y-17356928D01*
X4931333Y-17147404D02*
X4759905Y-17404547D01*
X5188476Y-17156928D02*
X5207524Y-17156928D01*
X5207524Y-17156928D02*
X5226572Y-17166452D01*
X5226572Y-17166452D02*
X5236095Y-17175976D01*
X5236095Y-17175976D02*
X5245619Y-17195023D01*
X5245619Y-17195023D02*
X5255143Y-17233119D01*
X5255143Y-17233119D02*
X5255143Y-17280738D01*
X5255143Y-17280738D02*
X5245619Y-17318833D01*
X5245619Y-17318833D02*
X5236095Y-17337880D01*
X5236095Y-17337880D02*
X5226572Y-17347404D01*
X5226572Y-17347404D02*
X5207524Y-17356928D01*
X5207524Y-17356928D02*
X5188476Y-17356928D01*
X5188476Y-17356928D02*
X5169429Y-17347404D01*
X5169429Y-17347404D02*
X5159905Y-17337880D01*
X5159905Y-17337880D02*
X5150381Y-17318833D01*
X5150381Y-17318833D02*
X5140857Y-17280738D01*
X5140857Y-17280738D02*
X5140857Y-17233119D01*
X5140857Y-17233119D02*
X5150381Y-17195023D01*
X5150381Y-17195023D02*
X5159905Y-17175976D01*
X5159905Y-17175976D02*
X5169429Y-17166452D01*
X5169429Y-17166452D02*
X5188476Y-17156928D01*
X5340857Y-17337880D02*
X5350381Y-17347404D01*
X5350381Y-17347404D02*
X5340857Y-17356928D01*
X5340857Y-17356928D02*
X5331334Y-17347404D01*
X5331334Y-17347404D02*
X5340857Y-17337880D01*
X5340857Y-17337880D02*
X5340857Y-17356928D01*
X5540857Y-17356928D02*
X5426572Y-17356928D01*
X5483714Y-17356928D02*
X5483714Y-17156928D01*
X5483714Y-17156928D02*
X5464667Y-17185500D01*
X5464667Y-17185500D02*
X5445619Y-17204547D01*
X5445619Y-17204547D02*
X5426572Y-17214071D01*
X5731333Y-17356928D02*
X5617048Y-17356928D01*
X5674191Y-17356928D02*
X5674191Y-17156928D01*
X5674191Y-17156928D02*
X5655143Y-17185500D01*
X5655143Y-17185500D02*
X5636095Y-17204547D01*
X5636095Y-17204547D02*
X5617048Y-17214071D01*
X5845619Y-17242642D02*
X5826572Y-17233119D01*
X5826572Y-17233119D02*
X5817048Y-17223595D01*
X5817048Y-17223595D02*
X5807524Y-17204547D01*
X5807524Y-17204547D02*
X5807524Y-17195023D01*
X5807524Y-17195023D02*
X5817048Y-17175976D01*
X5817048Y-17175976D02*
X5826572Y-17166452D01*
X5826572Y-17166452D02*
X5845619Y-17156928D01*
X5845619Y-17156928D02*
X5883714Y-17156928D01*
X5883714Y-17156928D02*
X5902762Y-17166452D01*
X5902762Y-17166452D02*
X5912286Y-17175976D01*
X5912286Y-17175976D02*
X5921810Y-17195023D01*
X5921810Y-17195023D02*
X5921810Y-17204547D01*
X5921810Y-17204547D02*
X5912286Y-17223595D01*
X5912286Y-17223595D02*
X5902762Y-17233119D01*
X5902762Y-17233119D02*
X5883714Y-17242642D01*
X5883714Y-17242642D02*
X5845619Y-17242642D01*
X5845619Y-17242642D02*
X5826572Y-17252166D01*
X5826572Y-17252166D02*
X5817048Y-17261690D01*
X5817048Y-17261690D02*
X5807524Y-17280738D01*
X5807524Y-17280738D02*
X5807524Y-17318833D01*
X5807524Y-17318833D02*
X5817048Y-17337880D01*
X5817048Y-17337880D02*
X5826572Y-17347404D01*
X5826572Y-17347404D02*
X5845619Y-17356928D01*
X5845619Y-17356928D02*
X5883714Y-17356928D01*
X5883714Y-17356928D02*
X5902762Y-17347404D01*
X5902762Y-17347404D02*
X5912286Y-17337880D01*
X5912286Y-17337880D02*
X5921810Y-17318833D01*
X5921810Y-17318833D02*
X5921810Y-17280738D01*
X5921810Y-17280738D02*
X5912286Y-17261690D01*
X5912286Y-17261690D02*
X5902762Y-17252166D01*
X5902762Y-17252166D02*
X5883714Y-17242642D01*
X6112286Y-17356928D02*
X5998000Y-17356928D01*
X6055143Y-17356928D02*
X6055143Y-17156928D01*
X6055143Y-17156928D02*
X6036095Y-17185500D01*
X6036095Y-17185500D02*
X6017048Y-17204547D01*
X6017048Y-17204547D02*
X5998000Y-17214071D01*
X6188476Y-17156928D02*
X6188476Y-17195023D01*
X6264667Y-17156928D02*
X6264667Y-17195023D01*
X6559905Y-17433119D02*
X6550381Y-17423595D01*
X6550381Y-17423595D02*
X6531334Y-17395023D01*
X6531334Y-17395023D02*
X6521810Y-17375976D01*
X6521810Y-17375976D02*
X6512286Y-17347404D01*
X6512286Y-17347404D02*
X6502762Y-17299785D01*
X6502762Y-17299785D02*
X6502762Y-17261690D01*
X6502762Y-17261690D02*
X6512286Y-17214071D01*
X6512286Y-17214071D02*
X6521810Y-17185500D01*
X6521810Y-17185500D02*
X6531334Y-17166452D01*
X6531334Y-17166452D02*
X6550381Y-17137880D01*
X6550381Y-17137880D02*
X6559905Y-17128357D01*
X6617048Y-17156928D02*
X6750381Y-17156928D01*
X6750381Y-17156928D02*
X6664667Y-17356928D01*
X6817048Y-17175976D02*
X6826572Y-17166452D01*
X6826572Y-17166452D02*
X6845619Y-17156928D01*
X6845619Y-17156928D02*
X6893238Y-17156928D01*
X6893238Y-17156928D02*
X6912286Y-17166452D01*
X6912286Y-17166452D02*
X6921810Y-17175976D01*
X6921810Y-17175976D02*
X6931334Y-17195023D01*
X6931334Y-17195023D02*
X6931334Y-17214071D01*
X6931334Y-17214071D02*
X6921810Y-17242642D01*
X6921810Y-17242642D02*
X6807524Y-17356928D01*
X6807524Y-17356928D02*
X6931334Y-17356928D01*
X7169429Y-17356928D02*
X7169429Y-17156928D01*
X7255143Y-17356928D02*
X7255143Y-17252166D01*
X7255143Y-17252166D02*
X7245619Y-17233119D01*
X7245619Y-17233119D02*
X7226572Y-17223595D01*
X7226572Y-17223595D02*
X7198000Y-17223595D01*
X7198000Y-17223595D02*
X7178953Y-17233119D01*
X7178953Y-17233119D02*
X7169429Y-17242642D01*
X7378953Y-17356928D02*
X7359905Y-17347404D01*
X7359905Y-17347404D02*
X7350381Y-17337880D01*
X7350381Y-17337880D02*
X7340857Y-17318833D01*
X7340857Y-17318833D02*
X7340857Y-17261690D01*
X7340857Y-17261690D02*
X7350381Y-17242642D01*
X7350381Y-17242642D02*
X7359905Y-17233119D01*
X7359905Y-17233119D02*
X7378953Y-17223595D01*
X7378953Y-17223595D02*
X7407524Y-17223595D01*
X7407524Y-17223595D02*
X7426572Y-17233119D01*
X7426572Y-17233119D02*
X7436096Y-17242642D01*
X7436096Y-17242642D02*
X7445619Y-17261690D01*
X7445619Y-17261690D02*
X7445619Y-17318833D01*
X7445619Y-17318833D02*
X7436096Y-17337880D01*
X7436096Y-17337880D02*
X7426572Y-17347404D01*
X7426572Y-17347404D02*
X7407524Y-17356928D01*
X7407524Y-17356928D02*
X7378953Y-17356928D01*
X7559905Y-17356928D02*
X7540857Y-17347404D01*
X7540857Y-17347404D02*
X7531334Y-17328357D01*
X7531334Y-17328357D02*
X7531334Y-17156928D01*
X7712286Y-17347404D02*
X7693238Y-17356928D01*
X7693238Y-17356928D02*
X7655143Y-17356928D01*
X7655143Y-17356928D02*
X7636096Y-17347404D01*
X7636096Y-17347404D02*
X7626572Y-17328357D01*
X7626572Y-17328357D02*
X7626572Y-17252166D01*
X7626572Y-17252166D02*
X7636096Y-17233119D01*
X7636096Y-17233119D02*
X7655143Y-17223595D01*
X7655143Y-17223595D02*
X7693238Y-17223595D01*
X7693238Y-17223595D02*
X7712286Y-17233119D01*
X7712286Y-17233119D02*
X7721810Y-17252166D01*
X7721810Y-17252166D02*
X7721810Y-17271214D01*
X7721810Y-17271214D02*
X7626572Y-17290261D01*
X7798000Y-17347404D02*
X7817048Y-17356928D01*
X7817048Y-17356928D02*
X7855143Y-17356928D01*
X7855143Y-17356928D02*
X7874191Y-17347404D01*
X7874191Y-17347404D02*
X7883715Y-17328357D01*
X7883715Y-17328357D02*
X7883715Y-17318833D01*
X7883715Y-17318833D02*
X7874191Y-17299785D01*
X7874191Y-17299785D02*
X7855143Y-17290261D01*
X7855143Y-17290261D02*
X7826572Y-17290261D01*
X7826572Y-17290261D02*
X7807524Y-17280738D01*
X7807524Y-17280738D02*
X7798000Y-17261690D01*
X7798000Y-17261690D02*
X7798000Y-17252166D01*
X7798000Y-17252166D02*
X7807524Y-17233119D01*
X7807524Y-17233119D02*
X7826572Y-17223595D01*
X7826572Y-17223595D02*
X7855143Y-17223595D01*
X7855143Y-17223595D02*
X7874191Y-17233119D01*
X7950381Y-17433119D02*
X7959905Y-17423595D01*
X7959905Y-17423595D02*
X7978953Y-17395023D01*
X7978953Y-17395023D02*
X7988477Y-17375976D01*
X7988477Y-17375976D02*
X7998000Y-17347404D01*
X7998000Y-17347404D02*
X8007524Y-17299785D01*
X8007524Y-17299785D02*
X8007524Y-17261690D01*
X8007524Y-17261690D02*
X7998000Y-17214071D01*
X7998000Y-17214071D02*
X7988477Y-17185500D01*
X7988477Y-17185500D02*
X7978953Y-17166452D01*
X7978953Y-17166452D02*
X7959905Y-17137880D01*
X7959905Y-17137880D02*
X7950381Y-17128357D01*
X8312286Y-17433119D02*
X8302762Y-17423595D01*
X8302762Y-17423595D02*
X8283715Y-17395023D01*
X8283715Y-17395023D02*
X8274191Y-17375976D01*
X8274191Y-17375976D02*
X8264667Y-17347404D01*
X8264667Y-17347404D02*
X8255143Y-17299785D01*
X8255143Y-17299785D02*
X8255143Y-17261690D01*
X8255143Y-17261690D02*
X8264667Y-17214071D01*
X8264667Y-17214071D02*
X8274191Y-17185500D01*
X8274191Y-17185500D02*
X8283715Y-17166452D01*
X8283715Y-17166452D02*
X8302762Y-17137880D01*
X8302762Y-17137880D02*
X8312286Y-17128357D01*
X8388477Y-17223595D02*
X8388477Y-17356928D01*
X8388477Y-17242642D02*
X8398000Y-17233119D01*
X8398000Y-17233119D02*
X8417048Y-17223595D01*
X8417048Y-17223595D02*
X8445620Y-17223595D01*
X8445620Y-17223595D02*
X8464667Y-17233119D01*
X8464667Y-17233119D02*
X8474191Y-17252166D01*
X8474191Y-17252166D02*
X8474191Y-17356928D01*
X8598000Y-17356928D02*
X8578953Y-17347404D01*
X8578953Y-17347404D02*
X8569429Y-17337880D01*
X8569429Y-17337880D02*
X8559905Y-17318833D01*
X8559905Y-17318833D02*
X8559905Y-17261690D01*
X8559905Y-17261690D02*
X8569429Y-17242642D01*
X8569429Y-17242642D02*
X8578953Y-17233119D01*
X8578953Y-17233119D02*
X8598000Y-17223595D01*
X8598000Y-17223595D02*
X8626572Y-17223595D01*
X8626572Y-17223595D02*
X8645620Y-17233119D01*
X8645620Y-17233119D02*
X8655143Y-17242642D01*
X8655143Y-17242642D02*
X8664667Y-17261690D01*
X8664667Y-17261690D02*
X8664667Y-17318833D01*
X8664667Y-17318833D02*
X8655143Y-17337880D01*
X8655143Y-17337880D02*
X8645620Y-17347404D01*
X8645620Y-17347404D02*
X8626572Y-17356928D01*
X8626572Y-17356928D02*
X8598000Y-17356928D01*
X8721810Y-17223595D02*
X8798000Y-17223595D01*
X8750381Y-17156928D02*
X8750381Y-17328357D01*
X8750381Y-17328357D02*
X8759905Y-17347404D01*
X8759905Y-17347404D02*
X8778953Y-17356928D01*
X8778953Y-17356928D02*
X8798000Y-17356928D01*
X9017048Y-17223595D02*
X9017048Y-17423595D01*
X9017048Y-17233119D02*
X9036096Y-17223595D01*
X9036096Y-17223595D02*
X9074191Y-17223595D01*
X9074191Y-17223595D02*
X9093239Y-17233119D01*
X9093239Y-17233119D02*
X9102762Y-17242642D01*
X9102762Y-17242642D02*
X9112286Y-17261690D01*
X9112286Y-17261690D02*
X9112286Y-17318833D01*
X9112286Y-17318833D02*
X9102762Y-17337880D01*
X9102762Y-17337880D02*
X9093239Y-17347404D01*
X9093239Y-17347404D02*
X9074191Y-17356928D01*
X9074191Y-17356928D02*
X9036096Y-17356928D01*
X9036096Y-17356928D02*
X9017048Y-17347404D01*
X9226572Y-17356928D02*
X9207524Y-17347404D01*
X9207524Y-17347404D02*
X9198001Y-17328357D01*
X9198001Y-17328357D02*
X9198001Y-17156928D01*
X9388477Y-17356928D02*
X9388477Y-17252166D01*
X9388477Y-17252166D02*
X9378953Y-17233119D01*
X9378953Y-17233119D02*
X9359905Y-17223595D01*
X9359905Y-17223595D02*
X9321810Y-17223595D01*
X9321810Y-17223595D02*
X9302762Y-17233119D01*
X9388477Y-17347404D02*
X9369429Y-17356928D01*
X9369429Y-17356928D02*
X9321810Y-17356928D01*
X9321810Y-17356928D02*
X9302762Y-17347404D01*
X9302762Y-17347404D02*
X9293239Y-17328357D01*
X9293239Y-17328357D02*
X9293239Y-17309309D01*
X9293239Y-17309309D02*
X9302762Y-17290261D01*
X9302762Y-17290261D02*
X9321810Y-17280738D01*
X9321810Y-17280738D02*
X9369429Y-17280738D01*
X9369429Y-17280738D02*
X9388477Y-17271214D01*
X9455143Y-17223595D02*
X9531334Y-17223595D01*
X9483715Y-17156928D02*
X9483715Y-17328357D01*
X9483715Y-17328357D02*
X9493239Y-17347404D01*
X9493239Y-17347404D02*
X9512286Y-17356928D01*
X9512286Y-17356928D02*
X9531334Y-17356928D01*
X9674191Y-17347404D02*
X9655143Y-17356928D01*
X9655143Y-17356928D02*
X9617048Y-17356928D01*
X9617048Y-17356928D02*
X9598001Y-17347404D01*
X9598001Y-17347404D02*
X9588477Y-17328357D01*
X9588477Y-17328357D02*
X9588477Y-17252166D01*
X9588477Y-17252166D02*
X9598001Y-17233119D01*
X9598001Y-17233119D02*
X9617048Y-17223595D01*
X9617048Y-17223595D02*
X9655143Y-17223595D01*
X9655143Y-17223595D02*
X9674191Y-17233119D01*
X9674191Y-17233119D02*
X9683715Y-17252166D01*
X9683715Y-17252166D02*
X9683715Y-17271214D01*
X9683715Y-17271214D02*
X9588477Y-17290261D01*
X9855143Y-17356928D02*
X9855143Y-17156928D01*
X9855143Y-17347404D02*
X9836096Y-17356928D01*
X9836096Y-17356928D02*
X9798001Y-17356928D01*
X9798001Y-17356928D02*
X9778953Y-17347404D01*
X9778953Y-17347404D02*
X9769429Y-17337880D01*
X9769429Y-17337880D02*
X9759905Y-17318833D01*
X9759905Y-17318833D02*
X9759905Y-17261690D01*
X9759905Y-17261690D02*
X9769429Y-17242642D01*
X9769429Y-17242642D02*
X9778953Y-17233119D01*
X9778953Y-17233119D02*
X9798001Y-17223595D01*
X9798001Y-17223595D02*
X9836096Y-17223595D01*
X9836096Y-17223595D02*
X9855143Y-17233119D01*
X9931334Y-17433119D02*
X9940858Y-17423595D01*
X9940858Y-17423595D02*
X9959905Y-17395023D01*
X9959905Y-17395023D02*
X9969429Y-17375976D01*
X9969429Y-17375976D02*
X9978953Y-17347404D01*
X9978953Y-17347404D02*
X9988477Y-17299785D01*
X9988477Y-17299785D02*
X9988477Y-17261690D01*
X9988477Y-17261690D02*
X9978953Y-17214071D01*
X9978953Y-17214071D02*
X9969429Y-17185500D01*
X9969429Y-17185500D02*
X9959905Y-17166452D01*
X9959905Y-17166452D02*
X9940858Y-17137880D01*
X9940858Y-17137880D02*
X9931334Y-17128357D01*
X2898000Y-17684404D02*
X2998000Y-17584404D01*
X2898000Y-17484404D01*
X2798000Y-17584404D01*
X2898000Y-17684404D01*
X3331333Y-17543595D02*
X3331333Y-17676928D01*
X3283714Y-17467404D02*
X3236095Y-17610261D01*
X3236095Y-17610261D02*
X3359905Y-17610261D01*
X3436095Y-17657880D02*
X3445619Y-17667404D01*
X3445619Y-17667404D02*
X3436095Y-17676928D01*
X3436095Y-17676928D02*
X3426571Y-17667404D01*
X3426571Y-17667404D02*
X3436095Y-17657880D01*
X3436095Y-17657880D02*
X3436095Y-17676928D01*
X3569428Y-17476928D02*
X3588476Y-17476928D01*
X3588476Y-17476928D02*
X3607524Y-17486452D01*
X3607524Y-17486452D02*
X3617048Y-17495976D01*
X3617048Y-17495976D02*
X3626571Y-17515023D01*
X3626571Y-17515023D02*
X3636095Y-17553119D01*
X3636095Y-17553119D02*
X3636095Y-17600738D01*
X3636095Y-17600738D02*
X3626571Y-17638833D01*
X3626571Y-17638833D02*
X3617048Y-17657880D01*
X3617048Y-17657880D02*
X3607524Y-17667404D01*
X3607524Y-17667404D02*
X3588476Y-17676928D01*
X3588476Y-17676928D02*
X3569428Y-17676928D01*
X3569428Y-17676928D02*
X3550381Y-17667404D01*
X3550381Y-17667404D02*
X3540857Y-17657880D01*
X3540857Y-17657880D02*
X3531333Y-17638833D01*
X3531333Y-17638833D02*
X3521809Y-17600738D01*
X3521809Y-17600738D02*
X3521809Y-17553119D01*
X3521809Y-17553119D02*
X3531333Y-17515023D01*
X3531333Y-17515023D02*
X3540857Y-17495976D01*
X3540857Y-17495976D02*
X3550381Y-17486452D01*
X3550381Y-17486452D02*
X3569428Y-17476928D01*
X3759905Y-17476928D02*
X3778952Y-17476928D01*
X3778952Y-17476928D02*
X3798000Y-17486452D01*
X3798000Y-17486452D02*
X3807524Y-17495976D01*
X3807524Y-17495976D02*
X3817048Y-17515023D01*
X3817048Y-17515023D02*
X3826571Y-17553119D01*
X3826571Y-17553119D02*
X3826571Y-17600738D01*
X3826571Y-17600738D02*
X3817048Y-17638833D01*
X3817048Y-17638833D02*
X3807524Y-17657880D01*
X3807524Y-17657880D02*
X3798000Y-17667404D01*
X3798000Y-17667404D02*
X3778952Y-17676928D01*
X3778952Y-17676928D02*
X3759905Y-17676928D01*
X3759905Y-17676928D02*
X3740857Y-17667404D01*
X3740857Y-17667404D02*
X3731333Y-17657880D01*
X3731333Y-17657880D02*
X3721809Y-17638833D01*
X3721809Y-17638833D02*
X3712286Y-17600738D01*
X3712286Y-17600738D02*
X3712286Y-17553119D01*
X3712286Y-17553119D02*
X3721809Y-17515023D01*
X3721809Y-17515023D02*
X3731333Y-17495976D01*
X3731333Y-17495976D02*
X3740857Y-17486452D01*
X3740857Y-17486452D02*
X3759905Y-17476928D01*
X3950381Y-17476928D02*
X3969429Y-17476928D01*
X3969429Y-17476928D02*
X3988476Y-17486452D01*
X3988476Y-17486452D02*
X3998000Y-17495976D01*
X3998000Y-17495976D02*
X4007524Y-17515023D01*
X4007524Y-17515023D02*
X4017048Y-17553119D01*
X4017048Y-17553119D02*
X4017048Y-17600738D01*
X4017048Y-17600738D02*
X4007524Y-17638833D01*
X4007524Y-17638833D02*
X3998000Y-17657880D01*
X3998000Y-17657880D02*
X3988476Y-17667404D01*
X3988476Y-17667404D02*
X3969429Y-17676928D01*
X3969429Y-17676928D02*
X3950381Y-17676928D01*
X3950381Y-17676928D02*
X3931333Y-17667404D01*
X3931333Y-17667404D02*
X3921809Y-17657880D01*
X3921809Y-17657880D02*
X3912286Y-17638833D01*
X3912286Y-17638833D02*
X3902762Y-17600738D01*
X3902762Y-17600738D02*
X3902762Y-17553119D01*
X3902762Y-17553119D02*
X3912286Y-17515023D01*
X3912286Y-17515023D02*
X3921809Y-17495976D01*
X3921809Y-17495976D02*
X3931333Y-17486452D01*
X3931333Y-17486452D02*
X3950381Y-17476928D01*
X4102762Y-17676928D02*
X4102762Y-17543595D01*
X4102762Y-17562642D02*
X4112286Y-17553119D01*
X4112286Y-17553119D02*
X4131333Y-17543595D01*
X4131333Y-17543595D02*
X4159905Y-17543595D01*
X4159905Y-17543595D02*
X4178952Y-17553119D01*
X4178952Y-17553119D02*
X4188476Y-17572166D01*
X4188476Y-17572166D02*
X4188476Y-17676928D01*
X4188476Y-17572166D02*
X4198000Y-17553119D01*
X4198000Y-17553119D02*
X4217048Y-17543595D01*
X4217048Y-17543595D02*
X4245619Y-17543595D01*
X4245619Y-17543595D02*
X4264667Y-17553119D01*
X4264667Y-17553119D02*
X4274191Y-17572166D01*
X4274191Y-17572166D02*
X4274191Y-17676928D01*
X4369429Y-17676928D02*
X4369429Y-17543595D01*
X4369429Y-17562642D02*
X4378952Y-17553119D01*
X4378952Y-17553119D02*
X4398000Y-17543595D01*
X4398000Y-17543595D02*
X4426572Y-17543595D01*
X4426572Y-17543595D02*
X4445619Y-17553119D01*
X4445619Y-17553119D02*
X4455143Y-17572166D01*
X4455143Y-17572166D02*
X4455143Y-17676928D01*
X4455143Y-17572166D02*
X4464667Y-17553119D01*
X4464667Y-17553119D02*
X4483714Y-17543595D01*
X4483714Y-17543595D02*
X4512286Y-17543595D01*
X4512286Y-17543595D02*
X4531333Y-17553119D01*
X4531333Y-17553119D02*
X4540857Y-17572166D01*
X4540857Y-17572166D02*
X4540857Y-17676928D01*
X4931333Y-17467404D02*
X4759905Y-17724547D01*
X5188476Y-17476928D02*
X5207524Y-17476928D01*
X5207524Y-17476928D02*
X5226572Y-17486452D01*
X5226572Y-17486452D02*
X5236095Y-17495976D01*
X5236095Y-17495976D02*
X5245619Y-17515023D01*
X5245619Y-17515023D02*
X5255143Y-17553119D01*
X5255143Y-17553119D02*
X5255143Y-17600738D01*
X5255143Y-17600738D02*
X5245619Y-17638833D01*
X5245619Y-17638833D02*
X5236095Y-17657880D01*
X5236095Y-17657880D02*
X5226572Y-17667404D01*
X5226572Y-17667404D02*
X5207524Y-17676928D01*
X5207524Y-17676928D02*
X5188476Y-17676928D01*
X5188476Y-17676928D02*
X5169429Y-17667404D01*
X5169429Y-17667404D02*
X5159905Y-17657880D01*
X5159905Y-17657880D02*
X5150381Y-17638833D01*
X5150381Y-17638833D02*
X5140857Y-17600738D01*
X5140857Y-17600738D02*
X5140857Y-17553119D01*
X5140857Y-17553119D02*
X5150381Y-17515023D01*
X5150381Y-17515023D02*
X5159905Y-17495976D01*
X5159905Y-17495976D02*
X5169429Y-17486452D01*
X5169429Y-17486452D02*
X5188476Y-17476928D01*
X5340857Y-17657880D02*
X5350381Y-17667404D01*
X5350381Y-17667404D02*
X5340857Y-17676928D01*
X5340857Y-17676928D02*
X5331334Y-17667404D01*
X5331334Y-17667404D02*
X5340857Y-17657880D01*
X5340857Y-17657880D02*
X5340857Y-17676928D01*
X5540857Y-17676928D02*
X5426572Y-17676928D01*
X5483714Y-17676928D02*
X5483714Y-17476928D01*
X5483714Y-17476928D02*
X5464667Y-17505500D01*
X5464667Y-17505500D02*
X5445619Y-17524547D01*
X5445619Y-17524547D02*
X5426572Y-17534071D01*
X5721810Y-17476928D02*
X5626572Y-17476928D01*
X5626572Y-17476928D02*
X5617048Y-17572166D01*
X5617048Y-17572166D02*
X5626572Y-17562642D01*
X5626572Y-17562642D02*
X5645619Y-17553119D01*
X5645619Y-17553119D02*
X5693238Y-17553119D01*
X5693238Y-17553119D02*
X5712286Y-17562642D01*
X5712286Y-17562642D02*
X5721810Y-17572166D01*
X5721810Y-17572166D02*
X5731333Y-17591214D01*
X5731333Y-17591214D02*
X5731333Y-17638833D01*
X5731333Y-17638833D02*
X5721810Y-17657880D01*
X5721810Y-17657880D02*
X5712286Y-17667404D01*
X5712286Y-17667404D02*
X5693238Y-17676928D01*
X5693238Y-17676928D02*
X5645619Y-17676928D01*
X5645619Y-17676928D02*
X5626572Y-17667404D01*
X5626572Y-17667404D02*
X5617048Y-17657880D01*
X5798000Y-17476928D02*
X5931333Y-17476928D01*
X5931333Y-17476928D02*
X5845619Y-17676928D01*
X6102762Y-17476928D02*
X6007524Y-17476928D01*
X6007524Y-17476928D02*
X5998000Y-17572166D01*
X5998000Y-17572166D02*
X6007524Y-17562642D01*
X6007524Y-17562642D02*
X6026572Y-17553119D01*
X6026572Y-17553119D02*
X6074191Y-17553119D01*
X6074191Y-17553119D02*
X6093238Y-17562642D01*
X6093238Y-17562642D02*
X6102762Y-17572166D01*
X6102762Y-17572166D02*
X6112286Y-17591214D01*
X6112286Y-17591214D02*
X6112286Y-17638833D01*
X6112286Y-17638833D02*
X6102762Y-17657880D01*
X6102762Y-17657880D02*
X6093238Y-17667404D01*
X6093238Y-17667404D02*
X6074191Y-17676928D01*
X6074191Y-17676928D02*
X6026572Y-17676928D01*
X6026572Y-17676928D02*
X6007524Y-17667404D01*
X6007524Y-17667404D02*
X5998000Y-17657880D01*
X6188476Y-17476928D02*
X6188476Y-17515023D01*
X6264667Y-17476928D02*
X6264667Y-17515023D01*
X6559905Y-17753119D02*
X6550381Y-17743595D01*
X6550381Y-17743595D02*
X6531334Y-17715023D01*
X6531334Y-17715023D02*
X6521810Y-17695976D01*
X6521810Y-17695976D02*
X6512286Y-17667404D01*
X6512286Y-17667404D02*
X6502762Y-17619785D01*
X6502762Y-17619785D02*
X6502762Y-17581690D01*
X6502762Y-17581690D02*
X6512286Y-17534071D01*
X6512286Y-17534071D02*
X6521810Y-17505500D01*
X6521810Y-17505500D02*
X6531334Y-17486452D01*
X6531334Y-17486452D02*
X6550381Y-17457880D01*
X6550381Y-17457880D02*
X6559905Y-17448357D01*
X6740857Y-17676928D02*
X6626572Y-17676928D01*
X6683714Y-17676928D02*
X6683714Y-17476928D01*
X6683714Y-17476928D02*
X6664667Y-17505500D01*
X6664667Y-17505500D02*
X6645619Y-17524547D01*
X6645619Y-17524547D02*
X6626572Y-17534071D01*
X6855143Y-17562642D02*
X6836095Y-17553119D01*
X6836095Y-17553119D02*
X6826572Y-17543595D01*
X6826572Y-17543595D02*
X6817048Y-17524547D01*
X6817048Y-17524547D02*
X6817048Y-17515023D01*
X6817048Y-17515023D02*
X6826572Y-17495976D01*
X6826572Y-17495976D02*
X6836095Y-17486452D01*
X6836095Y-17486452D02*
X6855143Y-17476928D01*
X6855143Y-17476928D02*
X6893238Y-17476928D01*
X6893238Y-17476928D02*
X6912286Y-17486452D01*
X6912286Y-17486452D02*
X6921810Y-17495976D01*
X6921810Y-17495976D02*
X6931334Y-17515023D01*
X6931334Y-17515023D02*
X6931334Y-17524547D01*
X6931334Y-17524547D02*
X6921810Y-17543595D01*
X6921810Y-17543595D02*
X6912286Y-17553119D01*
X6912286Y-17553119D02*
X6893238Y-17562642D01*
X6893238Y-17562642D02*
X6855143Y-17562642D01*
X6855143Y-17562642D02*
X6836095Y-17572166D01*
X6836095Y-17572166D02*
X6826572Y-17581690D01*
X6826572Y-17581690D02*
X6817048Y-17600738D01*
X6817048Y-17600738D02*
X6817048Y-17638833D01*
X6817048Y-17638833D02*
X6826572Y-17657880D01*
X6826572Y-17657880D02*
X6836095Y-17667404D01*
X6836095Y-17667404D02*
X6855143Y-17676928D01*
X6855143Y-17676928D02*
X6893238Y-17676928D01*
X6893238Y-17676928D02*
X6912286Y-17667404D01*
X6912286Y-17667404D02*
X6921810Y-17657880D01*
X6921810Y-17657880D02*
X6931334Y-17638833D01*
X6931334Y-17638833D02*
X6931334Y-17600738D01*
X6931334Y-17600738D02*
X6921810Y-17581690D01*
X6921810Y-17581690D02*
X6912286Y-17572166D01*
X6912286Y-17572166D02*
X6893238Y-17562642D01*
X7169429Y-17676928D02*
X7169429Y-17476928D01*
X7255143Y-17676928D02*
X7255143Y-17572166D01*
X7255143Y-17572166D02*
X7245619Y-17553119D01*
X7245619Y-17553119D02*
X7226572Y-17543595D01*
X7226572Y-17543595D02*
X7198000Y-17543595D01*
X7198000Y-17543595D02*
X7178953Y-17553119D01*
X7178953Y-17553119D02*
X7169429Y-17562642D01*
X7378953Y-17676928D02*
X7359905Y-17667404D01*
X7359905Y-17667404D02*
X7350381Y-17657880D01*
X7350381Y-17657880D02*
X7340857Y-17638833D01*
X7340857Y-17638833D02*
X7340857Y-17581690D01*
X7340857Y-17581690D02*
X7350381Y-17562642D01*
X7350381Y-17562642D02*
X7359905Y-17553119D01*
X7359905Y-17553119D02*
X7378953Y-17543595D01*
X7378953Y-17543595D02*
X7407524Y-17543595D01*
X7407524Y-17543595D02*
X7426572Y-17553119D01*
X7426572Y-17553119D02*
X7436096Y-17562642D01*
X7436096Y-17562642D02*
X7445619Y-17581690D01*
X7445619Y-17581690D02*
X7445619Y-17638833D01*
X7445619Y-17638833D02*
X7436096Y-17657880D01*
X7436096Y-17657880D02*
X7426572Y-17667404D01*
X7426572Y-17667404D02*
X7407524Y-17676928D01*
X7407524Y-17676928D02*
X7378953Y-17676928D01*
X7559905Y-17676928D02*
X7540857Y-17667404D01*
X7540857Y-17667404D02*
X7531334Y-17648357D01*
X7531334Y-17648357D02*
X7531334Y-17476928D01*
X7712286Y-17667404D02*
X7693238Y-17676928D01*
X7693238Y-17676928D02*
X7655143Y-17676928D01*
X7655143Y-17676928D02*
X7636096Y-17667404D01*
X7636096Y-17667404D02*
X7626572Y-17648357D01*
X7626572Y-17648357D02*
X7626572Y-17572166D01*
X7626572Y-17572166D02*
X7636096Y-17553119D01*
X7636096Y-17553119D02*
X7655143Y-17543595D01*
X7655143Y-17543595D02*
X7693238Y-17543595D01*
X7693238Y-17543595D02*
X7712286Y-17553119D01*
X7712286Y-17553119D02*
X7721810Y-17572166D01*
X7721810Y-17572166D02*
X7721810Y-17591214D01*
X7721810Y-17591214D02*
X7626572Y-17610261D01*
X7798000Y-17667404D02*
X7817048Y-17676928D01*
X7817048Y-17676928D02*
X7855143Y-17676928D01*
X7855143Y-17676928D02*
X7874191Y-17667404D01*
X7874191Y-17667404D02*
X7883715Y-17648357D01*
X7883715Y-17648357D02*
X7883715Y-17638833D01*
X7883715Y-17638833D02*
X7874191Y-17619785D01*
X7874191Y-17619785D02*
X7855143Y-17610261D01*
X7855143Y-17610261D02*
X7826572Y-17610261D01*
X7826572Y-17610261D02*
X7807524Y-17600738D01*
X7807524Y-17600738D02*
X7798000Y-17581690D01*
X7798000Y-17581690D02*
X7798000Y-17572166D01*
X7798000Y-17572166D02*
X7807524Y-17553119D01*
X7807524Y-17553119D02*
X7826572Y-17543595D01*
X7826572Y-17543595D02*
X7855143Y-17543595D01*
X7855143Y-17543595D02*
X7874191Y-17553119D01*
X7950381Y-17753119D02*
X7959905Y-17743595D01*
X7959905Y-17743595D02*
X7978953Y-17715023D01*
X7978953Y-17715023D02*
X7988477Y-17695976D01*
X7988477Y-17695976D02*
X7998000Y-17667404D01*
X7998000Y-17667404D02*
X8007524Y-17619785D01*
X8007524Y-17619785D02*
X8007524Y-17581690D01*
X8007524Y-17581690D02*
X7998000Y-17534071D01*
X7998000Y-17534071D02*
X7988477Y-17505500D01*
X7988477Y-17505500D02*
X7978953Y-17486452D01*
X7978953Y-17486452D02*
X7959905Y-17457880D01*
X7959905Y-17457880D02*
X7950381Y-17448357D01*
X8312286Y-17753119D02*
X8302762Y-17743595D01*
X8302762Y-17743595D02*
X8283715Y-17715023D01*
X8283715Y-17715023D02*
X8274191Y-17695976D01*
X8274191Y-17695976D02*
X8264667Y-17667404D01*
X8264667Y-17667404D02*
X8255143Y-17619785D01*
X8255143Y-17619785D02*
X8255143Y-17581690D01*
X8255143Y-17581690D02*
X8264667Y-17534071D01*
X8264667Y-17534071D02*
X8274191Y-17505500D01*
X8274191Y-17505500D02*
X8283715Y-17486452D01*
X8283715Y-17486452D02*
X8302762Y-17457880D01*
X8302762Y-17457880D02*
X8312286Y-17448357D01*
X8388477Y-17543595D02*
X8388477Y-17676928D01*
X8388477Y-17562642D02*
X8398000Y-17553119D01*
X8398000Y-17553119D02*
X8417048Y-17543595D01*
X8417048Y-17543595D02*
X8445620Y-17543595D01*
X8445620Y-17543595D02*
X8464667Y-17553119D01*
X8464667Y-17553119D02*
X8474191Y-17572166D01*
X8474191Y-17572166D02*
X8474191Y-17676928D01*
X8598000Y-17676928D02*
X8578953Y-17667404D01*
X8578953Y-17667404D02*
X8569429Y-17657880D01*
X8569429Y-17657880D02*
X8559905Y-17638833D01*
X8559905Y-17638833D02*
X8559905Y-17581690D01*
X8559905Y-17581690D02*
X8569429Y-17562642D01*
X8569429Y-17562642D02*
X8578953Y-17553119D01*
X8578953Y-17553119D02*
X8598000Y-17543595D01*
X8598000Y-17543595D02*
X8626572Y-17543595D01*
X8626572Y-17543595D02*
X8645620Y-17553119D01*
X8645620Y-17553119D02*
X8655143Y-17562642D01*
X8655143Y-17562642D02*
X8664667Y-17581690D01*
X8664667Y-17581690D02*
X8664667Y-17638833D01*
X8664667Y-17638833D02*
X8655143Y-17657880D01*
X8655143Y-17657880D02*
X8645620Y-17667404D01*
X8645620Y-17667404D02*
X8626572Y-17676928D01*
X8626572Y-17676928D02*
X8598000Y-17676928D01*
X8721810Y-17543595D02*
X8798000Y-17543595D01*
X8750381Y-17476928D02*
X8750381Y-17648357D01*
X8750381Y-17648357D02*
X8759905Y-17667404D01*
X8759905Y-17667404D02*
X8778953Y-17676928D01*
X8778953Y-17676928D02*
X8798000Y-17676928D01*
X9017048Y-17543595D02*
X9017048Y-17743595D01*
X9017048Y-17553119D02*
X9036096Y-17543595D01*
X9036096Y-17543595D02*
X9074191Y-17543595D01*
X9074191Y-17543595D02*
X9093239Y-17553119D01*
X9093239Y-17553119D02*
X9102762Y-17562642D01*
X9102762Y-17562642D02*
X9112286Y-17581690D01*
X9112286Y-17581690D02*
X9112286Y-17638833D01*
X9112286Y-17638833D02*
X9102762Y-17657880D01*
X9102762Y-17657880D02*
X9093239Y-17667404D01*
X9093239Y-17667404D02*
X9074191Y-17676928D01*
X9074191Y-17676928D02*
X9036096Y-17676928D01*
X9036096Y-17676928D02*
X9017048Y-17667404D01*
X9226572Y-17676928D02*
X9207524Y-17667404D01*
X9207524Y-17667404D02*
X9198001Y-17648357D01*
X9198001Y-17648357D02*
X9198001Y-17476928D01*
X9388477Y-17676928D02*
X9388477Y-17572166D01*
X9388477Y-17572166D02*
X9378953Y-17553119D01*
X9378953Y-17553119D02*
X9359905Y-17543595D01*
X9359905Y-17543595D02*
X9321810Y-17543595D01*
X9321810Y-17543595D02*
X9302762Y-17553119D01*
X9388477Y-17667404D02*
X9369429Y-17676928D01*
X9369429Y-17676928D02*
X9321810Y-17676928D01*
X9321810Y-17676928D02*
X9302762Y-17667404D01*
X9302762Y-17667404D02*
X9293239Y-17648357D01*
X9293239Y-17648357D02*
X9293239Y-17629309D01*
X9293239Y-17629309D02*
X9302762Y-17610261D01*
X9302762Y-17610261D02*
X9321810Y-17600738D01*
X9321810Y-17600738D02*
X9369429Y-17600738D01*
X9369429Y-17600738D02*
X9388477Y-17591214D01*
X9455143Y-17543595D02*
X9531334Y-17543595D01*
X9483715Y-17476928D02*
X9483715Y-17648357D01*
X9483715Y-17648357D02*
X9493239Y-17667404D01*
X9493239Y-17667404D02*
X9512286Y-17676928D01*
X9512286Y-17676928D02*
X9531334Y-17676928D01*
X9674191Y-17667404D02*
X9655143Y-17676928D01*
X9655143Y-17676928D02*
X9617048Y-17676928D01*
X9617048Y-17676928D02*
X9598001Y-17667404D01*
X9598001Y-17667404D02*
X9588477Y-17648357D01*
X9588477Y-17648357D02*
X9588477Y-17572166D01*
X9588477Y-17572166D02*
X9598001Y-17553119D01*
X9598001Y-17553119D02*
X9617048Y-17543595D01*
X9617048Y-17543595D02*
X9655143Y-17543595D01*
X9655143Y-17543595D02*
X9674191Y-17553119D01*
X9674191Y-17553119D02*
X9683715Y-17572166D01*
X9683715Y-17572166D02*
X9683715Y-17591214D01*
X9683715Y-17591214D02*
X9588477Y-17610261D01*
X9855143Y-17676928D02*
X9855143Y-17476928D01*
X9855143Y-17667404D02*
X9836096Y-17676928D01*
X9836096Y-17676928D02*
X9798001Y-17676928D01*
X9798001Y-17676928D02*
X9778953Y-17667404D01*
X9778953Y-17667404D02*
X9769429Y-17657880D01*
X9769429Y-17657880D02*
X9759905Y-17638833D01*
X9759905Y-17638833D02*
X9759905Y-17581690D01*
X9759905Y-17581690D02*
X9769429Y-17562642D01*
X9769429Y-17562642D02*
X9778953Y-17553119D01*
X9778953Y-17553119D02*
X9798001Y-17543595D01*
X9798001Y-17543595D02*
X9836096Y-17543595D01*
X9836096Y-17543595D02*
X9855143Y-17553119D01*
X9931334Y-17753119D02*
X9940858Y-17743595D01*
X9940858Y-17743595D02*
X9959905Y-17715023D01*
X9959905Y-17715023D02*
X9969429Y-17695976D01*
X9969429Y-17695976D02*
X9978953Y-17667404D01*
X9978953Y-17667404D02*
X9988477Y-17619785D01*
X9988477Y-17619785D02*
X9988477Y-17581690D01*
X9988477Y-17581690D02*
X9978953Y-17534071D01*
X9978953Y-17534071D02*
X9969429Y-17505500D01*
X9969429Y-17505500D02*
X9959905Y-17486452D01*
X9959905Y-17486452D02*
X9940858Y-17457880D01*
X9940858Y-17457880D02*
X9931334Y-17448357D01*
M02*
