G04 #@! TF.GenerationSoftware,KiCad,Pcbnew,7.0.1*
G04 #@! TF.CreationDate,2024-09-08T21:52:54+07:00*
G04 #@! TF.ProjectId,minikeeb,6d696e69-6b65-4656-922e-6b696361645f,rev?*
G04 #@! TF.SameCoordinates,Original*
G04 #@! TF.FileFunction,Soldermask,Bot*
G04 #@! TF.FilePolarity,Negative*
%FSLAX46Y46*%
G04 Gerber Fmt 4.6, Leading zero omitted, Abs format (unit mm)*
G04 Created by KiCad (PCBNEW 7.0.1) date 2024-09-08 21:52:54*
%MOMM*%
%LPD*%
G01*
G04 APERTURE LIST*
G04 Aperture macros list*
%AMRoundRect*
0 Rectangle with rounded corners*
0 $1 Rounding radius*
0 $2 $3 $4 $5 $6 $7 $8 $9 X,Y pos of 4 corners*
0 Add a 4 corners polygon primitive as box body*
4,1,4,$2,$3,$4,$5,$6,$7,$8,$9,$2,$3,0*
0 Add four circle primitives for the rounded corners*
1,1,$1+$1,$2,$3*
1,1,$1+$1,$4,$5*
1,1,$1+$1,$6,$7*
1,1,$1+$1,$8,$9*
0 Add four rect primitives between the rounded corners*
20,1,$1+$1,$2,$3,$4,$5,0*
20,1,$1+$1,$4,$5,$6,$7,0*
20,1,$1+$1,$6,$7,$8,$9,0*
20,1,$1+$1,$8,$9,$2,$3,0*%
%AMFreePoly0*
4,1,33,2.719517,1.297118,2.754872,1.282473,2.782473,1.254872,2.797118,1.219517,2.801000,1.200000,2.801000,-1.200000,2.797118,-1.219517,2.782473,-1.254872,2.754872,-1.282473,2.719517,-1.297118,2.700000,-1.301000,0.300000,-1.301000,0.280483,-1.297118,0.245128,-1.282473,0.217527,-1.254872,0.202882,-1.219517,0.199000,-1.200000,0.199000,-0.801000,-0.350000,-0.801000,-0.386062,-0.786062,
-0.401000,-0.750000,-0.401000,0.750000,-0.386062,0.786062,-0.350000,0.801000,0.199000,0.801000,0.199000,1.200000,0.202882,1.219517,0.217527,1.254872,0.245128,1.282473,0.280483,1.297118,0.300000,1.301000,2.700000,1.301000,2.719517,1.297118,2.719517,1.297118,$1*%
%AMFreePoly1*
4,1,41,-0.380483,1.297118,-0.345128,1.282473,-0.317527,1.254872,-0.302882,1.219517,-0.299000,1.200000,-0.299000,0.801000,0.350000,0.801000,0.386062,0.786062,0.401000,0.750000,0.401000,-0.750000,0.386062,-0.786062,0.350000,-0.801000,-0.299000,-0.801000,-0.299000,-1.200000,-0.302882,-1.219517,-0.317527,-1.254872,-0.345128,-1.282473,-0.380483,-1.297118,-0.400000,-1.301000,-2.300000,-1.301000,
-2.319518,-1.297117,-2.332223,-1.291853,-2.345428,-1.288028,-2.363094,-1.278867,-2.863094,-0.878867,-2.866724,-0.874553,-2.871416,-0.871419,-2.882473,-0.854871,-2.887733,-0.842170,-2.894367,-0.830125,-2.900382,-0.811152,-2.899898,-0.805531,-2.901000,-0.800000,-2.901000,1.200000,-2.897118,1.219517,-2.882473,1.254872,-2.854872,1.282473,-2.819517,1.297118,-2.800000,1.301000,-0.400000,1.301000,
-0.380483,1.297118,-0.380483,1.297118,$1*%
G04 Aperture macros list end*
G04 #@! TA.AperFunction,Profile*
%ADD10C,0.100000*%
G04 #@! TD*
%ADD11C,1.302000*%
%ADD12O,2.602000X1.802000*%
%ADD13RoundRect,0.051000X0.750000X-0.900000X0.750000X0.900000X-0.750000X0.900000X-0.750000X-0.900000X0*%
%ADD14C,1.802000*%
%ADD15C,3.102000*%
%ADD16C,4.102000*%
%ADD17FreePoly0,0.000000*%
%ADD18FreePoly1,0.000000*%
%ADD19C,1.102000*%
%ADD20RoundRect,0.051000X0.900000X0.750000X-0.900000X0.750000X-0.900000X-0.750000X0.900000X-0.750000X0*%
%ADD21FreePoly0,345.000000*%
%ADD22FreePoly1,345.000000*%
%ADD23C,1.499000*%
%ADD24FreePoly0,330.000000*%
%ADD25FreePoly1,330.000000*%
%ADD26C,2.102000*%
%ADD27RoundRect,0.051000X1.000000X-1.600000X1.000000X1.600000X-1.000000X1.600000X-1.000000X-1.600000X0*%
%ADD28RoundRect,0.301000X-0.600000X-0.750000X0.600000X-0.750000X0.600000X0.750000X-0.600000X0.750000X0*%
%ADD29O,1.802000X2.102000*%
%ADD30RoundRect,0.051000X0.850000X0.412500X-0.850000X0.412500X-0.850000X-0.412500X0.850000X-0.412500X0*%
%ADD31RoundRect,0.051000X-0.850000X-0.412500X0.850000X-0.412500X0.850000X0.412500X-0.850000X0.412500X0*%
%ADD32RoundRect,0.051000X0.317500X0.571500X-0.317500X0.571500X-0.317500X-0.571500X0.317500X-0.571500X0*%
%ADD33RoundRect,0.051000X0.942372X-0.067765X-0.529872X0.782235X-0.942372X0.067765X0.529872X-0.782235X0*%
%ADD34C,1.854600*%
%ADD35RoundRect,0.051000X-0.876300X-0.876300X0.876300X-0.876300X0.876300X0.876300X-0.876300X0.876300X0*%
%ADD36RoundRect,0.051000X0.927800X0.178448X-0.714274X0.618441X-0.927800X-0.178448X0.714274X-0.618441X0*%
G04 APERTURE END LIST*
D10*
X74350000Y-79170000D02*
X74350000Y-82270000D01*
X74350000Y-82270000D02*
X77950000Y-82270000D01*
X77950000Y-79170000D02*
X74350000Y-79170000D01*
X77950000Y-82270000D02*
X77950000Y-79170000D01*
X78000000Y-99340000D02*
X78000000Y-96240000D01*
X78000000Y-96240000D02*
X74400000Y-96240000D01*
X74400000Y-99340000D02*
X78000000Y-99340000D01*
X74400000Y-96240000D02*
X74400000Y-99340000D01*
X74400000Y-113258000D02*
X74400000Y-116358000D01*
X74400000Y-116358000D02*
X78000000Y-116358000D01*
X78000000Y-113258000D02*
X74400000Y-113258000D01*
X78000000Y-116358000D02*
X78000000Y-113258000D01*
X59966000Y-101626000D02*
X59966000Y-98526000D01*
X59966000Y-98526000D02*
X56366000Y-98526000D01*
X56366000Y-101626000D02*
X59966000Y-101626000D01*
X56366000Y-98526000D02*
X56366000Y-101626000D01*
X56350000Y-81560000D02*
X56350000Y-84660000D01*
X56350000Y-84660000D02*
X59950000Y-84660000D01*
X59950000Y-81560000D02*
X56350000Y-81560000D01*
X59950000Y-84660000D02*
X59950000Y-81560000D01*
X76750000Y-143890000D02*
X76750000Y-140790000D01*
X76750000Y-140790000D02*
X73150000Y-140790000D01*
X73150000Y-143890000D02*
X76750000Y-143890000D01*
X73150000Y-140790000D02*
X73150000Y-143890000D01*
X95571497Y-147759059D02*
X96373836Y-144764689D01*
X96373836Y-144764689D02*
X92896503Y-143832941D01*
X92094164Y-146827311D02*
X95571497Y-147759059D01*
X92896503Y-143832941D02*
X92094164Y-146827311D01*
X110332500Y-83970000D02*
X110332500Y-87070000D01*
X110332500Y-87070000D02*
X113932500Y-87070000D01*
X113932500Y-83970000D02*
X110332500Y-83970000D01*
X113932500Y-87070000D02*
X113932500Y-83970000D01*
X41932000Y-106452000D02*
X41932000Y-103352000D01*
X41932000Y-103352000D02*
X38332000Y-103352000D01*
X38332000Y-106452000D02*
X41932000Y-106452000D01*
X38332000Y-103352000D02*
X38332000Y-106452000D01*
X38332000Y-120370000D02*
X38332000Y-123470000D01*
X38332000Y-123470000D02*
X41932000Y-123470000D01*
X41932000Y-120370000D02*
X38332000Y-120370000D01*
X41932000Y-123470000D02*
X41932000Y-120370000D01*
X92434000Y-115544000D02*
X92434000Y-118644000D01*
X92434000Y-118644000D02*
X96034000Y-118644000D01*
X96034000Y-115544000D02*
X92434000Y-115544000D01*
X96034000Y-118644000D02*
X96034000Y-115544000D01*
X56120000Y-125510000D02*
X56120000Y-128610000D01*
X56120000Y-128610000D02*
X59720000Y-128610000D01*
X59720000Y-125510000D02*
X56120000Y-125510000D01*
X59720000Y-128610000D02*
X59720000Y-125510000D01*
X92402500Y-81560000D02*
X92402500Y-84660000D01*
X92402500Y-84660000D02*
X96002500Y-84660000D01*
X96002500Y-81560000D02*
X92402500Y-81560000D01*
X96002500Y-84660000D02*
X96002500Y-81560000D01*
X38320000Y-86310000D02*
X38320000Y-89410000D01*
X38320000Y-89410000D02*
X41920000Y-89410000D01*
X41920000Y-86310000D02*
X38320000Y-86310000D01*
X41920000Y-89410000D02*
X41920000Y-86310000D01*
X56366000Y-115544000D02*
X56366000Y-118644000D01*
X56366000Y-118644000D02*
X59966000Y-118644000D01*
X59966000Y-115544000D02*
X56366000Y-115544000D01*
X59966000Y-118644000D02*
X59966000Y-115544000D01*
X113927500Y-104020000D02*
X113927500Y-100920000D01*
X113927500Y-100920000D02*
X110327500Y-100920000D01*
X110327500Y-104020000D02*
X113927500Y-104020000D01*
X110327500Y-100920000D02*
X110327500Y-104020000D01*
X115337846Y-151086339D02*
X116887846Y-148401661D01*
X116887846Y-148401661D02*
X113770154Y-146601661D01*
X112220154Y-149286339D02*
X115337846Y-151086339D01*
X113770154Y-146601661D02*
X112220154Y-149286339D01*
X110468000Y-118084000D02*
X110468000Y-121184000D01*
X110468000Y-121184000D02*
X114068000Y-121184000D01*
X114068000Y-118084000D02*
X110468000Y-118084000D01*
X114068000Y-121184000D02*
X114068000Y-118084000D01*
X96034000Y-101626000D02*
X96034000Y-98526000D01*
X96034000Y-98526000D02*
X92434000Y-98526000D01*
X92434000Y-101626000D02*
X96034000Y-101626000D01*
X92434000Y-98526000D02*
X92434000Y-101626000D01*
X96034000Y-101626000D02*
X92434000Y-101626000D01*
X96034000Y-98526000D02*
X96034000Y-101626000D01*
X92434000Y-101626000D02*
X92434000Y-98526000D01*
X92434000Y-98526000D02*
X96034000Y-98526000D01*
X38320000Y-86310000D02*
X41920000Y-86310000D01*
X38320000Y-89410000D02*
X38320000Y-86310000D01*
X41920000Y-86310000D02*
X41920000Y-89410000D01*
X41920000Y-89410000D02*
X38320000Y-89410000D01*
X76770000Y-143890000D02*
X73170000Y-143890000D01*
X76770000Y-140790000D02*
X76770000Y-143890000D01*
X73170000Y-143890000D02*
X73170000Y-140790000D01*
X73170000Y-140790000D02*
X76770000Y-140790000D01*
X41932000Y-106452000D02*
X38332000Y-106452000D01*
X41932000Y-103352000D02*
X41932000Y-106452000D01*
X38332000Y-106452000D02*
X38332000Y-103352000D01*
X38332000Y-103352000D02*
X41932000Y-103352000D01*
X115333846Y-151082339D02*
X112216154Y-149282339D01*
X116883846Y-148397661D02*
X115333846Y-151082339D01*
X112216154Y-149282339D02*
X113766154Y-146597661D01*
X113766154Y-146597661D02*
X116883846Y-148397661D01*
X110468000Y-118084000D02*
X114068000Y-118084000D01*
X110468000Y-121184000D02*
X110468000Y-118084000D01*
X114068000Y-118084000D02*
X114068000Y-121184000D01*
X114068000Y-121184000D02*
X110468000Y-121184000D01*
X59718000Y-128612000D02*
X56118000Y-128612000D01*
X59718000Y-125512000D02*
X59718000Y-128612000D01*
X56118000Y-128612000D02*
X56118000Y-125512000D01*
X56118000Y-125512000D02*
X59718000Y-125512000D01*
X78000000Y-99340000D02*
X74400000Y-99340000D01*
X78000000Y-96240000D02*
X78000000Y-99340000D01*
X74400000Y-99340000D02*
X74400000Y-96240000D01*
X74400000Y-96240000D02*
X78000000Y-96240000D01*
X92434000Y-115544000D02*
X96034000Y-115544000D01*
X92434000Y-118644000D02*
X92434000Y-115544000D01*
X96034000Y-115544000D02*
X96034000Y-118644000D01*
X96034000Y-118644000D02*
X92434000Y-118644000D01*
X74400000Y-113260000D02*
X78000000Y-113260000D01*
X74400000Y-116360000D02*
X74400000Y-113260000D01*
X78000000Y-113260000D02*
X78000000Y-116360000D01*
X78000000Y-116360000D02*
X74400000Y-116360000D01*
X38330000Y-120370000D02*
X41930000Y-120370000D01*
X38330000Y-123470000D02*
X38330000Y-120370000D01*
X41930000Y-120370000D02*
X41930000Y-123470000D01*
X41930000Y-123470000D02*
X38330000Y-123470000D01*
X59970000Y-101630000D02*
X56370000Y-101630000D01*
X59970000Y-98530000D02*
X59970000Y-101630000D01*
X56370000Y-101630000D02*
X56370000Y-98530000D01*
X56370000Y-98530000D02*
X59970000Y-98530000D01*
X92402500Y-81560000D02*
X96002500Y-81560000D01*
X92402500Y-84660000D02*
X92402500Y-81560000D01*
X96002500Y-81560000D02*
X96002500Y-84660000D01*
X96002500Y-84660000D02*
X92402500Y-84660000D01*
X56350000Y-81560000D02*
X59950000Y-81560000D01*
X56350000Y-84660000D02*
X56350000Y-81560000D01*
X59950000Y-81560000D02*
X59950000Y-84660000D01*
X59950000Y-84660000D02*
X56350000Y-84660000D01*
X95571497Y-147759059D02*
X92094164Y-146827311D01*
X96373836Y-144764689D02*
X95571497Y-147759059D01*
X92094164Y-146827311D02*
X92896503Y-143832941D01*
X92896503Y-143832941D02*
X96373836Y-144764689D01*
X110330000Y-83970000D02*
X113930000Y-83970000D01*
X110330000Y-87070000D02*
X110330000Y-83970000D01*
X113930000Y-83970000D02*
X113930000Y-87070000D01*
X113930000Y-87070000D02*
X110330000Y-87070000D01*
X56366000Y-115544000D02*
X59966000Y-115544000D01*
X56366000Y-118644000D02*
X56366000Y-115544000D01*
X59966000Y-115544000D02*
X59966000Y-118644000D01*
X59966000Y-118644000D02*
X56366000Y-118644000D01*
X74350000Y-79170000D02*
X77950000Y-79170000D01*
X74350000Y-82270000D02*
X74350000Y-79170000D01*
X77950000Y-79170000D02*
X77950000Y-82270000D01*
X77950000Y-82270000D02*
X74350000Y-82270000D01*
X113927500Y-104020000D02*
X110327500Y-104020000D01*
X113927500Y-100920000D02*
X113927500Y-104020000D01*
X110327500Y-104020000D02*
X110327500Y-100920000D01*
X110327500Y-100920000D02*
X113927500Y-100920000D01*
D11*
X124570000Y-127540000D03*
X117570000Y-127540000D03*
X124570000Y-129290000D03*
X117570000Y-129290000D03*
D12*
X115770000Y-125440000D03*
X115770000Y-131390000D03*
X119770000Y-125440000D03*
X119770000Y-131390000D03*
X122770000Y-125440000D03*
X122770000Y-131390000D03*
X114270000Y-127190000D03*
X114270000Y-129640000D03*
D13*
X49010000Y-89190000D03*
X49010000Y-85790000D03*
D14*
X107061000Y-97726500D03*
D15*
X108331000Y-95186499D03*
X109601000Y-92646500D03*
D16*
X112141000Y-97726500D03*
D15*
X114681000Y-92646500D03*
X115951000Y-95186500D03*
D14*
X117221000Y-97726500D03*
D17*
X103641000Y-95226500D03*
D18*
X119341000Y-92626500D03*
D13*
X84720000Y-85050000D03*
X84720000Y-81650000D03*
X86680000Y-85029999D03*
X86680000Y-81629999D03*
D14*
X89090500Y-112331500D03*
D15*
X90360500Y-109791499D03*
X91630500Y-107251500D03*
D16*
X94170500Y-112331500D03*
D15*
X96710500Y-107251500D03*
X97980500Y-109791500D03*
D14*
X99250500Y-112331500D03*
D17*
X85670500Y-109831500D03*
D18*
X101370500Y-107231500D03*
D19*
X42960000Y-152560000D03*
X49760000Y-152560000D03*
D13*
X47350000Y-105760000D03*
X47350000Y-102360000D03*
D14*
X107061000Y-114744500D03*
D15*
X108331000Y-112204499D03*
X109601000Y-109664500D03*
D16*
X112141000Y-114744500D03*
D15*
X114681000Y-109664500D03*
X115951000Y-112204500D03*
D14*
X117221000Y-114744500D03*
D17*
X103641000Y-112244500D03*
D18*
X119341000Y-109644500D03*
D20*
X76980000Y-149030000D03*
X73580000Y-149030000D03*
D14*
X90660597Y-139972699D03*
D15*
X92544723Y-137847947D03*
X94428849Y-135723196D03*
D16*
X95567500Y-141287500D03*
D15*
X99335752Y-137037997D03*
X99905078Y-139820149D03*
D14*
X100474403Y-142602301D03*
D21*
X88004178Y-136672724D03*
D22*
X103842143Y-138224775D03*
D23*
X63790000Y-143940000D03*
X63790000Y-141400000D03*
X63790000Y-138860000D03*
X63790000Y-136320000D03*
D13*
X104380000Y-104319999D03*
X104380000Y-100919999D03*
D14*
X53086000Y-112331500D03*
D15*
X54356000Y-109791499D03*
X55626000Y-107251500D03*
D16*
X58166000Y-112331500D03*
D15*
X60706000Y-107251500D03*
X61976000Y-109791500D03*
D14*
X63246000Y-112331500D03*
D17*
X49666000Y-109831500D03*
D18*
X65366000Y-107231500D03*
D14*
X71056500Y-92964000D03*
D15*
X72326500Y-90423999D03*
X73596500Y-87884000D03*
D16*
X76136500Y-92964000D03*
D15*
X78676500Y-87884000D03*
X79946500Y-90424000D03*
D14*
X81216500Y-92964000D03*
D17*
X67636500Y-90464000D03*
D18*
X83336500Y-87864000D03*
D14*
X35052000Y-117094000D03*
D15*
X36322000Y-114553999D03*
X37592000Y-112014000D03*
D16*
X40132000Y-117094000D03*
D15*
X42672000Y-112014000D03*
X43942000Y-114554000D03*
D14*
X45212000Y-117094000D03*
D17*
X31632000Y-114594000D03*
D18*
X47332000Y-111994000D03*
D14*
X112440591Y-142176500D03*
D15*
X114810444Y-140611795D03*
X117180295Y-139047091D03*
D16*
X116840000Y-144716500D03*
D15*
X121579705Y-141587091D03*
X121409557Y-144421795D03*
D14*
X121239409Y-147256500D03*
D24*
X110728784Y-138301436D03*
D25*
X125625383Y-143899770D03*
D14*
X107061000Y-80772000D03*
D15*
X108331000Y-78231999D03*
X109601000Y-75692000D03*
D16*
X112141000Y-80772000D03*
D15*
X114681000Y-75692000D03*
X115951000Y-78232000D03*
D14*
X117221000Y-80772000D03*
D17*
X103641000Y-78272000D03*
D18*
X119341000Y-75672000D03*
D26*
X37070000Y-139900000D03*
X43570000Y-139900000D03*
D13*
X86380000Y-101820000D03*
X86380000Y-98420000D03*
D26*
X72410000Y-145310000D03*
X77410000Y-145310000D03*
X74910000Y-145310000D03*
D27*
X69310000Y-137810000D03*
X80510000Y-137810000D03*
D26*
X77410000Y-130810000D03*
X72410000Y-130810000D03*
D13*
X84480000Y-101810000D03*
X84480000Y-98410000D03*
X104530000Y-87400000D03*
X104530000Y-84000000D03*
D14*
X71056500Y-75946000D03*
D15*
X72326500Y-73405999D03*
X73596500Y-70866000D03*
D16*
X76136500Y-75946000D03*
D15*
X78676500Y-70866000D03*
X79946500Y-73406000D03*
D14*
X81216500Y-75946000D03*
D17*
X67636500Y-73446000D03*
D18*
X83336500Y-70846000D03*
D28*
X54230000Y-151970000D03*
D29*
X56730000Y-151970000D03*
D13*
X47100000Y-89190000D03*
X47100000Y-85790000D03*
D14*
X89090500Y-78359000D03*
D15*
X90360500Y-75818999D03*
X91630500Y-73279000D03*
D16*
X94170500Y-78359000D03*
D15*
X96710500Y-73279000D03*
X97980500Y-75819000D03*
D14*
X99250500Y-78359000D03*
D17*
X85670500Y-75859000D03*
D18*
X101370500Y-73259000D03*
D14*
X35052000Y-83121500D03*
D15*
X36322000Y-80581499D03*
X37592000Y-78041500D03*
D16*
X40132000Y-83121500D03*
D15*
X42672000Y-78041500D03*
X43942000Y-80581500D03*
D14*
X45212000Y-83121500D03*
D17*
X31632000Y-80621500D03*
D18*
X47332000Y-78021500D03*
D13*
X49280000Y-105740000D03*
X49280000Y-102340000D03*
X86500000Y-120099999D03*
X86500000Y-116699999D03*
X86500000Y-146660000D03*
X86500000Y-143260000D03*
D14*
X71120000Y-109982000D03*
D15*
X72390000Y-107441999D03*
X73660000Y-104902000D03*
D16*
X76200000Y-109982000D03*
D15*
X78740000Y-104902000D03*
X80010000Y-107442000D03*
D14*
X81280000Y-109982000D03*
D17*
X67700000Y-107482000D03*
D18*
X83400000Y-104882000D03*
D14*
X35052000Y-100076000D03*
D15*
X36322000Y-97535999D03*
X37592000Y-94996000D03*
D16*
X40132000Y-100076000D03*
D15*
X42672000Y-94996000D03*
X43942000Y-97536000D03*
D14*
X45212000Y-100076000D03*
D17*
X31632000Y-97576000D03*
D18*
X47332000Y-94976000D03*
D13*
X48230000Y-125060000D03*
X48230000Y-121660000D03*
D14*
X53086000Y-78359000D03*
D15*
X54356000Y-75818999D03*
X55626000Y-73279000D03*
D16*
X58166000Y-78359000D03*
D15*
X60706000Y-73279000D03*
X61976000Y-75819000D03*
D14*
X63246000Y-78359000D03*
D17*
X49666000Y-75859000D03*
D18*
X65366000Y-73259000D03*
D13*
X104230000Y-122580000D03*
X104230000Y-119180000D03*
D28*
X36170000Y-151910000D03*
D29*
X38670000Y-151910000D03*
D14*
X89090500Y-95377000D03*
D15*
X90360500Y-92836999D03*
X91630500Y-90297000D03*
D16*
X94170500Y-95377000D03*
D15*
X96710500Y-90297000D03*
X97980500Y-92837000D03*
D14*
X99250500Y-95377000D03*
D17*
X85670500Y-92877000D03*
D18*
X101370500Y-90277000D03*
D14*
X53086000Y-95313500D03*
D15*
X54356000Y-92773499D03*
X55626000Y-90233500D03*
D16*
X58166000Y-95313500D03*
D15*
X60706000Y-90233500D03*
X61976000Y-92773500D03*
D14*
X63246000Y-95313500D03*
D17*
X49666000Y-92813500D03*
D18*
X65366000Y-90213500D03*
D13*
X50250000Y-125020000D03*
X50250000Y-121620000D03*
X105350000Y-149430001D03*
X105350000Y-146030001D03*
X84590000Y-120160000D03*
X84590000Y-116760000D03*
D14*
X69790000Y-137820000D03*
D15*
X71060000Y-135279999D03*
X72330000Y-132740000D03*
D16*
X74870000Y-137820000D03*
D15*
X77410000Y-132740000D03*
X78680000Y-135280000D03*
D14*
X79950000Y-137820000D03*
D17*
X66370000Y-135320000D03*
D18*
X82070000Y-132720000D03*
D30*
X91434000Y-99376000D03*
X91434000Y-100776000D03*
X97034000Y-100776000D03*
X97034000Y-99376000D03*
D31*
X42920000Y-88560000D03*
X42920000Y-87160000D03*
X37320000Y-87160000D03*
X37320000Y-88560000D03*
D30*
X72170000Y-141640000D03*
X72170000Y-143040000D03*
X77770000Y-143040000D03*
X77770000Y-141640000D03*
X37332000Y-104202000D03*
X37332000Y-105602000D03*
X42932000Y-105602000D03*
X42932000Y-104202000D03*
D32*
X108820380Y-130550000D03*
X107819620Y-130550000D03*
X59860000Y-136340000D03*
X58859240Y-136340000D03*
D33*
X112475129Y-146833782D03*
X111775129Y-148046218D03*
X116624871Y-150846218D03*
X117324871Y-149633782D03*
D32*
X59890380Y-141550000D03*
X58889620Y-141550000D03*
D31*
X115068000Y-120334000D03*
X115068000Y-118934000D03*
X109468000Y-118934000D03*
X109468000Y-120334000D03*
D30*
X55118000Y-126362000D03*
X55118000Y-127762000D03*
X60718000Y-127762000D03*
X60718000Y-126362000D03*
X73400000Y-97090000D03*
X73400000Y-98490000D03*
X79000000Y-98490000D03*
X79000000Y-97090000D03*
D31*
X97034000Y-117794000D03*
X97034000Y-116394000D03*
X91434000Y-116394000D03*
X91434000Y-117794000D03*
D32*
X108840380Y-128540000D03*
X107839620Y-128540000D03*
X59910380Y-138950000D03*
X58909620Y-138950000D03*
D34*
X31700000Y-147068600D03*
X34240000Y-146611400D03*
X36780000Y-147068600D03*
X39320000Y-146611400D03*
X41860000Y-147068600D03*
X44400000Y-146611400D03*
X46940000Y-147068600D03*
X49480000Y-146611400D03*
X52020000Y-147068600D03*
X54560000Y-146611400D03*
X57100000Y-147068600D03*
X59640000Y-146611400D03*
X59640000Y-131828600D03*
X57100000Y-131371400D03*
X54560000Y-131828600D03*
X52020000Y-131371400D03*
X49480000Y-131828600D03*
X46940000Y-131371400D03*
X44400000Y-131828600D03*
X41860000Y-131371400D03*
X39320000Y-131828600D03*
X36780000Y-131371400D03*
X34240000Y-131828600D03*
D35*
X31700000Y-131371400D03*
D31*
X79000000Y-115510000D03*
X79000000Y-114110000D03*
X73400000Y-114110000D03*
X73400000Y-115510000D03*
X42930000Y-122620000D03*
X42930000Y-121220000D03*
X37330000Y-121220000D03*
X37330000Y-122620000D03*
D30*
X55370000Y-99380000D03*
X55370000Y-100780000D03*
X60970000Y-100780000D03*
X60970000Y-99380000D03*
D31*
X97002500Y-83810000D03*
X97002500Y-82410000D03*
X91402500Y-82410000D03*
X91402500Y-83810000D03*
X60950000Y-83810000D03*
X60950000Y-82410000D03*
X55350000Y-82410000D03*
X55350000Y-83810000D03*
D36*
X91710581Y-144395159D03*
X91348234Y-145747455D03*
X96757419Y-147196841D03*
X97119766Y-145844545D03*
D32*
X59910000Y-144100000D03*
X58909240Y-144100000D03*
D31*
X114930000Y-86220000D03*
X114930000Y-84820000D03*
X109330000Y-84820000D03*
X109330000Y-86220000D03*
X60966000Y-117794000D03*
X60966000Y-116394000D03*
X55366000Y-116394000D03*
X55366000Y-117794000D03*
X78950000Y-81420000D03*
X78950000Y-80020000D03*
X73350000Y-80020000D03*
X73350000Y-81420000D03*
D30*
X109327500Y-101770000D03*
X109327500Y-103170000D03*
X114927500Y-103170000D03*
X114927500Y-101770000D03*
G36*
X122704653Y-143215659D02*
G01*
X122706964Y-143224281D01*
X122707085Y-143224491D01*
X122707278Y-143224949D01*
X122708334Y-143228704D01*
X122941276Y-143824932D01*
X122945678Y-143833586D01*
X122951675Y-143841202D01*
X122961131Y-143851048D01*
X122961275Y-143851216D01*
X122969588Y-143862051D01*
X122976222Y-143869133D01*
X122984112Y-143874787D01*
X124624166Y-144821673D01*
X124625165Y-144823335D01*
X124624285Y-144825063D01*
X124622354Y-144825233D01*
X124622345Y-144825229D01*
X124622157Y-144825133D01*
X123031567Y-143906804D01*
X122901975Y-144002447D01*
X122918992Y-144077004D01*
X122918408Y-144078910D01*
X122916467Y-144079365D01*
X122915097Y-144077916D01*
X122882737Y-143943128D01*
X122789719Y-143718564D01*
X122662720Y-143511321D01*
X122524982Y-143350050D01*
X122524593Y-143348157D01*
X122525988Y-143346819D01*
X122527863Y-143347285D01*
X122553095Y-143370696D01*
X122700720Y-143306290D01*
X122700721Y-143216177D01*
X122701574Y-143214539D01*
X122703405Y-143214298D01*
X122704653Y-143215659D01*
G37*
G36*
X123711737Y-141414376D02*
G01*
X123711716Y-141416339D01*
X122717842Y-143137778D01*
X122716150Y-143138778D01*
X122714419Y-143137846D01*
X122714321Y-143135884D01*
X122714330Y-143135866D01*
X122714387Y-143135760D01*
X122972202Y-142689210D01*
X122781949Y-142560608D01*
X122781087Y-142559220D01*
X122781548Y-142557652D01*
X122832868Y-142497564D01*
X122959867Y-142290321D01*
X123020984Y-142142773D01*
X123022120Y-142141669D01*
X123023702Y-142141737D01*
X123230566Y-142241712D01*
X123708242Y-141414354D01*
X123708310Y-141414245D01*
X123708320Y-141414230D01*
X123710070Y-141413341D01*
X123711737Y-141414376D01*
G37*
G36*
X122258308Y-142978484D02*
G01*
X122259129Y-142980253D01*
X122248658Y-143119953D01*
X122252316Y-143122448D01*
X122253186Y-143124217D01*
X122252115Y-143125873D01*
X122250144Y-143125805D01*
X122112787Y-143041632D01*
X122112536Y-143041528D01*
X122111456Y-143040445D01*
X122111457Y-143038915D01*
X122112539Y-143037833D01*
X122256370Y-142978256D01*
X122258308Y-142978484D01*
G37*
G36*
X120739116Y-142883080D02*
G01*
X120876472Y-142967252D01*
X120876723Y-142967356D01*
X120877805Y-142968439D01*
X120877805Y-142969969D01*
X120876722Y-142971052D01*
X120732891Y-143030628D01*
X120730953Y-143030400D01*
X120730132Y-143028631D01*
X120740600Y-142888930D01*
X120736944Y-142886437D01*
X120736074Y-142884668D01*
X120737145Y-142883012D01*
X120739116Y-142883080D01*
G37*
G36*
X116337167Y-140341524D02*
G01*
X116470006Y-140422927D01*
X116470960Y-140424583D01*
X116470088Y-140426284D01*
X116355072Y-140504703D01*
X116356086Y-140518232D01*
X116355221Y-140520032D01*
X116353229Y-140520185D01*
X116352098Y-140518538D01*
X116340367Y-140369479D01*
X116334177Y-140343696D01*
X116334417Y-140342184D01*
X116335655Y-140341284D01*
X116337167Y-140341524D01*
G37*
G36*
X100849485Y-138328696D02*
G01*
X100850866Y-138331644D01*
X101230127Y-138847189D01*
X101236614Y-138854403D01*
X101244381Y-138860209D01*
X101256063Y-138867272D01*
X101256246Y-138867397D01*
X101267089Y-138875717D01*
X101275318Y-138880833D01*
X101284403Y-138884253D01*
X103064210Y-139361152D01*
X103065624Y-139362566D01*
X103065106Y-139364498D01*
X103063174Y-139365016D01*
X101338722Y-138902950D01*
X101237858Y-139034399D01*
X101236166Y-139035178D01*
X101234566Y-139034226D01*
X101158241Y-138909675D01*
X101000382Y-138724844D01*
X100815551Y-138566985D01*
X100644502Y-138462166D01*
X100643547Y-138460476D01*
X100644477Y-138458772D01*
X100646415Y-138458659D01*
X100746497Y-138506855D01*
X100868945Y-138398470D01*
X100853828Y-138353916D01*
X100853829Y-138353904D01*
X100845780Y-138330187D01*
X100846123Y-138328282D01*
X100847918Y-138327559D01*
X100849485Y-138328696D01*
G37*
G36*
X115638604Y-139139887D02*
G01*
X115650371Y-139289406D01*
X115656561Y-139315189D01*
X115656321Y-139316701D01*
X115655083Y-139317601D01*
X115653571Y-139317361D01*
X115520730Y-139235956D01*
X115519776Y-139234300D01*
X115520648Y-139232599D01*
X115635664Y-139154183D01*
X115634616Y-139140193D01*
X115635481Y-139138393D01*
X115637473Y-139138240D01*
X115638604Y-139139887D01*
G37*
G36*
X99016633Y-138549481D02*
G01*
X99017871Y-138550381D01*
X99018111Y-138551893D01*
X99017211Y-138553131D01*
X98994604Y-138566985D01*
X98876228Y-138668087D01*
X98874287Y-138668460D01*
X98872973Y-138666984D01*
X98873569Y-138665100D01*
X98890274Y-138649600D01*
X98859489Y-138514724D01*
X98860033Y-138512857D01*
X98861906Y-138512334D01*
X99016633Y-138549481D01*
G37*
G36*
X100367818Y-138191194D02*
G01*
X100367222Y-138193078D01*
X100350555Y-138208542D01*
X100381338Y-138343420D01*
X100380794Y-138345287D01*
X100378921Y-138345810D01*
X100224196Y-138308664D01*
X100222958Y-138307764D01*
X100222718Y-138306252D01*
X100223618Y-138305014D01*
X100246225Y-138291160D01*
X100364563Y-138190091D01*
X100366504Y-138189718D01*
X100367818Y-138191194D01*
G37*
G36*
X101350448Y-136319381D02*
G01*
X101350921Y-136321267D01*
X100836455Y-138241278D01*
X100835068Y-138242684D01*
X100833150Y-138242214D01*
X100832571Y-138240326D01*
X100832573Y-138240317D01*
X100832593Y-138240233D01*
X100967811Y-137735589D01*
X100768498Y-137653032D01*
X100726944Y-137725006D01*
X100725299Y-137726004D01*
X100723574Y-137725153D01*
X100723364Y-137723241D01*
X100808932Y-137516663D01*
X100865675Y-137280312D01*
X100877410Y-137131197D01*
X100878541Y-137129550D01*
X100880533Y-137129703D01*
X100881398Y-137131503D01*
X100874651Y-137221545D01*
X101095495Y-137259068D01*
X101347054Y-136320239D01*
X101347113Y-136320055D01*
X101347116Y-136320047D01*
X101348597Y-136318788D01*
X101350448Y-136319381D01*
G37*
G36*
X93949937Y-137196275D02*
G01*
X93950179Y-137196375D01*
X94134134Y-137240539D01*
X94135568Y-137241861D01*
X94135194Y-137243775D01*
X94133369Y-137244462D01*
X94104296Y-137240080D01*
X94015865Y-137335386D01*
X94054147Y-137503113D01*
X94053563Y-137505019D01*
X94051622Y-137505473D01*
X94050252Y-137504025D01*
X94017903Y-137369280D01*
X93947323Y-137198887D01*
X93947323Y-137197356D01*
X93948406Y-137196274D01*
X93949937Y-137196275D01*
G37*
G36*
X79460521Y-136614777D02*
G01*
X79461000Y-136616076D01*
X79461000Y-137069136D01*
X79460176Y-137070754D01*
X79403171Y-137112170D01*
X79401218Y-137112395D01*
X79400016Y-137110839D01*
X79400726Y-137109006D01*
X79433382Y-137082206D01*
X79457000Y-137032270D01*
X79457000Y-136752086D01*
X79342797Y-136680327D01*
X79341939Y-136679188D01*
X79342059Y-136677766D01*
X79343096Y-136676786D01*
X79383230Y-136660162D01*
X79457955Y-136614371D01*
X79459313Y-136614101D01*
X79460521Y-136614777D01*
G37*
G36*
X92923292Y-136067007D02*
G01*
X92955668Y-136201862D01*
X93026248Y-136372255D01*
X93026248Y-136373785D01*
X93025166Y-136374867D01*
X93023636Y-136374868D01*
X93023392Y-136374767D01*
X92839428Y-136330601D01*
X92837994Y-136329279D01*
X92838368Y-136327365D01*
X92840193Y-136326678D01*
X92869274Y-136331061D01*
X92957704Y-136235755D01*
X92919397Y-136067919D01*
X92919981Y-136066013D01*
X92921922Y-136065558D01*
X92923292Y-136067007D01*
G37*
G36*
X80032515Y-136033999D02*
G01*
X80104105Y-136158000D01*
X80104105Y-136160000D01*
X80102373Y-136161000D01*
X79954796Y-136161000D01*
X79953497Y-136160521D01*
X79952821Y-136159313D01*
X79953091Y-136157955D01*
X80029078Y-136033954D01*
X80030809Y-136032999D01*
X80032515Y-136033999D01*
G37*
G36*
X69710922Y-136033954D02*
G01*
X69786910Y-136157955D01*
X69787180Y-136159313D01*
X69786504Y-136160521D01*
X69785205Y-136161000D01*
X69637625Y-136161000D01*
X69635893Y-136160000D01*
X69635893Y-136158000D01*
X69707485Y-136033999D01*
X69709191Y-136032999D01*
X69710922Y-136033954D01*
G37*
G36*
X77409999Y-134288993D02*
G01*
X77496972Y-134282148D01*
X77498428Y-134282621D01*
X77499123Y-134283985D01*
X77498650Y-134285441D01*
X77426836Y-134369526D01*
X77350844Y-134493534D01*
X77349104Y-134494489D01*
X77347398Y-134493474D01*
X77347407Y-134491489D01*
X77393342Y-134411926D01*
X77336931Y-134294788D01*
X77232280Y-134279014D01*
X77230734Y-134277811D01*
X77230957Y-134275864D01*
X77232735Y-134275042D01*
X77409999Y-134288993D01*
G37*
G36*
X72509040Y-134275865D02*
G01*
X72509263Y-134277812D01*
X72507717Y-134279015D01*
X72403067Y-134294788D01*
X72346656Y-134411927D01*
X72392568Y-134491448D01*
X72392577Y-134493433D01*
X72390871Y-134494448D01*
X72389131Y-134493493D01*
X72313163Y-134369525D01*
X72241349Y-134285441D01*
X72240876Y-134283985D01*
X72241571Y-134282621D01*
X72243027Y-134282148D01*
X72330000Y-134288993D01*
X72507262Y-134275043D01*
X72509040Y-134275865D01*
G37*
G36*
X79198519Y-133587909D02*
G01*
X79204826Y-133594216D01*
X79205039Y-133594339D01*
X79205438Y-133594640D01*
X79208236Y-133597370D01*
X79708077Y-133997243D01*
X79716214Y-134002534D01*
X79725221Y-134006134D01*
X79738332Y-134009932D01*
X79738541Y-134010005D01*
X79751155Y-134015230D01*
X79760445Y-134018049D01*
X79770094Y-134019000D01*
X79834811Y-134019000D01*
X79836504Y-134019936D01*
X79836613Y-134021868D01*
X79769002Y-134162263D01*
X79876041Y-134296486D01*
X79876347Y-134298443D01*
X79874819Y-134299703D01*
X79872956Y-134299032D01*
X79775304Y-134184695D01*
X79590473Y-134026836D01*
X79383230Y-133899837D01*
X79158666Y-133806819D01*
X79138832Y-133802057D01*
X79137408Y-133800762D01*
X79137735Y-133798865D01*
X79241009Y-133669364D01*
X79195373Y-133590323D01*
X79195292Y-133588478D01*
X79196758Y-133587353D01*
X79198519Y-133587909D01*
G37*
G36*
X78742572Y-133526572D02*
G01*
X78742563Y-133528557D01*
X78696656Y-133608071D01*
X78753066Y-133725209D01*
X78857740Y-133740986D01*
X78859286Y-133742189D01*
X78859063Y-133744136D01*
X78857285Y-133744958D01*
X78680000Y-133731006D01*
X78593027Y-133737851D01*
X78591571Y-133737378D01*
X78590876Y-133736014D01*
X78591349Y-133734558D01*
X78663163Y-133650473D01*
X78739126Y-133526512D01*
X78740866Y-133525557D01*
X78742572Y-133526572D01*
G37*
G36*
X71000861Y-133526494D02*
G01*
X71076836Y-133650473D01*
X71148650Y-133734557D01*
X71149123Y-133736013D01*
X71148428Y-133737377D01*
X71146972Y-133737850D01*
X71059999Y-133731005D01*
X70882712Y-133744957D01*
X70880934Y-133744135D01*
X70880711Y-133742188D01*
X70882257Y-133740985D01*
X70986931Y-133725208D01*
X71043342Y-133608070D01*
X70997424Y-133528539D01*
X70997415Y-133526554D01*
X70999121Y-133525539D01*
X71000861Y-133526494D01*
G37*
G36*
X79170333Y-132498432D02*
G01*
X79171000Y-132499923D01*
X79171000Y-132980077D01*
X79170333Y-132981568D01*
X79168776Y-132982064D01*
X78948545Y-132957250D01*
X78944488Y-132975023D01*
X78943220Y-132976458D01*
X78941326Y-132976169D01*
X78940544Y-132974421D01*
X78958993Y-132739999D01*
X78940544Y-132505578D01*
X78941326Y-132503830D01*
X78943220Y-132503541D01*
X78944488Y-132504976D01*
X78948545Y-132522749D01*
X79168776Y-132497936D01*
X79170333Y-132498432D01*
G37*
G36*
X115321680Y-130260102D02*
G01*
X115321321Y-130261981D01*
X115252222Y-130346179D01*
X115318825Y-130487000D01*
X115370000Y-130487000D01*
X115371696Y-130487940D01*
X115371798Y-130489877D01*
X115370209Y-130490989D01*
X115183089Y-130510656D01*
X115004348Y-130568732D01*
X114841585Y-130662703D01*
X114721559Y-130770775D01*
X114719699Y-130771220D01*
X114718316Y-130769899D01*
X114718675Y-130768020D01*
X114787777Y-130683820D01*
X114721175Y-130543000D01*
X114670000Y-130543000D01*
X114668304Y-130542060D01*
X114668202Y-130540123D01*
X114669791Y-130539011D01*
X114856910Y-130519343D01*
X115035651Y-130461267D01*
X115198414Y-130367296D01*
X115318437Y-130259226D01*
X115320297Y-130258781D01*
X115321680Y-130260102D01*
G37*
G36*
X114721561Y-126059225D02*
G01*
X114841585Y-126167296D01*
X115004348Y-126261267D01*
X115183089Y-126319343D01*
X115370209Y-126339011D01*
X115371798Y-126340123D01*
X115371696Y-126342060D01*
X115370000Y-126343000D01*
X115318825Y-126343000D01*
X115252222Y-126483820D01*
X115321322Y-126568019D01*
X115321681Y-126569898D01*
X115320298Y-126571219D01*
X115318438Y-126570774D01*
X115198414Y-126462703D01*
X115035651Y-126368732D01*
X114856910Y-126310656D01*
X114669791Y-126290989D01*
X114668202Y-126289877D01*
X114668304Y-126287940D01*
X114670000Y-126287000D01*
X114721175Y-126287000D01*
X114787777Y-126146179D01*
X114718677Y-126061980D01*
X114718318Y-126060101D01*
X114719701Y-126058780D01*
X114721561Y-126059225D01*
G37*
G36*
X42671999Y-113562993D02*
G01*
X42758972Y-113556148D01*
X42760428Y-113556621D01*
X42761123Y-113557985D01*
X42760650Y-113559441D01*
X42688836Y-113643526D01*
X42612844Y-113767534D01*
X42611104Y-113768489D01*
X42609398Y-113767474D01*
X42609407Y-113765489D01*
X42655342Y-113685926D01*
X42598931Y-113568788D01*
X42494280Y-113553014D01*
X42492734Y-113551811D01*
X42492957Y-113549864D01*
X42494735Y-113549042D01*
X42671999Y-113562993D01*
G37*
G36*
X37771040Y-113549865D02*
G01*
X37771263Y-113551812D01*
X37769717Y-113553015D01*
X37665067Y-113568788D01*
X37608656Y-113685927D01*
X37654568Y-113765448D01*
X37654577Y-113767433D01*
X37652871Y-113768448D01*
X37651131Y-113767493D01*
X37575163Y-113643525D01*
X37503349Y-113559441D01*
X37502876Y-113557985D01*
X37503571Y-113556621D01*
X37505027Y-113556148D01*
X37592000Y-113562993D01*
X37769262Y-113549043D01*
X37771040Y-113549865D01*
G37*
G36*
X44460519Y-112861909D02*
G01*
X44466826Y-112868216D01*
X44467039Y-112868339D01*
X44467438Y-112868640D01*
X44470236Y-112871370D01*
X44970077Y-113271243D01*
X44978214Y-113276534D01*
X44987221Y-113280134D01*
X45000332Y-113283932D01*
X45000541Y-113284005D01*
X45013155Y-113289230D01*
X45022445Y-113292049D01*
X45032094Y-113293000D01*
X45096811Y-113293000D01*
X45098504Y-113293936D01*
X45098613Y-113295868D01*
X45031002Y-113436263D01*
X45138041Y-113570486D01*
X45138347Y-113572443D01*
X45136819Y-113573703D01*
X45134956Y-113573032D01*
X45037304Y-113458695D01*
X44852473Y-113300836D01*
X44645230Y-113173837D01*
X44420666Y-113080819D01*
X44400832Y-113076057D01*
X44399408Y-113074762D01*
X44399735Y-113072865D01*
X44503009Y-112943364D01*
X44457373Y-112864323D01*
X44457292Y-112862478D01*
X44458758Y-112861353D01*
X44460519Y-112861909D01*
G37*
G36*
X44004572Y-112800572D02*
G01*
X44004563Y-112802557D01*
X43958656Y-112882071D01*
X44015066Y-112999209D01*
X44119740Y-113014986D01*
X44121286Y-113016189D01*
X44121063Y-113018136D01*
X44119285Y-113018958D01*
X43942000Y-113005006D01*
X43855027Y-113011851D01*
X43853571Y-113011378D01*
X43852876Y-113010014D01*
X43853349Y-113008558D01*
X43925163Y-112924473D01*
X44001126Y-112800512D01*
X44002866Y-112799557D01*
X44004572Y-112800572D01*
G37*
G36*
X36262861Y-112800494D02*
G01*
X36338836Y-112924473D01*
X36410650Y-113008557D01*
X36411123Y-113010013D01*
X36410428Y-113011377D01*
X36408972Y-113011850D01*
X36321999Y-113005005D01*
X36144712Y-113018957D01*
X36142934Y-113018135D01*
X36142711Y-113016188D01*
X36144257Y-113014985D01*
X36248931Y-112999208D01*
X36305342Y-112882070D01*
X36259424Y-112802539D01*
X36259415Y-112800554D01*
X36261121Y-112799539D01*
X36262861Y-112800494D01*
G37*
G36*
X44432333Y-111772432D02*
G01*
X44433000Y-111773923D01*
X44433000Y-112254077D01*
X44432333Y-112255568D01*
X44430776Y-112256064D01*
X44210545Y-112231250D01*
X44206488Y-112249023D01*
X44205220Y-112250458D01*
X44203326Y-112250169D01*
X44202544Y-112248421D01*
X44220993Y-112013999D01*
X44202544Y-111779578D01*
X44203326Y-111777830D01*
X44205220Y-111777541D01*
X44206488Y-111778976D01*
X44210545Y-111796749D01*
X44430776Y-111771936D01*
X44432333Y-111772432D01*
G37*
G36*
X114680999Y-111213493D02*
G01*
X114767972Y-111206648D01*
X114769428Y-111207121D01*
X114770123Y-111208485D01*
X114769650Y-111209941D01*
X114697836Y-111294026D01*
X114621844Y-111418034D01*
X114620104Y-111418989D01*
X114618398Y-111417974D01*
X114618407Y-111415989D01*
X114664342Y-111336426D01*
X114607931Y-111219288D01*
X114503280Y-111203514D01*
X114501734Y-111202311D01*
X114501957Y-111200364D01*
X114503735Y-111199542D01*
X114680999Y-111213493D01*
G37*
G36*
X109780040Y-111200365D02*
G01*
X109780263Y-111202312D01*
X109778717Y-111203515D01*
X109674067Y-111219288D01*
X109617656Y-111336427D01*
X109663568Y-111415948D01*
X109663577Y-111417933D01*
X109661871Y-111418948D01*
X109660131Y-111417993D01*
X109584163Y-111294025D01*
X109512349Y-111209941D01*
X109511876Y-111208485D01*
X109512571Y-111207121D01*
X109514027Y-111206648D01*
X109601000Y-111213493D01*
X109778262Y-111199543D01*
X109780040Y-111200365D01*
G37*
G36*
X116469519Y-110512409D02*
G01*
X116475826Y-110518716D01*
X116476039Y-110518839D01*
X116476438Y-110519140D01*
X116479236Y-110521870D01*
X116979077Y-110921743D01*
X116987214Y-110927034D01*
X116996221Y-110930634D01*
X117009332Y-110934432D01*
X117009541Y-110934505D01*
X117022155Y-110939730D01*
X117031445Y-110942549D01*
X117041094Y-110943500D01*
X117105811Y-110943500D01*
X117107504Y-110944436D01*
X117107613Y-110946368D01*
X117040002Y-111086763D01*
X117147041Y-111220986D01*
X117147347Y-111222943D01*
X117145819Y-111224203D01*
X117143956Y-111223532D01*
X117046304Y-111109195D01*
X116861473Y-110951336D01*
X116654230Y-110824337D01*
X116429666Y-110731319D01*
X116409832Y-110726557D01*
X116408408Y-110725262D01*
X116408735Y-110723365D01*
X116512009Y-110593864D01*
X116466373Y-110514823D01*
X116466292Y-110512978D01*
X116467758Y-110511853D01*
X116469519Y-110512409D01*
G37*
G36*
X116013572Y-110451072D02*
G01*
X116013563Y-110453057D01*
X115967656Y-110532571D01*
X116024066Y-110649709D01*
X116128740Y-110665486D01*
X116130286Y-110666689D01*
X116130063Y-110668636D01*
X116128285Y-110669458D01*
X115951000Y-110655506D01*
X115864027Y-110662351D01*
X115862571Y-110661878D01*
X115861876Y-110660514D01*
X115862349Y-110659058D01*
X115934163Y-110574973D01*
X116010126Y-110451012D01*
X116011866Y-110450057D01*
X116013572Y-110451072D01*
G37*
G36*
X108271861Y-110450994D02*
G01*
X108347836Y-110574973D01*
X108419650Y-110659057D01*
X108420123Y-110660513D01*
X108419428Y-110661877D01*
X108417972Y-110662350D01*
X108330999Y-110655505D01*
X108153712Y-110669457D01*
X108151934Y-110668635D01*
X108151711Y-110666688D01*
X108153257Y-110665485D01*
X108257931Y-110649708D01*
X108314342Y-110532570D01*
X108268424Y-110453039D01*
X108268415Y-110451054D01*
X108270121Y-110450039D01*
X108271861Y-110450994D01*
G37*
G36*
X116441333Y-109422932D02*
G01*
X116442000Y-109424423D01*
X116442000Y-109904577D01*
X116441333Y-109906068D01*
X116439776Y-109906564D01*
X116219545Y-109881750D01*
X116215488Y-109899523D01*
X116214220Y-109900958D01*
X116212326Y-109900669D01*
X116211544Y-109898921D01*
X116229993Y-109664499D01*
X116211544Y-109430078D01*
X116212326Y-109428330D01*
X116214220Y-109428041D01*
X116215488Y-109429476D01*
X116219545Y-109447249D01*
X116439776Y-109422436D01*
X116441333Y-109422932D01*
G37*
G36*
X96710499Y-108800493D02*
G01*
X96797472Y-108793648D01*
X96798928Y-108794121D01*
X96799623Y-108795485D01*
X96799150Y-108796941D01*
X96727336Y-108881026D01*
X96651344Y-109005034D01*
X96649604Y-109005989D01*
X96647898Y-109004974D01*
X96647907Y-109002989D01*
X96693842Y-108923426D01*
X96637431Y-108806288D01*
X96532780Y-108790514D01*
X96531234Y-108789311D01*
X96531457Y-108787364D01*
X96533235Y-108786542D01*
X96710499Y-108800493D01*
G37*
G36*
X60705999Y-108800493D02*
G01*
X60792972Y-108793648D01*
X60794428Y-108794121D01*
X60795123Y-108795485D01*
X60794650Y-108796941D01*
X60722836Y-108881026D01*
X60646844Y-109005034D01*
X60645104Y-109005989D01*
X60643398Y-109004974D01*
X60643407Y-109002989D01*
X60689342Y-108923426D01*
X60632931Y-108806288D01*
X60528280Y-108790514D01*
X60526734Y-108789311D01*
X60526957Y-108787364D01*
X60528735Y-108786542D01*
X60705999Y-108800493D01*
G37*
G36*
X91809540Y-108787365D02*
G01*
X91809763Y-108789312D01*
X91808217Y-108790515D01*
X91703567Y-108806288D01*
X91647156Y-108923427D01*
X91693068Y-109002948D01*
X91693077Y-109004933D01*
X91691371Y-109005948D01*
X91689631Y-109004993D01*
X91613663Y-108881025D01*
X91541849Y-108796941D01*
X91541376Y-108795485D01*
X91542071Y-108794121D01*
X91543527Y-108793648D01*
X91630500Y-108800493D01*
X91807762Y-108786543D01*
X91809540Y-108787365D01*
G37*
G36*
X55805040Y-108787365D02*
G01*
X55805263Y-108789312D01*
X55803717Y-108790515D01*
X55699067Y-108806288D01*
X55642656Y-108923427D01*
X55688568Y-109002948D01*
X55688577Y-109004933D01*
X55686871Y-109005948D01*
X55685131Y-109004993D01*
X55609163Y-108881025D01*
X55537349Y-108796941D01*
X55536876Y-108795485D01*
X55537571Y-108794121D01*
X55539027Y-108793648D01*
X55626000Y-108800493D01*
X55803262Y-108786543D01*
X55805040Y-108787365D01*
G37*
G36*
X98499019Y-108099409D02*
G01*
X98505326Y-108105716D01*
X98505539Y-108105839D01*
X98505938Y-108106140D01*
X98508736Y-108108870D01*
X99008577Y-108508743D01*
X99016714Y-108514034D01*
X99025721Y-108517634D01*
X99038832Y-108521432D01*
X99039041Y-108521505D01*
X99051655Y-108526730D01*
X99060945Y-108529549D01*
X99070594Y-108530500D01*
X99135311Y-108530500D01*
X99137004Y-108531436D01*
X99137113Y-108533368D01*
X99069502Y-108673763D01*
X99176541Y-108807986D01*
X99176847Y-108809943D01*
X99175319Y-108811203D01*
X99173456Y-108810532D01*
X99075804Y-108696195D01*
X98890973Y-108538336D01*
X98683730Y-108411337D01*
X98459166Y-108318319D01*
X98439332Y-108313557D01*
X98437908Y-108312262D01*
X98438235Y-108310365D01*
X98541509Y-108180864D01*
X98495873Y-108101823D01*
X98495792Y-108099978D01*
X98497258Y-108098853D01*
X98499019Y-108099409D01*
G37*
G36*
X62494519Y-108099409D02*
G01*
X62500826Y-108105716D01*
X62501039Y-108105839D01*
X62501438Y-108106140D01*
X62504236Y-108108870D01*
X63004077Y-108508743D01*
X63012214Y-108514034D01*
X63021221Y-108517634D01*
X63034332Y-108521432D01*
X63034541Y-108521505D01*
X63047155Y-108526730D01*
X63056445Y-108529549D01*
X63066094Y-108530500D01*
X63130811Y-108530500D01*
X63132504Y-108531436D01*
X63132613Y-108533368D01*
X63065002Y-108673763D01*
X63172041Y-108807986D01*
X63172347Y-108809943D01*
X63170819Y-108811203D01*
X63168956Y-108810532D01*
X63071304Y-108696195D01*
X62886473Y-108538336D01*
X62679230Y-108411337D01*
X62454666Y-108318319D01*
X62434832Y-108313557D01*
X62433408Y-108312262D01*
X62433735Y-108310365D01*
X62537009Y-108180864D01*
X62491373Y-108101823D01*
X62491292Y-108099978D01*
X62492758Y-108098853D01*
X62494519Y-108099409D01*
G37*
G36*
X98043072Y-108038072D02*
G01*
X98043063Y-108040057D01*
X97997156Y-108119571D01*
X98053566Y-108236709D01*
X98158240Y-108252486D01*
X98159786Y-108253689D01*
X98159563Y-108255636D01*
X98157785Y-108256458D01*
X97980500Y-108242506D01*
X97893527Y-108249351D01*
X97892071Y-108248878D01*
X97891376Y-108247514D01*
X97891849Y-108246058D01*
X97963663Y-108161973D01*
X98039626Y-108038012D01*
X98041366Y-108037057D01*
X98043072Y-108038072D01*
G37*
G36*
X62038572Y-108038072D02*
G01*
X62038563Y-108040057D01*
X61992656Y-108119571D01*
X62049066Y-108236709D01*
X62153740Y-108252486D01*
X62155286Y-108253689D01*
X62155063Y-108255636D01*
X62153285Y-108256458D01*
X61976000Y-108242506D01*
X61889027Y-108249351D01*
X61887571Y-108248878D01*
X61886876Y-108247514D01*
X61887349Y-108246058D01*
X61959163Y-108161973D01*
X62035126Y-108038012D01*
X62036866Y-108037057D01*
X62038572Y-108038072D01*
G37*
G36*
X90301361Y-108037994D02*
G01*
X90377336Y-108161973D01*
X90449150Y-108246057D01*
X90449623Y-108247513D01*
X90448928Y-108248877D01*
X90447472Y-108249350D01*
X90360499Y-108242505D01*
X90183212Y-108256457D01*
X90181434Y-108255635D01*
X90181211Y-108253688D01*
X90182757Y-108252485D01*
X90287431Y-108236708D01*
X90343842Y-108119570D01*
X90297924Y-108040039D01*
X90297915Y-108038054D01*
X90299621Y-108037039D01*
X90301361Y-108037994D01*
G37*
G36*
X54296861Y-108037994D02*
G01*
X54372836Y-108161973D01*
X54444650Y-108246057D01*
X54445123Y-108247513D01*
X54444428Y-108248877D01*
X54442972Y-108249350D01*
X54355999Y-108242505D01*
X54178712Y-108256457D01*
X54176934Y-108255635D01*
X54176711Y-108253688D01*
X54178257Y-108252485D01*
X54282931Y-108236708D01*
X54339342Y-108119570D01*
X54293424Y-108040039D01*
X54293415Y-108038054D01*
X54295121Y-108037039D01*
X54296861Y-108037994D01*
G37*
G36*
X98470833Y-107009932D02*
G01*
X98471500Y-107011423D01*
X98471500Y-107491577D01*
X98470833Y-107493068D01*
X98469276Y-107493564D01*
X98249045Y-107468750D01*
X98244988Y-107486523D01*
X98243720Y-107487958D01*
X98241826Y-107487669D01*
X98241044Y-107485921D01*
X98259493Y-107251499D01*
X98241044Y-107017078D01*
X98241826Y-107015330D01*
X98243720Y-107015041D01*
X98244988Y-107016476D01*
X98249045Y-107034249D01*
X98469276Y-107009436D01*
X98470833Y-107009932D01*
G37*
G36*
X62466333Y-107009932D02*
G01*
X62467000Y-107011423D01*
X62467000Y-107491577D01*
X62466333Y-107493068D01*
X62464776Y-107493564D01*
X62244545Y-107468750D01*
X62240488Y-107486523D01*
X62239220Y-107487958D01*
X62237326Y-107487669D01*
X62236544Y-107485921D01*
X62254993Y-107251499D01*
X62236544Y-107017078D01*
X62237326Y-107015330D01*
X62239220Y-107015041D01*
X62240488Y-107016476D01*
X62244545Y-107034249D01*
X62464776Y-107009436D01*
X62466333Y-107009932D01*
G37*
G36*
X78739999Y-106450993D02*
G01*
X78826972Y-106444148D01*
X78828428Y-106444621D01*
X78829123Y-106445985D01*
X78828650Y-106447441D01*
X78756836Y-106531526D01*
X78680844Y-106655534D01*
X78679104Y-106656489D01*
X78677398Y-106655474D01*
X78677407Y-106653489D01*
X78723342Y-106573926D01*
X78666931Y-106456788D01*
X78562280Y-106441014D01*
X78560734Y-106439811D01*
X78560957Y-106437864D01*
X78562735Y-106437042D01*
X78739999Y-106450993D01*
G37*
G36*
X73839040Y-106437865D02*
G01*
X73839263Y-106439812D01*
X73837717Y-106441015D01*
X73733067Y-106456788D01*
X73676656Y-106573927D01*
X73722568Y-106653448D01*
X73722577Y-106655433D01*
X73720871Y-106656448D01*
X73719131Y-106655493D01*
X73643163Y-106531525D01*
X73571349Y-106447441D01*
X73570876Y-106445985D01*
X73571571Y-106444621D01*
X73573027Y-106444148D01*
X73660000Y-106450993D01*
X73837262Y-106437043D01*
X73839040Y-106437865D01*
G37*
G36*
X80528519Y-105749909D02*
G01*
X80534826Y-105756216D01*
X80535039Y-105756339D01*
X80535438Y-105756640D01*
X80538236Y-105759370D01*
X81038077Y-106159243D01*
X81046214Y-106164534D01*
X81055221Y-106168134D01*
X81068332Y-106171932D01*
X81068541Y-106172005D01*
X81081155Y-106177230D01*
X81090445Y-106180049D01*
X81100094Y-106181000D01*
X81164811Y-106181000D01*
X81166504Y-106181936D01*
X81166613Y-106183868D01*
X81099002Y-106324263D01*
X81206041Y-106458486D01*
X81206347Y-106460443D01*
X81204819Y-106461703D01*
X81202956Y-106461032D01*
X81105304Y-106346695D01*
X80920473Y-106188836D01*
X80713230Y-106061837D01*
X80488666Y-105968819D01*
X80468832Y-105964057D01*
X80467408Y-105962762D01*
X80467735Y-105960865D01*
X80571009Y-105831364D01*
X80525373Y-105752323D01*
X80525292Y-105750478D01*
X80526758Y-105749353D01*
X80528519Y-105749909D01*
G37*
G36*
X80072572Y-105688572D02*
G01*
X80072563Y-105690557D01*
X80026656Y-105770071D01*
X80083066Y-105887209D01*
X80187740Y-105902986D01*
X80189286Y-105904189D01*
X80189063Y-105906136D01*
X80187285Y-105906958D01*
X80010000Y-105893006D01*
X79923027Y-105899851D01*
X79921571Y-105899378D01*
X79920876Y-105898014D01*
X79921349Y-105896558D01*
X79993163Y-105812473D01*
X80069126Y-105688512D01*
X80070866Y-105687557D01*
X80072572Y-105688572D01*
G37*
G36*
X72330861Y-105688494D02*
G01*
X72406836Y-105812473D01*
X72478650Y-105896557D01*
X72479123Y-105898013D01*
X72478428Y-105899377D01*
X72476972Y-105899850D01*
X72389999Y-105893005D01*
X72212712Y-105906957D01*
X72210934Y-105906135D01*
X72210711Y-105904188D01*
X72212257Y-105902985D01*
X72316931Y-105887208D01*
X72373342Y-105770070D01*
X72327424Y-105690539D01*
X72327415Y-105688554D01*
X72329121Y-105687539D01*
X72330861Y-105688494D01*
G37*
G36*
X80500333Y-104660432D02*
G01*
X80501000Y-104661923D01*
X80501000Y-105142077D01*
X80500333Y-105143568D01*
X80498776Y-105144064D01*
X80278545Y-105119250D01*
X80274488Y-105137023D01*
X80273220Y-105138458D01*
X80271326Y-105138169D01*
X80270544Y-105136421D01*
X80288993Y-104901999D01*
X80270544Y-104667578D01*
X80271326Y-104665830D01*
X80273220Y-104665541D01*
X80274488Y-104666976D01*
X80278545Y-104684749D01*
X80498776Y-104659936D01*
X80500333Y-104660432D01*
G37*
G36*
X42671999Y-96544993D02*
G01*
X42758972Y-96538148D01*
X42760428Y-96538621D01*
X42761123Y-96539985D01*
X42760650Y-96541441D01*
X42688836Y-96625526D01*
X42612844Y-96749534D01*
X42611104Y-96750489D01*
X42609398Y-96749474D01*
X42609407Y-96747489D01*
X42655342Y-96667926D01*
X42598931Y-96550788D01*
X42494280Y-96535014D01*
X42492734Y-96533811D01*
X42492957Y-96531864D01*
X42494735Y-96531042D01*
X42671999Y-96544993D01*
G37*
G36*
X37771040Y-96531865D02*
G01*
X37771263Y-96533812D01*
X37769717Y-96535015D01*
X37665067Y-96550788D01*
X37608656Y-96667927D01*
X37654568Y-96747448D01*
X37654577Y-96749433D01*
X37652871Y-96750448D01*
X37651131Y-96749493D01*
X37575163Y-96625525D01*
X37503349Y-96541441D01*
X37502876Y-96539985D01*
X37503571Y-96538621D01*
X37505027Y-96538148D01*
X37592000Y-96544993D01*
X37769262Y-96531043D01*
X37771040Y-96531865D01*
G37*
G36*
X44460519Y-95843909D02*
G01*
X44466826Y-95850216D01*
X44467039Y-95850339D01*
X44467438Y-95850640D01*
X44470236Y-95853370D01*
X44970077Y-96253243D01*
X44978214Y-96258534D01*
X44987221Y-96262134D01*
X45000332Y-96265932D01*
X45000541Y-96266005D01*
X45013155Y-96271230D01*
X45022445Y-96274049D01*
X45032094Y-96275000D01*
X45096811Y-96275000D01*
X45098504Y-96275936D01*
X45098613Y-96277868D01*
X45031002Y-96418263D01*
X45138041Y-96552486D01*
X45138347Y-96554443D01*
X45136819Y-96555703D01*
X45134956Y-96555032D01*
X45037304Y-96440695D01*
X44852473Y-96282836D01*
X44645230Y-96155837D01*
X44420666Y-96062819D01*
X44400832Y-96058057D01*
X44399408Y-96056762D01*
X44399735Y-96054865D01*
X44503009Y-95925364D01*
X44457373Y-95846323D01*
X44457292Y-95844478D01*
X44458758Y-95843353D01*
X44460519Y-95843909D01*
G37*
G36*
X44004572Y-95782572D02*
G01*
X44004563Y-95784557D01*
X43958656Y-95864071D01*
X44015066Y-95981209D01*
X44119740Y-95996986D01*
X44121286Y-95998189D01*
X44121063Y-96000136D01*
X44119285Y-96000958D01*
X43942000Y-95987006D01*
X43855027Y-95993851D01*
X43853571Y-95993378D01*
X43852876Y-95992014D01*
X43853349Y-95990558D01*
X43925163Y-95906473D01*
X44001126Y-95782512D01*
X44002866Y-95781557D01*
X44004572Y-95782572D01*
G37*
G36*
X36262861Y-95782494D02*
G01*
X36338836Y-95906473D01*
X36410650Y-95990557D01*
X36411123Y-95992013D01*
X36410428Y-95993377D01*
X36408972Y-95993850D01*
X36321999Y-95987005D01*
X36144712Y-96000957D01*
X36142934Y-96000135D01*
X36142711Y-95998188D01*
X36144257Y-95996985D01*
X36248931Y-95981208D01*
X36305342Y-95864070D01*
X36259424Y-95784539D01*
X36259415Y-95782554D01*
X36261121Y-95781539D01*
X36262861Y-95782494D01*
G37*
G36*
X44432333Y-94754432D02*
G01*
X44433000Y-94755923D01*
X44433000Y-95236077D01*
X44432333Y-95237568D01*
X44430776Y-95238064D01*
X44210545Y-95213250D01*
X44206488Y-95231023D01*
X44205220Y-95232458D01*
X44203326Y-95232169D01*
X44202544Y-95230421D01*
X44220993Y-94995999D01*
X44202544Y-94761578D01*
X44203326Y-94759830D01*
X44205220Y-94759541D01*
X44206488Y-94760976D01*
X44210545Y-94778749D01*
X44430776Y-94753936D01*
X44432333Y-94754432D01*
G37*
G36*
X114680999Y-94195493D02*
G01*
X114767972Y-94188648D01*
X114769428Y-94189121D01*
X114770123Y-94190485D01*
X114769650Y-94191941D01*
X114697836Y-94276026D01*
X114621844Y-94400034D01*
X114620104Y-94400989D01*
X114618398Y-94399974D01*
X114618407Y-94397989D01*
X114664342Y-94318426D01*
X114607931Y-94201288D01*
X114503280Y-94185514D01*
X114501734Y-94184311D01*
X114501957Y-94182364D01*
X114503735Y-94181542D01*
X114680999Y-94195493D01*
G37*
G36*
X109780040Y-94182365D02*
G01*
X109780263Y-94184312D01*
X109778717Y-94185515D01*
X109674067Y-94201288D01*
X109617656Y-94318427D01*
X109663568Y-94397948D01*
X109663577Y-94399933D01*
X109661871Y-94400948D01*
X109660131Y-94399993D01*
X109584163Y-94276025D01*
X109512349Y-94191941D01*
X109511876Y-94190485D01*
X109512571Y-94189121D01*
X109514027Y-94188648D01*
X109601000Y-94195493D01*
X109778262Y-94181543D01*
X109780040Y-94182365D01*
G37*
G36*
X116469519Y-93494409D02*
G01*
X116475826Y-93500716D01*
X116476039Y-93500839D01*
X116476438Y-93501140D01*
X116479236Y-93503870D01*
X116979077Y-93903743D01*
X116987214Y-93909034D01*
X116996221Y-93912634D01*
X117009332Y-93916432D01*
X117009541Y-93916505D01*
X117022155Y-93921730D01*
X117031445Y-93924549D01*
X117041094Y-93925500D01*
X117105811Y-93925500D01*
X117107504Y-93926436D01*
X117107613Y-93928368D01*
X117040002Y-94068763D01*
X117147041Y-94202986D01*
X117147347Y-94204943D01*
X117145819Y-94206203D01*
X117143956Y-94205532D01*
X117046304Y-94091195D01*
X116861473Y-93933336D01*
X116654230Y-93806337D01*
X116429666Y-93713319D01*
X116409832Y-93708557D01*
X116408408Y-93707262D01*
X116408735Y-93705365D01*
X116512009Y-93575864D01*
X116466373Y-93496823D01*
X116466292Y-93494978D01*
X116467758Y-93493853D01*
X116469519Y-93494409D01*
G37*
G36*
X116013572Y-93433072D02*
G01*
X116013563Y-93435057D01*
X115967656Y-93514571D01*
X116024066Y-93631709D01*
X116128740Y-93647486D01*
X116130286Y-93648689D01*
X116130063Y-93650636D01*
X116128285Y-93651458D01*
X115951000Y-93637506D01*
X115864027Y-93644351D01*
X115862571Y-93643878D01*
X115861876Y-93642514D01*
X115862349Y-93641058D01*
X115934163Y-93556973D01*
X116010126Y-93433012D01*
X116011866Y-93432057D01*
X116013572Y-93433072D01*
G37*
G36*
X108271861Y-93432994D02*
G01*
X108347836Y-93556973D01*
X108419650Y-93641057D01*
X108420123Y-93642513D01*
X108419428Y-93643877D01*
X108417972Y-93644350D01*
X108330999Y-93637505D01*
X108153712Y-93651457D01*
X108151934Y-93650635D01*
X108151711Y-93648688D01*
X108153257Y-93647485D01*
X108257931Y-93631708D01*
X108314342Y-93514570D01*
X108268424Y-93435039D01*
X108268415Y-93433054D01*
X108270121Y-93432039D01*
X108271861Y-93432994D01*
G37*
G36*
X116441333Y-92404932D02*
G01*
X116442000Y-92406423D01*
X116442000Y-92886577D01*
X116441333Y-92888068D01*
X116439776Y-92888564D01*
X116219545Y-92863750D01*
X116215488Y-92881523D01*
X116214220Y-92882958D01*
X116212326Y-92882669D01*
X116211544Y-92880921D01*
X116229993Y-92646499D01*
X116211544Y-92412078D01*
X116212326Y-92410330D01*
X116214220Y-92410041D01*
X116215488Y-92411476D01*
X116219545Y-92429249D01*
X116439776Y-92404436D01*
X116441333Y-92404932D01*
G37*
G36*
X96710499Y-91845993D02*
G01*
X96797472Y-91839148D01*
X96798928Y-91839621D01*
X96799623Y-91840985D01*
X96799150Y-91842441D01*
X96727336Y-91926526D01*
X96651344Y-92050534D01*
X96649604Y-92051489D01*
X96647898Y-92050474D01*
X96647907Y-92048489D01*
X96693842Y-91968926D01*
X96637431Y-91851788D01*
X96532780Y-91836014D01*
X96531234Y-91834811D01*
X96531457Y-91832864D01*
X96533235Y-91832042D01*
X96710499Y-91845993D01*
G37*
G36*
X91809540Y-91832865D02*
G01*
X91809763Y-91834812D01*
X91808217Y-91836015D01*
X91703567Y-91851788D01*
X91647156Y-91968927D01*
X91693068Y-92048448D01*
X91693077Y-92050433D01*
X91691371Y-92051448D01*
X91689631Y-92050493D01*
X91613663Y-91926525D01*
X91541849Y-91842441D01*
X91541376Y-91840985D01*
X91542071Y-91839621D01*
X91543527Y-91839148D01*
X91630500Y-91845993D01*
X91807762Y-91832043D01*
X91809540Y-91832865D01*
G37*
G36*
X60705999Y-91782493D02*
G01*
X60792972Y-91775648D01*
X60794428Y-91776121D01*
X60795123Y-91777485D01*
X60794650Y-91778941D01*
X60722836Y-91863026D01*
X60646844Y-91987034D01*
X60645104Y-91987989D01*
X60643398Y-91986974D01*
X60643407Y-91984989D01*
X60689342Y-91905426D01*
X60632931Y-91788288D01*
X60528280Y-91772514D01*
X60526734Y-91771311D01*
X60526957Y-91769364D01*
X60528735Y-91768542D01*
X60705999Y-91782493D01*
G37*
G36*
X55805040Y-91769365D02*
G01*
X55805263Y-91771312D01*
X55803717Y-91772515D01*
X55699067Y-91788288D01*
X55642656Y-91905427D01*
X55688568Y-91984948D01*
X55688577Y-91986933D01*
X55686871Y-91987948D01*
X55685131Y-91986993D01*
X55609163Y-91863025D01*
X55537349Y-91778941D01*
X55536876Y-91777485D01*
X55537571Y-91776121D01*
X55539027Y-91775648D01*
X55626000Y-91782493D01*
X55803262Y-91768543D01*
X55805040Y-91769365D01*
G37*
G36*
X98499019Y-91144909D02*
G01*
X98505326Y-91151216D01*
X98505539Y-91151339D01*
X98505938Y-91151640D01*
X98508736Y-91154370D01*
X99008577Y-91554243D01*
X99016714Y-91559534D01*
X99025721Y-91563134D01*
X99038832Y-91566932D01*
X99039041Y-91567005D01*
X99051655Y-91572230D01*
X99060945Y-91575049D01*
X99070594Y-91576000D01*
X99135311Y-91576000D01*
X99137004Y-91576936D01*
X99137113Y-91578868D01*
X99069502Y-91719263D01*
X99176541Y-91853486D01*
X99176847Y-91855443D01*
X99175319Y-91856703D01*
X99173456Y-91856032D01*
X99075804Y-91741695D01*
X98890973Y-91583836D01*
X98683730Y-91456837D01*
X98459166Y-91363819D01*
X98439332Y-91359057D01*
X98437908Y-91357762D01*
X98438235Y-91355865D01*
X98541509Y-91226364D01*
X98495873Y-91147323D01*
X98495792Y-91145478D01*
X98497258Y-91144353D01*
X98499019Y-91144909D01*
G37*
G36*
X62494519Y-91081409D02*
G01*
X62500826Y-91087716D01*
X62501039Y-91087839D01*
X62501438Y-91088140D01*
X62504236Y-91090870D01*
X63004077Y-91490743D01*
X63012214Y-91496034D01*
X63021221Y-91499634D01*
X63034332Y-91503432D01*
X63034541Y-91503505D01*
X63047155Y-91508730D01*
X63056445Y-91511549D01*
X63066094Y-91512500D01*
X63130811Y-91512500D01*
X63132504Y-91513436D01*
X63132613Y-91515368D01*
X63065002Y-91655763D01*
X63172041Y-91789986D01*
X63172347Y-91791943D01*
X63170819Y-91793203D01*
X63168956Y-91792532D01*
X63071304Y-91678195D01*
X62886473Y-91520336D01*
X62679230Y-91393337D01*
X62454666Y-91300319D01*
X62434832Y-91295557D01*
X62433408Y-91294262D01*
X62433735Y-91292365D01*
X62537009Y-91162864D01*
X62491373Y-91083823D01*
X62491292Y-91081978D01*
X62492758Y-91080853D01*
X62494519Y-91081409D01*
G37*
G36*
X98043072Y-91083572D02*
G01*
X98043063Y-91085557D01*
X97997156Y-91165071D01*
X98053566Y-91282209D01*
X98158240Y-91297986D01*
X98159786Y-91299189D01*
X98159563Y-91301136D01*
X98157785Y-91301958D01*
X97980500Y-91288006D01*
X97893527Y-91294851D01*
X97892071Y-91294378D01*
X97891376Y-91293014D01*
X97891849Y-91291558D01*
X97963663Y-91207473D01*
X98039626Y-91083512D01*
X98041366Y-91082557D01*
X98043072Y-91083572D01*
G37*
G36*
X90301361Y-91083494D02*
G01*
X90377336Y-91207473D01*
X90449150Y-91291557D01*
X90449623Y-91293013D01*
X90448928Y-91294377D01*
X90447472Y-91294850D01*
X90360499Y-91288005D01*
X90183212Y-91301957D01*
X90181434Y-91301135D01*
X90181211Y-91299188D01*
X90182757Y-91297985D01*
X90287431Y-91282208D01*
X90343842Y-91165070D01*
X90297924Y-91085539D01*
X90297915Y-91083554D01*
X90299621Y-91082539D01*
X90301361Y-91083494D01*
G37*
G36*
X62038572Y-91020072D02*
G01*
X62038563Y-91022057D01*
X61992656Y-91101571D01*
X62049066Y-91218709D01*
X62153740Y-91234486D01*
X62155286Y-91235689D01*
X62155063Y-91237636D01*
X62153285Y-91238458D01*
X61976000Y-91224506D01*
X61889027Y-91231351D01*
X61887571Y-91230878D01*
X61886876Y-91229514D01*
X61887349Y-91228058D01*
X61959163Y-91143973D01*
X62035126Y-91020012D01*
X62036866Y-91019057D01*
X62038572Y-91020072D01*
G37*
G36*
X54296861Y-91019994D02*
G01*
X54372836Y-91143973D01*
X54444650Y-91228057D01*
X54445123Y-91229513D01*
X54444428Y-91230877D01*
X54442972Y-91231350D01*
X54355999Y-91224505D01*
X54178712Y-91238457D01*
X54176934Y-91237635D01*
X54176711Y-91235688D01*
X54178257Y-91234485D01*
X54282931Y-91218708D01*
X54339342Y-91101570D01*
X54293424Y-91022039D01*
X54293415Y-91020054D01*
X54295121Y-91019039D01*
X54296861Y-91019994D01*
G37*
G36*
X98470833Y-90055432D02*
G01*
X98471500Y-90056923D01*
X98471500Y-90537077D01*
X98470833Y-90538568D01*
X98469276Y-90539064D01*
X98249045Y-90514250D01*
X98244988Y-90532023D01*
X98243720Y-90533458D01*
X98241826Y-90533169D01*
X98241044Y-90531421D01*
X98259493Y-90296999D01*
X98241044Y-90062578D01*
X98241826Y-90060830D01*
X98243720Y-90060541D01*
X98244988Y-90061976D01*
X98249045Y-90079749D01*
X98469276Y-90054936D01*
X98470833Y-90055432D01*
G37*
G36*
X62466333Y-89991932D02*
G01*
X62467000Y-89993423D01*
X62467000Y-90473577D01*
X62466333Y-90475068D01*
X62464776Y-90475564D01*
X62244545Y-90450750D01*
X62240488Y-90468523D01*
X62239220Y-90469958D01*
X62237326Y-90469669D01*
X62236544Y-90467921D01*
X62254993Y-90233499D01*
X62236544Y-89999078D01*
X62237326Y-89997330D01*
X62239220Y-89997041D01*
X62240488Y-89998476D01*
X62244545Y-90016249D01*
X62464776Y-89991436D01*
X62466333Y-89991932D01*
G37*
G36*
X78676499Y-89432993D02*
G01*
X78763472Y-89426148D01*
X78764928Y-89426621D01*
X78765623Y-89427985D01*
X78765150Y-89429441D01*
X78693336Y-89513526D01*
X78617344Y-89637534D01*
X78615604Y-89638489D01*
X78613898Y-89637474D01*
X78613907Y-89635489D01*
X78659842Y-89555926D01*
X78603431Y-89438788D01*
X78498780Y-89423014D01*
X78497234Y-89421811D01*
X78497457Y-89419864D01*
X78499235Y-89419042D01*
X78676499Y-89432993D01*
G37*
G36*
X73775540Y-89419865D02*
G01*
X73775763Y-89421812D01*
X73774217Y-89423015D01*
X73669567Y-89438788D01*
X73613156Y-89555927D01*
X73659068Y-89635448D01*
X73659077Y-89637433D01*
X73657371Y-89638448D01*
X73655631Y-89637493D01*
X73579663Y-89513525D01*
X73507849Y-89429441D01*
X73507376Y-89427985D01*
X73508071Y-89426621D01*
X73509527Y-89426148D01*
X73596500Y-89432993D01*
X73773762Y-89419043D01*
X73775540Y-89419865D01*
G37*
G36*
X80465019Y-88731909D02*
G01*
X80471326Y-88738216D01*
X80471539Y-88738339D01*
X80471938Y-88738640D01*
X80474736Y-88741370D01*
X80974577Y-89141243D01*
X80982714Y-89146534D01*
X80991721Y-89150134D01*
X81004832Y-89153932D01*
X81005041Y-89154005D01*
X81017655Y-89159230D01*
X81026945Y-89162049D01*
X81036594Y-89163000D01*
X81101311Y-89163000D01*
X81103004Y-89163936D01*
X81103113Y-89165868D01*
X81035502Y-89306263D01*
X81142541Y-89440486D01*
X81142847Y-89442443D01*
X81141319Y-89443703D01*
X81139456Y-89443032D01*
X81041804Y-89328695D01*
X80856973Y-89170836D01*
X80649730Y-89043837D01*
X80425166Y-88950819D01*
X80405332Y-88946057D01*
X80403908Y-88944762D01*
X80404235Y-88942865D01*
X80507509Y-88813364D01*
X80461873Y-88734323D01*
X80461792Y-88732478D01*
X80463258Y-88731353D01*
X80465019Y-88731909D01*
G37*
G36*
X80009072Y-88670572D02*
G01*
X80009063Y-88672557D01*
X79963156Y-88752071D01*
X80019566Y-88869209D01*
X80124240Y-88884986D01*
X80125786Y-88886189D01*
X80125563Y-88888136D01*
X80123785Y-88888958D01*
X79946500Y-88875006D01*
X79859527Y-88881851D01*
X79858071Y-88881378D01*
X79857376Y-88880014D01*
X79857849Y-88878558D01*
X79929663Y-88794473D01*
X80005626Y-88670512D01*
X80007366Y-88669557D01*
X80009072Y-88670572D01*
G37*
G36*
X72267361Y-88670494D02*
G01*
X72343336Y-88794473D01*
X72415150Y-88878557D01*
X72415623Y-88880013D01*
X72414928Y-88881377D01*
X72413472Y-88881850D01*
X72326499Y-88875005D01*
X72149212Y-88888957D01*
X72147434Y-88888135D01*
X72147211Y-88886188D01*
X72148757Y-88884985D01*
X72253431Y-88869208D01*
X72309842Y-88752070D01*
X72263924Y-88672539D01*
X72263915Y-88670554D01*
X72265621Y-88669539D01*
X72267361Y-88670494D01*
G37*
G36*
X80436833Y-87642432D02*
G01*
X80437500Y-87643923D01*
X80437500Y-88124077D01*
X80436833Y-88125568D01*
X80435276Y-88126064D01*
X80215045Y-88101250D01*
X80210988Y-88119023D01*
X80209720Y-88120458D01*
X80207826Y-88120169D01*
X80207044Y-88118421D01*
X80225493Y-87883999D01*
X80207044Y-87649578D01*
X80207826Y-87647830D01*
X80209720Y-87647541D01*
X80210988Y-87648976D01*
X80215045Y-87666749D01*
X80435276Y-87641936D01*
X80436833Y-87642432D01*
G37*
G36*
X42671999Y-79590493D02*
G01*
X42758972Y-79583648D01*
X42760428Y-79584121D01*
X42761123Y-79585485D01*
X42760650Y-79586941D01*
X42688836Y-79671026D01*
X42612844Y-79795034D01*
X42611104Y-79795989D01*
X42609398Y-79794974D01*
X42609407Y-79792989D01*
X42655342Y-79713426D01*
X42598931Y-79596288D01*
X42494280Y-79580514D01*
X42492734Y-79579311D01*
X42492957Y-79577364D01*
X42494735Y-79576542D01*
X42671999Y-79590493D01*
G37*
G36*
X37771040Y-79577365D02*
G01*
X37771263Y-79579312D01*
X37769717Y-79580515D01*
X37665067Y-79596288D01*
X37608656Y-79713427D01*
X37654568Y-79792948D01*
X37654577Y-79794933D01*
X37652871Y-79795948D01*
X37651131Y-79794993D01*
X37575163Y-79671025D01*
X37503349Y-79586941D01*
X37502876Y-79585485D01*
X37503571Y-79584121D01*
X37505027Y-79583648D01*
X37592000Y-79590493D01*
X37769262Y-79576543D01*
X37771040Y-79577365D01*
G37*
G36*
X44460519Y-78889409D02*
G01*
X44466826Y-78895716D01*
X44467039Y-78895839D01*
X44467438Y-78896140D01*
X44470236Y-78898870D01*
X44970077Y-79298743D01*
X44978214Y-79304034D01*
X44987221Y-79307634D01*
X45000332Y-79311432D01*
X45000541Y-79311505D01*
X45013155Y-79316730D01*
X45022445Y-79319549D01*
X45032094Y-79320500D01*
X45096811Y-79320500D01*
X45098504Y-79321436D01*
X45098613Y-79323368D01*
X45031002Y-79463763D01*
X45138041Y-79597986D01*
X45138347Y-79599943D01*
X45136819Y-79601203D01*
X45134956Y-79600532D01*
X45037304Y-79486195D01*
X44852473Y-79328336D01*
X44645230Y-79201337D01*
X44420666Y-79108319D01*
X44400832Y-79103557D01*
X44399408Y-79102262D01*
X44399735Y-79100365D01*
X44503009Y-78970864D01*
X44457373Y-78891823D01*
X44457292Y-78889978D01*
X44458758Y-78888853D01*
X44460519Y-78889409D01*
G37*
G36*
X44004572Y-78828072D02*
G01*
X44004563Y-78830057D01*
X43958656Y-78909571D01*
X44015066Y-79026709D01*
X44119740Y-79042486D01*
X44121286Y-79043689D01*
X44121063Y-79045636D01*
X44119285Y-79046458D01*
X43942000Y-79032506D01*
X43855027Y-79039351D01*
X43853571Y-79038878D01*
X43852876Y-79037514D01*
X43853349Y-79036058D01*
X43925163Y-78951973D01*
X44001126Y-78828012D01*
X44002866Y-78827057D01*
X44004572Y-78828072D01*
G37*
G36*
X36262861Y-78827994D02*
G01*
X36338836Y-78951973D01*
X36410650Y-79036057D01*
X36411123Y-79037513D01*
X36410428Y-79038877D01*
X36408972Y-79039350D01*
X36321999Y-79032505D01*
X36144712Y-79046457D01*
X36142934Y-79045635D01*
X36142711Y-79043688D01*
X36144257Y-79042485D01*
X36248931Y-79026708D01*
X36305342Y-78909570D01*
X36259424Y-78830039D01*
X36259415Y-78828054D01*
X36261121Y-78827039D01*
X36262861Y-78827994D01*
G37*
G36*
X44432333Y-77799932D02*
G01*
X44433000Y-77801423D01*
X44433000Y-78281577D01*
X44432333Y-78283068D01*
X44430776Y-78283564D01*
X44210545Y-78258750D01*
X44206488Y-78276523D01*
X44205220Y-78277958D01*
X44203326Y-78277669D01*
X44202544Y-78275921D01*
X44220993Y-78041499D01*
X44202544Y-77807078D01*
X44203326Y-77805330D01*
X44205220Y-77805041D01*
X44206488Y-77806476D01*
X44210545Y-77824249D01*
X44430776Y-77799436D01*
X44432333Y-77799932D01*
G37*
G36*
X114680999Y-77240993D02*
G01*
X114767972Y-77234148D01*
X114769428Y-77234621D01*
X114770123Y-77235985D01*
X114769650Y-77237441D01*
X114697836Y-77321526D01*
X114621844Y-77445534D01*
X114620104Y-77446489D01*
X114618398Y-77445474D01*
X114618407Y-77443489D01*
X114664342Y-77363926D01*
X114607931Y-77246788D01*
X114503280Y-77231014D01*
X114501734Y-77229811D01*
X114501957Y-77227864D01*
X114503735Y-77227042D01*
X114680999Y-77240993D01*
G37*
G36*
X109780040Y-77227865D02*
G01*
X109780263Y-77229812D01*
X109778717Y-77231015D01*
X109674067Y-77246788D01*
X109617656Y-77363927D01*
X109663568Y-77443448D01*
X109663577Y-77445433D01*
X109661871Y-77446448D01*
X109660131Y-77445493D01*
X109584163Y-77321525D01*
X109512349Y-77237441D01*
X109511876Y-77235985D01*
X109512571Y-77234621D01*
X109514027Y-77234148D01*
X109601000Y-77240993D01*
X109778262Y-77227043D01*
X109780040Y-77227865D01*
G37*
G36*
X116469519Y-76539909D02*
G01*
X116475826Y-76546216D01*
X116476039Y-76546339D01*
X116476438Y-76546640D01*
X116479236Y-76549370D01*
X116979077Y-76949243D01*
X116987214Y-76954534D01*
X116996221Y-76958134D01*
X117009332Y-76961932D01*
X117009541Y-76962005D01*
X117022155Y-76967230D01*
X117031445Y-76970049D01*
X117041094Y-76971000D01*
X117105811Y-76971000D01*
X117107504Y-76971936D01*
X117107613Y-76973868D01*
X117040002Y-77114263D01*
X117147041Y-77248486D01*
X117147347Y-77250443D01*
X117145819Y-77251703D01*
X117143956Y-77251032D01*
X117046304Y-77136695D01*
X116861473Y-76978836D01*
X116654230Y-76851837D01*
X116429666Y-76758819D01*
X116409832Y-76754057D01*
X116408408Y-76752762D01*
X116408735Y-76750865D01*
X116512009Y-76621364D01*
X116466373Y-76542323D01*
X116466292Y-76540478D01*
X116467758Y-76539353D01*
X116469519Y-76539909D01*
G37*
G36*
X116013572Y-76478572D02*
G01*
X116013563Y-76480557D01*
X115967656Y-76560071D01*
X116024066Y-76677209D01*
X116128740Y-76692986D01*
X116130286Y-76694189D01*
X116130063Y-76696136D01*
X116128285Y-76696958D01*
X115951000Y-76683006D01*
X115864027Y-76689851D01*
X115862571Y-76689378D01*
X115861876Y-76688014D01*
X115862349Y-76686558D01*
X115934163Y-76602473D01*
X116010126Y-76478512D01*
X116011866Y-76477557D01*
X116013572Y-76478572D01*
G37*
G36*
X108271861Y-76478494D02*
G01*
X108347836Y-76602473D01*
X108419650Y-76686557D01*
X108420123Y-76688013D01*
X108419428Y-76689377D01*
X108417972Y-76689850D01*
X108330999Y-76683005D01*
X108153712Y-76696957D01*
X108151934Y-76696135D01*
X108151711Y-76694188D01*
X108153257Y-76692985D01*
X108257931Y-76677208D01*
X108314342Y-76560070D01*
X108268424Y-76480539D01*
X108268415Y-76478554D01*
X108270121Y-76477539D01*
X108271861Y-76478494D01*
G37*
G36*
X116441333Y-75450432D02*
G01*
X116442000Y-75451923D01*
X116442000Y-75932077D01*
X116441333Y-75933568D01*
X116439776Y-75934064D01*
X116219545Y-75909250D01*
X116215488Y-75927023D01*
X116214220Y-75928458D01*
X116212326Y-75928169D01*
X116211544Y-75926421D01*
X116229993Y-75691999D01*
X116211544Y-75457578D01*
X116212326Y-75455830D01*
X116214220Y-75455541D01*
X116215488Y-75456976D01*
X116219545Y-75474749D01*
X116439776Y-75449936D01*
X116441333Y-75450432D01*
G37*
G36*
X96710499Y-74827993D02*
G01*
X96797472Y-74821148D01*
X96798928Y-74821621D01*
X96799623Y-74822985D01*
X96799150Y-74824441D01*
X96727336Y-74908526D01*
X96651344Y-75032534D01*
X96649604Y-75033489D01*
X96647898Y-75032474D01*
X96647907Y-75030489D01*
X96693842Y-74950926D01*
X96637431Y-74833788D01*
X96532780Y-74818014D01*
X96531234Y-74816811D01*
X96531457Y-74814864D01*
X96533235Y-74814042D01*
X96710499Y-74827993D01*
G37*
G36*
X60705999Y-74827993D02*
G01*
X60792972Y-74821148D01*
X60794428Y-74821621D01*
X60795123Y-74822985D01*
X60794650Y-74824441D01*
X60722836Y-74908526D01*
X60646844Y-75032534D01*
X60645104Y-75033489D01*
X60643398Y-75032474D01*
X60643407Y-75030489D01*
X60689342Y-74950926D01*
X60632931Y-74833788D01*
X60528280Y-74818014D01*
X60526734Y-74816811D01*
X60526957Y-74814864D01*
X60528735Y-74814042D01*
X60705999Y-74827993D01*
G37*
G36*
X91809540Y-74814865D02*
G01*
X91809763Y-74816812D01*
X91808217Y-74818015D01*
X91703567Y-74833788D01*
X91647156Y-74950927D01*
X91693068Y-75030448D01*
X91693077Y-75032433D01*
X91691371Y-75033448D01*
X91689631Y-75032493D01*
X91613663Y-74908525D01*
X91541849Y-74824441D01*
X91541376Y-74822985D01*
X91542071Y-74821621D01*
X91543527Y-74821148D01*
X91630500Y-74827993D01*
X91807762Y-74814043D01*
X91809540Y-74814865D01*
G37*
G36*
X55805040Y-74814865D02*
G01*
X55805263Y-74816812D01*
X55803717Y-74818015D01*
X55699067Y-74833788D01*
X55642656Y-74950927D01*
X55688568Y-75030448D01*
X55688577Y-75032433D01*
X55686871Y-75033448D01*
X55685131Y-75032493D01*
X55609163Y-74908525D01*
X55537349Y-74824441D01*
X55536876Y-74822985D01*
X55537571Y-74821621D01*
X55539027Y-74821148D01*
X55626000Y-74827993D01*
X55803262Y-74814043D01*
X55805040Y-74814865D01*
G37*
G36*
X98499019Y-74126909D02*
G01*
X98505326Y-74133216D01*
X98505539Y-74133339D01*
X98505938Y-74133640D01*
X98508736Y-74136370D01*
X99008577Y-74536243D01*
X99016714Y-74541534D01*
X99025721Y-74545134D01*
X99038832Y-74548932D01*
X99039041Y-74549005D01*
X99051655Y-74554230D01*
X99060945Y-74557049D01*
X99070594Y-74558000D01*
X99135311Y-74558000D01*
X99137004Y-74558936D01*
X99137113Y-74560868D01*
X99069502Y-74701263D01*
X99176541Y-74835486D01*
X99176847Y-74837443D01*
X99175319Y-74838703D01*
X99173456Y-74838032D01*
X99075804Y-74723695D01*
X98890973Y-74565836D01*
X98683730Y-74438837D01*
X98459166Y-74345819D01*
X98439332Y-74341057D01*
X98437908Y-74339762D01*
X98438235Y-74337865D01*
X98541509Y-74208364D01*
X98495873Y-74129323D01*
X98495792Y-74127478D01*
X98497258Y-74126353D01*
X98499019Y-74126909D01*
G37*
G36*
X62494519Y-74126909D02*
G01*
X62500826Y-74133216D01*
X62501039Y-74133339D01*
X62501438Y-74133640D01*
X62504236Y-74136370D01*
X63004077Y-74536243D01*
X63012214Y-74541534D01*
X63021221Y-74545134D01*
X63034332Y-74548932D01*
X63034541Y-74549005D01*
X63047155Y-74554230D01*
X63056445Y-74557049D01*
X63066094Y-74558000D01*
X63130811Y-74558000D01*
X63132504Y-74558936D01*
X63132613Y-74560868D01*
X63065002Y-74701263D01*
X63172041Y-74835486D01*
X63172347Y-74837443D01*
X63170819Y-74838703D01*
X63168956Y-74838032D01*
X63071304Y-74723695D01*
X62886473Y-74565836D01*
X62679230Y-74438837D01*
X62454666Y-74345819D01*
X62434832Y-74341057D01*
X62433408Y-74339762D01*
X62433735Y-74337865D01*
X62537009Y-74208364D01*
X62491373Y-74129323D01*
X62491292Y-74127478D01*
X62492758Y-74126353D01*
X62494519Y-74126909D01*
G37*
G36*
X98043072Y-74065572D02*
G01*
X98043063Y-74067557D01*
X97997156Y-74147071D01*
X98053566Y-74264209D01*
X98158240Y-74279986D01*
X98159786Y-74281189D01*
X98159563Y-74283136D01*
X98157785Y-74283958D01*
X97980500Y-74270006D01*
X97893527Y-74276851D01*
X97892071Y-74276378D01*
X97891376Y-74275014D01*
X97891849Y-74273558D01*
X97963663Y-74189473D01*
X98039626Y-74065512D01*
X98041366Y-74064557D01*
X98043072Y-74065572D01*
G37*
G36*
X62038572Y-74065572D02*
G01*
X62038563Y-74067557D01*
X61992656Y-74147071D01*
X62049066Y-74264209D01*
X62153740Y-74279986D01*
X62155286Y-74281189D01*
X62155063Y-74283136D01*
X62153285Y-74283958D01*
X61976000Y-74270006D01*
X61889027Y-74276851D01*
X61887571Y-74276378D01*
X61886876Y-74275014D01*
X61887349Y-74273558D01*
X61959163Y-74189473D01*
X62035126Y-74065512D01*
X62036866Y-74064557D01*
X62038572Y-74065572D01*
G37*
G36*
X90301361Y-74065494D02*
G01*
X90377336Y-74189473D01*
X90449150Y-74273557D01*
X90449623Y-74275013D01*
X90448928Y-74276377D01*
X90447472Y-74276850D01*
X90360499Y-74270005D01*
X90183212Y-74283957D01*
X90181434Y-74283135D01*
X90181211Y-74281188D01*
X90182757Y-74279985D01*
X90287431Y-74264208D01*
X90343842Y-74147070D01*
X90297924Y-74067539D01*
X90297915Y-74065554D01*
X90299621Y-74064539D01*
X90301361Y-74065494D01*
G37*
G36*
X54296861Y-74065494D02*
G01*
X54372836Y-74189473D01*
X54444650Y-74273557D01*
X54445123Y-74275013D01*
X54444428Y-74276377D01*
X54442972Y-74276850D01*
X54355999Y-74270005D01*
X54178712Y-74283957D01*
X54176934Y-74283135D01*
X54176711Y-74281188D01*
X54178257Y-74279985D01*
X54282931Y-74264208D01*
X54339342Y-74147070D01*
X54293424Y-74067539D01*
X54293415Y-74065554D01*
X54295121Y-74064539D01*
X54296861Y-74065494D01*
G37*
G36*
X98470833Y-73037432D02*
G01*
X98471500Y-73038923D01*
X98471500Y-73519077D01*
X98470833Y-73520568D01*
X98469276Y-73521064D01*
X98249045Y-73496250D01*
X98244988Y-73514023D01*
X98243720Y-73515458D01*
X98241826Y-73515169D01*
X98241044Y-73513421D01*
X98259493Y-73278999D01*
X98241044Y-73044578D01*
X98241826Y-73042830D01*
X98243720Y-73042541D01*
X98244988Y-73043976D01*
X98249045Y-73061749D01*
X98469276Y-73036936D01*
X98470833Y-73037432D01*
G37*
G36*
X62466333Y-73037432D02*
G01*
X62467000Y-73038923D01*
X62467000Y-73519077D01*
X62466333Y-73520568D01*
X62464776Y-73521064D01*
X62244545Y-73496250D01*
X62240488Y-73514023D01*
X62239220Y-73515458D01*
X62237326Y-73515169D01*
X62236544Y-73513421D01*
X62254993Y-73278999D01*
X62236544Y-73044578D01*
X62237326Y-73042830D01*
X62239220Y-73042541D01*
X62240488Y-73043976D01*
X62244545Y-73061749D01*
X62464776Y-73036936D01*
X62466333Y-73037432D01*
G37*
G36*
X78676499Y-72414993D02*
G01*
X78763472Y-72408148D01*
X78764928Y-72408621D01*
X78765623Y-72409985D01*
X78765150Y-72411441D01*
X78693336Y-72495526D01*
X78617344Y-72619534D01*
X78615604Y-72620489D01*
X78613898Y-72619474D01*
X78613907Y-72617489D01*
X78659842Y-72537926D01*
X78603431Y-72420788D01*
X78498780Y-72405014D01*
X78497234Y-72403811D01*
X78497457Y-72401864D01*
X78499235Y-72401042D01*
X78676499Y-72414993D01*
G37*
G36*
X73775540Y-72401865D02*
G01*
X73775763Y-72403812D01*
X73774217Y-72405015D01*
X73669567Y-72420788D01*
X73613156Y-72537927D01*
X73659068Y-72617448D01*
X73659077Y-72619433D01*
X73657371Y-72620448D01*
X73655631Y-72619493D01*
X73579663Y-72495525D01*
X73507849Y-72411441D01*
X73507376Y-72409985D01*
X73508071Y-72408621D01*
X73509527Y-72408148D01*
X73596500Y-72414993D01*
X73773762Y-72401043D01*
X73775540Y-72401865D01*
G37*
G36*
X80465019Y-71713909D02*
G01*
X80471326Y-71720216D01*
X80471539Y-71720339D01*
X80471938Y-71720640D01*
X80474736Y-71723370D01*
X80974577Y-72123243D01*
X80982714Y-72128534D01*
X80991721Y-72132134D01*
X81004832Y-72135932D01*
X81005041Y-72136005D01*
X81017655Y-72141230D01*
X81026945Y-72144049D01*
X81036594Y-72145000D01*
X81101311Y-72145000D01*
X81103004Y-72145936D01*
X81103113Y-72147868D01*
X81035502Y-72288263D01*
X81142541Y-72422486D01*
X81142847Y-72424443D01*
X81141319Y-72425703D01*
X81139456Y-72425032D01*
X81041804Y-72310695D01*
X80856973Y-72152836D01*
X80649730Y-72025837D01*
X80425166Y-71932819D01*
X80405332Y-71928057D01*
X80403908Y-71926762D01*
X80404235Y-71924865D01*
X80507509Y-71795364D01*
X80461873Y-71716323D01*
X80461792Y-71714478D01*
X80463258Y-71713353D01*
X80465019Y-71713909D01*
G37*
G36*
X80009072Y-71652572D02*
G01*
X80009063Y-71654557D01*
X79963156Y-71734071D01*
X80019566Y-71851209D01*
X80124240Y-71866986D01*
X80125786Y-71868189D01*
X80125563Y-71870136D01*
X80123785Y-71870958D01*
X79946500Y-71857006D01*
X79859527Y-71863851D01*
X79858071Y-71863378D01*
X79857376Y-71862014D01*
X79857849Y-71860558D01*
X79929663Y-71776473D01*
X80005626Y-71652512D01*
X80007366Y-71651557D01*
X80009072Y-71652572D01*
G37*
G36*
X72267361Y-71652494D02*
G01*
X72343336Y-71776473D01*
X72415150Y-71860557D01*
X72415623Y-71862013D01*
X72414928Y-71863377D01*
X72413472Y-71863850D01*
X72326499Y-71857005D01*
X72149212Y-71870957D01*
X72147434Y-71870135D01*
X72147211Y-71868188D01*
X72148757Y-71866985D01*
X72253431Y-71851208D01*
X72309842Y-71734070D01*
X72263924Y-71654539D01*
X72263915Y-71652554D01*
X72265621Y-71651539D01*
X72267361Y-71652494D01*
G37*
G36*
X80436833Y-70624432D02*
G01*
X80437500Y-70625923D01*
X80437500Y-71106077D01*
X80436833Y-71107568D01*
X80435276Y-71108064D01*
X80215045Y-71083250D01*
X80210988Y-71101023D01*
X80209720Y-71102458D01*
X80207826Y-71102169D01*
X80207044Y-71100421D01*
X80225493Y-70865999D01*
X80207044Y-70631578D01*
X80207826Y-70629830D01*
X80209720Y-70629541D01*
X80210988Y-70630976D01*
X80215045Y-70648749D01*
X80435276Y-70623936D01*
X80436833Y-70624432D01*
G37*
M02*
