G04 #@! TF.GenerationSoftware,KiCad,Pcbnew,7.0.1*
G04 #@! TF.CreationDate,2024-10-31T14:09:30+07:00*
G04 #@! TF.ProjectId,minikeeb,6d696e69-6b65-4656-922e-6b696361645f,rev?*
G04 #@! TF.SameCoordinates,Original*
G04 #@! TF.FileFunction,Soldermask,Top*
G04 #@! TF.FilePolarity,Negative*
%FSLAX46Y46*%
G04 Gerber Fmt 4.6, Leading zero omitted, Abs format (unit mm)*
G04 Created by KiCad (PCBNEW 7.0.1) date 2024-10-31 14:09:30*
%MOMM*%
%LPD*%
G01*
G04 APERTURE LIST*
G04 Aperture macros list*
%AMRoundRect*
0 Rectangle with rounded corners*
0 $1 Rounding radius*
0 $2 $3 $4 $5 $6 $7 $8 $9 X,Y pos of 4 corners*
0 Add a 4 corners polygon primitive as box body*
4,1,4,$2,$3,$4,$5,$6,$7,$8,$9,$2,$3,0*
0 Add four circle primitives for the rounded corners*
1,1,$1+$1,$2,$3*
1,1,$1+$1,$4,$5*
1,1,$1+$1,$6,$7*
1,1,$1+$1,$8,$9*
0 Add four rect primitives between the rounded corners*
20,1,$1+$1,$2,$3,$4,$5,0*
20,1,$1+$1,$4,$5,$6,$7,0*
20,1,$1+$1,$6,$7,$8,$9,0*
20,1,$1+$1,$8,$9,$2,$3,0*%
%AMFreePoly0*
4,1,41,2.719517,1.297118,2.754872,1.282473,2.782473,1.254872,2.797118,1.219517,2.801000,1.200000,2.801000,-0.800000,2.799048,-0.809811,2.799038,-0.819807,2.791404,-0.838184,2.786112,-0.846085,2.782473,-0.854872,2.771416,-0.871419,2.763105,-0.876971,2.756025,-0.884038,2.156025,-1.284038,2.137628,-1.291634,2.128301,-1.293478,2.119521,-1.297116,2.100000,-1.301000,0.300000,-1.301000,
0.280483,-1.297118,0.245128,-1.282473,0.217527,-1.254872,0.202882,-1.219517,0.199000,-1.200000,0.199000,-0.801000,-0.350000,-0.801000,-0.386062,-0.786062,-0.401000,-0.750000,-0.401000,0.750000,-0.386062,0.786062,-0.350000,0.801000,0.199000,0.801000,0.199000,1.200000,0.202882,1.219517,0.217527,1.254872,0.245128,1.282473,0.280483,1.297118,0.300000,1.301000,2.700000,1.301000,
2.719517,1.297118,2.719517,1.297118,$1*%
%AMFreePoly1*
4,1,33,-0.380483,1.297118,-0.345128,1.282473,-0.317527,1.254872,-0.302882,1.219517,-0.299000,1.200000,-0.299000,0.801000,0.350000,0.801000,0.386062,0.786062,0.401000,0.750000,0.401000,-0.750000,0.386062,-0.786062,0.350000,-0.801000,-0.299000,-0.801000,-0.299000,-1.200000,-0.302882,-1.219517,-0.317527,-1.254872,-0.345128,-1.282473,-0.380483,-1.297118,-0.400000,-1.301000,-2.800000,-1.301000,
-2.819517,-1.297118,-2.854872,-1.282473,-2.882473,-1.254872,-2.897118,-1.219517,-2.901000,-1.200000,-2.901000,1.200000,-2.897118,1.219517,-2.882473,1.254872,-2.854872,1.282473,-2.819517,1.297118,-2.800000,1.301000,-0.400000,1.301000,-0.380483,1.297118,-0.380483,1.297118,$1*%
G04 Aperture macros list end*
G04 #@! TA.AperFunction,Profile*
%ADD10C,0.100000*%
G04 #@! TD*
%ADD11C,1.302000*%
%ADD12O,2.602000X1.802000*%
%ADD13RoundRect,0.051000X-0.850000X-0.412500X0.850000X-0.412500X0.850000X0.412500X-0.850000X0.412500X0*%
%ADD14RoundRect,0.051000X0.750000X-0.900000X0.750000X0.900000X-0.750000X0.900000X-0.750000X-0.900000X0*%
%ADD15RoundRect,0.051000X0.850000X0.412500X-0.850000X0.412500X-0.850000X-0.412500X0.850000X-0.412500X0*%
%ADD16C,1.802000*%
%ADD17C,3.102000*%
%ADD18C,4.102000*%
%ADD19FreePoly0,0.000000*%
%ADD20FreePoly1,0.000000*%
%ADD21C,1.102000*%
%ADD22RoundRect,0.102000X-0.600000X-1.250000X0.600000X-1.250000X0.600000X1.250000X-0.600000X1.250000X0*%
%ADD23RoundRect,0.051000X0.927800X0.178448X-0.714274X0.618441X-0.927800X-0.178448X0.714274X-0.618441X0*%
%ADD24RoundRect,0.051000X0.900000X0.750000X-0.900000X0.750000X-0.900000X-0.750000X0.900000X-0.750000X0*%
%ADD25FreePoly0,345.000000*%
%ADD26FreePoly1,345.000000*%
%ADD27RoundRect,0.051000X0.317500X0.571500X-0.317500X0.571500X-0.317500X-0.571500X0.317500X-0.571500X0*%
%ADD28C,1.499000*%
%ADD29FreePoly0,330.000000*%
%ADD30FreePoly1,330.000000*%
%ADD31C,2.102000*%
%ADD32RoundRect,0.051000X1.000000X-1.600000X1.000000X1.600000X-1.000000X1.600000X-1.000000X-1.600000X0*%
%ADD33RoundRect,0.301000X-0.600000X-0.750000X0.600000X-0.750000X0.600000X0.750000X-0.600000X0.750000X0*%
%ADD34O,1.802000X2.102000*%
%ADD35RoundRect,0.051000X0.942372X-0.067765X-0.529872X0.782235X-0.942372X0.067765X0.529872X-0.782235X0*%
%ADD36RoundRect,0.051000X-0.876300X-0.876300X0.876300X-0.876300X0.876300X0.876300X-0.876300X0.876300X0*%
%ADD37C,1.854600*%
G04 APERTURE END LIST*
D10*
X76200000Y-79250000D02*
X76200000Y-82350000D01*
X76200000Y-82350000D02*
X79800000Y-82350000D01*
X79800000Y-79250000D02*
X76200000Y-79250000D01*
X79800000Y-82350000D02*
X79800000Y-79250000D01*
X80100000Y-101450000D02*
X80100000Y-98350000D01*
X80100000Y-98350000D02*
X76500000Y-98350000D01*
X76500000Y-101450000D02*
X80100000Y-101450000D01*
X76500000Y-98350000D02*
X76500000Y-101450000D01*
X76512500Y-117150000D02*
X76512500Y-120250000D01*
X76512500Y-120250000D02*
X80112500Y-120250000D01*
X80112500Y-117150000D02*
X76512500Y-117150000D01*
X80112500Y-120250000D02*
X80112500Y-117150000D01*
X61000000Y-103450000D02*
X61000000Y-100350000D01*
X61000000Y-100350000D02*
X57400000Y-100350000D01*
X57400000Y-103450000D02*
X61000000Y-103450000D01*
X57400000Y-100350000D02*
X57400000Y-103450000D01*
X57300000Y-81550000D02*
X57300000Y-84650000D01*
X57300000Y-84650000D02*
X60900000Y-84650000D01*
X60900000Y-81550000D02*
X57300000Y-81550000D01*
X60900000Y-84650000D02*
X60900000Y-81550000D01*
X76730000Y-145750000D02*
X76730000Y-142650000D01*
X76730000Y-142650000D02*
X73130000Y-142650000D01*
X73130000Y-145750000D02*
X76730000Y-145750000D01*
X73130000Y-142650000D02*
X73130000Y-145750000D01*
X95551497Y-149619059D02*
X96353836Y-146624689D01*
X96353836Y-146624689D02*
X92876503Y-145692941D01*
X92074164Y-148687311D02*
X95551497Y-149619059D01*
X92876503Y-145692941D02*
X92074164Y-148687311D01*
X114600000Y-83970000D02*
X114600000Y-87070000D01*
X114600000Y-87070000D02*
X118200000Y-87070000D01*
X118200000Y-83970000D02*
X114600000Y-83970000D01*
X118200000Y-87070000D02*
X118200000Y-83970000D01*
X42000000Y-108050000D02*
X42000000Y-104950000D01*
X42000000Y-104950000D02*
X38400000Y-104950000D01*
X38400000Y-108050000D02*
X42000000Y-108050000D01*
X38400000Y-104950000D02*
X38400000Y-108050000D01*
X38350000Y-124350000D02*
X38350000Y-127450000D01*
X38350000Y-127450000D02*
X41950000Y-127450000D01*
X41950000Y-124350000D02*
X38350000Y-124350000D01*
X41950000Y-127450000D02*
X41950000Y-124350000D01*
X95500000Y-119350000D02*
X95500000Y-122450000D01*
X95500000Y-122450000D02*
X99100000Y-122450000D01*
X99100000Y-119350000D02*
X95500000Y-119350000D01*
X99100000Y-122450000D02*
X99100000Y-119350000D01*
X61700000Y-130350000D02*
X61700000Y-127250000D01*
X61700000Y-127250000D02*
X58100000Y-127250000D01*
X58100000Y-130350000D02*
X61700000Y-130350000D01*
X58100000Y-127250000D02*
X58100000Y-130350000D01*
X95400000Y-81550000D02*
X95400000Y-84650000D01*
X95400000Y-84650000D02*
X99000000Y-84650000D01*
X99000000Y-81550000D02*
X95400000Y-81550000D01*
X99000000Y-84650000D02*
X99000000Y-81550000D01*
X38320000Y-86310000D02*
X38320000Y-89410000D01*
X38320000Y-89410000D02*
X41920000Y-89410000D01*
X41920000Y-86310000D02*
X38320000Y-86310000D01*
X41920000Y-89410000D02*
X41920000Y-86310000D01*
X57600000Y-119350000D02*
X57600000Y-122450000D01*
X57600000Y-122450000D02*
X61200000Y-122450000D01*
X61200000Y-119350000D02*
X57600000Y-119350000D01*
X61200000Y-122450000D02*
X61200000Y-119350000D01*
X118400000Y-106350000D02*
X118400000Y-103250000D01*
X118400000Y-103250000D02*
X114800000Y-103250000D01*
X114800000Y-106350000D02*
X118400000Y-106350000D01*
X114800000Y-103250000D02*
X114800000Y-106350000D01*
X115317846Y-152946339D02*
X116867846Y-150261661D01*
X116867846Y-150261661D02*
X113750154Y-148461661D01*
X112200154Y-151146339D02*
X115317846Y-152946339D01*
X113750154Y-148461661D02*
X112200154Y-151146339D01*
X114700000Y-121950000D02*
X114700000Y-125050000D01*
X114700000Y-125050000D02*
X118300000Y-125050000D01*
X118300000Y-121950000D02*
X114700000Y-121950000D01*
X118300000Y-125050000D02*
X118300000Y-121950000D01*
X98800000Y-103250000D02*
X98800000Y-100150000D01*
X98800000Y-100150000D02*
X95200000Y-100150000D01*
X95200000Y-103250000D02*
X98800000Y-103250000D01*
X95200000Y-100150000D02*
X95200000Y-103250000D01*
X98900000Y-103350000D02*
X95300000Y-103350000D01*
X98900000Y-100250000D02*
X98900000Y-103350000D01*
X95300000Y-103350000D02*
X95300000Y-100250000D01*
X95300000Y-100250000D02*
X98900000Y-100250000D01*
X38320000Y-86310000D02*
X41920000Y-86310000D01*
X38320000Y-89410000D02*
X38320000Y-86310000D01*
X41920000Y-86310000D02*
X41920000Y-89410000D01*
X41920000Y-89410000D02*
X38320000Y-89410000D01*
X76750000Y-145750000D02*
X73150000Y-145750000D01*
X76750000Y-142650000D02*
X76750000Y-145750000D01*
X73150000Y-145750000D02*
X73150000Y-142650000D01*
X73150000Y-142650000D02*
X76750000Y-142650000D01*
X42000000Y-108050000D02*
X38400000Y-108050000D01*
X42000000Y-104950000D02*
X42000000Y-108050000D01*
X38400000Y-108050000D02*
X38400000Y-104950000D01*
X38400000Y-104950000D02*
X42000000Y-104950000D01*
X115313846Y-152942339D02*
X112196154Y-151142339D01*
X116863846Y-150257661D02*
X115313846Y-152942339D01*
X112196154Y-151142339D02*
X113746154Y-148457661D01*
X113746154Y-148457661D02*
X116863846Y-150257661D01*
X114700000Y-121950000D02*
X118300000Y-121950000D01*
X114700000Y-125050000D02*
X114700000Y-121950000D01*
X118300000Y-121950000D02*
X118300000Y-125050000D01*
X118300000Y-125050000D02*
X114700000Y-125050000D01*
X61687500Y-130350000D02*
X58087500Y-130350000D01*
X61687500Y-127250000D02*
X61687500Y-130350000D01*
X58087500Y-130350000D02*
X58087500Y-127250000D01*
X58087500Y-127250000D02*
X61687500Y-127250000D01*
X80100000Y-101450000D02*
X76500000Y-101450000D01*
X80100000Y-98350000D02*
X80100000Y-101450000D01*
X76500000Y-101450000D02*
X76500000Y-98350000D01*
X76500000Y-98350000D02*
X80100000Y-98350000D01*
X95500000Y-119350000D02*
X99100000Y-119350000D01*
X95500000Y-122450000D02*
X95500000Y-119350000D01*
X99100000Y-119350000D02*
X99100000Y-122450000D01*
X99100000Y-122450000D02*
X95500000Y-122450000D01*
X76512500Y-117150000D02*
X80112500Y-117150000D01*
X76512500Y-120250000D02*
X76512500Y-117150000D01*
X80112500Y-117150000D02*
X80112500Y-120250000D01*
X80112500Y-120250000D02*
X76512500Y-120250000D01*
X38300000Y-124250000D02*
X41900000Y-124250000D01*
X38300000Y-127350000D02*
X38300000Y-124250000D01*
X41900000Y-124250000D02*
X41900000Y-127350000D01*
X41900000Y-127350000D02*
X38300000Y-127350000D01*
X60987500Y-103450000D02*
X57387500Y-103450000D01*
X60987500Y-100350000D02*
X60987500Y-103450000D01*
X57387500Y-103450000D02*
X57387500Y-100350000D01*
X57387500Y-100350000D02*
X60987500Y-100350000D01*
X95400000Y-81550000D02*
X99000000Y-81550000D01*
X95400000Y-84650000D02*
X95400000Y-81550000D01*
X99000000Y-81550000D02*
X99000000Y-84650000D01*
X99000000Y-84650000D02*
X95400000Y-84650000D01*
X57300000Y-81550000D02*
X60900000Y-81550000D01*
X57300000Y-84650000D02*
X57300000Y-81550000D01*
X60900000Y-81550000D02*
X60900000Y-84650000D01*
X60900000Y-84650000D02*
X57300000Y-84650000D01*
X95551497Y-149619059D02*
X92074164Y-148687311D01*
X96353836Y-146624689D02*
X95551497Y-149619059D01*
X92074164Y-148687311D02*
X92876503Y-145692941D01*
X92876503Y-145692941D02*
X96353836Y-146624689D01*
X114600000Y-83970000D02*
X118200000Y-83970000D01*
X114600000Y-87070000D02*
X114600000Y-83970000D01*
X118200000Y-83970000D02*
X118200000Y-87070000D01*
X118200000Y-87070000D02*
X114600000Y-87070000D01*
X57600000Y-119350000D02*
X61200000Y-119350000D01*
X57600000Y-122450000D02*
X57600000Y-119350000D01*
X61200000Y-119350000D02*
X61200000Y-122450000D01*
X61200000Y-122450000D02*
X57600000Y-122450000D01*
X76200000Y-79250000D02*
X79800000Y-79250000D01*
X76200000Y-82350000D02*
X76200000Y-79250000D01*
X79800000Y-79250000D02*
X79800000Y-82350000D01*
X79800000Y-82350000D02*
X76200000Y-82350000D01*
X118400000Y-106350000D02*
X114800000Y-106350000D01*
X118400000Y-103250000D02*
X118400000Y-106350000D01*
X114800000Y-106350000D02*
X114800000Y-103250000D01*
X114800000Y-103250000D02*
X118400000Y-103250000D01*
D11*
X124600000Y-129750000D03*
X117600000Y-129750000D03*
X124600000Y-131500000D03*
X117600000Y-131500000D03*
D12*
X115800000Y-127650000D03*
X115800000Y-133600000D03*
X119800000Y-127650000D03*
X119800000Y-133600000D03*
X122800000Y-127650000D03*
X122800000Y-133600000D03*
X114300000Y-129400000D03*
X114300000Y-131850000D03*
D13*
X80800000Y-80100000D03*
X80800000Y-81500000D03*
X75200000Y-81500000D03*
X75200000Y-80100000D03*
D14*
X50910000Y-89200000D03*
X50910000Y-85800000D03*
D15*
X75500000Y-100600000D03*
X75500000Y-99200000D03*
X81100000Y-99200000D03*
X81100000Y-100600000D03*
D13*
X81112500Y-118000000D03*
X81112500Y-119400000D03*
X75512500Y-119400000D03*
X75512500Y-118000000D03*
D16*
X111380000Y-100080000D03*
D17*
X112650000Y-97539999D03*
X113920000Y-95000000D03*
D18*
X116460000Y-100080000D03*
D17*
X119000000Y-95000000D03*
X120270000Y-97540000D03*
D16*
X121540000Y-100080000D03*
D19*
X109260000Y-94980000D03*
D20*
X124960000Y-97580000D03*
D14*
X87000000Y-85100000D03*
X87000000Y-81700000D03*
X88960000Y-85079999D03*
X88960000Y-81679999D03*
D15*
X56400000Y-102600000D03*
X56400000Y-101200000D03*
X62000000Y-101200000D03*
X62000000Y-102600000D03*
D16*
X92130000Y-116330000D03*
D17*
X93400000Y-113789999D03*
X94670000Y-111250000D03*
D18*
X97210000Y-116330000D03*
D17*
X99750000Y-111250000D03*
X101020000Y-113790000D03*
D16*
X102290000Y-116330000D03*
D19*
X90010000Y-111230000D03*
D20*
X105710000Y-113830000D03*
D13*
X61900000Y-82400000D03*
X61900000Y-83800000D03*
X56300000Y-83800000D03*
X56300000Y-82400000D03*
D21*
X42940000Y-154420000D03*
X49740000Y-154420000D03*
D22*
X43840000Y-151670000D03*
X46340000Y-151670000D03*
X48840000Y-151670000D03*
D15*
X72130000Y-144900000D03*
X72130000Y-143500000D03*
X77730000Y-143500000D03*
X77730000Y-144900000D03*
D14*
X49000000Y-108000000D03*
X49000000Y-104600000D03*
D23*
X91328234Y-147607455D03*
X91690581Y-146255159D03*
X97099766Y-147704545D03*
X96737419Y-149056841D03*
D16*
X111380000Y-119080000D03*
D17*
X112650000Y-116539999D03*
X113920000Y-114000000D03*
D18*
X116460000Y-119080000D03*
D17*
X119000000Y-114000000D03*
X120270000Y-116540000D03*
D16*
X121540000Y-119080000D03*
D19*
X109260000Y-113980000D03*
D20*
X124960000Y-116580000D03*
D24*
X76900000Y-151800000D03*
X73500000Y-151800000D03*
D13*
X119200000Y-84820000D03*
X119200000Y-86220000D03*
X113600000Y-86220000D03*
X113600000Y-84820000D03*
D16*
X91573097Y-142045199D03*
D17*
X93457223Y-139920447D03*
X95341349Y-137795696D03*
D18*
X96480000Y-143360000D03*
D17*
X100248252Y-139110497D03*
X100817578Y-141892649D03*
D16*
X101386903Y-144674801D03*
D25*
X90845311Y-136570281D03*
D26*
X105337417Y-143145147D03*
D15*
X37400000Y-107200000D03*
X37400000Y-105800000D03*
X43000000Y-105800000D03*
X43000000Y-107200000D03*
D27*
X39230760Y-144320000D03*
X38230000Y-144320000D03*
D13*
X42950000Y-125200000D03*
X42950000Y-126600000D03*
X37350000Y-126600000D03*
X37350000Y-125200000D03*
D28*
X63770000Y-145800000D03*
X63770000Y-143260000D03*
X63770000Y-140720000D03*
X63770000Y-138180000D03*
D27*
X108880760Y-128540000D03*
X107880000Y-128540000D03*
D14*
X106600000Y-104319999D03*
X106600000Y-100919999D03*
D13*
X100100000Y-120200000D03*
X100100000Y-121600000D03*
X94500000Y-121600000D03*
X94500000Y-120200000D03*
D16*
X54230000Y-116290001D03*
D17*
X55500000Y-113750000D03*
X56770000Y-111210001D03*
D18*
X59310000Y-116290001D03*
D17*
X61850000Y-111210001D03*
X63120000Y-113750001D03*
D16*
X64390000Y-116290001D03*
D19*
X52110000Y-111190001D03*
D20*
X67810000Y-113790001D03*
D15*
X57100000Y-129500000D03*
X57100000Y-128100000D03*
X62700000Y-128100000D03*
X62700000Y-129500000D03*
D27*
X59890380Y-140810000D03*
X58889620Y-140810000D03*
D13*
X100000000Y-82400000D03*
X100000000Y-83800000D03*
X94400000Y-83800000D03*
X94400000Y-82400000D03*
D16*
X73170000Y-95000000D03*
D17*
X74440000Y-92459999D03*
X75710000Y-89920000D03*
D18*
X78250000Y-95000000D03*
D17*
X80790000Y-89920000D03*
X82060000Y-92460000D03*
D16*
X83330000Y-95000000D03*
D19*
X71050000Y-89900000D03*
D20*
X86750000Y-92500000D03*
D16*
X35052000Y-121150000D03*
D17*
X36322000Y-118609999D03*
X37592000Y-116070000D03*
D18*
X40132000Y-121150000D03*
D17*
X42672000Y-116070000D03*
X43942000Y-118610000D03*
D16*
X45212000Y-121150000D03*
D19*
X32932000Y-116050000D03*
D20*
X48632000Y-118650000D03*
D27*
X59860760Y-145980000D03*
X58860000Y-145980000D03*
D13*
X42920000Y-87160000D03*
X42920000Y-88560000D03*
X37320000Y-88560000D03*
X37320000Y-87160000D03*
D16*
X113080591Y-144570000D03*
D17*
X115450444Y-143005295D03*
X117820295Y-141440591D03*
D18*
X117480000Y-147110000D03*
D17*
X122219705Y-143980591D03*
X122049557Y-146815295D03*
D16*
X121879409Y-149650000D03*
D29*
X113794617Y-139093270D03*
D30*
X126091216Y-149194936D03*
D16*
X111380000Y-81080000D03*
D17*
X112650000Y-78539999D03*
X113920000Y-76000000D03*
D18*
X116460000Y-81080000D03*
D17*
X119000000Y-76000000D03*
X120270000Y-78540000D03*
D16*
X121540000Y-81080000D03*
D19*
X109260000Y-75980000D03*
D20*
X124960000Y-78580000D03*
D27*
X59890760Y-138200000D03*
X58890000Y-138200000D03*
D31*
X37050000Y-141760000D03*
X43550000Y-141760000D03*
D14*
X88700000Y-104410000D03*
X88700000Y-101010000D03*
D31*
X72880000Y-147110000D03*
X77880000Y-147110000D03*
X75380000Y-147110000D03*
D32*
X69780000Y-139610000D03*
X80980000Y-139610000D03*
D31*
X77880000Y-132610000D03*
X72880000Y-132610000D03*
D27*
X39200760Y-146070000D03*
X38200000Y-146070000D03*
D14*
X86800000Y-104400000D03*
X86800000Y-101000000D03*
X107200000Y-87100000D03*
X107200000Y-83700000D03*
D16*
X73120000Y-76100000D03*
D17*
X74390000Y-73559999D03*
X75660000Y-71020000D03*
D18*
X78200000Y-76100000D03*
D17*
X80740000Y-71020000D03*
X82010000Y-73560000D03*
D16*
X83280000Y-76100000D03*
D19*
X71000000Y-71000000D03*
D20*
X86700000Y-73600000D03*
D33*
X54210000Y-153830000D03*
D34*
X56710000Y-153830000D03*
D14*
X49000000Y-89200000D03*
X49000000Y-85800000D03*
D16*
X92210000Y-78359000D03*
D17*
X93480000Y-75818999D03*
X94750000Y-73279000D03*
D18*
X97290000Y-78359000D03*
D17*
X99830000Y-73279000D03*
X101100000Y-75819000D03*
D16*
X102370000Y-78359000D03*
D19*
X90090000Y-73259000D03*
D20*
X105790000Y-75859000D03*
D27*
X108820760Y-132420000D03*
X107820000Y-132420000D03*
D16*
X35052000Y-83121500D03*
D17*
X36322000Y-80581499D03*
X37592000Y-78041500D03*
D18*
X40132000Y-83121500D03*
D17*
X42672000Y-78041500D03*
X43942000Y-80581500D03*
D16*
X45212000Y-83121500D03*
D19*
X32932000Y-78021500D03*
D20*
X48632000Y-80621500D03*
D14*
X50930000Y-107980000D03*
X50930000Y-104580000D03*
D13*
X62200000Y-120200000D03*
X62200000Y-121600000D03*
X56600000Y-121600000D03*
X56600000Y-120200000D03*
D14*
X88710000Y-121139999D03*
X88710000Y-117739999D03*
X85000000Y-151600000D03*
X85000000Y-148200000D03*
D15*
X113800000Y-105500000D03*
X113800000Y-104100000D03*
X119400000Y-104100000D03*
X119400000Y-105500000D03*
D35*
X111759129Y-149910218D03*
X112459129Y-148697782D03*
X117308871Y-151497782D03*
X116608871Y-152710218D03*
D16*
X73210000Y-114080000D03*
D17*
X74480000Y-111539999D03*
X75750000Y-109000000D03*
D18*
X78290000Y-114080000D03*
D17*
X80830000Y-109000000D03*
X82100000Y-111540000D03*
D16*
X83370000Y-114080000D03*
D19*
X71090000Y-108980000D03*
D20*
X86790000Y-111580000D03*
D16*
X35052000Y-102100000D03*
D17*
X36322000Y-99559999D03*
X37592000Y-97020000D03*
D18*
X40132000Y-102100000D03*
D17*
X42672000Y-97020000D03*
X43942000Y-99560000D03*
D16*
X45212000Y-102100000D03*
D19*
X32932000Y-97000000D03*
D20*
X48632000Y-99600000D03*
D14*
X48780000Y-125060000D03*
X48780000Y-121660000D03*
D16*
X54120000Y-78350000D03*
D17*
X55390000Y-75809999D03*
X56660000Y-73270000D03*
D18*
X59200000Y-78350000D03*
D17*
X61740000Y-73270000D03*
X63010000Y-75810000D03*
D16*
X64280000Y-78350000D03*
D19*
X52000000Y-73250000D03*
D20*
X67700000Y-75850000D03*
D14*
X106400000Y-123100000D03*
X106400000Y-119700000D03*
D27*
X59880760Y-143380000D03*
X58880000Y-143380000D03*
D33*
X36150000Y-153770000D03*
D34*
X38650000Y-153770000D03*
D13*
X119300000Y-122800000D03*
X119300000Y-124200000D03*
X113700000Y-124200000D03*
X113700000Y-122800000D03*
D16*
X92170000Y-97250000D03*
D17*
X93440000Y-94709999D03*
X94710000Y-92170000D03*
D18*
X97250000Y-97250000D03*
D17*
X99790000Y-92170000D03*
X101060000Y-94710000D03*
D16*
X102330000Y-97250000D03*
D19*
X90050000Y-92150000D03*
D20*
X105750000Y-94750000D03*
D16*
X54170000Y-97290001D03*
D17*
X55440000Y-94750000D03*
X56710000Y-92210001D03*
D18*
X59250000Y-97290001D03*
D17*
X61790000Y-92210001D03*
X63060000Y-94750001D03*
D16*
X64330000Y-97290001D03*
D19*
X52050000Y-92190001D03*
D20*
X67750000Y-94790001D03*
D14*
X50800000Y-125020000D03*
X50800000Y-121620000D03*
X104800000Y-152500000D03*
X104800000Y-149100000D03*
D15*
X94200000Y-102400000D03*
X94200000Y-101000000D03*
X99800000Y-101000000D03*
X99800000Y-102400000D03*
D14*
X86800000Y-121200000D03*
X86800000Y-117800000D03*
D16*
X70320000Y-139610000D03*
D17*
X71590000Y-137069999D03*
X72860000Y-134530000D03*
D18*
X75400000Y-139610000D03*
D17*
X77940000Y-134530000D03*
X79210000Y-137070000D03*
D16*
X80480000Y-139610000D03*
D19*
X68200000Y-134510000D03*
D20*
X83900000Y-137110000D03*
D36*
X31680000Y-133231400D03*
D37*
X34220000Y-133688600D03*
X36760000Y-133231400D03*
X39300000Y-133688600D03*
X41840000Y-133231400D03*
X44380000Y-133688600D03*
X46920000Y-133231400D03*
X49460000Y-133688600D03*
X52000000Y-133231400D03*
X54540000Y-133688600D03*
X57080000Y-133231400D03*
X59620000Y-133688600D03*
X59620000Y-148471400D03*
X57080000Y-148928600D03*
X54540000Y-148471400D03*
X52000000Y-148928600D03*
X49460000Y-148471400D03*
X46920000Y-148928600D03*
X44380000Y-148471400D03*
X41840000Y-148928600D03*
X39300000Y-148471400D03*
X36760000Y-148928600D03*
X34220000Y-148471400D03*
X31680000Y-148928600D03*
G36*
X124177570Y-146709542D02*
G01*
X124177549Y-146711505D01*
X122983675Y-148779355D01*
X122981999Y-148780354D01*
X122980269Y-148779450D01*
X122980133Y-148777503D01*
X122980141Y-148777486D01*
X122980219Y-148777338D01*
X123567327Y-147760436D01*
X123378735Y-147631857D01*
X123319171Y-147706550D01*
X123317391Y-147707291D01*
X123315812Y-147706184D01*
X123315902Y-147704258D01*
X123429719Y-147518525D01*
X123483685Y-147388240D01*
X123485260Y-147387024D01*
X123487104Y-147387768D01*
X123487395Y-147389736D01*
X123421312Y-147558115D01*
X123626959Y-147657150D01*
X124174075Y-146709520D01*
X124174143Y-146709411D01*
X124174153Y-146709396D01*
X124175903Y-146708507D01*
X124177570Y-146709542D01*
G37*
G36*
X122898308Y-145371984D02*
G01*
X122899129Y-145373753D01*
X122888658Y-145513453D01*
X122892316Y-145515948D01*
X122893186Y-145517717D01*
X122892115Y-145519373D01*
X122890144Y-145519305D01*
X122752787Y-145435132D01*
X122752536Y-145435028D01*
X122751456Y-145433945D01*
X122751457Y-145432415D01*
X122752539Y-145431333D01*
X122896370Y-145371756D01*
X122898308Y-145371984D01*
G37*
G36*
X121379116Y-145276580D02*
G01*
X121516472Y-145360752D01*
X121516723Y-145360856D01*
X121517805Y-145361939D01*
X121517805Y-145363469D01*
X121516722Y-145364552D01*
X121372891Y-145424128D01*
X121370953Y-145423900D01*
X121370132Y-145422131D01*
X121380600Y-145282430D01*
X121376944Y-145279937D01*
X121376074Y-145278168D01*
X121377145Y-145276512D01*
X121379116Y-145276580D01*
G37*
G36*
X102845722Y-141239753D02*
G01*
X102846195Y-141241639D01*
X102240581Y-143501824D01*
X102239167Y-143503238D01*
X102237235Y-143502720D01*
X102236717Y-143500788D01*
X102532694Y-142396177D01*
X102311776Y-142323484D01*
X102297765Y-142359182D01*
X102296292Y-142360413D01*
X102294461Y-142359837D01*
X102293958Y-142357984D01*
X102347501Y-142134964D01*
X102359230Y-141985923D01*
X102360361Y-141984276D01*
X102362353Y-141984429D01*
X102363218Y-141986229D01*
X102344417Y-142237113D01*
X102565261Y-142274636D01*
X102842328Y-141240611D01*
X102842387Y-141240427D01*
X102842390Y-141240419D01*
X102843871Y-141239160D01*
X102845722Y-141239753D01*
G37*
G36*
X116977167Y-142735024D02*
G01*
X117110006Y-142816427D01*
X117110960Y-142818083D01*
X117110088Y-142819784D01*
X116995072Y-142898203D01*
X116996086Y-142911732D01*
X116995221Y-142913532D01*
X116993229Y-142913685D01*
X116992098Y-142912038D01*
X116980367Y-142762979D01*
X116974177Y-142737196D01*
X116974417Y-142735684D01*
X116975655Y-142734784D01*
X116977167Y-142735024D01*
G37*
G36*
X116278604Y-141533387D02*
G01*
X116290371Y-141682906D01*
X116296561Y-141708689D01*
X116296321Y-141710201D01*
X116295083Y-141711101D01*
X116293571Y-141710861D01*
X116160730Y-141629456D01*
X116159776Y-141627800D01*
X116160648Y-141626099D01*
X116275664Y-141547683D01*
X116274616Y-141533693D01*
X116275481Y-141531893D01*
X116277473Y-141531740D01*
X116278604Y-141533387D01*
G37*
G36*
X115734874Y-141236113D02*
G01*
X115735094Y-141238043D01*
X115733571Y-141239250D01*
X115629319Y-141256354D01*
X115630696Y-141468310D01*
X115630058Y-141469787D01*
X115628539Y-141470317D01*
X115450444Y-141456301D01*
X115208128Y-141475371D01*
X115040675Y-141515573D01*
X115038787Y-141515035D01*
X115038268Y-141513142D01*
X115039619Y-141511717D01*
X115101842Y-141492524D01*
X115095344Y-141304435D01*
X115012411Y-141285005D01*
X115010994Y-141283761D01*
X115011243Y-141281891D01*
X115012934Y-141281059D01*
X115019738Y-141281288D01*
X115733118Y-141235280D01*
X115734874Y-141236113D01*
G37*
G36*
X99929133Y-140621981D02*
G01*
X99930371Y-140622881D01*
X99930611Y-140624393D01*
X99929711Y-140625631D01*
X99907104Y-140639485D01*
X99788728Y-140740587D01*
X99786787Y-140740960D01*
X99785473Y-140739484D01*
X99786069Y-140737600D01*
X99802774Y-140722100D01*
X99771989Y-140587224D01*
X99772533Y-140585357D01*
X99774406Y-140584834D01*
X99929133Y-140621981D01*
G37*
G36*
X101280318Y-140263694D02*
G01*
X101279722Y-140265578D01*
X101263055Y-140281042D01*
X101293838Y-140415920D01*
X101293294Y-140417787D01*
X101291421Y-140418310D01*
X101136696Y-140381164D01*
X101135458Y-140380264D01*
X101135218Y-140378752D01*
X101136118Y-140377514D01*
X101158725Y-140363660D01*
X101277063Y-140262591D01*
X101279004Y-140262218D01*
X101280318Y-140263694D01*
G37*
G36*
X94862437Y-139268775D02*
G01*
X94862679Y-139268875D01*
X95046634Y-139313039D01*
X95048068Y-139314361D01*
X95047694Y-139316275D01*
X95045869Y-139316962D01*
X95016796Y-139312580D01*
X94928365Y-139407886D01*
X94966647Y-139575613D01*
X94966063Y-139577519D01*
X94964122Y-139577973D01*
X94962752Y-139576525D01*
X94930403Y-139441780D01*
X94859823Y-139271387D01*
X94859823Y-139269856D01*
X94860906Y-139268774D01*
X94862437Y-139268775D01*
G37*
G36*
X79930521Y-138441545D02*
G01*
X79931000Y-138442844D01*
X79931000Y-138902729D01*
X79930176Y-138904347D01*
X79908005Y-138920454D01*
X79906330Y-138920773D01*
X79905018Y-138919685D01*
X79905021Y-138917981D01*
X79927000Y-138871511D01*
X79927000Y-138573697D01*
X79827079Y-138499952D01*
X79734550Y-138528494D01*
X79732646Y-138528091D01*
X79731986Y-138526260D01*
X79733195Y-138524735D01*
X79913230Y-138450162D01*
X79927955Y-138441139D01*
X79929313Y-138440869D01*
X79930521Y-138441545D01*
G37*
G36*
X93274102Y-138137921D02*
G01*
X93274815Y-138139729D01*
X93273656Y-138141288D01*
X93192512Y-138177996D01*
X93234382Y-138372133D01*
X93397680Y-138372133D01*
X93399385Y-138373088D01*
X93399462Y-138375041D01*
X93397837Y-138376127D01*
X93214907Y-138390523D01*
X92978556Y-138447266D01*
X92753992Y-138540284D01*
X92616631Y-138624459D01*
X92614660Y-138624527D01*
X92613589Y-138622871D01*
X92614459Y-138621102D01*
X92725914Y-138545113D01*
X92668722Y-138369617D01*
X92588876Y-138372146D01*
X92587186Y-138371310D01*
X92586942Y-138369440D01*
X92588361Y-138368199D01*
X92594983Y-138366662D01*
X93272191Y-138137571D01*
X93274102Y-138137921D01*
G37*
G36*
X93835792Y-138139507D02*
G01*
X93868168Y-138274362D01*
X93938748Y-138444755D01*
X93938748Y-138446285D01*
X93937666Y-138447367D01*
X93936136Y-138447368D01*
X93935892Y-138447267D01*
X93751928Y-138403101D01*
X93750494Y-138401779D01*
X93750868Y-138399865D01*
X93752693Y-138399178D01*
X93781774Y-138403561D01*
X93870204Y-138308255D01*
X93831897Y-138140419D01*
X93832481Y-138138513D01*
X93834422Y-138138058D01*
X93835792Y-138139507D01*
G37*
G36*
X81000388Y-137028871D02*
G01*
X81001000Y-137030311D01*
X81001000Y-137959000D01*
X81000414Y-137960414D01*
X80999000Y-137961000D01*
X80925778Y-137961000D01*
X80924364Y-137960414D01*
X80923778Y-137959000D01*
X80924364Y-137957586D01*
X80997000Y-137884950D01*
X80997000Y-137111616D01*
X80758509Y-137102691D01*
X80757090Y-137102022D01*
X80756590Y-137100535D01*
X80758993Y-137069999D01*
X80756590Y-137039464D01*
X80757090Y-137037977D01*
X80758509Y-137037308D01*
X80998925Y-137028312D01*
X81000388Y-137028871D01*
G37*
G36*
X80556569Y-137833702D02*
G01*
X80628332Y-137958000D01*
X80628332Y-137960000D01*
X80626600Y-137961000D01*
X80478668Y-137961000D01*
X80477369Y-137960521D01*
X80476693Y-137959313D01*
X80476963Y-137957955D01*
X80553132Y-137833657D01*
X80554863Y-137832702D01*
X80556569Y-137833702D01*
G37*
G36*
X70246867Y-137833656D02*
G01*
X70323038Y-137957955D01*
X70323308Y-137959313D01*
X70322632Y-137960521D01*
X70321333Y-137961000D01*
X70173399Y-137961000D01*
X70171667Y-137960000D01*
X70171667Y-137958000D01*
X70243430Y-137833701D01*
X70245136Y-137832701D01*
X70246867Y-137833656D01*
G37*
G36*
X77939999Y-136078993D02*
G01*
X78026972Y-136072148D01*
X78028428Y-136072621D01*
X78029123Y-136073985D01*
X78028650Y-136075441D01*
X77956836Y-136159526D01*
X77880844Y-136283534D01*
X77879104Y-136284489D01*
X77877398Y-136283474D01*
X77877407Y-136281489D01*
X77923342Y-136201926D01*
X77866931Y-136084788D01*
X77762280Y-136069014D01*
X77760734Y-136067811D01*
X77760957Y-136065864D01*
X77762735Y-136065042D01*
X77939999Y-136078993D01*
G37*
G36*
X73039040Y-136065865D02*
G01*
X73039263Y-136067812D01*
X73037717Y-136069015D01*
X72933067Y-136084788D01*
X72876656Y-136201927D01*
X72922568Y-136281448D01*
X72922577Y-136283433D01*
X72920871Y-136284448D01*
X72919131Y-136283493D01*
X72843163Y-136159525D01*
X72771349Y-136075441D01*
X72770876Y-136073985D01*
X72771571Y-136072621D01*
X72773027Y-136072148D01*
X72860000Y-136078993D01*
X73037262Y-136065043D01*
X73039040Y-136065865D01*
G37*
G36*
X70952882Y-135397195D02*
G01*
X70952166Y-135399001D01*
X70874771Y-135462389D01*
X70970542Y-135640776D01*
X71065472Y-135611494D01*
X71067376Y-135611897D01*
X71068036Y-135613728D01*
X71066827Y-135615253D01*
X70886769Y-135689836D01*
X70679526Y-135816835D01*
X70528685Y-135945664D01*
X70527044Y-135946114D01*
X70525651Y-135945138D01*
X70428437Y-135775650D01*
X70350511Y-135799200D01*
X70348662Y-135798831D01*
X70347942Y-135797088D01*
X70348991Y-135795521D01*
X70355001Y-135792316D01*
X70949790Y-135395790D01*
X70951726Y-135395633D01*
X70952882Y-135397195D01*
G37*
G36*
X79272572Y-135316572D02*
G01*
X79272563Y-135318557D01*
X79226656Y-135398071D01*
X79283066Y-135515209D01*
X79387738Y-135530986D01*
X79389284Y-135532189D01*
X79389061Y-135534136D01*
X79387283Y-135534958D01*
X79210000Y-135521006D01*
X79123027Y-135527851D01*
X79121571Y-135527378D01*
X79120876Y-135526014D01*
X79121349Y-135524558D01*
X79193163Y-135440473D01*
X79269126Y-135316512D01*
X79270866Y-135315557D01*
X79272572Y-135316572D01*
G37*
G36*
X71530861Y-135316494D02*
G01*
X71606836Y-135440473D01*
X71678650Y-135524557D01*
X71679123Y-135526013D01*
X71678428Y-135527377D01*
X71676972Y-135527850D01*
X71589999Y-135521005D01*
X71412712Y-135534957D01*
X71410934Y-135534135D01*
X71410711Y-135532188D01*
X71412257Y-135530985D01*
X71516931Y-135515208D01*
X71573342Y-135398070D01*
X71527424Y-135318539D01*
X71527415Y-135316554D01*
X71529121Y-135315539D01*
X71530861Y-135316494D01*
G37*
G36*
X115351680Y-132470102D02*
G01*
X115351321Y-132471981D01*
X115282222Y-132556179D01*
X115348825Y-132697000D01*
X115400000Y-132697000D01*
X115401696Y-132697940D01*
X115401798Y-132699877D01*
X115400209Y-132700989D01*
X115213089Y-132720656D01*
X115034348Y-132778732D01*
X114871585Y-132872703D01*
X114751559Y-132980775D01*
X114749699Y-132981220D01*
X114748316Y-132979899D01*
X114748675Y-132978020D01*
X114817777Y-132893820D01*
X114751175Y-132753000D01*
X114700000Y-132753000D01*
X114698304Y-132752060D01*
X114698202Y-132750123D01*
X114699791Y-132749011D01*
X114886910Y-132729343D01*
X115065651Y-132671267D01*
X115228414Y-132577296D01*
X115348437Y-132469226D01*
X115350297Y-132468781D01*
X115351680Y-132470102D01*
G37*
G36*
X114751561Y-128269225D02*
G01*
X114871585Y-128377296D01*
X115034348Y-128471267D01*
X115213089Y-128529343D01*
X115400209Y-128549011D01*
X115401798Y-128550123D01*
X115401696Y-128552060D01*
X115400000Y-128553000D01*
X115348825Y-128553000D01*
X115282222Y-128693820D01*
X115351322Y-128778019D01*
X115351681Y-128779898D01*
X115350298Y-128781219D01*
X115348438Y-128780774D01*
X115228414Y-128672703D01*
X115065651Y-128578732D01*
X114886910Y-128520656D01*
X114699791Y-128500989D01*
X114698202Y-128499877D01*
X114698304Y-128497940D01*
X114700000Y-128497000D01*
X114751175Y-128497000D01*
X114817777Y-128356179D01*
X114748677Y-128271980D01*
X114748318Y-128270101D01*
X114749701Y-128268780D01*
X114751561Y-128269225D01*
G37*
G36*
X45732388Y-118568871D02*
G01*
X45733000Y-118570311D01*
X45733000Y-118649689D01*
X45732388Y-118651129D01*
X45730925Y-118651688D01*
X45490509Y-118642691D01*
X45489090Y-118642022D01*
X45488590Y-118640535D01*
X45490993Y-118609999D01*
X45488590Y-118579464D01*
X45489090Y-118577977D01*
X45490509Y-118577308D01*
X45730925Y-118568312D01*
X45732388Y-118568871D01*
G37*
G36*
X42671999Y-117618993D02*
G01*
X42758972Y-117612148D01*
X42760428Y-117612621D01*
X42761123Y-117613985D01*
X42760650Y-117615441D01*
X42688836Y-117699526D01*
X42612844Y-117823534D01*
X42611104Y-117824489D01*
X42609398Y-117823474D01*
X42609407Y-117821489D01*
X42655342Y-117741926D01*
X42598931Y-117624788D01*
X42494280Y-117609014D01*
X42492734Y-117607811D01*
X42492957Y-117605864D01*
X42494735Y-117605042D01*
X42671999Y-117618993D01*
G37*
G36*
X37771040Y-117605865D02*
G01*
X37771263Y-117607812D01*
X37769717Y-117609015D01*
X37665067Y-117624788D01*
X37608656Y-117741927D01*
X37654568Y-117821448D01*
X37654577Y-117823433D01*
X37652871Y-117824448D01*
X37651131Y-117823493D01*
X37575163Y-117699525D01*
X37503349Y-117615441D01*
X37502876Y-117613985D01*
X37503571Y-117612621D01*
X37505027Y-117612148D01*
X37592000Y-117618993D01*
X37769262Y-117605043D01*
X37771040Y-117605865D01*
G37*
G36*
X35684882Y-116937195D02*
G01*
X35684166Y-116939001D01*
X35606771Y-117002389D01*
X35702542Y-117180776D01*
X35797472Y-117151494D01*
X35799376Y-117151897D01*
X35800036Y-117153728D01*
X35798827Y-117155253D01*
X35618769Y-117229836D01*
X35411526Y-117356835D01*
X35260685Y-117485664D01*
X35259044Y-117486114D01*
X35257651Y-117485138D01*
X35160437Y-117315650D01*
X35082511Y-117339200D01*
X35080662Y-117338831D01*
X35079942Y-117337088D01*
X35080991Y-117335521D01*
X35087001Y-117332316D01*
X35681790Y-116935790D01*
X35683726Y-116935633D01*
X35684882Y-116937195D01*
G37*
G36*
X44004572Y-116856572D02*
G01*
X44004563Y-116858557D01*
X43958656Y-116938071D01*
X44015066Y-117055209D01*
X44119738Y-117070986D01*
X44121284Y-117072189D01*
X44121061Y-117074136D01*
X44119283Y-117074958D01*
X43942000Y-117061006D01*
X43855027Y-117067851D01*
X43853571Y-117067378D01*
X43852876Y-117066014D01*
X43853349Y-117064558D01*
X43925163Y-116980473D01*
X44001126Y-116856512D01*
X44002866Y-116855557D01*
X44004572Y-116856572D01*
G37*
G36*
X36262861Y-116856494D02*
G01*
X36338836Y-116980473D01*
X36410650Y-117064557D01*
X36411123Y-117066013D01*
X36410428Y-117067377D01*
X36408972Y-117067850D01*
X36321999Y-117061005D01*
X36144712Y-117074957D01*
X36142934Y-117074135D01*
X36142711Y-117072188D01*
X36144257Y-117070985D01*
X36248931Y-117055208D01*
X36305342Y-116938070D01*
X36259424Y-116858539D01*
X36259415Y-116856554D01*
X36261121Y-116855539D01*
X36262861Y-116856494D01*
G37*
G36*
X122060388Y-116498871D02*
G01*
X122061000Y-116500311D01*
X122061000Y-116579689D01*
X122060388Y-116581129D01*
X122058925Y-116581688D01*
X121818509Y-116572691D01*
X121817090Y-116572022D01*
X121816590Y-116570535D01*
X121818993Y-116539999D01*
X121816590Y-116509464D01*
X121817090Y-116507977D01*
X121818509Y-116507308D01*
X122058925Y-116498312D01*
X122060388Y-116498871D01*
G37*
G36*
X118999999Y-115548993D02*
G01*
X119086972Y-115542148D01*
X119088428Y-115542621D01*
X119089123Y-115543985D01*
X119088650Y-115545441D01*
X119016836Y-115629526D01*
X118940844Y-115753534D01*
X118939104Y-115754489D01*
X118937398Y-115753474D01*
X118937407Y-115751489D01*
X118983342Y-115671926D01*
X118926931Y-115554788D01*
X118822280Y-115539014D01*
X118820734Y-115537811D01*
X118820957Y-115535864D01*
X118822735Y-115535042D01*
X118999999Y-115548993D01*
G37*
G36*
X114099040Y-115535865D02*
G01*
X114099263Y-115537812D01*
X114097717Y-115539015D01*
X113993067Y-115554788D01*
X113936656Y-115671927D01*
X113982568Y-115751448D01*
X113982577Y-115753433D01*
X113980871Y-115754448D01*
X113979131Y-115753493D01*
X113903163Y-115629525D01*
X113831349Y-115545441D01*
X113830876Y-115543985D01*
X113831571Y-115542621D01*
X113833027Y-115542148D01*
X113920000Y-115548993D01*
X114097262Y-115535043D01*
X114099040Y-115535865D01*
G37*
G36*
X112012882Y-114867195D02*
G01*
X112012166Y-114869001D01*
X111934771Y-114932389D01*
X112030542Y-115110776D01*
X112125472Y-115081494D01*
X112127376Y-115081897D01*
X112128036Y-115083728D01*
X112126827Y-115085253D01*
X111946769Y-115159836D01*
X111739526Y-115286835D01*
X111588685Y-115415664D01*
X111587044Y-115416114D01*
X111585651Y-115415138D01*
X111488437Y-115245650D01*
X111410511Y-115269200D01*
X111408662Y-115268831D01*
X111407942Y-115267088D01*
X111408991Y-115265521D01*
X111415001Y-115262316D01*
X112009790Y-114865790D01*
X112011726Y-114865633D01*
X112012882Y-114867195D01*
G37*
G36*
X120332572Y-114786572D02*
G01*
X120332563Y-114788557D01*
X120286656Y-114868071D01*
X120343066Y-114985209D01*
X120447738Y-115000986D01*
X120449284Y-115002189D01*
X120449061Y-115004136D01*
X120447283Y-115004958D01*
X120270000Y-114991006D01*
X120183027Y-114997851D01*
X120181571Y-114997378D01*
X120180876Y-114996014D01*
X120181349Y-114994558D01*
X120253163Y-114910473D01*
X120329126Y-114786512D01*
X120330866Y-114785557D01*
X120332572Y-114786572D01*
G37*
G36*
X112590861Y-114786494D02*
G01*
X112666836Y-114910473D01*
X112738650Y-114994557D01*
X112739123Y-114996013D01*
X112738428Y-114997377D01*
X112736972Y-114997850D01*
X112649999Y-114991005D01*
X112472712Y-115004957D01*
X112470934Y-115004135D01*
X112470711Y-115002188D01*
X112472257Y-115000985D01*
X112576931Y-114985208D01*
X112633342Y-114868070D01*
X112587424Y-114788539D01*
X112587415Y-114786554D01*
X112589121Y-114785539D01*
X112590861Y-114786494D01*
G37*
G36*
X102810388Y-113748871D02*
G01*
X102811000Y-113750311D01*
X102811000Y-113829689D01*
X102810388Y-113831129D01*
X102808925Y-113831688D01*
X102568509Y-113822691D01*
X102567090Y-113822022D01*
X102566590Y-113820535D01*
X102568993Y-113789999D01*
X102566590Y-113759464D01*
X102567090Y-113757977D01*
X102568509Y-113757308D01*
X102808925Y-113748312D01*
X102810388Y-113748871D01*
G37*
G36*
X64910388Y-113708872D02*
G01*
X64911000Y-113710312D01*
X64911000Y-113789690D01*
X64910388Y-113791130D01*
X64908925Y-113791689D01*
X64668509Y-113782692D01*
X64667090Y-113782023D01*
X64666590Y-113780536D01*
X64668993Y-113750000D01*
X64666590Y-113719465D01*
X64667090Y-113717978D01*
X64668509Y-113717309D01*
X64908925Y-113708313D01*
X64910388Y-113708872D01*
G37*
G36*
X99749999Y-112798993D02*
G01*
X99836972Y-112792148D01*
X99838428Y-112792621D01*
X99839123Y-112793985D01*
X99838650Y-112795441D01*
X99766836Y-112879526D01*
X99690844Y-113003534D01*
X99689104Y-113004489D01*
X99687398Y-113003474D01*
X99687407Y-113001489D01*
X99733342Y-112921926D01*
X99676931Y-112804788D01*
X99572280Y-112789014D01*
X99570734Y-112787811D01*
X99570957Y-112785864D01*
X99572735Y-112785042D01*
X99749999Y-112798993D01*
G37*
G36*
X94849040Y-112785865D02*
G01*
X94849263Y-112787812D01*
X94847717Y-112789015D01*
X94743067Y-112804788D01*
X94686656Y-112921927D01*
X94732568Y-113001448D01*
X94732577Y-113003433D01*
X94730871Y-113004448D01*
X94729131Y-113003493D01*
X94653163Y-112879525D01*
X94581349Y-112795441D01*
X94580876Y-112793985D01*
X94581571Y-112792621D01*
X94583027Y-112792148D01*
X94670000Y-112798993D01*
X94847262Y-112785043D01*
X94849040Y-112785865D01*
G37*
G36*
X61849999Y-112758994D02*
G01*
X61936972Y-112752149D01*
X61938428Y-112752622D01*
X61939123Y-112753986D01*
X61938650Y-112755442D01*
X61866836Y-112839527D01*
X61790844Y-112963535D01*
X61789104Y-112964490D01*
X61787398Y-112963475D01*
X61787407Y-112961490D01*
X61833342Y-112881927D01*
X61776931Y-112764789D01*
X61672280Y-112749015D01*
X61670734Y-112747812D01*
X61670957Y-112745865D01*
X61672735Y-112745043D01*
X61849999Y-112758994D01*
G37*
G36*
X56949040Y-112745866D02*
G01*
X56949263Y-112747813D01*
X56947717Y-112749016D01*
X56843067Y-112764789D01*
X56786656Y-112881928D01*
X56832568Y-112961449D01*
X56832577Y-112963434D01*
X56830871Y-112964449D01*
X56829131Y-112963494D01*
X56753163Y-112839526D01*
X56681349Y-112755442D01*
X56680876Y-112753986D01*
X56681571Y-112752622D01*
X56683027Y-112752149D01*
X56770000Y-112758994D01*
X56947262Y-112745044D01*
X56949040Y-112745866D01*
G37*
G36*
X92762882Y-112117195D02*
G01*
X92762166Y-112119001D01*
X92684771Y-112182389D01*
X92780542Y-112360776D01*
X92875472Y-112331494D01*
X92877376Y-112331897D01*
X92878036Y-112333728D01*
X92876827Y-112335253D01*
X92696769Y-112409836D01*
X92489526Y-112536835D01*
X92338685Y-112665664D01*
X92337044Y-112666114D01*
X92335651Y-112665138D01*
X92238437Y-112495650D01*
X92160511Y-112519200D01*
X92158662Y-112518831D01*
X92157942Y-112517088D01*
X92158991Y-112515521D01*
X92165001Y-112512316D01*
X92759790Y-112115790D01*
X92761726Y-112115633D01*
X92762882Y-112117195D01*
G37*
G36*
X54862882Y-112077196D02*
G01*
X54862166Y-112079002D01*
X54784771Y-112142390D01*
X54880542Y-112320777D01*
X54975472Y-112291495D01*
X54977376Y-112291898D01*
X54978036Y-112293729D01*
X54976827Y-112295254D01*
X54796769Y-112369837D01*
X54589526Y-112496836D01*
X54438685Y-112625665D01*
X54437044Y-112626115D01*
X54435651Y-112625139D01*
X54338437Y-112455651D01*
X54260511Y-112479201D01*
X54258662Y-112478832D01*
X54257942Y-112477089D01*
X54258991Y-112475522D01*
X54265001Y-112472317D01*
X54859790Y-112075791D01*
X54861726Y-112075634D01*
X54862882Y-112077196D01*
G37*
G36*
X101082572Y-112036572D02*
G01*
X101082563Y-112038557D01*
X101036656Y-112118071D01*
X101093066Y-112235209D01*
X101197738Y-112250986D01*
X101199284Y-112252189D01*
X101199061Y-112254136D01*
X101197283Y-112254958D01*
X101020000Y-112241006D01*
X100933027Y-112247851D01*
X100931571Y-112247378D01*
X100930876Y-112246014D01*
X100931349Y-112244558D01*
X101003163Y-112160473D01*
X101079126Y-112036512D01*
X101080866Y-112035557D01*
X101082572Y-112036572D01*
G37*
G36*
X93340861Y-112036494D02*
G01*
X93416836Y-112160473D01*
X93488650Y-112244557D01*
X93489123Y-112246013D01*
X93488428Y-112247377D01*
X93486972Y-112247850D01*
X93399999Y-112241005D01*
X93222712Y-112254957D01*
X93220934Y-112254135D01*
X93220711Y-112252188D01*
X93222257Y-112250985D01*
X93326931Y-112235208D01*
X93383342Y-112118070D01*
X93337424Y-112038539D01*
X93337415Y-112036554D01*
X93339121Y-112035539D01*
X93340861Y-112036494D01*
G37*
G36*
X63182572Y-111996573D02*
G01*
X63182563Y-111998558D01*
X63136656Y-112078072D01*
X63193066Y-112195210D01*
X63297738Y-112210987D01*
X63299284Y-112212190D01*
X63299061Y-112214137D01*
X63297283Y-112214959D01*
X63120000Y-112201007D01*
X63033027Y-112207852D01*
X63031571Y-112207379D01*
X63030876Y-112206015D01*
X63031349Y-112204559D01*
X63103163Y-112120474D01*
X63179126Y-111996513D01*
X63180866Y-111995558D01*
X63182572Y-111996573D01*
G37*
G36*
X55440861Y-111996495D02*
G01*
X55516836Y-112120474D01*
X55588650Y-112204558D01*
X55589123Y-112206014D01*
X55588428Y-112207378D01*
X55586972Y-112207851D01*
X55499999Y-112201006D01*
X55322712Y-112214958D01*
X55320934Y-112214136D01*
X55320711Y-112212189D01*
X55322257Y-112210986D01*
X55426931Y-112195209D01*
X55483342Y-112078071D01*
X55437424Y-111998540D01*
X55437415Y-111996555D01*
X55439121Y-111995540D01*
X55440861Y-111996495D01*
G37*
G36*
X83890388Y-111498871D02*
G01*
X83891000Y-111500311D01*
X83891000Y-111579689D01*
X83890388Y-111581129D01*
X83888925Y-111581688D01*
X83648509Y-111572691D01*
X83647090Y-111572022D01*
X83646590Y-111570535D01*
X83648993Y-111539999D01*
X83646590Y-111509464D01*
X83647090Y-111507977D01*
X83648509Y-111507308D01*
X83888925Y-111498312D01*
X83890388Y-111498871D01*
G37*
G36*
X80829999Y-110548993D02*
G01*
X80916972Y-110542148D01*
X80918428Y-110542621D01*
X80919123Y-110543985D01*
X80918650Y-110545441D01*
X80846836Y-110629526D01*
X80770844Y-110753534D01*
X80769104Y-110754489D01*
X80767398Y-110753474D01*
X80767407Y-110751489D01*
X80813342Y-110671926D01*
X80756931Y-110554788D01*
X80652280Y-110539014D01*
X80650734Y-110537811D01*
X80650957Y-110535864D01*
X80652735Y-110535042D01*
X80829999Y-110548993D01*
G37*
G36*
X75929040Y-110535865D02*
G01*
X75929263Y-110537812D01*
X75927717Y-110539015D01*
X75823067Y-110554788D01*
X75766656Y-110671927D01*
X75812568Y-110751448D01*
X75812577Y-110753433D01*
X75810871Y-110754448D01*
X75809131Y-110753493D01*
X75733163Y-110629525D01*
X75661349Y-110545441D01*
X75660876Y-110543985D01*
X75661571Y-110542621D01*
X75663027Y-110542148D01*
X75750000Y-110548993D01*
X75927262Y-110535043D01*
X75929040Y-110535865D01*
G37*
G36*
X73842882Y-109867195D02*
G01*
X73842166Y-109869001D01*
X73764771Y-109932389D01*
X73860542Y-110110776D01*
X73955472Y-110081494D01*
X73957376Y-110081897D01*
X73958036Y-110083728D01*
X73956827Y-110085253D01*
X73776769Y-110159836D01*
X73569526Y-110286835D01*
X73418685Y-110415664D01*
X73417044Y-110416114D01*
X73415651Y-110415138D01*
X73318437Y-110245650D01*
X73240511Y-110269200D01*
X73238662Y-110268831D01*
X73237942Y-110267088D01*
X73238991Y-110265521D01*
X73245001Y-110262316D01*
X73839790Y-109865790D01*
X73841726Y-109865633D01*
X73842882Y-109867195D01*
G37*
G36*
X82162572Y-109786572D02*
G01*
X82162563Y-109788557D01*
X82116656Y-109868071D01*
X82173066Y-109985209D01*
X82277738Y-110000986D01*
X82279284Y-110002189D01*
X82279061Y-110004136D01*
X82277283Y-110004958D01*
X82100000Y-109991006D01*
X82013027Y-109997851D01*
X82011571Y-109997378D01*
X82010876Y-109996014D01*
X82011349Y-109994558D01*
X82083163Y-109910473D01*
X82159126Y-109786512D01*
X82160866Y-109785557D01*
X82162572Y-109786572D01*
G37*
G36*
X74420861Y-109786494D02*
G01*
X74496836Y-109910473D01*
X74568650Y-109994557D01*
X74569123Y-109996013D01*
X74568428Y-109997377D01*
X74566972Y-109997850D01*
X74479999Y-109991005D01*
X74302712Y-110004957D01*
X74300934Y-110004135D01*
X74300711Y-110002188D01*
X74302257Y-110000985D01*
X74406931Y-109985208D01*
X74463342Y-109868070D01*
X74417424Y-109788539D01*
X74417415Y-109786554D01*
X74419121Y-109785539D01*
X74420861Y-109786494D01*
G37*
G36*
X45732388Y-99518871D02*
G01*
X45733000Y-99520311D01*
X45733000Y-99599689D01*
X45732388Y-99601129D01*
X45730925Y-99601688D01*
X45490509Y-99592691D01*
X45489090Y-99592022D01*
X45488590Y-99590535D01*
X45490993Y-99559999D01*
X45488590Y-99529464D01*
X45489090Y-99527977D01*
X45490509Y-99527308D01*
X45730925Y-99518312D01*
X45732388Y-99518871D01*
G37*
G36*
X42671999Y-98568993D02*
G01*
X42758972Y-98562148D01*
X42760428Y-98562621D01*
X42761123Y-98563985D01*
X42760650Y-98565441D01*
X42688836Y-98649526D01*
X42612844Y-98773534D01*
X42611104Y-98774489D01*
X42609398Y-98773474D01*
X42609407Y-98771489D01*
X42655342Y-98691926D01*
X42598931Y-98574788D01*
X42494280Y-98559014D01*
X42492734Y-98557811D01*
X42492957Y-98555864D01*
X42494735Y-98555042D01*
X42671999Y-98568993D01*
G37*
G36*
X37771040Y-98555865D02*
G01*
X37771263Y-98557812D01*
X37769717Y-98559015D01*
X37665067Y-98574788D01*
X37608656Y-98691927D01*
X37654568Y-98771448D01*
X37654577Y-98773433D01*
X37652871Y-98774448D01*
X37651131Y-98773493D01*
X37575163Y-98649525D01*
X37503349Y-98565441D01*
X37502876Y-98563985D01*
X37503571Y-98562621D01*
X37505027Y-98562148D01*
X37592000Y-98568993D01*
X37769262Y-98555043D01*
X37771040Y-98555865D01*
G37*
G36*
X35684882Y-97887195D02*
G01*
X35684166Y-97889001D01*
X35606771Y-97952389D01*
X35702542Y-98130776D01*
X35797472Y-98101494D01*
X35799376Y-98101897D01*
X35800036Y-98103728D01*
X35798827Y-98105253D01*
X35618769Y-98179836D01*
X35411526Y-98306835D01*
X35260685Y-98435664D01*
X35259044Y-98436114D01*
X35257651Y-98435138D01*
X35160437Y-98265650D01*
X35082511Y-98289200D01*
X35080662Y-98288831D01*
X35079942Y-98287088D01*
X35080991Y-98285521D01*
X35087001Y-98282316D01*
X35681790Y-97885790D01*
X35683726Y-97885633D01*
X35684882Y-97887195D01*
G37*
G36*
X44004572Y-97806572D02*
G01*
X44004563Y-97808557D01*
X43958656Y-97888071D01*
X44015066Y-98005209D01*
X44119738Y-98020986D01*
X44121284Y-98022189D01*
X44121061Y-98024136D01*
X44119283Y-98024958D01*
X43942000Y-98011006D01*
X43855027Y-98017851D01*
X43853571Y-98017378D01*
X43852876Y-98016014D01*
X43853349Y-98014558D01*
X43925163Y-97930473D01*
X44001126Y-97806512D01*
X44002866Y-97805557D01*
X44004572Y-97806572D01*
G37*
G36*
X36262861Y-97806494D02*
G01*
X36338836Y-97930473D01*
X36410650Y-98014557D01*
X36411123Y-98016013D01*
X36410428Y-98017377D01*
X36408972Y-98017850D01*
X36321999Y-98011005D01*
X36144712Y-98024957D01*
X36142934Y-98024135D01*
X36142711Y-98022188D01*
X36144257Y-98020985D01*
X36248931Y-98005208D01*
X36305342Y-97888070D01*
X36259424Y-97808539D01*
X36259415Y-97806554D01*
X36261121Y-97805539D01*
X36262861Y-97806494D01*
G37*
G36*
X122060388Y-97498871D02*
G01*
X122061000Y-97500311D01*
X122061000Y-97579689D01*
X122060388Y-97581129D01*
X122058925Y-97581688D01*
X121818509Y-97572691D01*
X121817090Y-97572022D01*
X121816590Y-97570535D01*
X121818993Y-97539999D01*
X121816590Y-97509464D01*
X121817090Y-97507977D01*
X121818509Y-97507308D01*
X122058925Y-97498312D01*
X122060388Y-97498871D01*
G37*
G36*
X118999999Y-96548993D02*
G01*
X119086972Y-96542148D01*
X119088428Y-96542621D01*
X119089123Y-96543985D01*
X119088650Y-96545441D01*
X119016836Y-96629526D01*
X118940844Y-96753534D01*
X118939104Y-96754489D01*
X118937398Y-96753474D01*
X118937407Y-96751489D01*
X118983342Y-96671926D01*
X118926931Y-96554788D01*
X118822280Y-96539014D01*
X118820734Y-96537811D01*
X118820957Y-96535864D01*
X118822735Y-96535042D01*
X118999999Y-96548993D01*
G37*
G36*
X114099040Y-96535865D02*
G01*
X114099263Y-96537812D01*
X114097717Y-96539015D01*
X113993067Y-96554788D01*
X113936656Y-96671927D01*
X113982568Y-96751448D01*
X113982577Y-96753433D01*
X113980871Y-96754448D01*
X113979131Y-96753493D01*
X113903163Y-96629525D01*
X113831349Y-96545441D01*
X113830876Y-96543985D01*
X113831571Y-96542621D01*
X113833027Y-96542148D01*
X113920000Y-96548993D01*
X114097262Y-96535043D01*
X114099040Y-96535865D01*
G37*
G36*
X112012882Y-95867195D02*
G01*
X112012166Y-95869001D01*
X111934771Y-95932389D01*
X112030542Y-96110776D01*
X112125472Y-96081494D01*
X112127376Y-96081897D01*
X112128036Y-96083728D01*
X112126827Y-96085253D01*
X111946769Y-96159836D01*
X111739526Y-96286835D01*
X111588685Y-96415664D01*
X111587044Y-96416114D01*
X111585651Y-96415138D01*
X111488437Y-96245650D01*
X111410511Y-96269200D01*
X111408662Y-96268831D01*
X111407942Y-96267088D01*
X111408991Y-96265521D01*
X111415001Y-96262316D01*
X112009790Y-95865790D01*
X112011726Y-95865633D01*
X112012882Y-95867195D01*
G37*
G36*
X120332572Y-95786572D02*
G01*
X120332563Y-95788557D01*
X120286656Y-95868071D01*
X120343066Y-95985209D01*
X120447738Y-96000986D01*
X120449284Y-96002189D01*
X120449061Y-96004136D01*
X120447283Y-96004958D01*
X120270000Y-95991006D01*
X120183027Y-95997851D01*
X120181571Y-95997378D01*
X120180876Y-95996014D01*
X120181349Y-95994558D01*
X120253163Y-95910473D01*
X120329126Y-95786512D01*
X120330866Y-95785557D01*
X120332572Y-95786572D01*
G37*
G36*
X112590861Y-95786494D02*
G01*
X112666836Y-95910473D01*
X112738650Y-95994557D01*
X112739123Y-95996013D01*
X112738428Y-95997377D01*
X112736972Y-95997850D01*
X112649999Y-95991005D01*
X112472712Y-96004957D01*
X112470934Y-96004135D01*
X112470711Y-96002188D01*
X112472257Y-96000985D01*
X112576931Y-95985208D01*
X112633342Y-95868070D01*
X112587424Y-95788539D01*
X112587415Y-95786554D01*
X112589121Y-95785539D01*
X112590861Y-95786494D01*
G37*
G36*
X64850388Y-94708872D02*
G01*
X64851000Y-94710312D01*
X64851000Y-94789690D01*
X64850388Y-94791130D01*
X64848925Y-94791689D01*
X64608509Y-94782692D01*
X64607090Y-94782023D01*
X64606590Y-94780536D01*
X64608993Y-94750000D01*
X64606590Y-94719465D01*
X64607090Y-94717978D01*
X64608509Y-94717309D01*
X64848925Y-94708313D01*
X64850388Y-94708872D01*
G37*
G36*
X102850388Y-94668871D02*
G01*
X102851000Y-94670311D01*
X102851000Y-94749689D01*
X102850388Y-94751129D01*
X102848925Y-94751688D01*
X102608509Y-94742691D01*
X102607090Y-94742022D01*
X102606590Y-94740535D01*
X102608993Y-94709999D01*
X102606590Y-94679464D01*
X102607090Y-94677977D01*
X102608509Y-94677308D01*
X102848925Y-94668312D01*
X102850388Y-94668871D01*
G37*
G36*
X61789999Y-93758994D02*
G01*
X61876972Y-93752149D01*
X61878428Y-93752622D01*
X61879123Y-93753986D01*
X61878650Y-93755442D01*
X61806836Y-93839527D01*
X61730844Y-93963535D01*
X61729104Y-93964490D01*
X61727398Y-93963475D01*
X61727407Y-93961490D01*
X61773342Y-93881927D01*
X61716931Y-93764789D01*
X61612280Y-93749015D01*
X61610734Y-93747812D01*
X61610957Y-93745865D01*
X61612735Y-93745043D01*
X61789999Y-93758994D01*
G37*
G36*
X56889040Y-93745866D02*
G01*
X56889263Y-93747813D01*
X56887717Y-93749016D01*
X56783067Y-93764789D01*
X56726656Y-93881928D01*
X56772568Y-93961449D01*
X56772577Y-93963434D01*
X56770871Y-93964449D01*
X56769131Y-93963494D01*
X56693163Y-93839526D01*
X56621349Y-93755442D01*
X56620876Y-93753986D01*
X56621571Y-93752622D01*
X56623027Y-93752149D01*
X56710000Y-93758994D01*
X56887262Y-93745044D01*
X56889040Y-93745866D01*
G37*
G36*
X99789999Y-93718993D02*
G01*
X99876972Y-93712148D01*
X99878428Y-93712621D01*
X99879123Y-93713985D01*
X99878650Y-93715441D01*
X99806836Y-93799526D01*
X99730844Y-93923534D01*
X99729104Y-93924489D01*
X99727398Y-93923474D01*
X99727407Y-93921489D01*
X99773342Y-93841926D01*
X99716931Y-93724788D01*
X99612280Y-93709014D01*
X99610734Y-93707811D01*
X99610957Y-93705864D01*
X99612735Y-93705042D01*
X99789999Y-93718993D01*
G37*
G36*
X94889040Y-93705865D02*
G01*
X94889263Y-93707812D01*
X94887717Y-93709015D01*
X94783067Y-93724788D01*
X94726656Y-93841927D01*
X94772568Y-93921448D01*
X94772577Y-93923433D01*
X94770871Y-93924448D01*
X94769131Y-93923493D01*
X94693163Y-93799525D01*
X94621349Y-93715441D01*
X94620876Y-93713985D01*
X94621571Y-93712621D01*
X94623027Y-93712148D01*
X94710000Y-93718993D01*
X94887262Y-93705043D01*
X94889040Y-93705865D01*
G37*
G36*
X54802882Y-93077196D02*
G01*
X54802166Y-93079002D01*
X54724771Y-93142390D01*
X54820542Y-93320777D01*
X54915472Y-93291495D01*
X54917376Y-93291898D01*
X54918036Y-93293729D01*
X54916827Y-93295254D01*
X54736769Y-93369837D01*
X54529526Y-93496836D01*
X54378685Y-93625665D01*
X54377044Y-93626115D01*
X54375651Y-93625139D01*
X54278437Y-93455651D01*
X54200511Y-93479201D01*
X54198662Y-93478832D01*
X54197942Y-93477089D01*
X54198991Y-93475522D01*
X54205001Y-93472317D01*
X54799790Y-93075791D01*
X54801726Y-93075634D01*
X54802882Y-93077196D01*
G37*
G36*
X92802882Y-93037195D02*
G01*
X92802166Y-93039001D01*
X92724771Y-93102389D01*
X92820542Y-93280776D01*
X92915472Y-93251494D01*
X92917376Y-93251897D01*
X92918036Y-93253728D01*
X92916827Y-93255253D01*
X92736769Y-93329836D01*
X92529526Y-93456835D01*
X92378685Y-93585664D01*
X92377044Y-93586114D01*
X92375651Y-93585138D01*
X92278437Y-93415650D01*
X92200511Y-93439200D01*
X92198662Y-93438831D01*
X92197942Y-93437088D01*
X92198991Y-93435521D01*
X92205001Y-93432316D01*
X92799790Y-93035790D01*
X92801726Y-93035633D01*
X92802882Y-93037195D01*
G37*
G36*
X63122572Y-92996573D02*
G01*
X63122563Y-92998558D01*
X63076656Y-93078072D01*
X63133066Y-93195210D01*
X63237738Y-93210987D01*
X63239284Y-93212190D01*
X63239061Y-93214137D01*
X63237283Y-93214959D01*
X63060000Y-93201007D01*
X62973027Y-93207852D01*
X62971571Y-93207379D01*
X62970876Y-93206015D01*
X62971349Y-93204559D01*
X63043163Y-93120474D01*
X63119126Y-92996513D01*
X63120866Y-92995558D01*
X63122572Y-92996573D01*
G37*
G36*
X55380861Y-92996495D02*
G01*
X55456836Y-93120474D01*
X55528650Y-93204558D01*
X55529123Y-93206014D01*
X55528428Y-93207378D01*
X55526972Y-93207851D01*
X55439999Y-93201006D01*
X55262712Y-93214958D01*
X55260934Y-93214136D01*
X55260711Y-93212189D01*
X55262257Y-93210986D01*
X55366931Y-93195209D01*
X55423342Y-93078071D01*
X55377424Y-92998540D01*
X55377415Y-92996555D01*
X55379121Y-92995540D01*
X55380861Y-92996495D01*
G37*
G36*
X101122572Y-92956572D02*
G01*
X101122563Y-92958557D01*
X101076656Y-93038071D01*
X101133066Y-93155209D01*
X101237738Y-93170986D01*
X101239284Y-93172189D01*
X101239061Y-93174136D01*
X101237283Y-93174958D01*
X101060000Y-93161006D01*
X100973027Y-93167851D01*
X100971571Y-93167378D01*
X100970876Y-93166014D01*
X100971349Y-93164558D01*
X101043163Y-93080473D01*
X101119126Y-92956512D01*
X101120866Y-92955557D01*
X101122572Y-92956572D01*
G37*
G36*
X93380861Y-92956494D02*
G01*
X93456836Y-93080473D01*
X93528650Y-93164557D01*
X93529123Y-93166013D01*
X93528428Y-93167377D01*
X93526972Y-93167850D01*
X93439999Y-93161005D01*
X93262712Y-93174957D01*
X93260934Y-93174135D01*
X93260711Y-93172188D01*
X93262257Y-93170985D01*
X93366931Y-93155208D01*
X93423342Y-93038070D01*
X93377424Y-92958539D01*
X93377415Y-92956554D01*
X93379121Y-92955539D01*
X93380861Y-92956494D01*
G37*
G36*
X83850388Y-92418871D02*
G01*
X83851000Y-92420311D01*
X83851000Y-92499689D01*
X83850388Y-92501129D01*
X83848925Y-92501688D01*
X83608509Y-92492691D01*
X83607090Y-92492022D01*
X83606590Y-92490535D01*
X83608993Y-92459999D01*
X83606590Y-92429464D01*
X83607090Y-92427977D01*
X83608509Y-92427308D01*
X83848925Y-92418312D01*
X83850388Y-92418871D01*
G37*
G36*
X80789999Y-91468993D02*
G01*
X80876972Y-91462148D01*
X80878428Y-91462621D01*
X80879123Y-91463985D01*
X80878650Y-91465441D01*
X80806836Y-91549526D01*
X80730844Y-91673534D01*
X80729104Y-91674489D01*
X80727398Y-91673474D01*
X80727407Y-91671489D01*
X80773342Y-91591926D01*
X80716931Y-91474788D01*
X80612280Y-91459014D01*
X80610734Y-91457811D01*
X80610957Y-91455864D01*
X80612735Y-91455042D01*
X80789999Y-91468993D01*
G37*
G36*
X75889040Y-91455865D02*
G01*
X75889263Y-91457812D01*
X75887717Y-91459015D01*
X75783067Y-91474788D01*
X75726656Y-91591927D01*
X75772568Y-91671448D01*
X75772577Y-91673433D01*
X75770871Y-91674448D01*
X75769131Y-91673493D01*
X75693163Y-91549525D01*
X75621349Y-91465441D01*
X75620876Y-91463985D01*
X75621571Y-91462621D01*
X75623027Y-91462148D01*
X75710000Y-91468993D01*
X75887262Y-91455043D01*
X75889040Y-91455865D01*
G37*
G36*
X73802882Y-90787195D02*
G01*
X73802166Y-90789001D01*
X73724771Y-90852389D01*
X73820542Y-91030776D01*
X73915472Y-91001494D01*
X73917376Y-91001897D01*
X73918036Y-91003728D01*
X73916827Y-91005253D01*
X73736769Y-91079836D01*
X73529526Y-91206835D01*
X73378685Y-91335664D01*
X73377044Y-91336114D01*
X73375651Y-91335138D01*
X73278437Y-91165650D01*
X73200511Y-91189200D01*
X73198662Y-91188831D01*
X73197942Y-91187088D01*
X73198991Y-91185521D01*
X73205001Y-91182316D01*
X73799790Y-90785790D01*
X73801726Y-90785633D01*
X73802882Y-90787195D01*
G37*
G36*
X82122572Y-90706572D02*
G01*
X82122563Y-90708557D01*
X82076656Y-90788071D01*
X82133066Y-90905209D01*
X82237738Y-90920986D01*
X82239284Y-90922189D01*
X82239061Y-90924136D01*
X82237283Y-90924958D01*
X82060000Y-90911006D01*
X81973027Y-90917851D01*
X81971571Y-90917378D01*
X81970876Y-90916014D01*
X81971349Y-90914558D01*
X82043163Y-90830473D01*
X82119126Y-90706512D01*
X82120866Y-90705557D01*
X82122572Y-90706572D01*
G37*
G36*
X74380861Y-90706494D02*
G01*
X74456836Y-90830473D01*
X74528650Y-90914557D01*
X74529123Y-90916013D01*
X74528428Y-90917377D01*
X74526972Y-90917850D01*
X74439999Y-90911005D01*
X74262712Y-90924957D01*
X74260934Y-90924135D01*
X74260711Y-90922188D01*
X74262257Y-90920985D01*
X74366931Y-90905208D01*
X74423342Y-90788070D01*
X74377424Y-90708539D01*
X74377415Y-90706554D01*
X74379121Y-90705539D01*
X74380861Y-90706494D01*
G37*
G36*
X45732388Y-80540371D02*
G01*
X45733000Y-80541811D01*
X45733000Y-80621189D01*
X45732388Y-80622629D01*
X45730925Y-80623188D01*
X45490509Y-80614191D01*
X45489090Y-80613522D01*
X45488590Y-80612035D01*
X45490993Y-80581499D01*
X45488590Y-80550964D01*
X45489090Y-80549477D01*
X45490509Y-80548808D01*
X45730925Y-80539812D01*
X45732388Y-80540371D01*
G37*
G36*
X42671999Y-79590493D02*
G01*
X42758972Y-79583648D01*
X42760428Y-79584121D01*
X42761123Y-79585485D01*
X42760650Y-79586941D01*
X42688836Y-79671026D01*
X42612844Y-79795034D01*
X42611104Y-79795989D01*
X42609398Y-79794974D01*
X42609407Y-79792989D01*
X42655342Y-79713426D01*
X42598931Y-79596288D01*
X42494280Y-79580514D01*
X42492734Y-79579311D01*
X42492957Y-79577364D01*
X42494735Y-79576542D01*
X42671999Y-79590493D01*
G37*
G36*
X37771040Y-79577365D02*
G01*
X37771263Y-79579312D01*
X37769717Y-79580515D01*
X37665067Y-79596288D01*
X37608656Y-79713427D01*
X37654568Y-79792948D01*
X37654577Y-79794933D01*
X37652871Y-79795948D01*
X37651131Y-79794993D01*
X37575163Y-79671025D01*
X37503349Y-79586941D01*
X37502876Y-79585485D01*
X37503571Y-79584121D01*
X37505027Y-79583648D01*
X37592000Y-79590493D01*
X37769262Y-79576543D01*
X37771040Y-79577365D01*
G37*
G36*
X35684882Y-78908695D02*
G01*
X35684166Y-78910501D01*
X35606771Y-78973889D01*
X35702542Y-79152276D01*
X35797472Y-79122994D01*
X35799376Y-79123397D01*
X35800036Y-79125228D01*
X35798827Y-79126753D01*
X35618769Y-79201336D01*
X35411526Y-79328335D01*
X35260685Y-79457164D01*
X35259044Y-79457614D01*
X35257651Y-79456638D01*
X35160437Y-79287150D01*
X35082511Y-79310700D01*
X35080662Y-79310331D01*
X35079942Y-79308588D01*
X35080991Y-79307021D01*
X35087001Y-79303816D01*
X35681790Y-78907290D01*
X35683726Y-78907133D01*
X35684882Y-78908695D01*
G37*
G36*
X44004572Y-78828072D02*
G01*
X44004563Y-78830057D01*
X43958656Y-78909571D01*
X44015066Y-79026709D01*
X44119738Y-79042486D01*
X44121284Y-79043689D01*
X44121061Y-79045636D01*
X44119283Y-79046458D01*
X43942000Y-79032506D01*
X43855027Y-79039351D01*
X43853571Y-79038878D01*
X43852876Y-79037514D01*
X43853349Y-79036058D01*
X43925163Y-78951973D01*
X44001126Y-78828012D01*
X44002866Y-78827057D01*
X44004572Y-78828072D01*
G37*
G36*
X36262861Y-78827994D02*
G01*
X36338836Y-78951973D01*
X36410650Y-79036057D01*
X36411123Y-79037513D01*
X36410428Y-79038877D01*
X36408972Y-79039350D01*
X36321999Y-79032505D01*
X36144712Y-79046457D01*
X36142934Y-79045635D01*
X36142711Y-79043688D01*
X36144257Y-79042485D01*
X36248931Y-79026708D01*
X36305342Y-78909570D01*
X36259424Y-78830039D01*
X36259415Y-78828054D01*
X36261121Y-78827039D01*
X36262861Y-78827994D01*
G37*
G36*
X122060388Y-78498871D02*
G01*
X122061000Y-78500311D01*
X122061000Y-78579689D01*
X122060388Y-78581129D01*
X122058925Y-78581688D01*
X121818509Y-78572691D01*
X121817090Y-78572022D01*
X121816590Y-78570535D01*
X121818993Y-78539999D01*
X121816590Y-78509464D01*
X121817090Y-78507977D01*
X121818509Y-78507308D01*
X122058925Y-78498312D01*
X122060388Y-78498871D01*
G37*
G36*
X118999999Y-77548993D02*
G01*
X119086972Y-77542148D01*
X119088428Y-77542621D01*
X119089123Y-77543985D01*
X119088650Y-77545441D01*
X119016836Y-77629526D01*
X118940844Y-77753534D01*
X118939104Y-77754489D01*
X118937398Y-77753474D01*
X118937407Y-77751489D01*
X118983342Y-77671926D01*
X118926931Y-77554788D01*
X118822280Y-77539014D01*
X118820734Y-77537811D01*
X118820957Y-77535864D01*
X118822735Y-77535042D01*
X118999999Y-77548993D01*
G37*
G36*
X114099040Y-77535865D02*
G01*
X114099263Y-77537812D01*
X114097717Y-77539015D01*
X113993067Y-77554788D01*
X113936656Y-77671927D01*
X113982568Y-77751448D01*
X113982577Y-77753433D01*
X113980871Y-77754448D01*
X113979131Y-77753493D01*
X113903163Y-77629525D01*
X113831349Y-77545441D01*
X113830876Y-77543985D01*
X113831571Y-77542621D01*
X113833027Y-77542148D01*
X113920000Y-77548993D01*
X114097262Y-77535043D01*
X114099040Y-77535865D01*
G37*
G36*
X112012882Y-76867195D02*
G01*
X112012166Y-76869001D01*
X111934771Y-76932389D01*
X112030542Y-77110776D01*
X112125472Y-77081494D01*
X112127376Y-77081897D01*
X112128036Y-77083728D01*
X112126827Y-77085253D01*
X111946769Y-77159836D01*
X111739526Y-77286835D01*
X111588685Y-77415664D01*
X111587044Y-77416114D01*
X111585651Y-77415138D01*
X111488437Y-77245650D01*
X111410511Y-77269200D01*
X111408662Y-77268831D01*
X111407942Y-77267088D01*
X111408991Y-77265521D01*
X111415001Y-77262316D01*
X112009790Y-76865790D01*
X112011726Y-76865633D01*
X112012882Y-76867195D01*
G37*
G36*
X120332572Y-76786572D02*
G01*
X120332563Y-76788557D01*
X120286656Y-76868071D01*
X120343066Y-76985209D01*
X120447738Y-77000986D01*
X120449284Y-77002189D01*
X120449061Y-77004136D01*
X120447283Y-77004958D01*
X120270000Y-76991006D01*
X120183027Y-76997851D01*
X120181571Y-76997378D01*
X120180876Y-76996014D01*
X120181349Y-76994558D01*
X120253163Y-76910473D01*
X120329126Y-76786512D01*
X120330866Y-76785557D01*
X120332572Y-76786572D01*
G37*
G36*
X112590861Y-76786494D02*
G01*
X112666836Y-76910473D01*
X112738650Y-76994557D01*
X112739123Y-76996013D01*
X112738428Y-76997377D01*
X112736972Y-76997850D01*
X112649999Y-76991005D01*
X112472712Y-77004957D01*
X112470934Y-77004135D01*
X112470711Y-77002188D01*
X112472257Y-77000985D01*
X112576931Y-76985208D01*
X112633342Y-76868070D01*
X112587424Y-76788539D01*
X112587415Y-76786554D01*
X112589121Y-76785539D01*
X112590861Y-76786494D01*
G37*
G36*
X102890388Y-75777871D02*
G01*
X102891000Y-75779311D01*
X102891000Y-75858689D01*
X102890388Y-75860129D01*
X102888925Y-75860688D01*
X102648509Y-75851691D01*
X102647090Y-75851022D01*
X102646590Y-75849535D01*
X102648993Y-75818999D01*
X102646590Y-75788464D01*
X102647090Y-75786977D01*
X102648509Y-75786308D01*
X102888925Y-75777312D01*
X102890388Y-75777871D01*
G37*
G36*
X64800388Y-75768871D02*
G01*
X64801000Y-75770311D01*
X64801000Y-75849689D01*
X64800388Y-75851129D01*
X64798925Y-75851688D01*
X64558509Y-75842691D01*
X64557090Y-75842022D01*
X64556590Y-75840535D01*
X64558993Y-75809999D01*
X64556590Y-75779464D01*
X64557090Y-75777977D01*
X64558509Y-75777308D01*
X64798925Y-75768312D01*
X64800388Y-75768871D01*
G37*
G36*
X99829999Y-74827993D02*
G01*
X99916972Y-74821148D01*
X99918428Y-74821621D01*
X99919123Y-74822985D01*
X99918650Y-74824441D01*
X99846836Y-74908526D01*
X99770844Y-75032534D01*
X99769104Y-75033489D01*
X99767398Y-75032474D01*
X99767407Y-75030489D01*
X99813342Y-74950926D01*
X99756931Y-74833788D01*
X99652280Y-74818014D01*
X99650734Y-74816811D01*
X99650957Y-74814864D01*
X99652735Y-74814042D01*
X99829999Y-74827993D01*
G37*
G36*
X94929040Y-74814865D02*
G01*
X94929263Y-74816812D01*
X94927717Y-74818015D01*
X94823067Y-74833788D01*
X94766656Y-74950927D01*
X94812568Y-75030448D01*
X94812577Y-75032433D01*
X94810871Y-75033448D01*
X94809131Y-75032493D01*
X94733163Y-74908525D01*
X94661349Y-74824441D01*
X94660876Y-74822985D01*
X94661571Y-74821621D01*
X94663027Y-74821148D01*
X94750000Y-74827993D01*
X94927262Y-74814043D01*
X94929040Y-74814865D01*
G37*
G36*
X61739999Y-74818993D02*
G01*
X61826972Y-74812148D01*
X61828428Y-74812621D01*
X61829123Y-74813985D01*
X61828650Y-74815441D01*
X61756836Y-74899526D01*
X61680844Y-75023534D01*
X61679104Y-75024489D01*
X61677398Y-75023474D01*
X61677407Y-75021489D01*
X61723342Y-74941926D01*
X61666931Y-74824788D01*
X61562280Y-74809014D01*
X61560734Y-74807811D01*
X61560957Y-74805864D01*
X61562735Y-74805042D01*
X61739999Y-74818993D01*
G37*
G36*
X56839040Y-74805865D02*
G01*
X56839263Y-74807812D01*
X56837717Y-74809015D01*
X56733067Y-74824788D01*
X56676656Y-74941927D01*
X56722568Y-75021448D01*
X56722577Y-75023433D01*
X56720871Y-75024448D01*
X56719131Y-75023493D01*
X56643163Y-74899525D01*
X56571349Y-74815441D01*
X56570876Y-74813985D01*
X56571571Y-74812621D01*
X56573027Y-74812148D01*
X56660000Y-74818993D01*
X56837262Y-74805043D01*
X56839040Y-74805865D01*
G37*
G36*
X92842882Y-74146195D02*
G01*
X92842166Y-74148001D01*
X92764771Y-74211389D01*
X92860542Y-74389776D01*
X92955472Y-74360494D01*
X92957376Y-74360897D01*
X92958036Y-74362728D01*
X92956827Y-74364253D01*
X92776769Y-74438836D01*
X92569526Y-74565835D01*
X92418685Y-74694664D01*
X92417044Y-74695114D01*
X92415651Y-74694138D01*
X92318437Y-74524650D01*
X92240511Y-74548200D01*
X92238662Y-74547831D01*
X92237942Y-74546088D01*
X92238991Y-74544521D01*
X92245001Y-74541316D01*
X92839790Y-74144790D01*
X92841726Y-74144633D01*
X92842882Y-74146195D01*
G37*
G36*
X54752882Y-74137195D02*
G01*
X54752166Y-74139001D01*
X54674771Y-74202389D01*
X54770542Y-74380776D01*
X54865472Y-74351494D01*
X54867376Y-74351897D01*
X54868036Y-74353728D01*
X54866827Y-74355253D01*
X54686769Y-74429836D01*
X54479526Y-74556835D01*
X54328685Y-74685664D01*
X54327044Y-74686114D01*
X54325651Y-74685138D01*
X54228437Y-74515650D01*
X54150511Y-74539200D01*
X54148662Y-74538831D01*
X54147942Y-74537088D01*
X54148991Y-74535521D01*
X54155001Y-74532316D01*
X54749790Y-74135790D01*
X54751726Y-74135633D01*
X54752882Y-74137195D01*
G37*
G36*
X101162572Y-74065572D02*
G01*
X101162563Y-74067557D01*
X101116656Y-74147071D01*
X101173066Y-74264209D01*
X101277738Y-74279986D01*
X101279284Y-74281189D01*
X101279061Y-74283136D01*
X101277283Y-74283958D01*
X101100000Y-74270006D01*
X101013027Y-74276851D01*
X101011571Y-74276378D01*
X101010876Y-74275014D01*
X101011349Y-74273558D01*
X101083163Y-74189473D01*
X101159126Y-74065512D01*
X101160866Y-74064557D01*
X101162572Y-74065572D01*
G37*
G36*
X93420861Y-74065494D02*
G01*
X93496836Y-74189473D01*
X93568650Y-74273557D01*
X93569123Y-74275013D01*
X93568428Y-74276377D01*
X93566972Y-74276850D01*
X93479999Y-74270005D01*
X93302712Y-74283957D01*
X93300934Y-74283135D01*
X93300711Y-74281188D01*
X93302257Y-74279985D01*
X93406931Y-74264208D01*
X93463342Y-74147070D01*
X93417424Y-74067539D01*
X93417415Y-74065554D01*
X93419121Y-74064539D01*
X93420861Y-74065494D01*
G37*
G36*
X63072572Y-74056572D02*
G01*
X63072563Y-74058557D01*
X63026656Y-74138071D01*
X63083066Y-74255209D01*
X63187738Y-74270986D01*
X63189284Y-74272189D01*
X63189061Y-74274136D01*
X63187283Y-74274958D01*
X63010000Y-74261006D01*
X62923027Y-74267851D01*
X62921571Y-74267378D01*
X62920876Y-74266014D01*
X62921349Y-74264558D01*
X62993163Y-74180473D01*
X63069126Y-74056512D01*
X63070866Y-74055557D01*
X63072572Y-74056572D01*
G37*
G36*
X55330861Y-74056494D02*
G01*
X55406836Y-74180473D01*
X55478650Y-74264557D01*
X55479123Y-74266013D01*
X55478428Y-74267377D01*
X55476972Y-74267850D01*
X55389999Y-74261005D01*
X55212712Y-74274957D01*
X55210934Y-74274135D01*
X55210711Y-74272188D01*
X55212257Y-74270985D01*
X55316931Y-74255208D01*
X55373342Y-74138070D01*
X55327424Y-74058539D01*
X55327415Y-74056554D01*
X55329121Y-74055539D01*
X55330861Y-74056494D01*
G37*
G36*
X83800388Y-73518871D02*
G01*
X83801000Y-73520311D01*
X83801000Y-73599689D01*
X83800388Y-73601129D01*
X83798925Y-73601688D01*
X83558509Y-73592691D01*
X83557090Y-73592022D01*
X83556590Y-73590535D01*
X83558993Y-73559999D01*
X83556590Y-73529464D01*
X83557090Y-73527977D01*
X83558509Y-73527308D01*
X83798925Y-73518312D01*
X83800388Y-73518871D01*
G37*
G36*
X80739999Y-72568993D02*
G01*
X80826972Y-72562148D01*
X80828428Y-72562621D01*
X80829123Y-72563985D01*
X80828650Y-72565441D01*
X80756836Y-72649526D01*
X80680844Y-72773534D01*
X80679104Y-72774489D01*
X80677398Y-72773474D01*
X80677407Y-72771489D01*
X80723342Y-72691926D01*
X80666931Y-72574788D01*
X80562280Y-72559014D01*
X80560734Y-72557811D01*
X80560957Y-72555864D01*
X80562735Y-72555042D01*
X80739999Y-72568993D01*
G37*
G36*
X75839040Y-72555865D02*
G01*
X75839263Y-72557812D01*
X75837717Y-72559015D01*
X75733067Y-72574788D01*
X75676656Y-72691927D01*
X75722568Y-72771448D01*
X75722577Y-72773433D01*
X75720871Y-72774448D01*
X75719131Y-72773493D01*
X75643163Y-72649525D01*
X75571349Y-72565441D01*
X75570876Y-72563985D01*
X75571571Y-72562621D01*
X75573027Y-72562148D01*
X75660000Y-72568993D01*
X75837262Y-72555043D01*
X75839040Y-72555865D01*
G37*
G36*
X73752882Y-71887195D02*
G01*
X73752166Y-71889001D01*
X73674771Y-71952389D01*
X73770542Y-72130776D01*
X73865472Y-72101494D01*
X73867376Y-72101897D01*
X73868036Y-72103728D01*
X73866827Y-72105253D01*
X73686769Y-72179836D01*
X73479526Y-72306835D01*
X73328685Y-72435664D01*
X73327044Y-72436114D01*
X73325651Y-72435138D01*
X73228437Y-72265650D01*
X73150511Y-72289200D01*
X73148662Y-72288831D01*
X73147942Y-72287088D01*
X73148991Y-72285521D01*
X73155001Y-72282316D01*
X73749790Y-71885790D01*
X73751726Y-71885633D01*
X73752882Y-71887195D01*
G37*
G36*
X82072572Y-71806572D02*
G01*
X82072563Y-71808557D01*
X82026656Y-71888071D01*
X82083066Y-72005209D01*
X82187738Y-72020986D01*
X82189284Y-72022189D01*
X82189061Y-72024136D01*
X82187283Y-72024958D01*
X82010000Y-72011006D01*
X81923027Y-72017851D01*
X81921571Y-72017378D01*
X81920876Y-72016014D01*
X81921349Y-72014558D01*
X81993163Y-71930473D01*
X82069126Y-71806512D01*
X82070866Y-71805557D01*
X82072572Y-71806572D01*
G37*
G36*
X74330861Y-71806494D02*
G01*
X74406836Y-71930473D01*
X74478650Y-72014557D01*
X74479123Y-72016013D01*
X74478428Y-72017377D01*
X74476972Y-72017850D01*
X74389999Y-72011005D01*
X74212712Y-72024957D01*
X74210934Y-72024135D01*
X74210711Y-72022188D01*
X74212257Y-72020985D01*
X74316931Y-72005208D01*
X74373342Y-71888070D01*
X74327424Y-71808539D01*
X74327415Y-71806554D01*
X74329121Y-71805539D01*
X74330861Y-71806494D01*
G37*
M02*
