%TF.GenerationSoftware,KiCad,Pcbnew,7.0.1*%
%TF.CreationDate,2024-09-03T13:38:47+07:00*%
%TF.ProjectId,minikeeb,6d696e69-6b65-4656-922e-6b696361645f,rev?*%
%TF.SameCoordinates,Original*%
%TF.FileFunction,Drillmap*%
%TF.FilePolarity,Positive*%
%FSLAX45Y45*%
G04 Gerber Fmt 4.5, Leading zero omitted, Abs format (unit mm)*
G04 Created by KiCad (PCBNEW 7.0.1) date 2024-09-03 13:38:47*
%MOMM*%
%LPD*%
G01*
G04 APERTURE LIST*
%ADD10C,0.050000*%
%ADD11C,0.200000*%
%ADD12C,0.120000*%
%ADD13C,0.170000*%
%ADD14C,0.300000*%
%ADD15C,0.400000*%
G04 APERTURE END LIST*
D10*
X3291178Y-14969000D02*
G75*
G03*
X3291178Y-14969000I-101178J0D01*
G01*
X11917178Y-10611000D02*
G75*
G03*
X11917178Y-10611000I-101178J0D01*
G01*
X6723178Y-7033000D02*
G75*
G03*
X6723178Y-7033000I-101178J0D01*
G01*
X10548178Y-7130000D02*
G75*
G03*
X10548178Y-7130000I-101178J0D01*
G01*
X3348178Y-8936000D02*
G75*
G03*
X3348178Y-8936000I-101178J0D01*
G01*
X4547178Y-12465000D02*
G75*
G03*
X4547178Y-12465000I-101178J0D01*
G01*
X12327178Y-13594000D02*
G75*
G03*
X12327178Y-13594000I-101178J0D01*
G01*
X10918178Y-15178000D02*
G75*
G03*
X10918178Y-15178000I-101178J0D01*
G01*
D11*
X12618742Y-12473925D02*
X12618742Y-13280301D01*
X12361741Y-12323925D02*
X12468742Y-12323925D01*
X3117777Y-7429158D02*
G75*
G03*
X3011741Y-7572572I43963J-143412D01*
G01*
X12211744Y-7340576D02*
G75*
G03*
X12098173Y-7195068I-150004J-4D01*
G01*
X3011741Y-13469000D02*
X3011741Y-13469000D01*
X3011741Y-13469000D02*
X3011741Y-13469000D01*
X3011741Y-13091550D02*
X3011741Y-7572572D01*
X12098173Y-7195068D02*
G75*
G03*
X3117777Y-7429159I-4069566J-16253644D01*
G01*
X12211741Y-7340576D02*
X12211741Y-12173925D01*
X3011510Y-13344002D02*
X3011741Y-13091550D01*
X8844000Y-15144000D02*
X3160000Y-15148000D01*
X11975380Y-15791292D02*
X8882823Y-15149111D01*
X12618741Y-13280301D02*
G75*
G03*
X12634566Y-13347359I149999J1D01*
G01*
X12211735Y-12173925D02*
G75*
G03*
X12361741Y-12323925I150005J5D01*
G01*
X8882823Y-15149111D02*
G75*
G03*
X8844000Y-15144000I-38823J-144899D01*
G01*
X12976771Y-14175412D02*
G75*
G03*
X12979122Y-14036779I-131831J71572D01*
G01*
X12618735Y-12473925D02*
G75*
G03*
X12468742Y-12323925I-149995J5D01*
G01*
X3010000Y-14998000D02*
G75*
G03*
X3160000Y-15148000I150000J0D01*
G01*
X12634566Y-13347359D02*
X12979122Y-14036779D01*
X12976768Y-14175411D02*
X12146025Y-15717977D01*
X11975380Y-15791294D02*
G75*
G03*
X12146025Y-15717977I38820J144894D01*
G01*
X3010000Y-14998000D02*
X3011510Y-13344002D01*
D12*
X11697000Y-12694000D02*
X11817000Y-12814000D01*
X11817000Y-12694000D02*
X11697000Y-12814000D01*
X11697000Y-12869000D02*
X11817000Y-12989000D01*
X11817000Y-12869000D02*
X11697000Y-12989000D01*
X12397000Y-12694000D02*
X12517000Y-12814000D01*
X12517000Y-12694000D02*
X12397000Y-12814000D01*
X12397000Y-12869000D02*
X12517000Y-12989000D01*
X12517000Y-12869000D02*
X12397000Y-12989000D01*
D13*
X3590200Y-8312150D02*
G75*
G03*
X3590200Y-8312150I-85000J0D01*
G01*
X3590200Y-10007600D02*
G75*
G03*
X3590200Y-10007600I-85000J0D01*
G01*
X3590200Y-11709400D02*
G75*
G03*
X3590200Y-11709400I-85000J0D01*
G01*
X4606200Y-8312150D02*
G75*
G03*
X4606200Y-8312150I-85000J0D01*
G01*
X4606200Y-10007600D02*
G75*
G03*
X4606200Y-10007600I-85000J0D01*
G01*
X4606200Y-11709400D02*
G75*
G03*
X4606200Y-11709400I-85000J0D01*
G01*
X5393600Y-7835900D02*
G75*
G03*
X5393600Y-7835900I-85000J0D01*
G01*
X5393600Y-9531350D02*
G75*
G03*
X5393600Y-9531350I-85000J0D01*
G01*
X5393600Y-11233150D02*
G75*
G03*
X5393600Y-11233150I-85000J0D01*
G01*
X6409600Y-7835900D02*
G75*
G03*
X6409600Y-7835900I-85000J0D01*
G01*
X6409600Y-9531350D02*
G75*
G03*
X6409600Y-9531350I-85000J0D01*
G01*
X6409600Y-11233150D02*
G75*
G03*
X6409600Y-11233150I-85000J0D01*
G01*
X7064000Y-13782000D02*
G75*
G03*
X7064000Y-13782000I-85000J0D01*
G01*
X7190650Y-7594600D02*
G75*
G03*
X7190650Y-7594600I-85000J0D01*
G01*
X7190650Y-9296400D02*
G75*
G03*
X7190650Y-9296400I-85000J0D01*
G01*
X7197000Y-10998200D02*
G75*
G03*
X7197000Y-10998200I-85000J0D01*
G01*
X8080000Y-13782000D02*
G75*
G03*
X8080000Y-13782000I-85000J0D01*
G01*
X8206650Y-7594600D02*
G75*
G03*
X8206650Y-7594600I-85000J0D01*
G01*
X8206650Y-9296400D02*
G75*
G03*
X8206650Y-9296400I-85000J0D01*
G01*
X8213000Y-10998200D02*
G75*
G03*
X8213000Y-10998200I-85000J0D01*
G01*
X8994050Y-7835900D02*
G75*
G03*
X8994050Y-7835900I-85000J0D01*
G01*
X8994050Y-9537700D02*
G75*
G03*
X8994050Y-9537700I-85000J0D01*
G01*
X8994050Y-11233150D02*
G75*
G03*
X8994050Y-11233150I-85000J0D01*
G01*
X9151060Y-13997270D02*
G75*
G03*
X9151060Y-13997270I-85000J0D01*
G01*
X10010050Y-7835900D02*
G75*
G03*
X10010050Y-7835900I-85000J0D01*
G01*
X10010050Y-9537700D02*
G75*
G03*
X10010050Y-9537700I-85000J0D01*
G01*
X10010050Y-11233150D02*
G75*
G03*
X10010050Y-11233150I-85000J0D01*
G01*
X10132440Y-14260230D02*
G75*
G03*
X10132440Y-14260230I-85000J0D01*
G01*
X10791100Y-8077200D02*
G75*
G03*
X10791100Y-8077200I-85000J0D01*
G01*
X10791100Y-9772650D02*
G75*
G03*
X10791100Y-9772650I-85000J0D01*
G01*
X10791100Y-11474450D02*
G75*
G03*
X10791100Y-11474450I-85000J0D01*
G01*
X11329059Y-14217650D02*
G75*
G03*
X11329059Y-14217650I-85000J0D01*
G01*
X11807100Y-8077200D02*
G75*
G03*
X11807100Y-8077200I-85000J0D01*
G01*
X11807100Y-9772650D02*
G75*
G03*
X11807100Y-9772650I-85000J0D01*
G01*
X11807100Y-11474450D02*
G75*
G03*
X11807100Y-11474450I-85000J0D01*
G01*
X12208941Y-14725650D02*
G75*
G03*
X12208941Y-14725650I-85000J0D01*
G01*
D14*
X3632200Y-7908150D02*
X3632200Y-8208150D01*
X3482200Y-8058150D02*
X3782200Y-8058150D01*
X3632200Y-9603600D02*
X3632200Y-9903600D01*
X3482200Y-9753600D02*
X3782200Y-9753600D01*
X3632200Y-11305400D02*
X3632200Y-11605400D01*
X3482200Y-11455400D02*
X3782200Y-11455400D01*
X3759200Y-7654150D02*
X3759200Y-7954150D01*
X3609200Y-7804150D02*
X3909200Y-7804150D01*
X3759200Y-9349600D02*
X3759200Y-9649600D01*
X3609200Y-9499600D02*
X3909200Y-9499600D01*
X3759200Y-11051400D02*
X3759200Y-11351400D01*
X3609200Y-11201400D02*
X3909200Y-11201400D01*
X4267200Y-7654150D02*
X4267200Y-7954150D01*
X4117200Y-7804150D02*
X4417200Y-7804150D01*
X4267200Y-9349600D02*
X4267200Y-9649600D01*
X4117200Y-9499600D02*
X4417200Y-9499600D01*
X4267200Y-11051400D02*
X4267200Y-11351400D01*
X4117200Y-11201400D02*
X4417200Y-11201400D01*
X4394200Y-7908150D02*
X4394200Y-8208150D01*
X4244200Y-8058150D02*
X4544200Y-8058150D01*
X4394200Y-9603600D02*
X4394200Y-9903600D01*
X4244200Y-9753600D02*
X4544200Y-9753600D01*
X4394200Y-11305400D02*
X4394200Y-11605400D01*
X4244200Y-11455400D02*
X4544200Y-11455400D01*
X5435600Y-7431900D02*
X5435600Y-7731900D01*
X5285600Y-7581900D02*
X5585600Y-7581900D01*
X5435600Y-9127350D02*
X5435600Y-9427350D01*
X5285600Y-9277350D02*
X5585600Y-9277350D01*
X5435600Y-10829150D02*
X5435600Y-11129150D01*
X5285600Y-10979150D02*
X5585600Y-10979150D01*
X5562600Y-7177900D02*
X5562600Y-7477900D01*
X5412600Y-7327900D02*
X5712600Y-7327900D01*
X5562600Y-8873350D02*
X5562600Y-9173350D01*
X5412600Y-9023350D02*
X5712600Y-9023350D01*
X5562600Y-10575150D02*
X5562600Y-10875150D01*
X5412600Y-10725150D02*
X5712600Y-10725150D01*
X6070600Y-7177900D02*
X6070600Y-7477900D01*
X5920600Y-7327900D02*
X6220600Y-7327900D01*
X6070600Y-8873350D02*
X6070600Y-9173350D01*
X5920600Y-9023350D02*
X6220600Y-9023350D01*
X6070600Y-10575150D02*
X6070600Y-10875150D01*
X5920600Y-10725150D02*
X6220600Y-10725150D01*
X6197600Y-7431900D02*
X6197600Y-7731900D01*
X6047600Y-7581900D02*
X6347600Y-7581900D01*
X6197600Y-9127350D02*
X6197600Y-9427350D01*
X6047600Y-9277350D02*
X6347600Y-9277350D01*
X6197600Y-10829150D02*
X6197600Y-11129150D01*
X6047600Y-10979150D02*
X6347600Y-10979150D01*
X7106000Y-13378000D02*
X7106000Y-13678000D01*
X6956000Y-13528000D02*
X7256000Y-13528000D01*
X7232650Y-7190600D02*
X7232650Y-7490600D01*
X7082650Y-7340600D02*
X7382650Y-7340600D01*
X7232650Y-8892400D02*
X7232650Y-9192400D01*
X7082650Y-9042400D02*
X7382650Y-9042400D01*
X7233000Y-13124000D02*
X7233000Y-13424000D01*
X7083000Y-13274000D02*
X7383000Y-13274000D01*
X7239000Y-10594200D02*
X7239000Y-10894200D01*
X7089000Y-10744200D02*
X7389000Y-10744200D01*
X7359650Y-6936600D02*
X7359650Y-7236600D01*
X7209650Y-7086600D02*
X7509650Y-7086600D01*
X7359650Y-8638400D02*
X7359650Y-8938400D01*
X7209650Y-8788400D02*
X7509650Y-8788400D01*
X7366000Y-10340200D02*
X7366000Y-10640200D01*
X7216000Y-10490200D02*
X7516000Y-10490200D01*
X7741000Y-13124000D02*
X7741000Y-13424000D01*
X7591000Y-13274000D02*
X7891000Y-13274000D01*
X7867650Y-6936600D02*
X7867650Y-7236600D01*
X7717650Y-7086600D02*
X8017650Y-7086600D01*
X7867650Y-8638400D02*
X7867650Y-8938400D01*
X7717650Y-8788400D02*
X8017650Y-8788400D01*
X7868000Y-13378000D02*
X7868000Y-13678000D01*
X7718000Y-13528000D02*
X8018000Y-13528000D01*
X7874000Y-10340200D02*
X7874000Y-10640200D01*
X7724000Y-10490200D02*
X8024000Y-10490200D01*
X7994650Y-7190600D02*
X7994650Y-7490600D01*
X7844650Y-7340600D02*
X8144650Y-7340600D01*
X7994650Y-8892400D02*
X7994650Y-9192400D01*
X7844650Y-9042400D02*
X8144650Y-9042400D01*
X8001000Y-10594200D02*
X8001000Y-10894200D01*
X7851000Y-10744200D02*
X8151000Y-10744200D01*
X9036050Y-7431900D02*
X9036050Y-7731900D01*
X8886050Y-7581900D02*
X9186050Y-7581900D01*
X9036050Y-9133700D02*
X9036050Y-9433700D01*
X8886050Y-9283700D02*
X9186050Y-9283700D01*
X9036050Y-10829150D02*
X9036050Y-11129150D01*
X8886050Y-10979150D02*
X9186050Y-10979150D01*
X9163050Y-7177900D02*
X9163050Y-7477900D01*
X9013050Y-7327900D02*
X9313050Y-7327900D01*
X9163050Y-8879700D02*
X9163050Y-9179700D01*
X9013050Y-9029700D02*
X9313050Y-9029700D01*
X9163050Y-10575150D02*
X9163050Y-10875150D01*
X9013050Y-10725150D02*
X9313050Y-10725150D01*
X9254472Y-13634795D02*
X9254472Y-13934795D01*
X9104472Y-13784795D02*
X9404472Y-13784795D01*
X9442885Y-13422320D02*
X9442885Y-13722320D01*
X9292885Y-13572320D02*
X9592885Y-13572320D01*
X9671050Y-7177900D02*
X9671050Y-7477900D01*
X9521050Y-7327900D02*
X9821050Y-7327900D01*
X9671050Y-8879700D02*
X9671050Y-9179700D01*
X9521050Y-9029700D02*
X9821050Y-9029700D01*
X9671050Y-10575150D02*
X9671050Y-10875150D01*
X9521050Y-10725150D02*
X9821050Y-10725150D01*
X9798050Y-7431900D02*
X9798050Y-7731900D01*
X9648050Y-7581900D02*
X9948050Y-7581900D01*
X9798050Y-9133700D02*
X9798050Y-9433700D01*
X9648050Y-9283700D02*
X9948050Y-9283700D01*
X9798050Y-10829150D02*
X9798050Y-11129150D01*
X9648050Y-10979150D02*
X9948050Y-10979150D01*
X9933575Y-13553800D02*
X9933575Y-13853800D01*
X9783575Y-13703800D02*
X10083575Y-13703800D01*
X9990508Y-13832015D02*
X9990508Y-14132015D01*
X9840508Y-13982015D02*
X10140508Y-13982015D01*
X10833100Y-7673200D02*
X10833100Y-7973200D01*
X10683100Y-7823200D02*
X10983100Y-7823200D01*
X10833100Y-9368650D02*
X10833100Y-9668650D01*
X10683100Y-9518650D02*
X10983100Y-9518650D01*
X10833100Y-11070450D02*
X10833100Y-11370450D01*
X10683100Y-11220450D02*
X10983100Y-11220450D01*
X10960100Y-7419200D02*
X10960100Y-7719200D01*
X10810100Y-7569200D02*
X11110100Y-7569200D01*
X10960100Y-9114650D02*
X10960100Y-9414650D01*
X10810100Y-9264650D02*
X11110100Y-9264650D01*
X10960100Y-10816450D02*
X10960100Y-11116450D01*
X10810100Y-10966450D02*
X11110100Y-10966450D01*
X11468100Y-7419200D02*
X11468100Y-7719200D01*
X11318100Y-7569200D02*
X11618100Y-7569200D01*
X11468100Y-9114650D02*
X11468100Y-9414650D01*
X11318100Y-9264650D02*
X11618100Y-9264650D01*
X11468100Y-10816450D02*
X11468100Y-11116450D01*
X11318100Y-10966450D02*
X11618100Y-10966450D01*
X11481044Y-13911179D02*
X11481044Y-14211179D01*
X11331044Y-14061179D02*
X11631044Y-14061179D01*
X11595100Y-7673200D02*
X11595100Y-7973200D01*
X11445100Y-7823200D02*
X11745100Y-7823200D01*
X11595100Y-9368650D02*
X11595100Y-9668650D01*
X11445100Y-9518650D02*
X11745100Y-9518650D01*
X11595100Y-11070450D02*
X11595100Y-11370450D01*
X11445100Y-11220450D02*
X11745100Y-11220450D01*
X11718029Y-13754709D02*
X11718029Y-14054709D01*
X11568029Y-13904709D02*
X11868029Y-13904709D01*
X12140956Y-14292179D02*
X12140956Y-14592179D01*
X11990956Y-14442179D02*
X12290956Y-14442179D01*
X12157970Y-14008709D02*
X12157970Y-14308709D01*
X12007970Y-14158709D02*
X12307970Y-14158709D01*
D15*
X4154623Y-8453573D02*
X4154623Y-8170727D01*
X3871777Y-8170727D01*
X3871777Y-8453573D01*
X4154623Y-8453573D01*
X4154623Y-10149023D02*
X4154623Y-9866177D01*
X3871777Y-9866177D01*
X3871777Y-10149023D01*
X4154623Y-10149023D01*
X4154623Y-11850823D02*
X4154623Y-11567977D01*
X3871777Y-11567977D01*
X3871777Y-11850823D01*
X4154623Y-11850823D01*
X5958023Y-7977323D02*
X5958023Y-7694477D01*
X5675177Y-7694477D01*
X5675177Y-7977323D01*
X5958023Y-7977323D01*
X5958023Y-9672773D02*
X5958023Y-9389927D01*
X5675177Y-9389927D01*
X5675177Y-9672773D01*
X5958023Y-9672773D01*
X5958023Y-11374573D02*
X5958023Y-11091727D01*
X5675177Y-11091727D01*
X5675177Y-11374573D01*
X5958023Y-11374573D01*
X7628423Y-13923423D02*
X7628423Y-13640577D01*
X7345577Y-13640577D01*
X7345577Y-13923423D01*
X7628423Y-13923423D01*
X7755073Y-7736023D02*
X7755073Y-7453177D01*
X7472227Y-7453177D01*
X7472227Y-7736023D01*
X7755073Y-7736023D01*
X7755073Y-9437823D02*
X7755073Y-9154977D01*
X7472227Y-9154977D01*
X7472227Y-9437823D01*
X7755073Y-9437823D01*
X7761423Y-11139623D02*
X7761423Y-10856777D01*
X7478577Y-10856777D01*
X7478577Y-11139623D01*
X7761423Y-11139623D01*
X9558473Y-7977323D02*
X9558473Y-7694477D01*
X9275627Y-7694477D01*
X9275627Y-7977323D01*
X9558473Y-7977323D01*
X9558473Y-9679123D02*
X9558473Y-9396277D01*
X9275627Y-9396277D01*
X9275627Y-9679123D01*
X9558473Y-9679123D01*
X9558473Y-11374573D02*
X9558473Y-11091727D01*
X9275627Y-11091727D01*
X9275627Y-11374573D01*
X9558473Y-11374573D01*
X9698173Y-14270173D02*
X9698173Y-13987327D01*
X9415327Y-13987327D01*
X9415327Y-14270173D01*
X9698173Y-14270173D01*
X11355523Y-8218623D02*
X11355523Y-7935777D01*
X11072677Y-7935777D01*
X11072677Y-8218623D01*
X11355523Y-8218623D01*
X11355523Y-9914073D02*
X11355523Y-9631227D01*
X11072677Y-9631227D01*
X11072677Y-9914073D01*
X11355523Y-9914073D01*
X11355523Y-11615873D02*
X11355523Y-11333027D01*
X11072677Y-11333027D01*
X11072677Y-11615873D01*
X11355523Y-11615873D01*
X11825423Y-14613073D02*
X11825423Y-14330227D01*
X11542577Y-14330227D01*
X11542577Y-14613073D01*
X11825423Y-14613073D01*
D11*
X3247619Y-16118928D02*
X3247619Y-15918928D01*
X3247619Y-15918928D02*
X3295238Y-15918928D01*
X3295238Y-15918928D02*
X3323809Y-15928452D01*
X3323809Y-15928452D02*
X3342857Y-15947499D01*
X3342857Y-15947499D02*
X3352381Y-15966547D01*
X3352381Y-15966547D02*
X3361905Y-16004642D01*
X3361905Y-16004642D02*
X3361905Y-16033214D01*
X3361905Y-16033214D02*
X3352381Y-16071309D01*
X3352381Y-16071309D02*
X3342857Y-16090357D01*
X3342857Y-16090357D02*
X3323809Y-16109404D01*
X3323809Y-16109404D02*
X3295238Y-16118928D01*
X3295238Y-16118928D02*
X3247619Y-16118928D01*
X3447619Y-16118928D02*
X3447619Y-15985595D01*
X3447619Y-16023690D02*
X3457143Y-16004642D01*
X3457143Y-16004642D02*
X3466667Y-15995118D01*
X3466667Y-15995118D02*
X3485714Y-15985595D01*
X3485714Y-15985595D02*
X3504762Y-15985595D01*
X3571428Y-16118928D02*
X3571428Y-15985595D01*
X3571428Y-15918928D02*
X3561905Y-15928452D01*
X3561905Y-15928452D02*
X3571428Y-15937976D01*
X3571428Y-15937976D02*
X3580952Y-15928452D01*
X3580952Y-15928452D02*
X3571428Y-15918928D01*
X3571428Y-15918928D02*
X3571428Y-15937976D01*
X3695238Y-16118928D02*
X3676190Y-16109404D01*
X3676190Y-16109404D02*
X3666667Y-16090357D01*
X3666667Y-16090357D02*
X3666667Y-15918928D01*
X3800000Y-16118928D02*
X3780952Y-16109404D01*
X3780952Y-16109404D02*
X3771428Y-16090357D01*
X3771428Y-16090357D02*
X3771428Y-15918928D01*
X4028571Y-16118928D02*
X4028571Y-15918928D01*
X4028571Y-15918928D02*
X4095238Y-16061785D01*
X4095238Y-16061785D02*
X4161905Y-15918928D01*
X4161905Y-15918928D02*
X4161905Y-16118928D01*
X4342857Y-16118928D02*
X4342857Y-16014166D01*
X4342857Y-16014166D02*
X4333333Y-15995118D01*
X4333333Y-15995118D02*
X4314286Y-15985595D01*
X4314286Y-15985595D02*
X4276190Y-15985595D01*
X4276190Y-15985595D02*
X4257143Y-15995118D01*
X4342857Y-16109404D02*
X4323810Y-16118928D01*
X4323810Y-16118928D02*
X4276190Y-16118928D01*
X4276190Y-16118928D02*
X4257143Y-16109404D01*
X4257143Y-16109404D02*
X4247619Y-16090357D01*
X4247619Y-16090357D02*
X4247619Y-16071309D01*
X4247619Y-16071309D02*
X4257143Y-16052261D01*
X4257143Y-16052261D02*
X4276190Y-16042738D01*
X4276190Y-16042738D02*
X4323810Y-16042738D01*
X4323810Y-16042738D02*
X4342857Y-16033214D01*
X4438095Y-15985595D02*
X4438095Y-16185595D01*
X4438095Y-15995118D02*
X4457143Y-15985595D01*
X4457143Y-15985595D02*
X4495238Y-15985595D01*
X4495238Y-15985595D02*
X4514286Y-15995118D01*
X4514286Y-15995118D02*
X4523810Y-16004642D01*
X4523810Y-16004642D02*
X4533333Y-16023690D01*
X4533333Y-16023690D02*
X4533333Y-16080833D01*
X4533333Y-16080833D02*
X4523810Y-16099880D01*
X4523810Y-16099880D02*
X4514286Y-16109404D01*
X4514286Y-16109404D02*
X4495238Y-16118928D01*
X4495238Y-16118928D02*
X4457143Y-16118928D01*
X4457143Y-16118928D02*
X4438095Y-16109404D01*
X4619048Y-16099880D02*
X4628571Y-16109404D01*
X4628571Y-16109404D02*
X4619048Y-16118928D01*
X4619048Y-16118928D02*
X4609524Y-16109404D01*
X4609524Y-16109404D02*
X4619048Y-16099880D01*
X4619048Y-16099880D02*
X4619048Y-16118928D01*
X4619048Y-15995118D02*
X4628571Y-16004642D01*
X4628571Y-16004642D02*
X4619048Y-16014166D01*
X4619048Y-16014166D02*
X4609524Y-16004642D01*
X4609524Y-16004642D02*
X4619048Y-15995118D01*
X4619048Y-15995118D02*
X4619048Y-16014166D01*
D12*
X2880000Y-16386404D02*
X3000000Y-16506404D01*
X3000000Y-16386404D02*
X2880000Y-16506404D01*
D11*
X3352381Y-16538928D02*
X3238095Y-16538928D01*
X3295238Y-16538928D02*
X3295238Y-16338928D01*
X3295238Y-16338928D02*
X3276190Y-16367499D01*
X3276190Y-16367499D02*
X3257143Y-16386547D01*
X3257143Y-16386547D02*
X3238095Y-16396071D01*
X3438095Y-16519880D02*
X3447619Y-16529404D01*
X3447619Y-16529404D02*
X3438095Y-16538928D01*
X3438095Y-16538928D02*
X3428571Y-16529404D01*
X3428571Y-16529404D02*
X3438095Y-16519880D01*
X3438095Y-16519880D02*
X3438095Y-16538928D01*
X3523809Y-16357976D02*
X3533333Y-16348452D01*
X3533333Y-16348452D02*
X3552381Y-16338928D01*
X3552381Y-16338928D02*
X3600000Y-16338928D01*
X3600000Y-16338928D02*
X3619048Y-16348452D01*
X3619048Y-16348452D02*
X3628571Y-16357976D01*
X3628571Y-16357976D02*
X3638095Y-16377023D01*
X3638095Y-16377023D02*
X3638095Y-16396071D01*
X3638095Y-16396071D02*
X3628571Y-16424642D01*
X3628571Y-16424642D02*
X3514286Y-16538928D01*
X3514286Y-16538928D02*
X3638095Y-16538928D01*
X3761905Y-16338928D02*
X3780952Y-16338928D01*
X3780952Y-16338928D02*
X3800000Y-16348452D01*
X3800000Y-16348452D02*
X3809524Y-16357976D01*
X3809524Y-16357976D02*
X3819048Y-16377023D01*
X3819048Y-16377023D02*
X3828571Y-16415118D01*
X3828571Y-16415118D02*
X3828571Y-16462738D01*
X3828571Y-16462738D02*
X3819048Y-16500833D01*
X3819048Y-16500833D02*
X3809524Y-16519880D01*
X3809524Y-16519880D02*
X3800000Y-16529404D01*
X3800000Y-16529404D02*
X3780952Y-16538928D01*
X3780952Y-16538928D02*
X3761905Y-16538928D01*
X3761905Y-16538928D02*
X3742857Y-16529404D01*
X3742857Y-16529404D02*
X3733333Y-16519880D01*
X3733333Y-16519880D02*
X3723809Y-16500833D01*
X3723809Y-16500833D02*
X3714286Y-16462738D01*
X3714286Y-16462738D02*
X3714286Y-16415118D01*
X3714286Y-16415118D02*
X3723809Y-16377023D01*
X3723809Y-16377023D02*
X3733333Y-16357976D01*
X3733333Y-16357976D02*
X3742857Y-16348452D01*
X3742857Y-16348452D02*
X3761905Y-16338928D01*
X3952381Y-16338928D02*
X3971429Y-16338928D01*
X3971429Y-16338928D02*
X3990476Y-16348452D01*
X3990476Y-16348452D02*
X4000000Y-16357976D01*
X4000000Y-16357976D02*
X4009524Y-16377023D01*
X4009524Y-16377023D02*
X4019048Y-16415118D01*
X4019048Y-16415118D02*
X4019048Y-16462738D01*
X4019048Y-16462738D02*
X4009524Y-16500833D01*
X4009524Y-16500833D02*
X4000000Y-16519880D01*
X4000000Y-16519880D02*
X3990476Y-16529404D01*
X3990476Y-16529404D02*
X3971429Y-16538928D01*
X3971429Y-16538928D02*
X3952381Y-16538928D01*
X3952381Y-16538928D02*
X3933333Y-16529404D01*
X3933333Y-16529404D02*
X3923809Y-16519880D01*
X3923809Y-16519880D02*
X3914286Y-16500833D01*
X3914286Y-16500833D02*
X3904762Y-16462738D01*
X3904762Y-16462738D02*
X3904762Y-16415118D01*
X3904762Y-16415118D02*
X3914286Y-16377023D01*
X3914286Y-16377023D02*
X3923809Y-16357976D01*
X3923809Y-16357976D02*
X3933333Y-16348452D01*
X3933333Y-16348452D02*
X3952381Y-16338928D01*
X4104762Y-16538928D02*
X4104762Y-16405595D01*
X4104762Y-16424642D02*
X4114286Y-16415118D01*
X4114286Y-16415118D02*
X4133333Y-16405595D01*
X4133333Y-16405595D02*
X4161905Y-16405595D01*
X4161905Y-16405595D02*
X4180952Y-16415118D01*
X4180952Y-16415118D02*
X4190476Y-16434166D01*
X4190476Y-16434166D02*
X4190476Y-16538928D01*
X4190476Y-16434166D02*
X4200000Y-16415118D01*
X4200000Y-16415118D02*
X4219048Y-16405595D01*
X4219048Y-16405595D02*
X4247619Y-16405595D01*
X4247619Y-16405595D02*
X4266667Y-16415118D01*
X4266667Y-16415118D02*
X4276191Y-16434166D01*
X4276191Y-16434166D02*
X4276191Y-16538928D01*
X4371429Y-16538928D02*
X4371429Y-16405595D01*
X4371429Y-16424642D02*
X4380952Y-16415118D01*
X4380952Y-16415118D02*
X4400000Y-16405595D01*
X4400000Y-16405595D02*
X4428572Y-16405595D01*
X4428572Y-16405595D02*
X4447619Y-16415118D01*
X4447619Y-16415118D02*
X4457143Y-16434166D01*
X4457143Y-16434166D02*
X4457143Y-16538928D01*
X4457143Y-16434166D02*
X4466667Y-16415118D01*
X4466667Y-16415118D02*
X4485714Y-16405595D01*
X4485714Y-16405595D02*
X4514286Y-16405595D01*
X4514286Y-16405595D02*
X4533333Y-16415118D01*
X4533333Y-16415118D02*
X4542857Y-16434166D01*
X4542857Y-16434166D02*
X4542857Y-16538928D01*
X4933333Y-16329404D02*
X4761905Y-16586547D01*
X5190476Y-16338928D02*
X5209524Y-16338928D01*
X5209524Y-16338928D02*
X5228572Y-16348452D01*
X5228572Y-16348452D02*
X5238095Y-16357976D01*
X5238095Y-16357976D02*
X5247619Y-16377023D01*
X5247619Y-16377023D02*
X5257143Y-16415118D01*
X5257143Y-16415118D02*
X5257143Y-16462738D01*
X5257143Y-16462738D02*
X5247619Y-16500833D01*
X5247619Y-16500833D02*
X5238095Y-16519880D01*
X5238095Y-16519880D02*
X5228572Y-16529404D01*
X5228572Y-16529404D02*
X5209524Y-16538928D01*
X5209524Y-16538928D02*
X5190476Y-16538928D01*
X5190476Y-16538928D02*
X5171429Y-16529404D01*
X5171429Y-16529404D02*
X5161905Y-16519880D01*
X5161905Y-16519880D02*
X5152381Y-16500833D01*
X5152381Y-16500833D02*
X5142857Y-16462738D01*
X5142857Y-16462738D02*
X5142857Y-16415118D01*
X5142857Y-16415118D02*
X5152381Y-16377023D01*
X5152381Y-16377023D02*
X5161905Y-16357976D01*
X5161905Y-16357976D02*
X5171429Y-16348452D01*
X5171429Y-16348452D02*
X5190476Y-16338928D01*
X5342857Y-16519880D02*
X5352381Y-16529404D01*
X5352381Y-16529404D02*
X5342857Y-16538928D01*
X5342857Y-16538928D02*
X5333334Y-16529404D01*
X5333334Y-16529404D02*
X5342857Y-16519880D01*
X5342857Y-16519880D02*
X5342857Y-16538928D01*
X5476191Y-16338928D02*
X5495238Y-16338928D01*
X5495238Y-16338928D02*
X5514286Y-16348452D01*
X5514286Y-16348452D02*
X5523810Y-16357976D01*
X5523810Y-16357976D02*
X5533334Y-16377023D01*
X5533334Y-16377023D02*
X5542857Y-16415118D01*
X5542857Y-16415118D02*
X5542857Y-16462738D01*
X5542857Y-16462738D02*
X5533334Y-16500833D01*
X5533334Y-16500833D02*
X5523810Y-16519880D01*
X5523810Y-16519880D02*
X5514286Y-16529404D01*
X5514286Y-16529404D02*
X5495238Y-16538928D01*
X5495238Y-16538928D02*
X5476191Y-16538928D01*
X5476191Y-16538928D02*
X5457143Y-16529404D01*
X5457143Y-16529404D02*
X5447619Y-16519880D01*
X5447619Y-16519880D02*
X5438095Y-16500833D01*
X5438095Y-16500833D02*
X5428572Y-16462738D01*
X5428572Y-16462738D02*
X5428572Y-16415118D01*
X5428572Y-16415118D02*
X5438095Y-16377023D01*
X5438095Y-16377023D02*
X5447619Y-16357976D01*
X5447619Y-16357976D02*
X5457143Y-16348452D01*
X5457143Y-16348452D02*
X5476191Y-16338928D01*
X5714286Y-16405595D02*
X5714286Y-16538928D01*
X5666667Y-16329404D02*
X5619048Y-16472261D01*
X5619048Y-16472261D02*
X5742857Y-16472261D01*
X5800000Y-16338928D02*
X5933333Y-16338928D01*
X5933333Y-16338928D02*
X5847619Y-16538928D01*
X6000000Y-16357976D02*
X6009524Y-16348452D01*
X6009524Y-16348452D02*
X6028572Y-16338928D01*
X6028572Y-16338928D02*
X6076191Y-16338928D01*
X6076191Y-16338928D02*
X6095238Y-16348452D01*
X6095238Y-16348452D02*
X6104762Y-16357976D01*
X6104762Y-16357976D02*
X6114286Y-16377023D01*
X6114286Y-16377023D02*
X6114286Y-16396071D01*
X6114286Y-16396071D02*
X6104762Y-16424642D01*
X6104762Y-16424642D02*
X5990476Y-16538928D01*
X5990476Y-16538928D02*
X6114286Y-16538928D01*
X6190476Y-16338928D02*
X6190476Y-16377023D01*
X6266667Y-16338928D02*
X6266667Y-16377023D01*
X6561905Y-16615118D02*
X6552381Y-16605595D01*
X6552381Y-16605595D02*
X6533334Y-16577023D01*
X6533334Y-16577023D02*
X6523810Y-16557976D01*
X6523810Y-16557976D02*
X6514286Y-16529404D01*
X6514286Y-16529404D02*
X6504762Y-16481785D01*
X6504762Y-16481785D02*
X6504762Y-16443690D01*
X6504762Y-16443690D02*
X6514286Y-16396071D01*
X6514286Y-16396071D02*
X6523810Y-16367499D01*
X6523810Y-16367499D02*
X6533334Y-16348452D01*
X6533334Y-16348452D02*
X6552381Y-16319880D01*
X6552381Y-16319880D02*
X6561905Y-16310357D01*
X6723810Y-16405595D02*
X6723810Y-16538928D01*
X6676191Y-16329404D02*
X6628572Y-16472261D01*
X6628572Y-16472261D02*
X6752381Y-16472261D01*
X6980953Y-16538928D02*
X6980953Y-16338928D01*
X7066667Y-16538928D02*
X7066667Y-16434166D01*
X7066667Y-16434166D02*
X7057143Y-16415118D01*
X7057143Y-16415118D02*
X7038096Y-16405595D01*
X7038096Y-16405595D02*
X7009524Y-16405595D01*
X7009524Y-16405595D02*
X6990476Y-16415118D01*
X6990476Y-16415118D02*
X6980953Y-16424642D01*
X7190476Y-16538928D02*
X7171429Y-16529404D01*
X7171429Y-16529404D02*
X7161905Y-16519880D01*
X7161905Y-16519880D02*
X7152381Y-16500833D01*
X7152381Y-16500833D02*
X7152381Y-16443690D01*
X7152381Y-16443690D02*
X7161905Y-16424642D01*
X7161905Y-16424642D02*
X7171429Y-16415118D01*
X7171429Y-16415118D02*
X7190476Y-16405595D01*
X7190476Y-16405595D02*
X7219048Y-16405595D01*
X7219048Y-16405595D02*
X7238096Y-16415118D01*
X7238096Y-16415118D02*
X7247619Y-16424642D01*
X7247619Y-16424642D02*
X7257143Y-16443690D01*
X7257143Y-16443690D02*
X7257143Y-16500833D01*
X7257143Y-16500833D02*
X7247619Y-16519880D01*
X7247619Y-16519880D02*
X7238096Y-16529404D01*
X7238096Y-16529404D02*
X7219048Y-16538928D01*
X7219048Y-16538928D02*
X7190476Y-16538928D01*
X7371429Y-16538928D02*
X7352381Y-16529404D01*
X7352381Y-16529404D02*
X7342857Y-16510357D01*
X7342857Y-16510357D02*
X7342857Y-16338928D01*
X7523810Y-16529404D02*
X7504762Y-16538928D01*
X7504762Y-16538928D02*
X7466667Y-16538928D01*
X7466667Y-16538928D02*
X7447619Y-16529404D01*
X7447619Y-16529404D02*
X7438096Y-16510357D01*
X7438096Y-16510357D02*
X7438096Y-16434166D01*
X7438096Y-16434166D02*
X7447619Y-16415118D01*
X7447619Y-16415118D02*
X7466667Y-16405595D01*
X7466667Y-16405595D02*
X7504762Y-16405595D01*
X7504762Y-16405595D02*
X7523810Y-16415118D01*
X7523810Y-16415118D02*
X7533334Y-16434166D01*
X7533334Y-16434166D02*
X7533334Y-16453214D01*
X7533334Y-16453214D02*
X7438096Y-16472261D01*
X7609524Y-16529404D02*
X7628572Y-16538928D01*
X7628572Y-16538928D02*
X7666667Y-16538928D01*
X7666667Y-16538928D02*
X7685715Y-16529404D01*
X7685715Y-16529404D02*
X7695238Y-16510357D01*
X7695238Y-16510357D02*
X7695238Y-16500833D01*
X7695238Y-16500833D02*
X7685715Y-16481785D01*
X7685715Y-16481785D02*
X7666667Y-16472261D01*
X7666667Y-16472261D02*
X7638096Y-16472261D01*
X7638096Y-16472261D02*
X7619048Y-16462738D01*
X7619048Y-16462738D02*
X7609524Y-16443690D01*
X7609524Y-16443690D02*
X7609524Y-16434166D01*
X7609524Y-16434166D02*
X7619048Y-16415118D01*
X7619048Y-16415118D02*
X7638096Y-16405595D01*
X7638096Y-16405595D02*
X7666667Y-16405595D01*
X7666667Y-16405595D02*
X7685715Y-16415118D01*
X7761905Y-16615118D02*
X7771429Y-16605595D01*
X7771429Y-16605595D02*
X7790477Y-16577023D01*
X7790477Y-16577023D02*
X7800000Y-16557976D01*
X7800000Y-16557976D02*
X7809524Y-16529404D01*
X7809524Y-16529404D02*
X7819048Y-16481785D01*
X7819048Y-16481785D02*
X7819048Y-16443690D01*
X7819048Y-16443690D02*
X7809524Y-16396071D01*
X7809524Y-16396071D02*
X7800000Y-16367499D01*
X7800000Y-16367499D02*
X7790477Y-16348452D01*
X7790477Y-16348452D02*
X7771429Y-16319880D01*
X7771429Y-16319880D02*
X7761905Y-16310357D01*
X8123810Y-16615118D02*
X8114286Y-16605595D01*
X8114286Y-16605595D02*
X8095238Y-16577023D01*
X8095238Y-16577023D02*
X8085715Y-16557976D01*
X8085715Y-16557976D02*
X8076191Y-16529404D01*
X8076191Y-16529404D02*
X8066667Y-16481785D01*
X8066667Y-16481785D02*
X8066667Y-16443690D01*
X8066667Y-16443690D02*
X8076191Y-16396071D01*
X8076191Y-16396071D02*
X8085715Y-16367499D01*
X8085715Y-16367499D02*
X8095238Y-16348452D01*
X8095238Y-16348452D02*
X8114286Y-16319880D01*
X8114286Y-16319880D02*
X8123810Y-16310357D01*
X8200000Y-16405595D02*
X8200000Y-16538928D01*
X8200000Y-16424642D02*
X8209524Y-16415118D01*
X8209524Y-16415118D02*
X8228572Y-16405595D01*
X8228572Y-16405595D02*
X8257143Y-16405595D01*
X8257143Y-16405595D02*
X8276191Y-16415118D01*
X8276191Y-16415118D02*
X8285715Y-16434166D01*
X8285715Y-16434166D02*
X8285715Y-16538928D01*
X8409524Y-16538928D02*
X8390477Y-16529404D01*
X8390477Y-16529404D02*
X8380953Y-16519880D01*
X8380953Y-16519880D02*
X8371429Y-16500833D01*
X8371429Y-16500833D02*
X8371429Y-16443690D01*
X8371429Y-16443690D02*
X8380953Y-16424642D01*
X8380953Y-16424642D02*
X8390477Y-16415118D01*
X8390477Y-16415118D02*
X8409524Y-16405595D01*
X8409524Y-16405595D02*
X8438096Y-16405595D01*
X8438096Y-16405595D02*
X8457143Y-16415118D01*
X8457143Y-16415118D02*
X8466667Y-16424642D01*
X8466667Y-16424642D02*
X8476191Y-16443690D01*
X8476191Y-16443690D02*
X8476191Y-16500833D01*
X8476191Y-16500833D02*
X8466667Y-16519880D01*
X8466667Y-16519880D02*
X8457143Y-16529404D01*
X8457143Y-16529404D02*
X8438096Y-16538928D01*
X8438096Y-16538928D02*
X8409524Y-16538928D01*
X8533334Y-16405595D02*
X8609524Y-16405595D01*
X8561905Y-16338928D02*
X8561905Y-16510357D01*
X8561905Y-16510357D02*
X8571429Y-16529404D01*
X8571429Y-16529404D02*
X8590477Y-16538928D01*
X8590477Y-16538928D02*
X8609524Y-16538928D01*
X8828572Y-16405595D02*
X8828572Y-16605595D01*
X8828572Y-16415118D02*
X8847620Y-16405595D01*
X8847620Y-16405595D02*
X8885715Y-16405595D01*
X8885715Y-16405595D02*
X8904762Y-16415118D01*
X8904762Y-16415118D02*
X8914286Y-16424642D01*
X8914286Y-16424642D02*
X8923810Y-16443690D01*
X8923810Y-16443690D02*
X8923810Y-16500833D01*
X8923810Y-16500833D02*
X8914286Y-16519880D01*
X8914286Y-16519880D02*
X8904762Y-16529404D01*
X8904762Y-16529404D02*
X8885715Y-16538928D01*
X8885715Y-16538928D02*
X8847620Y-16538928D01*
X8847620Y-16538928D02*
X8828572Y-16529404D01*
X9038096Y-16538928D02*
X9019048Y-16529404D01*
X9019048Y-16529404D02*
X9009524Y-16510357D01*
X9009524Y-16510357D02*
X9009524Y-16338928D01*
X9200001Y-16538928D02*
X9200001Y-16434166D01*
X9200001Y-16434166D02*
X9190477Y-16415118D01*
X9190477Y-16415118D02*
X9171429Y-16405595D01*
X9171429Y-16405595D02*
X9133334Y-16405595D01*
X9133334Y-16405595D02*
X9114286Y-16415118D01*
X9200001Y-16529404D02*
X9180953Y-16538928D01*
X9180953Y-16538928D02*
X9133334Y-16538928D01*
X9133334Y-16538928D02*
X9114286Y-16529404D01*
X9114286Y-16529404D02*
X9104762Y-16510357D01*
X9104762Y-16510357D02*
X9104762Y-16491309D01*
X9104762Y-16491309D02*
X9114286Y-16472261D01*
X9114286Y-16472261D02*
X9133334Y-16462738D01*
X9133334Y-16462738D02*
X9180953Y-16462738D01*
X9180953Y-16462738D02*
X9200001Y-16453214D01*
X9266667Y-16405595D02*
X9342858Y-16405595D01*
X9295239Y-16338928D02*
X9295239Y-16510357D01*
X9295239Y-16510357D02*
X9304762Y-16529404D01*
X9304762Y-16529404D02*
X9323810Y-16538928D01*
X9323810Y-16538928D02*
X9342858Y-16538928D01*
X9485715Y-16529404D02*
X9466667Y-16538928D01*
X9466667Y-16538928D02*
X9428572Y-16538928D01*
X9428572Y-16538928D02*
X9409524Y-16529404D01*
X9409524Y-16529404D02*
X9400001Y-16510357D01*
X9400001Y-16510357D02*
X9400001Y-16434166D01*
X9400001Y-16434166D02*
X9409524Y-16415118D01*
X9409524Y-16415118D02*
X9428572Y-16405595D01*
X9428572Y-16405595D02*
X9466667Y-16405595D01*
X9466667Y-16405595D02*
X9485715Y-16415118D01*
X9485715Y-16415118D02*
X9495239Y-16434166D01*
X9495239Y-16434166D02*
X9495239Y-16453214D01*
X9495239Y-16453214D02*
X9400001Y-16472261D01*
X9666667Y-16538928D02*
X9666667Y-16338928D01*
X9666667Y-16529404D02*
X9647620Y-16538928D01*
X9647620Y-16538928D02*
X9609524Y-16538928D01*
X9609524Y-16538928D02*
X9590477Y-16529404D01*
X9590477Y-16529404D02*
X9580953Y-16519880D01*
X9580953Y-16519880D02*
X9571429Y-16500833D01*
X9571429Y-16500833D02*
X9571429Y-16443690D01*
X9571429Y-16443690D02*
X9580953Y-16424642D01*
X9580953Y-16424642D02*
X9590477Y-16415118D01*
X9590477Y-16415118D02*
X9609524Y-16405595D01*
X9609524Y-16405595D02*
X9647620Y-16405595D01*
X9647620Y-16405595D02*
X9666667Y-16415118D01*
X9742858Y-16615118D02*
X9752382Y-16605595D01*
X9752382Y-16605595D02*
X9771429Y-16577023D01*
X9771429Y-16577023D02*
X9780953Y-16557976D01*
X9780953Y-16557976D02*
X9790477Y-16529404D01*
X9790477Y-16529404D02*
X9800001Y-16481785D01*
X9800001Y-16481785D02*
X9800001Y-16443690D01*
X9800001Y-16443690D02*
X9790477Y-16396071D01*
X9790477Y-16396071D02*
X9780953Y-16367499D01*
X9780953Y-16367499D02*
X9771429Y-16348452D01*
X9771429Y-16348452D02*
X9752382Y-16319880D01*
X9752382Y-16319880D02*
X9742858Y-16310357D01*
D13*
X3000000Y-16710404D02*
G75*
G03*
X3000000Y-16710404I-85000J0D01*
G01*
D11*
X3352381Y-16802928D02*
X3238095Y-16802928D01*
X3295238Y-16802928D02*
X3295238Y-16602928D01*
X3295238Y-16602928D02*
X3276190Y-16631499D01*
X3276190Y-16631499D02*
X3257143Y-16650547D01*
X3257143Y-16650547D02*
X3238095Y-16660071D01*
X3438095Y-16783880D02*
X3447619Y-16793404D01*
X3447619Y-16793404D02*
X3438095Y-16802928D01*
X3438095Y-16802928D02*
X3428571Y-16793404D01*
X3428571Y-16793404D02*
X3438095Y-16783880D01*
X3438095Y-16783880D02*
X3438095Y-16802928D01*
X3514286Y-16602928D02*
X3647619Y-16602928D01*
X3647619Y-16602928D02*
X3561905Y-16802928D01*
X3761905Y-16602928D02*
X3780952Y-16602928D01*
X3780952Y-16602928D02*
X3800000Y-16612452D01*
X3800000Y-16612452D02*
X3809524Y-16621976D01*
X3809524Y-16621976D02*
X3819048Y-16641023D01*
X3819048Y-16641023D02*
X3828571Y-16679118D01*
X3828571Y-16679118D02*
X3828571Y-16726738D01*
X3828571Y-16726738D02*
X3819048Y-16764833D01*
X3819048Y-16764833D02*
X3809524Y-16783880D01*
X3809524Y-16783880D02*
X3800000Y-16793404D01*
X3800000Y-16793404D02*
X3780952Y-16802928D01*
X3780952Y-16802928D02*
X3761905Y-16802928D01*
X3761905Y-16802928D02*
X3742857Y-16793404D01*
X3742857Y-16793404D02*
X3733333Y-16783880D01*
X3733333Y-16783880D02*
X3723809Y-16764833D01*
X3723809Y-16764833D02*
X3714286Y-16726738D01*
X3714286Y-16726738D02*
X3714286Y-16679118D01*
X3714286Y-16679118D02*
X3723809Y-16641023D01*
X3723809Y-16641023D02*
X3733333Y-16621976D01*
X3733333Y-16621976D02*
X3742857Y-16612452D01*
X3742857Y-16612452D02*
X3761905Y-16602928D01*
X3952381Y-16602928D02*
X3971429Y-16602928D01*
X3971429Y-16602928D02*
X3990476Y-16612452D01*
X3990476Y-16612452D02*
X4000000Y-16621976D01*
X4000000Y-16621976D02*
X4009524Y-16641023D01*
X4009524Y-16641023D02*
X4019048Y-16679118D01*
X4019048Y-16679118D02*
X4019048Y-16726738D01*
X4019048Y-16726738D02*
X4009524Y-16764833D01*
X4009524Y-16764833D02*
X4000000Y-16783880D01*
X4000000Y-16783880D02*
X3990476Y-16793404D01*
X3990476Y-16793404D02*
X3971429Y-16802928D01*
X3971429Y-16802928D02*
X3952381Y-16802928D01*
X3952381Y-16802928D02*
X3933333Y-16793404D01*
X3933333Y-16793404D02*
X3923809Y-16783880D01*
X3923809Y-16783880D02*
X3914286Y-16764833D01*
X3914286Y-16764833D02*
X3904762Y-16726738D01*
X3904762Y-16726738D02*
X3904762Y-16679118D01*
X3904762Y-16679118D02*
X3914286Y-16641023D01*
X3914286Y-16641023D02*
X3923809Y-16621976D01*
X3923809Y-16621976D02*
X3933333Y-16612452D01*
X3933333Y-16612452D02*
X3952381Y-16602928D01*
X4104762Y-16802928D02*
X4104762Y-16669595D01*
X4104762Y-16688642D02*
X4114286Y-16679118D01*
X4114286Y-16679118D02*
X4133333Y-16669595D01*
X4133333Y-16669595D02*
X4161905Y-16669595D01*
X4161905Y-16669595D02*
X4180952Y-16679118D01*
X4180952Y-16679118D02*
X4190476Y-16698166D01*
X4190476Y-16698166D02*
X4190476Y-16802928D01*
X4190476Y-16698166D02*
X4200000Y-16679118D01*
X4200000Y-16679118D02*
X4219048Y-16669595D01*
X4219048Y-16669595D02*
X4247619Y-16669595D01*
X4247619Y-16669595D02*
X4266667Y-16679118D01*
X4266667Y-16679118D02*
X4276191Y-16698166D01*
X4276191Y-16698166D02*
X4276191Y-16802928D01*
X4371429Y-16802928D02*
X4371429Y-16669595D01*
X4371429Y-16688642D02*
X4380952Y-16679118D01*
X4380952Y-16679118D02*
X4400000Y-16669595D01*
X4400000Y-16669595D02*
X4428572Y-16669595D01*
X4428572Y-16669595D02*
X4447619Y-16679118D01*
X4447619Y-16679118D02*
X4457143Y-16698166D01*
X4457143Y-16698166D02*
X4457143Y-16802928D01*
X4457143Y-16698166D02*
X4466667Y-16679118D01*
X4466667Y-16679118D02*
X4485714Y-16669595D01*
X4485714Y-16669595D02*
X4514286Y-16669595D01*
X4514286Y-16669595D02*
X4533333Y-16679118D01*
X4533333Y-16679118D02*
X4542857Y-16698166D01*
X4542857Y-16698166D02*
X4542857Y-16802928D01*
X4933333Y-16593404D02*
X4761905Y-16850547D01*
X5190476Y-16602928D02*
X5209524Y-16602928D01*
X5209524Y-16602928D02*
X5228572Y-16612452D01*
X5228572Y-16612452D02*
X5238095Y-16621976D01*
X5238095Y-16621976D02*
X5247619Y-16641023D01*
X5247619Y-16641023D02*
X5257143Y-16679118D01*
X5257143Y-16679118D02*
X5257143Y-16726738D01*
X5257143Y-16726738D02*
X5247619Y-16764833D01*
X5247619Y-16764833D02*
X5238095Y-16783880D01*
X5238095Y-16783880D02*
X5228572Y-16793404D01*
X5228572Y-16793404D02*
X5209524Y-16802928D01*
X5209524Y-16802928D02*
X5190476Y-16802928D01*
X5190476Y-16802928D02*
X5171429Y-16793404D01*
X5171429Y-16793404D02*
X5161905Y-16783880D01*
X5161905Y-16783880D02*
X5152381Y-16764833D01*
X5152381Y-16764833D02*
X5142857Y-16726738D01*
X5142857Y-16726738D02*
X5142857Y-16679118D01*
X5142857Y-16679118D02*
X5152381Y-16641023D01*
X5152381Y-16641023D02*
X5161905Y-16621976D01*
X5161905Y-16621976D02*
X5171429Y-16612452D01*
X5171429Y-16612452D02*
X5190476Y-16602928D01*
X5342857Y-16783880D02*
X5352381Y-16793404D01*
X5352381Y-16793404D02*
X5342857Y-16802928D01*
X5342857Y-16802928D02*
X5333334Y-16793404D01*
X5333334Y-16793404D02*
X5342857Y-16783880D01*
X5342857Y-16783880D02*
X5342857Y-16802928D01*
X5476191Y-16602928D02*
X5495238Y-16602928D01*
X5495238Y-16602928D02*
X5514286Y-16612452D01*
X5514286Y-16612452D02*
X5523810Y-16621976D01*
X5523810Y-16621976D02*
X5533334Y-16641023D01*
X5533334Y-16641023D02*
X5542857Y-16679118D01*
X5542857Y-16679118D02*
X5542857Y-16726738D01*
X5542857Y-16726738D02*
X5533334Y-16764833D01*
X5533334Y-16764833D02*
X5523810Y-16783880D01*
X5523810Y-16783880D02*
X5514286Y-16793404D01*
X5514286Y-16793404D02*
X5495238Y-16802928D01*
X5495238Y-16802928D02*
X5476191Y-16802928D01*
X5476191Y-16802928D02*
X5457143Y-16793404D01*
X5457143Y-16793404D02*
X5447619Y-16783880D01*
X5447619Y-16783880D02*
X5438095Y-16764833D01*
X5438095Y-16764833D02*
X5428572Y-16726738D01*
X5428572Y-16726738D02*
X5428572Y-16679118D01*
X5428572Y-16679118D02*
X5438095Y-16641023D01*
X5438095Y-16641023D02*
X5447619Y-16621976D01*
X5447619Y-16621976D02*
X5457143Y-16612452D01*
X5457143Y-16612452D02*
X5476191Y-16602928D01*
X5714286Y-16602928D02*
X5676191Y-16602928D01*
X5676191Y-16602928D02*
X5657143Y-16612452D01*
X5657143Y-16612452D02*
X5647619Y-16621976D01*
X5647619Y-16621976D02*
X5628572Y-16650547D01*
X5628572Y-16650547D02*
X5619048Y-16688642D01*
X5619048Y-16688642D02*
X5619048Y-16764833D01*
X5619048Y-16764833D02*
X5628572Y-16783880D01*
X5628572Y-16783880D02*
X5638095Y-16793404D01*
X5638095Y-16793404D02*
X5657143Y-16802928D01*
X5657143Y-16802928D02*
X5695238Y-16802928D01*
X5695238Y-16802928D02*
X5714286Y-16793404D01*
X5714286Y-16793404D02*
X5723810Y-16783880D01*
X5723810Y-16783880D02*
X5733333Y-16764833D01*
X5733333Y-16764833D02*
X5733333Y-16717214D01*
X5733333Y-16717214D02*
X5723810Y-16698166D01*
X5723810Y-16698166D02*
X5714286Y-16688642D01*
X5714286Y-16688642D02*
X5695238Y-16679118D01*
X5695238Y-16679118D02*
X5657143Y-16679118D01*
X5657143Y-16679118D02*
X5638095Y-16688642D01*
X5638095Y-16688642D02*
X5628572Y-16698166D01*
X5628572Y-16698166D02*
X5619048Y-16717214D01*
X5904762Y-16602928D02*
X5866667Y-16602928D01*
X5866667Y-16602928D02*
X5847619Y-16612452D01*
X5847619Y-16612452D02*
X5838095Y-16621976D01*
X5838095Y-16621976D02*
X5819048Y-16650547D01*
X5819048Y-16650547D02*
X5809524Y-16688642D01*
X5809524Y-16688642D02*
X5809524Y-16764833D01*
X5809524Y-16764833D02*
X5819048Y-16783880D01*
X5819048Y-16783880D02*
X5828572Y-16793404D01*
X5828572Y-16793404D02*
X5847619Y-16802928D01*
X5847619Y-16802928D02*
X5885714Y-16802928D01*
X5885714Y-16802928D02*
X5904762Y-16793404D01*
X5904762Y-16793404D02*
X5914286Y-16783880D01*
X5914286Y-16783880D02*
X5923810Y-16764833D01*
X5923810Y-16764833D02*
X5923810Y-16717214D01*
X5923810Y-16717214D02*
X5914286Y-16698166D01*
X5914286Y-16698166D02*
X5904762Y-16688642D01*
X5904762Y-16688642D02*
X5885714Y-16679118D01*
X5885714Y-16679118D02*
X5847619Y-16679118D01*
X5847619Y-16679118D02*
X5828572Y-16688642D01*
X5828572Y-16688642D02*
X5819048Y-16698166D01*
X5819048Y-16698166D02*
X5809524Y-16717214D01*
X6019048Y-16802928D02*
X6057143Y-16802928D01*
X6057143Y-16802928D02*
X6076191Y-16793404D01*
X6076191Y-16793404D02*
X6085714Y-16783880D01*
X6085714Y-16783880D02*
X6104762Y-16755309D01*
X6104762Y-16755309D02*
X6114286Y-16717214D01*
X6114286Y-16717214D02*
X6114286Y-16641023D01*
X6114286Y-16641023D02*
X6104762Y-16621976D01*
X6104762Y-16621976D02*
X6095238Y-16612452D01*
X6095238Y-16612452D02*
X6076191Y-16602928D01*
X6076191Y-16602928D02*
X6038095Y-16602928D01*
X6038095Y-16602928D02*
X6019048Y-16612452D01*
X6019048Y-16612452D02*
X6009524Y-16621976D01*
X6009524Y-16621976D02*
X6000000Y-16641023D01*
X6000000Y-16641023D02*
X6000000Y-16688642D01*
X6000000Y-16688642D02*
X6009524Y-16707690D01*
X6009524Y-16707690D02*
X6019048Y-16717214D01*
X6019048Y-16717214D02*
X6038095Y-16726738D01*
X6038095Y-16726738D02*
X6076191Y-16726738D01*
X6076191Y-16726738D02*
X6095238Y-16717214D01*
X6095238Y-16717214D02*
X6104762Y-16707690D01*
X6104762Y-16707690D02*
X6114286Y-16688642D01*
X6190476Y-16602928D02*
X6190476Y-16641023D01*
X6266667Y-16602928D02*
X6266667Y-16641023D01*
X6561905Y-16879119D02*
X6552381Y-16869595D01*
X6552381Y-16869595D02*
X6533334Y-16841023D01*
X6533334Y-16841023D02*
X6523810Y-16821976D01*
X6523810Y-16821976D02*
X6514286Y-16793404D01*
X6514286Y-16793404D02*
X6504762Y-16745785D01*
X6504762Y-16745785D02*
X6504762Y-16707690D01*
X6504762Y-16707690D02*
X6514286Y-16660071D01*
X6514286Y-16660071D02*
X6523810Y-16631499D01*
X6523810Y-16631499D02*
X6533334Y-16612452D01*
X6533334Y-16612452D02*
X6552381Y-16583880D01*
X6552381Y-16583880D02*
X6561905Y-16574357D01*
X6619048Y-16602928D02*
X6742857Y-16602928D01*
X6742857Y-16602928D02*
X6676191Y-16679118D01*
X6676191Y-16679118D02*
X6704762Y-16679118D01*
X6704762Y-16679118D02*
X6723810Y-16688642D01*
X6723810Y-16688642D02*
X6733334Y-16698166D01*
X6733334Y-16698166D02*
X6742857Y-16717214D01*
X6742857Y-16717214D02*
X6742857Y-16764833D01*
X6742857Y-16764833D02*
X6733334Y-16783880D01*
X6733334Y-16783880D02*
X6723810Y-16793404D01*
X6723810Y-16793404D02*
X6704762Y-16802928D01*
X6704762Y-16802928D02*
X6647619Y-16802928D01*
X6647619Y-16802928D02*
X6628572Y-16793404D01*
X6628572Y-16793404D02*
X6619048Y-16783880D01*
X6914286Y-16602928D02*
X6876191Y-16602928D01*
X6876191Y-16602928D02*
X6857143Y-16612452D01*
X6857143Y-16612452D02*
X6847619Y-16621976D01*
X6847619Y-16621976D02*
X6828572Y-16650547D01*
X6828572Y-16650547D02*
X6819048Y-16688642D01*
X6819048Y-16688642D02*
X6819048Y-16764833D01*
X6819048Y-16764833D02*
X6828572Y-16783880D01*
X6828572Y-16783880D02*
X6838095Y-16793404D01*
X6838095Y-16793404D02*
X6857143Y-16802928D01*
X6857143Y-16802928D02*
X6895238Y-16802928D01*
X6895238Y-16802928D02*
X6914286Y-16793404D01*
X6914286Y-16793404D02*
X6923810Y-16783880D01*
X6923810Y-16783880D02*
X6933334Y-16764833D01*
X6933334Y-16764833D02*
X6933334Y-16717214D01*
X6933334Y-16717214D02*
X6923810Y-16698166D01*
X6923810Y-16698166D02*
X6914286Y-16688642D01*
X6914286Y-16688642D02*
X6895238Y-16679118D01*
X6895238Y-16679118D02*
X6857143Y-16679118D01*
X6857143Y-16679118D02*
X6838095Y-16688642D01*
X6838095Y-16688642D02*
X6828572Y-16698166D01*
X6828572Y-16698166D02*
X6819048Y-16717214D01*
X7171429Y-16802928D02*
X7171429Y-16602928D01*
X7257143Y-16802928D02*
X7257143Y-16698166D01*
X7257143Y-16698166D02*
X7247619Y-16679118D01*
X7247619Y-16679118D02*
X7228572Y-16669595D01*
X7228572Y-16669595D02*
X7200000Y-16669595D01*
X7200000Y-16669595D02*
X7180953Y-16679118D01*
X7180953Y-16679118D02*
X7171429Y-16688642D01*
X7380953Y-16802928D02*
X7361905Y-16793404D01*
X7361905Y-16793404D02*
X7352381Y-16783880D01*
X7352381Y-16783880D02*
X7342857Y-16764833D01*
X7342857Y-16764833D02*
X7342857Y-16707690D01*
X7342857Y-16707690D02*
X7352381Y-16688642D01*
X7352381Y-16688642D02*
X7361905Y-16679118D01*
X7361905Y-16679118D02*
X7380953Y-16669595D01*
X7380953Y-16669595D02*
X7409524Y-16669595D01*
X7409524Y-16669595D02*
X7428572Y-16679118D01*
X7428572Y-16679118D02*
X7438096Y-16688642D01*
X7438096Y-16688642D02*
X7447619Y-16707690D01*
X7447619Y-16707690D02*
X7447619Y-16764833D01*
X7447619Y-16764833D02*
X7438096Y-16783880D01*
X7438096Y-16783880D02*
X7428572Y-16793404D01*
X7428572Y-16793404D02*
X7409524Y-16802928D01*
X7409524Y-16802928D02*
X7380953Y-16802928D01*
X7561905Y-16802928D02*
X7542857Y-16793404D01*
X7542857Y-16793404D02*
X7533334Y-16774357D01*
X7533334Y-16774357D02*
X7533334Y-16602928D01*
X7714286Y-16793404D02*
X7695238Y-16802928D01*
X7695238Y-16802928D02*
X7657143Y-16802928D01*
X7657143Y-16802928D02*
X7638096Y-16793404D01*
X7638096Y-16793404D02*
X7628572Y-16774357D01*
X7628572Y-16774357D02*
X7628572Y-16698166D01*
X7628572Y-16698166D02*
X7638096Y-16679118D01*
X7638096Y-16679118D02*
X7657143Y-16669595D01*
X7657143Y-16669595D02*
X7695238Y-16669595D01*
X7695238Y-16669595D02*
X7714286Y-16679118D01*
X7714286Y-16679118D02*
X7723810Y-16698166D01*
X7723810Y-16698166D02*
X7723810Y-16717214D01*
X7723810Y-16717214D02*
X7628572Y-16736261D01*
X7800000Y-16793404D02*
X7819048Y-16802928D01*
X7819048Y-16802928D02*
X7857143Y-16802928D01*
X7857143Y-16802928D02*
X7876191Y-16793404D01*
X7876191Y-16793404D02*
X7885715Y-16774357D01*
X7885715Y-16774357D02*
X7885715Y-16764833D01*
X7885715Y-16764833D02*
X7876191Y-16745785D01*
X7876191Y-16745785D02*
X7857143Y-16736261D01*
X7857143Y-16736261D02*
X7828572Y-16736261D01*
X7828572Y-16736261D02*
X7809524Y-16726738D01*
X7809524Y-16726738D02*
X7800000Y-16707690D01*
X7800000Y-16707690D02*
X7800000Y-16698166D01*
X7800000Y-16698166D02*
X7809524Y-16679118D01*
X7809524Y-16679118D02*
X7828572Y-16669595D01*
X7828572Y-16669595D02*
X7857143Y-16669595D01*
X7857143Y-16669595D02*
X7876191Y-16679118D01*
X7952381Y-16879119D02*
X7961905Y-16869595D01*
X7961905Y-16869595D02*
X7980953Y-16841023D01*
X7980953Y-16841023D02*
X7990477Y-16821976D01*
X7990477Y-16821976D02*
X8000000Y-16793404D01*
X8000000Y-16793404D02*
X8009524Y-16745785D01*
X8009524Y-16745785D02*
X8009524Y-16707690D01*
X8009524Y-16707690D02*
X8000000Y-16660071D01*
X8000000Y-16660071D02*
X7990477Y-16631499D01*
X7990477Y-16631499D02*
X7980953Y-16612452D01*
X7980953Y-16612452D02*
X7961905Y-16583880D01*
X7961905Y-16583880D02*
X7952381Y-16574357D01*
X8314286Y-16879119D02*
X8304762Y-16869595D01*
X8304762Y-16869595D02*
X8285715Y-16841023D01*
X8285715Y-16841023D02*
X8276191Y-16821976D01*
X8276191Y-16821976D02*
X8266667Y-16793404D01*
X8266667Y-16793404D02*
X8257143Y-16745785D01*
X8257143Y-16745785D02*
X8257143Y-16707690D01*
X8257143Y-16707690D02*
X8266667Y-16660071D01*
X8266667Y-16660071D02*
X8276191Y-16631499D01*
X8276191Y-16631499D02*
X8285715Y-16612452D01*
X8285715Y-16612452D02*
X8304762Y-16583880D01*
X8304762Y-16583880D02*
X8314286Y-16574357D01*
X8390477Y-16669595D02*
X8390477Y-16802928D01*
X8390477Y-16688642D02*
X8400000Y-16679118D01*
X8400000Y-16679118D02*
X8419048Y-16669595D01*
X8419048Y-16669595D02*
X8447620Y-16669595D01*
X8447620Y-16669595D02*
X8466667Y-16679118D01*
X8466667Y-16679118D02*
X8476191Y-16698166D01*
X8476191Y-16698166D02*
X8476191Y-16802928D01*
X8600000Y-16802928D02*
X8580953Y-16793404D01*
X8580953Y-16793404D02*
X8571429Y-16783880D01*
X8571429Y-16783880D02*
X8561905Y-16764833D01*
X8561905Y-16764833D02*
X8561905Y-16707690D01*
X8561905Y-16707690D02*
X8571429Y-16688642D01*
X8571429Y-16688642D02*
X8580953Y-16679118D01*
X8580953Y-16679118D02*
X8600000Y-16669595D01*
X8600000Y-16669595D02*
X8628572Y-16669595D01*
X8628572Y-16669595D02*
X8647620Y-16679118D01*
X8647620Y-16679118D02*
X8657143Y-16688642D01*
X8657143Y-16688642D02*
X8666667Y-16707690D01*
X8666667Y-16707690D02*
X8666667Y-16764833D01*
X8666667Y-16764833D02*
X8657143Y-16783880D01*
X8657143Y-16783880D02*
X8647620Y-16793404D01*
X8647620Y-16793404D02*
X8628572Y-16802928D01*
X8628572Y-16802928D02*
X8600000Y-16802928D01*
X8723810Y-16669595D02*
X8800000Y-16669595D01*
X8752381Y-16602928D02*
X8752381Y-16774357D01*
X8752381Y-16774357D02*
X8761905Y-16793404D01*
X8761905Y-16793404D02*
X8780953Y-16802928D01*
X8780953Y-16802928D02*
X8800000Y-16802928D01*
X9019048Y-16669595D02*
X9019048Y-16869595D01*
X9019048Y-16679118D02*
X9038096Y-16669595D01*
X9038096Y-16669595D02*
X9076191Y-16669595D01*
X9076191Y-16669595D02*
X9095239Y-16679118D01*
X9095239Y-16679118D02*
X9104762Y-16688642D01*
X9104762Y-16688642D02*
X9114286Y-16707690D01*
X9114286Y-16707690D02*
X9114286Y-16764833D01*
X9114286Y-16764833D02*
X9104762Y-16783880D01*
X9104762Y-16783880D02*
X9095239Y-16793404D01*
X9095239Y-16793404D02*
X9076191Y-16802928D01*
X9076191Y-16802928D02*
X9038096Y-16802928D01*
X9038096Y-16802928D02*
X9019048Y-16793404D01*
X9228572Y-16802928D02*
X9209524Y-16793404D01*
X9209524Y-16793404D02*
X9200001Y-16774357D01*
X9200001Y-16774357D02*
X9200001Y-16602928D01*
X9390477Y-16802928D02*
X9390477Y-16698166D01*
X9390477Y-16698166D02*
X9380953Y-16679118D01*
X9380953Y-16679118D02*
X9361905Y-16669595D01*
X9361905Y-16669595D02*
X9323810Y-16669595D01*
X9323810Y-16669595D02*
X9304762Y-16679118D01*
X9390477Y-16793404D02*
X9371429Y-16802928D01*
X9371429Y-16802928D02*
X9323810Y-16802928D01*
X9323810Y-16802928D02*
X9304762Y-16793404D01*
X9304762Y-16793404D02*
X9295239Y-16774357D01*
X9295239Y-16774357D02*
X9295239Y-16755309D01*
X9295239Y-16755309D02*
X9304762Y-16736261D01*
X9304762Y-16736261D02*
X9323810Y-16726738D01*
X9323810Y-16726738D02*
X9371429Y-16726738D01*
X9371429Y-16726738D02*
X9390477Y-16717214D01*
X9457143Y-16669595D02*
X9533334Y-16669595D01*
X9485715Y-16602928D02*
X9485715Y-16774357D01*
X9485715Y-16774357D02*
X9495239Y-16793404D01*
X9495239Y-16793404D02*
X9514286Y-16802928D01*
X9514286Y-16802928D02*
X9533334Y-16802928D01*
X9676191Y-16793404D02*
X9657143Y-16802928D01*
X9657143Y-16802928D02*
X9619048Y-16802928D01*
X9619048Y-16802928D02*
X9600001Y-16793404D01*
X9600001Y-16793404D02*
X9590477Y-16774357D01*
X9590477Y-16774357D02*
X9590477Y-16698166D01*
X9590477Y-16698166D02*
X9600001Y-16679118D01*
X9600001Y-16679118D02*
X9619048Y-16669595D01*
X9619048Y-16669595D02*
X9657143Y-16669595D01*
X9657143Y-16669595D02*
X9676191Y-16679118D01*
X9676191Y-16679118D02*
X9685715Y-16698166D01*
X9685715Y-16698166D02*
X9685715Y-16717214D01*
X9685715Y-16717214D02*
X9590477Y-16736261D01*
X9857143Y-16802928D02*
X9857143Y-16602928D01*
X9857143Y-16793404D02*
X9838096Y-16802928D01*
X9838096Y-16802928D02*
X9800001Y-16802928D01*
X9800001Y-16802928D02*
X9780953Y-16793404D01*
X9780953Y-16793404D02*
X9771429Y-16783880D01*
X9771429Y-16783880D02*
X9761905Y-16764833D01*
X9761905Y-16764833D02*
X9761905Y-16707690D01*
X9761905Y-16707690D02*
X9771429Y-16688642D01*
X9771429Y-16688642D02*
X9780953Y-16679118D01*
X9780953Y-16679118D02*
X9800001Y-16669595D01*
X9800001Y-16669595D02*
X9838096Y-16669595D01*
X9838096Y-16669595D02*
X9857143Y-16679118D01*
X9933334Y-16879119D02*
X9942858Y-16869595D01*
X9942858Y-16869595D02*
X9961905Y-16841023D01*
X9961905Y-16841023D02*
X9971429Y-16821976D01*
X9971429Y-16821976D02*
X9980953Y-16793404D01*
X9980953Y-16793404D02*
X9990477Y-16745785D01*
X9990477Y-16745785D02*
X9990477Y-16707690D01*
X9990477Y-16707690D02*
X9980953Y-16660071D01*
X9980953Y-16660071D02*
X9971429Y-16631499D01*
X9971429Y-16631499D02*
X9961905Y-16612452D01*
X9961905Y-16612452D02*
X9942858Y-16583880D01*
X9942858Y-16583880D02*
X9933334Y-16574357D01*
X2900000Y-16900404D02*
X2900000Y-17100404D01*
X2800000Y-17000404D02*
X3000000Y-17000404D01*
X3228571Y-16892928D02*
X3352381Y-16892928D01*
X3352381Y-16892928D02*
X3285714Y-16969119D01*
X3285714Y-16969119D02*
X3314286Y-16969119D01*
X3314286Y-16969119D02*
X3333333Y-16978642D01*
X3333333Y-16978642D02*
X3342857Y-16988166D01*
X3342857Y-16988166D02*
X3352381Y-17007214D01*
X3352381Y-17007214D02*
X3352381Y-17054833D01*
X3352381Y-17054833D02*
X3342857Y-17073880D01*
X3342857Y-17073880D02*
X3333333Y-17083404D01*
X3333333Y-17083404D02*
X3314286Y-17092928D01*
X3314286Y-17092928D02*
X3257143Y-17092928D01*
X3257143Y-17092928D02*
X3238095Y-17083404D01*
X3238095Y-17083404D02*
X3228571Y-17073880D01*
X3438095Y-17073880D02*
X3447619Y-17083404D01*
X3447619Y-17083404D02*
X3438095Y-17092928D01*
X3438095Y-17092928D02*
X3428571Y-17083404D01*
X3428571Y-17083404D02*
X3438095Y-17073880D01*
X3438095Y-17073880D02*
X3438095Y-17092928D01*
X3571428Y-16892928D02*
X3590476Y-16892928D01*
X3590476Y-16892928D02*
X3609524Y-16902452D01*
X3609524Y-16902452D02*
X3619048Y-16911976D01*
X3619048Y-16911976D02*
X3628571Y-16931023D01*
X3628571Y-16931023D02*
X3638095Y-16969119D01*
X3638095Y-16969119D02*
X3638095Y-17016738D01*
X3638095Y-17016738D02*
X3628571Y-17054833D01*
X3628571Y-17054833D02*
X3619048Y-17073880D01*
X3619048Y-17073880D02*
X3609524Y-17083404D01*
X3609524Y-17083404D02*
X3590476Y-17092928D01*
X3590476Y-17092928D02*
X3571428Y-17092928D01*
X3571428Y-17092928D02*
X3552381Y-17083404D01*
X3552381Y-17083404D02*
X3542857Y-17073880D01*
X3542857Y-17073880D02*
X3533333Y-17054833D01*
X3533333Y-17054833D02*
X3523809Y-17016738D01*
X3523809Y-17016738D02*
X3523809Y-16969119D01*
X3523809Y-16969119D02*
X3533333Y-16931023D01*
X3533333Y-16931023D02*
X3542857Y-16911976D01*
X3542857Y-16911976D02*
X3552381Y-16902452D01*
X3552381Y-16902452D02*
X3571428Y-16892928D01*
X3761905Y-16892928D02*
X3780952Y-16892928D01*
X3780952Y-16892928D02*
X3800000Y-16902452D01*
X3800000Y-16902452D02*
X3809524Y-16911976D01*
X3809524Y-16911976D02*
X3819048Y-16931023D01*
X3819048Y-16931023D02*
X3828571Y-16969119D01*
X3828571Y-16969119D02*
X3828571Y-17016738D01*
X3828571Y-17016738D02*
X3819048Y-17054833D01*
X3819048Y-17054833D02*
X3809524Y-17073880D01*
X3809524Y-17073880D02*
X3800000Y-17083404D01*
X3800000Y-17083404D02*
X3780952Y-17092928D01*
X3780952Y-17092928D02*
X3761905Y-17092928D01*
X3761905Y-17092928D02*
X3742857Y-17083404D01*
X3742857Y-17083404D02*
X3733333Y-17073880D01*
X3733333Y-17073880D02*
X3723809Y-17054833D01*
X3723809Y-17054833D02*
X3714286Y-17016738D01*
X3714286Y-17016738D02*
X3714286Y-16969119D01*
X3714286Y-16969119D02*
X3723809Y-16931023D01*
X3723809Y-16931023D02*
X3733333Y-16911976D01*
X3733333Y-16911976D02*
X3742857Y-16902452D01*
X3742857Y-16902452D02*
X3761905Y-16892928D01*
X3952381Y-16892928D02*
X3971429Y-16892928D01*
X3971429Y-16892928D02*
X3990476Y-16902452D01*
X3990476Y-16902452D02*
X4000000Y-16911976D01*
X4000000Y-16911976D02*
X4009524Y-16931023D01*
X4009524Y-16931023D02*
X4019048Y-16969119D01*
X4019048Y-16969119D02*
X4019048Y-17016738D01*
X4019048Y-17016738D02*
X4009524Y-17054833D01*
X4009524Y-17054833D02*
X4000000Y-17073880D01*
X4000000Y-17073880D02*
X3990476Y-17083404D01*
X3990476Y-17083404D02*
X3971429Y-17092928D01*
X3971429Y-17092928D02*
X3952381Y-17092928D01*
X3952381Y-17092928D02*
X3933333Y-17083404D01*
X3933333Y-17083404D02*
X3923809Y-17073880D01*
X3923809Y-17073880D02*
X3914286Y-17054833D01*
X3914286Y-17054833D02*
X3904762Y-17016738D01*
X3904762Y-17016738D02*
X3904762Y-16969119D01*
X3904762Y-16969119D02*
X3914286Y-16931023D01*
X3914286Y-16931023D02*
X3923809Y-16911976D01*
X3923809Y-16911976D02*
X3933333Y-16902452D01*
X3933333Y-16902452D02*
X3952381Y-16892928D01*
X4104762Y-17092928D02*
X4104762Y-16959595D01*
X4104762Y-16978642D02*
X4114286Y-16969119D01*
X4114286Y-16969119D02*
X4133333Y-16959595D01*
X4133333Y-16959595D02*
X4161905Y-16959595D01*
X4161905Y-16959595D02*
X4180952Y-16969119D01*
X4180952Y-16969119D02*
X4190476Y-16988166D01*
X4190476Y-16988166D02*
X4190476Y-17092928D01*
X4190476Y-16988166D02*
X4200000Y-16969119D01*
X4200000Y-16969119D02*
X4219048Y-16959595D01*
X4219048Y-16959595D02*
X4247619Y-16959595D01*
X4247619Y-16959595D02*
X4266667Y-16969119D01*
X4266667Y-16969119D02*
X4276191Y-16988166D01*
X4276191Y-16988166D02*
X4276191Y-17092928D01*
X4371429Y-17092928D02*
X4371429Y-16959595D01*
X4371429Y-16978642D02*
X4380952Y-16969119D01*
X4380952Y-16969119D02*
X4400000Y-16959595D01*
X4400000Y-16959595D02*
X4428572Y-16959595D01*
X4428572Y-16959595D02*
X4447619Y-16969119D01*
X4447619Y-16969119D02*
X4457143Y-16988166D01*
X4457143Y-16988166D02*
X4457143Y-17092928D01*
X4457143Y-16988166D02*
X4466667Y-16969119D01*
X4466667Y-16969119D02*
X4485714Y-16959595D01*
X4485714Y-16959595D02*
X4514286Y-16959595D01*
X4514286Y-16959595D02*
X4533333Y-16969119D01*
X4533333Y-16969119D02*
X4542857Y-16988166D01*
X4542857Y-16988166D02*
X4542857Y-17092928D01*
X4933333Y-16883404D02*
X4761905Y-17140547D01*
X5190476Y-16892928D02*
X5209524Y-16892928D01*
X5209524Y-16892928D02*
X5228572Y-16902452D01*
X5228572Y-16902452D02*
X5238095Y-16911976D01*
X5238095Y-16911976D02*
X5247619Y-16931023D01*
X5247619Y-16931023D02*
X5257143Y-16969119D01*
X5257143Y-16969119D02*
X5257143Y-17016738D01*
X5257143Y-17016738D02*
X5247619Y-17054833D01*
X5247619Y-17054833D02*
X5238095Y-17073880D01*
X5238095Y-17073880D02*
X5228572Y-17083404D01*
X5228572Y-17083404D02*
X5209524Y-17092928D01*
X5209524Y-17092928D02*
X5190476Y-17092928D01*
X5190476Y-17092928D02*
X5171429Y-17083404D01*
X5171429Y-17083404D02*
X5161905Y-17073880D01*
X5161905Y-17073880D02*
X5152381Y-17054833D01*
X5152381Y-17054833D02*
X5142857Y-17016738D01*
X5142857Y-17016738D02*
X5142857Y-16969119D01*
X5142857Y-16969119D02*
X5152381Y-16931023D01*
X5152381Y-16931023D02*
X5161905Y-16911976D01*
X5161905Y-16911976D02*
X5171429Y-16902452D01*
X5171429Y-16902452D02*
X5190476Y-16892928D01*
X5342857Y-17073880D02*
X5352381Y-17083404D01*
X5352381Y-17083404D02*
X5342857Y-17092928D01*
X5342857Y-17092928D02*
X5333334Y-17083404D01*
X5333334Y-17083404D02*
X5342857Y-17073880D01*
X5342857Y-17073880D02*
X5342857Y-17092928D01*
X5542857Y-17092928D02*
X5428572Y-17092928D01*
X5485714Y-17092928D02*
X5485714Y-16892928D01*
X5485714Y-16892928D02*
X5466667Y-16921500D01*
X5466667Y-16921500D02*
X5447619Y-16940547D01*
X5447619Y-16940547D02*
X5428572Y-16950071D01*
X5733333Y-17092928D02*
X5619048Y-17092928D01*
X5676191Y-17092928D02*
X5676191Y-16892928D01*
X5676191Y-16892928D02*
X5657143Y-16921500D01*
X5657143Y-16921500D02*
X5638095Y-16940547D01*
X5638095Y-16940547D02*
X5619048Y-16950071D01*
X5847619Y-16978642D02*
X5828572Y-16969119D01*
X5828572Y-16969119D02*
X5819048Y-16959595D01*
X5819048Y-16959595D02*
X5809524Y-16940547D01*
X5809524Y-16940547D02*
X5809524Y-16931023D01*
X5809524Y-16931023D02*
X5819048Y-16911976D01*
X5819048Y-16911976D02*
X5828572Y-16902452D01*
X5828572Y-16902452D02*
X5847619Y-16892928D01*
X5847619Y-16892928D02*
X5885714Y-16892928D01*
X5885714Y-16892928D02*
X5904762Y-16902452D01*
X5904762Y-16902452D02*
X5914286Y-16911976D01*
X5914286Y-16911976D02*
X5923810Y-16931023D01*
X5923810Y-16931023D02*
X5923810Y-16940547D01*
X5923810Y-16940547D02*
X5914286Y-16959595D01*
X5914286Y-16959595D02*
X5904762Y-16969119D01*
X5904762Y-16969119D02*
X5885714Y-16978642D01*
X5885714Y-16978642D02*
X5847619Y-16978642D01*
X5847619Y-16978642D02*
X5828572Y-16988166D01*
X5828572Y-16988166D02*
X5819048Y-16997690D01*
X5819048Y-16997690D02*
X5809524Y-17016738D01*
X5809524Y-17016738D02*
X5809524Y-17054833D01*
X5809524Y-17054833D02*
X5819048Y-17073880D01*
X5819048Y-17073880D02*
X5828572Y-17083404D01*
X5828572Y-17083404D02*
X5847619Y-17092928D01*
X5847619Y-17092928D02*
X5885714Y-17092928D01*
X5885714Y-17092928D02*
X5904762Y-17083404D01*
X5904762Y-17083404D02*
X5914286Y-17073880D01*
X5914286Y-17073880D02*
X5923810Y-17054833D01*
X5923810Y-17054833D02*
X5923810Y-17016738D01*
X5923810Y-17016738D02*
X5914286Y-16997690D01*
X5914286Y-16997690D02*
X5904762Y-16988166D01*
X5904762Y-16988166D02*
X5885714Y-16978642D01*
X6114286Y-17092928D02*
X6000000Y-17092928D01*
X6057143Y-17092928D02*
X6057143Y-16892928D01*
X6057143Y-16892928D02*
X6038095Y-16921500D01*
X6038095Y-16921500D02*
X6019048Y-16940547D01*
X6019048Y-16940547D02*
X6000000Y-16950071D01*
X6190476Y-16892928D02*
X6190476Y-16931023D01*
X6266667Y-16892928D02*
X6266667Y-16931023D01*
X6561905Y-17169119D02*
X6552381Y-17159595D01*
X6552381Y-17159595D02*
X6533334Y-17131023D01*
X6533334Y-17131023D02*
X6523810Y-17111976D01*
X6523810Y-17111976D02*
X6514286Y-17083404D01*
X6514286Y-17083404D02*
X6504762Y-17035785D01*
X6504762Y-17035785D02*
X6504762Y-16997690D01*
X6504762Y-16997690D02*
X6514286Y-16950071D01*
X6514286Y-16950071D02*
X6523810Y-16921500D01*
X6523810Y-16921500D02*
X6533334Y-16902452D01*
X6533334Y-16902452D02*
X6552381Y-16873880D01*
X6552381Y-16873880D02*
X6561905Y-16864357D01*
X6619048Y-16892928D02*
X6752381Y-16892928D01*
X6752381Y-16892928D02*
X6666667Y-17092928D01*
X6819048Y-16911976D02*
X6828572Y-16902452D01*
X6828572Y-16902452D02*
X6847619Y-16892928D01*
X6847619Y-16892928D02*
X6895238Y-16892928D01*
X6895238Y-16892928D02*
X6914286Y-16902452D01*
X6914286Y-16902452D02*
X6923810Y-16911976D01*
X6923810Y-16911976D02*
X6933334Y-16931023D01*
X6933334Y-16931023D02*
X6933334Y-16950071D01*
X6933334Y-16950071D02*
X6923810Y-16978642D01*
X6923810Y-16978642D02*
X6809524Y-17092928D01*
X6809524Y-17092928D02*
X6933334Y-17092928D01*
X7171429Y-17092928D02*
X7171429Y-16892928D01*
X7257143Y-17092928D02*
X7257143Y-16988166D01*
X7257143Y-16988166D02*
X7247619Y-16969119D01*
X7247619Y-16969119D02*
X7228572Y-16959595D01*
X7228572Y-16959595D02*
X7200000Y-16959595D01*
X7200000Y-16959595D02*
X7180953Y-16969119D01*
X7180953Y-16969119D02*
X7171429Y-16978642D01*
X7380953Y-17092928D02*
X7361905Y-17083404D01*
X7361905Y-17083404D02*
X7352381Y-17073880D01*
X7352381Y-17073880D02*
X7342857Y-17054833D01*
X7342857Y-17054833D02*
X7342857Y-16997690D01*
X7342857Y-16997690D02*
X7352381Y-16978642D01*
X7352381Y-16978642D02*
X7361905Y-16969119D01*
X7361905Y-16969119D02*
X7380953Y-16959595D01*
X7380953Y-16959595D02*
X7409524Y-16959595D01*
X7409524Y-16959595D02*
X7428572Y-16969119D01*
X7428572Y-16969119D02*
X7438096Y-16978642D01*
X7438096Y-16978642D02*
X7447619Y-16997690D01*
X7447619Y-16997690D02*
X7447619Y-17054833D01*
X7447619Y-17054833D02*
X7438096Y-17073880D01*
X7438096Y-17073880D02*
X7428572Y-17083404D01*
X7428572Y-17083404D02*
X7409524Y-17092928D01*
X7409524Y-17092928D02*
X7380953Y-17092928D01*
X7561905Y-17092928D02*
X7542857Y-17083404D01*
X7542857Y-17083404D02*
X7533334Y-17064357D01*
X7533334Y-17064357D02*
X7533334Y-16892928D01*
X7714286Y-17083404D02*
X7695238Y-17092928D01*
X7695238Y-17092928D02*
X7657143Y-17092928D01*
X7657143Y-17092928D02*
X7638096Y-17083404D01*
X7638096Y-17083404D02*
X7628572Y-17064357D01*
X7628572Y-17064357D02*
X7628572Y-16988166D01*
X7628572Y-16988166D02*
X7638096Y-16969119D01*
X7638096Y-16969119D02*
X7657143Y-16959595D01*
X7657143Y-16959595D02*
X7695238Y-16959595D01*
X7695238Y-16959595D02*
X7714286Y-16969119D01*
X7714286Y-16969119D02*
X7723810Y-16988166D01*
X7723810Y-16988166D02*
X7723810Y-17007214D01*
X7723810Y-17007214D02*
X7628572Y-17026261D01*
X7800000Y-17083404D02*
X7819048Y-17092928D01*
X7819048Y-17092928D02*
X7857143Y-17092928D01*
X7857143Y-17092928D02*
X7876191Y-17083404D01*
X7876191Y-17083404D02*
X7885715Y-17064357D01*
X7885715Y-17064357D02*
X7885715Y-17054833D01*
X7885715Y-17054833D02*
X7876191Y-17035785D01*
X7876191Y-17035785D02*
X7857143Y-17026261D01*
X7857143Y-17026261D02*
X7828572Y-17026261D01*
X7828572Y-17026261D02*
X7809524Y-17016738D01*
X7809524Y-17016738D02*
X7800000Y-16997690D01*
X7800000Y-16997690D02*
X7800000Y-16988166D01*
X7800000Y-16988166D02*
X7809524Y-16969119D01*
X7809524Y-16969119D02*
X7828572Y-16959595D01*
X7828572Y-16959595D02*
X7857143Y-16959595D01*
X7857143Y-16959595D02*
X7876191Y-16969119D01*
X7952381Y-17169119D02*
X7961905Y-17159595D01*
X7961905Y-17159595D02*
X7980953Y-17131023D01*
X7980953Y-17131023D02*
X7990477Y-17111976D01*
X7990477Y-17111976D02*
X8000000Y-17083404D01*
X8000000Y-17083404D02*
X8009524Y-17035785D01*
X8009524Y-17035785D02*
X8009524Y-16997690D01*
X8009524Y-16997690D02*
X8000000Y-16950071D01*
X8000000Y-16950071D02*
X7990477Y-16921500D01*
X7990477Y-16921500D02*
X7980953Y-16902452D01*
X7980953Y-16902452D02*
X7961905Y-16873880D01*
X7961905Y-16873880D02*
X7952381Y-16864357D01*
X8314286Y-17169119D02*
X8304762Y-17159595D01*
X8304762Y-17159595D02*
X8285715Y-17131023D01*
X8285715Y-17131023D02*
X8276191Y-17111976D01*
X8276191Y-17111976D02*
X8266667Y-17083404D01*
X8266667Y-17083404D02*
X8257143Y-17035785D01*
X8257143Y-17035785D02*
X8257143Y-16997690D01*
X8257143Y-16997690D02*
X8266667Y-16950071D01*
X8266667Y-16950071D02*
X8276191Y-16921500D01*
X8276191Y-16921500D02*
X8285715Y-16902452D01*
X8285715Y-16902452D02*
X8304762Y-16873880D01*
X8304762Y-16873880D02*
X8314286Y-16864357D01*
X8390477Y-16959595D02*
X8390477Y-17092928D01*
X8390477Y-16978642D02*
X8400000Y-16969119D01*
X8400000Y-16969119D02*
X8419048Y-16959595D01*
X8419048Y-16959595D02*
X8447620Y-16959595D01*
X8447620Y-16959595D02*
X8466667Y-16969119D01*
X8466667Y-16969119D02*
X8476191Y-16988166D01*
X8476191Y-16988166D02*
X8476191Y-17092928D01*
X8600000Y-17092928D02*
X8580953Y-17083404D01*
X8580953Y-17083404D02*
X8571429Y-17073880D01*
X8571429Y-17073880D02*
X8561905Y-17054833D01*
X8561905Y-17054833D02*
X8561905Y-16997690D01*
X8561905Y-16997690D02*
X8571429Y-16978642D01*
X8571429Y-16978642D02*
X8580953Y-16969119D01*
X8580953Y-16969119D02*
X8600000Y-16959595D01*
X8600000Y-16959595D02*
X8628572Y-16959595D01*
X8628572Y-16959595D02*
X8647620Y-16969119D01*
X8647620Y-16969119D02*
X8657143Y-16978642D01*
X8657143Y-16978642D02*
X8666667Y-16997690D01*
X8666667Y-16997690D02*
X8666667Y-17054833D01*
X8666667Y-17054833D02*
X8657143Y-17073880D01*
X8657143Y-17073880D02*
X8647620Y-17083404D01*
X8647620Y-17083404D02*
X8628572Y-17092928D01*
X8628572Y-17092928D02*
X8600000Y-17092928D01*
X8723810Y-16959595D02*
X8800000Y-16959595D01*
X8752381Y-16892928D02*
X8752381Y-17064357D01*
X8752381Y-17064357D02*
X8761905Y-17083404D01*
X8761905Y-17083404D02*
X8780953Y-17092928D01*
X8780953Y-17092928D02*
X8800000Y-17092928D01*
X9019048Y-16959595D02*
X9019048Y-17159595D01*
X9019048Y-16969119D02*
X9038096Y-16959595D01*
X9038096Y-16959595D02*
X9076191Y-16959595D01*
X9076191Y-16959595D02*
X9095239Y-16969119D01*
X9095239Y-16969119D02*
X9104762Y-16978642D01*
X9104762Y-16978642D02*
X9114286Y-16997690D01*
X9114286Y-16997690D02*
X9114286Y-17054833D01*
X9114286Y-17054833D02*
X9104762Y-17073880D01*
X9104762Y-17073880D02*
X9095239Y-17083404D01*
X9095239Y-17083404D02*
X9076191Y-17092928D01*
X9076191Y-17092928D02*
X9038096Y-17092928D01*
X9038096Y-17092928D02*
X9019048Y-17083404D01*
X9228572Y-17092928D02*
X9209524Y-17083404D01*
X9209524Y-17083404D02*
X9200001Y-17064357D01*
X9200001Y-17064357D02*
X9200001Y-16892928D01*
X9390477Y-17092928D02*
X9390477Y-16988166D01*
X9390477Y-16988166D02*
X9380953Y-16969119D01*
X9380953Y-16969119D02*
X9361905Y-16959595D01*
X9361905Y-16959595D02*
X9323810Y-16959595D01*
X9323810Y-16959595D02*
X9304762Y-16969119D01*
X9390477Y-17083404D02*
X9371429Y-17092928D01*
X9371429Y-17092928D02*
X9323810Y-17092928D01*
X9323810Y-17092928D02*
X9304762Y-17083404D01*
X9304762Y-17083404D02*
X9295239Y-17064357D01*
X9295239Y-17064357D02*
X9295239Y-17045309D01*
X9295239Y-17045309D02*
X9304762Y-17026261D01*
X9304762Y-17026261D02*
X9323810Y-17016738D01*
X9323810Y-17016738D02*
X9371429Y-17016738D01*
X9371429Y-17016738D02*
X9390477Y-17007214D01*
X9457143Y-16959595D02*
X9533334Y-16959595D01*
X9485715Y-16892928D02*
X9485715Y-17064357D01*
X9485715Y-17064357D02*
X9495239Y-17083404D01*
X9495239Y-17083404D02*
X9514286Y-17092928D01*
X9514286Y-17092928D02*
X9533334Y-17092928D01*
X9676191Y-17083404D02*
X9657143Y-17092928D01*
X9657143Y-17092928D02*
X9619048Y-17092928D01*
X9619048Y-17092928D02*
X9600001Y-17083404D01*
X9600001Y-17083404D02*
X9590477Y-17064357D01*
X9590477Y-17064357D02*
X9590477Y-16988166D01*
X9590477Y-16988166D02*
X9600001Y-16969119D01*
X9600001Y-16969119D02*
X9619048Y-16959595D01*
X9619048Y-16959595D02*
X9657143Y-16959595D01*
X9657143Y-16959595D02*
X9676191Y-16969119D01*
X9676191Y-16969119D02*
X9685715Y-16988166D01*
X9685715Y-16988166D02*
X9685715Y-17007214D01*
X9685715Y-17007214D02*
X9590477Y-17026261D01*
X9857143Y-17092928D02*
X9857143Y-16892928D01*
X9857143Y-17083404D02*
X9838096Y-17092928D01*
X9838096Y-17092928D02*
X9800001Y-17092928D01*
X9800001Y-17092928D02*
X9780953Y-17083404D01*
X9780953Y-17083404D02*
X9771429Y-17073880D01*
X9771429Y-17073880D02*
X9761905Y-17054833D01*
X9761905Y-17054833D02*
X9761905Y-16997690D01*
X9761905Y-16997690D02*
X9771429Y-16978642D01*
X9771429Y-16978642D02*
X9780953Y-16969119D01*
X9780953Y-16969119D02*
X9800001Y-16959595D01*
X9800001Y-16959595D02*
X9838096Y-16959595D01*
X9838096Y-16959595D02*
X9857143Y-16969119D01*
X9933334Y-17169119D02*
X9942858Y-17159595D01*
X9942858Y-17159595D02*
X9961905Y-17131023D01*
X9961905Y-17131023D02*
X9971429Y-17111976D01*
X9971429Y-17111976D02*
X9980953Y-17083404D01*
X9980953Y-17083404D02*
X9990477Y-17035785D01*
X9990477Y-17035785D02*
X9990477Y-16997690D01*
X9990477Y-16997690D02*
X9980953Y-16950071D01*
X9980953Y-16950071D02*
X9971429Y-16921500D01*
X9971429Y-16921500D02*
X9961905Y-16902452D01*
X9961905Y-16902452D02*
X9942858Y-16873880D01*
X9942858Y-16873880D02*
X9933334Y-16864357D01*
X2970711Y-17391116D02*
X2970711Y-17249693D01*
X2829289Y-17249693D01*
X2829289Y-17391116D01*
X2970711Y-17391116D01*
X3333333Y-17279595D02*
X3333333Y-17412928D01*
X3285714Y-17203404D02*
X3238095Y-17346261D01*
X3238095Y-17346261D02*
X3361905Y-17346261D01*
X3438095Y-17393880D02*
X3447619Y-17403404D01*
X3447619Y-17403404D02*
X3438095Y-17412928D01*
X3438095Y-17412928D02*
X3428571Y-17403404D01*
X3428571Y-17403404D02*
X3438095Y-17393880D01*
X3438095Y-17393880D02*
X3438095Y-17412928D01*
X3571428Y-17212928D02*
X3590476Y-17212928D01*
X3590476Y-17212928D02*
X3609524Y-17222452D01*
X3609524Y-17222452D02*
X3619048Y-17231976D01*
X3619048Y-17231976D02*
X3628571Y-17251023D01*
X3628571Y-17251023D02*
X3638095Y-17289119D01*
X3638095Y-17289119D02*
X3638095Y-17336738D01*
X3638095Y-17336738D02*
X3628571Y-17374833D01*
X3628571Y-17374833D02*
X3619048Y-17393880D01*
X3619048Y-17393880D02*
X3609524Y-17403404D01*
X3609524Y-17403404D02*
X3590476Y-17412928D01*
X3590476Y-17412928D02*
X3571428Y-17412928D01*
X3571428Y-17412928D02*
X3552381Y-17403404D01*
X3552381Y-17403404D02*
X3542857Y-17393880D01*
X3542857Y-17393880D02*
X3533333Y-17374833D01*
X3533333Y-17374833D02*
X3523809Y-17336738D01*
X3523809Y-17336738D02*
X3523809Y-17289119D01*
X3523809Y-17289119D02*
X3533333Y-17251023D01*
X3533333Y-17251023D02*
X3542857Y-17231976D01*
X3542857Y-17231976D02*
X3552381Y-17222452D01*
X3552381Y-17222452D02*
X3571428Y-17212928D01*
X3761905Y-17212928D02*
X3780952Y-17212928D01*
X3780952Y-17212928D02*
X3800000Y-17222452D01*
X3800000Y-17222452D02*
X3809524Y-17231976D01*
X3809524Y-17231976D02*
X3819048Y-17251023D01*
X3819048Y-17251023D02*
X3828571Y-17289119D01*
X3828571Y-17289119D02*
X3828571Y-17336738D01*
X3828571Y-17336738D02*
X3819048Y-17374833D01*
X3819048Y-17374833D02*
X3809524Y-17393880D01*
X3809524Y-17393880D02*
X3800000Y-17403404D01*
X3800000Y-17403404D02*
X3780952Y-17412928D01*
X3780952Y-17412928D02*
X3761905Y-17412928D01*
X3761905Y-17412928D02*
X3742857Y-17403404D01*
X3742857Y-17403404D02*
X3733333Y-17393880D01*
X3733333Y-17393880D02*
X3723809Y-17374833D01*
X3723809Y-17374833D02*
X3714286Y-17336738D01*
X3714286Y-17336738D02*
X3714286Y-17289119D01*
X3714286Y-17289119D02*
X3723809Y-17251023D01*
X3723809Y-17251023D02*
X3733333Y-17231976D01*
X3733333Y-17231976D02*
X3742857Y-17222452D01*
X3742857Y-17222452D02*
X3761905Y-17212928D01*
X3952381Y-17212928D02*
X3971429Y-17212928D01*
X3971429Y-17212928D02*
X3990476Y-17222452D01*
X3990476Y-17222452D02*
X4000000Y-17231976D01*
X4000000Y-17231976D02*
X4009524Y-17251023D01*
X4009524Y-17251023D02*
X4019048Y-17289119D01*
X4019048Y-17289119D02*
X4019048Y-17336738D01*
X4019048Y-17336738D02*
X4009524Y-17374833D01*
X4009524Y-17374833D02*
X4000000Y-17393880D01*
X4000000Y-17393880D02*
X3990476Y-17403404D01*
X3990476Y-17403404D02*
X3971429Y-17412928D01*
X3971429Y-17412928D02*
X3952381Y-17412928D01*
X3952381Y-17412928D02*
X3933333Y-17403404D01*
X3933333Y-17403404D02*
X3923809Y-17393880D01*
X3923809Y-17393880D02*
X3914286Y-17374833D01*
X3914286Y-17374833D02*
X3904762Y-17336738D01*
X3904762Y-17336738D02*
X3904762Y-17289119D01*
X3904762Y-17289119D02*
X3914286Y-17251023D01*
X3914286Y-17251023D02*
X3923809Y-17231976D01*
X3923809Y-17231976D02*
X3933333Y-17222452D01*
X3933333Y-17222452D02*
X3952381Y-17212928D01*
X4104762Y-17412928D02*
X4104762Y-17279595D01*
X4104762Y-17298642D02*
X4114286Y-17289119D01*
X4114286Y-17289119D02*
X4133333Y-17279595D01*
X4133333Y-17279595D02*
X4161905Y-17279595D01*
X4161905Y-17279595D02*
X4180952Y-17289119D01*
X4180952Y-17289119D02*
X4190476Y-17308166D01*
X4190476Y-17308166D02*
X4190476Y-17412928D01*
X4190476Y-17308166D02*
X4200000Y-17289119D01*
X4200000Y-17289119D02*
X4219048Y-17279595D01*
X4219048Y-17279595D02*
X4247619Y-17279595D01*
X4247619Y-17279595D02*
X4266667Y-17289119D01*
X4266667Y-17289119D02*
X4276191Y-17308166D01*
X4276191Y-17308166D02*
X4276191Y-17412928D01*
X4371429Y-17412928D02*
X4371429Y-17279595D01*
X4371429Y-17298642D02*
X4380952Y-17289119D01*
X4380952Y-17289119D02*
X4400000Y-17279595D01*
X4400000Y-17279595D02*
X4428572Y-17279595D01*
X4428572Y-17279595D02*
X4447619Y-17289119D01*
X4447619Y-17289119D02*
X4457143Y-17308166D01*
X4457143Y-17308166D02*
X4457143Y-17412928D01*
X4457143Y-17308166D02*
X4466667Y-17289119D01*
X4466667Y-17289119D02*
X4485714Y-17279595D01*
X4485714Y-17279595D02*
X4514286Y-17279595D01*
X4514286Y-17279595D02*
X4533333Y-17289119D01*
X4533333Y-17289119D02*
X4542857Y-17308166D01*
X4542857Y-17308166D02*
X4542857Y-17412928D01*
X4933333Y-17203404D02*
X4761905Y-17460547D01*
X5190476Y-17212928D02*
X5209524Y-17212928D01*
X5209524Y-17212928D02*
X5228572Y-17222452D01*
X5228572Y-17222452D02*
X5238095Y-17231976D01*
X5238095Y-17231976D02*
X5247619Y-17251023D01*
X5247619Y-17251023D02*
X5257143Y-17289119D01*
X5257143Y-17289119D02*
X5257143Y-17336738D01*
X5257143Y-17336738D02*
X5247619Y-17374833D01*
X5247619Y-17374833D02*
X5238095Y-17393880D01*
X5238095Y-17393880D02*
X5228572Y-17403404D01*
X5228572Y-17403404D02*
X5209524Y-17412928D01*
X5209524Y-17412928D02*
X5190476Y-17412928D01*
X5190476Y-17412928D02*
X5171429Y-17403404D01*
X5171429Y-17403404D02*
X5161905Y-17393880D01*
X5161905Y-17393880D02*
X5152381Y-17374833D01*
X5152381Y-17374833D02*
X5142857Y-17336738D01*
X5142857Y-17336738D02*
X5142857Y-17289119D01*
X5142857Y-17289119D02*
X5152381Y-17251023D01*
X5152381Y-17251023D02*
X5161905Y-17231976D01*
X5161905Y-17231976D02*
X5171429Y-17222452D01*
X5171429Y-17222452D02*
X5190476Y-17212928D01*
X5342857Y-17393880D02*
X5352381Y-17403404D01*
X5352381Y-17403404D02*
X5342857Y-17412928D01*
X5342857Y-17412928D02*
X5333334Y-17403404D01*
X5333334Y-17403404D02*
X5342857Y-17393880D01*
X5342857Y-17393880D02*
X5342857Y-17412928D01*
X5542857Y-17412928D02*
X5428572Y-17412928D01*
X5485714Y-17412928D02*
X5485714Y-17212928D01*
X5485714Y-17212928D02*
X5466667Y-17241500D01*
X5466667Y-17241500D02*
X5447619Y-17260547D01*
X5447619Y-17260547D02*
X5428572Y-17270071D01*
X5723810Y-17212928D02*
X5628572Y-17212928D01*
X5628572Y-17212928D02*
X5619048Y-17308166D01*
X5619048Y-17308166D02*
X5628572Y-17298642D01*
X5628572Y-17298642D02*
X5647619Y-17289119D01*
X5647619Y-17289119D02*
X5695238Y-17289119D01*
X5695238Y-17289119D02*
X5714286Y-17298642D01*
X5714286Y-17298642D02*
X5723810Y-17308166D01*
X5723810Y-17308166D02*
X5733333Y-17327214D01*
X5733333Y-17327214D02*
X5733333Y-17374833D01*
X5733333Y-17374833D02*
X5723810Y-17393880D01*
X5723810Y-17393880D02*
X5714286Y-17403404D01*
X5714286Y-17403404D02*
X5695238Y-17412928D01*
X5695238Y-17412928D02*
X5647619Y-17412928D01*
X5647619Y-17412928D02*
X5628572Y-17403404D01*
X5628572Y-17403404D02*
X5619048Y-17393880D01*
X5800000Y-17212928D02*
X5933333Y-17212928D01*
X5933333Y-17212928D02*
X5847619Y-17412928D01*
X6104762Y-17212928D02*
X6009524Y-17212928D01*
X6009524Y-17212928D02*
X6000000Y-17308166D01*
X6000000Y-17308166D02*
X6009524Y-17298642D01*
X6009524Y-17298642D02*
X6028572Y-17289119D01*
X6028572Y-17289119D02*
X6076191Y-17289119D01*
X6076191Y-17289119D02*
X6095238Y-17298642D01*
X6095238Y-17298642D02*
X6104762Y-17308166D01*
X6104762Y-17308166D02*
X6114286Y-17327214D01*
X6114286Y-17327214D02*
X6114286Y-17374833D01*
X6114286Y-17374833D02*
X6104762Y-17393880D01*
X6104762Y-17393880D02*
X6095238Y-17403404D01*
X6095238Y-17403404D02*
X6076191Y-17412928D01*
X6076191Y-17412928D02*
X6028572Y-17412928D01*
X6028572Y-17412928D02*
X6009524Y-17403404D01*
X6009524Y-17403404D02*
X6000000Y-17393880D01*
X6190476Y-17212928D02*
X6190476Y-17251023D01*
X6266667Y-17212928D02*
X6266667Y-17251023D01*
X6561905Y-17489119D02*
X6552381Y-17479595D01*
X6552381Y-17479595D02*
X6533334Y-17451023D01*
X6533334Y-17451023D02*
X6523810Y-17431976D01*
X6523810Y-17431976D02*
X6514286Y-17403404D01*
X6514286Y-17403404D02*
X6504762Y-17355785D01*
X6504762Y-17355785D02*
X6504762Y-17317690D01*
X6504762Y-17317690D02*
X6514286Y-17270071D01*
X6514286Y-17270071D02*
X6523810Y-17241500D01*
X6523810Y-17241500D02*
X6533334Y-17222452D01*
X6533334Y-17222452D02*
X6552381Y-17193880D01*
X6552381Y-17193880D02*
X6561905Y-17184357D01*
X6742857Y-17412928D02*
X6628572Y-17412928D01*
X6685714Y-17412928D02*
X6685714Y-17212928D01*
X6685714Y-17212928D02*
X6666667Y-17241500D01*
X6666667Y-17241500D02*
X6647619Y-17260547D01*
X6647619Y-17260547D02*
X6628572Y-17270071D01*
X6857143Y-17298642D02*
X6838095Y-17289119D01*
X6838095Y-17289119D02*
X6828572Y-17279595D01*
X6828572Y-17279595D02*
X6819048Y-17260547D01*
X6819048Y-17260547D02*
X6819048Y-17251023D01*
X6819048Y-17251023D02*
X6828572Y-17231976D01*
X6828572Y-17231976D02*
X6838095Y-17222452D01*
X6838095Y-17222452D02*
X6857143Y-17212928D01*
X6857143Y-17212928D02*
X6895238Y-17212928D01*
X6895238Y-17212928D02*
X6914286Y-17222452D01*
X6914286Y-17222452D02*
X6923810Y-17231976D01*
X6923810Y-17231976D02*
X6933334Y-17251023D01*
X6933334Y-17251023D02*
X6933334Y-17260547D01*
X6933334Y-17260547D02*
X6923810Y-17279595D01*
X6923810Y-17279595D02*
X6914286Y-17289119D01*
X6914286Y-17289119D02*
X6895238Y-17298642D01*
X6895238Y-17298642D02*
X6857143Y-17298642D01*
X6857143Y-17298642D02*
X6838095Y-17308166D01*
X6838095Y-17308166D02*
X6828572Y-17317690D01*
X6828572Y-17317690D02*
X6819048Y-17336738D01*
X6819048Y-17336738D02*
X6819048Y-17374833D01*
X6819048Y-17374833D02*
X6828572Y-17393880D01*
X6828572Y-17393880D02*
X6838095Y-17403404D01*
X6838095Y-17403404D02*
X6857143Y-17412928D01*
X6857143Y-17412928D02*
X6895238Y-17412928D01*
X6895238Y-17412928D02*
X6914286Y-17403404D01*
X6914286Y-17403404D02*
X6923810Y-17393880D01*
X6923810Y-17393880D02*
X6933334Y-17374833D01*
X6933334Y-17374833D02*
X6933334Y-17336738D01*
X6933334Y-17336738D02*
X6923810Y-17317690D01*
X6923810Y-17317690D02*
X6914286Y-17308166D01*
X6914286Y-17308166D02*
X6895238Y-17298642D01*
X7171429Y-17412928D02*
X7171429Y-17212928D01*
X7257143Y-17412928D02*
X7257143Y-17308166D01*
X7257143Y-17308166D02*
X7247619Y-17289119D01*
X7247619Y-17289119D02*
X7228572Y-17279595D01*
X7228572Y-17279595D02*
X7200000Y-17279595D01*
X7200000Y-17279595D02*
X7180953Y-17289119D01*
X7180953Y-17289119D02*
X7171429Y-17298642D01*
X7380953Y-17412928D02*
X7361905Y-17403404D01*
X7361905Y-17403404D02*
X7352381Y-17393880D01*
X7352381Y-17393880D02*
X7342857Y-17374833D01*
X7342857Y-17374833D02*
X7342857Y-17317690D01*
X7342857Y-17317690D02*
X7352381Y-17298642D01*
X7352381Y-17298642D02*
X7361905Y-17289119D01*
X7361905Y-17289119D02*
X7380953Y-17279595D01*
X7380953Y-17279595D02*
X7409524Y-17279595D01*
X7409524Y-17279595D02*
X7428572Y-17289119D01*
X7428572Y-17289119D02*
X7438096Y-17298642D01*
X7438096Y-17298642D02*
X7447619Y-17317690D01*
X7447619Y-17317690D02*
X7447619Y-17374833D01*
X7447619Y-17374833D02*
X7438096Y-17393880D01*
X7438096Y-17393880D02*
X7428572Y-17403404D01*
X7428572Y-17403404D02*
X7409524Y-17412928D01*
X7409524Y-17412928D02*
X7380953Y-17412928D01*
X7561905Y-17412928D02*
X7542857Y-17403404D01*
X7542857Y-17403404D02*
X7533334Y-17384357D01*
X7533334Y-17384357D02*
X7533334Y-17212928D01*
X7714286Y-17403404D02*
X7695238Y-17412928D01*
X7695238Y-17412928D02*
X7657143Y-17412928D01*
X7657143Y-17412928D02*
X7638096Y-17403404D01*
X7638096Y-17403404D02*
X7628572Y-17384357D01*
X7628572Y-17384357D02*
X7628572Y-17308166D01*
X7628572Y-17308166D02*
X7638096Y-17289119D01*
X7638096Y-17289119D02*
X7657143Y-17279595D01*
X7657143Y-17279595D02*
X7695238Y-17279595D01*
X7695238Y-17279595D02*
X7714286Y-17289119D01*
X7714286Y-17289119D02*
X7723810Y-17308166D01*
X7723810Y-17308166D02*
X7723810Y-17327214D01*
X7723810Y-17327214D02*
X7628572Y-17346261D01*
X7800000Y-17403404D02*
X7819048Y-17412928D01*
X7819048Y-17412928D02*
X7857143Y-17412928D01*
X7857143Y-17412928D02*
X7876191Y-17403404D01*
X7876191Y-17403404D02*
X7885715Y-17384357D01*
X7885715Y-17384357D02*
X7885715Y-17374833D01*
X7885715Y-17374833D02*
X7876191Y-17355785D01*
X7876191Y-17355785D02*
X7857143Y-17346261D01*
X7857143Y-17346261D02*
X7828572Y-17346261D01*
X7828572Y-17346261D02*
X7809524Y-17336738D01*
X7809524Y-17336738D02*
X7800000Y-17317690D01*
X7800000Y-17317690D02*
X7800000Y-17308166D01*
X7800000Y-17308166D02*
X7809524Y-17289119D01*
X7809524Y-17289119D02*
X7828572Y-17279595D01*
X7828572Y-17279595D02*
X7857143Y-17279595D01*
X7857143Y-17279595D02*
X7876191Y-17289119D01*
X7952381Y-17489119D02*
X7961905Y-17479595D01*
X7961905Y-17479595D02*
X7980953Y-17451023D01*
X7980953Y-17451023D02*
X7990477Y-17431976D01*
X7990477Y-17431976D02*
X8000000Y-17403404D01*
X8000000Y-17403404D02*
X8009524Y-17355785D01*
X8009524Y-17355785D02*
X8009524Y-17317690D01*
X8009524Y-17317690D02*
X8000000Y-17270071D01*
X8000000Y-17270071D02*
X7990477Y-17241500D01*
X7990477Y-17241500D02*
X7980953Y-17222452D01*
X7980953Y-17222452D02*
X7961905Y-17193880D01*
X7961905Y-17193880D02*
X7952381Y-17184357D01*
X8314286Y-17489119D02*
X8304762Y-17479595D01*
X8304762Y-17479595D02*
X8285715Y-17451023D01*
X8285715Y-17451023D02*
X8276191Y-17431976D01*
X8276191Y-17431976D02*
X8266667Y-17403404D01*
X8266667Y-17403404D02*
X8257143Y-17355785D01*
X8257143Y-17355785D02*
X8257143Y-17317690D01*
X8257143Y-17317690D02*
X8266667Y-17270071D01*
X8266667Y-17270071D02*
X8276191Y-17241500D01*
X8276191Y-17241500D02*
X8285715Y-17222452D01*
X8285715Y-17222452D02*
X8304762Y-17193880D01*
X8304762Y-17193880D02*
X8314286Y-17184357D01*
X8390477Y-17279595D02*
X8390477Y-17412928D01*
X8390477Y-17298642D02*
X8400000Y-17289119D01*
X8400000Y-17289119D02*
X8419048Y-17279595D01*
X8419048Y-17279595D02*
X8447620Y-17279595D01*
X8447620Y-17279595D02*
X8466667Y-17289119D01*
X8466667Y-17289119D02*
X8476191Y-17308166D01*
X8476191Y-17308166D02*
X8476191Y-17412928D01*
X8600000Y-17412928D02*
X8580953Y-17403404D01*
X8580953Y-17403404D02*
X8571429Y-17393880D01*
X8571429Y-17393880D02*
X8561905Y-17374833D01*
X8561905Y-17374833D02*
X8561905Y-17317690D01*
X8561905Y-17317690D02*
X8571429Y-17298642D01*
X8571429Y-17298642D02*
X8580953Y-17289119D01*
X8580953Y-17289119D02*
X8600000Y-17279595D01*
X8600000Y-17279595D02*
X8628572Y-17279595D01*
X8628572Y-17279595D02*
X8647620Y-17289119D01*
X8647620Y-17289119D02*
X8657143Y-17298642D01*
X8657143Y-17298642D02*
X8666667Y-17317690D01*
X8666667Y-17317690D02*
X8666667Y-17374833D01*
X8666667Y-17374833D02*
X8657143Y-17393880D01*
X8657143Y-17393880D02*
X8647620Y-17403404D01*
X8647620Y-17403404D02*
X8628572Y-17412928D01*
X8628572Y-17412928D02*
X8600000Y-17412928D01*
X8723810Y-17279595D02*
X8800000Y-17279595D01*
X8752381Y-17212928D02*
X8752381Y-17384357D01*
X8752381Y-17384357D02*
X8761905Y-17403404D01*
X8761905Y-17403404D02*
X8780953Y-17412928D01*
X8780953Y-17412928D02*
X8800000Y-17412928D01*
X9019048Y-17279595D02*
X9019048Y-17479595D01*
X9019048Y-17289119D02*
X9038096Y-17279595D01*
X9038096Y-17279595D02*
X9076191Y-17279595D01*
X9076191Y-17279595D02*
X9095239Y-17289119D01*
X9095239Y-17289119D02*
X9104762Y-17298642D01*
X9104762Y-17298642D02*
X9114286Y-17317690D01*
X9114286Y-17317690D02*
X9114286Y-17374833D01*
X9114286Y-17374833D02*
X9104762Y-17393880D01*
X9104762Y-17393880D02*
X9095239Y-17403404D01*
X9095239Y-17403404D02*
X9076191Y-17412928D01*
X9076191Y-17412928D02*
X9038096Y-17412928D01*
X9038096Y-17412928D02*
X9019048Y-17403404D01*
X9228572Y-17412928D02*
X9209524Y-17403404D01*
X9209524Y-17403404D02*
X9200001Y-17384357D01*
X9200001Y-17384357D02*
X9200001Y-17212928D01*
X9390477Y-17412928D02*
X9390477Y-17308166D01*
X9390477Y-17308166D02*
X9380953Y-17289119D01*
X9380953Y-17289119D02*
X9361905Y-17279595D01*
X9361905Y-17279595D02*
X9323810Y-17279595D01*
X9323810Y-17279595D02*
X9304762Y-17289119D01*
X9390477Y-17403404D02*
X9371429Y-17412928D01*
X9371429Y-17412928D02*
X9323810Y-17412928D01*
X9323810Y-17412928D02*
X9304762Y-17403404D01*
X9304762Y-17403404D02*
X9295239Y-17384357D01*
X9295239Y-17384357D02*
X9295239Y-17365309D01*
X9295239Y-17365309D02*
X9304762Y-17346261D01*
X9304762Y-17346261D02*
X9323810Y-17336738D01*
X9323810Y-17336738D02*
X9371429Y-17336738D01*
X9371429Y-17336738D02*
X9390477Y-17327214D01*
X9457143Y-17279595D02*
X9533334Y-17279595D01*
X9485715Y-17212928D02*
X9485715Y-17384357D01*
X9485715Y-17384357D02*
X9495239Y-17403404D01*
X9495239Y-17403404D02*
X9514286Y-17412928D01*
X9514286Y-17412928D02*
X9533334Y-17412928D01*
X9676191Y-17403404D02*
X9657143Y-17412928D01*
X9657143Y-17412928D02*
X9619048Y-17412928D01*
X9619048Y-17412928D02*
X9600001Y-17403404D01*
X9600001Y-17403404D02*
X9590477Y-17384357D01*
X9590477Y-17384357D02*
X9590477Y-17308166D01*
X9590477Y-17308166D02*
X9600001Y-17289119D01*
X9600001Y-17289119D02*
X9619048Y-17279595D01*
X9619048Y-17279595D02*
X9657143Y-17279595D01*
X9657143Y-17279595D02*
X9676191Y-17289119D01*
X9676191Y-17289119D02*
X9685715Y-17308166D01*
X9685715Y-17308166D02*
X9685715Y-17327214D01*
X9685715Y-17327214D02*
X9590477Y-17346261D01*
X9857143Y-17412928D02*
X9857143Y-17212928D01*
X9857143Y-17403404D02*
X9838096Y-17412928D01*
X9838096Y-17412928D02*
X9800001Y-17412928D01*
X9800001Y-17412928D02*
X9780953Y-17403404D01*
X9780953Y-17403404D02*
X9771429Y-17393880D01*
X9771429Y-17393880D02*
X9761905Y-17374833D01*
X9761905Y-17374833D02*
X9761905Y-17317690D01*
X9761905Y-17317690D02*
X9771429Y-17298642D01*
X9771429Y-17298642D02*
X9780953Y-17289119D01*
X9780953Y-17289119D02*
X9800001Y-17279595D01*
X9800001Y-17279595D02*
X9838096Y-17279595D01*
X9838096Y-17279595D02*
X9857143Y-17289119D01*
X9933334Y-17489119D02*
X9942858Y-17479595D01*
X9942858Y-17479595D02*
X9961905Y-17451023D01*
X9961905Y-17451023D02*
X9971429Y-17431976D01*
X9971429Y-17431976D02*
X9980953Y-17403404D01*
X9980953Y-17403404D02*
X9990477Y-17355785D01*
X9990477Y-17355785D02*
X9990477Y-17317690D01*
X9990477Y-17317690D02*
X9980953Y-17270071D01*
X9980953Y-17270071D02*
X9971429Y-17241500D01*
X9971429Y-17241500D02*
X9961905Y-17222452D01*
X9961905Y-17222452D02*
X9942858Y-17193880D01*
X9942858Y-17193880D02*
X9933334Y-17184357D01*
M02*
