%TF.GenerationSoftware,KiCad,Pcbnew,7.0.1*%
%TF.CreationDate,2024-09-05T16:41:42+07:00*%
%TF.ProjectId,minikeeb,6d696e69-6b65-4656-922e-6b696361645f,rev?*%
%TF.SameCoordinates,Original*%
%TF.FileFunction,Drillmap*%
%TF.FilePolarity,Positive*%
%FSLAX45Y45*%
G04 Gerber Fmt 4.5, Leading zero omitted, Abs format (unit mm)*
G04 Created by KiCad (PCBNEW 7.0.1) date 2024-09-05 16:41:42*
%MOMM*%
%LPD*%
G01*
G04 APERTURE LIST*
%ADD10C,0.200000*%
%ADD11C,0.050000*%
%ADD12C,0.100000*%
%ADD13C,0.120000*%
%ADD14C,0.170000*%
%ADD15C,0.300000*%
%ADD16C,0.400000*%
G04 APERTURE END LIST*
D10*
X12618742Y-12473925D02*
X12618742Y-13280301D01*
X12361741Y-12323925D02*
X12468742Y-12323925D01*
X3117777Y-7429158D02*
G75*
G03*
X3011741Y-7572572I43963J-143412D01*
G01*
D11*
X3348178Y-8936000D02*
G75*
G03*
X3348178Y-8936000I-101178J0D01*
G01*
D10*
X12211744Y-7340576D02*
G75*
G03*
X12098173Y-7195068I-150004J-4D01*
G01*
D11*
X10548178Y-7130000D02*
G75*
G03*
X10548178Y-7130000I-101178J0D01*
G01*
D10*
X3011741Y-13469000D02*
X3011741Y-13469000D01*
X3011741Y-13469000D02*
X3011741Y-13469000D01*
X3011741Y-13091550D02*
X3011741Y-7572572D01*
D11*
X6723178Y-7033000D02*
G75*
G03*
X6723178Y-7033000I-101178J0D01*
G01*
X4547178Y-12465000D02*
G75*
G03*
X4547178Y-12465000I-101178J0D01*
G01*
D10*
X12098173Y-7195068D02*
G75*
G03*
X3117777Y-7429159I-4069566J-16253644D01*
G01*
D11*
X10918178Y-15178000D02*
G75*
G03*
X10918178Y-15178000I-101178J0D01*
G01*
D10*
X12211741Y-7340576D02*
X12211741Y-12173925D01*
D11*
X11917178Y-10611000D02*
G75*
G03*
X11917178Y-10611000I-101178J0D01*
G01*
X3291178Y-14969000D02*
G75*
G03*
X3291178Y-14969000I-101178J0D01*
G01*
D10*
X3011510Y-13344002D02*
X3011741Y-13091550D01*
X10371000Y-15449959D02*
X3159066Y-15451934D01*
X11975380Y-15791292D02*
X10413358Y-15458522D01*
D11*
X12327178Y-13594000D02*
G75*
G03*
X12327178Y-13594000I-101178J0D01*
G01*
D10*
X12618741Y-13280301D02*
G75*
G03*
X12634566Y-13347359I149999J1D01*
G01*
X12211735Y-12173925D02*
G75*
G03*
X12361741Y-12323925I150005J5D01*
G01*
X10413358Y-15458522D02*
G75*
G03*
X10371000Y-15449959I-42358J-100478D01*
G01*
X12976771Y-14175412D02*
G75*
G03*
X12979122Y-14036779I-131831J71572D01*
G01*
X12618735Y-12473925D02*
G75*
G03*
X12468742Y-12323925I-149995J5D01*
G01*
X3009066Y-15301934D02*
G75*
G03*
X3159066Y-15451934I150000J0D01*
G01*
X12634566Y-13347359D02*
X12979122Y-14036779D01*
X12976768Y-14175411D02*
X12146025Y-15717977D01*
X11975380Y-15791294D02*
G75*
G03*
X12146025Y-15717977I38820J144894D01*
G01*
X3009066Y-15301934D02*
X3011510Y-13344002D01*
D12*
X4246000Y-15206000D02*
X4346000Y-15306000D01*
X4346000Y-15206000D02*
X4246000Y-15306000D01*
X4926000Y-15206000D02*
X5026000Y-15306000D01*
X5026000Y-15206000D02*
X4926000Y-15306000D01*
D13*
X11817000Y-12754000D02*
G75*
G03*
X11817000Y-12754000I-60000J0D01*
G01*
X11817000Y-12929000D02*
G75*
G03*
X11817000Y-12929000I-60000J0D01*
G01*
X12517000Y-12754000D02*
G75*
G03*
X12517000Y-12754000I-60000J0D01*
G01*
X12517000Y-12929000D02*
G75*
G03*
X12517000Y-12929000I-60000J0D01*
G01*
D14*
X3505200Y-8227150D02*
X3505200Y-8397150D01*
X3420200Y-8312150D02*
X3590200Y-8312150D01*
X3505200Y-9922600D02*
X3505200Y-10092600D01*
X3420200Y-10007600D02*
X3590200Y-10007600D01*
X3505200Y-11624400D02*
X3505200Y-11794400D01*
X3420200Y-11709400D02*
X3590200Y-11709400D01*
X4521200Y-8227150D02*
X4521200Y-8397150D01*
X4436200Y-8312150D02*
X4606200Y-8312150D01*
X4521200Y-9922600D02*
X4521200Y-10092600D01*
X4436200Y-10007600D02*
X4606200Y-10007600D01*
X4521200Y-11624400D02*
X4521200Y-11794400D01*
X4436200Y-11709400D02*
X4606200Y-11709400D01*
X5308600Y-7750900D02*
X5308600Y-7920900D01*
X5223600Y-7835900D02*
X5393600Y-7835900D01*
X5308600Y-9446350D02*
X5308600Y-9616350D01*
X5223600Y-9531350D02*
X5393600Y-9531350D01*
X5308600Y-11148150D02*
X5308600Y-11318150D01*
X5223600Y-11233150D02*
X5393600Y-11233150D01*
X6324600Y-7750900D02*
X6324600Y-7920900D01*
X6239600Y-7835900D02*
X6409600Y-7835900D01*
X6324600Y-9446350D02*
X6324600Y-9616350D01*
X6239600Y-9531350D02*
X6409600Y-9531350D01*
X6324600Y-11148150D02*
X6324600Y-11318150D01*
X6239600Y-11233150D02*
X6409600Y-11233150D01*
X6979000Y-13697000D02*
X6979000Y-13867000D01*
X6894000Y-13782000D02*
X7064000Y-13782000D01*
X7105650Y-7509600D02*
X7105650Y-7679600D01*
X7020650Y-7594600D02*
X7190650Y-7594600D01*
X7105650Y-9211400D02*
X7105650Y-9381400D01*
X7020650Y-9296400D02*
X7190650Y-9296400D01*
X7112000Y-10913200D02*
X7112000Y-11083200D01*
X7027000Y-10998200D02*
X7197000Y-10998200D01*
X7995000Y-13697000D02*
X7995000Y-13867000D01*
X7910000Y-13782000D02*
X8080000Y-13782000D01*
X8121650Y-7509600D02*
X8121650Y-7679600D01*
X8036650Y-7594600D02*
X8206650Y-7594600D01*
X8121650Y-9211400D02*
X8121650Y-9381400D01*
X8036650Y-9296400D02*
X8206650Y-9296400D01*
X8128000Y-10913200D02*
X8128000Y-11083200D01*
X8043000Y-10998200D02*
X8213000Y-10998200D01*
X8909050Y-7750900D02*
X8909050Y-7920900D01*
X8824050Y-7835900D02*
X8994050Y-7835900D01*
X8909050Y-9452700D02*
X8909050Y-9622700D01*
X8824050Y-9537700D02*
X8994050Y-9537700D01*
X8909050Y-11148150D02*
X8909050Y-11318150D01*
X8824050Y-11233150D02*
X8994050Y-11233150D01*
X9066060Y-13912270D02*
X9066060Y-14082270D01*
X8981060Y-13997270D02*
X9151060Y-13997270D01*
X9925050Y-7750900D02*
X9925050Y-7920900D01*
X9840050Y-7835900D02*
X10010050Y-7835900D01*
X9925050Y-9452700D02*
X9925050Y-9622700D01*
X9840050Y-9537700D02*
X10010050Y-9537700D01*
X9925050Y-11148150D02*
X9925050Y-11318150D01*
X9840050Y-11233150D02*
X10010050Y-11233150D01*
X10047440Y-14175230D02*
X10047440Y-14345230D01*
X9962440Y-14260230D02*
X10132440Y-14260230D01*
X10706100Y-7992200D02*
X10706100Y-8162200D01*
X10621100Y-8077200D02*
X10791100Y-8077200D01*
X10706100Y-9687650D02*
X10706100Y-9857650D01*
X10621100Y-9772650D02*
X10791100Y-9772650D01*
X10706100Y-11389450D02*
X10706100Y-11559450D01*
X10621100Y-11474450D02*
X10791100Y-11474450D01*
X11244059Y-14132650D02*
X11244059Y-14302650D01*
X11159059Y-14217650D02*
X11329059Y-14217650D01*
X11722100Y-7992200D02*
X11722100Y-8162200D01*
X11637100Y-8077200D02*
X11807100Y-8077200D01*
X11722100Y-9687650D02*
X11722100Y-9857650D01*
X11637100Y-9772650D02*
X11807100Y-9772650D01*
X11722100Y-11389450D02*
X11722100Y-11559450D01*
X11637100Y-11474450D02*
X11807100Y-11474450D01*
X12123941Y-14640650D02*
X12123941Y-14810650D01*
X12038941Y-14725650D02*
X12208941Y-14725650D01*
D15*
X3738267Y-8164217D02*
X3738267Y-7952083D01*
X3526133Y-7952083D01*
X3526133Y-8164217D01*
X3738267Y-8164217D01*
X3738267Y-9859667D02*
X3738267Y-9647533D01*
X3526133Y-9647533D01*
X3526133Y-9859667D01*
X3738267Y-9859667D01*
X3738267Y-11561467D02*
X3738267Y-11349333D01*
X3526133Y-11349333D01*
X3526133Y-11561467D01*
X3738267Y-11561467D01*
X3865267Y-7910217D02*
X3865267Y-7698083D01*
X3653133Y-7698083D01*
X3653133Y-7910217D01*
X3865267Y-7910217D01*
X3865267Y-9605667D02*
X3865267Y-9393533D01*
X3653133Y-9393533D01*
X3653133Y-9605667D01*
X3865267Y-9605667D01*
X3865267Y-11307467D02*
X3865267Y-11095333D01*
X3653133Y-11095333D01*
X3653133Y-11307467D01*
X3865267Y-11307467D01*
X4373267Y-7910217D02*
X4373267Y-7698083D01*
X4161133Y-7698083D01*
X4161133Y-7910217D01*
X4373267Y-7910217D01*
X4373267Y-9605667D02*
X4373267Y-9393533D01*
X4161133Y-9393533D01*
X4161133Y-9605667D01*
X4373267Y-9605667D01*
X4373267Y-11307467D02*
X4373267Y-11095333D01*
X4161133Y-11095333D01*
X4161133Y-11307467D01*
X4373267Y-11307467D01*
X4500267Y-8164217D02*
X4500267Y-7952083D01*
X4288133Y-7952083D01*
X4288133Y-8164217D01*
X4500267Y-8164217D01*
X4500267Y-9859667D02*
X4500267Y-9647533D01*
X4288133Y-9647533D01*
X4288133Y-9859667D01*
X4500267Y-9859667D01*
X4500267Y-11561467D02*
X4500267Y-11349333D01*
X4288133Y-11349333D01*
X4288133Y-11561467D01*
X4500267Y-11561467D01*
X5541667Y-7687967D02*
X5541667Y-7475833D01*
X5329533Y-7475833D01*
X5329533Y-7687967D01*
X5541667Y-7687967D01*
X5541667Y-9383417D02*
X5541667Y-9171283D01*
X5329533Y-9171283D01*
X5329533Y-9383417D01*
X5541667Y-9383417D01*
X5541667Y-11085217D02*
X5541667Y-10873083D01*
X5329533Y-10873083D01*
X5329533Y-11085217D01*
X5541667Y-11085217D01*
X5668667Y-7433967D02*
X5668667Y-7221833D01*
X5456533Y-7221833D01*
X5456533Y-7433967D01*
X5668667Y-7433967D01*
X5668667Y-9129417D02*
X5668667Y-8917283D01*
X5456533Y-8917283D01*
X5456533Y-9129417D01*
X5668667Y-9129417D01*
X5668667Y-10831217D02*
X5668667Y-10619083D01*
X5456533Y-10619083D01*
X5456533Y-10831217D01*
X5668667Y-10831217D01*
X6176667Y-7433967D02*
X6176667Y-7221833D01*
X5964533Y-7221833D01*
X5964533Y-7433967D01*
X6176667Y-7433967D01*
X6176667Y-9129417D02*
X6176667Y-8917283D01*
X5964533Y-8917283D01*
X5964533Y-9129417D01*
X6176667Y-9129417D01*
X6176667Y-10831217D02*
X6176667Y-10619083D01*
X5964533Y-10619083D01*
X5964533Y-10831217D01*
X6176667Y-10831217D01*
X6303667Y-7687967D02*
X6303667Y-7475833D01*
X6091533Y-7475833D01*
X6091533Y-7687967D01*
X6303667Y-7687967D01*
X6303667Y-9383417D02*
X6303667Y-9171283D01*
X6091533Y-9171283D01*
X6091533Y-9383417D01*
X6303667Y-9383417D01*
X6303667Y-11085217D02*
X6303667Y-10873083D01*
X6091533Y-10873083D01*
X6091533Y-11085217D01*
X6303667Y-11085217D01*
X7212067Y-13634067D02*
X7212067Y-13421933D01*
X6999933Y-13421933D01*
X6999933Y-13634067D01*
X7212067Y-13634067D01*
X7338717Y-7446667D02*
X7338717Y-7234533D01*
X7126583Y-7234533D01*
X7126583Y-7446667D01*
X7338717Y-7446667D01*
X7338717Y-9148467D02*
X7338717Y-8936333D01*
X7126583Y-8936333D01*
X7126583Y-9148467D01*
X7338717Y-9148467D01*
X7339067Y-13380067D02*
X7339067Y-13167933D01*
X7126933Y-13167933D01*
X7126933Y-13380067D01*
X7339067Y-13380067D01*
X7345067Y-10850267D02*
X7345067Y-10638133D01*
X7132933Y-10638133D01*
X7132933Y-10850267D01*
X7345067Y-10850267D01*
X7465717Y-7192667D02*
X7465717Y-6980533D01*
X7253583Y-6980533D01*
X7253583Y-7192667D01*
X7465717Y-7192667D01*
X7465717Y-8894467D02*
X7465717Y-8682333D01*
X7253583Y-8682333D01*
X7253583Y-8894467D01*
X7465717Y-8894467D01*
X7472067Y-10596267D02*
X7472067Y-10384133D01*
X7259933Y-10384133D01*
X7259933Y-10596267D01*
X7472067Y-10596267D01*
X7847067Y-13380067D02*
X7847067Y-13167933D01*
X7634933Y-13167933D01*
X7634933Y-13380067D01*
X7847067Y-13380067D01*
X7973717Y-7192667D02*
X7973717Y-6980533D01*
X7761583Y-6980533D01*
X7761583Y-7192667D01*
X7973717Y-7192667D01*
X7973717Y-8894467D02*
X7973717Y-8682333D01*
X7761583Y-8682333D01*
X7761583Y-8894467D01*
X7973717Y-8894467D01*
X7974067Y-13634067D02*
X7974067Y-13421933D01*
X7761933Y-13421933D01*
X7761933Y-13634067D01*
X7974067Y-13634067D01*
X7980067Y-10596267D02*
X7980067Y-10384133D01*
X7767933Y-10384133D01*
X7767933Y-10596267D01*
X7980067Y-10596267D01*
X8100717Y-7446667D02*
X8100717Y-7234533D01*
X7888583Y-7234533D01*
X7888583Y-7446667D01*
X8100717Y-7446667D01*
X8100717Y-9148467D02*
X8100717Y-8936333D01*
X7888583Y-8936333D01*
X7888583Y-9148467D01*
X8100717Y-9148467D01*
X8107067Y-10850267D02*
X8107067Y-10638133D01*
X7894933Y-10638133D01*
X7894933Y-10850267D01*
X8107067Y-10850267D01*
X9142117Y-7687967D02*
X9142117Y-7475833D01*
X8929983Y-7475833D01*
X8929983Y-7687967D01*
X9142117Y-7687967D01*
X9142117Y-9389767D02*
X9142117Y-9177633D01*
X8929983Y-9177633D01*
X8929983Y-9389767D01*
X9142117Y-9389767D01*
X9142117Y-11085217D02*
X9142117Y-10873083D01*
X8929983Y-10873083D01*
X8929983Y-11085217D01*
X9142117Y-11085217D01*
X9269117Y-7433967D02*
X9269117Y-7221833D01*
X9056983Y-7221833D01*
X9056983Y-7433967D01*
X9269117Y-7433967D01*
X9269117Y-9135767D02*
X9269117Y-8923633D01*
X9056983Y-8923633D01*
X9056983Y-9135767D01*
X9269117Y-9135767D01*
X9269117Y-10831217D02*
X9269117Y-10619083D01*
X9056983Y-10619083D01*
X9056983Y-10831217D01*
X9269117Y-10831217D01*
X9360539Y-13890862D02*
X9360539Y-13678728D01*
X9148405Y-13678728D01*
X9148405Y-13890862D01*
X9360539Y-13890862D01*
X9548952Y-13678387D02*
X9548952Y-13466253D01*
X9336818Y-13466253D01*
X9336818Y-13678387D01*
X9548952Y-13678387D01*
X9777117Y-7433967D02*
X9777117Y-7221833D01*
X9564983Y-7221833D01*
X9564983Y-7433967D01*
X9777117Y-7433967D01*
X9777117Y-9135767D02*
X9777117Y-8923633D01*
X9564983Y-8923633D01*
X9564983Y-9135767D01*
X9777117Y-9135767D01*
X9777117Y-10831217D02*
X9777117Y-10619083D01*
X9564983Y-10619083D01*
X9564983Y-10831217D01*
X9777117Y-10831217D01*
X9904117Y-7687967D02*
X9904117Y-7475833D01*
X9691983Y-7475833D01*
X9691983Y-7687967D01*
X9904117Y-7687967D01*
X9904117Y-9389767D02*
X9904117Y-9177633D01*
X9691983Y-9177633D01*
X9691983Y-9389767D01*
X9904117Y-9389767D01*
X9904117Y-11085217D02*
X9904117Y-10873083D01*
X9691983Y-10873083D01*
X9691983Y-11085217D01*
X9904117Y-11085217D01*
X10039642Y-13809867D02*
X10039642Y-13597733D01*
X9827508Y-13597733D01*
X9827508Y-13809867D01*
X10039642Y-13809867D01*
X10096575Y-14088082D02*
X10096575Y-13875948D01*
X9884441Y-13875948D01*
X9884441Y-14088082D01*
X10096575Y-14088082D01*
X10939167Y-7929267D02*
X10939167Y-7717133D01*
X10727033Y-7717133D01*
X10727033Y-7929267D01*
X10939167Y-7929267D01*
X10939167Y-9624717D02*
X10939167Y-9412583D01*
X10727033Y-9412583D01*
X10727033Y-9624717D01*
X10939167Y-9624717D01*
X10939167Y-11326517D02*
X10939167Y-11114383D01*
X10727033Y-11114383D01*
X10727033Y-11326517D01*
X10939167Y-11326517D01*
X11066167Y-7675267D02*
X11066167Y-7463133D01*
X10854033Y-7463133D01*
X10854033Y-7675267D01*
X11066167Y-7675267D01*
X11066167Y-9370717D02*
X11066167Y-9158583D01*
X10854033Y-9158583D01*
X10854033Y-9370717D01*
X11066167Y-9370717D01*
X11066167Y-11072517D02*
X11066167Y-10860383D01*
X10854033Y-10860383D01*
X10854033Y-11072517D01*
X11066167Y-11072517D01*
X11574167Y-7675267D02*
X11574167Y-7463133D01*
X11362033Y-7463133D01*
X11362033Y-7675267D01*
X11574167Y-7675267D01*
X11574167Y-9370717D02*
X11574167Y-9158583D01*
X11362033Y-9158583D01*
X11362033Y-9370717D01*
X11574167Y-9370717D01*
X11574167Y-11072517D02*
X11574167Y-10860383D01*
X11362033Y-10860383D01*
X11362033Y-11072517D01*
X11574167Y-11072517D01*
X11587111Y-14167246D02*
X11587111Y-13955112D01*
X11374977Y-13955112D01*
X11374977Y-14167246D01*
X11587111Y-14167246D01*
X11701167Y-7929267D02*
X11701167Y-7717133D01*
X11489033Y-7717133D01*
X11489033Y-7929267D01*
X11701167Y-7929267D01*
X11701167Y-9624717D02*
X11701167Y-9412583D01*
X11489033Y-9412583D01*
X11489033Y-9624717D01*
X11701167Y-9624717D01*
X11701167Y-11326517D02*
X11701167Y-11114383D01*
X11489033Y-11114383D01*
X11489033Y-11326517D01*
X11701167Y-11326517D01*
X11824096Y-14010776D02*
X11824096Y-13798642D01*
X11611962Y-13798642D01*
X11611962Y-14010776D01*
X11824096Y-14010776D01*
X12247023Y-14548246D02*
X12247023Y-14336112D01*
X12034889Y-14336112D01*
X12034889Y-14548246D01*
X12247023Y-14548246D01*
X12264037Y-14264776D02*
X12264037Y-14052642D01*
X12051903Y-14052642D01*
X12051903Y-14264776D01*
X12264037Y-14264776D01*
D16*
X4013200Y-8512150D02*
X4213200Y-8312150D01*
X4013200Y-8112150D01*
X3813200Y-8312150D01*
X4013200Y-8512150D01*
X4013200Y-10207600D02*
X4213200Y-10007600D01*
X4013200Y-9807600D01*
X3813200Y-10007600D01*
X4013200Y-10207600D01*
X4013200Y-11909400D02*
X4213200Y-11709400D01*
X4013200Y-11509400D01*
X3813200Y-11709400D01*
X4013200Y-11909400D01*
X5816600Y-8035900D02*
X6016600Y-7835900D01*
X5816600Y-7635900D01*
X5616600Y-7835900D01*
X5816600Y-8035900D01*
X5816600Y-9731350D02*
X6016600Y-9531350D01*
X5816600Y-9331350D01*
X5616600Y-9531350D01*
X5816600Y-9731350D01*
X5816600Y-11433150D02*
X6016600Y-11233150D01*
X5816600Y-11033150D01*
X5616600Y-11233150D01*
X5816600Y-11433150D01*
X7487000Y-13982000D02*
X7687000Y-13782000D01*
X7487000Y-13582000D01*
X7287000Y-13782000D01*
X7487000Y-13982000D01*
X7613650Y-7794600D02*
X7813650Y-7594600D01*
X7613650Y-7394600D01*
X7413650Y-7594600D01*
X7613650Y-7794600D01*
X7613650Y-9496400D02*
X7813650Y-9296400D01*
X7613650Y-9096400D01*
X7413650Y-9296400D01*
X7613650Y-9496400D01*
X7620000Y-11198200D02*
X7820000Y-10998200D01*
X7620000Y-10798200D01*
X7420000Y-10998200D01*
X7620000Y-11198200D01*
X9417050Y-8035900D02*
X9617050Y-7835900D01*
X9417050Y-7635900D01*
X9217050Y-7835900D01*
X9417050Y-8035900D01*
X9417050Y-9737700D02*
X9617050Y-9537700D01*
X9417050Y-9337700D01*
X9217050Y-9537700D01*
X9417050Y-9737700D01*
X9417050Y-11433150D02*
X9617050Y-11233150D01*
X9417050Y-11033150D01*
X9217050Y-11233150D01*
X9417050Y-11433150D01*
X9556750Y-14328750D02*
X9756750Y-14128750D01*
X9556750Y-13928750D01*
X9356750Y-14128750D01*
X9556750Y-14328750D01*
X11214100Y-8277200D02*
X11414100Y-8077200D01*
X11214100Y-7877200D01*
X11014100Y-8077200D01*
X11214100Y-8277200D01*
X11214100Y-9972650D02*
X11414100Y-9772650D01*
X11214100Y-9572650D01*
X11014100Y-9772650D01*
X11214100Y-9972650D01*
X11214100Y-11674450D02*
X11414100Y-11474450D01*
X11214100Y-11274450D01*
X11014100Y-11474450D01*
X11214100Y-11674450D01*
X11684000Y-14671650D02*
X11884000Y-14471650D01*
X11684000Y-14271650D01*
X11484000Y-14471650D01*
X11684000Y-14671650D01*
D10*
X3246685Y-16118928D02*
X3246685Y-15918928D01*
X3246685Y-15918928D02*
X3294304Y-15918928D01*
X3294304Y-15918928D02*
X3322875Y-15928452D01*
X3322875Y-15928452D02*
X3341923Y-15947499D01*
X3341923Y-15947499D02*
X3351447Y-15966547D01*
X3351447Y-15966547D02*
X3360971Y-16004642D01*
X3360971Y-16004642D02*
X3360971Y-16033214D01*
X3360971Y-16033214D02*
X3351447Y-16071309D01*
X3351447Y-16071309D02*
X3341923Y-16090357D01*
X3341923Y-16090357D02*
X3322875Y-16109404D01*
X3322875Y-16109404D02*
X3294304Y-16118928D01*
X3294304Y-16118928D02*
X3246685Y-16118928D01*
X3446685Y-16118928D02*
X3446685Y-15985595D01*
X3446685Y-16023690D02*
X3456209Y-16004642D01*
X3456209Y-16004642D02*
X3465733Y-15995118D01*
X3465733Y-15995118D02*
X3484780Y-15985595D01*
X3484780Y-15985595D02*
X3503828Y-15985595D01*
X3570494Y-16118928D02*
X3570494Y-15985595D01*
X3570494Y-15918928D02*
X3560971Y-15928452D01*
X3560971Y-15928452D02*
X3570494Y-15937976D01*
X3570494Y-15937976D02*
X3580018Y-15928452D01*
X3580018Y-15928452D02*
X3570494Y-15918928D01*
X3570494Y-15918928D02*
X3570494Y-15937976D01*
X3694304Y-16118928D02*
X3675256Y-16109404D01*
X3675256Y-16109404D02*
X3665733Y-16090357D01*
X3665733Y-16090357D02*
X3665733Y-15918928D01*
X3799066Y-16118928D02*
X3780018Y-16109404D01*
X3780018Y-16109404D02*
X3770494Y-16090357D01*
X3770494Y-16090357D02*
X3770494Y-15918928D01*
X4027637Y-16118928D02*
X4027637Y-15918928D01*
X4027637Y-15918928D02*
X4094304Y-16061785D01*
X4094304Y-16061785D02*
X4160971Y-15918928D01*
X4160971Y-15918928D02*
X4160971Y-16118928D01*
X4341923Y-16118928D02*
X4341923Y-16014166D01*
X4341923Y-16014166D02*
X4332399Y-15995118D01*
X4332399Y-15995118D02*
X4313352Y-15985595D01*
X4313352Y-15985595D02*
X4275256Y-15985595D01*
X4275256Y-15985595D02*
X4256209Y-15995118D01*
X4341923Y-16109404D02*
X4322876Y-16118928D01*
X4322876Y-16118928D02*
X4275256Y-16118928D01*
X4275256Y-16118928D02*
X4256209Y-16109404D01*
X4256209Y-16109404D02*
X4246685Y-16090357D01*
X4246685Y-16090357D02*
X4246685Y-16071309D01*
X4246685Y-16071309D02*
X4256209Y-16052261D01*
X4256209Y-16052261D02*
X4275256Y-16042738D01*
X4275256Y-16042738D02*
X4322876Y-16042738D01*
X4322876Y-16042738D02*
X4341923Y-16033214D01*
X4437161Y-15985595D02*
X4437161Y-16185595D01*
X4437161Y-15995118D02*
X4456209Y-15985595D01*
X4456209Y-15985595D02*
X4494304Y-15985595D01*
X4494304Y-15985595D02*
X4513352Y-15995118D01*
X4513352Y-15995118D02*
X4522876Y-16004642D01*
X4522876Y-16004642D02*
X4532399Y-16023690D01*
X4532399Y-16023690D02*
X4532399Y-16080833D01*
X4532399Y-16080833D02*
X4522876Y-16099880D01*
X4522876Y-16099880D02*
X4513352Y-16109404D01*
X4513352Y-16109404D02*
X4494304Y-16118928D01*
X4494304Y-16118928D02*
X4456209Y-16118928D01*
X4456209Y-16118928D02*
X4437161Y-16109404D01*
X4618114Y-16099880D02*
X4627637Y-16109404D01*
X4627637Y-16109404D02*
X4618114Y-16118928D01*
X4618114Y-16118928D02*
X4608590Y-16109404D01*
X4608590Y-16109404D02*
X4618114Y-16099880D01*
X4618114Y-16099880D02*
X4618114Y-16118928D01*
X4618114Y-15995118D02*
X4627637Y-16004642D01*
X4627637Y-16004642D02*
X4618114Y-16014166D01*
X4618114Y-16014166D02*
X4608590Y-16004642D01*
X4608590Y-16004642D02*
X4618114Y-15995118D01*
X4618114Y-15995118D02*
X4618114Y-16014166D01*
D12*
X2899066Y-16396404D02*
X2999066Y-16496404D01*
X2999066Y-16396404D02*
X2899066Y-16496404D01*
D10*
X3351447Y-16538928D02*
X3237161Y-16538928D01*
X3294304Y-16538928D02*
X3294304Y-16338928D01*
X3294304Y-16338928D02*
X3275256Y-16367499D01*
X3275256Y-16367499D02*
X3256209Y-16386547D01*
X3256209Y-16386547D02*
X3237161Y-16396071D01*
X3437161Y-16519880D02*
X3446685Y-16529404D01*
X3446685Y-16529404D02*
X3437161Y-16538928D01*
X3437161Y-16538928D02*
X3427637Y-16529404D01*
X3427637Y-16529404D02*
X3437161Y-16519880D01*
X3437161Y-16519880D02*
X3437161Y-16538928D01*
X3570494Y-16338928D02*
X3589542Y-16338928D01*
X3589542Y-16338928D02*
X3608590Y-16348452D01*
X3608590Y-16348452D02*
X3618114Y-16357976D01*
X3618114Y-16357976D02*
X3627637Y-16377023D01*
X3627637Y-16377023D02*
X3637161Y-16415118D01*
X3637161Y-16415118D02*
X3637161Y-16462738D01*
X3637161Y-16462738D02*
X3627637Y-16500833D01*
X3627637Y-16500833D02*
X3618114Y-16519880D01*
X3618114Y-16519880D02*
X3608590Y-16529404D01*
X3608590Y-16529404D02*
X3589542Y-16538928D01*
X3589542Y-16538928D02*
X3570494Y-16538928D01*
X3570494Y-16538928D02*
X3551447Y-16529404D01*
X3551447Y-16529404D02*
X3541923Y-16519880D01*
X3541923Y-16519880D02*
X3532399Y-16500833D01*
X3532399Y-16500833D02*
X3522875Y-16462738D01*
X3522875Y-16462738D02*
X3522875Y-16415118D01*
X3522875Y-16415118D02*
X3532399Y-16377023D01*
X3532399Y-16377023D02*
X3541923Y-16357976D01*
X3541923Y-16357976D02*
X3551447Y-16348452D01*
X3551447Y-16348452D02*
X3570494Y-16338928D01*
X3760971Y-16338928D02*
X3780018Y-16338928D01*
X3780018Y-16338928D02*
X3799066Y-16348452D01*
X3799066Y-16348452D02*
X3808590Y-16357976D01*
X3808590Y-16357976D02*
X3818114Y-16377023D01*
X3818114Y-16377023D02*
X3827637Y-16415118D01*
X3827637Y-16415118D02*
X3827637Y-16462738D01*
X3827637Y-16462738D02*
X3818114Y-16500833D01*
X3818114Y-16500833D02*
X3808590Y-16519880D01*
X3808590Y-16519880D02*
X3799066Y-16529404D01*
X3799066Y-16529404D02*
X3780018Y-16538928D01*
X3780018Y-16538928D02*
X3760971Y-16538928D01*
X3760971Y-16538928D02*
X3741923Y-16529404D01*
X3741923Y-16529404D02*
X3732399Y-16519880D01*
X3732399Y-16519880D02*
X3722875Y-16500833D01*
X3722875Y-16500833D02*
X3713352Y-16462738D01*
X3713352Y-16462738D02*
X3713352Y-16415118D01*
X3713352Y-16415118D02*
X3722875Y-16377023D01*
X3722875Y-16377023D02*
X3732399Y-16357976D01*
X3732399Y-16357976D02*
X3741923Y-16348452D01*
X3741923Y-16348452D02*
X3760971Y-16338928D01*
X3951447Y-16338928D02*
X3970495Y-16338928D01*
X3970495Y-16338928D02*
X3989542Y-16348452D01*
X3989542Y-16348452D02*
X3999066Y-16357976D01*
X3999066Y-16357976D02*
X4008590Y-16377023D01*
X4008590Y-16377023D02*
X4018114Y-16415118D01*
X4018114Y-16415118D02*
X4018114Y-16462738D01*
X4018114Y-16462738D02*
X4008590Y-16500833D01*
X4008590Y-16500833D02*
X3999066Y-16519880D01*
X3999066Y-16519880D02*
X3989542Y-16529404D01*
X3989542Y-16529404D02*
X3970495Y-16538928D01*
X3970495Y-16538928D02*
X3951447Y-16538928D01*
X3951447Y-16538928D02*
X3932399Y-16529404D01*
X3932399Y-16529404D02*
X3922875Y-16519880D01*
X3922875Y-16519880D02*
X3913352Y-16500833D01*
X3913352Y-16500833D02*
X3903828Y-16462738D01*
X3903828Y-16462738D02*
X3903828Y-16415118D01*
X3903828Y-16415118D02*
X3913352Y-16377023D01*
X3913352Y-16377023D02*
X3922875Y-16357976D01*
X3922875Y-16357976D02*
X3932399Y-16348452D01*
X3932399Y-16348452D02*
X3951447Y-16338928D01*
X4103828Y-16538928D02*
X4103828Y-16405595D01*
X4103828Y-16424642D02*
X4113352Y-16415118D01*
X4113352Y-16415118D02*
X4132399Y-16405595D01*
X4132399Y-16405595D02*
X4160971Y-16405595D01*
X4160971Y-16405595D02*
X4180018Y-16415118D01*
X4180018Y-16415118D02*
X4189542Y-16434166D01*
X4189542Y-16434166D02*
X4189542Y-16538928D01*
X4189542Y-16434166D02*
X4199066Y-16415118D01*
X4199066Y-16415118D02*
X4218114Y-16405595D01*
X4218114Y-16405595D02*
X4246685Y-16405595D01*
X4246685Y-16405595D02*
X4265733Y-16415118D01*
X4265733Y-16415118D02*
X4275257Y-16434166D01*
X4275257Y-16434166D02*
X4275257Y-16538928D01*
X4370495Y-16538928D02*
X4370495Y-16405595D01*
X4370495Y-16424642D02*
X4380018Y-16415118D01*
X4380018Y-16415118D02*
X4399066Y-16405595D01*
X4399066Y-16405595D02*
X4427638Y-16405595D01*
X4427638Y-16405595D02*
X4446685Y-16415118D01*
X4446685Y-16415118D02*
X4456209Y-16434166D01*
X4456209Y-16434166D02*
X4456209Y-16538928D01*
X4456209Y-16434166D02*
X4465733Y-16415118D01*
X4465733Y-16415118D02*
X4484780Y-16405595D01*
X4484780Y-16405595D02*
X4513352Y-16405595D01*
X4513352Y-16405595D02*
X4532399Y-16415118D01*
X4532399Y-16415118D02*
X4541923Y-16434166D01*
X4541923Y-16434166D02*
X4541923Y-16538928D01*
X4932399Y-16329404D02*
X4760971Y-16586547D01*
X5189542Y-16338928D02*
X5208590Y-16338928D01*
X5208590Y-16338928D02*
X5227638Y-16348452D01*
X5227638Y-16348452D02*
X5237161Y-16357976D01*
X5237161Y-16357976D02*
X5246685Y-16377023D01*
X5246685Y-16377023D02*
X5256209Y-16415118D01*
X5256209Y-16415118D02*
X5256209Y-16462738D01*
X5256209Y-16462738D02*
X5246685Y-16500833D01*
X5246685Y-16500833D02*
X5237161Y-16519880D01*
X5237161Y-16519880D02*
X5227638Y-16529404D01*
X5227638Y-16529404D02*
X5208590Y-16538928D01*
X5208590Y-16538928D02*
X5189542Y-16538928D01*
X5189542Y-16538928D02*
X5170495Y-16529404D01*
X5170495Y-16529404D02*
X5160971Y-16519880D01*
X5160971Y-16519880D02*
X5151447Y-16500833D01*
X5151447Y-16500833D02*
X5141923Y-16462738D01*
X5141923Y-16462738D02*
X5141923Y-16415118D01*
X5141923Y-16415118D02*
X5151447Y-16377023D01*
X5151447Y-16377023D02*
X5160971Y-16357976D01*
X5160971Y-16357976D02*
X5170495Y-16348452D01*
X5170495Y-16348452D02*
X5189542Y-16338928D01*
X5341923Y-16519880D02*
X5351447Y-16529404D01*
X5351447Y-16529404D02*
X5341923Y-16538928D01*
X5341923Y-16538928D02*
X5332400Y-16529404D01*
X5332400Y-16529404D02*
X5341923Y-16519880D01*
X5341923Y-16519880D02*
X5341923Y-16538928D01*
X5475257Y-16338928D02*
X5494304Y-16338928D01*
X5494304Y-16338928D02*
X5513352Y-16348452D01*
X5513352Y-16348452D02*
X5522876Y-16357976D01*
X5522876Y-16357976D02*
X5532400Y-16377023D01*
X5532400Y-16377023D02*
X5541923Y-16415118D01*
X5541923Y-16415118D02*
X5541923Y-16462738D01*
X5541923Y-16462738D02*
X5532400Y-16500833D01*
X5532400Y-16500833D02*
X5522876Y-16519880D01*
X5522876Y-16519880D02*
X5513352Y-16529404D01*
X5513352Y-16529404D02*
X5494304Y-16538928D01*
X5494304Y-16538928D02*
X5475257Y-16538928D01*
X5475257Y-16538928D02*
X5456209Y-16529404D01*
X5456209Y-16529404D02*
X5446685Y-16519880D01*
X5446685Y-16519880D02*
X5437161Y-16500833D01*
X5437161Y-16500833D02*
X5427638Y-16462738D01*
X5427638Y-16462738D02*
X5427638Y-16415118D01*
X5427638Y-16415118D02*
X5437161Y-16377023D01*
X5437161Y-16377023D02*
X5446685Y-16357976D01*
X5446685Y-16357976D02*
X5456209Y-16348452D01*
X5456209Y-16348452D02*
X5475257Y-16338928D01*
X5608590Y-16338928D02*
X5732399Y-16338928D01*
X5732399Y-16338928D02*
X5665733Y-16415118D01*
X5665733Y-16415118D02*
X5694304Y-16415118D01*
X5694304Y-16415118D02*
X5713352Y-16424642D01*
X5713352Y-16424642D02*
X5722876Y-16434166D01*
X5722876Y-16434166D02*
X5732399Y-16453214D01*
X5732399Y-16453214D02*
X5732399Y-16500833D01*
X5732399Y-16500833D02*
X5722876Y-16519880D01*
X5722876Y-16519880D02*
X5713352Y-16529404D01*
X5713352Y-16529404D02*
X5694304Y-16538928D01*
X5694304Y-16538928D02*
X5637161Y-16538928D01*
X5637161Y-16538928D02*
X5618114Y-16529404D01*
X5618114Y-16529404D02*
X5608590Y-16519880D01*
X5827638Y-16538928D02*
X5865733Y-16538928D01*
X5865733Y-16538928D02*
X5884780Y-16529404D01*
X5884780Y-16529404D02*
X5894304Y-16519880D01*
X5894304Y-16519880D02*
X5913352Y-16491309D01*
X5913352Y-16491309D02*
X5922876Y-16453214D01*
X5922876Y-16453214D02*
X5922876Y-16377023D01*
X5922876Y-16377023D02*
X5913352Y-16357976D01*
X5913352Y-16357976D02*
X5903828Y-16348452D01*
X5903828Y-16348452D02*
X5884780Y-16338928D01*
X5884780Y-16338928D02*
X5846685Y-16338928D01*
X5846685Y-16338928D02*
X5827638Y-16348452D01*
X5827638Y-16348452D02*
X5818114Y-16357976D01*
X5818114Y-16357976D02*
X5808590Y-16377023D01*
X5808590Y-16377023D02*
X5808590Y-16424642D01*
X5808590Y-16424642D02*
X5818114Y-16443690D01*
X5818114Y-16443690D02*
X5827638Y-16453214D01*
X5827638Y-16453214D02*
X5846685Y-16462738D01*
X5846685Y-16462738D02*
X5884780Y-16462738D01*
X5884780Y-16462738D02*
X5903828Y-16453214D01*
X5903828Y-16453214D02*
X5913352Y-16443690D01*
X5913352Y-16443690D02*
X5922876Y-16424642D01*
X6094304Y-16405595D02*
X6094304Y-16538928D01*
X6046685Y-16329404D02*
X5999066Y-16472261D01*
X5999066Y-16472261D02*
X6122876Y-16472261D01*
X6189542Y-16338928D02*
X6189542Y-16377023D01*
X6265733Y-16338928D02*
X6265733Y-16377023D01*
X6560971Y-16615118D02*
X6551447Y-16605595D01*
X6551447Y-16605595D02*
X6532400Y-16577023D01*
X6532400Y-16577023D02*
X6522876Y-16557976D01*
X6522876Y-16557976D02*
X6513352Y-16529404D01*
X6513352Y-16529404D02*
X6503828Y-16481785D01*
X6503828Y-16481785D02*
X6503828Y-16443690D01*
X6503828Y-16443690D02*
X6513352Y-16396071D01*
X6513352Y-16396071D02*
X6522876Y-16367499D01*
X6522876Y-16367499D02*
X6532400Y-16348452D01*
X6532400Y-16348452D02*
X6551447Y-16319880D01*
X6551447Y-16319880D02*
X6560971Y-16310357D01*
X6627638Y-16357976D02*
X6637161Y-16348452D01*
X6637161Y-16348452D02*
X6656209Y-16338928D01*
X6656209Y-16338928D02*
X6703828Y-16338928D01*
X6703828Y-16338928D02*
X6722876Y-16348452D01*
X6722876Y-16348452D02*
X6732400Y-16357976D01*
X6732400Y-16357976D02*
X6741923Y-16377023D01*
X6741923Y-16377023D02*
X6741923Y-16396071D01*
X6741923Y-16396071D02*
X6732400Y-16424642D01*
X6732400Y-16424642D02*
X6618114Y-16538928D01*
X6618114Y-16538928D02*
X6741923Y-16538928D01*
X6980019Y-16538928D02*
X6980019Y-16338928D01*
X7065733Y-16538928D02*
X7065733Y-16434166D01*
X7065733Y-16434166D02*
X7056209Y-16415118D01*
X7056209Y-16415118D02*
X7037162Y-16405595D01*
X7037162Y-16405595D02*
X7008590Y-16405595D01*
X7008590Y-16405595D02*
X6989542Y-16415118D01*
X6989542Y-16415118D02*
X6980019Y-16424642D01*
X7189542Y-16538928D02*
X7170495Y-16529404D01*
X7170495Y-16529404D02*
X7160971Y-16519880D01*
X7160971Y-16519880D02*
X7151447Y-16500833D01*
X7151447Y-16500833D02*
X7151447Y-16443690D01*
X7151447Y-16443690D02*
X7160971Y-16424642D01*
X7160971Y-16424642D02*
X7170495Y-16415118D01*
X7170495Y-16415118D02*
X7189542Y-16405595D01*
X7189542Y-16405595D02*
X7218114Y-16405595D01*
X7218114Y-16405595D02*
X7237162Y-16415118D01*
X7237162Y-16415118D02*
X7246685Y-16424642D01*
X7246685Y-16424642D02*
X7256209Y-16443690D01*
X7256209Y-16443690D02*
X7256209Y-16500833D01*
X7256209Y-16500833D02*
X7246685Y-16519880D01*
X7246685Y-16519880D02*
X7237162Y-16529404D01*
X7237162Y-16529404D02*
X7218114Y-16538928D01*
X7218114Y-16538928D02*
X7189542Y-16538928D01*
X7370495Y-16538928D02*
X7351447Y-16529404D01*
X7351447Y-16529404D02*
X7341923Y-16510357D01*
X7341923Y-16510357D02*
X7341923Y-16338928D01*
X7522876Y-16529404D02*
X7503828Y-16538928D01*
X7503828Y-16538928D02*
X7465733Y-16538928D01*
X7465733Y-16538928D02*
X7446685Y-16529404D01*
X7446685Y-16529404D02*
X7437162Y-16510357D01*
X7437162Y-16510357D02*
X7437162Y-16434166D01*
X7437162Y-16434166D02*
X7446685Y-16415118D01*
X7446685Y-16415118D02*
X7465733Y-16405595D01*
X7465733Y-16405595D02*
X7503828Y-16405595D01*
X7503828Y-16405595D02*
X7522876Y-16415118D01*
X7522876Y-16415118D02*
X7532400Y-16434166D01*
X7532400Y-16434166D02*
X7532400Y-16453214D01*
X7532400Y-16453214D02*
X7437162Y-16472261D01*
X7608590Y-16529404D02*
X7627638Y-16538928D01*
X7627638Y-16538928D02*
X7665733Y-16538928D01*
X7665733Y-16538928D02*
X7684781Y-16529404D01*
X7684781Y-16529404D02*
X7694304Y-16510357D01*
X7694304Y-16510357D02*
X7694304Y-16500833D01*
X7694304Y-16500833D02*
X7684781Y-16481785D01*
X7684781Y-16481785D02*
X7665733Y-16472261D01*
X7665733Y-16472261D02*
X7637162Y-16472261D01*
X7637162Y-16472261D02*
X7618114Y-16462738D01*
X7618114Y-16462738D02*
X7608590Y-16443690D01*
X7608590Y-16443690D02*
X7608590Y-16434166D01*
X7608590Y-16434166D02*
X7618114Y-16415118D01*
X7618114Y-16415118D02*
X7637162Y-16405595D01*
X7637162Y-16405595D02*
X7665733Y-16405595D01*
X7665733Y-16405595D02*
X7684781Y-16415118D01*
X7760971Y-16615118D02*
X7770495Y-16605595D01*
X7770495Y-16605595D02*
X7789543Y-16577023D01*
X7789543Y-16577023D02*
X7799066Y-16557976D01*
X7799066Y-16557976D02*
X7808590Y-16529404D01*
X7808590Y-16529404D02*
X7818114Y-16481785D01*
X7818114Y-16481785D02*
X7818114Y-16443690D01*
X7818114Y-16443690D02*
X7808590Y-16396071D01*
X7808590Y-16396071D02*
X7799066Y-16367499D01*
X7799066Y-16367499D02*
X7789543Y-16348452D01*
X7789543Y-16348452D02*
X7770495Y-16319880D01*
X7770495Y-16319880D02*
X7760971Y-16310357D01*
X8122876Y-16615118D02*
X8113352Y-16605595D01*
X8113352Y-16605595D02*
X8094304Y-16577023D01*
X8094304Y-16577023D02*
X8084781Y-16557976D01*
X8084781Y-16557976D02*
X8075257Y-16529404D01*
X8075257Y-16529404D02*
X8065733Y-16481785D01*
X8065733Y-16481785D02*
X8065733Y-16443690D01*
X8065733Y-16443690D02*
X8075257Y-16396071D01*
X8075257Y-16396071D02*
X8084781Y-16367499D01*
X8084781Y-16367499D02*
X8094304Y-16348452D01*
X8094304Y-16348452D02*
X8113352Y-16319880D01*
X8113352Y-16319880D02*
X8122876Y-16310357D01*
X8199066Y-16405595D02*
X8199066Y-16538928D01*
X8199066Y-16424642D02*
X8208590Y-16415118D01*
X8208590Y-16415118D02*
X8227638Y-16405595D01*
X8227638Y-16405595D02*
X8256209Y-16405595D01*
X8256209Y-16405595D02*
X8275257Y-16415118D01*
X8275257Y-16415118D02*
X8284781Y-16434166D01*
X8284781Y-16434166D02*
X8284781Y-16538928D01*
X8408590Y-16538928D02*
X8389543Y-16529404D01*
X8389543Y-16529404D02*
X8380019Y-16519880D01*
X8380019Y-16519880D02*
X8370495Y-16500833D01*
X8370495Y-16500833D02*
X8370495Y-16443690D01*
X8370495Y-16443690D02*
X8380019Y-16424642D01*
X8380019Y-16424642D02*
X8389543Y-16415118D01*
X8389543Y-16415118D02*
X8408590Y-16405595D01*
X8408590Y-16405595D02*
X8437162Y-16405595D01*
X8437162Y-16405595D02*
X8456209Y-16415118D01*
X8456209Y-16415118D02*
X8465733Y-16424642D01*
X8465733Y-16424642D02*
X8475257Y-16443690D01*
X8475257Y-16443690D02*
X8475257Y-16500833D01*
X8475257Y-16500833D02*
X8465733Y-16519880D01*
X8465733Y-16519880D02*
X8456209Y-16529404D01*
X8456209Y-16529404D02*
X8437162Y-16538928D01*
X8437162Y-16538928D02*
X8408590Y-16538928D01*
X8532400Y-16405595D02*
X8608590Y-16405595D01*
X8560971Y-16338928D02*
X8560971Y-16510357D01*
X8560971Y-16510357D02*
X8570495Y-16529404D01*
X8570495Y-16529404D02*
X8589543Y-16538928D01*
X8589543Y-16538928D02*
X8608590Y-16538928D01*
X8827638Y-16405595D02*
X8827638Y-16605595D01*
X8827638Y-16415118D02*
X8846686Y-16405595D01*
X8846686Y-16405595D02*
X8884781Y-16405595D01*
X8884781Y-16405595D02*
X8903828Y-16415118D01*
X8903828Y-16415118D02*
X8913352Y-16424642D01*
X8913352Y-16424642D02*
X8922876Y-16443690D01*
X8922876Y-16443690D02*
X8922876Y-16500833D01*
X8922876Y-16500833D02*
X8913352Y-16519880D01*
X8913352Y-16519880D02*
X8903828Y-16529404D01*
X8903828Y-16529404D02*
X8884781Y-16538928D01*
X8884781Y-16538928D02*
X8846686Y-16538928D01*
X8846686Y-16538928D02*
X8827638Y-16529404D01*
X9037162Y-16538928D02*
X9018114Y-16529404D01*
X9018114Y-16529404D02*
X9008590Y-16510357D01*
X9008590Y-16510357D02*
X9008590Y-16338928D01*
X9199067Y-16538928D02*
X9199067Y-16434166D01*
X9199067Y-16434166D02*
X9189543Y-16415118D01*
X9189543Y-16415118D02*
X9170495Y-16405595D01*
X9170495Y-16405595D02*
X9132400Y-16405595D01*
X9132400Y-16405595D02*
X9113352Y-16415118D01*
X9199067Y-16529404D02*
X9180019Y-16538928D01*
X9180019Y-16538928D02*
X9132400Y-16538928D01*
X9132400Y-16538928D02*
X9113352Y-16529404D01*
X9113352Y-16529404D02*
X9103828Y-16510357D01*
X9103828Y-16510357D02*
X9103828Y-16491309D01*
X9103828Y-16491309D02*
X9113352Y-16472261D01*
X9113352Y-16472261D02*
X9132400Y-16462738D01*
X9132400Y-16462738D02*
X9180019Y-16462738D01*
X9180019Y-16462738D02*
X9199067Y-16453214D01*
X9265733Y-16405595D02*
X9341924Y-16405595D01*
X9294305Y-16338928D02*
X9294305Y-16510357D01*
X9294305Y-16510357D02*
X9303828Y-16529404D01*
X9303828Y-16529404D02*
X9322876Y-16538928D01*
X9322876Y-16538928D02*
X9341924Y-16538928D01*
X9484781Y-16529404D02*
X9465733Y-16538928D01*
X9465733Y-16538928D02*
X9427638Y-16538928D01*
X9427638Y-16538928D02*
X9408590Y-16529404D01*
X9408590Y-16529404D02*
X9399067Y-16510357D01*
X9399067Y-16510357D02*
X9399067Y-16434166D01*
X9399067Y-16434166D02*
X9408590Y-16415118D01*
X9408590Y-16415118D02*
X9427638Y-16405595D01*
X9427638Y-16405595D02*
X9465733Y-16405595D01*
X9465733Y-16405595D02*
X9484781Y-16415118D01*
X9484781Y-16415118D02*
X9494305Y-16434166D01*
X9494305Y-16434166D02*
X9494305Y-16453214D01*
X9494305Y-16453214D02*
X9399067Y-16472261D01*
X9665733Y-16538928D02*
X9665733Y-16338928D01*
X9665733Y-16529404D02*
X9646686Y-16538928D01*
X9646686Y-16538928D02*
X9608590Y-16538928D01*
X9608590Y-16538928D02*
X9589543Y-16529404D01*
X9589543Y-16529404D02*
X9580019Y-16519880D01*
X9580019Y-16519880D02*
X9570495Y-16500833D01*
X9570495Y-16500833D02*
X9570495Y-16443690D01*
X9570495Y-16443690D02*
X9580019Y-16424642D01*
X9580019Y-16424642D02*
X9589543Y-16415118D01*
X9589543Y-16415118D02*
X9608590Y-16405595D01*
X9608590Y-16405595D02*
X9646686Y-16405595D01*
X9646686Y-16405595D02*
X9665733Y-16415118D01*
X9741924Y-16615118D02*
X9751448Y-16605595D01*
X9751448Y-16605595D02*
X9770495Y-16577023D01*
X9770495Y-16577023D02*
X9780019Y-16557976D01*
X9780019Y-16557976D02*
X9789543Y-16529404D01*
X9789543Y-16529404D02*
X9799067Y-16481785D01*
X9799067Y-16481785D02*
X9799067Y-16443690D01*
X9799067Y-16443690D02*
X9789543Y-16396071D01*
X9789543Y-16396071D02*
X9780019Y-16367499D01*
X9780019Y-16367499D02*
X9770495Y-16348452D01*
X9770495Y-16348452D02*
X9751448Y-16319880D01*
X9751448Y-16319880D02*
X9741924Y-16310357D01*
D13*
X2999066Y-16710404D02*
G75*
G03*
X2999066Y-16710404I-60000J0D01*
G01*
D10*
X3351447Y-16802928D02*
X3237161Y-16802928D01*
X3294304Y-16802928D02*
X3294304Y-16602928D01*
X3294304Y-16602928D02*
X3275256Y-16631499D01*
X3275256Y-16631499D02*
X3256209Y-16650547D01*
X3256209Y-16650547D02*
X3237161Y-16660071D01*
X3437161Y-16783880D02*
X3446685Y-16793404D01*
X3446685Y-16793404D02*
X3437161Y-16802928D01*
X3437161Y-16802928D02*
X3427637Y-16793404D01*
X3427637Y-16793404D02*
X3437161Y-16783880D01*
X3437161Y-16783880D02*
X3437161Y-16802928D01*
X3522875Y-16621976D02*
X3532399Y-16612452D01*
X3532399Y-16612452D02*
X3551447Y-16602928D01*
X3551447Y-16602928D02*
X3599066Y-16602928D01*
X3599066Y-16602928D02*
X3618114Y-16612452D01*
X3618114Y-16612452D02*
X3627637Y-16621976D01*
X3627637Y-16621976D02*
X3637161Y-16641023D01*
X3637161Y-16641023D02*
X3637161Y-16660071D01*
X3637161Y-16660071D02*
X3627637Y-16688642D01*
X3627637Y-16688642D02*
X3513352Y-16802928D01*
X3513352Y-16802928D02*
X3637161Y-16802928D01*
X3760971Y-16602928D02*
X3780018Y-16602928D01*
X3780018Y-16602928D02*
X3799066Y-16612452D01*
X3799066Y-16612452D02*
X3808590Y-16621976D01*
X3808590Y-16621976D02*
X3818114Y-16641023D01*
X3818114Y-16641023D02*
X3827637Y-16679118D01*
X3827637Y-16679118D02*
X3827637Y-16726738D01*
X3827637Y-16726738D02*
X3818114Y-16764833D01*
X3818114Y-16764833D02*
X3808590Y-16783880D01*
X3808590Y-16783880D02*
X3799066Y-16793404D01*
X3799066Y-16793404D02*
X3780018Y-16802928D01*
X3780018Y-16802928D02*
X3760971Y-16802928D01*
X3760971Y-16802928D02*
X3741923Y-16793404D01*
X3741923Y-16793404D02*
X3732399Y-16783880D01*
X3732399Y-16783880D02*
X3722875Y-16764833D01*
X3722875Y-16764833D02*
X3713352Y-16726738D01*
X3713352Y-16726738D02*
X3713352Y-16679118D01*
X3713352Y-16679118D02*
X3722875Y-16641023D01*
X3722875Y-16641023D02*
X3732399Y-16621976D01*
X3732399Y-16621976D02*
X3741923Y-16612452D01*
X3741923Y-16612452D02*
X3760971Y-16602928D01*
X3951447Y-16602928D02*
X3970495Y-16602928D01*
X3970495Y-16602928D02*
X3989542Y-16612452D01*
X3989542Y-16612452D02*
X3999066Y-16621976D01*
X3999066Y-16621976D02*
X4008590Y-16641023D01*
X4008590Y-16641023D02*
X4018114Y-16679118D01*
X4018114Y-16679118D02*
X4018114Y-16726738D01*
X4018114Y-16726738D02*
X4008590Y-16764833D01*
X4008590Y-16764833D02*
X3999066Y-16783880D01*
X3999066Y-16783880D02*
X3989542Y-16793404D01*
X3989542Y-16793404D02*
X3970495Y-16802928D01*
X3970495Y-16802928D02*
X3951447Y-16802928D01*
X3951447Y-16802928D02*
X3932399Y-16793404D01*
X3932399Y-16793404D02*
X3922875Y-16783880D01*
X3922875Y-16783880D02*
X3913352Y-16764833D01*
X3913352Y-16764833D02*
X3903828Y-16726738D01*
X3903828Y-16726738D02*
X3903828Y-16679118D01*
X3903828Y-16679118D02*
X3913352Y-16641023D01*
X3913352Y-16641023D02*
X3922875Y-16621976D01*
X3922875Y-16621976D02*
X3932399Y-16612452D01*
X3932399Y-16612452D02*
X3951447Y-16602928D01*
X4103828Y-16802928D02*
X4103828Y-16669595D01*
X4103828Y-16688642D02*
X4113352Y-16679118D01*
X4113352Y-16679118D02*
X4132399Y-16669595D01*
X4132399Y-16669595D02*
X4160971Y-16669595D01*
X4160971Y-16669595D02*
X4180018Y-16679118D01*
X4180018Y-16679118D02*
X4189542Y-16698166D01*
X4189542Y-16698166D02*
X4189542Y-16802928D01*
X4189542Y-16698166D02*
X4199066Y-16679118D01*
X4199066Y-16679118D02*
X4218114Y-16669595D01*
X4218114Y-16669595D02*
X4246685Y-16669595D01*
X4246685Y-16669595D02*
X4265733Y-16679118D01*
X4265733Y-16679118D02*
X4275257Y-16698166D01*
X4275257Y-16698166D02*
X4275257Y-16802928D01*
X4370495Y-16802928D02*
X4370495Y-16669595D01*
X4370495Y-16688642D02*
X4380018Y-16679118D01*
X4380018Y-16679118D02*
X4399066Y-16669595D01*
X4399066Y-16669595D02*
X4427638Y-16669595D01*
X4427638Y-16669595D02*
X4446685Y-16679118D01*
X4446685Y-16679118D02*
X4456209Y-16698166D01*
X4456209Y-16698166D02*
X4456209Y-16802928D01*
X4456209Y-16698166D02*
X4465733Y-16679118D01*
X4465733Y-16679118D02*
X4484780Y-16669595D01*
X4484780Y-16669595D02*
X4513352Y-16669595D01*
X4513352Y-16669595D02*
X4532399Y-16679118D01*
X4532399Y-16679118D02*
X4541923Y-16698166D01*
X4541923Y-16698166D02*
X4541923Y-16802928D01*
X4932399Y-16593404D02*
X4760971Y-16850547D01*
X5189542Y-16602928D02*
X5208590Y-16602928D01*
X5208590Y-16602928D02*
X5227638Y-16612452D01*
X5227638Y-16612452D02*
X5237161Y-16621976D01*
X5237161Y-16621976D02*
X5246685Y-16641023D01*
X5246685Y-16641023D02*
X5256209Y-16679118D01*
X5256209Y-16679118D02*
X5256209Y-16726738D01*
X5256209Y-16726738D02*
X5246685Y-16764833D01*
X5246685Y-16764833D02*
X5237161Y-16783880D01*
X5237161Y-16783880D02*
X5227638Y-16793404D01*
X5227638Y-16793404D02*
X5208590Y-16802928D01*
X5208590Y-16802928D02*
X5189542Y-16802928D01*
X5189542Y-16802928D02*
X5170495Y-16793404D01*
X5170495Y-16793404D02*
X5160971Y-16783880D01*
X5160971Y-16783880D02*
X5151447Y-16764833D01*
X5151447Y-16764833D02*
X5141923Y-16726738D01*
X5141923Y-16726738D02*
X5141923Y-16679118D01*
X5141923Y-16679118D02*
X5151447Y-16641023D01*
X5151447Y-16641023D02*
X5160971Y-16621976D01*
X5160971Y-16621976D02*
X5170495Y-16612452D01*
X5170495Y-16612452D02*
X5189542Y-16602928D01*
X5341923Y-16783880D02*
X5351447Y-16793404D01*
X5351447Y-16793404D02*
X5341923Y-16802928D01*
X5341923Y-16802928D02*
X5332400Y-16793404D01*
X5332400Y-16793404D02*
X5341923Y-16783880D01*
X5341923Y-16783880D02*
X5341923Y-16802928D01*
X5475257Y-16602928D02*
X5494304Y-16602928D01*
X5494304Y-16602928D02*
X5513352Y-16612452D01*
X5513352Y-16612452D02*
X5522876Y-16621976D01*
X5522876Y-16621976D02*
X5532400Y-16641023D01*
X5532400Y-16641023D02*
X5541923Y-16679118D01*
X5541923Y-16679118D02*
X5541923Y-16726738D01*
X5541923Y-16726738D02*
X5532400Y-16764833D01*
X5532400Y-16764833D02*
X5522876Y-16783880D01*
X5522876Y-16783880D02*
X5513352Y-16793404D01*
X5513352Y-16793404D02*
X5494304Y-16802928D01*
X5494304Y-16802928D02*
X5475257Y-16802928D01*
X5475257Y-16802928D02*
X5456209Y-16793404D01*
X5456209Y-16793404D02*
X5446685Y-16783880D01*
X5446685Y-16783880D02*
X5437161Y-16764833D01*
X5437161Y-16764833D02*
X5427638Y-16726738D01*
X5427638Y-16726738D02*
X5427638Y-16679118D01*
X5427638Y-16679118D02*
X5437161Y-16641023D01*
X5437161Y-16641023D02*
X5446685Y-16621976D01*
X5446685Y-16621976D02*
X5456209Y-16612452D01*
X5456209Y-16612452D02*
X5475257Y-16602928D01*
X5713352Y-16669595D02*
X5713352Y-16802928D01*
X5665733Y-16593404D02*
X5618114Y-16736261D01*
X5618114Y-16736261D02*
X5741923Y-16736261D01*
X5799066Y-16602928D02*
X5932399Y-16602928D01*
X5932399Y-16602928D02*
X5846685Y-16802928D01*
X5999066Y-16621976D02*
X6008590Y-16612452D01*
X6008590Y-16612452D02*
X6027638Y-16602928D01*
X6027638Y-16602928D02*
X6075257Y-16602928D01*
X6075257Y-16602928D02*
X6094304Y-16612452D01*
X6094304Y-16612452D02*
X6103828Y-16621976D01*
X6103828Y-16621976D02*
X6113352Y-16641023D01*
X6113352Y-16641023D02*
X6113352Y-16660071D01*
X6113352Y-16660071D02*
X6103828Y-16688642D01*
X6103828Y-16688642D02*
X5989542Y-16802928D01*
X5989542Y-16802928D02*
X6113352Y-16802928D01*
X6189542Y-16602928D02*
X6189542Y-16641023D01*
X6265733Y-16602928D02*
X6265733Y-16641023D01*
X6560971Y-16879119D02*
X6551447Y-16869595D01*
X6551447Y-16869595D02*
X6532400Y-16841023D01*
X6532400Y-16841023D02*
X6522876Y-16821976D01*
X6522876Y-16821976D02*
X6513352Y-16793404D01*
X6513352Y-16793404D02*
X6503828Y-16745785D01*
X6503828Y-16745785D02*
X6503828Y-16707690D01*
X6503828Y-16707690D02*
X6513352Y-16660071D01*
X6513352Y-16660071D02*
X6522876Y-16631499D01*
X6522876Y-16631499D02*
X6532400Y-16612452D01*
X6532400Y-16612452D02*
X6551447Y-16583880D01*
X6551447Y-16583880D02*
X6560971Y-16574357D01*
X6722876Y-16669595D02*
X6722876Y-16802928D01*
X6675257Y-16593404D02*
X6627638Y-16736261D01*
X6627638Y-16736261D02*
X6751447Y-16736261D01*
X6980019Y-16802928D02*
X6980019Y-16602928D01*
X7065733Y-16802928D02*
X7065733Y-16698166D01*
X7065733Y-16698166D02*
X7056209Y-16679118D01*
X7056209Y-16679118D02*
X7037162Y-16669595D01*
X7037162Y-16669595D02*
X7008590Y-16669595D01*
X7008590Y-16669595D02*
X6989542Y-16679118D01*
X6989542Y-16679118D02*
X6980019Y-16688642D01*
X7189542Y-16802928D02*
X7170495Y-16793404D01*
X7170495Y-16793404D02*
X7160971Y-16783880D01*
X7160971Y-16783880D02*
X7151447Y-16764833D01*
X7151447Y-16764833D02*
X7151447Y-16707690D01*
X7151447Y-16707690D02*
X7160971Y-16688642D01*
X7160971Y-16688642D02*
X7170495Y-16679118D01*
X7170495Y-16679118D02*
X7189542Y-16669595D01*
X7189542Y-16669595D02*
X7218114Y-16669595D01*
X7218114Y-16669595D02*
X7237162Y-16679118D01*
X7237162Y-16679118D02*
X7246685Y-16688642D01*
X7246685Y-16688642D02*
X7256209Y-16707690D01*
X7256209Y-16707690D02*
X7256209Y-16764833D01*
X7256209Y-16764833D02*
X7246685Y-16783880D01*
X7246685Y-16783880D02*
X7237162Y-16793404D01*
X7237162Y-16793404D02*
X7218114Y-16802928D01*
X7218114Y-16802928D02*
X7189542Y-16802928D01*
X7370495Y-16802928D02*
X7351447Y-16793404D01*
X7351447Y-16793404D02*
X7341923Y-16774357D01*
X7341923Y-16774357D02*
X7341923Y-16602928D01*
X7522876Y-16793404D02*
X7503828Y-16802928D01*
X7503828Y-16802928D02*
X7465733Y-16802928D01*
X7465733Y-16802928D02*
X7446685Y-16793404D01*
X7446685Y-16793404D02*
X7437162Y-16774357D01*
X7437162Y-16774357D02*
X7437162Y-16698166D01*
X7437162Y-16698166D02*
X7446685Y-16679118D01*
X7446685Y-16679118D02*
X7465733Y-16669595D01*
X7465733Y-16669595D02*
X7503828Y-16669595D01*
X7503828Y-16669595D02*
X7522876Y-16679118D01*
X7522876Y-16679118D02*
X7532400Y-16698166D01*
X7532400Y-16698166D02*
X7532400Y-16717214D01*
X7532400Y-16717214D02*
X7437162Y-16736261D01*
X7608590Y-16793404D02*
X7627638Y-16802928D01*
X7627638Y-16802928D02*
X7665733Y-16802928D01*
X7665733Y-16802928D02*
X7684781Y-16793404D01*
X7684781Y-16793404D02*
X7694304Y-16774357D01*
X7694304Y-16774357D02*
X7694304Y-16764833D01*
X7694304Y-16764833D02*
X7684781Y-16745785D01*
X7684781Y-16745785D02*
X7665733Y-16736261D01*
X7665733Y-16736261D02*
X7637162Y-16736261D01*
X7637162Y-16736261D02*
X7618114Y-16726738D01*
X7618114Y-16726738D02*
X7608590Y-16707690D01*
X7608590Y-16707690D02*
X7608590Y-16698166D01*
X7608590Y-16698166D02*
X7618114Y-16679118D01*
X7618114Y-16679118D02*
X7637162Y-16669595D01*
X7637162Y-16669595D02*
X7665733Y-16669595D01*
X7665733Y-16669595D02*
X7684781Y-16679118D01*
X7760971Y-16879119D02*
X7770495Y-16869595D01*
X7770495Y-16869595D02*
X7789543Y-16841023D01*
X7789543Y-16841023D02*
X7799066Y-16821976D01*
X7799066Y-16821976D02*
X7808590Y-16793404D01*
X7808590Y-16793404D02*
X7818114Y-16745785D01*
X7818114Y-16745785D02*
X7818114Y-16707690D01*
X7818114Y-16707690D02*
X7808590Y-16660071D01*
X7808590Y-16660071D02*
X7799066Y-16631499D01*
X7799066Y-16631499D02*
X7789543Y-16612452D01*
X7789543Y-16612452D02*
X7770495Y-16583880D01*
X7770495Y-16583880D02*
X7760971Y-16574357D01*
X8122876Y-16879119D02*
X8113352Y-16869595D01*
X8113352Y-16869595D02*
X8094304Y-16841023D01*
X8094304Y-16841023D02*
X8084781Y-16821976D01*
X8084781Y-16821976D02*
X8075257Y-16793404D01*
X8075257Y-16793404D02*
X8065733Y-16745785D01*
X8065733Y-16745785D02*
X8065733Y-16707690D01*
X8065733Y-16707690D02*
X8075257Y-16660071D01*
X8075257Y-16660071D02*
X8084781Y-16631499D01*
X8084781Y-16631499D02*
X8094304Y-16612452D01*
X8094304Y-16612452D02*
X8113352Y-16583880D01*
X8113352Y-16583880D02*
X8122876Y-16574357D01*
X8199066Y-16669595D02*
X8199066Y-16802928D01*
X8199066Y-16688642D02*
X8208590Y-16679118D01*
X8208590Y-16679118D02*
X8227638Y-16669595D01*
X8227638Y-16669595D02*
X8256209Y-16669595D01*
X8256209Y-16669595D02*
X8275257Y-16679118D01*
X8275257Y-16679118D02*
X8284781Y-16698166D01*
X8284781Y-16698166D02*
X8284781Y-16802928D01*
X8408590Y-16802928D02*
X8389543Y-16793404D01*
X8389543Y-16793404D02*
X8380019Y-16783880D01*
X8380019Y-16783880D02*
X8370495Y-16764833D01*
X8370495Y-16764833D02*
X8370495Y-16707690D01*
X8370495Y-16707690D02*
X8380019Y-16688642D01*
X8380019Y-16688642D02*
X8389543Y-16679118D01*
X8389543Y-16679118D02*
X8408590Y-16669595D01*
X8408590Y-16669595D02*
X8437162Y-16669595D01*
X8437162Y-16669595D02*
X8456209Y-16679118D01*
X8456209Y-16679118D02*
X8465733Y-16688642D01*
X8465733Y-16688642D02*
X8475257Y-16707690D01*
X8475257Y-16707690D02*
X8475257Y-16764833D01*
X8475257Y-16764833D02*
X8465733Y-16783880D01*
X8465733Y-16783880D02*
X8456209Y-16793404D01*
X8456209Y-16793404D02*
X8437162Y-16802928D01*
X8437162Y-16802928D02*
X8408590Y-16802928D01*
X8532400Y-16669595D02*
X8608590Y-16669595D01*
X8560971Y-16602928D02*
X8560971Y-16774357D01*
X8560971Y-16774357D02*
X8570495Y-16793404D01*
X8570495Y-16793404D02*
X8589543Y-16802928D01*
X8589543Y-16802928D02*
X8608590Y-16802928D01*
X8827638Y-16669595D02*
X8827638Y-16869595D01*
X8827638Y-16679118D02*
X8846686Y-16669595D01*
X8846686Y-16669595D02*
X8884781Y-16669595D01*
X8884781Y-16669595D02*
X8903828Y-16679118D01*
X8903828Y-16679118D02*
X8913352Y-16688642D01*
X8913352Y-16688642D02*
X8922876Y-16707690D01*
X8922876Y-16707690D02*
X8922876Y-16764833D01*
X8922876Y-16764833D02*
X8913352Y-16783880D01*
X8913352Y-16783880D02*
X8903828Y-16793404D01*
X8903828Y-16793404D02*
X8884781Y-16802928D01*
X8884781Y-16802928D02*
X8846686Y-16802928D01*
X8846686Y-16802928D02*
X8827638Y-16793404D01*
X9037162Y-16802928D02*
X9018114Y-16793404D01*
X9018114Y-16793404D02*
X9008590Y-16774357D01*
X9008590Y-16774357D02*
X9008590Y-16602928D01*
X9199067Y-16802928D02*
X9199067Y-16698166D01*
X9199067Y-16698166D02*
X9189543Y-16679118D01*
X9189543Y-16679118D02*
X9170495Y-16669595D01*
X9170495Y-16669595D02*
X9132400Y-16669595D01*
X9132400Y-16669595D02*
X9113352Y-16679118D01*
X9199067Y-16793404D02*
X9180019Y-16802928D01*
X9180019Y-16802928D02*
X9132400Y-16802928D01*
X9132400Y-16802928D02*
X9113352Y-16793404D01*
X9113352Y-16793404D02*
X9103828Y-16774357D01*
X9103828Y-16774357D02*
X9103828Y-16755309D01*
X9103828Y-16755309D02*
X9113352Y-16736261D01*
X9113352Y-16736261D02*
X9132400Y-16726738D01*
X9132400Y-16726738D02*
X9180019Y-16726738D01*
X9180019Y-16726738D02*
X9199067Y-16717214D01*
X9265733Y-16669595D02*
X9341924Y-16669595D01*
X9294305Y-16602928D02*
X9294305Y-16774357D01*
X9294305Y-16774357D02*
X9303828Y-16793404D01*
X9303828Y-16793404D02*
X9322876Y-16802928D01*
X9322876Y-16802928D02*
X9341924Y-16802928D01*
X9484781Y-16793404D02*
X9465733Y-16802928D01*
X9465733Y-16802928D02*
X9427638Y-16802928D01*
X9427638Y-16802928D02*
X9408590Y-16793404D01*
X9408590Y-16793404D02*
X9399067Y-16774357D01*
X9399067Y-16774357D02*
X9399067Y-16698166D01*
X9399067Y-16698166D02*
X9408590Y-16679118D01*
X9408590Y-16679118D02*
X9427638Y-16669595D01*
X9427638Y-16669595D02*
X9465733Y-16669595D01*
X9465733Y-16669595D02*
X9484781Y-16679118D01*
X9484781Y-16679118D02*
X9494305Y-16698166D01*
X9494305Y-16698166D02*
X9494305Y-16717214D01*
X9494305Y-16717214D02*
X9399067Y-16736261D01*
X9665733Y-16802928D02*
X9665733Y-16602928D01*
X9665733Y-16793404D02*
X9646686Y-16802928D01*
X9646686Y-16802928D02*
X9608590Y-16802928D01*
X9608590Y-16802928D02*
X9589543Y-16793404D01*
X9589543Y-16793404D02*
X9580019Y-16783880D01*
X9580019Y-16783880D02*
X9570495Y-16764833D01*
X9570495Y-16764833D02*
X9570495Y-16707690D01*
X9570495Y-16707690D02*
X9580019Y-16688642D01*
X9580019Y-16688642D02*
X9589543Y-16679118D01*
X9589543Y-16679118D02*
X9608590Y-16669595D01*
X9608590Y-16669595D02*
X9646686Y-16669595D01*
X9646686Y-16669595D02*
X9665733Y-16679118D01*
X9741924Y-16879119D02*
X9751448Y-16869595D01*
X9751448Y-16869595D02*
X9770495Y-16841023D01*
X9770495Y-16841023D02*
X9780019Y-16821976D01*
X9780019Y-16821976D02*
X9789543Y-16793404D01*
X9789543Y-16793404D02*
X9799067Y-16745785D01*
X9799067Y-16745785D02*
X9799067Y-16707690D01*
X9799067Y-16707690D02*
X9789543Y-16660071D01*
X9789543Y-16660071D02*
X9780019Y-16631499D01*
X9780019Y-16631499D02*
X9770495Y-16612452D01*
X9770495Y-16612452D02*
X9751448Y-16583880D01*
X9751448Y-16583880D02*
X9741924Y-16574357D01*
D14*
X2914066Y-16889404D02*
X2914066Y-17059404D01*
X2829066Y-16974404D02*
X2999066Y-16974404D01*
D10*
X3351447Y-17066928D02*
X3237161Y-17066928D01*
X3294304Y-17066928D02*
X3294304Y-16866928D01*
X3294304Y-16866928D02*
X3275256Y-16895500D01*
X3275256Y-16895500D02*
X3256209Y-16914547D01*
X3256209Y-16914547D02*
X3237161Y-16924071D01*
X3437161Y-17047880D02*
X3446685Y-17057404D01*
X3446685Y-17057404D02*
X3437161Y-17066928D01*
X3437161Y-17066928D02*
X3427637Y-17057404D01*
X3427637Y-17057404D02*
X3437161Y-17047880D01*
X3437161Y-17047880D02*
X3437161Y-17066928D01*
X3513352Y-16866928D02*
X3646685Y-16866928D01*
X3646685Y-16866928D02*
X3560971Y-17066928D01*
X3760971Y-16866928D02*
X3780018Y-16866928D01*
X3780018Y-16866928D02*
X3799066Y-16876452D01*
X3799066Y-16876452D02*
X3808590Y-16885976D01*
X3808590Y-16885976D02*
X3818114Y-16905023D01*
X3818114Y-16905023D02*
X3827637Y-16943119D01*
X3827637Y-16943119D02*
X3827637Y-16990738D01*
X3827637Y-16990738D02*
X3818114Y-17028833D01*
X3818114Y-17028833D02*
X3808590Y-17047880D01*
X3808590Y-17047880D02*
X3799066Y-17057404D01*
X3799066Y-17057404D02*
X3780018Y-17066928D01*
X3780018Y-17066928D02*
X3760971Y-17066928D01*
X3760971Y-17066928D02*
X3741923Y-17057404D01*
X3741923Y-17057404D02*
X3732399Y-17047880D01*
X3732399Y-17047880D02*
X3722875Y-17028833D01*
X3722875Y-17028833D02*
X3713352Y-16990738D01*
X3713352Y-16990738D02*
X3713352Y-16943119D01*
X3713352Y-16943119D02*
X3722875Y-16905023D01*
X3722875Y-16905023D02*
X3732399Y-16885976D01*
X3732399Y-16885976D02*
X3741923Y-16876452D01*
X3741923Y-16876452D02*
X3760971Y-16866928D01*
X3951447Y-16866928D02*
X3970495Y-16866928D01*
X3970495Y-16866928D02*
X3989542Y-16876452D01*
X3989542Y-16876452D02*
X3999066Y-16885976D01*
X3999066Y-16885976D02*
X4008590Y-16905023D01*
X4008590Y-16905023D02*
X4018114Y-16943119D01*
X4018114Y-16943119D02*
X4018114Y-16990738D01*
X4018114Y-16990738D02*
X4008590Y-17028833D01*
X4008590Y-17028833D02*
X3999066Y-17047880D01*
X3999066Y-17047880D02*
X3989542Y-17057404D01*
X3989542Y-17057404D02*
X3970495Y-17066928D01*
X3970495Y-17066928D02*
X3951447Y-17066928D01*
X3951447Y-17066928D02*
X3932399Y-17057404D01*
X3932399Y-17057404D02*
X3922875Y-17047880D01*
X3922875Y-17047880D02*
X3913352Y-17028833D01*
X3913352Y-17028833D02*
X3903828Y-16990738D01*
X3903828Y-16990738D02*
X3903828Y-16943119D01*
X3903828Y-16943119D02*
X3913352Y-16905023D01*
X3913352Y-16905023D02*
X3922875Y-16885976D01*
X3922875Y-16885976D02*
X3932399Y-16876452D01*
X3932399Y-16876452D02*
X3951447Y-16866928D01*
X4103828Y-17066928D02*
X4103828Y-16933595D01*
X4103828Y-16952642D02*
X4113352Y-16943119D01*
X4113352Y-16943119D02*
X4132399Y-16933595D01*
X4132399Y-16933595D02*
X4160971Y-16933595D01*
X4160971Y-16933595D02*
X4180018Y-16943119D01*
X4180018Y-16943119D02*
X4189542Y-16962166D01*
X4189542Y-16962166D02*
X4189542Y-17066928D01*
X4189542Y-16962166D02*
X4199066Y-16943119D01*
X4199066Y-16943119D02*
X4218114Y-16933595D01*
X4218114Y-16933595D02*
X4246685Y-16933595D01*
X4246685Y-16933595D02*
X4265733Y-16943119D01*
X4265733Y-16943119D02*
X4275257Y-16962166D01*
X4275257Y-16962166D02*
X4275257Y-17066928D01*
X4370495Y-17066928D02*
X4370495Y-16933595D01*
X4370495Y-16952642D02*
X4380018Y-16943119D01*
X4380018Y-16943119D02*
X4399066Y-16933595D01*
X4399066Y-16933595D02*
X4427638Y-16933595D01*
X4427638Y-16933595D02*
X4446685Y-16943119D01*
X4446685Y-16943119D02*
X4456209Y-16962166D01*
X4456209Y-16962166D02*
X4456209Y-17066928D01*
X4456209Y-16962166D02*
X4465733Y-16943119D01*
X4465733Y-16943119D02*
X4484780Y-16933595D01*
X4484780Y-16933595D02*
X4513352Y-16933595D01*
X4513352Y-16933595D02*
X4532399Y-16943119D01*
X4532399Y-16943119D02*
X4541923Y-16962166D01*
X4541923Y-16962166D02*
X4541923Y-17066928D01*
X4932399Y-16857404D02*
X4760971Y-17114547D01*
X5189542Y-16866928D02*
X5208590Y-16866928D01*
X5208590Y-16866928D02*
X5227638Y-16876452D01*
X5227638Y-16876452D02*
X5237161Y-16885976D01*
X5237161Y-16885976D02*
X5246685Y-16905023D01*
X5246685Y-16905023D02*
X5256209Y-16943119D01*
X5256209Y-16943119D02*
X5256209Y-16990738D01*
X5256209Y-16990738D02*
X5246685Y-17028833D01*
X5246685Y-17028833D02*
X5237161Y-17047880D01*
X5237161Y-17047880D02*
X5227638Y-17057404D01*
X5227638Y-17057404D02*
X5208590Y-17066928D01*
X5208590Y-17066928D02*
X5189542Y-17066928D01*
X5189542Y-17066928D02*
X5170495Y-17057404D01*
X5170495Y-17057404D02*
X5160971Y-17047880D01*
X5160971Y-17047880D02*
X5151447Y-17028833D01*
X5151447Y-17028833D02*
X5141923Y-16990738D01*
X5141923Y-16990738D02*
X5141923Y-16943119D01*
X5141923Y-16943119D02*
X5151447Y-16905023D01*
X5151447Y-16905023D02*
X5160971Y-16885976D01*
X5160971Y-16885976D02*
X5170495Y-16876452D01*
X5170495Y-16876452D02*
X5189542Y-16866928D01*
X5341923Y-17047880D02*
X5351447Y-17057404D01*
X5351447Y-17057404D02*
X5341923Y-17066928D01*
X5341923Y-17066928D02*
X5332400Y-17057404D01*
X5332400Y-17057404D02*
X5341923Y-17047880D01*
X5341923Y-17047880D02*
X5341923Y-17066928D01*
X5475257Y-16866928D02*
X5494304Y-16866928D01*
X5494304Y-16866928D02*
X5513352Y-16876452D01*
X5513352Y-16876452D02*
X5522876Y-16885976D01*
X5522876Y-16885976D02*
X5532400Y-16905023D01*
X5532400Y-16905023D02*
X5541923Y-16943119D01*
X5541923Y-16943119D02*
X5541923Y-16990738D01*
X5541923Y-16990738D02*
X5532400Y-17028833D01*
X5532400Y-17028833D02*
X5522876Y-17047880D01*
X5522876Y-17047880D02*
X5513352Y-17057404D01*
X5513352Y-17057404D02*
X5494304Y-17066928D01*
X5494304Y-17066928D02*
X5475257Y-17066928D01*
X5475257Y-17066928D02*
X5456209Y-17057404D01*
X5456209Y-17057404D02*
X5446685Y-17047880D01*
X5446685Y-17047880D02*
X5437161Y-17028833D01*
X5437161Y-17028833D02*
X5427638Y-16990738D01*
X5427638Y-16990738D02*
X5427638Y-16943119D01*
X5427638Y-16943119D02*
X5437161Y-16905023D01*
X5437161Y-16905023D02*
X5446685Y-16885976D01*
X5446685Y-16885976D02*
X5456209Y-16876452D01*
X5456209Y-16876452D02*
X5475257Y-16866928D01*
X5713352Y-16866928D02*
X5675257Y-16866928D01*
X5675257Y-16866928D02*
X5656209Y-16876452D01*
X5656209Y-16876452D02*
X5646685Y-16885976D01*
X5646685Y-16885976D02*
X5627638Y-16914547D01*
X5627638Y-16914547D02*
X5618114Y-16952642D01*
X5618114Y-16952642D02*
X5618114Y-17028833D01*
X5618114Y-17028833D02*
X5627638Y-17047880D01*
X5627638Y-17047880D02*
X5637161Y-17057404D01*
X5637161Y-17057404D02*
X5656209Y-17066928D01*
X5656209Y-17066928D02*
X5694304Y-17066928D01*
X5694304Y-17066928D02*
X5713352Y-17057404D01*
X5713352Y-17057404D02*
X5722876Y-17047880D01*
X5722876Y-17047880D02*
X5732399Y-17028833D01*
X5732399Y-17028833D02*
X5732399Y-16981214D01*
X5732399Y-16981214D02*
X5722876Y-16962166D01*
X5722876Y-16962166D02*
X5713352Y-16952642D01*
X5713352Y-16952642D02*
X5694304Y-16943119D01*
X5694304Y-16943119D02*
X5656209Y-16943119D01*
X5656209Y-16943119D02*
X5637161Y-16952642D01*
X5637161Y-16952642D02*
X5627638Y-16962166D01*
X5627638Y-16962166D02*
X5618114Y-16981214D01*
X5903828Y-16866928D02*
X5865733Y-16866928D01*
X5865733Y-16866928D02*
X5846685Y-16876452D01*
X5846685Y-16876452D02*
X5837161Y-16885976D01*
X5837161Y-16885976D02*
X5818114Y-16914547D01*
X5818114Y-16914547D02*
X5808590Y-16952642D01*
X5808590Y-16952642D02*
X5808590Y-17028833D01*
X5808590Y-17028833D02*
X5818114Y-17047880D01*
X5818114Y-17047880D02*
X5827638Y-17057404D01*
X5827638Y-17057404D02*
X5846685Y-17066928D01*
X5846685Y-17066928D02*
X5884780Y-17066928D01*
X5884780Y-17066928D02*
X5903828Y-17057404D01*
X5903828Y-17057404D02*
X5913352Y-17047880D01*
X5913352Y-17047880D02*
X5922876Y-17028833D01*
X5922876Y-17028833D02*
X5922876Y-16981214D01*
X5922876Y-16981214D02*
X5913352Y-16962166D01*
X5913352Y-16962166D02*
X5903828Y-16952642D01*
X5903828Y-16952642D02*
X5884780Y-16943119D01*
X5884780Y-16943119D02*
X5846685Y-16943119D01*
X5846685Y-16943119D02*
X5827638Y-16952642D01*
X5827638Y-16952642D02*
X5818114Y-16962166D01*
X5818114Y-16962166D02*
X5808590Y-16981214D01*
X6018114Y-17066928D02*
X6056209Y-17066928D01*
X6056209Y-17066928D02*
X6075257Y-17057404D01*
X6075257Y-17057404D02*
X6084780Y-17047880D01*
X6084780Y-17047880D02*
X6103828Y-17019309D01*
X6103828Y-17019309D02*
X6113352Y-16981214D01*
X6113352Y-16981214D02*
X6113352Y-16905023D01*
X6113352Y-16905023D02*
X6103828Y-16885976D01*
X6103828Y-16885976D02*
X6094304Y-16876452D01*
X6094304Y-16876452D02*
X6075257Y-16866928D01*
X6075257Y-16866928D02*
X6037161Y-16866928D01*
X6037161Y-16866928D02*
X6018114Y-16876452D01*
X6018114Y-16876452D02*
X6008590Y-16885976D01*
X6008590Y-16885976D02*
X5999066Y-16905023D01*
X5999066Y-16905023D02*
X5999066Y-16952642D01*
X5999066Y-16952642D02*
X6008590Y-16971690D01*
X6008590Y-16971690D02*
X6018114Y-16981214D01*
X6018114Y-16981214D02*
X6037161Y-16990738D01*
X6037161Y-16990738D02*
X6075257Y-16990738D01*
X6075257Y-16990738D02*
X6094304Y-16981214D01*
X6094304Y-16981214D02*
X6103828Y-16971690D01*
X6103828Y-16971690D02*
X6113352Y-16952642D01*
X6189542Y-16866928D02*
X6189542Y-16905023D01*
X6265733Y-16866928D02*
X6265733Y-16905023D01*
X6560971Y-17143119D02*
X6551447Y-17133595D01*
X6551447Y-17133595D02*
X6532400Y-17105023D01*
X6532400Y-17105023D02*
X6522876Y-17085976D01*
X6522876Y-17085976D02*
X6513352Y-17057404D01*
X6513352Y-17057404D02*
X6503828Y-17009785D01*
X6503828Y-17009785D02*
X6503828Y-16971690D01*
X6503828Y-16971690D02*
X6513352Y-16924071D01*
X6513352Y-16924071D02*
X6522876Y-16895500D01*
X6522876Y-16895500D02*
X6532400Y-16876452D01*
X6532400Y-16876452D02*
X6551447Y-16847880D01*
X6551447Y-16847880D02*
X6560971Y-16838357D01*
X6618114Y-16866928D02*
X6741923Y-16866928D01*
X6741923Y-16866928D02*
X6675257Y-16943119D01*
X6675257Y-16943119D02*
X6703828Y-16943119D01*
X6703828Y-16943119D02*
X6722876Y-16952642D01*
X6722876Y-16952642D02*
X6732400Y-16962166D01*
X6732400Y-16962166D02*
X6741923Y-16981214D01*
X6741923Y-16981214D02*
X6741923Y-17028833D01*
X6741923Y-17028833D02*
X6732400Y-17047880D01*
X6732400Y-17047880D02*
X6722876Y-17057404D01*
X6722876Y-17057404D02*
X6703828Y-17066928D01*
X6703828Y-17066928D02*
X6646685Y-17066928D01*
X6646685Y-17066928D02*
X6627638Y-17057404D01*
X6627638Y-17057404D02*
X6618114Y-17047880D01*
X6913352Y-16866928D02*
X6875257Y-16866928D01*
X6875257Y-16866928D02*
X6856209Y-16876452D01*
X6856209Y-16876452D02*
X6846685Y-16885976D01*
X6846685Y-16885976D02*
X6827638Y-16914547D01*
X6827638Y-16914547D02*
X6818114Y-16952642D01*
X6818114Y-16952642D02*
X6818114Y-17028833D01*
X6818114Y-17028833D02*
X6827638Y-17047880D01*
X6827638Y-17047880D02*
X6837161Y-17057404D01*
X6837161Y-17057404D02*
X6856209Y-17066928D01*
X6856209Y-17066928D02*
X6894304Y-17066928D01*
X6894304Y-17066928D02*
X6913352Y-17057404D01*
X6913352Y-17057404D02*
X6922876Y-17047880D01*
X6922876Y-17047880D02*
X6932400Y-17028833D01*
X6932400Y-17028833D02*
X6932400Y-16981214D01*
X6932400Y-16981214D02*
X6922876Y-16962166D01*
X6922876Y-16962166D02*
X6913352Y-16952642D01*
X6913352Y-16952642D02*
X6894304Y-16943119D01*
X6894304Y-16943119D02*
X6856209Y-16943119D01*
X6856209Y-16943119D02*
X6837161Y-16952642D01*
X6837161Y-16952642D02*
X6827638Y-16962166D01*
X6827638Y-16962166D02*
X6818114Y-16981214D01*
X7170495Y-17066928D02*
X7170495Y-16866928D01*
X7256209Y-17066928D02*
X7256209Y-16962166D01*
X7256209Y-16962166D02*
X7246685Y-16943119D01*
X7246685Y-16943119D02*
X7227638Y-16933595D01*
X7227638Y-16933595D02*
X7199066Y-16933595D01*
X7199066Y-16933595D02*
X7180019Y-16943119D01*
X7180019Y-16943119D02*
X7170495Y-16952642D01*
X7380019Y-17066928D02*
X7360971Y-17057404D01*
X7360971Y-17057404D02*
X7351447Y-17047880D01*
X7351447Y-17047880D02*
X7341923Y-17028833D01*
X7341923Y-17028833D02*
X7341923Y-16971690D01*
X7341923Y-16971690D02*
X7351447Y-16952642D01*
X7351447Y-16952642D02*
X7360971Y-16943119D01*
X7360971Y-16943119D02*
X7380019Y-16933595D01*
X7380019Y-16933595D02*
X7408590Y-16933595D01*
X7408590Y-16933595D02*
X7427638Y-16943119D01*
X7427638Y-16943119D02*
X7437162Y-16952642D01*
X7437162Y-16952642D02*
X7446685Y-16971690D01*
X7446685Y-16971690D02*
X7446685Y-17028833D01*
X7446685Y-17028833D02*
X7437162Y-17047880D01*
X7437162Y-17047880D02*
X7427638Y-17057404D01*
X7427638Y-17057404D02*
X7408590Y-17066928D01*
X7408590Y-17066928D02*
X7380019Y-17066928D01*
X7560971Y-17066928D02*
X7541923Y-17057404D01*
X7541923Y-17057404D02*
X7532400Y-17038357D01*
X7532400Y-17038357D02*
X7532400Y-16866928D01*
X7713352Y-17057404D02*
X7694304Y-17066928D01*
X7694304Y-17066928D02*
X7656209Y-17066928D01*
X7656209Y-17066928D02*
X7637162Y-17057404D01*
X7637162Y-17057404D02*
X7627638Y-17038357D01*
X7627638Y-17038357D02*
X7627638Y-16962166D01*
X7627638Y-16962166D02*
X7637162Y-16943119D01*
X7637162Y-16943119D02*
X7656209Y-16933595D01*
X7656209Y-16933595D02*
X7694304Y-16933595D01*
X7694304Y-16933595D02*
X7713352Y-16943119D01*
X7713352Y-16943119D02*
X7722876Y-16962166D01*
X7722876Y-16962166D02*
X7722876Y-16981214D01*
X7722876Y-16981214D02*
X7627638Y-17000261D01*
X7799066Y-17057404D02*
X7818114Y-17066928D01*
X7818114Y-17066928D02*
X7856209Y-17066928D01*
X7856209Y-17066928D02*
X7875257Y-17057404D01*
X7875257Y-17057404D02*
X7884781Y-17038357D01*
X7884781Y-17038357D02*
X7884781Y-17028833D01*
X7884781Y-17028833D02*
X7875257Y-17009785D01*
X7875257Y-17009785D02*
X7856209Y-17000261D01*
X7856209Y-17000261D02*
X7827638Y-17000261D01*
X7827638Y-17000261D02*
X7808590Y-16990738D01*
X7808590Y-16990738D02*
X7799066Y-16971690D01*
X7799066Y-16971690D02*
X7799066Y-16962166D01*
X7799066Y-16962166D02*
X7808590Y-16943119D01*
X7808590Y-16943119D02*
X7827638Y-16933595D01*
X7827638Y-16933595D02*
X7856209Y-16933595D01*
X7856209Y-16933595D02*
X7875257Y-16943119D01*
X7951447Y-17143119D02*
X7960971Y-17133595D01*
X7960971Y-17133595D02*
X7980019Y-17105023D01*
X7980019Y-17105023D02*
X7989543Y-17085976D01*
X7989543Y-17085976D02*
X7999066Y-17057404D01*
X7999066Y-17057404D02*
X8008590Y-17009785D01*
X8008590Y-17009785D02*
X8008590Y-16971690D01*
X8008590Y-16971690D02*
X7999066Y-16924071D01*
X7999066Y-16924071D02*
X7989543Y-16895500D01*
X7989543Y-16895500D02*
X7980019Y-16876452D01*
X7980019Y-16876452D02*
X7960971Y-16847880D01*
X7960971Y-16847880D02*
X7951447Y-16838357D01*
X8313352Y-17143119D02*
X8303828Y-17133595D01*
X8303828Y-17133595D02*
X8284781Y-17105023D01*
X8284781Y-17105023D02*
X8275257Y-17085976D01*
X8275257Y-17085976D02*
X8265733Y-17057404D01*
X8265733Y-17057404D02*
X8256209Y-17009785D01*
X8256209Y-17009785D02*
X8256209Y-16971690D01*
X8256209Y-16971690D02*
X8265733Y-16924071D01*
X8265733Y-16924071D02*
X8275257Y-16895500D01*
X8275257Y-16895500D02*
X8284781Y-16876452D01*
X8284781Y-16876452D02*
X8303828Y-16847880D01*
X8303828Y-16847880D02*
X8313352Y-16838357D01*
X8389543Y-16933595D02*
X8389543Y-17066928D01*
X8389543Y-16952642D02*
X8399066Y-16943119D01*
X8399066Y-16943119D02*
X8418114Y-16933595D01*
X8418114Y-16933595D02*
X8446686Y-16933595D01*
X8446686Y-16933595D02*
X8465733Y-16943119D01*
X8465733Y-16943119D02*
X8475257Y-16962166D01*
X8475257Y-16962166D02*
X8475257Y-17066928D01*
X8599066Y-17066928D02*
X8580019Y-17057404D01*
X8580019Y-17057404D02*
X8570495Y-17047880D01*
X8570495Y-17047880D02*
X8560971Y-17028833D01*
X8560971Y-17028833D02*
X8560971Y-16971690D01*
X8560971Y-16971690D02*
X8570495Y-16952642D01*
X8570495Y-16952642D02*
X8580019Y-16943119D01*
X8580019Y-16943119D02*
X8599066Y-16933595D01*
X8599066Y-16933595D02*
X8627638Y-16933595D01*
X8627638Y-16933595D02*
X8646686Y-16943119D01*
X8646686Y-16943119D02*
X8656209Y-16952642D01*
X8656209Y-16952642D02*
X8665733Y-16971690D01*
X8665733Y-16971690D02*
X8665733Y-17028833D01*
X8665733Y-17028833D02*
X8656209Y-17047880D01*
X8656209Y-17047880D02*
X8646686Y-17057404D01*
X8646686Y-17057404D02*
X8627638Y-17066928D01*
X8627638Y-17066928D02*
X8599066Y-17066928D01*
X8722876Y-16933595D02*
X8799066Y-16933595D01*
X8751447Y-16866928D02*
X8751447Y-17038357D01*
X8751447Y-17038357D02*
X8760971Y-17057404D01*
X8760971Y-17057404D02*
X8780019Y-17066928D01*
X8780019Y-17066928D02*
X8799066Y-17066928D01*
X9018114Y-16933595D02*
X9018114Y-17133595D01*
X9018114Y-16943119D02*
X9037162Y-16933595D01*
X9037162Y-16933595D02*
X9075257Y-16933595D01*
X9075257Y-16933595D02*
X9094305Y-16943119D01*
X9094305Y-16943119D02*
X9103828Y-16952642D01*
X9103828Y-16952642D02*
X9113352Y-16971690D01*
X9113352Y-16971690D02*
X9113352Y-17028833D01*
X9113352Y-17028833D02*
X9103828Y-17047880D01*
X9103828Y-17047880D02*
X9094305Y-17057404D01*
X9094305Y-17057404D02*
X9075257Y-17066928D01*
X9075257Y-17066928D02*
X9037162Y-17066928D01*
X9037162Y-17066928D02*
X9018114Y-17057404D01*
X9227638Y-17066928D02*
X9208590Y-17057404D01*
X9208590Y-17057404D02*
X9199067Y-17038357D01*
X9199067Y-17038357D02*
X9199067Y-16866928D01*
X9389543Y-17066928D02*
X9389543Y-16962166D01*
X9389543Y-16962166D02*
X9380019Y-16943119D01*
X9380019Y-16943119D02*
X9360971Y-16933595D01*
X9360971Y-16933595D02*
X9322876Y-16933595D01*
X9322876Y-16933595D02*
X9303828Y-16943119D01*
X9389543Y-17057404D02*
X9370495Y-17066928D01*
X9370495Y-17066928D02*
X9322876Y-17066928D01*
X9322876Y-17066928D02*
X9303828Y-17057404D01*
X9303828Y-17057404D02*
X9294305Y-17038357D01*
X9294305Y-17038357D02*
X9294305Y-17019309D01*
X9294305Y-17019309D02*
X9303828Y-17000261D01*
X9303828Y-17000261D02*
X9322876Y-16990738D01*
X9322876Y-16990738D02*
X9370495Y-16990738D01*
X9370495Y-16990738D02*
X9389543Y-16981214D01*
X9456209Y-16933595D02*
X9532400Y-16933595D01*
X9484781Y-16866928D02*
X9484781Y-17038357D01*
X9484781Y-17038357D02*
X9494305Y-17057404D01*
X9494305Y-17057404D02*
X9513352Y-17066928D01*
X9513352Y-17066928D02*
X9532400Y-17066928D01*
X9675257Y-17057404D02*
X9656209Y-17066928D01*
X9656209Y-17066928D02*
X9618114Y-17066928D01*
X9618114Y-17066928D02*
X9599067Y-17057404D01*
X9599067Y-17057404D02*
X9589543Y-17038357D01*
X9589543Y-17038357D02*
X9589543Y-16962166D01*
X9589543Y-16962166D02*
X9599067Y-16943119D01*
X9599067Y-16943119D02*
X9618114Y-16933595D01*
X9618114Y-16933595D02*
X9656209Y-16933595D01*
X9656209Y-16933595D02*
X9675257Y-16943119D01*
X9675257Y-16943119D02*
X9684781Y-16962166D01*
X9684781Y-16962166D02*
X9684781Y-16981214D01*
X9684781Y-16981214D02*
X9589543Y-17000261D01*
X9856209Y-17066928D02*
X9856209Y-16866928D01*
X9856209Y-17057404D02*
X9837162Y-17066928D01*
X9837162Y-17066928D02*
X9799067Y-17066928D01*
X9799067Y-17066928D02*
X9780019Y-17057404D01*
X9780019Y-17057404D02*
X9770495Y-17047880D01*
X9770495Y-17047880D02*
X9760971Y-17028833D01*
X9760971Y-17028833D02*
X9760971Y-16971690D01*
X9760971Y-16971690D02*
X9770495Y-16952642D01*
X9770495Y-16952642D02*
X9780019Y-16943119D01*
X9780019Y-16943119D02*
X9799067Y-16933595D01*
X9799067Y-16933595D02*
X9837162Y-16933595D01*
X9837162Y-16933595D02*
X9856209Y-16943119D01*
X9932400Y-17143119D02*
X9941924Y-17133595D01*
X9941924Y-17133595D02*
X9960971Y-17105023D01*
X9960971Y-17105023D02*
X9970495Y-17085976D01*
X9970495Y-17085976D02*
X9980019Y-17057404D01*
X9980019Y-17057404D02*
X9989543Y-17009785D01*
X9989543Y-17009785D02*
X9989543Y-16971690D01*
X9989543Y-16971690D02*
X9980019Y-16924071D01*
X9980019Y-16924071D02*
X9970495Y-16895500D01*
X9970495Y-16895500D02*
X9960971Y-16876452D01*
X9960971Y-16876452D02*
X9941924Y-16847880D01*
X9941924Y-16847880D02*
X9932400Y-16838357D01*
X2969777Y-17335116D02*
X2969777Y-17193693D01*
X2828355Y-17193693D01*
X2828355Y-17335116D01*
X2969777Y-17335116D01*
X3227637Y-17156928D02*
X3351447Y-17156928D01*
X3351447Y-17156928D02*
X3284780Y-17233119D01*
X3284780Y-17233119D02*
X3313352Y-17233119D01*
X3313352Y-17233119D02*
X3332399Y-17242642D01*
X3332399Y-17242642D02*
X3341923Y-17252166D01*
X3341923Y-17252166D02*
X3351447Y-17271214D01*
X3351447Y-17271214D02*
X3351447Y-17318833D01*
X3351447Y-17318833D02*
X3341923Y-17337880D01*
X3341923Y-17337880D02*
X3332399Y-17347404D01*
X3332399Y-17347404D02*
X3313352Y-17356928D01*
X3313352Y-17356928D02*
X3256209Y-17356928D01*
X3256209Y-17356928D02*
X3237161Y-17347404D01*
X3237161Y-17347404D02*
X3227637Y-17337880D01*
X3437161Y-17337880D02*
X3446685Y-17347404D01*
X3446685Y-17347404D02*
X3437161Y-17356928D01*
X3437161Y-17356928D02*
X3427637Y-17347404D01*
X3427637Y-17347404D02*
X3437161Y-17337880D01*
X3437161Y-17337880D02*
X3437161Y-17356928D01*
X3570494Y-17156928D02*
X3589542Y-17156928D01*
X3589542Y-17156928D02*
X3608590Y-17166452D01*
X3608590Y-17166452D02*
X3618114Y-17175976D01*
X3618114Y-17175976D02*
X3627637Y-17195023D01*
X3627637Y-17195023D02*
X3637161Y-17233119D01*
X3637161Y-17233119D02*
X3637161Y-17280738D01*
X3637161Y-17280738D02*
X3627637Y-17318833D01*
X3627637Y-17318833D02*
X3618114Y-17337880D01*
X3618114Y-17337880D02*
X3608590Y-17347404D01*
X3608590Y-17347404D02*
X3589542Y-17356928D01*
X3589542Y-17356928D02*
X3570494Y-17356928D01*
X3570494Y-17356928D02*
X3551447Y-17347404D01*
X3551447Y-17347404D02*
X3541923Y-17337880D01*
X3541923Y-17337880D02*
X3532399Y-17318833D01*
X3532399Y-17318833D02*
X3522875Y-17280738D01*
X3522875Y-17280738D02*
X3522875Y-17233119D01*
X3522875Y-17233119D02*
X3532399Y-17195023D01*
X3532399Y-17195023D02*
X3541923Y-17175976D01*
X3541923Y-17175976D02*
X3551447Y-17166452D01*
X3551447Y-17166452D02*
X3570494Y-17156928D01*
X3760971Y-17156928D02*
X3780018Y-17156928D01*
X3780018Y-17156928D02*
X3799066Y-17166452D01*
X3799066Y-17166452D02*
X3808590Y-17175976D01*
X3808590Y-17175976D02*
X3818114Y-17195023D01*
X3818114Y-17195023D02*
X3827637Y-17233119D01*
X3827637Y-17233119D02*
X3827637Y-17280738D01*
X3827637Y-17280738D02*
X3818114Y-17318833D01*
X3818114Y-17318833D02*
X3808590Y-17337880D01*
X3808590Y-17337880D02*
X3799066Y-17347404D01*
X3799066Y-17347404D02*
X3780018Y-17356928D01*
X3780018Y-17356928D02*
X3760971Y-17356928D01*
X3760971Y-17356928D02*
X3741923Y-17347404D01*
X3741923Y-17347404D02*
X3732399Y-17337880D01*
X3732399Y-17337880D02*
X3722875Y-17318833D01*
X3722875Y-17318833D02*
X3713352Y-17280738D01*
X3713352Y-17280738D02*
X3713352Y-17233119D01*
X3713352Y-17233119D02*
X3722875Y-17195023D01*
X3722875Y-17195023D02*
X3732399Y-17175976D01*
X3732399Y-17175976D02*
X3741923Y-17166452D01*
X3741923Y-17166452D02*
X3760971Y-17156928D01*
X3951447Y-17156928D02*
X3970495Y-17156928D01*
X3970495Y-17156928D02*
X3989542Y-17166452D01*
X3989542Y-17166452D02*
X3999066Y-17175976D01*
X3999066Y-17175976D02*
X4008590Y-17195023D01*
X4008590Y-17195023D02*
X4018114Y-17233119D01*
X4018114Y-17233119D02*
X4018114Y-17280738D01*
X4018114Y-17280738D02*
X4008590Y-17318833D01*
X4008590Y-17318833D02*
X3999066Y-17337880D01*
X3999066Y-17337880D02*
X3989542Y-17347404D01*
X3989542Y-17347404D02*
X3970495Y-17356928D01*
X3970495Y-17356928D02*
X3951447Y-17356928D01*
X3951447Y-17356928D02*
X3932399Y-17347404D01*
X3932399Y-17347404D02*
X3922875Y-17337880D01*
X3922875Y-17337880D02*
X3913352Y-17318833D01*
X3913352Y-17318833D02*
X3903828Y-17280738D01*
X3903828Y-17280738D02*
X3903828Y-17233119D01*
X3903828Y-17233119D02*
X3913352Y-17195023D01*
X3913352Y-17195023D02*
X3922875Y-17175976D01*
X3922875Y-17175976D02*
X3932399Y-17166452D01*
X3932399Y-17166452D02*
X3951447Y-17156928D01*
X4103828Y-17356928D02*
X4103828Y-17223595D01*
X4103828Y-17242642D02*
X4113352Y-17233119D01*
X4113352Y-17233119D02*
X4132399Y-17223595D01*
X4132399Y-17223595D02*
X4160971Y-17223595D01*
X4160971Y-17223595D02*
X4180018Y-17233119D01*
X4180018Y-17233119D02*
X4189542Y-17252166D01*
X4189542Y-17252166D02*
X4189542Y-17356928D01*
X4189542Y-17252166D02*
X4199066Y-17233119D01*
X4199066Y-17233119D02*
X4218114Y-17223595D01*
X4218114Y-17223595D02*
X4246685Y-17223595D01*
X4246685Y-17223595D02*
X4265733Y-17233119D01*
X4265733Y-17233119D02*
X4275257Y-17252166D01*
X4275257Y-17252166D02*
X4275257Y-17356928D01*
X4370495Y-17356928D02*
X4370495Y-17223595D01*
X4370495Y-17242642D02*
X4380018Y-17233119D01*
X4380018Y-17233119D02*
X4399066Y-17223595D01*
X4399066Y-17223595D02*
X4427638Y-17223595D01*
X4427638Y-17223595D02*
X4446685Y-17233119D01*
X4446685Y-17233119D02*
X4456209Y-17252166D01*
X4456209Y-17252166D02*
X4456209Y-17356928D01*
X4456209Y-17252166D02*
X4465733Y-17233119D01*
X4465733Y-17233119D02*
X4484780Y-17223595D01*
X4484780Y-17223595D02*
X4513352Y-17223595D01*
X4513352Y-17223595D02*
X4532399Y-17233119D01*
X4532399Y-17233119D02*
X4541923Y-17252166D01*
X4541923Y-17252166D02*
X4541923Y-17356928D01*
X4932399Y-17147404D02*
X4760971Y-17404547D01*
X5189542Y-17156928D02*
X5208590Y-17156928D01*
X5208590Y-17156928D02*
X5227638Y-17166452D01*
X5227638Y-17166452D02*
X5237161Y-17175976D01*
X5237161Y-17175976D02*
X5246685Y-17195023D01*
X5246685Y-17195023D02*
X5256209Y-17233119D01*
X5256209Y-17233119D02*
X5256209Y-17280738D01*
X5256209Y-17280738D02*
X5246685Y-17318833D01*
X5246685Y-17318833D02*
X5237161Y-17337880D01*
X5237161Y-17337880D02*
X5227638Y-17347404D01*
X5227638Y-17347404D02*
X5208590Y-17356928D01*
X5208590Y-17356928D02*
X5189542Y-17356928D01*
X5189542Y-17356928D02*
X5170495Y-17347404D01*
X5170495Y-17347404D02*
X5160971Y-17337880D01*
X5160971Y-17337880D02*
X5151447Y-17318833D01*
X5151447Y-17318833D02*
X5141923Y-17280738D01*
X5141923Y-17280738D02*
X5141923Y-17233119D01*
X5141923Y-17233119D02*
X5151447Y-17195023D01*
X5151447Y-17195023D02*
X5160971Y-17175976D01*
X5160971Y-17175976D02*
X5170495Y-17166452D01*
X5170495Y-17166452D02*
X5189542Y-17156928D01*
X5341923Y-17337880D02*
X5351447Y-17347404D01*
X5351447Y-17347404D02*
X5341923Y-17356928D01*
X5341923Y-17356928D02*
X5332400Y-17347404D01*
X5332400Y-17347404D02*
X5341923Y-17337880D01*
X5341923Y-17337880D02*
X5341923Y-17356928D01*
X5541923Y-17356928D02*
X5427638Y-17356928D01*
X5484780Y-17356928D02*
X5484780Y-17156928D01*
X5484780Y-17156928D02*
X5465733Y-17185500D01*
X5465733Y-17185500D02*
X5446685Y-17204547D01*
X5446685Y-17204547D02*
X5427638Y-17214071D01*
X5732399Y-17356928D02*
X5618114Y-17356928D01*
X5675257Y-17356928D02*
X5675257Y-17156928D01*
X5675257Y-17156928D02*
X5656209Y-17185500D01*
X5656209Y-17185500D02*
X5637161Y-17204547D01*
X5637161Y-17204547D02*
X5618114Y-17214071D01*
X5846685Y-17242642D02*
X5827638Y-17233119D01*
X5827638Y-17233119D02*
X5818114Y-17223595D01*
X5818114Y-17223595D02*
X5808590Y-17204547D01*
X5808590Y-17204547D02*
X5808590Y-17195023D01*
X5808590Y-17195023D02*
X5818114Y-17175976D01*
X5818114Y-17175976D02*
X5827638Y-17166452D01*
X5827638Y-17166452D02*
X5846685Y-17156928D01*
X5846685Y-17156928D02*
X5884780Y-17156928D01*
X5884780Y-17156928D02*
X5903828Y-17166452D01*
X5903828Y-17166452D02*
X5913352Y-17175976D01*
X5913352Y-17175976D02*
X5922876Y-17195023D01*
X5922876Y-17195023D02*
X5922876Y-17204547D01*
X5922876Y-17204547D02*
X5913352Y-17223595D01*
X5913352Y-17223595D02*
X5903828Y-17233119D01*
X5903828Y-17233119D02*
X5884780Y-17242642D01*
X5884780Y-17242642D02*
X5846685Y-17242642D01*
X5846685Y-17242642D02*
X5827638Y-17252166D01*
X5827638Y-17252166D02*
X5818114Y-17261690D01*
X5818114Y-17261690D02*
X5808590Y-17280738D01*
X5808590Y-17280738D02*
X5808590Y-17318833D01*
X5808590Y-17318833D02*
X5818114Y-17337880D01*
X5818114Y-17337880D02*
X5827638Y-17347404D01*
X5827638Y-17347404D02*
X5846685Y-17356928D01*
X5846685Y-17356928D02*
X5884780Y-17356928D01*
X5884780Y-17356928D02*
X5903828Y-17347404D01*
X5903828Y-17347404D02*
X5913352Y-17337880D01*
X5913352Y-17337880D02*
X5922876Y-17318833D01*
X5922876Y-17318833D02*
X5922876Y-17280738D01*
X5922876Y-17280738D02*
X5913352Y-17261690D01*
X5913352Y-17261690D02*
X5903828Y-17252166D01*
X5903828Y-17252166D02*
X5884780Y-17242642D01*
X6113352Y-17356928D02*
X5999066Y-17356928D01*
X6056209Y-17356928D02*
X6056209Y-17156928D01*
X6056209Y-17156928D02*
X6037161Y-17185500D01*
X6037161Y-17185500D02*
X6018114Y-17204547D01*
X6018114Y-17204547D02*
X5999066Y-17214071D01*
X6189542Y-17156928D02*
X6189542Y-17195023D01*
X6265733Y-17156928D02*
X6265733Y-17195023D01*
X6560971Y-17433119D02*
X6551447Y-17423595D01*
X6551447Y-17423595D02*
X6532400Y-17395023D01*
X6532400Y-17395023D02*
X6522876Y-17375976D01*
X6522876Y-17375976D02*
X6513352Y-17347404D01*
X6513352Y-17347404D02*
X6503828Y-17299785D01*
X6503828Y-17299785D02*
X6503828Y-17261690D01*
X6503828Y-17261690D02*
X6513352Y-17214071D01*
X6513352Y-17214071D02*
X6522876Y-17185500D01*
X6522876Y-17185500D02*
X6532400Y-17166452D01*
X6532400Y-17166452D02*
X6551447Y-17137880D01*
X6551447Y-17137880D02*
X6560971Y-17128357D01*
X6618114Y-17156928D02*
X6751447Y-17156928D01*
X6751447Y-17156928D02*
X6665733Y-17356928D01*
X6818114Y-17175976D02*
X6827638Y-17166452D01*
X6827638Y-17166452D02*
X6846685Y-17156928D01*
X6846685Y-17156928D02*
X6894304Y-17156928D01*
X6894304Y-17156928D02*
X6913352Y-17166452D01*
X6913352Y-17166452D02*
X6922876Y-17175976D01*
X6922876Y-17175976D02*
X6932400Y-17195023D01*
X6932400Y-17195023D02*
X6932400Y-17214071D01*
X6932400Y-17214071D02*
X6922876Y-17242642D01*
X6922876Y-17242642D02*
X6808590Y-17356928D01*
X6808590Y-17356928D02*
X6932400Y-17356928D01*
X7170495Y-17356928D02*
X7170495Y-17156928D01*
X7256209Y-17356928D02*
X7256209Y-17252166D01*
X7256209Y-17252166D02*
X7246685Y-17233119D01*
X7246685Y-17233119D02*
X7227638Y-17223595D01*
X7227638Y-17223595D02*
X7199066Y-17223595D01*
X7199066Y-17223595D02*
X7180019Y-17233119D01*
X7180019Y-17233119D02*
X7170495Y-17242642D01*
X7380019Y-17356928D02*
X7360971Y-17347404D01*
X7360971Y-17347404D02*
X7351447Y-17337880D01*
X7351447Y-17337880D02*
X7341923Y-17318833D01*
X7341923Y-17318833D02*
X7341923Y-17261690D01*
X7341923Y-17261690D02*
X7351447Y-17242642D01*
X7351447Y-17242642D02*
X7360971Y-17233119D01*
X7360971Y-17233119D02*
X7380019Y-17223595D01*
X7380019Y-17223595D02*
X7408590Y-17223595D01*
X7408590Y-17223595D02*
X7427638Y-17233119D01*
X7427638Y-17233119D02*
X7437162Y-17242642D01*
X7437162Y-17242642D02*
X7446685Y-17261690D01*
X7446685Y-17261690D02*
X7446685Y-17318833D01*
X7446685Y-17318833D02*
X7437162Y-17337880D01*
X7437162Y-17337880D02*
X7427638Y-17347404D01*
X7427638Y-17347404D02*
X7408590Y-17356928D01*
X7408590Y-17356928D02*
X7380019Y-17356928D01*
X7560971Y-17356928D02*
X7541923Y-17347404D01*
X7541923Y-17347404D02*
X7532400Y-17328357D01*
X7532400Y-17328357D02*
X7532400Y-17156928D01*
X7713352Y-17347404D02*
X7694304Y-17356928D01*
X7694304Y-17356928D02*
X7656209Y-17356928D01*
X7656209Y-17356928D02*
X7637162Y-17347404D01*
X7637162Y-17347404D02*
X7627638Y-17328357D01*
X7627638Y-17328357D02*
X7627638Y-17252166D01*
X7627638Y-17252166D02*
X7637162Y-17233119D01*
X7637162Y-17233119D02*
X7656209Y-17223595D01*
X7656209Y-17223595D02*
X7694304Y-17223595D01*
X7694304Y-17223595D02*
X7713352Y-17233119D01*
X7713352Y-17233119D02*
X7722876Y-17252166D01*
X7722876Y-17252166D02*
X7722876Y-17271214D01*
X7722876Y-17271214D02*
X7627638Y-17290261D01*
X7799066Y-17347404D02*
X7818114Y-17356928D01*
X7818114Y-17356928D02*
X7856209Y-17356928D01*
X7856209Y-17356928D02*
X7875257Y-17347404D01*
X7875257Y-17347404D02*
X7884781Y-17328357D01*
X7884781Y-17328357D02*
X7884781Y-17318833D01*
X7884781Y-17318833D02*
X7875257Y-17299785D01*
X7875257Y-17299785D02*
X7856209Y-17290261D01*
X7856209Y-17290261D02*
X7827638Y-17290261D01*
X7827638Y-17290261D02*
X7808590Y-17280738D01*
X7808590Y-17280738D02*
X7799066Y-17261690D01*
X7799066Y-17261690D02*
X7799066Y-17252166D01*
X7799066Y-17252166D02*
X7808590Y-17233119D01*
X7808590Y-17233119D02*
X7827638Y-17223595D01*
X7827638Y-17223595D02*
X7856209Y-17223595D01*
X7856209Y-17223595D02*
X7875257Y-17233119D01*
X7951447Y-17433119D02*
X7960971Y-17423595D01*
X7960971Y-17423595D02*
X7980019Y-17395023D01*
X7980019Y-17395023D02*
X7989543Y-17375976D01*
X7989543Y-17375976D02*
X7999066Y-17347404D01*
X7999066Y-17347404D02*
X8008590Y-17299785D01*
X8008590Y-17299785D02*
X8008590Y-17261690D01*
X8008590Y-17261690D02*
X7999066Y-17214071D01*
X7999066Y-17214071D02*
X7989543Y-17185500D01*
X7989543Y-17185500D02*
X7980019Y-17166452D01*
X7980019Y-17166452D02*
X7960971Y-17137880D01*
X7960971Y-17137880D02*
X7951447Y-17128357D01*
X8313352Y-17433119D02*
X8303828Y-17423595D01*
X8303828Y-17423595D02*
X8284781Y-17395023D01*
X8284781Y-17395023D02*
X8275257Y-17375976D01*
X8275257Y-17375976D02*
X8265733Y-17347404D01*
X8265733Y-17347404D02*
X8256209Y-17299785D01*
X8256209Y-17299785D02*
X8256209Y-17261690D01*
X8256209Y-17261690D02*
X8265733Y-17214071D01*
X8265733Y-17214071D02*
X8275257Y-17185500D01*
X8275257Y-17185500D02*
X8284781Y-17166452D01*
X8284781Y-17166452D02*
X8303828Y-17137880D01*
X8303828Y-17137880D02*
X8313352Y-17128357D01*
X8389543Y-17223595D02*
X8389543Y-17356928D01*
X8389543Y-17242642D02*
X8399066Y-17233119D01*
X8399066Y-17233119D02*
X8418114Y-17223595D01*
X8418114Y-17223595D02*
X8446686Y-17223595D01*
X8446686Y-17223595D02*
X8465733Y-17233119D01*
X8465733Y-17233119D02*
X8475257Y-17252166D01*
X8475257Y-17252166D02*
X8475257Y-17356928D01*
X8599066Y-17356928D02*
X8580019Y-17347404D01*
X8580019Y-17347404D02*
X8570495Y-17337880D01*
X8570495Y-17337880D02*
X8560971Y-17318833D01*
X8560971Y-17318833D02*
X8560971Y-17261690D01*
X8560971Y-17261690D02*
X8570495Y-17242642D01*
X8570495Y-17242642D02*
X8580019Y-17233119D01*
X8580019Y-17233119D02*
X8599066Y-17223595D01*
X8599066Y-17223595D02*
X8627638Y-17223595D01*
X8627638Y-17223595D02*
X8646686Y-17233119D01*
X8646686Y-17233119D02*
X8656209Y-17242642D01*
X8656209Y-17242642D02*
X8665733Y-17261690D01*
X8665733Y-17261690D02*
X8665733Y-17318833D01*
X8665733Y-17318833D02*
X8656209Y-17337880D01*
X8656209Y-17337880D02*
X8646686Y-17347404D01*
X8646686Y-17347404D02*
X8627638Y-17356928D01*
X8627638Y-17356928D02*
X8599066Y-17356928D01*
X8722876Y-17223595D02*
X8799066Y-17223595D01*
X8751447Y-17156928D02*
X8751447Y-17328357D01*
X8751447Y-17328357D02*
X8760971Y-17347404D01*
X8760971Y-17347404D02*
X8780019Y-17356928D01*
X8780019Y-17356928D02*
X8799066Y-17356928D01*
X9018114Y-17223595D02*
X9018114Y-17423595D01*
X9018114Y-17233119D02*
X9037162Y-17223595D01*
X9037162Y-17223595D02*
X9075257Y-17223595D01*
X9075257Y-17223595D02*
X9094305Y-17233119D01*
X9094305Y-17233119D02*
X9103828Y-17242642D01*
X9103828Y-17242642D02*
X9113352Y-17261690D01*
X9113352Y-17261690D02*
X9113352Y-17318833D01*
X9113352Y-17318833D02*
X9103828Y-17337880D01*
X9103828Y-17337880D02*
X9094305Y-17347404D01*
X9094305Y-17347404D02*
X9075257Y-17356928D01*
X9075257Y-17356928D02*
X9037162Y-17356928D01*
X9037162Y-17356928D02*
X9018114Y-17347404D01*
X9227638Y-17356928D02*
X9208590Y-17347404D01*
X9208590Y-17347404D02*
X9199067Y-17328357D01*
X9199067Y-17328357D02*
X9199067Y-17156928D01*
X9389543Y-17356928D02*
X9389543Y-17252166D01*
X9389543Y-17252166D02*
X9380019Y-17233119D01*
X9380019Y-17233119D02*
X9360971Y-17223595D01*
X9360971Y-17223595D02*
X9322876Y-17223595D01*
X9322876Y-17223595D02*
X9303828Y-17233119D01*
X9389543Y-17347404D02*
X9370495Y-17356928D01*
X9370495Y-17356928D02*
X9322876Y-17356928D01*
X9322876Y-17356928D02*
X9303828Y-17347404D01*
X9303828Y-17347404D02*
X9294305Y-17328357D01*
X9294305Y-17328357D02*
X9294305Y-17309309D01*
X9294305Y-17309309D02*
X9303828Y-17290261D01*
X9303828Y-17290261D02*
X9322876Y-17280738D01*
X9322876Y-17280738D02*
X9370495Y-17280738D01*
X9370495Y-17280738D02*
X9389543Y-17271214D01*
X9456209Y-17223595D02*
X9532400Y-17223595D01*
X9484781Y-17156928D02*
X9484781Y-17328357D01*
X9484781Y-17328357D02*
X9494305Y-17347404D01*
X9494305Y-17347404D02*
X9513352Y-17356928D01*
X9513352Y-17356928D02*
X9532400Y-17356928D01*
X9675257Y-17347404D02*
X9656209Y-17356928D01*
X9656209Y-17356928D02*
X9618114Y-17356928D01*
X9618114Y-17356928D02*
X9599067Y-17347404D01*
X9599067Y-17347404D02*
X9589543Y-17328357D01*
X9589543Y-17328357D02*
X9589543Y-17252166D01*
X9589543Y-17252166D02*
X9599067Y-17233119D01*
X9599067Y-17233119D02*
X9618114Y-17223595D01*
X9618114Y-17223595D02*
X9656209Y-17223595D01*
X9656209Y-17223595D02*
X9675257Y-17233119D01*
X9675257Y-17233119D02*
X9684781Y-17252166D01*
X9684781Y-17252166D02*
X9684781Y-17271214D01*
X9684781Y-17271214D02*
X9589543Y-17290261D01*
X9856209Y-17356928D02*
X9856209Y-17156928D01*
X9856209Y-17347404D02*
X9837162Y-17356928D01*
X9837162Y-17356928D02*
X9799067Y-17356928D01*
X9799067Y-17356928D02*
X9780019Y-17347404D01*
X9780019Y-17347404D02*
X9770495Y-17337880D01*
X9770495Y-17337880D02*
X9760971Y-17318833D01*
X9760971Y-17318833D02*
X9760971Y-17261690D01*
X9760971Y-17261690D02*
X9770495Y-17242642D01*
X9770495Y-17242642D02*
X9780019Y-17233119D01*
X9780019Y-17233119D02*
X9799067Y-17223595D01*
X9799067Y-17223595D02*
X9837162Y-17223595D01*
X9837162Y-17223595D02*
X9856209Y-17233119D01*
X9932400Y-17433119D02*
X9941924Y-17423595D01*
X9941924Y-17423595D02*
X9960971Y-17395023D01*
X9960971Y-17395023D02*
X9970495Y-17375976D01*
X9970495Y-17375976D02*
X9980019Y-17347404D01*
X9980019Y-17347404D02*
X9989543Y-17299785D01*
X9989543Y-17299785D02*
X9989543Y-17261690D01*
X9989543Y-17261690D02*
X9980019Y-17214071D01*
X9980019Y-17214071D02*
X9970495Y-17185500D01*
X9970495Y-17185500D02*
X9960971Y-17166452D01*
X9960971Y-17166452D02*
X9941924Y-17137880D01*
X9941924Y-17137880D02*
X9932400Y-17128357D01*
X2899066Y-17684404D02*
X2999066Y-17584404D01*
X2899066Y-17484404D01*
X2799066Y-17584404D01*
X2899066Y-17684404D01*
X3332399Y-17543595D02*
X3332399Y-17676928D01*
X3284780Y-17467404D02*
X3237161Y-17610261D01*
X3237161Y-17610261D02*
X3360971Y-17610261D01*
X3437161Y-17657880D02*
X3446685Y-17667404D01*
X3446685Y-17667404D02*
X3437161Y-17676928D01*
X3437161Y-17676928D02*
X3427637Y-17667404D01*
X3427637Y-17667404D02*
X3437161Y-17657880D01*
X3437161Y-17657880D02*
X3437161Y-17676928D01*
X3570494Y-17476928D02*
X3589542Y-17476928D01*
X3589542Y-17476928D02*
X3608590Y-17486452D01*
X3608590Y-17486452D02*
X3618114Y-17495976D01*
X3618114Y-17495976D02*
X3627637Y-17515023D01*
X3627637Y-17515023D02*
X3637161Y-17553119D01*
X3637161Y-17553119D02*
X3637161Y-17600738D01*
X3637161Y-17600738D02*
X3627637Y-17638833D01*
X3627637Y-17638833D02*
X3618114Y-17657880D01*
X3618114Y-17657880D02*
X3608590Y-17667404D01*
X3608590Y-17667404D02*
X3589542Y-17676928D01*
X3589542Y-17676928D02*
X3570494Y-17676928D01*
X3570494Y-17676928D02*
X3551447Y-17667404D01*
X3551447Y-17667404D02*
X3541923Y-17657880D01*
X3541923Y-17657880D02*
X3532399Y-17638833D01*
X3532399Y-17638833D02*
X3522875Y-17600738D01*
X3522875Y-17600738D02*
X3522875Y-17553119D01*
X3522875Y-17553119D02*
X3532399Y-17515023D01*
X3532399Y-17515023D02*
X3541923Y-17495976D01*
X3541923Y-17495976D02*
X3551447Y-17486452D01*
X3551447Y-17486452D02*
X3570494Y-17476928D01*
X3760971Y-17476928D02*
X3780018Y-17476928D01*
X3780018Y-17476928D02*
X3799066Y-17486452D01*
X3799066Y-17486452D02*
X3808590Y-17495976D01*
X3808590Y-17495976D02*
X3818114Y-17515023D01*
X3818114Y-17515023D02*
X3827637Y-17553119D01*
X3827637Y-17553119D02*
X3827637Y-17600738D01*
X3827637Y-17600738D02*
X3818114Y-17638833D01*
X3818114Y-17638833D02*
X3808590Y-17657880D01*
X3808590Y-17657880D02*
X3799066Y-17667404D01*
X3799066Y-17667404D02*
X3780018Y-17676928D01*
X3780018Y-17676928D02*
X3760971Y-17676928D01*
X3760971Y-17676928D02*
X3741923Y-17667404D01*
X3741923Y-17667404D02*
X3732399Y-17657880D01*
X3732399Y-17657880D02*
X3722875Y-17638833D01*
X3722875Y-17638833D02*
X3713352Y-17600738D01*
X3713352Y-17600738D02*
X3713352Y-17553119D01*
X3713352Y-17553119D02*
X3722875Y-17515023D01*
X3722875Y-17515023D02*
X3732399Y-17495976D01*
X3732399Y-17495976D02*
X3741923Y-17486452D01*
X3741923Y-17486452D02*
X3760971Y-17476928D01*
X3951447Y-17476928D02*
X3970495Y-17476928D01*
X3970495Y-17476928D02*
X3989542Y-17486452D01*
X3989542Y-17486452D02*
X3999066Y-17495976D01*
X3999066Y-17495976D02*
X4008590Y-17515023D01*
X4008590Y-17515023D02*
X4018114Y-17553119D01*
X4018114Y-17553119D02*
X4018114Y-17600738D01*
X4018114Y-17600738D02*
X4008590Y-17638833D01*
X4008590Y-17638833D02*
X3999066Y-17657880D01*
X3999066Y-17657880D02*
X3989542Y-17667404D01*
X3989542Y-17667404D02*
X3970495Y-17676928D01*
X3970495Y-17676928D02*
X3951447Y-17676928D01*
X3951447Y-17676928D02*
X3932399Y-17667404D01*
X3932399Y-17667404D02*
X3922875Y-17657880D01*
X3922875Y-17657880D02*
X3913352Y-17638833D01*
X3913352Y-17638833D02*
X3903828Y-17600738D01*
X3903828Y-17600738D02*
X3903828Y-17553119D01*
X3903828Y-17553119D02*
X3913352Y-17515023D01*
X3913352Y-17515023D02*
X3922875Y-17495976D01*
X3922875Y-17495976D02*
X3932399Y-17486452D01*
X3932399Y-17486452D02*
X3951447Y-17476928D01*
X4103828Y-17676928D02*
X4103828Y-17543595D01*
X4103828Y-17562642D02*
X4113352Y-17553119D01*
X4113352Y-17553119D02*
X4132399Y-17543595D01*
X4132399Y-17543595D02*
X4160971Y-17543595D01*
X4160971Y-17543595D02*
X4180018Y-17553119D01*
X4180018Y-17553119D02*
X4189542Y-17572166D01*
X4189542Y-17572166D02*
X4189542Y-17676928D01*
X4189542Y-17572166D02*
X4199066Y-17553119D01*
X4199066Y-17553119D02*
X4218114Y-17543595D01*
X4218114Y-17543595D02*
X4246685Y-17543595D01*
X4246685Y-17543595D02*
X4265733Y-17553119D01*
X4265733Y-17553119D02*
X4275257Y-17572166D01*
X4275257Y-17572166D02*
X4275257Y-17676928D01*
X4370495Y-17676928D02*
X4370495Y-17543595D01*
X4370495Y-17562642D02*
X4380018Y-17553119D01*
X4380018Y-17553119D02*
X4399066Y-17543595D01*
X4399066Y-17543595D02*
X4427638Y-17543595D01*
X4427638Y-17543595D02*
X4446685Y-17553119D01*
X4446685Y-17553119D02*
X4456209Y-17572166D01*
X4456209Y-17572166D02*
X4456209Y-17676928D01*
X4456209Y-17572166D02*
X4465733Y-17553119D01*
X4465733Y-17553119D02*
X4484780Y-17543595D01*
X4484780Y-17543595D02*
X4513352Y-17543595D01*
X4513352Y-17543595D02*
X4532399Y-17553119D01*
X4532399Y-17553119D02*
X4541923Y-17572166D01*
X4541923Y-17572166D02*
X4541923Y-17676928D01*
X4932399Y-17467404D02*
X4760971Y-17724547D01*
X5189542Y-17476928D02*
X5208590Y-17476928D01*
X5208590Y-17476928D02*
X5227638Y-17486452D01*
X5227638Y-17486452D02*
X5237161Y-17495976D01*
X5237161Y-17495976D02*
X5246685Y-17515023D01*
X5246685Y-17515023D02*
X5256209Y-17553119D01*
X5256209Y-17553119D02*
X5256209Y-17600738D01*
X5256209Y-17600738D02*
X5246685Y-17638833D01*
X5246685Y-17638833D02*
X5237161Y-17657880D01*
X5237161Y-17657880D02*
X5227638Y-17667404D01*
X5227638Y-17667404D02*
X5208590Y-17676928D01*
X5208590Y-17676928D02*
X5189542Y-17676928D01*
X5189542Y-17676928D02*
X5170495Y-17667404D01*
X5170495Y-17667404D02*
X5160971Y-17657880D01*
X5160971Y-17657880D02*
X5151447Y-17638833D01*
X5151447Y-17638833D02*
X5141923Y-17600738D01*
X5141923Y-17600738D02*
X5141923Y-17553119D01*
X5141923Y-17553119D02*
X5151447Y-17515023D01*
X5151447Y-17515023D02*
X5160971Y-17495976D01*
X5160971Y-17495976D02*
X5170495Y-17486452D01*
X5170495Y-17486452D02*
X5189542Y-17476928D01*
X5341923Y-17657880D02*
X5351447Y-17667404D01*
X5351447Y-17667404D02*
X5341923Y-17676928D01*
X5341923Y-17676928D02*
X5332400Y-17667404D01*
X5332400Y-17667404D02*
X5341923Y-17657880D01*
X5341923Y-17657880D02*
X5341923Y-17676928D01*
X5541923Y-17676928D02*
X5427638Y-17676928D01*
X5484780Y-17676928D02*
X5484780Y-17476928D01*
X5484780Y-17476928D02*
X5465733Y-17505500D01*
X5465733Y-17505500D02*
X5446685Y-17524547D01*
X5446685Y-17524547D02*
X5427638Y-17534071D01*
X5722876Y-17476928D02*
X5627638Y-17476928D01*
X5627638Y-17476928D02*
X5618114Y-17572166D01*
X5618114Y-17572166D02*
X5627638Y-17562642D01*
X5627638Y-17562642D02*
X5646685Y-17553119D01*
X5646685Y-17553119D02*
X5694304Y-17553119D01*
X5694304Y-17553119D02*
X5713352Y-17562642D01*
X5713352Y-17562642D02*
X5722876Y-17572166D01*
X5722876Y-17572166D02*
X5732399Y-17591214D01*
X5732399Y-17591214D02*
X5732399Y-17638833D01*
X5732399Y-17638833D02*
X5722876Y-17657880D01*
X5722876Y-17657880D02*
X5713352Y-17667404D01*
X5713352Y-17667404D02*
X5694304Y-17676928D01*
X5694304Y-17676928D02*
X5646685Y-17676928D01*
X5646685Y-17676928D02*
X5627638Y-17667404D01*
X5627638Y-17667404D02*
X5618114Y-17657880D01*
X5799066Y-17476928D02*
X5932399Y-17476928D01*
X5932399Y-17476928D02*
X5846685Y-17676928D01*
X6103828Y-17476928D02*
X6008590Y-17476928D01*
X6008590Y-17476928D02*
X5999066Y-17572166D01*
X5999066Y-17572166D02*
X6008590Y-17562642D01*
X6008590Y-17562642D02*
X6027638Y-17553119D01*
X6027638Y-17553119D02*
X6075257Y-17553119D01*
X6075257Y-17553119D02*
X6094304Y-17562642D01*
X6094304Y-17562642D02*
X6103828Y-17572166D01*
X6103828Y-17572166D02*
X6113352Y-17591214D01*
X6113352Y-17591214D02*
X6113352Y-17638833D01*
X6113352Y-17638833D02*
X6103828Y-17657880D01*
X6103828Y-17657880D02*
X6094304Y-17667404D01*
X6094304Y-17667404D02*
X6075257Y-17676928D01*
X6075257Y-17676928D02*
X6027638Y-17676928D01*
X6027638Y-17676928D02*
X6008590Y-17667404D01*
X6008590Y-17667404D02*
X5999066Y-17657880D01*
X6189542Y-17476928D02*
X6189542Y-17515023D01*
X6265733Y-17476928D02*
X6265733Y-17515023D01*
X6560971Y-17753119D02*
X6551447Y-17743595D01*
X6551447Y-17743595D02*
X6532400Y-17715023D01*
X6532400Y-17715023D02*
X6522876Y-17695976D01*
X6522876Y-17695976D02*
X6513352Y-17667404D01*
X6513352Y-17667404D02*
X6503828Y-17619785D01*
X6503828Y-17619785D02*
X6503828Y-17581690D01*
X6503828Y-17581690D02*
X6513352Y-17534071D01*
X6513352Y-17534071D02*
X6522876Y-17505500D01*
X6522876Y-17505500D02*
X6532400Y-17486452D01*
X6532400Y-17486452D02*
X6551447Y-17457880D01*
X6551447Y-17457880D02*
X6560971Y-17448357D01*
X6741923Y-17676928D02*
X6627638Y-17676928D01*
X6684780Y-17676928D02*
X6684780Y-17476928D01*
X6684780Y-17476928D02*
X6665733Y-17505500D01*
X6665733Y-17505500D02*
X6646685Y-17524547D01*
X6646685Y-17524547D02*
X6627638Y-17534071D01*
X6856209Y-17562642D02*
X6837161Y-17553119D01*
X6837161Y-17553119D02*
X6827638Y-17543595D01*
X6827638Y-17543595D02*
X6818114Y-17524547D01*
X6818114Y-17524547D02*
X6818114Y-17515023D01*
X6818114Y-17515023D02*
X6827638Y-17495976D01*
X6827638Y-17495976D02*
X6837161Y-17486452D01*
X6837161Y-17486452D02*
X6856209Y-17476928D01*
X6856209Y-17476928D02*
X6894304Y-17476928D01*
X6894304Y-17476928D02*
X6913352Y-17486452D01*
X6913352Y-17486452D02*
X6922876Y-17495976D01*
X6922876Y-17495976D02*
X6932400Y-17515023D01*
X6932400Y-17515023D02*
X6932400Y-17524547D01*
X6932400Y-17524547D02*
X6922876Y-17543595D01*
X6922876Y-17543595D02*
X6913352Y-17553119D01*
X6913352Y-17553119D02*
X6894304Y-17562642D01*
X6894304Y-17562642D02*
X6856209Y-17562642D01*
X6856209Y-17562642D02*
X6837161Y-17572166D01*
X6837161Y-17572166D02*
X6827638Y-17581690D01*
X6827638Y-17581690D02*
X6818114Y-17600738D01*
X6818114Y-17600738D02*
X6818114Y-17638833D01*
X6818114Y-17638833D02*
X6827638Y-17657880D01*
X6827638Y-17657880D02*
X6837161Y-17667404D01*
X6837161Y-17667404D02*
X6856209Y-17676928D01*
X6856209Y-17676928D02*
X6894304Y-17676928D01*
X6894304Y-17676928D02*
X6913352Y-17667404D01*
X6913352Y-17667404D02*
X6922876Y-17657880D01*
X6922876Y-17657880D02*
X6932400Y-17638833D01*
X6932400Y-17638833D02*
X6932400Y-17600738D01*
X6932400Y-17600738D02*
X6922876Y-17581690D01*
X6922876Y-17581690D02*
X6913352Y-17572166D01*
X6913352Y-17572166D02*
X6894304Y-17562642D01*
X7170495Y-17676928D02*
X7170495Y-17476928D01*
X7256209Y-17676928D02*
X7256209Y-17572166D01*
X7256209Y-17572166D02*
X7246685Y-17553119D01*
X7246685Y-17553119D02*
X7227638Y-17543595D01*
X7227638Y-17543595D02*
X7199066Y-17543595D01*
X7199066Y-17543595D02*
X7180019Y-17553119D01*
X7180019Y-17553119D02*
X7170495Y-17562642D01*
X7380019Y-17676928D02*
X7360971Y-17667404D01*
X7360971Y-17667404D02*
X7351447Y-17657880D01*
X7351447Y-17657880D02*
X7341923Y-17638833D01*
X7341923Y-17638833D02*
X7341923Y-17581690D01*
X7341923Y-17581690D02*
X7351447Y-17562642D01*
X7351447Y-17562642D02*
X7360971Y-17553119D01*
X7360971Y-17553119D02*
X7380019Y-17543595D01*
X7380019Y-17543595D02*
X7408590Y-17543595D01*
X7408590Y-17543595D02*
X7427638Y-17553119D01*
X7427638Y-17553119D02*
X7437162Y-17562642D01*
X7437162Y-17562642D02*
X7446685Y-17581690D01*
X7446685Y-17581690D02*
X7446685Y-17638833D01*
X7446685Y-17638833D02*
X7437162Y-17657880D01*
X7437162Y-17657880D02*
X7427638Y-17667404D01*
X7427638Y-17667404D02*
X7408590Y-17676928D01*
X7408590Y-17676928D02*
X7380019Y-17676928D01*
X7560971Y-17676928D02*
X7541923Y-17667404D01*
X7541923Y-17667404D02*
X7532400Y-17648357D01*
X7532400Y-17648357D02*
X7532400Y-17476928D01*
X7713352Y-17667404D02*
X7694304Y-17676928D01*
X7694304Y-17676928D02*
X7656209Y-17676928D01*
X7656209Y-17676928D02*
X7637162Y-17667404D01*
X7637162Y-17667404D02*
X7627638Y-17648357D01*
X7627638Y-17648357D02*
X7627638Y-17572166D01*
X7627638Y-17572166D02*
X7637162Y-17553119D01*
X7637162Y-17553119D02*
X7656209Y-17543595D01*
X7656209Y-17543595D02*
X7694304Y-17543595D01*
X7694304Y-17543595D02*
X7713352Y-17553119D01*
X7713352Y-17553119D02*
X7722876Y-17572166D01*
X7722876Y-17572166D02*
X7722876Y-17591214D01*
X7722876Y-17591214D02*
X7627638Y-17610261D01*
X7799066Y-17667404D02*
X7818114Y-17676928D01*
X7818114Y-17676928D02*
X7856209Y-17676928D01*
X7856209Y-17676928D02*
X7875257Y-17667404D01*
X7875257Y-17667404D02*
X7884781Y-17648357D01*
X7884781Y-17648357D02*
X7884781Y-17638833D01*
X7884781Y-17638833D02*
X7875257Y-17619785D01*
X7875257Y-17619785D02*
X7856209Y-17610261D01*
X7856209Y-17610261D02*
X7827638Y-17610261D01*
X7827638Y-17610261D02*
X7808590Y-17600738D01*
X7808590Y-17600738D02*
X7799066Y-17581690D01*
X7799066Y-17581690D02*
X7799066Y-17572166D01*
X7799066Y-17572166D02*
X7808590Y-17553119D01*
X7808590Y-17553119D02*
X7827638Y-17543595D01*
X7827638Y-17543595D02*
X7856209Y-17543595D01*
X7856209Y-17543595D02*
X7875257Y-17553119D01*
X7951447Y-17753119D02*
X7960971Y-17743595D01*
X7960971Y-17743595D02*
X7980019Y-17715023D01*
X7980019Y-17715023D02*
X7989543Y-17695976D01*
X7989543Y-17695976D02*
X7999066Y-17667404D01*
X7999066Y-17667404D02*
X8008590Y-17619785D01*
X8008590Y-17619785D02*
X8008590Y-17581690D01*
X8008590Y-17581690D02*
X7999066Y-17534071D01*
X7999066Y-17534071D02*
X7989543Y-17505500D01*
X7989543Y-17505500D02*
X7980019Y-17486452D01*
X7980019Y-17486452D02*
X7960971Y-17457880D01*
X7960971Y-17457880D02*
X7951447Y-17448357D01*
X8313352Y-17753119D02*
X8303828Y-17743595D01*
X8303828Y-17743595D02*
X8284781Y-17715023D01*
X8284781Y-17715023D02*
X8275257Y-17695976D01*
X8275257Y-17695976D02*
X8265733Y-17667404D01*
X8265733Y-17667404D02*
X8256209Y-17619785D01*
X8256209Y-17619785D02*
X8256209Y-17581690D01*
X8256209Y-17581690D02*
X8265733Y-17534071D01*
X8265733Y-17534071D02*
X8275257Y-17505500D01*
X8275257Y-17505500D02*
X8284781Y-17486452D01*
X8284781Y-17486452D02*
X8303828Y-17457880D01*
X8303828Y-17457880D02*
X8313352Y-17448357D01*
X8389543Y-17543595D02*
X8389543Y-17676928D01*
X8389543Y-17562642D02*
X8399066Y-17553119D01*
X8399066Y-17553119D02*
X8418114Y-17543595D01*
X8418114Y-17543595D02*
X8446686Y-17543595D01*
X8446686Y-17543595D02*
X8465733Y-17553119D01*
X8465733Y-17553119D02*
X8475257Y-17572166D01*
X8475257Y-17572166D02*
X8475257Y-17676928D01*
X8599066Y-17676928D02*
X8580019Y-17667404D01*
X8580019Y-17667404D02*
X8570495Y-17657880D01*
X8570495Y-17657880D02*
X8560971Y-17638833D01*
X8560971Y-17638833D02*
X8560971Y-17581690D01*
X8560971Y-17581690D02*
X8570495Y-17562642D01*
X8570495Y-17562642D02*
X8580019Y-17553119D01*
X8580019Y-17553119D02*
X8599066Y-17543595D01*
X8599066Y-17543595D02*
X8627638Y-17543595D01*
X8627638Y-17543595D02*
X8646686Y-17553119D01*
X8646686Y-17553119D02*
X8656209Y-17562642D01*
X8656209Y-17562642D02*
X8665733Y-17581690D01*
X8665733Y-17581690D02*
X8665733Y-17638833D01*
X8665733Y-17638833D02*
X8656209Y-17657880D01*
X8656209Y-17657880D02*
X8646686Y-17667404D01*
X8646686Y-17667404D02*
X8627638Y-17676928D01*
X8627638Y-17676928D02*
X8599066Y-17676928D01*
X8722876Y-17543595D02*
X8799066Y-17543595D01*
X8751447Y-17476928D02*
X8751447Y-17648357D01*
X8751447Y-17648357D02*
X8760971Y-17667404D01*
X8760971Y-17667404D02*
X8780019Y-17676928D01*
X8780019Y-17676928D02*
X8799066Y-17676928D01*
X9018114Y-17543595D02*
X9018114Y-17743595D01*
X9018114Y-17553119D02*
X9037162Y-17543595D01*
X9037162Y-17543595D02*
X9075257Y-17543595D01*
X9075257Y-17543595D02*
X9094305Y-17553119D01*
X9094305Y-17553119D02*
X9103828Y-17562642D01*
X9103828Y-17562642D02*
X9113352Y-17581690D01*
X9113352Y-17581690D02*
X9113352Y-17638833D01*
X9113352Y-17638833D02*
X9103828Y-17657880D01*
X9103828Y-17657880D02*
X9094305Y-17667404D01*
X9094305Y-17667404D02*
X9075257Y-17676928D01*
X9075257Y-17676928D02*
X9037162Y-17676928D01*
X9037162Y-17676928D02*
X9018114Y-17667404D01*
X9227638Y-17676928D02*
X9208590Y-17667404D01*
X9208590Y-17667404D02*
X9199067Y-17648357D01*
X9199067Y-17648357D02*
X9199067Y-17476928D01*
X9389543Y-17676928D02*
X9389543Y-17572166D01*
X9389543Y-17572166D02*
X9380019Y-17553119D01*
X9380019Y-17553119D02*
X9360971Y-17543595D01*
X9360971Y-17543595D02*
X9322876Y-17543595D01*
X9322876Y-17543595D02*
X9303828Y-17553119D01*
X9389543Y-17667404D02*
X9370495Y-17676928D01*
X9370495Y-17676928D02*
X9322876Y-17676928D01*
X9322876Y-17676928D02*
X9303828Y-17667404D01*
X9303828Y-17667404D02*
X9294305Y-17648357D01*
X9294305Y-17648357D02*
X9294305Y-17629309D01*
X9294305Y-17629309D02*
X9303828Y-17610261D01*
X9303828Y-17610261D02*
X9322876Y-17600738D01*
X9322876Y-17600738D02*
X9370495Y-17600738D01*
X9370495Y-17600738D02*
X9389543Y-17591214D01*
X9456209Y-17543595D02*
X9532400Y-17543595D01*
X9484781Y-17476928D02*
X9484781Y-17648357D01*
X9484781Y-17648357D02*
X9494305Y-17667404D01*
X9494305Y-17667404D02*
X9513352Y-17676928D01*
X9513352Y-17676928D02*
X9532400Y-17676928D01*
X9675257Y-17667404D02*
X9656209Y-17676928D01*
X9656209Y-17676928D02*
X9618114Y-17676928D01*
X9618114Y-17676928D02*
X9599067Y-17667404D01*
X9599067Y-17667404D02*
X9589543Y-17648357D01*
X9589543Y-17648357D02*
X9589543Y-17572166D01*
X9589543Y-17572166D02*
X9599067Y-17553119D01*
X9599067Y-17553119D02*
X9618114Y-17543595D01*
X9618114Y-17543595D02*
X9656209Y-17543595D01*
X9656209Y-17543595D02*
X9675257Y-17553119D01*
X9675257Y-17553119D02*
X9684781Y-17572166D01*
X9684781Y-17572166D02*
X9684781Y-17591214D01*
X9684781Y-17591214D02*
X9589543Y-17610261D01*
X9856209Y-17676928D02*
X9856209Y-17476928D01*
X9856209Y-17667404D02*
X9837162Y-17676928D01*
X9837162Y-17676928D02*
X9799067Y-17676928D01*
X9799067Y-17676928D02*
X9780019Y-17667404D01*
X9780019Y-17667404D02*
X9770495Y-17657880D01*
X9770495Y-17657880D02*
X9760971Y-17638833D01*
X9760971Y-17638833D02*
X9760971Y-17581690D01*
X9760971Y-17581690D02*
X9770495Y-17562642D01*
X9770495Y-17562642D02*
X9780019Y-17553119D01*
X9780019Y-17553119D02*
X9799067Y-17543595D01*
X9799067Y-17543595D02*
X9837162Y-17543595D01*
X9837162Y-17543595D02*
X9856209Y-17553119D01*
X9932400Y-17753119D02*
X9941924Y-17743595D01*
X9941924Y-17743595D02*
X9960971Y-17715023D01*
X9960971Y-17715023D02*
X9970495Y-17695976D01*
X9970495Y-17695976D02*
X9980019Y-17667404D01*
X9980019Y-17667404D02*
X9989543Y-17619785D01*
X9989543Y-17619785D02*
X9989543Y-17581690D01*
X9989543Y-17581690D02*
X9980019Y-17534071D01*
X9980019Y-17534071D02*
X9970495Y-17505500D01*
X9970495Y-17505500D02*
X9960971Y-17486452D01*
X9960971Y-17486452D02*
X9941924Y-17457880D01*
X9941924Y-17457880D02*
X9932400Y-17448357D01*
M02*
