M48
; DRILL file {KiCad 7.0.1} date Tue Sep  3 10:56:30 2024
; FORMAT={-:-/ absolute / metric / decimal}
; #@! TF.CreationDate,2024-09-03T10:56:30+07:00
; #@! TF.GenerationSoftware,Kicad,Pcbnew,7.0.1
; #@! TF.FileFunction,NonPlated,1,2,NPTH
FMAT,2
METRIC
; #@! TA.AperFunction,NonPlated,NPTH,ComponentDrill
T1C1.200
; #@! TA.AperFunction,NonPlated,NPTH,ComponentDrill
T2C1.700
; #@! TA.AperFunction,NonPlated,NPTH,ComponentDrill
T3C3.000
; #@! TA.AperFunction,NonPlated,NPTH,ComponentDrill
T4C4.000
%
G90
G05
T1
X117.57Y-127.54
X117.57Y-129.29
X124.57Y-127.54
X124.57Y-129.29
T2
X35.052Y-83.121
X35.052Y-100.076
X35.052Y-117.094
X45.212Y-83.121
X45.212Y-100.076
X45.212Y-117.094
X53.086Y-78.359
X53.086Y-95.313
X53.086Y-112.331
X63.246Y-78.359
X63.246Y-95.313
X63.246Y-112.331
X69.79Y-137.82
X71.056Y-75.946
X71.056Y-92.964
X71.12Y-109.982
X79.95Y-137.82
X81.216Y-75.946
X81.216Y-92.964
X81.28Y-109.982
X89.09Y-78.359
X89.09Y-95.377
X89.09Y-112.331
X90.661Y-139.973
X99.251Y-78.359
X99.251Y-95.377
X99.251Y-112.331
X100.474Y-142.602
X107.061Y-80.772
X107.061Y-97.727
X107.061Y-114.744
X112.441Y-142.177
X117.221Y-80.772
X117.221Y-97.727
X117.221Y-114.744
X121.239Y-147.256
T3
X36.322Y-80.581
X36.322Y-97.536
X36.322Y-114.554
X37.592Y-78.041
X37.592Y-94.996
X37.592Y-112.014
X42.672Y-78.041
X42.672Y-94.996
X42.672Y-112.014
X43.942Y-80.581
X43.942Y-97.536
X43.942Y-114.554
X54.356Y-75.819
X54.356Y-92.773
X54.356Y-109.791
X55.626Y-73.279
X55.626Y-90.233
X55.626Y-107.251
X60.706Y-73.279
X60.706Y-90.233
X60.706Y-107.251
X61.976Y-75.819
X61.976Y-92.773
X61.976Y-109.791
X71.06Y-135.28
X72.326Y-73.406
X72.326Y-90.424
X72.33Y-132.74
X72.39Y-107.442
X73.596Y-70.866
X73.596Y-87.884
X73.66Y-104.902
X77.41Y-132.74
X78.676Y-70.866
X78.676Y-87.884
X78.68Y-135.28
X78.74Y-104.902
X79.947Y-73.406
X79.947Y-90.424
X80.01Y-107.442
X90.361Y-75.819
X90.361Y-92.837
X90.361Y-109.791
X91.63Y-73.279
X91.63Y-90.297
X91.63Y-107.251
X92.545Y-137.848
X94.429Y-135.723
X96.71Y-73.279
X96.71Y-90.297
X96.71Y-107.251
X97.98Y-75.819
X97.98Y-92.837
X97.98Y-109.791
X99.336Y-137.038
X99.905Y-139.82
X108.331Y-78.232
X108.331Y-95.186
X108.331Y-112.204
X109.601Y-75.692
X109.601Y-92.646
X109.601Y-109.664
X114.681Y-75.692
X114.681Y-92.646
X114.681Y-109.664
X114.81Y-140.612
X115.951Y-78.232
X115.951Y-95.186
X115.951Y-112.204
X117.18Y-139.047
X121.41Y-144.422
X121.58Y-141.587
T4
X40.132Y-83.121
X40.132Y-100.076
X40.132Y-117.094
X58.166Y-78.359
X58.166Y-95.313
X58.166Y-112.331
X74.87Y-137.82
X76.136Y-75.946
X76.136Y-92.964
X76.2Y-109.982
X94.17Y-78.359
X94.17Y-95.377
X94.17Y-112.331
X95.567Y-141.287
X112.141Y-80.772
X112.141Y-97.727
X112.141Y-114.744
X116.84Y-144.716
T0
M30
